solid OpenSCAD_Model
  facet normal 1 -0 0
    outer loop
      vertex 37.65 -30 -26.3
      vertex 37.65 30 -37.6
      vertex 37.65 30 -26.3
    endloop
  endfacet
  facet normal 1 0 0
    outer loop
      vertex 37.65 30 -37.6
      vertex 37.65 -30 -26.3
      vertex 37.65 -30 -37.6
    endloop
  endfacet
  facet normal -0 0 1
    outer loop
      vertex -37.65 30 -26.3
      vertex -32.8272 -30 -26.3
      vertex -32.8272 30 -26.3
    endloop
  endfacet
  facet normal 0 0 1
    outer loop
      vertex -32.8272 -30 -26.3
      vertex -37.65 30 -26.3
      vertex -37.65 -30 -26.3
    endloop
  endfacet
  facet normal -0 0 1
    outer loop
      vertex 28.4496 30 -26.3
      vertex 37.65 -30 -26.3
      vertex 37.65 30 -26.3
    endloop
  endfacet
  facet normal 0 0 1
    outer loop
      vertex 37.65 -30 -26.3
      vertex 28.4496 30 -26.3
      vertex 28.4496 -30 -26.3
    endloop
  endfacet
  facet normal 0 0 -1
    outer loop
      vertex -37.65 -30 -37.6
      vertex 37.65 30 -37.6
      vertex 37.65 -30 -37.6
    endloop
  endfacet
  facet normal -0 0 -1
    outer loop
      vertex 37.65 30 -37.6
      vertex -37.65 -30 -37.6
      vertex -37.65 30 -37.6
    endloop
  endfacet
  facet normal -1 0 0
    outer loop
      vertex -37.65 -30 -37.6
      vertex -37.65 30 -26.3
      vertex -37.65 30 -37.6
    endloop
  endfacet
  facet normal -1 -0 0
    outer loop
      vertex -37.65 30 -26.3
      vertex -37.65 -30 -37.6
      vertex -37.65 -30 -26.3
    endloop
  endfacet
  facet normal 0 1 -0
    outer loop
      vertex 37.65 30 -37.6
      vertex 28.4496 30 -26.3
      vertex 37.65 30 -26.3
    endloop
  endfacet
  facet normal 0 1 0
    outer loop
      vertex 28.4496 30 -26.3
      vertex 37.65 30 -37.6
      vertex 27.5942 30 -26.9049
    endloop
  endfacet
  facet normal 0 1 0
    outer loop
      vertex 27.5942 30 -26.9049
      vertex 37.65 30 -37.6
      vertex 27.5892 30 -26.9084
    endloop
  endfacet
  facet normal 0 1 0
    outer loop
      vertex 27.5892 30 -26.9084
      vertex 37.65 30 -37.6
      vertex 26.5462 30 -27.6144
    endloop
  endfacet
  facet normal 0 1 0
    outer loop
      vertex 26.5462 30 -27.6144
      vertex 37.65 30 -37.6
      vertex 26.5193 30 -27.6306
    endloop
  endfacet
  facet normal 0 1 0
    outer loop
      vertex 26.5193 30 -27.6306
      vertex 37.65 30 -37.6
      vertex 25.4203 30 -28.2176
    endloop
  endfacet
  facet normal 0 1 0
    outer loop
      vertex 25.4203 30 -28.2176
      vertex 37.65 30 -37.6
      vertex 25.3744 30 -28.2374
    endloop
  endfacet
  facet normal 0 1 0
    outer loop
      vertex 25.3744 30 -28.2374
      vertex 37.65 30 -37.6
      vertex 24.231 30 -28.6209
    endloop
  endfacet
  facet normal 0 1 0
    outer loop
      vertex 24.231 30 -28.6209
      vertex 37.65 30 -37.6
      vertex 23.0381 30 -29.0937
    endloop
  endfacet
  facet normal 0 1 0
    outer loop
      vertex 23.0381 30 -29.0937
      vertex 37.65 30 -37.6
      vertex 21.7921 30 -29.6009
    endloop
  endfacet
  facet normal 0 1 0
    outer loop
      vertex 21.7921 30 -29.6009
      vertex 37.65 30 -37.6
      vertex 21.7561 30 -29.6129
    endloop
  endfacet
  facet normal 0 1 0
    outer loop
      vertex 21.7561 30 -29.6129
      vertex 37.65 30 -37.6
      vertex 20.4631 30 -29.9569
    endloop
  endfacet
  facet normal 0 1 0
    outer loop
      vertex 20.4631 30 -29.9569
      vertex 37.65 30 -37.6
      vertex 20.4575 30 -29.9583
    endloop
  endfacet
  facet normal 0 1 0
    outer loop
      vertex 20.4575 30 -29.9583
      vertex 37.65 30 -37.6
      vertex 19.1238 30 -30.2858
    endloop
  endfacet
  facet normal 0 1 0
    outer loop
      vertex 19.1238 30 -30.2858
      vertex 37.65 30 -37.6
      vertex 17.751 30 -30.6452
    endloop
  endfacet
  facet normal 0 1 0
    outer loop
      vertex 14.8583 30 -31.1963
      vertex 11.9014 30 -31.7172
      vertex 13.3938 30 -31.3947
    endloop
  endfacet
  facet normal 0 1 0
    outer loop
      vertex 37.65 30 -37.6
      vertex 14.8583 30 -31.1963
      vertex 14.8721 30 -31.1941
    endloop
  endfacet
  facet normal 0 1 0
    outer loop
      vertex 11.8764 30 -31.7215
      vertex 8.825 30 -32.2579
      vertex 10.3619 30 -31.9168
    endloop
  endfacet
  facet normal 0 1 0
    outer loop
      vertex 37.65 30 -37.6
      vertex 11.8764 30 -31.7215
      vertex 11.9014 30 -31.7172
    endloop
  endfacet
  facet normal 0 1 0
    outer loop
      vertex 8.77966 30 -32.2644
      vertex 5.6508 30 -32.5701
      vertex 7.22099 30 -32.3667
    endloop
  endfacet
  facet normal 0 1 0
    outer loop
      vertex 8.77966 30 -32.2644
      vertex 4.05966 30 -32.8097
      vertex 5.6508 30 -32.5701
    endloop
  endfacet
  facet normal 0 1 0
    outer loop
      vertex 37.65 30 -37.6
      vertex 4.05966 30 -32.8097
      vertex 8.77966 30 -32.2644
    endloop
  endfacet
  facet normal 0 1 0
    outer loop
      vertex 4.04608 30 -32.8114
      vertex 0.853989 30 -33.242
      vertex 2.4521 30 -32.9774
    endloop
  endfacet
  facet normal 0 1 0
    outer loop
      vertex 4.05966 30 -32.8097
      vertex 37.65 30 -37.6
      vertex 4.04608 30 -32.8114
    endloop
  endfacet
  facet normal 0 1 0
    outer loop
      vertex 0.828217 30 -33.2451
      vertex -2.36966 30 -33.597
      vertex -0.772263 30 -33.3694
    endloop
  endfacet
  facet normal 0 1 0
    outer loop
      vertex -37.65 30 -37.6
      vertex -2.41199 30 -33.6
      vertex 37.65 30 -37.6
    endloop
  endfacet
  facet normal 0 1 0
    outer loop
      vertex -2.36966 30 -33.597
      vertex 37.65 30 -37.6
      vertex -2.41199 30 -33.6
    endloop
  endfacet
  facet normal 0 1 0
    outer loop
      vertex 0.828217 30 -33.2451
      vertex 37.65 30 -37.6
      vertex -2.36966 30 -33.597
    endloop
  endfacet
  facet normal 0 1 0
    outer loop
      vertex 0.853989 30 -33.242
      vertex 37.65 30 -37.6
      vertex 0.828217 30 -33.2451
    endloop
  endfacet
  facet normal 0 1 0
    outer loop
      vertex 4.04608 30 -32.8114
      vertex 37.65 30 -37.6
      vertex 0.853989 30 -33.242
    endloop
  endfacet
  facet normal 0 1 0
    outer loop
      vertex 8.825 30 -32.2579
      vertex 37.65 30 -37.6
      vertex 8.77966 30 -32.2644
    endloop
  endfacet
  facet normal 0 1 0
    outer loop
      vertex 11.8764 30 -31.7215
      vertex 37.65 30 -37.6
      vertex 8.825 30 -32.2579
    endloop
  endfacet
  facet normal 0 1 0
    outer loop
      vertex 14.8583 30 -31.1963
      vertex 37.65 30 -37.6
      vertex 11.9014 30 -31.7172
    endloop
  endfacet
  facet normal 0 1 0
    outer loop
      vertex 16.3211 30 -30.9283
      vertex 37.65 30 -37.6
      vertex 14.8721 30 -31.1941
    endloop
  endfacet
  facet normal 0 1 0
    outer loop
      vertex 17.7331 30 -30.6493
      vertex 37.65 30 -37.6
      vertex 16.3211 30 -30.9283
    endloop
  endfacet
  facet normal 0 1 0
    outer loop
      vertex 17.751 30 -30.6452
      vertex 37.65 30 -37.6
      vertex 17.7331 30 -30.6493
    endloop
  endfacet
  facet normal 0 1 0
    outer loop
      vertex -32.6514 30 -26.5065
      vertex -37.65 30 -26.3
      vertex -32.8272 30 -26.3
    endloop
  endfacet
  facet normal 0 1 0
    outer loop
      vertex -32.634 30 -26.5252
      vertex -37.65 30 -26.3
      vertex -32.6514 30 -26.5065
    endloop
  endfacet
  facet normal 0 1 0
    outer loop
      vertex -31.96 30 -27.1922
      vertex -37.65 30 -26.3
      vertex -32.634 30 -26.5252
    endloop
  endfacet
  facet normal 0 1 0
    outer loop
      vertex -31.9389 30 -27.2112
      vertex -37.65 30 -26.3
      vertex -31.96 30 -27.1922
    endloop
  endfacet
  facet normal 0 1 0
    outer loop
      vertex -37.65 30 -37.6
      vertex -31.9389 30 -27.2112
      vertex -31.1979 30 -27.8172
    endloop
  endfacet
  facet normal 0 1 0
    outer loop
      vertex -37.65 30 -37.6
      vertex -31.1979 30 -27.8172
      vertex -31.1782 30 -27.832
    endloop
  endfacet
  facet normal 0 1 0
    outer loop
      vertex -37.65 30 -37.6
      vertex -31.1782 30 -27.832
      vertex -30.3742 30 -28.386
    endloop
  endfacet
  facet normal 0 1 0
    outer loop
      vertex -37.65 30 -37.6
      vertex -30.3742 30 -28.386
      vertex -30.3681 30 -28.3901
    endloop
  endfacet
  facet normal 0 1 0
    outer loop
      vertex -37.65 30 -37.6
      vertex -30.3681 30 -28.3901
      vertex -29.4966 30 -28.9594
    endloop
  endfacet
  facet normal 0 1 0
    outer loop
      vertex -37.65 30 -37.6
      vertex -29.4966 30 -28.9594
      vertex -28.5686 30 -29.5474
    endloop
  endfacet
  facet normal 0 1 0
    outer loop
      vertex -37.65 30 -37.6
      vertex -28.5686 30 -29.5474
      vertex -28.5392 30 -29.5638
    endloop
  endfacet
  facet normal 0 1 0
    outer loop
      vertex -37.65 30 -37.6
      vertex -28.5392 30 -29.5638
      vertex -27.5522 30 -30.0438
    endloop
  endfacet
  facet normal 0 1 0
    outer loop
      vertex -37.65 30 -37.6
      vertex -27.5522 30 -30.0438
      vertex -27.5401 30 -30.0494
    endloop
  endfacet
  facet normal 0 1 0
    outer loop
      vertex -37.65 30 -37.6
      vertex -27.5401 30 -30.0494
      vertex -26.5002 30 -30.499
    endloop
  endfacet
  facet normal 0 1 0
    outer loop
      vertex -37.65 30 -37.6
      vertex -26.5002 30 -30.499
      vertex -25.4043 30 -31.0026
    endloop
  endfacet
  facet normal 0 1 0
    outer loop
      vertex -37.65 30 -37.6
      vertex -25.4043 30 -31.0026
      vertex -25.3779 30 -31.0132
    endloop
  endfacet
  facet normal 0 1 0
    outer loop
      vertex -37.65 30 -37.6
      vertex -20.4507 30 -32.4779
      vertex -19.1149 30 -32.7739
    endloop
  endfacet
  facet normal 0 1 0
    outer loop
      vertex -37.65 30 -37.6
      vertex -17.7243 30 -32.976
      vertex -16.3185 30 -33.2408
    endloop
  endfacet
  facet normal 0 1 0
    outer loop
      vertex -13.3687 30 -33.4218
      vertex -16.2723 30 -33.2458
      vertex -14.8362 30 -33.2906
    endloop
  endfacet
  facet normal 0 1 0
    outer loop
      vertex -10.3383 30 -33.5987
      vertex -13.3484 30 -33.4229
      vertex -11.8555 30 -33.4547
    endloop
  endfacet
  facet normal 0 1 0
    outer loop
      vertex -37.65 30 -37.6
      vertex -13.3484 30 -33.4229
      vertex -10.3383 30 -33.5987
    endloop
  endfacet
  facet normal 0 1 0
    outer loop
      vertex -2.41199 30 -33.6
      vertex -37.65 30 -37.6
      vertex -10.31 30 -33.6
    endloop
  endfacet
  facet normal 0 1 0
    outer loop
      vertex -10.31 30 -33.6
      vertex -37.65 30 -37.6
      vertex -10.3383 30 -33.5987
    endloop
  endfacet
  facet normal 0 1 0
    outer loop
      vertex -13.3484 30 -33.4229
      vertex -37.65 30 -37.6
      vertex -13.3687 30 -33.4218
    endloop
  endfacet
  facet normal 0 1 0
    outer loop
      vertex -31.9389 30 -27.2112
      vertex -37.65 30 -37.6
      vertex -37.65 30 -26.3
    endloop
  endfacet
  facet normal 0 1 0
    outer loop
      vertex -24.2245 30 -31.416
      vertex -37.65 30 -37.6
      vertex -25.3779 30 -31.0132
    endloop
  endfacet
  facet normal 0 1 0
    outer loop
      vertex -23.0235 30 -31.824
      vertex -37.65 30 -37.6
      vertex -24.2245 30 -31.416
    endloop
  endfacet
  facet normal 0 1 0
    outer loop
      vertex -23.011 30 -31.828
      vertex -37.65 30 -37.6
      vertex -23.0235 30 -31.824
    endloop
  endfacet
  facet normal 0 1 0
    outer loop
      vertex -21.763 30 -32.192
      vertex -37.65 30 -37.6
      vertex -23.011 30 -31.828
    endloop
  endfacet
  facet normal 0 1 0
    outer loop
      vertex -21.7427 30 -32.1971
      vertex -37.65 30 -37.6
      vertex -21.763 30 -32.192
    endloop
  endfacet
  facet normal 0 1 0
    outer loop
      vertex -20.4507 30 -32.4779
      vertex -37.65 30 -37.6
      vertex -21.7427 30 -32.1971
    endloop
  endfacet
  facet normal 0 1 0
    outer loop
      vertex -19.093 30 -32.7779
      vertex -37.65 30 -37.6
      vertex -19.1149 30 -32.7739
    endloop
  endfacet
  facet normal 0 1 0
    outer loop
      vertex -17.7243 30 -32.976
      vertex -37.65 30 -37.6
      vertex -19.093 30 -32.7779
    endloop
  endfacet
  facet normal 0 1 0
    outer loop
      vertex -16.2723 30 -33.2458
      vertex -37.65 30 -37.6
      vertex -16.3185 30 -33.2408
    endloop
  endfacet
  facet normal 0 1 0
    outer loop
      vertex -13.3687 30 -33.4218
      vertex -37.65 30 -37.6
      vertex -16.2723 30 -33.2458
    endloop
  endfacet
  facet normal 0 -1 0
    outer loop
      vertex -37.65 -30 -26.3
      vertex -32.6514 -30 -26.5065
      vertex -32.8272 -30 -26.3
    endloop
  endfacet
  facet normal 0 -1 0
    outer loop
      vertex -37.65 -30 -26.3
      vertex -32.634 -30 -26.5252
      vertex -32.6514 -30 -26.5065
    endloop
  endfacet
  facet normal 0 -1 0
    outer loop
      vertex -37.65 -30 -26.3
      vertex -31.96 -30 -27.1922
      vertex -32.634 -30 -26.5252
    endloop
  endfacet
  facet normal 0 -1 0
    outer loop
      vertex -37.65 -30 -26.3
      vertex -31.9389 -30 -27.2112
      vertex -31.96 -30 -27.1922
    endloop
  endfacet
  facet normal 0 -1 0
    outer loop
      vertex -37.65 -30 -37.6
      vertex -31.9389 -30 -27.2112
      vertex -37.65 -30 -26.3
    endloop
  endfacet
  facet normal 0 -1 -0
    outer loop
      vertex -31.9389 -30 -27.2112
      vertex -37.65 -30 -37.6
      vertex -31.1979 -30 -27.8172
    endloop
  endfacet
  facet normal 0 -1 -0
    outer loop
      vertex -31.1979 -30 -27.8172
      vertex -37.65 -30 -37.6
      vertex -31.1782 -30 -27.832
    endloop
  endfacet
  facet normal 0 -1 -0
    outer loop
      vertex -31.1782 -30 -27.832
      vertex -37.65 -30 -37.6
      vertex -30.3742 -30 -28.386
    endloop
  endfacet
  facet normal 0 -1 -0
    outer loop
      vertex -30.3742 -30 -28.386
      vertex -37.65 -30 -37.6
      vertex -30.3681 -30 -28.3901
    endloop
  endfacet
  facet normal 0 -1 -0
    outer loop
      vertex -30.3681 -30 -28.3901
      vertex -37.65 -30 -37.6
      vertex -29.4966 -30 -28.9594
    endloop
  endfacet
  facet normal 0 -1 -0
    outer loop
      vertex -29.4966 -30 -28.9594
      vertex -37.65 -30 -37.6
      vertex -28.5686 -30 -29.5474
    endloop
  endfacet
  facet normal 0 -1 -0
    outer loop
      vertex -28.5686 -30 -29.5474
      vertex -37.65 -30 -37.6
      vertex -28.5392 -30 -29.5638
    endloop
  endfacet
  facet normal 0 -1 -0
    outer loop
      vertex -28.5392 -30 -29.5638
      vertex -37.65 -30 -37.6
      vertex -27.5522 -30 -30.0438
    endloop
  endfacet
  facet normal 0 -1 -0
    outer loop
      vertex -27.5522 -30 -30.0438
      vertex -37.65 -30 -37.6
      vertex -27.5401 -30 -30.0494
    endloop
  endfacet
  facet normal 0 -1 -0
    outer loop
      vertex -27.5401 -30 -30.0494
      vertex -37.65 -30 -37.6
      vertex -26.5002 -30 -30.499
    endloop
  endfacet
  facet normal 0 -1 -0
    outer loop
      vertex -26.5002 -30 -30.499
      vertex -37.65 -30 -37.6
      vertex -25.4043 -30 -31.0026
    endloop
  endfacet
  facet normal 0 -1 0
    outer loop
      vertex -37.65 -30 -37.6
      vertex -20.4507 -30 -32.4779
      vertex -21.7427 -30 -32.1971
    endloop
  endfacet
  facet normal 0 -1 0
    outer loop
      vertex -37.65 -30 -37.6
      vertex -17.7243 -30 -32.976
      vertex -19.093 -30 -32.7779
    endloop
  endfacet
  facet normal 0 -1 0
    outer loop
      vertex -16.2723 -30 -33.2458
      vertex -13.3687 -30 -33.4218
      vertex -14.8362 -30 -33.2906
    endloop
  endfacet
  facet normal 0 -1 0
    outer loop
      vertex -13.3484 -30 -33.4229
      vertex -10.3383 -30 -33.5987
      vertex -11.8555 -30 -33.4547
    endloop
  endfacet
  facet normal 0 -1 0
    outer loop
      vertex -37.65 -30 -37.6
      vertex -13.3484 -30 -33.4229
      vertex -13.3687 -30 -33.4218
    endloop
  endfacet
  facet normal 0 -1 -0
    outer loop
      vertex -10.31 -30 -33.6
      vertex -37.65 -30 -37.6
      vertex -2.41199 -30 -33.6
    endloop
  endfacet
  facet normal 0 -1 -0
    outer loop
      vertex -10.3383 -30 -33.5987
      vertex -37.65 -30 -37.6
      vertex -10.31 -30 -33.6
    endloop
  endfacet
  facet normal 0 -1 -0
    outer loop
      vertex -13.3484 -30 -33.4229
      vertex -37.65 -30 -37.6
      vertex -10.3383 -30 -33.5987
    endloop
  endfacet
  facet normal 0 -1 -0
    outer loop
      vertex -16.2723 -30 -33.2458
      vertex -37.65 -30 -37.6
      vertex -13.3687 -30 -33.4218
    endloop
  endfacet
  facet normal 0 -1 -0
    outer loop
      vertex -16.3185 -30 -33.2408
      vertex -37.65 -30 -37.6
      vertex -16.2723 -30 -33.2458
    endloop
  endfacet
  facet normal 0 -1 -0
    outer loop
      vertex -17.7243 -30 -32.976
      vertex -37.65 -30 -37.6
      vertex -16.3185 -30 -33.2408
    endloop
  endfacet
  facet normal 0 -1 -0
    outer loop
      vertex -19.1149 -30 -32.7739
      vertex -37.65 -30 -37.6
      vertex -19.093 -30 -32.7779
    endloop
  endfacet
  facet normal 0 -1 -0
    outer loop
      vertex -20.4507 -30 -32.4779
      vertex -37.65 -30 -37.6
      vertex -19.1149 -30 -32.7739
    endloop
  endfacet
  facet normal 0 -1 -0
    outer loop
      vertex -21.763 -30 -32.192
      vertex -37.65 -30 -37.6
      vertex -21.7427 -30 -32.1971
    endloop
  endfacet
  facet normal 0 -1 -0
    outer loop
      vertex -23.011 -30 -31.828
      vertex -37.65 -30 -37.6
      vertex -21.763 -30 -32.192
    endloop
  endfacet
  facet normal 0 -1 -0
    outer loop
      vertex -23.0235 -30 -31.824
      vertex -37.65 -30 -37.6
      vertex -23.011 -30 -31.828
    endloop
  endfacet
  facet normal 0 -1 -0
    outer loop
      vertex -24.2245 -30 -31.416
      vertex -37.65 -30 -37.6
      vertex -23.0235 -30 -31.824
    endloop
  endfacet
  facet normal 0 -1 -0
    outer loop
      vertex -25.3779 -30 -31.0132
      vertex -37.65 -30 -37.6
      vertex -24.2245 -30 -31.416
    endloop
  endfacet
  facet normal 0 -1 -0
    outer loop
      vertex -25.4043 -30 -31.0026
      vertex -37.65 -30 -37.6
      vertex -25.3779 -30 -31.0132
    endloop
  endfacet
  facet normal 0 -1 0
    outer loop
      vertex 37.65 -30 -37.6
      vertex 28.4496 -30 -26.3
      vertex 27.5942 -30 -26.9049
    endloop
  endfacet
  facet normal 0 -1 0
    outer loop
      vertex 37.65 -30 -37.6
      vertex 27.5942 -30 -26.9049
      vertex 27.5892 -30 -26.9084
    endloop
  endfacet
  facet normal 0 -1 0
    outer loop
      vertex 37.65 -30 -37.6
      vertex 27.5892 -30 -26.9084
      vertex 26.5462 -30 -27.6144
    endloop
  endfacet
  facet normal 0 -1 0
    outer loop
      vertex 37.65 -30 -37.6
      vertex 26.5462 -30 -27.6144
      vertex 26.5193 -30 -27.6306
    endloop
  endfacet
  facet normal 0 -1 0
    outer loop
      vertex 37.65 -30 -37.6
      vertex 26.5193 -30 -27.6306
      vertex 25.4203 -30 -28.2176
    endloop
  endfacet
  facet normal 0 -1 0
    outer loop
      vertex 37.65 -30 -37.6
      vertex 25.4203 -30 -28.2176
      vertex 25.3744 -30 -28.2374
    endloop
  endfacet
  facet normal 0 -1 0
    outer loop
      vertex 37.65 -30 -37.6
      vertex 25.3744 -30 -28.2374
      vertex 24.231 -30 -28.6209
    endloop
  endfacet
  facet normal 0 -1 0
    outer loop
      vertex 37.65 -30 -37.6
      vertex 24.231 -30 -28.6209
      vertex 23.0381 -30 -29.0937
    endloop
  endfacet
  facet normal 0 -1 0
    outer loop
      vertex 37.65 -30 -37.6
      vertex 23.0381 -30 -29.0937
      vertex 21.7921 -30 -29.6009
    endloop
  endfacet
  facet normal 0 -1 0
    outer loop
      vertex 37.65 -30 -37.6
      vertex 21.7921 -30 -29.6009
      vertex 21.7561 -30 -29.6129
    endloop
  endfacet
  facet normal 0 -1 0
    outer loop
      vertex 37.65 -30 -37.6
      vertex 21.7561 -30 -29.6129
      vertex 20.4631 -30 -29.9569
    endloop
  endfacet
  facet normal 0 -1 0
    outer loop
      vertex 37.65 -30 -37.6
      vertex 20.4631 -30 -29.9569
      vertex 20.4575 -30 -29.9583
    endloop
  endfacet
  facet normal 0 -1 0
    outer loop
      vertex 37.65 -30 -37.6
      vertex 20.4575 -30 -29.9583
      vertex 19.1238 -30 -30.2858
    endloop
  endfacet
  facet normal 0 -1 0
    outer loop
      vertex 37.65 -30 -37.6
      vertex 19.1238 -30 -30.2858
      vertex 17.751 -30 -30.6452
    endloop
  endfacet
  facet normal 0 -1 0
    outer loop
      vertex 37.65 -30 -37.6
      vertex 17.751 -30 -30.6452
      vertex 17.7331 -30 -30.6493
    endloop
  endfacet
  facet normal 0 -1 0
    outer loop
      vertex 11.9014 -30 -31.7172
      vertex 14.8583 -30 -31.1963
      vertex 13.3938 -30 -31.3947
    endloop
  endfacet
  facet normal 0 -1 0
    outer loop
      vertex 37.65 -30 -37.6
      vertex 14.8583 -30 -31.1963
      vertex 11.9014 -30 -31.7172
    endloop
  endfacet
  facet normal 0 -1 0
    outer loop
      vertex 8.825 -30 -32.2579
      vertex 11.8764 -30 -31.7215
      vertex 10.3619 -30 -31.9168
    endloop
  endfacet
  facet normal 0 -1 0
    outer loop
      vertex 37.65 -30 -37.6
      vertex 11.8764 -30 -31.7215
      vertex 8.825 -30 -32.2579
    endloop
  endfacet
  facet normal 0 -1 0
    outer loop
      vertex 5.6508 -30 -32.5701
      vertex 8.77966 -30 -32.2644
      vertex 7.22099 -30 -32.3667
    endloop
  endfacet
  facet normal 0 -1 0
    outer loop
      vertex 4.05966 -30 -32.8097
      vertex 8.77966 -30 -32.2644
      vertex 5.6508 -30 -32.5701
    endloop
  endfacet
  facet normal 0 -1 0
    outer loop
      vertex 37.65 -30 -37.6
      vertex 4.05966 -30 -32.8097
      vertex 4.04608 -30 -32.8114
    endloop
  endfacet
  facet normal 0 -1 0
    outer loop
      vertex 0.853989 -30 -33.242
      vertex 4.04608 -30 -32.8114
      vertex 2.4521 -30 -32.9774
    endloop
  endfacet
  facet normal 0 -1 0
    outer loop
      vertex 37.65 -30 -37.6
      vertex 4.04608 -30 -32.8114
      vertex 0.853989 -30 -33.242
    endloop
  endfacet
  facet normal 0 -1 0
    outer loop
      vertex -2.36966 -30 -33.597
      vertex 0.828217 -30 -33.2451
      vertex -0.772263 -30 -33.3694
    endloop
  endfacet
  facet normal 0 -1 0
    outer loop
      vertex 37.65 -30 -37.6
      vertex -2.41199 -30 -33.6
      vertex -37.65 -30 -37.6
    endloop
  endfacet
  facet normal 0 -1 0
    outer loop
      vertex -2.41199 -30 -33.6
      vertex 37.65 -30 -37.6
      vertex -2.36966 -30 -33.597
    endloop
  endfacet
  facet normal 0 -1 0
    outer loop
      vertex 28.4496 -30 -26.3
      vertex 37.65 -30 -37.6
      vertex 37.65 -30 -26.3
    endloop
  endfacet
  facet normal 0 -1 0
    outer loop
      vertex 16.3211 -30 -30.9283
      vertex 37.65 -30 -37.6
      vertex 17.7331 -30 -30.6493
    endloop
  endfacet
  facet normal 0 -1 0
    outer loop
      vertex 14.8721 -30 -31.1941
      vertex 37.65 -30 -37.6
      vertex 16.3211 -30 -30.9283
    endloop
  endfacet
  facet normal 0 -1 0
    outer loop
      vertex 14.8583 -30 -31.1963
      vertex 37.65 -30 -37.6
      vertex 14.8721 -30 -31.1941
    endloop
  endfacet
  facet normal 0 -1 0
    outer loop
      vertex 11.8764 -30 -31.7215
      vertex 37.65 -30 -37.6
      vertex 11.9014 -30 -31.7172
    endloop
  endfacet
  facet normal 0 -1 0
    outer loop
      vertex 8.77966 -30 -32.2644
      vertex 37.65 -30 -37.6
      vertex 8.825 -30 -32.2579
    endloop
  endfacet
  facet normal 0 -1 0
    outer loop
      vertex 4.05966 -30 -32.8097
      vertex 37.65 -30 -37.6
      vertex 8.77966 -30 -32.2644
    endloop
  endfacet
  facet normal 0 -1 0
    outer loop
      vertex 0.828217 -30 -33.2451
      vertex 37.65 -30 -37.6
      vertex 0.853989 -30 -33.242
    endloop
  endfacet
  facet normal 0 -1 0
    outer loop
      vertex -2.36966 -30 -33.597
      vertex 37.65 -30 -37.6
      vertex 0.828217 -30 -33.2451
    endloop
  endfacet
  facet normal -0.141057 0 0.990001
    outer loop
      vertex -2.36966 30 -33.597
      vertex -0.772263 -30 -33.3694
      vertex -0.772263 30 -33.3694
    endloop
  endfacet
  facet normal -0.141057 0 0.990001
    outer loop
      vertex -0.772263 -30 -33.3694
      vertex -2.36966 30 -33.597
      vertex -2.36966 -30 -33.597
    endloop
  endfacet
  facet normal -0.077431 0 0.996998
    outer loop
      vertex -0.772263 30 -33.3694
      vertex 0.828217 -30 -33.2451
      vertex 0.828217 30 -33.2451
    endloop
  endfacet
  facet normal -0.077431 0 0.996998
    outer loop
      vertex 0.828217 -30 -33.2451
      vertex -0.772263 30 -33.3694
      vertex -0.772263 -30 -33.3694
    endloop
  endfacet
  facet normal -0.119425 0 0.992843
    outer loop
      vertex 0.828217 30 -33.2451
      vertex 0.853989 -30 -33.242
      vertex 0.853989 30 -33.242
    endloop
  endfacet
  facet normal -0.119425 0 0.992843
    outer loop
      vertex 0.853989 -30 -33.242
      vertex 0.828217 30 -33.2451
      vertex 0.828217 -30 -33.2451
    endloop
  endfacet
  facet normal -0.163347 0 0.986569
    outer loop
      vertex 0.853989 30 -33.242
      vertex 2.4521 -30 -32.9774
      vertex 2.4521 30 -32.9774
    endloop
  endfacet
  facet normal -0.163347 0 0.986569
    outer loop
      vertex 2.4521 -30 -32.9774
      vertex 0.853989 30 -33.242
      vertex 0.853989 -30 -33.242
    endloop
  endfacet
  facet normal -0.103582 0 0.994621
    outer loop
      vertex 2.4521 30 -32.9774
      vertex 4.04608 -30 -32.8114
      vertex 4.04608 30 -32.8114
    endloop
  endfacet
  facet normal -0.103582 0 0.994621
    outer loop
      vertex 4.04608 -30 -32.8114
      vertex 2.4521 30 -32.9774
      vertex 2.4521 -30 -32.9774
    endloop
  endfacet
  facet normal -0.124215 0 0.992255
    outer loop
      vertex 4.04608 30 -32.8114
      vertex 4.05966 -30 -32.8097
      vertex 4.05966 30 -32.8097
    endloop
  endfacet
  facet normal -0.124215 0 0.992255
    outer loop
      vertex 4.05966 -30 -32.8097
      vertex 4.04608 30 -32.8114
      vertex 4.04608 -30 -32.8114
    endloop
  endfacet
  facet normal -0.148905 0 0.988851
    outer loop
      vertex 4.05966 30 -32.8097
      vertex 5.6508 -30 -32.5701
      vertex 5.6508 30 -32.5701
    endloop
  endfacet
  facet normal -0.148905 0 0.988851
    outer loop
      vertex 5.6508 -30 -32.5701
      vertex 4.05966 30 -32.8097
      vertex 4.05966 -30 -32.8097
    endloop
  endfacet
  facet normal -0.128465 0 0.991714
    outer loop
      vertex 5.6508 30 -32.5701
      vertex 7.22099 -30 -32.3667
      vertex 7.22099 30 -32.3667
    endloop
  endfacet
  facet normal -0.128465 0 0.991714
    outer loop
      vertex 7.22099 -30 -32.3667
      vertex 5.6508 30 -32.5701
      vertex 5.6508 -30 -32.5701
    endloop
  endfacet
  facet normal -0.065492 0 0.997853
    outer loop
      vertex 7.22099 30 -32.3667
      vertex 8.77966 -30 -32.2644
      vertex 8.77966 30 -32.2644
    endloop
  endfacet
  facet normal -0.065492 0 0.997853
    outer loop
      vertex 8.77966 -30 -32.2644
      vertex 7.22099 30 -32.3667
      vertex 7.22099 -30 -32.3667
    endloop
  endfacet
  facet normal -0.14191 0 0.98988
    outer loop
      vertex 8.77966 30 -32.2644
      vertex 8.825 -30 -32.2579
      vertex 8.825 30 -32.2579
    endloop
  endfacet
  facet normal -0.14191 0 0.98988
    outer loop
      vertex 8.825 -30 -32.2579
      vertex 8.77966 30 -32.2644
      vertex 8.77966 -30 -32.2644
    endloop
  endfacet
  facet normal -0.216668 0 0.976245
    outer loop
      vertex 8.825 30 -32.2579
      vertex 10.3619 -30 -31.9168
      vertex 10.3619 30 -31.9168
    endloop
  endfacet
  facet normal -0.216668 0 0.976245
    outer loop
      vertex 10.3619 -30 -31.9168
      vertex 8.825 30 -32.2579
      vertex 8.825 -30 -32.2579
    endloop
  endfacet
  facet normal -0.127894 0 0.991788
    outer loop
      vertex 10.3619 30 -31.9168
      vertex 11.8764 -30 -31.7215
      vertex 11.8764 30 -31.7215
    endloop
  endfacet
  facet normal -0.127894 0 0.991788
    outer loop
      vertex 11.8764 -30 -31.7215
      vertex 10.3619 30 -31.9168
      vertex 10.3619 -30 -31.9168
    endloop
  endfacet
  facet normal -0.169511 0 0.985528
    outer loop
      vertex 11.8764 30 -31.7215
      vertex 11.9014 -30 -31.7172
      vertex 11.9014 30 -31.7172
    endloop
  endfacet
  facet normal -0.169511 0 0.985528
    outer loop
      vertex 11.9014 -30 -31.7172
      vertex 11.8764 30 -31.7215
      vertex 11.8764 -30 -31.7215
    endloop
  endfacet
  facet normal -0.211219 0 0.977439
    outer loop
      vertex 11.9014 30 -31.7172
      vertex 13.3938 -30 -31.3947
      vertex 13.3938 30 -31.3947
    endloop
  endfacet
  facet normal -0.211219 0 0.977439
    outer loop
      vertex 13.3938 -30 -31.3947
      vertex 11.9014 30 -31.7172
      vertex 11.9014 -30 -31.7172
    endloop
  endfacet
  facet normal -0.134247 0 0.990948
    outer loop
      vertex 13.3938 30 -31.3947
      vertex 14.8583 -30 -31.1963
      vertex 14.8583 30 -31.1963
    endloop
  endfacet
  facet normal -0.134247 0 0.990948
    outer loop
      vertex 14.8583 -30 -31.1963
      vertex 13.3938 30 -31.3947
      vertex 13.3938 -30 -31.3947
    endloop
  endfacet
  facet normal -0.157432 0 0.98753
    outer loop
      vertex 14.8583 30 -31.1963
      vertex 14.8721 -30 -31.1941
      vertex 14.8721 30 -31.1941
    endloop
  endfacet
  facet normal -0.157432 0 0.98753
    outer loop
      vertex 14.8721 -30 -31.1941
      vertex 14.8583 30 -31.1963
      vertex 14.8583 -30 -31.1963
    endloop
  endfacet
  facet normal -0.180426 0 0.983588
    outer loop
      vertex 14.8721 30 -31.1941
      vertex 16.3211 -30 -30.9283
      vertex 16.3211 30 -30.9283
    endloop
  endfacet
  facet normal -0.180426 0 0.983588
    outer loop
      vertex 16.3211 -30 -30.9283
      vertex 14.8721 30 -31.1941
      vertex 14.8721 -30 -31.1941
    endloop
  endfacet
  facet normal -0.193844 0 0.981032
    outer loop
      vertex 16.3211 30 -30.9283
      vertex 17.7331 -30 -30.6493
      vertex 17.7331 30 -30.6493
    endloop
  endfacet
  facet normal -0.193844 0 0.981032
    outer loop
      vertex 17.7331 -30 -30.6493
      vertex 16.3211 30 -30.9283
      vertex 16.3211 -30 -30.9283
    endloop
  endfacet
  facet normal -0.223268 0 0.974757
    outer loop
      vertex 17.7331 30 -30.6493
      vertex 17.751 -30 -30.6452
      vertex 17.751 30 -30.6452
    endloop
  endfacet
  facet normal -0.223268 0 0.974757
    outer loop
      vertex 17.751 -30 -30.6452
      vertex 17.7331 30 -30.6493
      vertex 17.7331 -30 -30.6493
    endloop
  endfacet
  facet normal -0.253265 0 0.967397
    outer loop
      vertex 17.751 30 -30.6452
      vertex 19.1238 -30 -30.2858
      vertex 19.1238 30 -30.2858
    endloop
  endfacet
  facet normal -0.253265 0 0.967397
    outer loop
      vertex 19.1238 -30 -30.2858
      vertex 17.751 30 -30.6452
      vertex 17.751 -30 -30.6452
    endloop
  endfacet
  facet normal -0.238473 0 0.971149
    outer loop
      vertex 19.1238 30 -30.2858
      vertex 20.4575 -30 -29.9583
      vertex 20.4575 30 -29.9583
    endloop
  endfacet
  facet normal -0.238473 0 0.971149
    outer loop
      vertex 20.4575 -30 -29.9583
      vertex 19.1238 30 -30.2858
      vertex 19.1238 -30 -30.2858
    endloop
  endfacet
  facet normal -0.242536 0 0.970143
    outer loop
      vertex 20.4575 30 -29.9583
      vertex 20.4631 -30 -29.9569
      vertex 20.4631 30 -29.9569
    endloop
  endfacet
  facet normal -0.242536 0 0.970143
    outer loop
      vertex 20.4631 -30 -29.9569
      vertex 20.4575 30 -29.9583
      vertex 20.4575 -30 -29.9583
    endloop
  endfacet
  facet normal -0.257104 0 0.966384
    outer loop
      vertex 20.4631 30 -29.9569
      vertex 21.7561 -30 -29.6129
      vertex 21.7561 30 -29.6129
    endloop
  endfacet
  facet normal -0.257104 0 0.966384
    outer loop
      vertex 21.7561 -30 -29.6129
      vertex 20.4631 30 -29.9569
      vertex 20.4631 -30 -29.9569
    endloop
  endfacet
  facet normal -0.316228 0 0.948683
    outer loop
      vertex 21.7561 30 -29.6129
      vertex 21.7921 -30 -29.6009
      vertex 21.7921 30 -29.6009
    endloop
  endfacet
  facet normal -0.316228 0 0.948683
    outer loop
      vertex 21.7921 -30 -29.6009
      vertex 21.7561 30 -29.6129
      vertex 21.7561 -30 -29.6129
    endloop
  endfacet
  facet normal -0.377023 0 0.926204
    outer loop
      vertex 21.7921 30 -29.6009
      vertex 23.0381 -30 -29.0937
      vertex 23.0381 30 -29.0937
    endloop
  endfacet
  facet normal -0.377023 0 0.926204
    outer loop
      vertex 23.0381 -30 -29.0937
      vertex 21.7921 30 -29.6009
      vertex 21.7921 -30 -29.6009
    endloop
  endfacet
  facet normal -0.36846 0 0.929644
    outer loop
      vertex 23.0381 30 -29.0937
      vertex 24.231 -30 -28.6209
      vertex 24.231 30 -28.6209
    endloop
  endfacet
  facet normal -0.36846 0 0.929644
    outer loop
      vertex 24.231 -30 -28.6209
      vertex 23.0381 30 -29.0937
      vertex 23.0381 -30 -29.0937
    endloop
  endfacet
  facet normal -0.317993 0 0.948093
    outer loop
      vertex 24.231 30 -28.6209
      vertex 25.3744 -30 -28.2374
      vertex 25.3744 30 -28.2374
    endloop
  endfacet
  facet normal -0.317993 0 0.948093
    outer loop
      vertex 25.3744 -30 -28.2374
      vertex 24.231 30 -28.6209
      vertex 24.231 -30 -28.6209
    endloop
  endfacet
  facet normal -0.396091 0 0.918211
    outer loop
      vertex 25.3744 30 -28.2374
      vertex 25.4203 -30 -28.2176
      vertex 25.4203 30 -28.2176
    endloop
  endfacet
  facet normal -0.396091 0 0.918211
    outer loop
      vertex 25.4203 -30 -28.2176
      vertex 25.3744 30 -28.2374
      vertex 25.3744 -30 -28.2374
    endloop
  endfacet
  facet normal -0.47113 0 0.882064
    outer loop
      vertex 25.4203 30 -28.2176
      vertex 26.5193 -30 -27.6306
      vertex 26.5193 30 -27.6306
    endloop
  endfacet
  facet normal -0.47113 0 0.882064
    outer loop
      vertex 26.5193 -30 -27.6306
      vertex 25.4203 30 -28.2176
      vertex 25.4203 -30 -28.2176
    endloop
  endfacet
  facet normal -0.5159 0 0.856649
    outer loop
      vertex 26.5193 30 -27.6306
      vertex 26.5462 -30 -27.6144
      vertex 26.5462 30 -27.6144
    endloop
  endfacet
  facet normal -0.5159 0 0.856649
    outer loop
      vertex 26.5462 -30 -27.6144
      vertex 26.5193 30 -27.6306
      vertex 26.5193 -30 -27.6306
    endloop
  endfacet
  facet normal -0.56055 0 0.828121
    outer loop
      vertex 26.5462 30 -27.6144
      vertex 27.5892 -30 -26.9084
      vertex 27.5892 30 -26.9084
    endloop
  endfacet
  facet normal -0.56055 0 0.828121
    outer loop
      vertex 27.5892 -30 -26.9084
      vertex 26.5462 30 -27.6144
      vertex 26.5462 -30 -27.6144
    endloop
  endfacet
  facet normal -0.573462 0 0.819232
    outer loop
      vertex 27.5892 30 -26.9084
      vertex 27.5942 -30 -26.9049
      vertex 27.5942 30 -26.9049
    endloop
  endfacet
  facet normal -0.573462 0 0.819232
    outer loop
      vertex 27.5942 -30 -26.9049
      vertex 27.5892 30 -26.9084
      vertex 27.5892 -30 -26.9084
    endloop
  endfacet
  facet normal -0.577376 0 0.816478
    outer loop
      vertex 27.5942 30 -26.9049
      vertex 28.4496 -30 -26.3
      vertex 28.4496 30 -26.3
    endloop
  endfacet
  facet normal -0.577376 0 0.816478
    outer loop
      vertex 28.4496 -30 -26.3
      vertex 27.5942 30 -26.9049
      vertex 27.5942 -30 -26.9049
    endloop
  endfacet
  facet normal 0.761439 -0 0.648237
    outer loop
      vertex -32.8272 -30 -26.3
      vertex -32.6514 30 -26.5065
      vertex -32.8272 30 -26.3
    endloop
  endfacet
  facet normal 0.761439 0 0.648237
    outer loop
      vertex -32.6514 30 -26.5065
      vertex -32.8272 -30 -26.3
      vertex -32.6514 -30 -26.5065
    endloop
  endfacet
  facet normal 0.732096 -0 0.681202
    outer loop
      vertex -32.6514 -30 -26.5065
      vertex -32.634 30 -26.5252
      vertex -32.6514 30 -26.5065
    endloop
  endfacet
  facet normal 0.732096 0 0.681202
    outer loop
      vertex -32.634 30 -26.5252
      vertex -32.6514 -30 -26.5065
      vertex -32.634 -30 -26.5252
    endloop
  endfacet
  facet normal 0.703406 0 0.710788
    outer loop
      vertex -32.634 30 -26.5252
      vertex -31.96 -30 -27.1922
      vertex -31.96 30 -27.1922
    endloop
  endfacet
  facet normal 0.703406 0 0.710788
    outer loop
      vertex -31.96 -30 -27.1922
      vertex -32.634 30 -26.5252
      vertex -32.634 -30 -26.5252
    endloop
  endfacet
  facet normal 0.669159 0 0.743119
    outer loop
      vertex -31.96 30 -27.1922
      vertex -31.9389 -30 -27.2112
      vertex -31.9389 30 -27.2112
    endloop
  endfacet
  facet normal 0.669159 0 0.743119
    outer loop
      vertex -31.9389 -30 -27.2112
      vertex -31.96 30 -27.1922
      vertex -31.96 -30 -27.1922
    endloop
  endfacet
  facet normal 0.633067 0 0.774097
    outer loop
      vertex -31.9389 30 -27.2112
      vertex -31.1979 -30 -27.8172
      vertex -31.1979 30 -27.8172
    endloop
  endfacet
  facet normal 0.633067 0 0.774097
    outer loop
      vertex -31.1979 -30 -27.8172
      vertex -31.9389 30 -27.2112
      vertex -31.9389 -30 -27.2112
    endloop
  endfacet
  facet normal 0.600649 0 0.799513
    outer loop
      vertex -31.1979 30 -27.8172
      vertex -31.1782 -30 -27.832
      vertex -31.1782 30 -27.832
    endloop
  endfacet
  facet normal 0.600649 0 0.799513
    outer loop
      vertex -31.1782 -30 -27.832
      vertex -31.1979 30 -27.8172
      vertex -31.1979 -30 -27.8172
    endloop
  endfacet
  facet normal 0.567398 0 0.823444
    outer loop
      vertex -31.1782 30 -27.832
      vertex -30.3742 -30 -28.386
      vertex -30.3742 30 -28.386
    endloop
  endfacet
  facet normal 0.567398 0 0.823444
    outer loop
      vertex -30.3742 -30 -28.386
      vertex -31.1782 30 -27.832
      vertex -31.1782 -30 -27.832
    endloop
  endfacet
  facet normal 0.557836 0 0.829951
    outer loop
      vertex -30.3742 30 -28.386
      vertex -30.3681 -30 -28.3901
      vertex -30.3681 30 -28.3901
    endloop
  endfacet
  facet normal 0.557836 0 0.829951
    outer loop
      vertex -30.3681 -30 -28.3901
      vertex -30.3742 30 -28.386
      vertex -30.3742 -30 -28.386
    endloop
  endfacet
  facet normal 0.546895 0 0.837201
    outer loop
      vertex -30.3681 30 -28.3901
      vertex -29.4966 -30 -28.9594
      vertex -29.4966 30 -28.9594
    endloop
  endfacet
  facet normal 0.546895 0 0.837201
    outer loop
      vertex -29.4966 -30 -28.9594
      vertex -30.3681 30 -28.3901
      vertex -30.3681 -30 -28.3901
    endloop
  endfacet
  facet normal 0.535225 0 0.844709
    outer loop
      vertex -29.4966 30 -28.9594
      vertex -28.5686 -30 -29.5474
      vertex -28.5686 30 -29.5474
    endloop
  endfacet
  facet normal 0.535225 0 0.844709
    outer loop
      vertex -28.5686 -30 -29.5474
      vertex -29.4966 30 -28.9594
      vertex -29.4966 -30 -28.9594
    endloop
  endfacet
  facet normal 0.487155 0 0.873315
    outer loop
      vertex -28.5686 30 -29.5474
      vertex -28.5392 -30 -29.5638
      vertex -28.5392 30 -29.5638
    endloop
  endfacet
  facet normal 0.487155 0 0.873315
    outer loop
      vertex -28.5392 -30 -29.5638
      vertex -28.5686 30 -29.5474
      vertex -28.5686 -30 -29.5474
    endloop
  endfacet
  facet normal 0.437346 0 0.899293
    outer loop
      vertex -28.5392 30 -29.5638
      vertex -27.5522 -30 -30.0438
      vertex -27.5522 30 -30.0438
    endloop
  endfacet
  facet normal 0.437346 0 0.899293
    outer loop
      vertex -27.5522 -30 -30.0438
      vertex -28.5392 30 -29.5638
      vertex -28.5392 -30 -29.5638
    endloop
  endfacet
  facet normal 0.420009 0 0.90752
    outer loop
      vertex -27.5522 30 -30.0438
      vertex -27.5401 -30 -30.0494
      vertex -27.5401 30 -30.0494
    endloop
  endfacet
  facet normal 0.420009 0 0.90752
    outer loop
      vertex -27.5401 -30 -30.0494
      vertex -27.5522 30 -30.0438
      vertex -27.5522 -30 -30.0438
    endloop
  endfacet
  facet normal 0.396847 0 0.917885
    outer loop
      vertex -27.5401 30 -30.0494
      vertex -26.5002 -30 -30.499
      vertex -26.5002 30 -30.499
    endloop
  endfacet
  facet normal 0.396847 0 0.917885
    outer loop
      vertex -26.5002 -30 -30.499
      vertex -27.5401 30 -30.0494
      vertex -27.5401 -30 -30.0494
    endloop
  endfacet
  facet normal 0.417554 0 0.908652
    outer loop
      vertex -26.5002 30 -30.499
      vertex -25.4043 -30 -31.0026
      vertex -25.4043 30 -31.0026
    endloop
  endfacet
  facet normal 0.417554 0 0.908652
    outer loop
      vertex -25.4043 -30 -31.0026
      vertex -26.5002 30 -30.499
      vertex -26.5002 -30 -30.499
    endloop
  endfacet
  facet normal 0.372602 0 0.927991
    outer loop
      vertex -25.4043 30 -31.0026
      vertex -25.3779 -30 -31.0132
      vertex -25.3779 30 -31.0132
    endloop
  endfacet
  facet normal 0.372602 0 0.927991
    outer loop
      vertex -25.3779 -30 -31.0132
      vertex -25.4043 30 -31.0026
      vertex -25.4043 -30 -31.0026
    endloop
  endfacet
  facet normal 0.329701 0 0.944085
    outer loop
      vertex -25.3779 30 -31.0132
      vertex -24.2245 -30 -31.416
      vertex -24.2245 30 -31.416
    endloop
  endfacet
  facet normal 0.329701 0 0.944085
    outer loop
      vertex -24.2245 -30 -31.416
      vertex -25.3779 30 -31.0132
      vertex -25.3779 -30 -31.0132
    endloop
  endfacet
  facet normal 0.321662 0 0.946854
    outer loop
      vertex -24.2245 30 -31.416
      vertex -23.0235 -30 -31.824
      vertex -23.0235 30 -31.824
    endloop
  endfacet
  facet normal 0.321662 0 0.946854
    outer loop
      vertex -23.0235 -30 -31.824
      vertex -24.2245 30 -31.416
      vertex -24.2245 -30 -31.416
    endloop
  endfacet
  facet normal 0.304776 0 0.952424
    outer loop
      vertex -23.0235 30 -31.824
      vertex -23.011 -30 -31.828
      vertex -23.011 30 -31.828
    endloop
  endfacet
  facet normal 0.304776 0 0.952424
    outer loop
      vertex -23.011 -30 -31.828
      vertex -23.0235 30 -31.824
      vertex -23.0235 -30 -31.824
    endloop
  endfacet
  facet normal 0.28 0 0.96
    outer loop
      vertex -23.011 30 -31.828
      vertex -21.763 -30 -32.192
      vertex -21.763 30 -32.192
    endloop
  endfacet
  facet normal 0.28 0 0.96
    outer loop
      vertex -21.763 -30 -32.192
      vertex -23.011 30 -31.828
      vertex -23.011 -30 -31.828
    endloop
  endfacet
  facet normal 0.24366 0 0.969861
    outer loop
      vertex -21.763 30 -32.192
      vertex -21.7427 -30 -32.1971
      vertex -21.7427 30 -32.1971
    endloop
  endfacet
  facet normal 0.24366 0 0.969861
    outer loop
      vertex -21.7427 -30 -32.1971
      vertex -21.763 30 -32.192
      vertex -21.763 -30 -32.192
    endloop
  endfacet
  facet normal 0.212379 0 0.977187
    outer loop
      vertex -21.7427 30 -32.1971
      vertex -20.4507 -30 -32.4779
      vertex -20.4507 30 -32.4779
    endloop
  endfacet
  facet normal 0.212379 0 0.977187
    outer loop
      vertex -20.4507 -30 -32.4779
      vertex -21.7427 30 -32.1971
      vertex -21.7427 -30 -32.1971
    endloop
  endfacet
  facet normal 0.216342 0 0.976318
    outer loop
      vertex -20.4507 30 -32.4779
      vertex -19.1149 -30 -32.7739
      vertex -19.1149 30 -32.7739
    endloop
  endfacet
  facet normal 0.216342 0 0.976318
    outer loop
      vertex -19.1149 -30 -32.7739
      vertex -20.4507 30 -32.4779
      vertex -20.4507 -30 -32.4779
    endloop
  endfacet
  facet normal 0.179676 0 0.983726
    outer loop
      vertex -19.1149 30 -32.7739
      vertex -19.093 -30 -32.7779
      vertex -19.093 30 -32.7779
    endloop
  endfacet
  facet normal 0.179676 0 0.983726
    outer loop
      vertex -19.093 -30 -32.7779
      vertex -19.1149 30 -32.7739
      vertex -19.1149 -30 -32.7739
    endloop
  endfacet
  facet normal 0.143243 0 0.989688
    outer loop
      vertex -19.093 30 -32.7779
      vertex -17.7243 -30 -32.976
      vertex -17.7243 30 -32.976
    endloop
  endfacet
  facet normal 0.143243 0 0.989688
    outer loop
      vertex -17.7243 -30 -32.976
      vertex -19.093 30 -32.7779
      vertex -19.093 -30 -32.7779
    endloop
  endfacet
  facet normal 0.185107 0 0.982718
    outer loop
      vertex -17.7243 30 -32.976
      vertex -16.3185 -30 -33.2408
      vertex -16.3185 30 -33.2408
    endloop
  endfacet
  facet normal 0.185107 0 0.982718
    outer loop
      vertex -16.3185 -30 -33.2408
      vertex -17.7243 30 -32.976
      vertex -17.7243 -30 -32.976
    endloop
  endfacet
  facet normal 0.107597 0 0.994195
    outer loop
      vertex -16.3185 30 -33.2408
      vertex -16.2723 -30 -33.2458
      vertex -16.2723 30 -33.2458
    endloop
  endfacet
  facet normal 0.107597 0 0.994195
    outer loop
      vertex -16.2723 -30 -33.2458
      vertex -16.3185 30 -33.2408
      vertex -16.3185 -30 -33.2408
    endloop
  endfacet
  facet normal 0.0311804 0 0.999514
    outer loop
      vertex -16.2723 30 -33.2458
      vertex -14.8362 -30 -33.2906
      vertex -14.8362 30 -33.2906
    endloop
  endfacet
  facet normal 0.0311804 0 0.999514
    outer loop
      vertex -14.8362 -30 -33.2906
      vertex -16.2723 30 -33.2458
      vertex -16.2723 -30 -33.2458
    endloop
  endfacet
  facet normal 0.0890486 0 0.996027
    outer loop
      vertex -14.8362 30 -33.2906
      vertex -13.3687 -30 -33.4218
      vertex -13.3687 30 -33.4218
    endloop
  endfacet
  facet normal 0.0890486 0 0.996027
    outer loop
      vertex -13.3687 -30 -33.4218
      vertex -14.8362 30 -33.2906
      vertex -14.8362 -30 -33.2906
    endloop
  endfacet
  facet normal 0.0541078 0 0.998535
    outer loop
      vertex -13.3687 30 -33.4218
      vertex -13.3484 -30 -33.4229
      vertex -13.3484 30 -33.4229
    endloop
  endfacet
  facet normal 0.0541078 0 0.998535
    outer loop
      vertex -13.3484 -30 -33.4229
      vertex -13.3687 30 -33.4218
      vertex -13.3687 -30 -33.4218
    endloop
  endfacet
  facet normal 0.021296 0 0.999773
    outer loop
      vertex -13.3484 30 -33.4229
      vertex -11.8555 -30 -33.4547
      vertex -11.8555 30 -33.4547
    endloop
  endfacet
  facet normal 0.021296 0 0.999773
    outer loop
      vertex -11.8555 -30 -33.4547
      vertex -13.3484 30 -33.4229
      vertex -13.3484 -30 -33.4229
    endloop
  endfacet
  facet normal 0.0944871 0 0.995526
    outer loop
      vertex -11.8555 30 -33.4547
      vertex -10.3383 -30 -33.5987
      vertex -10.3383 30 -33.5987
    endloop
  endfacet
  facet normal 0.0944871 0 0.995526
    outer loop
      vertex -10.3383 -30 -33.5987
      vertex -11.8555 30 -33.4547
      vertex -11.8555 -30 -33.4547
    endloop
  endfacet
  facet normal 0.045888 0 0.998947
    outer loop
      vertex -10.3383 30 -33.5987
      vertex -10.31 -30 -33.6
      vertex -10.31 30 -33.6
    endloop
  endfacet
  facet normal 0.045888 0 0.998947
    outer loop
      vertex -10.31 -30 -33.6
      vertex -10.3383 30 -33.5987
      vertex -10.3383 -30 -33.5987
    endloop
  endfacet
  facet normal -0 0 1
    outer loop
      vertex -10.31 30 -33.6
      vertex -2.41199 -30 -33.6
      vertex -2.41199 30 -33.6
    endloop
  endfacet
  facet normal 0 0 1
    outer loop
      vertex -2.41199 -30 -33.6
      vertex -10.31 30 -33.6
      vertex -10.31 -30 -33.6
    endloop
  endfacet
  facet normal -0.0706944 0 0.997498
    outer loop
      vertex -2.41199 30 -33.6
      vertex -2.36966 -30 -33.597
      vertex -2.36966 30 -33.597
    endloop
  endfacet
  facet normal -0.0706944 0 0.997498
    outer loop
      vertex -2.36966 -30 -33.597
      vertex -2.41199 30 -33.6
      vertex -2.41199 -30 -33.6
    endloop
  endfacet
endsolid OpenSCAD_Model
