solid OpenSCAD_Model
  facet normal 1 -0 0
    outer loop
      vertex 40.525 -30 -26.7
      vertex 40.525 30 -38.4
      vertex 40.525 30 -26.7
    endloop
  endfacet
  facet normal 1 0 0
    outer loop
      vertex 40.525 30 -38.4
      vertex 40.525 -30 -26.7
      vertex 40.525 -30 -38.4
    endloop
  endfacet
  facet normal -0 0 1
    outer loop
      vertex -40.525 30 -26.7
      vertex -33.5727 -30 -26.7
      vertex -33.5727 30 -26.7
    endloop
  endfacet
  facet normal 0 0 1
    outer loop
      vertex -33.5727 -30 -26.7
      vertex -40.525 30 -26.7
      vertex -40.525 -30 -26.7
    endloop
  endfacet
  facet normal -0 0 1
    outer loop
      vertex 19.6269 30 -26.7
      vertex 40.525 -30 -26.7
      vertex 40.525 30 -26.7
    endloop
  endfacet
  facet normal 0 0 1
    outer loop
      vertex 40.525 -30 -26.7
      vertex 19.6269 30 -26.7
      vertex 19.6269 -30 -26.7
    endloop
  endfacet
  facet normal 0 0 -1
    outer loop
      vertex -40.525 -30 -38.4
      vertex 40.525 30 -38.4
      vertex 40.525 -30 -38.4
    endloop
  endfacet
  facet normal -0 0 -1
    outer loop
      vertex 40.525 30 -38.4
      vertex -40.525 -30 -38.4
      vertex -40.525 30 -38.4
    endloop
  endfacet
  facet normal -1 0 0
    outer loop
      vertex -40.525 -30 -38.4
      vertex -40.525 30 -26.7
      vertex -40.525 30 -38.4
    endloop
  endfacet
  facet normal -1 -0 0
    outer loop
      vertex -40.525 30 -26.7
      vertex -40.525 -30 -38.4
      vertex -40.525 -30 -26.7
    endloop
  endfacet
  facet normal 0 1 -0
    outer loop
      vertex 40.525 30 -38.4
      vertex 19.6269 30 -26.7
      vertex 40.525 30 -26.7
    endloop
  endfacet
  facet normal 0 1 0
    outer loop
      vertex 19.6269 30 -26.7
      vertex 40.525 30 -38.4
      vertex -17.9977 30 -34.0897
    endloop
  endfacet
  facet normal 0 1 0
    outer loop
      vertex -17.9977 30 -34.0897
      vertex 40.525 30 -38.4
      vertex -18.4842 30 -34.1843
    endloop
  endfacet
  facet normal 0 1 0
    outer loop
      vertex -19.9595 30 -34.3654
      vertex -40.525 30 -38.4
      vertex -20.4544 30 -34.3913
    endloop
  endfacet
  facet normal 0 1 0
    outer loop
      vertex -19.4657 30 -34.3222
      vertex -40.525 30 -38.4
      vertex -19.9595 30 -34.3654
    endloop
  endfacet
  facet normal 0 1 0
    outer loop
      vertex -40.525 30 -38.4
      vertex -19.4657 30 -34.3222
      vertex 40.525 30 -38.4
    endloop
  endfacet
  facet normal 0 1 0
    outer loop
      vertex -18.9737 30 -34.2618
      vertex 40.525 30 -38.4
      vertex -19.4657 30 -34.3222
    endloop
  endfacet
  facet normal 0 1 0
    outer loop
      vertex -18.4842 30 -34.1843
      vertex 40.525 30 -38.4
      vertex -18.9737 30 -34.2618
    endloop
  endfacet
  facet normal 0 1 0
    outer loop
      vertex -33.4879 30 -26.8665
      vertex -40.525 30 -26.7
      vertex -33.5727 30 -26.7
    endloop
  endfacet
  facet normal 0 1 0
    outer loop
      vertex -33.2476 30 -27.3
      vertex -40.525 30 -26.7
      vertex -33.4879 30 -26.8665
    endloop
  endfacet
  facet normal 0 1 0
    outer loop
      vertex -32.9923 30 -27.7248
      vertex -40.525 30 -26.7
      vertex -33.2476 30 -27.3
    endloop
  endfacet
  facet normal 0 1 0
    outer loop
      vertex -32.7223 30 -28.1405
      vertex -40.525 30 -26.7
      vertex -32.9923 30 -27.7248
    endloop
  endfacet
  facet normal 0 1 0
    outer loop
      vertex -32.438 30 -28.5465
      vertex -40.525 30 -26.7
      vertex -32.7223 30 -28.1405
    endloop
  endfacet
  facet normal 0 1 0
    outer loop
      vertex -40.525 30 -38.4
      vertex -32.438 30 -28.5465
      vertex -32.1397 30 -28.9424
    endloop
  endfacet
  facet normal 0 1 0
    outer loop
      vertex -40.525 30 -38.4
      vertex -32.1397 30 -28.9424
      vertex -31.8278 30 -29.3276
    endloop
  endfacet
  facet normal 0 1 0
    outer loop
      vertex -40.525 30 -38.4
      vertex -31.8278 30 -29.3276
      vertex -31.5027 30 -29.7016
    endloop
  endfacet
  facet normal 0 1 0
    outer loop
      vertex -40.525 30 -38.4
      vertex -31.5027 30 -29.7016
      vertex -31.1646 30 -30.0641
    endloop
  endfacet
  facet normal 0 1 0
    outer loop
      vertex -40.525 30 -38.4
      vertex -31.1646 30 -30.0641
      vertex -30.8141 30 -30.4146
    endloop
  endfacet
  facet normal 0 1 0
    outer loop
      vertex -40.525 30 -38.4
      vertex -30.8141 30 -30.4146
      vertex -30.4516 30 -30.7526
    endloop
  endfacet
  facet normal 0 1 0
    outer loop
      vertex -40.525 30 -38.4
      vertex -30.4516 30 -30.7526
      vertex -30.0776 30 -31.0778
    endloop
  endfacet
  facet normal 0 1 0
    outer loop
      vertex -40.525 30 -38.4
      vertex -30.0776 30 -31.0778
      vertex -29.6924 30 -31.3897
    endloop
  endfacet
  facet normal 0 1 0
    outer loop
      vertex -40.525 30 -38.4
      vertex -29.6924 30 -31.3897
      vertex -29.2965 30 -31.688
    endloop
  endfacet
  facet normal 0 1 0
    outer loop
      vertex -40.525 30 -38.4
      vertex -29.2965 30 -31.688
      vertex -28.8905 30 -31.9723
    endloop
  endfacet
  facet normal 0 1 0
    outer loop
      vertex -40.525 30 -38.4
      vertex -28.8905 30 -31.9723
      vertex -28.4749 30 -32.2423
    endloop
  endfacet
  facet normal 0 1 0
    outer loop
      vertex -40.525 30 -38.4
      vertex -28.4749 30 -32.2423
      vertex -28.05 30 -32.4975
    endloop
  endfacet
  facet normal 0 1 0
    outer loop
      vertex -40.525 30 -38.4
      vertex -28.05 30 -32.4975
      vertex -27.6165 30 -32.7378
    endloop
  endfacet
  facet normal 0 1 0
    outer loop
      vertex -40.525 30 -38.4
      vertex -27.6165 30 -32.7378
      vertex -27.1749 30 -32.9629
    endloop
  endfacet
  facet normal 0 1 0
    outer loop
      vertex -20.4544 30 -34.3913
      vertex -40.525 30 -38.4
      vertex -20.95 30 -34.4
    endloop
  endfacet
  facet normal 0 1 0
    outer loop
      vertex -20.95 30 -34.4
      vertex -40.525 30 -38.4
      vertex -21.4456 30 -34.3913
    endloop
  endfacet
  facet normal 0 1 0
    outer loop
      vertex -32.438 30 -28.5465
      vertex -40.525 30 -38.4
      vertex -40.525 30 -26.7
    endloop
  endfacet
  facet normal 0 1 0
    outer loop
      vertex -26.7256 30 -33.1723
      vertex -40.525 30 -38.4
      vertex -27.1749 30 -32.9629
    endloop
  endfacet
  facet normal 0 1 0
    outer loop
      vertex -26.2694 30 -33.366
      vertex -40.525 30 -38.4
      vertex -26.7256 30 -33.1723
    endloop
  endfacet
  facet normal 0 1 0
    outer loop
      vertex -25.8067 30 -33.5436
      vertex -40.525 30 -38.4
      vertex -26.2694 30 -33.366
    endloop
  endfacet
  facet normal 0 1 0
    outer loop
      vertex -25.338 30 -33.705
      vertex -40.525 30 -38.4
      vertex -25.8067 30 -33.5436
    endloop
  endfacet
  facet normal 0 1 0
    outer loop
      vertex -24.864 30 -33.8499
      vertex -40.525 30 -38.4
      vertex -25.338 30 -33.705
    endloop
  endfacet
  facet normal 0 1 0
    outer loop
      vertex -24.3853 30 -33.9782
      vertex -40.525 30 -38.4
      vertex -24.864 30 -33.8499
    endloop
  endfacet
  facet normal 0 1 0
    outer loop
      vertex -23.9023 30 -34.0897
      vertex -40.525 30 -38.4
      vertex -24.3853 30 -33.9782
    endloop
  endfacet
  facet normal 0 1 0
    outer loop
      vertex -23.4158 30 -34.1843
      vertex -40.525 30 -38.4
      vertex -23.9023 30 -34.0897
    endloop
  endfacet
  facet normal 0 1 0
    outer loop
      vertex -22.9263 30 -34.2618
      vertex -40.525 30 -38.4
      vertex -23.4158 30 -34.1843
    endloop
  endfacet
  facet normal 0 1 0
    outer loop
      vertex -22.4343 30 -34.3222
      vertex -40.525 30 -38.4
      vertex -22.9263 30 -34.2618
    endloop
  endfacet
  facet normal 0 1 0
    outer loop
      vertex -21.9405 30 -34.3654
      vertex -40.525 30 -38.4
      vertex -22.4343 30 -34.3222
    endloop
  endfacet
  facet normal 0 1 0
    outer loop
      vertex -21.4456 30 -34.3913
      vertex -40.525 30 -38.4
      vertex -21.9405 30 -34.3654
    endloop
  endfacet
  facet normal 0 -1 0
    outer loop
      vertex -40.525 -30 -26.7
      vertex -33.4879 -30 -26.8665
      vertex -33.5727 -30 -26.7
    endloop
  endfacet
  facet normal 0 -1 0
    outer loop
      vertex -40.525 -30 -26.7
      vertex -33.2476 -30 -27.3
      vertex -33.4879 -30 -26.8665
    endloop
  endfacet
  facet normal 0 -1 0
    outer loop
      vertex -40.525 -30 -26.7
      vertex -32.9923 -30 -27.7248
      vertex -33.2476 -30 -27.3
    endloop
  endfacet
  facet normal 0 -1 0
    outer loop
      vertex -40.525 -30 -26.7
      vertex -32.7223 -30 -28.1405
      vertex -32.9923 -30 -27.7248
    endloop
  endfacet
  facet normal 0 -1 0
    outer loop
      vertex -40.525 -30 -26.7
      vertex -32.438 -30 -28.5465
      vertex -32.7223 -30 -28.1405
    endloop
  endfacet
  facet normal 0 -1 0
    outer loop
      vertex -40.525 -30 -38.4
      vertex -32.438 -30 -28.5465
      vertex -40.525 -30 -26.7
    endloop
  endfacet
  facet normal 0 -1 -0
    outer loop
      vertex -32.438 -30 -28.5465
      vertex -40.525 -30 -38.4
      vertex -32.1397 -30 -28.9424
    endloop
  endfacet
  facet normal 0 -1 -0
    outer loop
      vertex -32.1397 -30 -28.9424
      vertex -40.525 -30 -38.4
      vertex -31.8278 -30 -29.3276
    endloop
  endfacet
  facet normal 0 -1 -0
    outer loop
      vertex -31.8278 -30 -29.3276
      vertex -40.525 -30 -38.4
      vertex -31.5027 -30 -29.7016
    endloop
  endfacet
  facet normal 0 -1 -0
    outer loop
      vertex -31.5027 -30 -29.7016
      vertex -40.525 -30 -38.4
      vertex -31.1646 -30 -30.0641
    endloop
  endfacet
  facet normal 0 -1 -0
    outer loop
      vertex -31.1646 -30 -30.0641
      vertex -40.525 -30 -38.4
      vertex -30.8141 -30 -30.4146
    endloop
  endfacet
  facet normal 0 -1 -0
    outer loop
      vertex -30.8141 -30 -30.4146
      vertex -40.525 -30 -38.4
      vertex -30.4516 -30 -30.7526
    endloop
  endfacet
  facet normal 0 -1 -0
    outer loop
      vertex -30.4516 -30 -30.7526
      vertex -40.525 -30 -38.4
      vertex -30.0776 -30 -31.0778
    endloop
  endfacet
  facet normal 0 -1 -0
    outer loop
      vertex -30.0776 -30 -31.0778
      vertex -40.525 -30 -38.4
      vertex -29.6924 -30 -31.3897
    endloop
  endfacet
  facet normal 0 -1 -0
    outer loop
      vertex -29.6924 -30 -31.3897
      vertex -40.525 -30 -38.4
      vertex -29.2965 -30 -31.688
    endloop
  endfacet
  facet normal 0 -1 -0
    outer loop
      vertex -29.2965 -30 -31.688
      vertex -40.525 -30 -38.4
      vertex -28.8905 -30 -31.9723
    endloop
  endfacet
  facet normal 0 -1 -0
    outer loop
      vertex -28.8905 -30 -31.9723
      vertex -40.525 -30 -38.4
      vertex -28.4749 -30 -32.2423
    endloop
  endfacet
  facet normal 0 -1 -0
    outer loop
      vertex -28.4749 -30 -32.2423
      vertex -40.525 -30 -38.4
      vertex -28.05 -30 -32.4975
    endloop
  endfacet
  facet normal 0 -1 -0
    outer loop
      vertex -28.05 -30 -32.4975
      vertex -40.525 -30 -38.4
      vertex -27.6165 -30 -32.7378
    endloop
  endfacet
  facet normal 0 -1 -0
    outer loop
      vertex -21.4456 -30 -34.3913
      vertex -40.525 -30 -38.4
      vertex -20.95 -30 -34.4
    endloop
  endfacet
  facet normal 0 -1 -0
    outer loop
      vertex -21.9405 -30 -34.3654
      vertex -40.525 -30 -38.4
      vertex -21.4456 -30 -34.3913
    endloop
  endfacet
  facet normal 0 -1 -0
    outer loop
      vertex -22.4343 -30 -34.3222
      vertex -40.525 -30 -38.4
      vertex -21.9405 -30 -34.3654
    endloop
  endfacet
  facet normal 0 -1 -0
    outer loop
      vertex -22.9263 -30 -34.2618
      vertex -40.525 -30 -38.4
      vertex -22.4343 -30 -34.3222
    endloop
  endfacet
  facet normal 0 -1 -0
    outer loop
      vertex -23.4158 -30 -34.1843
      vertex -40.525 -30 -38.4
      vertex -22.9263 -30 -34.2618
    endloop
  endfacet
  facet normal 0 -1 -0
    outer loop
      vertex -23.9023 -30 -34.0897
      vertex -40.525 -30 -38.4
      vertex -23.4158 -30 -34.1843
    endloop
  endfacet
  facet normal 0 -1 -0
    outer loop
      vertex -24.3853 -30 -33.9782
      vertex -40.525 -30 -38.4
      vertex -23.9023 -30 -34.0897
    endloop
  endfacet
  facet normal 0 -1 -0
    outer loop
      vertex -24.864 -30 -33.8499
      vertex -40.525 -30 -38.4
      vertex -24.3853 -30 -33.9782
    endloop
  endfacet
  facet normal 0 -1 -0
    outer loop
      vertex -25.338 -30 -33.705
      vertex -40.525 -30 -38.4
      vertex -24.864 -30 -33.8499
    endloop
  endfacet
  facet normal 0 -1 -0
    outer loop
      vertex -25.8067 -30 -33.5436
      vertex -40.525 -30 -38.4
      vertex -25.338 -30 -33.705
    endloop
  endfacet
  facet normal 0 -1 -0
    outer loop
      vertex -26.2694 -30 -33.366
      vertex -40.525 -30 -38.4
      vertex -25.8067 -30 -33.5436
    endloop
  endfacet
  facet normal 0 -1 -0
    outer loop
      vertex -26.7256 -30 -33.1723
      vertex -40.525 -30 -38.4
      vertex -26.2694 -30 -33.366
    endloop
  endfacet
  facet normal 0 -1 -0
    outer loop
      vertex -27.1749 -30 -32.9629
      vertex -40.525 -30 -38.4
      vertex -26.7256 -30 -33.1723
    endloop
  endfacet
  facet normal 0 -1 -0
    outer loop
      vertex -27.6165 -30 -32.7378
      vertex -40.525 -30 -38.4
      vertex -27.1749 -30 -32.9629
    endloop
  endfacet
  facet normal 0 -1 0
    outer loop
      vertex 40.525 -30 -38.4
      vertex 19.6269 -30 -26.7
      vertex -17.9977 -30 -34.0897
    endloop
  endfacet
  facet normal 0 -1 0
    outer loop
      vertex 40.525 -30 -38.4
      vertex -17.9977 -30 -34.0897
      vertex -18.4842 -30 -34.1843
    endloop
  endfacet
  facet normal 0 -1 0
    outer loop
      vertex 40.525 -30 -38.4
      vertex -18.4842 -30 -34.1843
      vertex -18.9737 -30 -34.2618
    endloop
  endfacet
  facet normal 0 -1 0
    outer loop
      vertex -40.525 -30 -38.4
      vertex -20.4544 -30 -34.3913
      vertex -20.95 -30 -34.4
    endloop
  endfacet
  facet normal 0 -1 0
    outer loop
      vertex -40.525 -30 -38.4
      vertex -19.9595 -30 -34.3654
      vertex -20.4544 -30 -34.3913
    endloop
  endfacet
  facet normal 0 -1 0
    outer loop
      vertex -40.525 -30 -38.4
      vertex -19.4657 -30 -34.3222
      vertex -19.9595 -30 -34.3654
    endloop
  endfacet
  facet normal 0 -1 0
    outer loop
      vertex -40.525 -30 -38.4
      vertex -18.9737 -30 -34.2618
      vertex -19.4657 -30 -34.3222
    endloop
  endfacet
  facet normal 0 -1 0
    outer loop
      vertex 40.525 -30 -38.4
      vertex -18.9737 -30 -34.2618
      vertex -40.525 -30 -38.4
    endloop
  endfacet
  facet normal 0 -1 0
    outer loop
      vertex 19.6269 -30 -26.7
      vertex 40.525 -30 -38.4
      vertex 40.525 -30 -26.7
    endloop
  endfacet
  facet normal -0.121849 0 0.992549
    outer loop
      vertex -19.4657 30 -34.3222
      vertex -18.9737 -30 -34.2618
      vertex -18.9737 30 -34.2618
    endloop
  endfacet
  facet normal -0.121849 0 0.992549
    outer loop
      vertex -18.9737 -30 -34.2618
      vertex -19.4657 30 -34.3222
      vertex -19.4657 -30 -34.3222
    endloop
  endfacet
  facet normal -0.0871519 0 0.996195
    outer loop
      vertex -19.9595 30 -34.3654
      vertex -19.4657 -30 -34.3222
      vertex -19.4657 30 -34.3222
    endloop
  endfacet
  facet normal -0.0871519 0 0.996195
    outer loop
      vertex -19.4657 -30 -34.3222
      vertex -19.9595 30 -34.3654
      vertex -19.9595 -30 -34.3654
    endloop
  endfacet
  facet normal -0.0522623 0 0.998633
    outer loop
      vertex -20.4544 30 -34.3913
      vertex -19.9595 -30 -34.3654
      vertex -19.9595 30 -34.3654
    endloop
  endfacet
  facet normal -0.0522623 0 0.998633
    outer loop
      vertex -19.9595 -30 -34.3654
      vertex -20.4544 30 -34.3913
      vertex -20.4544 -30 -34.3913
    endloop
  endfacet
  facet normal 0.838633 -0 0.544698
    outer loop
      vertex -32.9923 -30 -27.7248
      vertex -32.7223 30 -28.1405
      vertex -32.9923 30 -27.7248
    endloop
  endfacet
  facet normal 0.838633 0 0.544698
    outer loop
      vertex -32.7223 30 -28.1405
      vertex -32.9923 -30 -27.7248
      vertex -32.7223 -30 -28.1405
    endloop
  endfacet
  facet normal 0.258881 0 0.965909
    outer loop
      vertex -24.864 30 -33.8499
      vertex -24.3853 -30 -33.9782
      vertex -24.3853 30 -33.9782
    endloop
  endfacet
  facet normal 0.258881 0 0.965909
    outer loop
      vertex -24.3853 -30 -33.9782
      vertex -24.864 30 -33.8499
      vertex -24.864 -30 -33.8499
    endloop
  endfacet
  facet normal 0.54479 0 0.838573
    outer loop
      vertex -28.8905 30 -31.9723
      vertex -28.4749 -30 -32.2423
      vertex -28.4749 30 -32.2423
    endloop
  endfacet
  facet normal 0.54479 0 0.838573
    outer loop
      vertex -28.4749 -30 -32.2423
      vertex -28.8905 30 -31.9723
      vertex -28.8905 -30 -31.9723
    endloop
  endfacet
  facet normal 0.0175518 0 0.999846
    outer loop
      vertex -21.4456 30 -34.3913
      vertex -20.95 -30 -34.4
      vertex -20.95 30 -34.4
    endloop
  endfacet
  facet normal 0.0175518 0 0.999846
    outer loop
      vertex -20.95 -30 -34.4
      vertex -21.4456 30 -34.3913
      vertex -21.4456 -30 -34.3913
    endloop
  endfacet
  facet normal 0.514881 0 0.857261
    outer loop
      vertex -28.4749 30 -32.2423
      vertex -28.05 -30 -32.4975
      vertex -28.05 30 -32.4975
    endloop
  endfacet
  facet normal 0.514881 0 0.857261
    outer loop
      vertex -28.05 -30 -32.4975
      vertex -28.4749 30 -32.2423
      vertex -28.4749 -30 -32.2423
    endloop
  endfacet
  facet normal 0.819137 -0 0.573598
    outer loop
      vertex -32.7223 -30 -28.1405
      vertex -32.438 30 -28.5465
      vertex -32.7223 30 -28.1405
    endloop
  endfacet
  facet normal 0.819137 0 0.573598
    outer loop
      vertex -32.438 30 -28.5465
      vertex -32.7223 -30 -28.1405
      vertex -32.438 -30 -28.5465
    endloop
  endfacet
  facet normal 0.0871519 0 0.996195
    outer loop
      vertex -22.4343 30 -34.3222
      vertex -21.9405 -30 -34.3654
      vertex -21.9405 30 -34.3654
    endloop
  endfacet
  facet normal 0.0871519 0 0.996195
    outer loop
      vertex -21.9405 -30 -34.3654
      vertex -22.4343 30 -34.3222
      vertex -22.4343 -30 -34.3222
    endloop
  endfacet
  facet normal 0.48482 0 0.874614
    outer loop
      vertex -28.05 30 -32.4975
      vertex -27.6165 -30 -32.7378
      vertex -27.6165 30 -32.7378
    endloop
  endfacet
  facet normal 0.48482 0 0.874614
    outer loop
      vertex -27.6165 -30 -32.7378
      vertex -28.05 30 -32.4975
      vertex -28.05 -30 -32.4975
    endloop
  endfacet
  facet normal 0.121849 0 0.992549
    outer loop
      vertex -22.9263 30 -34.2618
      vertex -22.4343 -30 -34.3222
      vertex -22.4343 30 -34.3222
    endloop
  endfacet
  facet normal 0.121849 0 0.992549
    outer loop
      vertex -22.4343 -30 -34.3222
      vertex -22.9263 30 -34.2618
      vertex -22.9263 -30 -34.2618
    endloop
  endfacet
  facet normal -0.0175518 0 0.999846
    outer loop
      vertex -20.95 30 -34.4
      vertex -20.4544 -30 -34.3913
      vertex -20.4544 30 -34.3913
    endloop
  endfacet
  facet normal -0.0175518 0 0.999846
    outer loop
      vertex -20.4544 -30 -34.3913
      vertex -20.95 30 -34.4
      vertex -20.95 -30 -34.4
    endloop
  endfacet
  facet normal 0.325593 0 0.94551
    outer loop
      vertex -25.8067 30 -33.5436
      vertex -25.338 -30 -33.705
      vertex -25.338 30 -33.705
    endloop
  endfacet
  facet normal 0.325593 0 0.94551
    outer loop
      vertex -25.338 -30 -33.705
      vertex -25.8067 30 -33.5436
      vertex -25.8067 -30 -33.5436
    endloop
  endfacet
  facet normal 0.573598 0 0.819137
    outer loop
      vertex -29.2965 30 -31.688
      vertex -28.8905 -30 -31.9723
      vertex -28.8905 30 -31.9723
    endloop
  endfacet
  facet normal 0.573598 0 0.819137
    outer loop
      vertex -28.8905 -30 -31.9723
      vertex -29.2965 30 -31.688
      vertex -29.2965 -30 -31.688
    endloop
  endfacet
  facet normal -0.192724 0 0.981253
    outer loop
      vertex -17.9977 30 -34.0897
      vertex 19.6269 -30 -26.7
      vertex 19.6269 30 -26.7
    endloop
  endfacet
  facet normal -0.192724 0 0.981253
    outer loop
      vertex 19.6269 -30 -26.7
      vertex -17.9977 30 -34.0897
      vertex -17.9977 -30 -34.0897
    endloop
  endfacet
  facet normal 0.629285 0 0.777174
    outer loop
      vertex -30.0776 30 -31.0778
      vertex -29.6924 -30 -31.3897
      vertex -29.6924 30 -31.3897
    endloop
  endfacet
  facet normal 0.629285 0 0.777174
    outer loop
      vertex -29.6924 -30 -31.3897
      vertex -30.0776 30 -31.0778
      vertex -30.0776 -30 -31.0778
    endloop
  endfacet
  facet normal 0.358344 0 0.93359
    outer loop
      vertex -26.2694 30 -33.366
      vertex -25.8067 -30 -33.5436
      vertex -25.8067 30 -33.5436
    endloop
  endfacet
  facet normal 0.358344 0 0.93359
    outer loop
      vertex -25.8067 -30 -33.5436
      vertex -26.2694 30 -33.366
      vertex -26.2694 -30 -33.366
    endloop
  endfacet
  facet normal 0.45414 0 0.89093
    outer loop
      vertex -27.6165 30 -32.7378
      vertex -27.1749 -30 -32.9629
      vertex -27.1749 30 -32.9629
    endloop
  endfacet
  facet normal 0.45414 0 0.89093
    outer loop
      vertex -27.1749 -30 -32.9629
      vertex -27.6165 30 -32.7378
      vertex -27.6165 -30 -32.7378
    endloop
  endfacet
  facet normal 0.656159 0 0.754623
    outer loop
      vertex -30.4516 30 -30.7526
      vertex -30.0776 -30 -31.0778
      vertex -30.0776 30 -31.0778
    endloop
  endfacet
  facet normal 0.656159 0 0.754623
    outer loop
      vertex -30.0776 -30 -31.0778
      vertex -30.4516 30 -30.7526
      vertex -30.4516 -30 -30.7526
    endloop
  endfacet
  facet normal 0.754723 -0 0.656044
    outer loop
      vertex -31.8278 -30 -29.3276
      vertex -31.5027 30 -29.7016
      vertex -31.8278 30 -29.3276
    endloop
  endfacet
  facet normal 0.754723 0 0.656044
    outer loop
      vertex -31.5027 30 -29.7016
      vertex -31.8278 -30 -29.3276
      vertex -31.5027 -30 -29.7016
    endloop
  endfacet
  facet normal 0.422433 0 0.906394
    outer loop
      vertex -27.1749 30 -32.9629
      vertex -26.7256 -30 -33.1723
      vertex -26.7256 30 -33.1723
    endloop
  endfacet
  facet normal 0.422433 0 0.906394
    outer loop
      vertex -26.7256 -30 -33.1723
      vertex -27.1749 30 -32.9629
      vertex -27.1749 -30 -32.9629
    endloop
  endfacet
  facet normal -0.190875 0 0.981614
    outer loop
      vertex -18.4842 30 -34.1843
      vertex -17.9977 -30 -34.0897
      vertex -17.9977 30 -34.0897
    endloop
  endfacet
  facet normal -0.190875 0 0.981614
    outer loop
      vertex -17.9977 -30 -34.0897
      vertex -18.4842 30 -34.1843
      vertex -18.4842 -30 -34.1843
    endloop
  endfacet
  facet normal 0.777174 -0 0.629285
    outer loop
      vertex -32.1397 -30 -28.9424
      vertex -31.8278 30 -29.3276
      vertex -32.1397 30 -28.9424
    endloop
  endfacet
  facet normal 0.777174 0 0.629285
    outer loop
      vertex -31.8278 30 -29.3276
      vertex -32.1397 -30 -28.9424
      vertex -31.8278 -30 -29.3276
    endloop
  endfacet
  facet normal 0.874614 -0 0.48482
    outer loop
      vertex -33.4879 -30 -26.8665
      vertex -33.2476 30 -27.3
      vertex -33.4879 30 -26.8665
    endloop
  endfacet
  facet normal 0.874614 0 0.48482
    outer loop
      vertex -33.2476 30 -27.3
      vertex -33.4879 -30 -26.8665
      vertex -33.2476 -30 -27.3
    endloop
  endfacet
  facet normal 0.156377 0 0.987697
    outer loop
      vertex -23.4158 30 -34.1843
      vertex -22.9263 -30 -34.2618
      vertex -22.9263 30 -34.2618
    endloop
  endfacet
  facet normal 0.156377 0 0.987697
    outer loop
      vertex -22.9263 -30 -34.2618
      vertex -23.4158 30 -34.1843
      vertex -23.4158 -30 -34.1843
    endloop
  endfacet
  facet normal 0.891084 -0 0.453838
    outer loop
      vertex -33.5727 -30 -26.7
      vertex -33.4879 30 -26.8665
      vertex -33.5727 30 -26.7
    endloop
  endfacet
  facet normal 0.891084 0 0.453838
    outer loop
      vertex -33.4879 30 -26.8665
      vertex -33.5727 -30 -26.7
      vertex -33.4879 -30 -26.8665
    endloop
  endfacet
  facet normal 0.857119 -0 0.515119
    outer loop
      vertex -33.2476 -30 -27.3
      vertex -32.9923 30 -27.7248
      vertex -33.2476 30 -27.3
    endloop
  endfacet
  facet normal 0.857119 0 0.515119
    outer loop
      vertex -32.9923 30 -27.7248
      vertex -33.2476 -30 -27.3
      vertex -32.9923 -30 -27.7248
    endloop
  endfacet
  facet normal 0.224933 0 0.974374
    outer loop
      vertex -24.3853 30 -33.9782
      vertex -23.9023 -30 -34.0897
      vertex -23.9023 30 -34.0897
    endloop
  endfacet
  facet normal 0.224933 0 0.974374
    outer loop
      vertex -23.9023 -30 -34.0897
      vertex -24.3853 30 -33.9782
      vertex -24.3853 -30 -33.9782
    endloop
  endfacet
  facet normal 0.190875 0 0.981614
    outer loop
      vertex -23.9023 30 -34.0897
      vertex -23.4158 -30 -34.1843
      vertex -23.4158 30 -34.1843
    endloop
  endfacet
  facet normal 0.190875 0 0.981614
    outer loop
      vertex -23.4158 -30 -34.1843
      vertex -23.9023 30 -34.0897
      vertex -23.9023 -30 -34.0897
    endloop
  endfacet
  facet normal 0.390824 0 0.920465
    outer loop
      vertex -26.7256 30 -33.1723
      vertex -26.2694 -30 -33.366
      vertex -26.2694 30 -33.366
    endloop
  endfacet
  facet normal 0.390824 0 0.920465
    outer loop
      vertex -26.2694 -30 -33.366
      vertex -26.7256 30 -33.1723
      vertex -26.7256 -30 -33.1723
    endloop
  endfacet
  facet normal 0.681959 0 0.731391
    outer loop
      vertex -30.8141 30 -30.4146
      vertex -30.4516 -30 -30.7526
      vertex -30.4516 30 -30.7526
    endloop
  endfacet
  facet normal 0.681959 0 0.731391
    outer loop
      vertex -30.4516 -30 -30.7526
      vertex -30.8141 30 -30.4146
      vertex -30.8141 -30 -30.4146
    endloop
  endfacet
  facet normal 0.707107 -0 0.707107
    outer loop
      vertex -31.1646 -30 -30.0641
      vertex -30.8141 30 -30.4146
      vertex -31.1646 30 -30.0641
    endloop
  endfacet
  facet normal 0.707107 0 0.707107
    outer loop
      vertex -30.8141 30 -30.4146
      vertex -31.1646 -30 -30.0641
      vertex -30.8141 -30 -30.4146
    endloop
  endfacet
  facet normal 0.0522623 0 0.998633
    outer loop
      vertex -21.9405 30 -34.3654
      vertex -21.4456 -30 -34.3913
      vertex -21.4456 30 -34.3913
    endloop
  endfacet
  facet normal 0.0522623 0 0.998633
    outer loop
      vertex -21.4456 -30 -34.3913
      vertex -21.9405 30 -34.3654
      vertex -21.9405 -30 -34.3654
    endloop
  endfacet
  facet normal -0.156377 0 0.987697
    outer loop
      vertex -18.9737 30 -34.2618
      vertex -18.4842 -30 -34.1843
      vertex -18.4842 30 -34.1843
    endloop
  endfacet
  facet normal -0.156377 0 0.987697
    outer loop
      vertex -18.4842 -30 -34.1843
      vertex -18.9737 30 -34.2618
      vertex -18.9737 -30 -34.2618
    endloop
  endfacet
  facet normal 0.601774 0 0.798667
    outer loop
      vertex -29.6924 30 -31.3897
      vertex -29.2965 -30 -31.688
      vertex -29.2965 30 -31.688
    endloop
  endfacet
  facet normal 0.601774 0 0.798667
    outer loop
      vertex -29.2965 -30 -31.688
      vertex -29.6924 30 -31.3897
      vertex -29.6924 -30 -31.3897
    endloop
  endfacet
  facet normal 0.73129 -0 0.682067
    outer loop
      vertex -31.5027 -30 -29.7016
      vertex -31.1646 30 -30.0641
      vertex -31.5027 30 -29.7016
    endloop
  endfacet
  facet normal 0.73129 0 0.682067
    outer loop
      vertex -31.1646 30 -30.0641
      vertex -31.5027 -30 -29.7016
      vertex -31.1646 -30 -30.0641
    endloop
  endfacet
  facet normal 0.292342 0 0.956314
    outer loop
      vertex -25.338 30 -33.705
      vertex -24.864 -30 -33.8499
      vertex -24.864 30 -33.8499
    endloop
  endfacet
  facet normal 0.292342 0 0.956314
    outer loop
      vertex -24.864 -30 -33.8499
      vertex -25.338 30 -33.705
      vertex -25.338 -30 -33.705
    endloop
  endfacet
  facet normal 0.798667 -0 0.601774
    outer loop
      vertex -32.438 -30 -28.5465
      vertex -32.1397 30 -28.9424
      vertex -32.438 30 -28.5465
    endloop
  endfacet
  facet normal 0.798667 0 0.601774
    outer loop
      vertex -32.1397 30 -28.9424
      vertex -32.438 -30 -28.5465
      vertex -32.1397 -30 -28.9424
    endloop
  endfacet
endsolid OpenSCAD_Model
