solid OpenSCAD_Model
  facet normal 0 0 1
    outer loop
      vertex 38.85 6 0
      vertex 38.7942 3.64523 0
      vertex 38.85 3.70312 0
    endloop
  endfacet
  facet normal 0 0 1
    outer loop
      vertex 38.85 6 0
      vertex 38.5389 3.33854 0
      vertex 38.7942 3.64523 0
    endloop
  endfacet
  facet normal 0 0 1
    outer loop
      vertex 38.85 6 0
      vertex 38.3068 3.01403 0
      vertex 38.5389 3.33854 0
    endloop
  endfacet
  facet normal 0 0 1
    outer loop
      vertex 38.85 6 0
      vertex 38.0989 2.67344 0
      vertex 38.3068 3.01403 0
    endloop
  endfacet
  facet normal 0 0 1
    outer loop
      vertex 38.85 6 0
      vertex 37.9165 2.31859 0
      vertex 38.0989 2.67344 0
    endloop
  endfacet
  facet normal 0 0 1
    outer loop
      vertex 38.85 6 0
      vertex 37.7604 1.95137 0
      vertex 37.9165 2.31859 0
    endloop
  endfacet
  facet normal 0 0 1
    outer loop
      vertex 38.85 6 0
      vertex 37.6316 1.57374 0
      vertex 37.7604 1.95137 0
    endloop
  endfacet
  facet normal 0 0 1
    outer loop
      vertex 37.4146 0.398736 0
      vertex -37.4 0 0
      vertex 37.4 0 0
    endloop
  endfacet
  facet normal 0 0 1
    outer loop
      vertex -37.4146 0.398736 0
      vertex 37.4146 0.398736 0
      vertex 37.4582 0.795346 0
    endloop
  endfacet
  facet normal 0 0 1
    outer loop
      vertex -37.4582 0.795346 0
      vertex 37.4582 0.795346 0
      vertex 37.5307 1.18771 0
    endloop
  endfacet
  facet normal 0 0 1
    outer loop
      vertex -37.5307 1.18771 0
      vertex 37.5307 1.18771 0
      vertex 37.6316 1.57374 0
    endloop
  endfacet
  facet normal 0 0 1
    outer loop
      vertex -37.6316 1.57374 0
      vertex 37.6316 1.57374 0
      vertex 38.85 6 0
    endloop
  endfacet
  facet normal 0 0 1
    outer loop
      vertex 37.4146 0.398736 0
      vertex -37.4146 0.398736 0
      vertex -37.4 0 0
    endloop
  endfacet
  facet normal 0 0 1
    outer loop
      vertex 37.4582 0.795346 0
      vertex -37.4582 0.795346 0
      vertex -37.4146 0.398736 0
    endloop
  endfacet
  facet normal 0 0 1
    outer loop
      vertex 37.5307 1.18771 0
      vertex -37.5307 1.18771 0
      vertex -37.4582 0.795346 0
    endloop
  endfacet
  facet normal 0 0 1
    outer loop
      vertex 37.6316 1.57374 0
      vertex -37.6316 1.57374 0
      vertex -37.5307 1.18771 0
    endloop
  endfacet
  facet normal 0 0 1
    outer loop
      vertex 38.85 6 0
      vertex -37.7604 1.95137 0
      vertex -37.6316 1.57374 0
    endloop
  endfacet
  facet normal -0 0 1
    outer loop
      vertex -38.85 6 0
      vertex -37.7604 1.95137 0
      vertex 38.85 6 0
    endloop
  endfacet
  facet normal 0 0 1
    outer loop
      vertex -37.7604 1.95137 0
      vertex -38.85 6 0
      vertex -37.9165 2.31859 0
    endloop
  endfacet
  facet normal 0 0 1
    outer loop
      vertex -37.9165 2.31859 0
      vertex -38.85 6 0
      vertex -38.0989 2.67344 0
    endloop
  endfacet
  facet normal 0 0 1
    outer loop
      vertex -38.0989 2.67344 0
      vertex -38.85 6 0
      vertex -38.3068 3.01403 0
    endloop
  endfacet
  facet normal 0 0 1
    outer loop
      vertex -38.3068 3.01403 0
      vertex -38.85 6 0
      vertex -38.5389 3.33854 0
    endloop
  endfacet
  facet normal 0 0 1
    outer loop
      vertex -38.5389 3.33854 0
      vertex -38.85 6 0
      vertex -38.7942 3.64523 0
    endloop
  endfacet
  facet normal 0 0 1
    outer loop
      vertex -38.7942 3.64523 0
      vertex -38.85 6 0
      vertex -38.85 3.70312 0
    endloop
  endfacet
  facet normal 0 0 1
    outer loop
      vertex 38.7942 -3.64523 0
      vertex 38.85 -6 0
      vertex 38.85 -3.70312 0
    endloop
  endfacet
  facet normal 0 0 1
    outer loop
      vertex 38.5389 -3.33854 0
      vertex 38.85 -6 0
      vertex 38.7942 -3.64523 0
    endloop
  endfacet
  facet normal 0 0 1
    outer loop
      vertex 38.3068 -3.01403 0
      vertex 38.85 -6 0
      vertex 38.5389 -3.33854 0
    endloop
  endfacet
  facet normal 0 0 1
    outer loop
      vertex 38.0989 -2.67344 0
      vertex 38.85 -6 0
      vertex 38.3068 -3.01403 0
    endloop
  endfacet
  facet normal 0 0 1
    outer loop
      vertex 37.9165 -2.31859 0
      vertex 38.85 -6 0
      vertex 38.0989 -2.67344 0
    endloop
  endfacet
  facet normal 0 0 1
    outer loop
      vertex 37.7604 -1.95137 0
      vertex 38.85 -6 0
      vertex 37.9165 -2.31859 0
    endloop
  endfacet
  facet normal 0 0 1
    outer loop
      vertex 37.6316 -1.57374 0
      vertex 38.85 -6 0
      vertex 37.7604 -1.95137 0
    endloop
  endfacet
  facet normal -0 0 1
    outer loop
      vertex -37.4 0 0
      vertex 37.4146 -0.398736 0
      vertex 37.4 0 0
    endloop
  endfacet
  facet normal 0 0 1
    outer loop
      vertex -37.4146 -0.398736 0
      vertex 37.4146 -0.398736 0
      vertex -37.4 0 0
    endloop
  endfacet
  facet normal 0 0 1
    outer loop
      vertex 37.4146 -0.398736 0
      vertex -37.4146 -0.398736 0
      vertex 37.4582 -0.795346 0
    endloop
  endfacet
  facet normal 0 0 1
    outer loop
      vertex -37.4582 -0.795346 0
      vertex 37.4582 -0.795346 0
      vertex -37.4146 -0.398736 0
    endloop
  endfacet
  facet normal 0 0 1
    outer loop
      vertex 37.4582 -0.795346 0
      vertex -37.4582 -0.795346 0
      vertex 37.5307 -1.18771 0
    endloop
  endfacet
  facet normal 0 0 1
    outer loop
      vertex -37.5307 -1.18771 0
      vertex 37.5307 -1.18771 0
      vertex -37.4582 -0.795346 0
    endloop
  endfacet
  facet normal 0 0 1
    outer loop
      vertex 37.5307 -1.18771 0
      vertex -37.5307 -1.18771 0
      vertex 37.6316 -1.57374 0
    endloop
  endfacet
  facet normal 0 0 1
    outer loop
      vertex -37.6316 -1.57374 0
      vertex 37.6316 -1.57374 0
      vertex -37.5307 -1.18771 0
    endloop
  endfacet
  facet normal 0 0 1
    outer loop
      vertex 37.6316 -1.57374 0
      vertex -37.6316 -1.57374 0
      vertex 38.85 -6 0
    endloop
  endfacet
  facet normal -0 0 1
    outer loop
      vertex -37.7604 -1.95137 0
      vertex 38.85 -6 0
      vertex -37.6316 -1.57374 0
    endloop
  endfacet
  facet normal 0 0 1
    outer loop
      vertex -38.85 -6 0
      vertex -37.7604 -1.95137 0
      vertex -37.9165 -2.31859 0
    endloop
  endfacet
  facet normal 0 0 1
    outer loop
      vertex -38.85 -6 0
      vertex -37.9165 -2.31859 0
      vertex -38.0989 -2.67344 0
    endloop
  endfacet
  facet normal 0 0 1
    outer loop
      vertex -38.85 -6 0
      vertex -38.0989 -2.67344 0
      vertex -38.3068 -3.01403 0
    endloop
  endfacet
  facet normal 0 0 1
    outer loop
      vertex -38.85 -6 0
      vertex -38.3068 -3.01403 0
      vertex -38.5389 -3.33854 0
    endloop
  endfacet
  facet normal 0 0 1
    outer loop
      vertex -38.85 -6 0
      vertex -38.5389 -3.33854 0
      vertex -38.7942 -3.64523 0
    endloop
  endfacet
  facet normal 0 0 1
    outer loop
      vertex -38.85 -6 0
      vertex -38.7942 -3.64523 0
      vertex -38.85 -3.70312 0
    endloop
  endfacet
  facet normal 0 0 1
    outer loop
      vertex -37.7604 -1.95137 0
      vertex -38.85 -6 0
      vertex 38.85 -6 0
    endloop
  endfacet
  facet normal 0 0 -1
    outer loop
      vertex -38.35 -6 -6
      vertex -38.5389 -3.33854 -6
      vertex -38.35 -3.07443 -6
    endloop
  endfacet
  facet normal 0 0 -1
    outer loop
      vertex -38.35 -6 -6
      vertex -38.7942 -3.64523 -6
      vertex -38.5389 -3.33854 -6
    endloop
  endfacet
  facet normal 0 0 -1
    outer loop
      vertex -38.85 -3.70312 -6
      vertex -38.35 -6 -6
      vertex -38.85 -6 -6
    endloop
  endfacet
  facet normal 0 0 -1
    outer loop
      vertex -38.35 -6 -6
      vertex -38.85 -3.70312 -6
      vertex -38.7942 -3.64523 -6
    endloop
  endfacet
  facet normal 0 0 -1
    outer loop
      vertex 38.35 -6 -6
      vertex 38.85 -3.70312 -6
      vertex 38.85 -6 -6
    endloop
  endfacet
  facet normal -0 0 -1
    outer loop
      vertex 38.85 -3.70312 -6
      vertex 38.35 -6 -6
      vertex 38.7942 -3.64523 -6
    endloop
  endfacet
  facet normal -0 0 -1
    outer loop
      vertex 38.7942 -3.64523 -6
      vertex 38.35 -6 -6
      vertex 38.5389 -3.33854 -6
    endloop
  endfacet
  facet normal -0 0 -1
    outer loop
      vertex 38.5389 -3.33854 -6
      vertex 38.35 -6 -6
      vertex 38.35 -3.07443 -6
    endloop
  endfacet
  facet normal 0 0 -1
    outer loop
      vertex -38.5389 3.33854 -6
      vertex -38.35 6 -6
      vertex -38.35 3.07443 -6
    endloop
  endfacet
  facet normal 0 0 -1
    outer loop
      vertex -38.7942 3.64523 -6
      vertex -38.35 6 -6
      vertex -38.5389 3.33854 -6
    endloop
  endfacet
  facet normal 0 0 -1
    outer loop
      vertex -38.85 3.70312 -6
      vertex -38.35 6 -6
      vertex -38.7942 3.64523 -6
    endloop
  endfacet
  facet normal -0 0 -1
    outer loop
      vertex -38.35 6 -6
      vertex -38.85 3.70312 -6
      vertex -38.85 6 -6
    endloop
  endfacet
  facet normal 0 0 -1
    outer loop
      vertex 38.35 6 -6
      vertex 38.85 3.70312 -6
      vertex 38.7942 3.64523 -6
    endloop
  endfacet
  facet normal 0 0 -1
    outer loop
      vertex 38.35 6 -6
      vertex 38.7942 3.64523 -6
      vertex 38.5389 3.33854 -6
    endloop
  endfacet
  facet normal 0 0 -1
    outer loop
      vertex 38.35 6 -6
      vertex 38.5389 3.33854 -6
      vertex 38.35 3.07443 -6
    endloop
  endfacet
  facet normal 0 0 -1
    outer loop
      vertex 38.85 3.70312 -6
      vertex 38.35 6 -6
      vertex 38.85 6 -6
    endloop
  endfacet
  facet normal 1 -0 0
    outer loop
      vertex 38.35 3.07443 -6
      vertex 38.35 6 -25.2
      vertex 38.35 6 -6
    endloop
  endfacet
  facet normal 1 0 0
    outer loop
      vertex 38.35 6 -25.2
      vertex 38.35 3.07443 -6
      vertex 38.35 3.07443 -25.2
    endloop
  endfacet
  facet normal 1 -0 0
    outer loop
      vertex 38.35 -6 -6
      vertex 38.35 -3.07443 -25.2
      vertex 38.35 -3.07443 -6
    endloop
  endfacet
  facet normal 1 0 0
    outer loop
      vertex 38.35 -3.07443 -25.2
      vertex 38.35 -6 -6
      vertex 38.35 -6 -25.2
    endloop
  endfacet
  facet normal 0 0 -1
    outer loop
      vertex -34.2386 -6 -25.2
      vertex -37.4 0 -25.2
      vertex -34.2386 6 -25.2
    endloop
  endfacet
  facet normal 0 0 -1
    outer loop
      vertex -34.2386 -6 -25.2
      vertex -37.4146 -0.398736 -25.2
      vertex -37.4 0 -25.2
    endloop
  endfacet
  facet normal 0 0 -1
    outer loop
      vertex -34.2386 -6 -25.2
      vertex -37.4582 -0.795346 -25.2
      vertex -37.4146 -0.398736 -25.2
    endloop
  endfacet
  facet normal 0 0 -1
    outer loop
      vertex -34.2386 -6 -25.2
      vertex -37.5307 -1.18771 -25.2
      vertex -37.4582 -0.795346 -25.2
    endloop
  endfacet
  facet normal 0 0 -1
    outer loop
      vertex -34.2386 -6 -25.2
      vertex -37.6316 -1.57374 -25.2
      vertex -37.5307 -1.18771 -25.2
    endloop
  endfacet
  facet normal 0 0 -1
    outer loop
      vertex -34.2386 -6 -25.2
      vertex -37.7604 -1.95137 -25.2
      vertex -37.6316 -1.57374 -25.2
    endloop
  endfacet
  facet normal 0 0 -1
    outer loop
      vertex -34.2386 -6 -25.2
      vertex -37.9165 -2.31859 -25.2
      vertex -37.7604 -1.95137 -25.2
    endloop
  endfacet
  facet normal 0 0 -1
    outer loop
      vertex -34.2386 -6 -25.2
      vertex -38.0989 -2.67344 -25.2
      vertex -37.9165 -2.31859 -25.2
    endloop
  endfacet
  facet normal 0 0 -1
    outer loop
      vertex -34.2386 -6 -25.2
      vertex -38.3068 -3.01403 -25.2
      vertex -38.0989 -2.67344 -25.2
    endloop
  endfacet
  facet normal 0 0 -1
    outer loop
      vertex -38.35 -3.07443 -25.2
      vertex -34.2386 -6 -25.2
      vertex -38.35 -6 -25.2
    endloop
  endfacet
  facet normal 0 0 -1
    outer loop
      vertex -34.2386 -6 -25.2
      vertex -38.35 -3.07443 -25.2
      vertex -38.3068 -3.01403 -25.2
    endloop
  endfacet
  facet normal 0 0 -1
    outer loop
      vertex -37.4146 0.398736 -25.2
      vertex -34.2386 6 -25.2
      vertex -37.4 0 -25.2
    endloop
  endfacet
  facet normal 0 0 -1
    outer loop
      vertex -37.4582 0.795346 -25.2
      vertex -34.2386 6 -25.2
      vertex -37.4146 0.398736 -25.2
    endloop
  endfacet
  facet normal 0 0 -1
    outer loop
      vertex -37.5307 1.18771 -25.2
      vertex -34.2386 6 -25.2
      vertex -37.4582 0.795346 -25.2
    endloop
  endfacet
  facet normal 0 0 -1
    outer loop
      vertex -37.6316 1.57374 -25.2
      vertex -34.2386 6 -25.2
      vertex -37.5307 1.18771 -25.2
    endloop
  endfacet
  facet normal 0 0 -1
    outer loop
      vertex -37.7604 1.95137 -25.2
      vertex -34.2386 6 -25.2
      vertex -37.6316 1.57374 -25.2
    endloop
  endfacet
  facet normal 0 0 -1
    outer loop
      vertex -37.9165 2.31859 -25.2
      vertex -34.2386 6 -25.2
      vertex -37.7604 1.95137 -25.2
    endloop
  endfacet
  facet normal 0 0 -1
    outer loop
      vertex -38.0989 2.67344 -25.2
      vertex -34.2386 6 -25.2
      vertex -37.9165 2.31859 -25.2
    endloop
  endfacet
  facet normal 0 0 -1
    outer loop
      vertex -38.3068 3.01403 -25.2
      vertex -34.2386 6 -25.2
      vertex -38.0989 2.67344 -25.2
    endloop
  endfacet
  facet normal 0 0 -1
    outer loop
      vertex -38.35 3.07443 -25.2
      vertex -34.2386 6 -25.2
      vertex -38.3068 3.01403 -25.2
    endloop
  endfacet
  facet normal -0 0 -1
    outer loop
      vertex -34.2386 6 -25.2
      vertex -38.35 3.07443 -25.2
      vertex -38.35 6 -25.2
    endloop
  endfacet
  facet normal 0 0 -1
    outer loop
      vertex 38.35 -6 -25.2
      vertex 38.3068 -3.01403 -25.2
      vertex 38.35 -3.07443 -25.2
    endloop
  endfacet
  facet normal 0 0 -1
    outer loop
      vertex 38.35 -6 -25.2
      vertex 38.0989 -2.67344 -25.2
      vertex 38.3068 -3.01403 -25.2
    endloop
  endfacet
  facet normal 0 0 -1
    outer loop
      vertex 38.35 -6 -25.2
      vertex 37.9165 -2.31859 -25.2
      vertex 38.0989 -2.67344 -25.2
    endloop
  endfacet
  facet normal 0 0 -1
    outer loop
      vertex 27.2642 -6 -25.2
      vertex 37.9165 -2.31859 -25.2
      vertex 38.35 -6 -25.2
    endloop
  endfacet
  facet normal -0 0 -1
    outer loop
      vertex 37.9165 -2.31859 -25.2
      vertex 27.2642 -6 -25.2
      vertex 37.7604 -1.95137 -25.2
    endloop
  endfacet
  facet normal -0 0 -1
    outer loop
      vertex 37.7604 -1.95137 -25.2
      vertex 27.2642 -6 -25.2
      vertex 37.6316 -1.57374 -25.2
    endloop
  endfacet
  facet normal -0 0 -1
    outer loop
      vertex 37.6316 -1.57374 -25.2
      vertex 27.2642 -6 -25.2
      vertex 37.5307 -1.18771 -25.2
    endloop
  endfacet
  facet normal -0 0 -1
    outer loop
      vertex 37.4146 -0.398736 -25.2
      vertex 27.2642 -6 -25.2
      vertex 37.4 0 -25.2
    endloop
  endfacet
  facet normal -0 0 -1
    outer loop
      vertex 37.4582 -0.795346 -25.2
      vertex 27.2642 -6 -25.2
      vertex 37.4146 -0.398736 -25.2
    endloop
  endfacet
  facet normal -0 0 -1
    outer loop
      vertex 37.5307 -1.18771 -25.2
      vertex 27.2642 -6 -25.2
      vertex 37.4582 -0.795346 -25.2
    endloop
  endfacet
  facet normal 0 0 -1
    outer loop
      vertex 38.3068 3.01403 -25.2
      vertex 38.35 6 -25.2
      vertex 38.35 3.07443 -25.2
    endloop
  endfacet
  facet normal 0 0 -1
    outer loop
      vertex 38.0989 2.67344 -25.2
      vertex 38.35 6 -25.2
      vertex 38.3068 3.01403 -25.2
    endloop
  endfacet
  facet normal 0 0 -1
    outer loop
      vertex 37.9165 2.31859 -25.2
      vertex 38.35 6 -25.2
      vertex 38.0989 2.67344 -25.2
    endloop
  endfacet
  facet normal 0 0 -1
    outer loop
      vertex 27.2642 6 -25.2
      vertex 37.9165 2.31859 -25.2
      vertex 37.7604 1.95137 -25.2
    endloop
  endfacet
  facet normal 0 0 -1
    outer loop
      vertex 27.2642 6 -25.2
      vertex 37.7604 1.95137 -25.2
      vertex 37.6316 1.57374 -25.2
    endloop
  endfacet
  facet normal 0 0 -1
    outer loop
      vertex 27.2642 6 -25.2
      vertex 37.6316 1.57374 -25.2
      vertex 37.5307 1.18771 -25.2
    endloop
  endfacet
  facet normal 0 0 -1
    outer loop
      vertex 27.2642 6 -25.2
      vertex 37.5307 1.18771 -25.2
      vertex 37.4582 0.795346 -25.2
    endloop
  endfacet
  facet normal 0 0 -1
    outer loop
      vertex 27.2642 6 -25.2
      vertex 37.4 0 -25.2
      vertex 27.2642 -6 -25.2
    endloop
  endfacet
  facet normal 0 0 -1
    outer loop
      vertex 37.4 0 -25.2
      vertex 27.2642 6 -25.2
      vertex 37.4146 0.398736 -25.2
    endloop
  endfacet
  facet normal 0 0 -1
    outer loop
      vertex 37.4146 0.398736 -25.2
      vertex 27.2642 6 -25.2
      vertex 37.4582 0.795346 -25.2
    endloop
  endfacet
  facet normal 0 0 -1
    outer loop
      vertex 37.9165 2.31859 -25.2
      vertex 27.2642 6 -25.2
      vertex 38.35 6 -25.2
    endloop
  endfacet
  facet normal -1 0 0
    outer loop
      vertex -38.35 3.07443 -25.2
      vertex -38.35 6 -6
      vertex -38.35 6 -25.2
    endloop
  endfacet
  facet normal -1 -0 0
    outer loop
      vertex -38.35 6 -6
      vertex -38.35 3.07443 -25.2
      vertex -38.35 3.07443 -6
    endloop
  endfacet
  facet normal -1 0 0
    outer loop
      vertex -38.35 -6 -25.2
      vertex -38.35 -3.07443 -6
      vertex -38.35 -3.07443 -25.2
    endloop
  endfacet
  facet normal -1 -0 0
    outer loop
      vertex -38.35 -3.07443 -6
      vertex -38.35 -6 -25.2
      vertex -38.35 -6 -6
    endloop
  endfacet
  facet normal 0.920302 0.391208 0
    outer loop
      vertex 37.9165 -2.31859 0
      vertex 37.7604 -1.95137 -25.2
      vertex 37.7604 -1.95137 0
    endloop
  endfacet
  facet normal 0.920302 0.391208 0
    outer loop
      vertex 37.7604 -1.95137 -25.2
      vertex 37.9165 -2.31859 0
      vertex 37.9165 -2.31859 -25.2
    endloop
  endfacet
  facet normal 0.946462 0.322814 0
    outer loop
      vertex 37.7604 -1.95137 0
      vertex 37.6316 -1.57374 -25.2
      vertex 37.6316 -1.57374 0
    endloop
  endfacet
  facet normal 0.946462 0.322814 0
    outer loop
      vertex 37.6316 -1.57374 -25.2
      vertex 37.7604 -1.95137 0
      vertex 37.7604 -1.95137 -25.2
    endloop
  endfacet
  facet normal 0.983354 0.181702 0
    outer loop
      vertex 37.5307 -1.18771 0
      vertex 37.4582 -0.795346 -25.2
      vertex 37.4582 -0.795346 0
    endloop
  endfacet
  facet normal 0.983354 0.181702 0
    outer loop
      vertex 37.4582 -0.795346 -25.2
      vertex 37.5307 -1.18771 0
      vertex 37.5307 -1.18771 -25.2
    endloop
  endfacet
  facet normal 0.853547 -0.521015 0
    outer loop
      vertex 38.0989 2.67344 0
      vertex 38.3068 3.01403 -25.2
      vertex 38.3068 3.01403 0
    endloop
  endfacet
  facet normal 0.853547 -0.521015 0
    outer loop
      vertex 38.3068 3.01403 -25.2
      vertex 38.0989 2.67344 0
      vertex 38.0989 2.67344 -25.2
    endloop
  endfacet
  facet normal 0.719984 -0.693991 0
    outer loop
      vertex 38.7942 3.64523 0
      vertex 38.85 3.70312 -6
      vertex 38.85 3.70312 0
    endloop
  endfacet
  facet normal 0.719984 -0.693991 0
    outer loop
      vertex 38.85 3.70312 -6
      vertex 38.7942 3.64523 0
      vertex 38.7942 3.64523 -6
    endloop
  endfacet
  facet normal 0.813369 -0.581748 0
    outer loop
      vertex 38.5389 3.33854 0
      vertex 38.35 3.07443 -6
      vertex 38.5389 3.33854 -6
    endloop
  endfacet
  facet normal 0.813369 -0.581748 -3.34194e-09
    outer loop
      vertex 38.3068 3.01403 0
      vertex 38.35 3.07443 -6
      vertex 38.5389 3.33854 0
    endloop
  endfacet
  facet normal 0.813369 -0.581748 0
    outer loop
      vertex 38.3068 3.01403 -25.2
      vertex 38.35 3.07443 -6
      vertex 38.3068 3.01403 0
    endloop
  endfacet
  facet normal 0.813369 -0.581748 0
    outer loop
      vertex 38.35 3.07443 -6
      vertex 38.3068 3.01403 -25.2
      vertex 38.35 3.07443 -25.2
    endloop
  endfacet
  facet normal 0.889384 0.457161 0
    outer loop
      vertex 38.0989 -2.67344 0
      vertex 37.9165 -2.31859 -25.2
      vertex 37.9165 -2.31859 0
    endloop
  endfacet
  facet normal 0.889384 0.457161 0
    outer loop
      vertex 37.9165 -2.31859 -25.2
      vertex 38.0989 -2.67344 0
      vertex 38.0989 -2.67344 -25.2
    endloop
  endfacet
  facet normal 0.76856 -0.639778 0
    outer loop
      vertex 38.5389 3.33854 0
      vertex 38.7942 3.64523 -6
      vertex 38.7942 3.64523 0
    endloop
  endfacet
  facet normal 0.76856 -0.639778 0
    outer loop
      vertex 38.7942 3.64523 -6
      vertex 38.5389 3.33854 0
      vertex 38.5389 3.33854 -6
    endloop
  endfacet
  facet normal 0.967497 0.252883 0
    outer loop
      vertex 37.6316 -1.57374 0
      vertex 37.5307 -1.18771 -25.2
      vertex 37.5307 -1.18771 0
    endloop
  endfacet
  facet normal 0.967497 0.252883 0
    outer loop
      vertex 37.5307 -1.18771 -25.2
      vertex 37.6316 -1.57374 0
      vertex 37.6316 -1.57374 -25.2
    endloop
  endfacet
  facet normal 0.983354 -0.181702 0
    outer loop
      vertex 37.4582 0.795346 0
      vertex 37.5307 1.18771 -25.2
      vertex 37.5307 1.18771 0
    endloop
  endfacet
  facet normal 0.983354 -0.181702 0
    outer loop
      vertex 37.5307 1.18771 -25.2
      vertex 37.4582 0.795346 0
      vertex 37.4582 0.795346 -25.2
    endloop
  endfacet
  facet normal 0.813369 0.581748 0
    outer loop
      vertex 38.3068 -3.01403 0
      vertex 38.35 -3.07443 -6
      vertex 38.3068 -3.01403 -25.2
    endloop
  endfacet
  facet normal 0.813369 0.581748 -3.34194e-09
    outer loop
      vertex 38.5389 -3.33854 0
      vertex 38.35 -3.07443 -6
      vertex 38.3068 -3.01403 0
    endloop
  endfacet
  facet normal 0.813369 0.581748 0
    outer loop
      vertex 38.35 -3.07443 -6
      vertex 38.5389 -3.33854 0
      vertex 38.5389 -3.33854 -6
    endloop
  endfacet
  facet normal 0.813369 0.581748 0
    outer loop
      vertex 38.3068 -3.01403 -25.2
      vertex 38.35 -3.07443 -6
      vertex 38.35 -3.07443 -25.2
    endloop
  endfacet
  facet normal 0.99933 0.0365912 0
    outer loop
      vertex 37.4146 -0.398736 0
      vertex 37.4 0 -25.2
      vertex 37.4 0 0
    endloop
  endfacet
  facet normal 0.99933 0.0365912 0
    outer loop
      vertex 37.4 0 -25.2
      vertex 37.4146 -0.398736 0
      vertex 37.4146 -0.398736 -25.2
    endloop
  endfacet
  facet normal 0.994012 0.109273 0
    outer loop
      vertex 37.4582 -0.795346 0
      vertex 37.4146 -0.398736 -25.2
      vertex 37.4146 -0.398736 0
    endloop
  endfacet
  facet normal 0.994012 0.109273 0
    outer loop
      vertex 37.4146 -0.398736 -25.2
      vertex 37.4582 -0.795346 0
      vertex 37.4582 -0.795346 -25.2
    endloop
  endfacet
  facet normal 0.946462 -0.322814 0
    outer loop
      vertex 37.6316 1.57374 0
      vertex 37.7604 1.95137 -25.2
      vertex 37.7604 1.95137 0
    endloop
  endfacet
  facet normal 0.946462 -0.322814 0
    outer loop
      vertex 37.7604 1.95137 -25.2
      vertex 37.6316 1.57374 0
      vertex 37.6316 1.57374 -25.2
    endloop
  endfacet
  facet normal 0.99933 -0.0365912 0
    outer loop
      vertex 37.4 0 0
      vertex 37.4146 0.398736 -25.2
      vertex 37.4146 0.398736 0
    endloop
  endfacet
  facet normal 0.99933 -0.0365912 0
    outer loop
      vertex 37.4146 0.398736 -25.2
      vertex 37.4 0 0
      vertex 37.4 0 -25.2
    endloop
  endfacet
  facet normal 0.967497 -0.252883 0
    outer loop
      vertex 37.5307 1.18771 0
      vertex 37.6316 1.57374 -25.2
      vertex 37.6316 1.57374 0
    endloop
  endfacet
  facet normal 0.967497 -0.252883 0
    outer loop
      vertex 37.6316 1.57374 -25.2
      vertex 37.5307 1.18771 0
      vertex 37.5307 1.18771 -25.2
    endloop
  endfacet
  facet normal 0.853547 0.521015 0
    outer loop
      vertex 38.3068 -3.01403 0
      vertex 38.0989 -2.67344 -25.2
      vertex 38.0989 -2.67344 0
    endloop
  endfacet
  facet normal 0.853547 0.521015 0
    outer loop
      vertex 38.0989 -2.67344 -25.2
      vertex 38.3068 -3.01403 0
      vertex 38.3068 -3.01403 -25.2
    endloop
  endfacet
  facet normal 0.994012 -0.109273 0
    outer loop
      vertex 37.4146 0.398736 0
      vertex 37.4582 0.795346 -25.2
      vertex 37.4582 0.795346 0
    endloop
  endfacet
  facet normal 0.994012 -0.109273 0
    outer loop
      vertex 37.4582 0.795346 -25.2
      vertex 37.4146 0.398736 0
      vertex 37.4146 0.398736 -25.2
    endloop
  endfacet
  facet normal 0.920302 -0.391208 0
    outer loop
      vertex 37.7604 1.95137 0
      vertex 37.9165 2.31859 -25.2
      vertex 37.9165 2.31859 0
    endloop
  endfacet
  facet normal 0.920302 -0.391208 0
    outer loop
      vertex 37.9165 2.31859 -25.2
      vertex 37.7604 1.95137 0
      vertex 37.7604 1.95137 -25.2
    endloop
  endfacet
  facet normal 0.889384 -0.457161 0
    outer loop
      vertex 37.9165 2.31859 0
      vertex 38.0989 2.67344 -25.2
      vertex 38.0989 2.67344 0
    endloop
  endfacet
  facet normal 0.889384 -0.457161 0
    outer loop
      vertex 38.0989 2.67344 -25.2
      vertex 37.9165 2.31859 0
      vertex 37.9165 2.31859 -25.2
    endloop
  endfacet
  facet normal 0.76856 0.639778 0
    outer loop
      vertex 38.7942 -3.64523 0
      vertex 38.5389 -3.33854 -6
      vertex 38.5389 -3.33854 0
    endloop
  endfacet
  facet normal 0.76856 0.639778 0
    outer loop
      vertex 38.5389 -3.33854 -6
      vertex 38.7942 -3.64523 0
      vertex 38.7942 -3.64523 -6
    endloop
  endfacet
  facet normal 0.719984 0.693991 0
    outer loop
      vertex 38.85 -3.70312 0
      vertex 38.7942 -3.64523 -6
      vertex 38.7942 -3.64523 0
    endloop
  endfacet
  facet normal 0.719984 0.693991 0
    outer loop
      vertex 38.7942 -3.64523 -6
      vertex 38.85 -3.70312 0
      vertex 38.85 -3.70312 -6
    endloop
  endfacet
  facet normal -0.994012 -0.109273 0
    outer loop
      vertex -37.4146 0.398736 -25.2
      vertex -37.4582 0.795346 0
      vertex -37.4582 0.795346 -25.2
    endloop
  endfacet
  facet normal -0.994012 -0.109273 0
    outer loop
      vertex -37.4582 0.795346 0
      vertex -37.4146 0.398736 -25.2
      vertex -37.4146 0.398736 0
    endloop
  endfacet
  facet normal -0.99933 -0.0365912 0
    outer loop
      vertex -37.4 0 -25.2
      vertex -37.4146 0.398736 0
      vertex -37.4146 0.398736 -25.2
    endloop
  endfacet
  facet normal -0.99933 -0.0365912 0
    outer loop
      vertex -37.4146 0.398736 0
      vertex -37.4 0 -25.2
      vertex -37.4 0 0
    endloop
  endfacet
  facet normal -0.983354 0.181702 0
    outer loop
      vertex -37.5307 -1.18771 -25.2
      vertex -37.4582 -0.795346 0
      vertex -37.4582 -0.795346 -25.2
    endloop
  endfacet
  facet normal -0.983354 0.181702 0
    outer loop
      vertex -37.4582 -0.795346 0
      vertex -37.5307 -1.18771 -25.2
      vertex -37.5307 -1.18771 0
    endloop
  endfacet
  facet normal -0.99933 0.0365912 0
    outer loop
      vertex -37.4146 -0.398736 -25.2
      vertex -37.4 0 0
      vertex -37.4 0 -25.2
    endloop
  endfacet
  facet normal -0.99933 0.0365912 0
    outer loop
      vertex -37.4 0 0
      vertex -37.4146 -0.398736 -25.2
      vertex -37.4146 -0.398736 0
    endloop
  endfacet
  facet normal -0.920302 -0.391208 0
    outer loop
      vertex -37.7604 1.95137 -25.2
      vertex -37.9165 2.31859 0
      vertex -37.9165 2.31859 -25.2
    endloop
  endfacet
  facet normal -0.920302 -0.391208 0
    outer loop
      vertex -37.9165 2.31859 0
      vertex -37.7604 1.95137 -25.2
      vertex -37.7604 1.95137 0
    endloop
  endfacet
  facet normal -0.920302 0.391208 0
    outer loop
      vertex -37.9165 -2.31859 -25.2
      vertex -37.7604 -1.95137 0
      vertex -37.7604 -1.95137 -25.2
    endloop
  endfacet
  facet normal -0.920302 0.391208 0
    outer loop
      vertex -37.7604 -1.95137 0
      vertex -37.9165 -2.31859 -25.2
      vertex -37.9165 -2.31859 0
    endloop
  endfacet
  facet normal -0.889384 -0.457161 0
    outer loop
      vertex -37.9165 2.31859 -25.2
      vertex -38.0989 2.67344 0
      vertex -38.0989 2.67344 -25.2
    endloop
  endfacet
  facet normal -0.889384 -0.457161 0
    outer loop
      vertex -38.0989 2.67344 0
      vertex -37.9165 2.31859 -25.2
      vertex -37.9165 2.31859 0
    endloop
  endfacet
  facet normal -0.946462 -0.322814 0
    outer loop
      vertex -37.6316 1.57374 -25.2
      vertex -37.7604 1.95137 0
      vertex -37.7604 1.95137 -25.2
    endloop
  endfacet
  facet normal -0.946462 -0.322814 0
    outer loop
      vertex -37.7604 1.95137 0
      vertex -37.6316 1.57374 -25.2
      vertex -37.6316 1.57374 0
    endloop
  endfacet
  facet normal -0.813369 -0.581748 0
    outer loop
      vertex -38.35 3.07443 -6
      vertex -38.5389 3.33854 0
      vertex -38.5389 3.33854 -6
    endloop
  endfacet
  facet normal -0.813369 -0.581748 -3.34194e-09
    outer loop
      vertex -38.35 3.07443 -6
      vertex -38.3068 3.01403 0
      vertex -38.5389 3.33854 0
    endloop
  endfacet
  facet normal -0.813369 -0.581748 -0
    outer loop
      vertex -38.3068 3.01403 0
      vertex -38.35 3.07443 -6
      vertex -38.3068 3.01403 -25.2
    endloop
  endfacet
  facet normal -0.813369 -0.581748 0
    outer loop
      vertex -38.35 3.07443 -25.2
      vertex -38.3068 3.01403 -25.2
      vertex -38.35 3.07443 -6
    endloop
  endfacet
  facet normal -0.719984 -0.693991 0
    outer loop
      vertex -38.7942 3.64523 -6
      vertex -38.85 3.70312 0
      vertex -38.85 3.70312 -6
    endloop
  endfacet
  facet normal -0.719984 -0.693991 0
    outer loop
      vertex -38.85 3.70312 0
      vertex -38.7942 3.64523 -6
      vertex -38.7942 3.64523 0
    endloop
  endfacet
  facet normal -0.946462 0.322814 0
    outer loop
      vertex -37.7604 -1.95137 -25.2
      vertex -37.6316 -1.57374 0
      vertex -37.6316 -1.57374 -25.2
    endloop
  endfacet
  facet normal -0.946462 0.322814 0
    outer loop
      vertex -37.6316 -1.57374 0
      vertex -37.7604 -1.95137 -25.2
      vertex -37.7604 -1.95137 0
    endloop
  endfacet
  facet normal -0.76856 -0.639778 0
    outer loop
      vertex -38.5389 3.33854 -6
      vertex -38.7942 3.64523 0
      vertex -38.7942 3.64523 -6
    endloop
  endfacet
  facet normal -0.76856 -0.639778 0
    outer loop
      vertex -38.7942 3.64523 0
      vertex -38.5389 3.33854 -6
      vertex -38.5389 3.33854 0
    endloop
  endfacet
  facet normal -0.853547 -0.521015 0
    outer loop
      vertex -38.0989 2.67344 -25.2
      vertex -38.3068 3.01403 0
      vertex -38.3068 3.01403 -25.2
    endloop
  endfacet
  facet normal -0.853547 -0.521015 0
    outer loop
      vertex -38.3068 3.01403 0
      vertex -38.0989 2.67344 -25.2
      vertex -38.0989 2.67344 0
    endloop
  endfacet
  facet normal -0.994012 0.109273 0
    outer loop
      vertex -37.4582 -0.795346 -25.2
      vertex -37.4146 -0.398736 0
      vertex -37.4146 -0.398736 -25.2
    endloop
  endfacet
  facet normal -0.994012 0.109273 0
    outer loop
      vertex -37.4146 -0.398736 0
      vertex -37.4582 -0.795346 -25.2
      vertex -37.4582 -0.795346 0
    endloop
  endfacet
  facet normal -0.853547 0.521015 0
    outer loop
      vertex -38.3068 -3.01403 -25.2
      vertex -38.0989 -2.67344 0
      vertex -38.0989 -2.67344 -25.2
    endloop
  endfacet
  facet normal -0.853547 0.521015 0
    outer loop
      vertex -38.0989 -2.67344 0
      vertex -38.3068 -3.01403 -25.2
      vertex -38.3068 -3.01403 0
    endloop
  endfacet
  facet normal -0.719984 0.693991 0
    outer loop
      vertex -38.85 -3.70312 -6
      vertex -38.7942 -3.64523 0
      vertex -38.7942 -3.64523 -6
    endloop
  endfacet
  facet normal -0.719984 0.693991 0
    outer loop
      vertex -38.7942 -3.64523 0
      vertex -38.85 -3.70312 -6
      vertex -38.85 -3.70312 0
    endloop
  endfacet
  facet normal -0.889384 0.457161 0
    outer loop
      vertex -38.0989 -2.67344 -25.2
      vertex -37.9165 -2.31859 0
      vertex -37.9165 -2.31859 -25.2
    endloop
  endfacet
  facet normal -0.889384 0.457161 0
    outer loop
      vertex -37.9165 -2.31859 0
      vertex -38.0989 -2.67344 -25.2
      vertex -38.0989 -2.67344 0
    endloop
  endfacet
  facet normal -0.967497 0.252883 0
    outer loop
      vertex -37.6316 -1.57374 -25.2
      vertex -37.5307 -1.18771 0
      vertex -37.5307 -1.18771 -25.2
    endloop
  endfacet
  facet normal -0.967497 0.252883 0
    outer loop
      vertex -37.5307 -1.18771 0
      vertex -37.6316 -1.57374 -25.2
      vertex -37.6316 -1.57374 0
    endloop
  endfacet
  facet normal -0.967497 -0.252883 0
    outer loop
      vertex -37.5307 1.18771 -25.2
      vertex -37.6316 1.57374 0
      vertex -37.6316 1.57374 -25.2
    endloop
  endfacet
  facet normal -0.967497 -0.252883 0
    outer loop
      vertex -37.6316 1.57374 0
      vertex -37.5307 1.18771 -25.2
      vertex -37.5307 1.18771 0
    endloop
  endfacet
  facet normal -0.983354 -0.181702 0
    outer loop
      vertex -37.4582 0.795346 -25.2
      vertex -37.5307 1.18771 0
      vertex -37.5307 1.18771 -25.2
    endloop
  endfacet
  facet normal -0.983354 -0.181702 0
    outer loop
      vertex -37.5307 1.18771 0
      vertex -37.4582 0.795346 -25.2
      vertex -37.4582 0.795346 0
    endloop
  endfacet
  facet normal -0.76856 0.639778 0
    outer loop
      vertex -38.7942 -3.64523 -6
      vertex -38.5389 -3.33854 0
      vertex -38.5389 -3.33854 -6
    endloop
  endfacet
  facet normal -0.76856 0.639778 0
    outer loop
      vertex -38.5389 -3.33854 0
      vertex -38.7942 -3.64523 -6
      vertex -38.7942 -3.64523 0
    endloop
  endfacet
  facet normal -0.813369 0.581748 0
    outer loop
      vertex -38.35 -3.07443 -6
      vertex -38.3068 -3.01403 -25.2
      vertex -38.35 -3.07443 -25.2
    endloop
  endfacet
  facet normal -0.813369 0.581748 0
    outer loop
      vertex -38.3068 -3.01403 -25.2
      vertex -38.35 -3.07443 -6
      vertex -38.3068 -3.01403 0
    endloop
  endfacet
  facet normal -0.813369 0.581748 0
    outer loop
      vertex -38.5389 -3.33854 0
      vertex -38.35 -3.07443 -6
      vertex -38.5389 -3.33854 -6
    endloop
  endfacet
  facet normal -0.813369 0.581748 -3.34194e-09
    outer loop
      vertex -38.35 -3.07443 -6
      vertex -38.5389 -3.33854 0
      vertex -38.3068 -3.01403 0
    endloop
  endfacet
  facet normal 0.121869 0 -0.992546
    outer loop
      vertex -22.9263 -6 -6.1382
      vertex -22.4343 6 -6.07779
      vertex -22.4343 -6 -6.07779
    endloop
  endfacet
  facet normal 0.121869 0 -0.992546
    outer loop
      vertex -22.4343 6 -6.07779
      vertex -22.9263 -6 -6.1382
      vertex -22.9263 6 -6.1382
    endloop
  endfacet
  facet normal 0.93359 0 -0.358344
    outer loop
      vertex -34.116 -6 -14.8806
      vertex -34.2936 6 -15.3433
      vertex -34.116 6 -14.8806
    endloop
  endfacet
  facet normal 0.93359 0 -0.358344
    outer loop
      vertex -34.2936 6 -15.3433
      vertex -34.116 -6 -14.8806
      vertex -34.2936 -6 -15.3433
    endloop
  endfacet
  facet normal 0.0523428 0 -0.998629
    outer loop
      vertex -21.9405 -6 -6.03459
      vertex -21.4456 6 -6.00865
      vertex -21.4456 -6 -6.00865
    endloop
  endfacet
  facet normal 0.0523428 0 -0.998629
    outer loop
      vertex -21.4456 6 -6.00865
      vertex -21.9405 -6 -6.03459
      vertex -21.9405 6 -6.03459
    endloop
  endfacet
  facet normal -0.909637 0 -0.415405
    outer loop
      vertex 34.8491 -6 -18.639
      vertex 34.6831 6 -18.2755
      vertex 34.8491 6 -18.639
    endloop
  endfacet
  facet normal -0.909637 -0 -0.415405
    outer loop
      vertex 34.6831 6 -18.2755
      vertex 34.8491 -6 -18.639
      vertex 34.6831 -6 -18.2755
    endloop
  endfacet
  facet normal 0.94551 0 -0.325593
    outer loop
      vertex -34.2936 -6 -15.3433
      vertex -34.455 6 -15.812
      vertex -34.2936 6 -15.3433
    endloop
  endfacet
  facet normal 0.94551 0 -0.325593
    outer loop
      vertex -34.455 6 -15.812
      vertex -34.2936 -6 -15.3433
      vertex -34.455 -6 -15.812
    endloop
  endfacet
  facet normal -0.371822 0 -0.928304
    outer loop
      vertex 32.3237 -6 -16.231
      vertex 32.6947 6 -16.3796
      vertex 32.6947 -6 -16.3796
    endloop
  endfacet
  facet normal -0.371822 0 -0.928304
    outer loop
      vertex 32.6947 6 -16.3796
      vertex 32.3237 -6 -16.231
      vertex 32.3237 6 -16.231
    endloop
  endfacet
  facet normal 0.325521 0 -0.945535
    outer loop
      vertex -25.8067 -6 -6.85637
      vertex -25.338 6 -6.69501
      vertex -25.338 -6 -6.69501
    endloop
  endfacet
  facet normal 0.325521 0 -0.945535
    outer loop
      vertex -25.338 6 -6.69501
      vertex -25.8067 -6 -6.85637
      vertex -25.8067 6 -6.85637
    endloop
  endfacet
  facet normal 0.656136 0 -0.754643
    outer loop
      vertex -30.4516 -6 -9.64736
      vertex -30.0776 6 -9.32218
      vertex -30.0776 -6 -9.32218
    endloop
  endfacet
  facet normal 0.656136 0 -0.754643
    outer loop
      vertex -30.0776 6 -9.32218
      vertex -30.4516 -6 -9.64736
      vertex -30.4516 6 -9.64736
    endloop
  endfacet
  facet normal -0.998869 0 0.0475414
    outer loop
      vertex 35.131 -6 -20.5992
      vertex 35.15 6 -20.2
      vertex 35.131 6 -20.5992
    endloop
  endfacet
  facet normal -0.998869 0 0.0475414
    outer loop
      vertex 35.15 6 -20.2
      vertex 35.131 -6 -20.5992
      vertex 35.15 -6 -20.2
    endloop
  endfacet
  facet normal -0.866111 0 0.499852
    outer loop
      vertex 34.4833 -6 -22.4707
      vertex 34.6831 6 -22.1245
      vertex 34.4833 6 -22.4707
    endloop
  endfacet
  facet normal -0.866111 0 0.499852
    outer loop
      vertex 34.6831 6 -22.1245
      vertex 34.4833 -6 -22.4707
      vertex 34.6831 -6 -22.1245
    endloop
  endfacet
  facet normal -0.909637 0 0.415405
    outer loop
      vertex 34.6831 -6 -22.1245
      vertex 34.8491 6 -21.761
      vertex 34.6831 6 -22.1245
    endloop
  endfacet
  facet normal -0.909637 0 0.415405
    outer loop
      vertex 34.8491 6 -21.761
      vertex 34.6831 -6 -22.1245
      vertex 34.8491 -6 -21.761
    endloop
  endfacet
  facet normal 0.707127 0 -0.707087
    outer loop
      vertex -30.8141 -6 -9.98538
      vertex -31.1646 6 -10.3359
      vertex -30.8141 6 -9.98538
    endloop
  endfacet
  facet normal 0.707127 0 -0.707087
    outer loop
      vertex -31.1646 6 -10.3359
      vertex -30.8141 -6 -9.98538
      vertex -31.1646 -6 -10.3359
    endloop
  endfacet
  facet normal 0.68198 0 -0.731371
    outer loop
      vertex -30.8141 -6 -9.98538
      vertex -30.4516 6 -9.64736
      vertex -30.4516 -6 -9.64736
    endloop
  endfacet
  facet normal 0.68198 0 -0.731371
    outer loop
      vertex -30.4516 6 -9.64736
      vertex -30.8141 -6 -9.98538
      vertex -30.8141 6 -9.98538
    endloop
  endfacet
  facet normal 0.190836 0 -0.981622
    outer loop
      vertex -23.9023 -6 -6.31031
      vertex -23.4158 6 -6.21573
      vertex -23.4158 -6 -6.21573
    endloop
  endfacet
  facet normal 0.190836 0 -0.981622
    outer loop
      vertex -23.4158 6 -6.21573
      vertex -23.9023 -6 -6.31031
      vertex -23.9023 6 -6.31031
    endloop
  endfacet
  facet normal -0.814527 0 0.580125
    outer loop
      vertex 34.2514 -6 -22.7963
      vertex 34.4833 6 -22.4707
      vertex 34.2514 6 -22.7963
    endloop
  endfacet
  facet normal -0.814527 0 0.580125
    outer loop
      vertex 34.4833 6 -22.4707
      vertex 34.2514 -6 -22.7963
      vertex 34.4833 -6 -22.4707
    endloop
  endfacet
  facet normal 0.0871519 0 -0.996195
    outer loop
      vertex -22.4343 -6 -6.07779
      vertex -21.9405 6 -6.03459
      vertex -21.9405 -6 -6.03459
    endloop
  endfacet
  facet normal 0.0871519 0 -0.996195
    outer loop
      vertex -21.9405 6 -6.03459
      vertex -22.4343 -6 -6.07779
      vertex -22.4343 6 -6.07779
    endloop
  endfacet
  facet normal -0.690017 0 -0.723793
    outer loop
      vertex 33.7004 -6 -17.0259
      vertex 33.9897 6 -17.3017
      vertex 33.9897 -6 -17.3017
    endloop
  endfacet
  facet normal -0.690017 0 -0.723793
    outer loop
      vertex 33.9897 6 -17.3017
      vertex 33.7004 -6 -17.0259
      vertex 33.7004 6 -17.0259
    endloop
  endfacet
  facet normal 0.601774 0 -0.798667
    outer loop
      vertex -29.6924 -6 -9.01026
      vertex -29.2965 6 -8.71196
      vertex -29.2965 -6 -8.71196
    endloop
  endfacet
  facet normal 0.601774 0 -0.798667
    outer loop
      vertex -29.2965 6 -8.71196
      vertex -29.6924 -6 -9.01026
      vertex -29.6924 6 -9.01026
    endloop
  endfacet
  facet normal 0.454012 0 -0.890995
    outer loop
      vertex -27.6165 -6 -7.66216
      vertex -27.1749 6 -7.43714
      vertex -27.1749 -6 -7.43714
    endloop
  endfacet
  facet normal 0.454012 0 -0.890995
    outer loop
      vertex -27.1749 6 -7.43714
      vertex -27.6165 -6 -7.66216
      vertex -27.6165 6 -7.66216
    endloop
  endfacet
  facet normal 0.974374 -0 0.224933
    outer loop
      vertex -34.8397 -6 -23.1523
      vertex -34.7282 6 -23.6353
      vertex -34.8397 6 -23.1523
    endloop
  endfacet
  facet normal 0.974374 0 0.224933
    outer loop
      vertex -34.7282 6 -23.6353
      vertex -34.8397 -6 -23.1523
      vertex -34.7282 -6 -23.6353
    endloop
  endfacet
  facet normal 0.920496 0 -0.390752
    outer loop
      vertex -33.9223 -6 -14.4243
      vertex -34.116 6 -14.8806
      vertex -33.9223 6 -14.4243
    endloop
  endfacet
  facet normal 0.920496 0 -0.390752
    outer loop
      vertex -34.116 6 -14.8806
      vertex -33.9223 -6 -14.4243
      vertex -34.116 -6 -14.8806
    endloop
  endfacet
  facet normal -0.281719 0 -0.959497
    outer loop
      vertex 31.9402 -6 -16.1184
      vertex 32.3237 6 -16.231
      vertex 32.3237 -6 -16.231
    endloop
  endfacet
  facet normal -0.281719 0 -0.959497
    outer loop
      vertex 32.3237 6 -16.231
      vertex 31.9402 -6 -16.1184
      vertex 31.9402 6 -16.1184
    endloop
  endfacet
  facet normal 0.996195 -0 0.0871519
    outer loop
      vertex -35.1154 -6 -21.1905
      vertex -35.0722 6 -21.6843
      vertex -35.1154 6 -21.1905
    endloop
  endfacet
  facet normal 0.996195 0 0.0871519
    outer loop
      vertex -35.0722 6 -21.6843
      vertex -35.1154 -6 -21.1905
      vertex -35.0722 -6 -21.6843
    endloop
  endfacet
  facet normal 0.484805 0 -0.874622
    outer loop
      vertex -28.05 -6 -7.90245
      vertex -27.6165 6 -7.66216
      vertex -27.6165 -6 -7.66216
    endloop
  endfacet
  facet normal 0.484805 0 -0.874622
    outer loop
      vertex -27.6165 6 -7.66216
      vertex -28.05 -6 -7.90245
      vertex -28.05 6 -7.90245
    endloop
  endfacet
  facet normal 0.933597 -0 0.358324
    outer loop
      vertex -34.2936 -6 -25.0567
      vertex -34.2386 6 -25.2
      vertex -34.2936 6 -25.0567
    endloop
  endfacet
  facet normal 0.933597 0 0.358324
    outer loop
      vertex -34.2386 6 -25.2
      vertex -34.2936 -6 -25.0567
      vertex -34.2386 -6 -25.2
    endloop
  endfacet
  facet normal -0.618175 0 -0.78604
    outer loop
      vertex 33.3862 -6 -16.7788
      vertex 33.7004 6 -17.0259
      vertex 33.7004 -6 -17.0259
    endloop
  endfacet
  facet normal -0.618175 0 -0.78604
    outer loop
      vertex 33.7004 6 -17.0259
      vertex 33.3862 -6 -16.7788
      vertex 33.3862 6 -16.7788
    endloop
  endfacet
  facet normal 0.422565 0 -0.906333
    outer loop
      vertex -27.1749 -6 -7.43714
      vertex -26.7256 6 -7.22766
      vertex -26.7256 -6 -7.22766
    endloop
  endfacet
  facet normal 0.422565 0 -0.906333
    outer loop
      vertex -26.7256 6 -7.22766
      vertex -27.1749 -6 -7.43714
      vertex -27.1749 6 -7.43714
    endloop
  endfacet
  facet normal -0.0871519 0 -0.996195
    outer loop
      vertex -19.9595 -6 -6.03459
      vertex -19.4657 6 -6.07779
      vertex -19.4657 -6 -6.07779
    endloop
  endfacet
  facet normal -0.0871519 0 -0.996195
    outer loop
      vertex -19.4657 6 -6.07779
      vertex -19.9595 -6 -6.03459
      vertex -19.9595 6 -6.03459
    endloop
  endfacet
  facet normal 0.981614 -0 0.190875
    outer loop
      vertex -34.9343 -6 -22.6658
      vertex -34.8397 6 -23.1523
      vertex -34.9343 6 -22.6658
    endloop
  endfacet
  facet normal 0.981614 0 0.190875
    outer loop
      vertex -34.8397 6 -23.1523
      vertex -34.9343 -6 -22.6658
      vertex -34.8397 -6 -23.1523
    endloop
  endfacet
  facet normal -0.190836 0 -0.981622
    outer loop
      vertex -18.4842 -6 -6.21573
      vertex -17.9977 6 -6.31031
      vertex -17.9977 -6 -6.31031
    endloop
  endfacet
  facet normal -0.190836 0 -0.981622
    outer loop
      vertex -17.9977 6 -6.31031
      vertex -18.4842 -6 -6.21573
      vertex -18.4842 6 -6.21573
    endloop
  endfacet
  facet normal -0.192724 0 -0.981253
    outer loop
      vertex -17.9977 -6 -6.31031
      vertex 31.9402 6 -16.1184
      vertex 31.9402 -6 -16.1184
    endloop
  endfacet
  facet normal -0.192724 0 -0.981253
    outer loop
      vertex 31.9402 6 -16.1184
      vertex -17.9977 -6 -6.31031
      vertex -17.9977 6 -6.31031
    endloop
  endfacet
  facet normal -0.281719 0 0.959497
    outer loop
      vertex 31.9402 6 -24.2816
      vertex 32.3237 -6 -24.169
      vertex 32.3237 6 -24.169
    endloop
  endfacet
  facet normal -0.281719 0 0.959497
    outer loop
      vertex 32.3237 -6 -24.169
      vertex 31.9402 6 -24.2816
      vertex 31.9402 -6 -24.2816
    endloop
  endfacet
  facet normal -0.97184 0 -0.235643
    outer loop
      vertex 35.0741 -6 -19.4052
      vertex 34.9799 6 -19.0167
      vertex 35.0741 6 -19.4052
    endloop
  endfacet
  facet normal -0.97184 -0 -0.235643
    outer loop
      vertex 34.9799 6 -19.0167
      vertex 35.0741 -6 -19.4052
      vertex 34.9799 -6 -19.0167
    endloop
  endfacet
  facet normal 0.874614 0 -0.48482
    outer loop
      vertex -33.2476 -6 -13.1
      vertex -33.4879 6 -13.5335
      vertex -33.2476 6 -13.1
    endloop
  endfacet
  facet normal 0.874614 0 -0.48482
    outer loop
      vertex -33.4879 6 -13.5335
      vertex -33.2476 -6 -13.1
      vertex -33.4879 -6 -13.5335
    endloop
  endfacet
  facet normal -0.192725 0 0.981253
    outer loop
      vertex 27.2642 6 -25.2
      vertex 31.9402 -6 -24.2816
      vertex 31.9402 6 -24.2816
    endloop
  endfacet
  facet normal -0.192725 0 0.981253
    outer loop
      vertex 31.9402 -6 -24.2816
      vertex 27.2642 6 -25.2
      vertex 27.2642 -6 -25.2
    endloop
  endfacet
  facet normal 0.573571 0 -0.819156
    outer loop
      vertex -29.2965 -6 -8.71196
      vertex -28.8905 6 -8.42768
      vertex -28.8905 -6 -8.42768
    endloop
  endfacet
  facet normal 0.573571 0 -0.819156
    outer loop
      vertex -28.8905 6 -8.42768
      vertex -29.2965 -6 -8.71196
      vertex -29.2965 6 -8.71196
    endloop
  endfacet
  facet normal -0.944941 0 -0.327239
    outer loop
      vertex 34.9799 -6 -19.0167
      vertex 34.8491 6 -18.639
      vertex 34.9799 6 -19.0167
    endloop
  endfacet
  facet normal -0.944941 -0 -0.327239
    outer loop
      vertex 34.8491 6 -18.639
      vertex 34.9799 -6 -19.0167
      vertex 34.8491 -6 -18.639
    endloop
  endfacet
  facet normal -0.0523428 0 -0.998629
    outer loop
      vertex -20.4544 -6 -6.00865
      vertex -19.9595 6 -6.03459
      vertex -19.9595 -6 -6.03459
    endloop
  endfacet
  facet normal -0.0523428 0 -0.998629
    outer loop
      vertex -19.9595 6 -6.03459
      vertex -20.4544 -6 -6.00865
      vertex -20.4544 6 -6.00865
    endloop
  endfacet
  facet normal 0.29236 0 -0.956308
    outer loop
      vertex -25.338 -6 -6.69501
      vertex -24.864 6 -6.5501
      vertex -24.864 -6 -6.5501
    endloop
  endfacet
  facet normal 0.29236 0 -0.956308
    outer loop
      vertex -24.864 6 -6.5501
      vertex -25.338 -6 -6.69501
      vertex -25.338 6 -6.69501
    endloop
  endfacet
  facet normal 0.965909 0 -0.258881
    outer loop
      vertex -34.5999 -6 -16.286
      vertex -34.7282 6 -16.7647
      vertex -34.5999 6 -16.286
    endloop
  endfacet
  facet normal 0.965909 0 -0.258881
    outer loop
      vertex -34.7282 6 -16.7647
      vertex -34.5999 -6 -16.286
      vertex -34.7282 -6 -16.7647
    endloop
  endfacet
  facet normal 0.987697 0 -0.156377
    outer loop
      vertex -34.9343 -6 -17.7342
      vertex -35.0118 6 -18.2237
      vertex -34.9343 6 -17.7342
    endloop
  endfacet
  facet normal 0.987697 0 -0.156377
    outer loop
      vertex -35.0118 6 -18.2237
      vertex -34.9343 -6 -17.7342
      vertex -35.0118 -6 -18.2237
    endloop
  endfacet
  facet normal 0.819137 0 -0.573598
    outer loop
      vertex -32.438 -6 -11.8535
      vertex -32.7223 6 -12.2595
      vertex -32.438 6 -11.8535
    endloop
  endfacet
  facet normal 0.819137 0 -0.573598
    outer loop
      vertex -32.7223 6 -12.2595
      vertex -32.438 -6 -11.8535
      vertex -32.7223 -6 -12.2595
    endloop
  endfacet
  facet normal 0.998633 0 -0.0522623
    outer loop
      vertex -35.1154 -6 -19.2095
      vertex -35.1413 6 -19.7044
      vertex -35.1154 6 -19.2095
    endloop
  endfacet
  facet normal 0.998633 0 -0.0522623
    outer loop
      vertex -35.1413 6 -19.7044
      vertex -35.1154 -6 -19.2095
      vertex -35.1413 -6 -19.7044
    endloop
  endfacet
  facet normal -0.371606 0 0.92839
    outer loop
      vertex 32.3237 6 -24.169
      vertex 32.6947 -6 -24.0205
      vertex 32.6947 6 -24.0205
    endloop
  endfacet
  facet normal -0.371606 0 0.92839
    outer loop
      vertex 32.6947 -6 -24.0205
      vertex 32.3237 6 -24.169
      vertex 32.3237 -6 -24.169
    endloop
  endfacet
  facet normal 0.891012 0 -0.45398
    outer loop
      vertex -33.4879 -6 -13.5335
      vertex -33.7129 6 -13.9751
      vertex -33.4879 6 -13.5335
    endloop
  endfacet
  facet normal 0.891012 0 -0.45398
    outer loop
      vertex -33.7129 6 -13.9751
      vertex -33.4879 -6 -13.5335
      vertex -33.7129 -6 -13.9751
    endloop
  endfacet
  facet normal 0.224914 0 -0.974379
    outer loop
      vertex -24.3853 -6 -6.4218
      vertex -23.9023 6 -6.31031
      vertex -23.9023 -6 -6.31031
    endloop
  endfacet
  facet normal 0.224914 0 -0.974379
    outer loop
      vertex -23.9023 6 -6.31031
      vertex -24.3853 -6 -6.4218
      vertex -24.3853 6 -6.4218
    endloop
  endfacet
  facet normal 0.156436 0 -0.987688
    outer loop
      vertex -23.4158 -6 -6.21573
      vertex -22.9263 6 -6.1382
      vertex -22.9263 -6 -6.1382
    endloop
  endfacet
  facet normal 0.156436 0 -0.987688
    outer loop
      vertex -22.9263 6 -6.1382
      vertex -23.4158 -6 -6.21573
      vertex -23.4158 6 -6.21573
    endloop
  endfacet
  facet normal 0.798667 0 -0.601774
    outer loop
      vertex -32.1397 -6 -11.4576
      vertex -32.438 6 -11.8535
      vertex -32.1397 6 -11.4576
    endloop
  endfacet
  facet normal 0.798667 0 -0.601774
    outer loop
      vertex -32.438 6 -11.8535
      vertex -32.1397 -6 -11.4576
      vertex -32.438 -6 -11.8535
    endloop
  endfacet
  facet normal 0.956314 0 -0.292342
    outer loop
      vertex -34.455 -6 -15.812
      vertex -34.5999 6 -16.286
      vertex -34.455 6 -15.812
    endloop
  endfacet
  facet normal 0.956314 0 -0.292342
    outer loop
      vertex -34.5999 6 -16.286
      vertex -34.455 -6 -15.812
      vertex -34.5999 -6 -16.286
    endloop
  endfacet
  facet normal 0.999846 0 -0.0175518
    outer loop
      vertex -35.1413 -6 -19.7044
      vertex -35.15 6 -20.2
      vertex -35.1413 6 -19.7044
    endloop
  endfacet
  facet normal 0.999846 0 -0.0175518
    outer loop
      vertex -35.15 6 -20.2
      vertex -35.1413 -6 -19.7044
      vertex -35.15 -6 -20.2
    endloop
  endfacet
  facet normal 0.857119 0 -0.515119
    outer loop
      vertex -32.9923 -6 -12.6752
      vertex -33.2476 6 -13.1
      vertex -32.9923 6 -12.6752
    endloop
  endfacet
  facet normal 0.857119 0 -0.515119
    outer loop
      vertex -33.2476 6 -13.1
      vertex -32.9923 -6 -12.6752
      vertex -33.2476 -6 -13.1
    endloop
  endfacet
  facet normal 0.258881 0 -0.965909
    outer loop
      vertex -24.864 -6 -6.5501
      vertex -24.3853 6 -6.4218
      vertex -24.3853 -6 -6.4218
    endloop
  endfacet
  facet normal 0.258881 0 -0.965909
    outer loop
      vertex -24.3853 6 -6.4218
      vertex -24.864 -6 -6.5501
      vertex -24.864 6 -6.5501
    endloop
  endfacet
  facet normal 0.544733 0 -0.83861
    outer loop
      vertex -28.8905 -6 -8.42768
      vertex -28.4749 6 -8.15772
      vertex -28.4749 -6 -8.15772
    endloop
  endfacet
  facet normal 0.544733 0 -0.83861
    outer loop
      vertex -28.4749 6 -8.15772
      vertex -28.8905 -6 -8.42768
      vertex -28.8905 6 -8.42768
    endloop
  endfacet
  facet normal -0.0174509 0 -0.999848
    outer loop
      vertex -20.95 -6 -6
      vertex -20.4544 6 -6.00865
      vertex -20.4544 -6 -6.00865
    endloop
  endfacet
  facet normal -0.0174509 0 -0.999848
    outer loop
      vertex -20.4544 6 -6.00865
      vertex -20.95 -6 -6
      vertex -20.95 6 -6
    endloop
  endfacet
  facet normal -0.690017 0 0.723793
    outer loop
      vertex 33.7004 6 -23.3741
      vertex 33.9897 -6 -23.0983
      vertex 33.9897 6 -23.0983
    endloop
  endfacet
  facet normal -0.690017 0 0.723793
    outer loop
      vertex 33.9897 -6 -23.0983
      vertex 33.7004 6 -23.3741
      vertex 33.7004 -6 -23.3741
    endloop
  endfacet
  facet normal -0.618175 0 0.78604
    outer loop
      vertex 33.3862 6 -23.6212
      vertex 33.7004 -6 -23.3741
      vertex 33.7004 6 -23.3741
    endloop
  endfacet
  facet normal -0.618175 0 0.78604
    outer loop
      vertex 33.7004 -6 -23.3741
      vertex 33.3862 6 -23.6212
      vertex 33.3862 -6 -23.6212
    endloop
  endfacet
  facet normal 0.358396 0 -0.93357
    outer loop
      vertex -26.2694 -6 -7.034
      vertex -25.8067 6 -6.85637
      vertex -25.8067 -6 -6.85637
    endloop
  endfacet
  facet normal 0.358396 0 -0.93357
    outer loop
      vertex -25.8067 6 -6.85637
      vertex -26.2694 -6 -7.034
      vertex -26.2694 6 -7.034
    endloop
  endfacet
  facet normal 0.0174509 0 -0.999848
    outer loop
      vertex -21.4456 -6 -6.00865
      vertex -20.95 6 -6
      vertex -20.95 -6 -6
    endloop
  endfacet
  facet normal 0.0174509 0 -0.999848
    outer loop
      vertex -20.95 6 -6
      vertex -21.4456 -6 -6.00865
      vertex -21.4456 6 -6.00865
    endloop
  endfacet
  facet normal -0.75573 0 0.654883
    outer loop
      vertex 33.9897 -6 -23.0983
      vertex 34.2514 6 -22.7963
      vertex 33.9897 6 -23.0983
    endloop
  endfacet
  facet normal -0.75573 0 0.654883
    outer loop
      vertex 34.2514 6 -22.7963
      vertex 33.9897 -6 -23.0983
      vertex 34.2514 -6 -22.7963
    endloop
  endfacet
  facet normal 0.94551 -0 0.325593
    outer loop
      vertex -34.455 -6 -24.588
      vertex -34.2936 6 -25.0567
      vertex -34.455 6 -24.588
    endloop
  endfacet
  facet normal 0.94551 0 0.325593
    outer loop
      vertex -34.2936 6 -25.0567
      vertex -34.455 -6 -24.588
      vertex -34.2936 -6 -25.0567
    endloop
  endfacet
  facet normal 0.965909 -0 0.258881
    outer loop
      vertex -34.7282 -6 -23.6353
      vertex -34.5999 6 -24.114
      vertex -34.7282 6 -23.6353
    endloop
  endfacet
  facet normal 0.965909 0 0.258881
    outer loop
      vertex -34.5999 6 -24.114
      vertex -34.7282 -6 -23.6353
      vertex -34.5999 -6 -24.114
    endloop
  endfacet
  facet normal 0.956314 -0 0.292342
    outer loop
      vertex -34.5999 -6 -24.114
      vertex -34.455 6 -24.588
      vertex -34.5999 6 -24.114
    endloop
  endfacet
  facet normal 0.956314 0 0.292342
    outer loop
      vertex -34.455 6 -24.588
      vertex -34.5999 -6 -24.114
      vertex -34.455 -6 -24.588
    endloop
  endfacet
  facet normal 0.999846 -0 0.0175518
    outer loop
      vertex -35.15 -6 -20.2
      vertex -35.1413 6 -20.6956
      vertex -35.15 6 -20.2
    endloop
  endfacet
  facet normal 0.999846 0 0.0175518
    outer loop
      vertex -35.1413 6 -20.6956
      vertex -35.15 -6 -20.2
      vertex -35.1413 -6 -20.6956
    endloop
  endfacet
  facet normal -0.540707 0 0.841211
    outer loop
      vertex 33.05 6 -23.8373
      vertex 33.3862 -6 -23.6212
      vertex 33.3862 6 -23.6212
    endloop
  endfacet
  facet normal -0.540707 0 0.841211
    outer loop
      vertex 33.3862 -6 -23.6212
      vertex 33.05 6 -23.8373
      vertex 33.05 -6 -23.8373
    endloop
  endfacet
  facet normal 0.998633 -0 0.0522623
    outer loop
      vertex -35.1413 -6 -20.6956
      vertex -35.1154 6 -21.1905
      vertex -35.1413 6 -20.6956
    endloop
  endfacet
  facet normal 0.998633 0 0.0522623
    outer loop
      vertex -35.1154 6 -21.1905
      vertex -35.1413 -6 -20.6956
      vertex -35.1154 -6 -21.1905
    endloop
  endfacet
  facet normal -0.944941 0 0.327239
    outer loop
      vertex 34.8491 -6 -21.761
      vertex 34.9799 6 -21.3833
      vertex 34.8491 6 -21.761
    endloop
  endfacet
  facet normal -0.944941 0 0.327239
    outer loop
      vertex 34.9799 6 -21.3833
      vertex 34.8491 -6 -21.761
      vertex 34.9799 -6 -21.3833
    endloop
  endfacet
  facet normal -0.989814 0 0.142367
    outer loop
      vertex 35.0741 -6 -20.9948
      vertex 35.131 6 -20.5992
      vertex 35.0741 6 -20.9948
    endloop
  endfacet
  facet normal -0.989814 0 0.142367
    outer loop
      vertex 35.131 6 -20.5992
      vertex 35.0741 -6 -20.9948
      vertex 35.131 -6 -20.5992
    endloop
  endfacet
  facet normal 0.777174 0 -0.629285
    outer loop
      vertex -31.8278 -6 -11.0724
      vertex -32.1397 6 -11.4576
      vertex -31.8278 6 -11.0724
    endloop
  endfacet
  facet normal 0.777174 0 -0.629285
    outer loop
      vertex -32.1397 6 -11.4576
      vertex -31.8278 -6 -11.0724
      vertex -32.1397 -6 -11.4576
    endloop
  endfacet
  facet normal -0.998869 0 -0.0475414
    outer loop
      vertex 35.15 -6 -20.2
      vertex 35.131 6 -19.8008
      vertex 35.15 6 -20.2
    endloop
  endfacet
  facet normal -0.998869 -0 -0.0475414
    outer loop
      vertex 35.131 6 -19.8008
      vertex 35.15 -6 -20.2
      vertex 35.131 -6 -19.8008
    endloop
  endfacet
  facet normal 0.514985 0 -0.857199
    outer loop
      vertex -28.4749 -6 -8.15772
      vertex -28.05 6 -7.90245
      vertex -28.05 -6 -7.90245
    endloop
  endfacet
  facet normal 0.514985 0 -0.857199
    outer loop
      vertex -28.05 6 -7.90245
      vertex -28.4749 -6 -8.15772
      vertex -28.4749 6 -8.15772
    endloop
  endfacet
  facet normal -0.989814 0 -0.142367
    outer loop
      vertex 35.131 -6 -19.8008
      vertex 35.0741 6 -19.4052
      vertex 35.131 6 -19.8008
    endloop
  endfacet
  facet normal -0.989814 -0 -0.142367
    outer loop
      vertex 35.0741 6 -19.4052
      vertex 35.131 -6 -19.8008
      vertex 35.0741 -6 -19.4052
    endloop
  endfacet
  facet normal -0.121869 0 -0.992546
    outer loop
      vertex -19.4657 -6 -6.07779
      vertex -18.9737 6 -6.1382
      vertex -18.9737 -6 -6.1382
    endloop
  endfacet
  facet normal -0.121869 0 -0.992546
    outer loop
      vertex -18.9737 6 -6.1382
      vertex -19.4657 -6 -6.07779
      vertex -19.4657 6 -6.07779
    endloop
  endfacet
  facet normal -0.156436 0 -0.987688
    outer loop
      vertex -18.9737 -6 -6.1382
      vertex -18.4842 6 -6.21573
      vertex -18.4842 -6 -6.21573
    endloop
  endfacet
  facet normal -0.156436 0 -0.987688
    outer loop
      vertex -18.4842 6 -6.21573
      vertex -18.9737 -6 -6.1382
      vertex -18.9737 6 -6.1382
    endloop
  endfacet
  facet normal 0.992549 -0 0.121849
    outer loop
      vertex -35.0722 -6 -21.6843
      vertex -35.0118 6 -22.1763
      vertex -35.0722 6 -21.6843
    endloop
  endfacet
  facet normal 0.992549 0 0.121849
    outer loop
      vertex -35.0118 6 -22.1763
      vertex -35.0722 -6 -21.6843
      vertex -35.0118 -6 -22.1763
    endloop
  endfacet
  facet normal 0.754723 0 -0.656044
    outer loop
      vertex -31.5027 -6 -10.6984
      vertex -31.8278 6 -11.0724
      vertex -31.5027 6 -10.6984
    endloop
  endfacet
  facet normal 0.754723 0 -0.656044
    outer loop
      vertex -31.8278 6 -11.0724
      vertex -31.5027 -6 -10.6984
      vertex -31.8278 -6 -11.0724
    endloop
  endfacet
  facet normal 0.987697 -0 0.156377
    outer loop
      vertex -35.0118 -6 -22.1763
      vertex -34.9343 6 -22.6658
      vertex -35.0118 6 -22.1763
    endloop
  endfacet
  facet normal 0.987697 0 0.156377
    outer loop
      vertex -34.9343 6 -22.6658
      vertex -35.0118 -6 -22.1763
      vertex -34.9343 -6 -22.6658
    endloop
  endfacet
  facet normal -0.540707 0 -0.841211
    outer loop
      vertex 33.05 -6 -16.5627
      vertex 33.3862 6 -16.7788
      vertex 33.3862 -6 -16.7788
    endloop
  endfacet
  facet normal -0.540707 0 -0.841211
    outer loop
      vertex 33.3862 6 -16.7788
      vertex 33.05 -6 -16.5627
      vertex 33.05 6 -16.5627
    endloop
  endfacet
  facet normal -0.97184 0 0.235643
    outer loop
      vertex 34.9799 -6 -21.3833
      vertex 35.0741 6 -20.9948
      vertex 34.9799 6 -21.3833
    endloop
  endfacet
  facet normal -0.97184 0 0.235643
    outer loop
      vertex 35.0741 6 -20.9948
      vertex 34.9799 -6 -21.3833
      vertex 35.0741 -6 -20.9948
    endloop
  endfacet
  facet normal 0.992549 0 -0.121849
    outer loop
      vertex -35.0118 -6 -18.2237
      vertex -35.0722 6 -18.7157
      vertex -35.0118 6 -18.2237
    endloop
  endfacet
  facet normal 0.992549 0 -0.121849
    outer loop
      vertex -35.0722 6 -18.7157
      vertex -35.0118 -6 -18.2237
      vertex -35.0722 -6 -18.7157
    endloop
  endfacet
  facet normal 0.996195 0 -0.0871519
    outer loop
      vertex -35.0722 -6 -18.7157
      vertex -35.1154 6 -19.2095
      vertex -35.0722 6 -18.7157
    endloop
  endfacet
  facet normal 0.996195 0 -0.0871519
    outer loop
      vertex -35.1154 6 -19.2095
      vertex -35.0722 -6 -18.7157
      vertex -35.1154 -6 -19.2095
    endloop
  endfacet
  facet normal 0.73129 0 -0.682067
    outer loop
      vertex -31.1646 -6 -10.3359
      vertex -31.5027 6 -10.6984
      vertex -31.1646 6 -10.3359
    endloop
  endfacet
  facet normal 0.73129 0 -0.682067
    outer loop
      vertex -31.5027 6 -10.6984
      vertex -31.1646 -6 -10.3359
      vertex -31.5027 -6 -10.6984
    endloop
  endfacet
  facet normal 0.62931 0 -0.777155
    outer loop
      vertex -30.0776 -6 -9.32218
      vertex -29.6924 6 -9.01026
      vertex -29.6924 -6 -9.01026
    endloop
  endfacet
  facet normal 0.62931 0 -0.777155
    outer loop
      vertex -29.6924 6 -9.01026
      vertex -30.0776 -6 -9.32218
      vertex -30.0776 6 -9.32218
    endloop
  endfacet
  facet normal 0.838633 0 -0.544698
    outer loop
      vertex -32.7223 -6 -12.2595
      vertex -32.9923 6 -12.6752
      vertex -32.7223 6 -12.2595
    endloop
  endfacet
  facet normal 0.838633 0 -0.544698
    outer loop
      vertex -32.9923 6 -12.6752
      vertex -32.7223 -6 -12.2595
      vertex -32.9923 -6 -12.6752
    endloop
  endfacet
  facet normal 0.906358 0 -0.42251
    outer loop
      vertex -33.7129 -6 -13.9751
      vertex -33.9223 6 -14.4243
      vertex -33.7129 6 -13.9751
    endloop
  endfacet
  facet normal 0.906358 0 -0.42251
    outer loop
      vertex -33.9223 6 -14.4243
      vertex -33.7129 -6 -13.9751
      vertex -33.9223 -6 -14.4243
    endloop
  endfacet
  facet normal 0.981614 0 -0.190875
    outer loop
      vertex -34.8397 -6 -17.2477
      vertex -34.9343 6 -17.7342
      vertex -34.8397 6 -17.2477
    endloop
  endfacet
  facet normal 0.981614 0 -0.190875
    outer loop
      vertex -34.9343 6 -17.7342
      vertex -34.8397 -6 -17.2477
      vertex -34.9343 -6 -17.7342
    endloop
  endfacet
  facet normal 0.974374 0 -0.224933
    outer loop
      vertex -34.7282 -6 -16.7647
      vertex -34.8397 6 -17.2477
      vertex -34.7282 6 -16.7647
    endloop
  endfacet
  facet normal 0.974374 0 -0.224933
    outer loop
      vertex -34.8397 6 -17.2477
      vertex -34.7282 -6 -16.7647
      vertex -34.8397 -6 -17.2477
    endloop
  endfacet
  facet normal -0.814527 0 -0.580125
    outer loop
      vertex 34.4833 -6 -17.9293
      vertex 34.2514 6 -17.6037
      vertex 34.4833 6 -17.9293
    endloop
  endfacet
  facet normal -0.814527 -0 -0.580125
    outer loop
      vertex 34.2514 6 -17.6037
      vertex 34.4833 -6 -17.9293
      vertex 34.2514 -6 -17.6037
    endloop
  endfacet
  facet normal -0.866111 0 -0.499852
    outer loop
      vertex 34.6831 -6 -18.2755
      vertex 34.4833 6 -17.9293
      vertex 34.6831 6 -18.2755
    endloop
  endfacet
  facet normal -0.866111 -0 -0.499852
    outer loop
      vertex 34.4833 6 -17.9293
      vertex 34.6831 -6 -18.2755
      vertex 34.4833 -6 -17.9293
    endloop
  endfacet
  facet normal 0.390756 0 -0.920494
    outer loop
      vertex -26.7256 -6 -7.22766
      vertex -26.2694 6 -7.034
      vertex -26.2694 -6 -7.034
    endloop
  endfacet
  facet normal 0.390756 0 -0.920494
    outer loop
      vertex -26.2694 6 -7.034
      vertex -26.7256 -6 -7.22766
      vertex -26.7256 6 -7.22766
    endloop
  endfacet
  facet normal -0.458088 0 -0.888907
    outer loop
      vertex 32.6947 -6 -16.3796
      vertex 33.05 6 -16.5627
      vertex 33.05 -6 -16.5627
    endloop
  endfacet
  facet normal -0.458088 0 -0.888907
    outer loop
      vertex 33.05 6 -16.5627
      vertex 32.6947 -6 -16.3796
      vertex 32.6947 6 -16.3796
    endloop
  endfacet
  facet normal -0.458286 0 0.888805
    outer loop
      vertex 32.6947 6 -24.0205
      vertex 33.05 -6 -23.8373
      vertex 33.05 6 -23.8373
    endloop
  endfacet
  facet normal -0.458286 0 0.888805
    outer loop
      vertex 33.05 -6 -23.8373
      vertex 32.6947 6 -24.0205
      vertex 32.6947 -6 -24.0205
    endloop
  endfacet
  facet normal -0.75573 0 -0.654883
    outer loop
      vertex 34.2514 -6 -17.6037
      vertex 33.9897 6 -17.3017
      vertex 34.2514 6 -17.6037
    endloop
  endfacet
  facet normal -0.75573 -0 -0.654883
    outer loop
      vertex 33.9897 6 -17.3017
      vertex 34.2514 -6 -17.6037
      vertex 33.9897 -6 -17.3017
    endloop
  endfacet
  facet normal 1 -0 0
    outer loop
      vertex 38.85 3.70312 0
      vertex 38.85 6 -6
      vertex 38.85 6 0
    endloop
  endfacet
  facet normal 1 0 0
    outer loop
      vertex 38.85 6 -6
      vertex 38.85 3.70312 0
      vertex 38.85 3.70312 -6
    endloop
  endfacet
  facet normal 1 -0 0
    outer loop
      vertex 38.85 -6 0
      vertex 38.85 -3.70312 -6
      vertex 38.85 -3.70312 0
    endloop
  endfacet
  facet normal 1 0 0
    outer loop
      vertex 38.85 -3.70312 -6
      vertex 38.85 -6 0
      vertex 38.85 -6 -6
    endloop
  endfacet
  facet normal -1 0 0
    outer loop
      vertex -38.85 3.70312 -6
      vertex -38.85 6 0
      vertex -38.85 6 -6
    endloop
  endfacet
  facet normal -1 -0 0
    outer loop
      vertex -38.85 6 0
      vertex -38.85 3.70312 -6
      vertex -38.85 3.70312 0
    endloop
  endfacet
  facet normal -1 0 0
    outer loop
      vertex -38.85 -6 -6
      vertex -38.85 -3.70312 0
      vertex -38.85 -3.70312 -6
    endloop
  endfacet
  facet normal -1 -0 0
    outer loop
      vertex -38.85 -3.70312 0
      vertex -38.85 -6 -6
      vertex -38.85 -6 0
    endloop
  endfacet
  facet normal 0 1 -0
    outer loop
      vertex -21.4456 6 -6.00865
      vertex -38.85 6 0
      vertex -20.95 6 -6
    endloop
  endfacet
  facet normal 0 1 0
    outer loop
      vertex 38.85 6 0
      vertex -20.4544 6 -6.00865
      vertex -20.95 6 -6
    endloop
  endfacet
  facet normal 0 1 0
    outer loop
      vertex 38.85 6 0
      vertex -19.9595 6 -6.03459
      vertex -20.4544 6 -6.00865
    endloop
  endfacet
  facet normal 0 1 0
    outer loop
      vertex 38.85 6 0
      vertex -19.4657 6 -6.07779
      vertex -19.9595 6 -6.03459
    endloop
  endfacet
  facet normal 0 1 0
    outer loop
      vertex 38.85 6 0
      vertex -18.9737 6 -6.1382
      vertex -19.4657 6 -6.07779
    endloop
  endfacet
  facet normal 0 1 0
    outer loop
      vertex 38.85 6 0
      vertex -18.4842 6 -6.21573
      vertex -18.9737 6 -6.1382
    endloop
  endfacet
  facet normal 0 1 0
    outer loop
      vertex 38.85 6 0
      vertex -17.9977 6 -6.31031
      vertex -18.4842 6 -6.21573
    endloop
  endfacet
  facet normal 0 1 0
    outer loop
      vertex 38.85 6 0
      vertex 31.9402 6 -16.1184
      vertex -17.9977 6 -6.31031
    endloop
  endfacet
  facet normal 0 1 0
    outer loop
      vertex 38.35 6 -6
      vertex 32.3237 6 -16.231
      vertex 31.9402 6 -16.1184
    endloop
  endfacet
  facet normal 0 1 0
    outer loop
      vertex 38.35 6 -6
      vertex 32.6947 6 -16.3796
      vertex 32.3237 6 -16.231
    endloop
  endfacet
  facet normal 0 1 0
    outer loop
      vertex 38.35 6 -6
      vertex 33.05 6 -16.5627
      vertex 32.6947 6 -16.3796
    endloop
  endfacet
  facet normal 0 1 0
    outer loop
      vertex 38.35 6 -6
      vertex 33.3862 6 -16.7788
      vertex 33.05 6 -16.5627
    endloop
  endfacet
  facet normal 0 1 0
    outer loop
      vertex 38.35 6 -6
      vertex 33.7004 6 -17.0259
      vertex 33.3862 6 -16.7788
    endloop
  endfacet
  facet normal 0 1 0
    outer loop
      vertex 38.35 6 -6
      vertex 33.9897 6 -17.3017
      vertex 33.7004 6 -17.0259
    endloop
  endfacet
  facet normal 0 1 0
    outer loop
      vertex 38.35 6 -6
      vertex 34.2514 6 -17.6037
      vertex 33.9897 6 -17.3017
    endloop
  endfacet
  facet normal 0 1 0
    outer loop
      vertex 38.35 6 -6
      vertex 34.4833 6 -17.9293
      vertex 34.2514 6 -17.6037
    endloop
  endfacet
  facet normal 0 1 0
    outer loop
      vertex 38.35 6 -6
      vertex 34.6831 6 -18.2755
      vertex 34.4833 6 -17.9293
    endloop
  endfacet
  facet normal 0 1 0
    outer loop
      vertex 38.35 6 -6
      vertex 34.8491 6 -18.639
      vertex 34.6831 6 -18.2755
    endloop
  endfacet
  facet normal 0 1 0
    outer loop
      vertex 38.35 6 -6
      vertex 34.9799 6 -19.0167
      vertex 34.8491 6 -18.639
    endloop
  endfacet
  facet normal 0 1 -0
    outer loop
      vertex 38.35 6 -25.2
      vertex 34.9799 6 -19.0167
      vertex 38.35 6 -6
    endloop
  endfacet
  facet normal 0 1 0
    outer loop
      vertex 34.9799 6 -19.0167
      vertex 38.35 6 -25.2
      vertex 35.0741 6 -19.4052
    endloop
  endfacet
  facet normal 0 1 0
    outer loop
      vertex 35.0741 6 -19.4052
      vertex 38.35 6 -25.2
      vertex 35.131 6 -19.8008
    endloop
  endfacet
  facet normal 0 1 0
    outer loop
      vertex 35.131 6 -19.8008
      vertex 38.35 6 -25.2
      vertex 35.15 6 -20.2
    endloop
  endfacet
  facet normal 0 1 0
    outer loop
      vertex 35.15 6 -20.2
      vertex 38.35 6 -25.2
      vertex 35.131 6 -20.5992
    endloop
  endfacet
  facet normal 0 1 0
    outer loop
      vertex 35.131 6 -20.5992
      vertex 38.35 6 -25.2
      vertex 35.0741 6 -20.9948
    endloop
  endfacet
  facet normal 0 1 0
    outer loop
      vertex 38.35 6 -25.2
      vertex 34.9799 6 -21.3833
      vertex 35.0741 6 -20.9948
    endloop
  endfacet
  facet normal 0 1 0
    outer loop
      vertex 38.35 6 -25.2
      vertex 34.8491 6 -21.761
      vertex 34.9799 6 -21.3833
    endloop
  endfacet
  facet normal 0 1 0
    outer loop
      vertex 38.35 6 -25.2
      vertex 34.6831 6 -22.1245
      vertex 34.8491 6 -21.761
    endloop
  endfacet
  facet normal 0 1 0
    outer loop
      vertex 38.35 6 -25.2
      vertex 34.4833 6 -22.4707
      vertex 34.6831 6 -22.1245
    endloop
  endfacet
  facet normal 0 1 0
    outer loop
      vertex 38.35 6 -25.2
      vertex 34.2514 6 -22.7963
      vertex 34.4833 6 -22.4707
    endloop
  endfacet
  facet normal 0 1 0
    outer loop
      vertex 38.35 6 -25.2
      vertex 33.9897 6 -23.0983
      vertex 34.2514 6 -22.7963
    endloop
  endfacet
  facet normal 0 1 0
    outer loop
      vertex 38.35 6 -25.2
      vertex 33.7004 6 -23.3741
      vertex 33.9897 6 -23.0983
    endloop
  endfacet
  facet normal 0 1 0
    outer loop
      vertex 38.35 6 -25.2
      vertex 33.3862 6 -23.6212
      vertex 33.7004 6 -23.3741
    endloop
  endfacet
  facet normal 0 1 0
    outer loop
      vertex 38.35 6 -25.2
      vertex 33.05 6 -23.8373
      vertex 33.3862 6 -23.6212
    endloop
  endfacet
  facet normal 0 1 0
    outer loop
      vertex 38.35 6 -25.2
      vertex 32.6947 6 -24.0205
      vertex 33.05 6 -23.8373
    endloop
  endfacet
  facet normal 0 1 0
    outer loop
      vertex 38.35 6 -25.2
      vertex 32.3237 6 -24.169
      vertex 32.6947 6 -24.0205
    endloop
  endfacet
  facet normal 0 1 0
    outer loop
      vertex 38.35 6 -25.2
      vertex 31.9402 6 -24.2816
      vertex 32.3237 6 -24.169
    endloop
  endfacet
  facet normal 0 1 0
    outer loop
      vertex 31.9402 6 -24.2816
      vertex 38.35 6 -25.2
      vertex 27.2642 6 -25.2
    endloop
  endfacet
  facet normal 0 1 0
    outer loop
      vertex 38.35 6 -6
      vertex 38.85 6 0
      vertex 38.85 6 -6
    endloop
  endfacet
  facet normal 0 1 0
    outer loop
      vertex 31.9402 6 -16.1184
      vertex 38.85 6 0
      vertex 38.35 6 -6
    endloop
  endfacet
  facet normal 0 1 0
    outer loop
      vertex 38.85 6 0
      vertex -20.95 6 -6
      vertex -38.85 6 0
    endloop
  endfacet
  facet normal 0 1 0
    outer loop
      vertex -38.85 6 0
      vertex -38.35 6 -6
      vertex -38.85 6 -6
    endloop
  endfacet
  facet normal 0 1 -0
    outer loop
      vertex -21.9405 6 -6.03459
      vertex -38.85 6 0
      vertex -21.4456 6 -6.00865
    endloop
  endfacet
  facet normal 0 1 -0
    outer loop
      vertex -22.4343 6 -6.07779
      vertex -38.85 6 0
      vertex -21.9405 6 -6.03459
    endloop
  endfacet
  facet normal 0 1 -0
    outer loop
      vertex -22.9263 6 -6.1382
      vertex -38.85 6 0
      vertex -22.4343 6 -6.07779
    endloop
  endfacet
  facet normal 0 1 -0
    outer loop
      vertex -23.4158 6 -6.21573
      vertex -38.85 6 0
      vertex -22.9263 6 -6.1382
    endloop
  endfacet
  facet normal 0 1 -0
    outer loop
      vertex -23.9023 6 -6.31031
      vertex -38.85 6 0
      vertex -23.4158 6 -6.21573
    endloop
  endfacet
  facet normal 0 1 -0
    outer loop
      vertex -24.3853 6 -6.4218
      vertex -38.85 6 0
      vertex -23.9023 6 -6.31031
    endloop
  endfacet
  facet normal 0 1 -0
    outer loop
      vertex -24.864 6 -6.5501
      vertex -38.85 6 0
      vertex -24.3853 6 -6.4218
    endloop
  endfacet
  facet normal 0 1 -0
    outer loop
      vertex -25.338 6 -6.69501
      vertex -38.85 6 0
      vertex -24.864 6 -6.5501
    endloop
  endfacet
  facet normal 0 1 -0
    outer loop
      vertex -25.8067 6 -6.85637
      vertex -38.85 6 0
      vertex -25.338 6 -6.69501
    endloop
  endfacet
  facet normal 0 1 -0
    outer loop
      vertex -26.2694 6 -7.034
      vertex -38.85 6 0
      vertex -25.8067 6 -6.85637
    endloop
  endfacet
  facet normal 0 1 -0
    outer loop
      vertex -26.7256 6 -7.22766
      vertex -38.85 6 0
      vertex -26.2694 6 -7.034
    endloop
  endfacet
  facet normal 0 1 -0
    outer loop
      vertex -27.1749 6 -7.43714
      vertex -38.85 6 0
      vertex -26.7256 6 -7.22766
    endloop
  endfacet
  facet normal 0 1 -0
    outer loop
      vertex -27.6165 6 -7.66216
      vertex -38.85 6 0
      vertex -27.1749 6 -7.43714
    endloop
  endfacet
  facet normal 0 1 -0
    outer loop
      vertex -28.05 6 -7.90245
      vertex -38.85 6 0
      vertex -27.6165 6 -7.66216
    endloop
  endfacet
  facet normal 0 1 -0
    outer loop
      vertex -28.4749 6 -8.15772
      vertex -38.85 6 0
      vertex -28.05 6 -7.90245
    endloop
  endfacet
  facet normal 0 1 0
    outer loop
      vertex -38.85 6 0
      vertex -28.4749 6 -8.15772
      vertex -38.35 6 -6
    endloop
  endfacet
  facet normal 0 1 -0
    outer loop
      vertex -28.8905 6 -8.42768
      vertex -38.35 6 -6
      vertex -28.4749 6 -8.15772
    endloop
  endfacet
  facet normal 0 1 -0
    outer loop
      vertex -29.2965 6 -8.71196
      vertex -38.35 6 -6
      vertex -28.8905 6 -8.42768
    endloop
  endfacet
  facet normal 0 1 -0
    outer loop
      vertex -29.6924 6 -9.01026
      vertex -38.35 6 -6
      vertex -29.2965 6 -8.71196
    endloop
  endfacet
  facet normal 0 1 -0
    outer loop
      vertex -30.0776 6 -9.32218
      vertex -38.35 6 -6
      vertex -29.6924 6 -9.01026
    endloop
  endfacet
  facet normal 0 1 -0
    outer loop
      vertex -30.4516 6 -9.64736
      vertex -38.35 6 -6
      vertex -30.0776 6 -9.32218
    endloop
  endfacet
  facet normal 0 1 -0
    outer loop
      vertex -30.8141 6 -9.98538
      vertex -38.35 6 -6
      vertex -30.4516 6 -9.64736
    endloop
  endfacet
  facet normal 0 1 -0
    outer loop
      vertex -31.1646 6 -10.3359
      vertex -38.35 6 -6
      vertex -30.8141 6 -9.98538
    endloop
  endfacet
  facet normal 0 1 -0
    outer loop
      vertex -31.5027 6 -10.6984
      vertex -38.35 6 -6
      vertex -31.1646 6 -10.3359
    endloop
  endfacet
  facet normal 0 1 -0
    outer loop
      vertex -31.8278 6 -11.0724
      vertex -38.35 6 -6
      vertex -31.5027 6 -10.6984
    endloop
  endfacet
  facet normal 0 1 -0
    outer loop
      vertex -32.1397 6 -11.4576
      vertex -38.35 6 -6
      vertex -31.8278 6 -11.0724
    endloop
  endfacet
  facet normal 0 1 -0
    outer loop
      vertex -32.438 6 -11.8535
      vertex -38.35 6 -6
      vertex -32.1397 6 -11.4576
    endloop
  endfacet
  facet normal 0 1 -0
    outer loop
      vertex -32.7223 6 -12.2595
      vertex -38.35 6 -6
      vertex -32.438 6 -11.8535
    endloop
  endfacet
  facet normal 0 1 -0
    outer loop
      vertex -32.9923 6 -12.6752
      vertex -38.35 6 -6
      vertex -32.7223 6 -12.2595
    endloop
  endfacet
  facet normal 0 1 -0
    outer loop
      vertex -33.2476 6 -13.1
      vertex -38.35 6 -6
      vertex -32.9923 6 -12.6752
    endloop
  endfacet
  facet normal 0 1 -0
    outer loop
      vertex -33.4879 6 -13.5335
      vertex -38.35 6 -6
      vertex -33.2476 6 -13.1
    endloop
  endfacet
  facet normal 0 1 -0
    outer loop
      vertex -33.7129 6 -13.9751
      vertex -38.35 6 -6
      vertex -33.4879 6 -13.5335
    endloop
  endfacet
  facet normal 0 1 -0
    outer loop
      vertex -33.9223 6 -14.4243
      vertex -38.35 6 -6
      vertex -33.7129 6 -13.9751
    endloop
  endfacet
  facet normal 0 1 -0
    outer loop
      vertex -34.116 6 -14.8806
      vertex -38.35 6 -6
      vertex -33.9223 6 -14.4243
    endloop
  endfacet
  facet normal 0 1 -0
    outer loop
      vertex -34.2936 6 -15.3433
      vertex -38.35 6 -6
      vertex -34.116 6 -14.8806
    endloop
  endfacet
  facet normal 0 1 -0
    outer loop
      vertex -34.455 6 -15.812
      vertex -38.35 6 -6
      vertex -34.2936 6 -15.3433
    endloop
  endfacet
  facet normal 0 1 -0
    outer loop
      vertex -34.5999 6 -16.286
      vertex -38.35 6 -6
      vertex -34.455 6 -15.812
    endloop
  endfacet
  facet normal 0 1 -0
    outer loop
      vertex -34.7282 6 -16.7647
      vertex -38.35 6 -6
      vertex -34.5999 6 -16.286
    endloop
  endfacet
  facet normal 0 1 -0
    outer loop
      vertex -34.8397 6 -17.2477
      vertex -38.35 6 -6
      vertex -34.7282 6 -16.7647
    endloop
  endfacet
  facet normal 0 1 -0
    outer loop
      vertex -34.9343 6 -17.7342
      vertex -38.35 6 -6
      vertex -34.8397 6 -17.2477
    endloop
  endfacet
  facet normal 0 1 -0
    outer loop
      vertex -35.0118 6 -18.2237
      vertex -38.35 6 -6
      vertex -34.9343 6 -17.7342
    endloop
  endfacet
  facet normal 0 1 0
    outer loop
      vertex -38.35 6 -25.2
      vertex -35.0118 6 -18.2237
      vertex -35.0722 6 -18.7157
    endloop
  endfacet
  facet normal 0 1 0
    outer loop
      vertex -38.35 6 -25.2
      vertex -35.0722 6 -18.7157
      vertex -35.1154 6 -19.2095
    endloop
  endfacet
  facet normal 0 1 0
    outer loop
      vertex -38.35 6 -25.2
      vertex -35.1154 6 -19.2095
      vertex -35.1413 6 -19.7044
    endloop
  endfacet
  facet normal 0 1 0
    outer loop
      vertex -38.35 6 -25.2
      vertex -35.1413 6 -19.7044
      vertex -35.15 6 -20.2
    endloop
  endfacet
  facet normal 0 1 0
    outer loop
      vertex -38.35 6 -25.2
      vertex -35.15 6 -20.2
      vertex -35.1413 6 -20.6956
    endloop
  endfacet
  facet normal 0 1 0
    outer loop
      vertex -38.35 6 -25.2
      vertex -35.1413 6 -20.6956
      vertex -35.1154 6 -21.1905
    endloop
  endfacet
  facet normal 0 1 0
    outer loop
      vertex -38.35 6 -25.2
      vertex -35.1154 6 -21.1905
      vertex -35.0722 6 -21.6843
    endloop
  endfacet
  facet normal 0 1 0
    outer loop
      vertex -38.35 6 -25.2
      vertex -35.0722 6 -21.6843
      vertex -35.0118 6 -22.1763
    endloop
  endfacet
  facet normal 0 1 0
    outer loop
      vertex -38.35 6 -25.2
      vertex -35.0118 6 -22.1763
      vertex -34.9343 6 -22.6658
    endloop
  endfacet
  facet normal 0 1 0
    outer loop
      vertex -38.35 6 -25.2
      vertex -34.9343 6 -22.6658
      vertex -34.8397 6 -23.1523
    endloop
  endfacet
  facet normal 0 1 0
    outer loop
      vertex -35.0118 6 -18.2237
      vertex -38.35 6 -25.2
      vertex -38.35 6 -6
    endloop
  endfacet
  facet normal 0 1 0
    outer loop
      vertex -34.7282 6 -23.6353
      vertex -38.35 6 -25.2
      vertex -34.8397 6 -23.1523
    endloop
  endfacet
  facet normal 0 1 0
    outer loop
      vertex -34.5999 6 -24.114
      vertex -38.35 6 -25.2
      vertex -34.7282 6 -23.6353
    endloop
  endfacet
  facet normal 0 1 0
    outer loop
      vertex -34.455 6 -24.588
      vertex -38.35 6 -25.2
      vertex -34.5999 6 -24.114
    endloop
  endfacet
  facet normal 0 1 0
    outer loop
      vertex -34.2936 6 -25.0567
      vertex -38.35 6 -25.2
      vertex -34.455 6 -24.588
    endloop
  endfacet
  facet normal 0 1 0
    outer loop
      vertex -38.35 6 -25.2
      vertex -34.2936 6 -25.0567
      vertex -34.2386 6 -25.2
    endloop
  endfacet
  facet normal 0 -1 0
    outer loop
      vertex -19.9595 -6 -6.03459
      vertex -38.85 -6 0
      vertex -20.4544 -6 -6.00865
    endloop
  endfacet
  facet normal 0 -1 0
    outer loop
      vertex -38.85 -6 0
      vertex -21.4456 -6 -6.00865
      vertex -20.95 -6 -6
    endloop
  endfacet
  facet normal 0 -1 0
    outer loop
      vertex -38.85 -6 0
      vertex -21.9405 -6 -6.03459
      vertex -21.4456 -6 -6.00865
    endloop
  endfacet
  facet normal 0 -1 0
    outer loop
      vertex -38.85 -6 0
      vertex -22.4343 -6 -6.07779
      vertex -21.9405 -6 -6.03459
    endloop
  endfacet
  facet normal 0 -1 0
    outer loop
      vertex -38.85 -6 0
      vertex -22.9263 -6 -6.1382
      vertex -22.4343 -6 -6.07779
    endloop
  endfacet
  facet normal 0 -1 0
    outer loop
      vertex -38.85 -6 0
      vertex -23.4158 -6 -6.21573
      vertex -22.9263 -6 -6.1382
    endloop
  endfacet
  facet normal 0 -1 0
    outer loop
      vertex -38.85 -6 0
      vertex -23.9023 -6 -6.31031
      vertex -23.4158 -6 -6.21573
    endloop
  endfacet
  facet normal 0 -1 0
    outer loop
      vertex -38.85 -6 0
      vertex -24.3853 -6 -6.4218
      vertex -23.9023 -6 -6.31031
    endloop
  endfacet
  facet normal 0 -1 0
    outer loop
      vertex -38.85 -6 0
      vertex -24.864 -6 -6.5501
      vertex -24.3853 -6 -6.4218
    endloop
  endfacet
  facet normal 0 -1 0
    outer loop
      vertex -38.85 -6 0
      vertex -25.338 -6 -6.69501
      vertex -24.864 -6 -6.5501
    endloop
  endfacet
  facet normal 0 -1 0
    outer loop
      vertex -38.85 -6 0
      vertex -25.8067 -6 -6.85637
      vertex -25.338 -6 -6.69501
    endloop
  endfacet
  facet normal 0 -1 0
    outer loop
      vertex -38.85 -6 0
      vertex -26.2694 -6 -7.034
      vertex -25.8067 -6 -6.85637
    endloop
  endfacet
  facet normal 0 -1 0
    outer loop
      vertex -38.85 -6 0
      vertex -26.7256 -6 -7.22766
      vertex -26.2694 -6 -7.034
    endloop
  endfacet
  facet normal 0 -1 0
    outer loop
      vertex -38.85 -6 0
      vertex -27.1749 -6 -7.43714
      vertex -26.7256 -6 -7.22766
    endloop
  endfacet
  facet normal 0 -1 0
    outer loop
      vertex -38.85 -6 0
      vertex -27.6165 -6 -7.66216
      vertex -27.1749 -6 -7.43714
    endloop
  endfacet
  facet normal 0 -1 0
    outer loop
      vertex -38.85 -6 0
      vertex -28.05 -6 -7.90245
      vertex -27.6165 -6 -7.66216
    endloop
  endfacet
  facet normal 0 -1 0
    outer loop
      vertex -38.85 -6 0
      vertex -28.4749 -6 -8.15772
      vertex -28.05 -6 -7.90245
    endloop
  endfacet
  facet normal 0 -1 0
    outer loop
      vertex -38.35 -6 -6
      vertex -28.8905 -6 -8.42768
      vertex -28.4749 -6 -8.15772
    endloop
  endfacet
  facet normal 0 -1 0
    outer loop
      vertex -38.35 -6 -6
      vertex -29.2965 -6 -8.71196
      vertex -28.8905 -6 -8.42768
    endloop
  endfacet
  facet normal 0 -1 0
    outer loop
      vertex -38.35 -6 -6
      vertex -29.6924 -6 -9.01026
      vertex -29.2965 -6 -8.71196
    endloop
  endfacet
  facet normal 0 -1 0
    outer loop
      vertex -38.35 -6 -6
      vertex -30.0776 -6 -9.32218
      vertex -29.6924 -6 -9.01026
    endloop
  endfacet
  facet normal 0 -1 0
    outer loop
      vertex -38.35 -6 -6
      vertex -30.4516 -6 -9.64736
      vertex -30.0776 -6 -9.32218
    endloop
  endfacet
  facet normal 0 -1 0
    outer loop
      vertex -38.35 -6 -6
      vertex -30.8141 -6 -9.98538
      vertex -30.4516 -6 -9.64736
    endloop
  endfacet
  facet normal 0 -1 0
    outer loop
      vertex -38.35 -6 -6
      vertex -31.1646 -6 -10.3359
      vertex -30.8141 -6 -9.98538
    endloop
  endfacet
  facet normal 0 -1 0
    outer loop
      vertex -38.35 -6 -6
      vertex -31.5027 -6 -10.6984
      vertex -31.1646 -6 -10.3359
    endloop
  endfacet
  facet normal 0 -1 0
    outer loop
      vertex -38.35 -6 -6
      vertex -31.8278 -6 -11.0724
      vertex -31.5027 -6 -10.6984
    endloop
  endfacet
  facet normal 0 -1 0
    outer loop
      vertex -38.35 -6 -6
      vertex -32.1397 -6 -11.4576
      vertex -31.8278 -6 -11.0724
    endloop
  endfacet
  facet normal 0 -1 0
    outer loop
      vertex -38.35 -6 -6
      vertex -32.438 -6 -11.8535
      vertex -32.1397 -6 -11.4576
    endloop
  endfacet
  facet normal 0 -1 0
    outer loop
      vertex -38.35 -6 -6
      vertex -32.7223 -6 -12.2595
      vertex -32.438 -6 -11.8535
    endloop
  endfacet
  facet normal 0 -1 0
    outer loop
      vertex -38.35 -6 -6
      vertex -32.9923 -6 -12.6752
      vertex -32.7223 -6 -12.2595
    endloop
  endfacet
  facet normal 0 -1 0
    outer loop
      vertex -38.35 -6 -6
      vertex -33.2476 -6 -13.1
      vertex -32.9923 -6 -12.6752
    endloop
  endfacet
  facet normal 0 -1 0
    outer loop
      vertex -38.35 -6 -6
      vertex -33.4879 -6 -13.5335
      vertex -33.2476 -6 -13.1
    endloop
  endfacet
  facet normal 0 -1 0
    outer loop
      vertex -38.35 -6 -6
      vertex -33.7129 -6 -13.9751
      vertex -33.4879 -6 -13.5335
    endloop
  endfacet
  facet normal 0 -1 0
    outer loop
      vertex -38.35 -6 -6
      vertex -33.9223 -6 -14.4243
      vertex -33.7129 -6 -13.9751
    endloop
  endfacet
  facet normal 0 -1 0
    outer loop
      vertex -38.35 -6 -6
      vertex -34.116 -6 -14.8806
      vertex -33.9223 -6 -14.4243
    endloop
  endfacet
  facet normal 0 -1 0
    outer loop
      vertex -38.35 -6 -6
      vertex -34.2936 -6 -15.3433
      vertex -34.116 -6 -14.8806
    endloop
  endfacet
  facet normal 0 -1 0
    outer loop
      vertex -38.35 -6 -6
      vertex -34.455 -6 -15.812
      vertex -34.2936 -6 -15.3433
    endloop
  endfacet
  facet normal 0 -1 0
    outer loop
      vertex -38.35 -6 -6
      vertex -34.5999 -6 -16.286
      vertex -34.455 -6 -15.812
    endloop
  endfacet
  facet normal 0 -1 0
    outer loop
      vertex -38.35 -6 -6
      vertex -34.7282 -6 -16.7647
      vertex -34.5999 -6 -16.286
    endloop
  endfacet
  facet normal 0 -1 0
    outer loop
      vertex -38.35 -6 -6
      vertex -34.8397 -6 -17.2477
      vertex -34.7282 -6 -16.7647
    endloop
  endfacet
  facet normal 0 -1 0
    outer loop
      vertex -38.35 -6 -6
      vertex -34.9343 -6 -17.7342
      vertex -34.8397 -6 -17.2477
    endloop
  endfacet
  facet normal 0 -1 0
    outer loop
      vertex -38.35 -6 -6
      vertex -35.0118 -6 -18.2237
      vertex -34.9343 -6 -17.7342
    endloop
  endfacet
  facet normal 0 -1 0
    outer loop
      vertex -38.35 -6 -25.2
      vertex -35.0118 -6 -18.2237
      vertex -38.35 -6 -6
    endloop
  endfacet
  facet normal 0 -1 0
    outer loop
      vertex -35.0118 -6 -18.2237
      vertex -38.35 -6 -25.2
      vertex -35.0722 -6 -18.7157
    endloop
  endfacet
  facet normal 0 -1 0
    outer loop
      vertex -35.0722 -6 -18.7157
      vertex -38.35 -6 -25.2
      vertex -35.1154 -6 -19.2095
    endloop
  endfacet
  facet normal 0 -1 0
    outer loop
      vertex -35.1154 -6 -19.2095
      vertex -38.35 -6 -25.2
      vertex -35.1413 -6 -19.7044
    endloop
  endfacet
  facet normal 0 -1 0
    outer loop
      vertex -35.1413 -6 -19.7044
      vertex -38.35 -6 -25.2
      vertex -35.15 -6 -20.2
    endloop
  endfacet
  facet normal 0 -1 -0
    outer loop
      vertex -35.15 -6 -20.2
      vertex -38.35 -6 -25.2
      vertex -35.1413 -6 -20.6956
    endloop
  endfacet
  facet normal 0 -1 -0
    outer loop
      vertex -35.1413 -6 -20.6956
      vertex -38.35 -6 -25.2
      vertex -35.1154 -6 -21.1905
    endloop
  endfacet
  facet normal 0 -1 -0
    outer loop
      vertex -35.1154 -6 -21.1905
      vertex -38.35 -6 -25.2
      vertex -35.0722 -6 -21.6843
    endloop
  endfacet
  facet normal 0 -1 -0
    outer loop
      vertex -35.0722 -6 -21.6843
      vertex -38.35 -6 -25.2
      vertex -35.0118 -6 -22.1763
    endloop
  endfacet
  facet normal 0 -1 -0
    outer loop
      vertex -35.0118 -6 -22.1763
      vertex -38.35 -6 -25.2
      vertex -34.9343 -6 -22.6658
    endloop
  endfacet
  facet normal 0 -1 -0
    outer loop
      vertex -34.9343 -6 -22.6658
      vertex -38.35 -6 -25.2
      vertex -34.8397 -6 -23.1523
    endloop
  endfacet
  facet normal 0 -1 0
    outer loop
      vertex -38.35 -6 -25.2
      vertex -34.7282 -6 -23.6353
      vertex -34.8397 -6 -23.1523
    endloop
  endfacet
  facet normal 0 -1 0
    outer loop
      vertex -38.35 -6 -25.2
      vertex -34.5999 -6 -24.114
      vertex -34.7282 -6 -23.6353
    endloop
  endfacet
  facet normal 0 -1 0
    outer loop
      vertex -38.35 -6 -25.2
      vertex -34.455 -6 -24.588
      vertex -34.5999 -6 -24.114
    endloop
  endfacet
  facet normal 0 -1 0
    outer loop
      vertex -38.35 -6 -25.2
      vertex -34.2936 -6 -25.0567
      vertex -34.455 -6 -24.588
    endloop
  endfacet
  facet normal 0 -1 -0
    outer loop
      vertex -34.2936 -6 -25.0567
      vertex -38.35 -6 -25.2
      vertex -34.2386 -6 -25.2
    endloop
  endfacet
  facet normal 0 -1 0
    outer loop
      vertex -38.35 -6 -6
      vertex -38.85 -6 0
      vertex -38.85 -6 -6
    endloop
  endfacet
  facet normal 0 -1 0
    outer loop
      vertex -28.4749 -6 -8.15772
      vertex -38.85 -6 0
      vertex -38.35 -6 -6
    endloop
  endfacet
  facet normal 0 -1 0
    outer loop
      vertex -20.4544 -6 -6.00865
      vertex -38.85 -6 0
      vertex -20.95 -6 -6
    endloop
  endfacet
  facet normal 0 -1 -0
    outer loop
      vertex 38.85 -6 0
      vertex 38.35 -6 -6
      vertex 38.85 -6 -6
    endloop
  endfacet
  facet normal 0 -1 0
    outer loop
      vertex -19.4657 -6 -6.07779
      vertex -38.85 -6 0
      vertex -19.9595 -6 -6.03459
    endloop
  endfacet
  facet normal 0 -1 0
    outer loop
      vertex -18.9737 -6 -6.1382
      vertex -38.85 -6 0
      vertex -19.4657 -6 -6.07779
    endloop
  endfacet
  facet normal 0 -1 0
    outer loop
      vertex -18.4842 -6 -6.21573
      vertex -38.85 -6 0
      vertex -18.9737 -6 -6.1382
    endloop
  endfacet
  facet normal 0 -1 0
    outer loop
      vertex -38.85 -6 0
      vertex -18.4842 -6 -6.21573
      vertex 38.85 -6 0
    endloop
  endfacet
  facet normal 0 -1 0
    outer loop
      vertex -17.9977 -6 -6.31031
      vertex 38.85 -6 0
      vertex -18.4842 -6 -6.21573
    endloop
  endfacet
  facet normal 0 -1 0
    outer loop
      vertex 31.9402 -6 -16.1184
      vertex 38.85 -6 0
      vertex -17.9977 -6 -6.31031
    endloop
  endfacet
  facet normal 0 -1 0
    outer loop
      vertex 38.85 -6 0
      vertex 31.9402 -6 -16.1184
      vertex 38.35 -6 -6
    endloop
  endfacet
  facet normal 0 -1 0
    outer loop
      vertex 32.3237 -6 -16.231
      vertex 38.35 -6 -6
      vertex 31.9402 -6 -16.1184
    endloop
  endfacet
  facet normal 0 -1 0
    outer loop
      vertex 32.6947 -6 -16.3796
      vertex 38.35 -6 -6
      vertex 32.3237 -6 -16.231
    endloop
  endfacet
  facet normal 0 -1 0
    outer loop
      vertex 33.05 -6 -16.5627
      vertex 38.35 -6 -6
      vertex 32.6947 -6 -16.3796
    endloop
  endfacet
  facet normal 0 -1 0
    outer loop
      vertex 33.3862 -6 -16.7788
      vertex 38.35 -6 -6
      vertex 33.05 -6 -16.5627
    endloop
  endfacet
  facet normal 0 -1 0
    outer loop
      vertex 33.7004 -6 -17.0259
      vertex 38.35 -6 -6
      vertex 33.3862 -6 -16.7788
    endloop
  endfacet
  facet normal 0 -1 0
    outer loop
      vertex 33.9897 -6 -17.3017
      vertex 38.35 -6 -6
      vertex 33.7004 -6 -17.0259
    endloop
  endfacet
  facet normal 0 -1 0
    outer loop
      vertex 34.2514 -6 -17.6037
      vertex 38.35 -6 -6
      vertex 33.9897 -6 -17.3017
    endloop
  endfacet
  facet normal 0 -1 0
    outer loop
      vertex 34.4833 -6 -17.9293
      vertex 38.35 -6 -6
      vertex 34.2514 -6 -17.6037
    endloop
  endfacet
  facet normal 0 -1 0
    outer loop
      vertex 34.6831 -6 -18.2755
      vertex 38.35 -6 -6
      vertex 34.4833 -6 -17.9293
    endloop
  endfacet
  facet normal 0 -1 0
    outer loop
      vertex 34.8491 -6 -18.639
      vertex 38.35 -6 -6
      vertex 34.6831 -6 -18.2755
    endloop
  endfacet
  facet normal 0 -1 0
    outer loop
      vertex 34.9799 -6 -19.0167
      vertex 38.35 -6 -6
      vertex 34.8491 -6 -18.639
    endloop
  endfacet
  facet normal 0 -1 0
    outer loop
      vertex 38.35 -6 -25.2
      vertex 34.9799 -6 -19.0167
      vertex 35.0741 -6 -19.4052
    endloop
  endfacet
  facet normal 0 -1 0
    outer loop
      vertex 38.35 -6 -25.2
      vertex 35.0741 -6 -19.4052
      vertex 35.131 -6 -19.8008
    endloop
  endfacet
  facet normal 0 -1 0
    outer loop
      vertex 38.35 -6 -25.2
      vertex 35.131 -6 -19.8008
      vertex 35.15 -6 -20.2
    endloop
  endfacet
  facet normal 0 -1 0
    outer loop
      vertex 38.35 -6 -25.2
      vertex 35.15 -6 -20.2
      vertex 35.131 -6 -20.5992
    endloop
  endfacet
  facet normal 0 -1 0
    outer loop
      vertex 38.35 -6 -25.2
      vertex 35.131 -6 -20.5992
      vertex 35.0741 -6 -20.9948
    endloop
  endfacet
  facet normal 0 -1 0
    outer loop
      vertex 34.9799 -6 -19.0167
      vertex 38.35 -6 -25.2
      vertex 38.35 -6 -6
    endloop
  endfacet
  facet normal 0 -1 0
    outer loop
      vertex 34.9799 -6 -21.3833
      vertex 38.35 -6 -25.2
      vertex 35.0741 -6 -20.9948
    endloop
  endfacet
  facet normal 0 -1 0
    outer loop
      vertex 34.8491 -6 -21.761
      vertex 38.35 -6 -25.2
      vertex 34.9799 -6 -21.3833
    endloop
  endfacet
  facet normal 0 -1 0
    outer loop
      vertex 34.6831 -6 -22.1245
      vertex 38.35 -6 -25.2
      vertex 34.8491 -6 -21.761
    endloop
  endfacet
  facet normal 0 -1 0
    outer loop
      vertex 34.4833 -6 -22.4707
      vertex 38.35 -6 -25.2
      vertex 34.6831 -6 -22.1245
    endloop
  endfacet
  facet normal 0 -1 0
    outer loop
      vertex 34.2514 -6 -22.7963
      vertex 38.35 -6 -25.2
      vertex 34.4833 -6 -22.4707
    endloop
  endfacet
  facet normal 0 -1 0
    outer loop
      vertex 33.9897 -6 -23.0983
      vertex 38.35 -6 -25.2
      vertex 34.2514 -6 -22.7963
    endloop
  endfacet
  facet normal 0 -1 0
    outer loop
      vertex 33.7004 -6 -23.3741
      vertex 38.35 -6 -25.2
      vertex 33.9897 -6 -23.0983
    endloop
  endfacet
  facet normal 0 -1 0
    outer loop
      vertex 33.3862 -6 -23.6212
      vertex 38.35 -6 -25.2
      vertex 33.7004 -6 -23.3741
    endloop
  endfacet
  facet normal 0 -1 0
    outer loop
      vertex 33.05 -6 -23.8373
      vertex 38.35 -6 -25.2
      vertex 33.3862 -6 -23.6212
    endloop
  endfacet
  facet normal 0 -1 0
    outer loop
      vertex 32.6947 -6 -24.0205
      vertex 38.35 -6 -25.2
      vertex 33.05 -6 -23.8373
    endloop
  endfacet
  facet normal 0 -1 0
    outer loop
      vertex 32.3237 -6 -24.169
      vertex 38.35 -6 -25.2
      vertex 32.6947 -6 -24.0205
    endloop
  endfacet
  facet normal 0 -1 0
    outer loop
      vertex 31.9402 -6 -24.2816
      vertex 38.35 -6 -25.2
      vertex 32.3237 -6 -24.169
    endloop
  endfacet
  facet normal 0 -1 0
    outer loop
      vertex 38.35 -6 -25.2
      vertex 31.9402 -6 -24.2816
      vertex 27.2642 -6 -25.2
    endloop
  endfacet
endsolid OpenSCAD_Model
