solid OpenSCAD_Model
  facet normal -1 0 0
    outer loop
      vertex -37.9 -19.25 -40.6
      vertex -37.9 -22.25 -40.6
      vertex -37.9 -19.25 -37.6
    endloop
  endfacet
  facet normal -1 0 0
    outer loop
      vertex -37.9 19.25 -37.6
      vertex -37.9 22.25 -40.6
      vertex -37.9 19.25 -40.6
    endloop
  endfacet
  facet normal -1 0 0
    outer loop
      vertex -37.9 22.25 -40.6
      vertex -37.9 19.25 -37.6
      vertex -37.9 22.25 -30.6
    endloop
  endfacet
  facet normal -1 0 0
    outer loop
      vertex -37.9 -19.25 -37.6
      vertex -37.9 22.25 -30.6
      vertex -37.9 19.25 -37.6
    endloop
  endfacet
  facet normal -1 0 0
    outer loop
      vertex -37.9 -19.25 -37.6
      vertex -37.9 -22.25 -30.6
      vertex -37.9 22.25 -30.6
    endloop
  endfacet
  facet normal -1 0 0
    outer loop
      vertex -37.9 -22.25 -30.6
      vertex -37.9 -19.25 -37.6
      vertex -37.9 -22.25 -40.6
    endloop
  endfacet
  facet normal -0 0 1
    outer loop
      vertex -37.9 22.25 -30.6
      vertex -26.2804 -22.25 -30.6
      vertex -26.2804 22.25 -30.6
    endloop
  endfacet
  facet normal 0 0 1
    outer loop
      vertex -26.2804 -22.25 -30.6
      vertex -37.9 22.25 -30.6
      vertex -37.9 -22.25 -30.6
    endloop
  endfacet
  facet normal 0 0 1
    outer loop
      vertex 17.9237 22.25 -30.6
      vertex 37.65 0 -30.6
      vertex 37.6006 2.82904 -30.6
    endloop
  endfacet
  facet normal 0 0 1
    outer loop
      vertex 17.9237 22.25 -30.6
      vertex 37.6006 2.82904 -30.6
      vertex 37.4525 5.65463 -30.6
    endloop
  endfacet
  facet normal 0 0 1
    outer loop
      vertex 17.9237 -22.25 -30.6
      vertex 37.65 0 -30.6
      vertex 17.9237 22.25 -30.6
    endloop
  endfacet
  facet normal 0 0 1
    outer loop
      vertex 17.9237 22.25 -30.6
      vertex 37.4525 5.65463 -30.6
      vertex 37.2059 8.47334 -30.6
    endloop
  endfacet
  facet normal 0 0 1
    outer loop
      vertex 37.65 0 -30.6
      vertex 17.9237 -22.25 -30.6
      vertex 37.6006 -2.82904 -30.6
    endloop
  endfacet
  facet normal 0 0 1
    outer loop
      vertex 17.9237 22.25 -30.6
      vertex 37.2059 8.47334 -30.6
      vertex 36.8611 11.2817 -30.6
    endloop
  endfacet
  facet normal 0 0 1
    outer loop
      vertex 37.6006 -2.82904 -30.6
      vertex 17.9237 -22.25 -30.6
      vertex 37.4525 -5.65463 -30.6
    endloop
  endfacet
  facet normal 0 0 1
    outer loop
      vertex 17.9237 22.25 -30.6
      vertex 36.8611 11.2817 -30.6
      vertex 36.4185 14.0764 -30.6
    endloop
  endfacet
  facet normal 0 0 1
    outer loop
      vertex 37.4525 -5.65463 -30.6
      vertex 17.9237 -22.25 -30.6
      vertex 37.2059 -8.47334 -30.6
    endloop
  endfacet
  facet normal 0 0 1
    outer loop
      vertex 17.9237 22.25 -30.6
      vertex 36.4185 14.0764 -30.6
      vertex 35.8786 16.8538 -30.6
    endloop
  endfacet
  facet normal 0 0 1
    outer loop
      vertex 37.2059 -8.47334 -30.6
      vertex 17.9237 -22.25 -30.6
      vertex 36.8611 -11.2817 -30.6
    endloop
  endfacet
  facet normal 0 0 1
    outer loop
      vertex 17.9237 22.25 -30.6
      vertex 35.8786 16.8538 -30.6
      vertex 35.2421 19.6108 -30.6
    endloop
  endfacet
  facet normal 0 0 1
    outer loop
      vertex 36.8611 -11.2817 -30.6
      vertex 17.9237 -22.25 -30.6
      vertex 36.4185 -14.0764 -30.6
    endloop
  endfacet
  facet normal -0 0 1
    outer loop
      vertex 17.9237 22.25 -30.6
      vertex 35.2421 19.6108 -30.6
      vertex 34.5349 22.25 -30.6
    endloop
  endfacet
  facet normal 0 0 1
    outer loop
      vertex 36.4185 -14.0764 -30.6
      vertex 17.9237 -22.25 -30.6
      vertex 35.8786 -16.8538 -30.6
    endloop
  endfacet
  facet normal 0 0 1
    outer loop
      vertex 35.8786 -16.8538 -30.6
      vertex 17.9237 -22.25 -30.6
      vertex 35.2421 -19.6108 -30.6
    endloop
  endfacet
  facet normal 0 0 1
    outer loop
      vertex 35.2421 -19.6108 -30.6
      vertex 17.9237 -22.25 -30.6
      vertex 34.5349 -22.25 -30.6
    endloop
  endfacet
  facet normal 0 1 -0
    outer loop
      vertex 34.5349 22.25 -40.6
      vertex 17.9237 22.25 -30.6
      vertex 34.5349 22.25 -30.6
    endloop
  endfacet
  facet normal 0 1 0
    outer loop
      vertex 17.9237 22.25 -30.6
      vertex 34.5349 22.25 -40.6
      vertex 17.751 22.25 -30.6452
    endloop
  endfacet
  facet normal 0 1 0
    outer loop
      vertex 17.751 22.25 -30.6452
      vertex 34.5349 22.25 -40.6
      vertex 17.7331 22.25 -30.6493
    endloop
  endfacet
  facet normal 0 1 0
    outer loop
      vertex 17.7331 22.25 -30.6493
      vertex 34.5349 22.25 -40.6
      vertex 16.3211 22.25 -30.9283
    endloop
  endfacet
  facet normal 0 1 0
    outer loop
      vertex 16.3211 22.25 -30.9283
      vertex 34.5349 22.25 -40.6
      vertex 14.8721 22.25 -31.1941
    endloop
  endfacet
  facet normal 0 1 0
    outer loop
      vertex 14.8721 22.25 -31.1941
      vertex 34.5349 22.25 -40.6
      vertex 14.8583 22.25 -31.1963
    endloop
  endfacet
  facet normal 0 1 0
    outer loop
      vertex 14.8583 22.25 -31.1963
      vertex 34.5349 22.25 -40.6
      vertex 13.3938 22.25 -31.3947
    endloop
  endfacet
  facet normal 0 1 0
    outer loop
      vertex 13.3938 22.25 -31.3947
      vertex 34.5349 22.25 -40.6
      vertex 11.9014 22.25 -31.7172
    endloop
  endfacet
  facet normal 0 1 0
    outer loop
      vertex 11.9014 22.25 -31.7172
      vertex 34.5349 22.25 -40.6
      vertex 11.8764 22.25 -31.7215
    endloop
  endfacet
  facet normal -0 1 0
    outer loop
      vertex 8.825 22.25 -32.2579
      vertex 11.8764 22.25 -31.7215
      vertex 34.5349 22.25 -40.6
    endloop
  endfacet
  facet normal 0 1 0
    outer loop
      vertex 11.8764 22.25 -31.7215
      vertex 8.825 22.25 -32.2579
      vertex 10.3619 22.25 -31.9168
    endloop
  endfacet
  facet normal 0 1 0
    outer loop
      vertex 8.825 22.25 -32.2579
      vertex 34.5349 22.25 -40.6
      vertex 8.77966 22.25 -32.2644
    endloop
  endfacet
  facet normal -0 1 0
    outer loop
      vertex 5.6508 22.25 -32.5701
      vertex 8.77966 22.25 -32.2644
      vertex 34.5349 22.25 -40.6
    endloop
  endfacet
  facet normal 0 1 0
    outer loop
      vertex 8.77966 22.25 -32.2644
      vertex 5.6508 22.25 -32.5701
      vertex 7.22099 22.25 -32.3667
    endloop
  endfacet
  facet normal 0 1 0
    outer loop
      vertex 5.6508 22.25 -32.5701
      vertex 34.5349 22.25 -40.6
      vertex 4.05966 22.25 -32.8097
    endloop
  endfacet
  facet normal 0 1 0
    outer loop
      vertex 4.05966 22.25 -32.8097
      vertex 34.5349 22.25 -40.6
      vertex 4.04608 22.25 -32.8114
    endloop
  endfacet
  facet normal -0 1 0
    outer loop
      vertex 0.853989 22.25 -33.242
      vertex 4.04608 22.25 -32.8114
      vertex 34.5349 22.25 -40.6
    endloop
  endfacet
  facet normal 0 1 0
    outer loop
      vertex 4.04608 22.25 -32.8114
      vertex 0.853989 22.25 -33.242
      vertex 2.4521 22.25 -32.9774
    endloop
  endfacet
  facet normal 0 1 0
    outer loop
      vertex 0.828217 22.25 -33.2451
      vertex -2.36966 22.25 -33.597
      vertex -0.772263 22.25 -33.3694
    endloop
  endfacet
  facet normal 0 1 0
    outer loop
      vertex 0.853989 22.25 -33.242
      vertex 34.5349 22.25 -40.6
      vertex 0.828217 22.25 -33.2451
    endloop
  endfacet
  facet normal 0 1 0
    outer loop
      vertex -37.9 22.25 -40.6
      vertex -2.41199 22.25 -33.6
      vertex 34.5349 22.25 -40.6
    endloop
  endfacet
  facet normal 0 1 0
    outer loop
      vertex -2.36966 22.25 -33.597
      vertex 34.5349 22.25 -40.6
      vertex -2.41199 22.25 -33.6
    endloop
  endfacet
  facet normal 0 1 0
    outer loop
      vertex 0.828217 22.25 -33.2451
      vertex 34.5349 22.25 -40.6
      vertex -2.36966 22.25 -33.597
    endloop
  endfacet
  facet normal 0 1 0
    outer loop
      vertex -37.9 22.25 -40.6
      vertex -26.2804 22.25 -30.6
      vertex -25.4043 22.25 -31.0026
    endloop
  endfacet
  facet normal 0 1 0
    outer loop
      vertex -37.9 22.25 -40.6
      vertex -25.4043 22.25 -31.0026
      vertex -25.3779 22.25 -31.0132
    endloop
  endfacet
  facet normal 0 1 0
    outer loop
      vertex -37.9 22.25 -40.6
      vertex -25.3779 22.25 -31.0132
      vertex -24.2245 22.25 -31.416
    endloop
  endfacet
  facet normal 0 1 0
    outer loop
      vertex -37.9 22.25 -40.6
      vertex -24.2245 22.25 -31.416
      vertex -23.0235 22.25 -31.824
    endloop
  endfacet
  facet normal 0 1 0
    outer loop
      vertex -37.9 22.25 -40.6
      vertex -23.0235 22.25 -31.824
      vertex -23.011 22.25 -31.828
    endloop
  endfacet
  facet normal 0 1 0
    outer loop
      vertex -37.9 22.25 -40.6
      vertex -23.011 22.25 -31.828
      vertex -21.763 22.25 -32.192
    endloop
  endfacet
  facet normal 0 1 0
    outer loop
      vertex -37.9 22.25 -40.6
      vertex -21.763 22.25 -32.192
      vertex -21.7427 22.25 -32.1971
    endloop
  endfacet
  facet normal 0 1 0
    outer loop
      vertex -37.9 22.25 -40.6
      vertex -21.7427 22.25 -32.1971
      vertex -20.4507 22.25 -32.4779
    endloop
  endfacet
  facet normal 0 1 0
    outer loop
      vertex -37.9 22.25 -40.6
      vertex -20.4507 22.25 -32.4779
      vertex -19.1149 22.25 -32.7739
    endloop
  endfacet
  facet normal 0 1 0
    outer loop
      vertex -37.9 22.25 -40.6
      vertex -19.1149 22.25 -32.7739
      vertex -19.093 22.25 -32.7779
    endloop
  endfacet
  facet normal 0 1 0
    outer loop
      vertex -37.9 22.25 -40.6
      vertex -19.093 22.25 -32.7779
      vertex -17.7243 22.25 -32.976
    endloop
  endfacet
  facet normal 0 1 0
    outer loop
      vertex -37.9 22.25 -40.6
      vertex -17.7243 22.25 -32.976
      vertex -16.3185 22.25 -33.2408
    endloop
  endfacet
  facet normal 0 1 0
    outer loop
      vertex -13.3687 22.25 -33.4218
      vertex -16.2723 22.25 -33.2458
      vertex -14.8362 22.25 -33.2906
    endloop
  endfacet
  facet normal 0 1 0
    outer loop
      vertex -10.3383 22.25 -33.5987
      vertex -13.3484 22.25 -33.4229
      vertex -11.8555 22.25 -33.4547
    endloop
  endfacet
  facet normal 0 1 0
    outer loop
      vertex -37.9 22.25 -40.6
      vertex -13.3484 22.25 -33.4229
      vertex -10.3383 22.25 -33.5987
    endloop
  endfacet
  facet normal 0 1 0
    outer loop
      vertex -2.41199 22.25 -33.6
      vertex -37.9 22.25 -40.6
      vertex -10.31 22.25 -33.6
    endloop
  endfacet
  facet normal 0 1 0
    outer loop
      vertex -10.31 22.25 -33.6
      vertex -37.9 22.25 -40.6
      vertex -10.3383 22.25 -33.5987
    endloop
  endfacet
  facet normal 0 1 0
    outer loop
      vertex -13.3484 22.25 -33.4229
      vertex -37.9 22.25 -40.6
      vertex -13.3687 22.25 -33.4218
    endloop
  endfacet
  facet normal 0 1 0
    outer loop
      vertex -13.3687 22.25 -33.4218
      vertex -37.9 22.25 -40.6
      vertex -16.2723 22.25 -33.2458
    endloop
  endfacet
  facet normal 0 1 0
    outer loop
      vertex -16.2723 22.25 -33.2458
      vertex -37.9 22.25 -40.6
      vertex -16.3185 22.25 -33.2408
    endloop
  endfacet
  facet normal 0 1 0
    outer loop
      vertex -26.2804 22.25 -30.6
      vertex -37.9 22.25 -40.6
      vertex -37.9 22.25 -30.6
    endloop
  endfacet
  facet normal 0 0 -1
    outer loop
      vertex 34.5349 -22.25 -40.6
      vertex 35.3254 -19.25 -40.6
      vertex 35.2421 -19.6108 -40.6
    endloop
  endfacet
  facet normal 0 0 -1
    outer loop
      vertex -37.9 -19.25 -40.6
      vertex 34.5349 -22.25 -40.6
      vertex -37.9 -22.25 -40.6
    endloop
  endfacet
  facet normal 0 0 -1
    outer loop
      vertex 34.5349 -22.25 -40.6
      vertex -37.9 -19.25 -40.6
      vertex 35.3254 -19.25 -40.6
    endloop
  endfacet
  facet normal 0 0 -1
    outer loop
      vertex 35.3254 19.25 -40.6
      vertex 34.5349 22.25 -40.6
      vertex 35.2421 19.6108 -40.6
    endloop
  endfacet
  facet normal 0 0 -1
    outer loop
      vertex -37.9 19.25 -40.6
      vertex 34.5349 22.25 -40.6
      vertex 35.3254 19.25 -40.6
    endloop
  endfacet
  facet normal -0 0 -1
    outer loop
      vertex 34.5349 22.25 -40.6
      vertex -37.9 19.25 -40.6
      vertex -37.9 22.25 -40.6
    endloop
  endfacet
  facet normal 0 -1 0
    outer loop
      vertex -37.9 -22.25 -40.6
      vertex -26.2804 -22.25 -30.6
      vertex -37.9 -22.25 -30.6
    endloop
  endfacet
  facet normal 0 -1 -0
    outer loop
      vertex -26.2804 -22.25 -30.6
      vertex -37.9 -22.25 -40.6
      vertex -25.4043 -22.25 -31.0026
    endloop
  endfacet
  facet normal 0 -1 -0
    outer loop
      vertex -25.4043 -22.25 -31.0026
      vertex -37.9 -22.25 -40.6
      vertex -25.3779 -22.25 -31.0132
    endloop
  endfacet
  facet normal 0 -1 -0
    outer loop
      vertex -25.3779 -22.25 -31.0132
      vertex -37.9 -22.25 -40.6
      vertex -24.2245 -22.25 -31.416
    endloop
  endfacet
  facet normal 0 -1 -0
    outer loop
      vertex -24.2245 -22.25 -31.416
      vertex -37.9 -22.25 -40.6
      vertex -23.0235 -22.25 -31.824
    endloop
  endfacet
  facet normal 0 -1 -0
    outer loop
      vertex -23.0235 -22.25 -31.824
      vertex -37.9 -22.25 -40.6
      vertex -23.011 -22.25 -31.828
    endloop
  endfacet
  facet normal 0 -1 -0
    outer loop
      vertex -23.011 -22.25 -31.828
      vertex -37.9 -22.25 -40.6
      vertex -21.763 -22.25 -32.192
    endloop
  endfacet
  facet normal 0 -1 -0
    outer loop
      vertex -21.763 -22.25 -32.192
      vertex -37.9 -22.25 -40.6
      vertex -21.7427 -22.25 -32.1971
    endloop
  endfacet
  facet normal 0 -1 -0
    outer loop
      vertex -21.7427 -22.25 -32.1971
      vertex -37.9 -22.25 -40.6
      vertex -20.4507 -22.25 -32.4779
    endloop
  endfacet
  facet normal 0 -1 -0
    outer loop
      vertex -20.4507 -22.25 -32.4779
      vertex -37.9 -22.25 -40.6
      vertex -19.1149 -22.25 -32.7739
    endloop
  endfacet
  facet normal 0 -1 -0
    outer loop
      vertex -19.1149 -22.25 -32.7739
      vertex -37.9 -22.25 -40.6
      vertex -19.093 -22.25 -32.7779
    endloop
  endfacet
  facet normal 0 -1 -0
    outer loop
      vertex -19.093 -22.25 -32.7779
      vertex -37.9 -22.25 -40.6
      vertex -17.7243 -22.25 -32.976
    endloop
  endfacet
  facet normal 0 -1 0
    outer loop
      vertex -16.2723 -22.25 -33.2458
      vertex -13.3687 -22.25 -33.4218
      vertex -14.8362 -22.25 -33.2906
    endloop
  endfacet
  facet normal 0 -1 0
    outer loop
      vertex -13.3484 -22.25 -33.4229
      vertex -10.3383 -22.25 -33.5987
      vertex -11.8555 -22.25 -33.4547
    endloop
  endfacet
  facet normal 0 -1 0
    outer loop
      vertex -37.9 -22.25 -40.6
      vertex -13.3484 -22.25 -33.4229
      vertex -13.3687 -22.25 -33.4218
    endloop
  endfacet
  facet normal 0 -1 -0
    outer loop
      vertex -10.31 -22.25 -33.6
      vertex -37.9 -22.25 -40.6
      vertex -2.41199 -22.25 -33.6
    endloop
  endfacet
  facet normal 0 -1 -0
    outer loop
      vertex -10.3383 -22.25 -33.5987
      vertex -37.9 -22.25 -40.6
      vertex -10.31 -22.25 -33.6
    endloop
  endfacet
  facet normal 0 -1 -0
    outer loop
      vertex -13.3484 -22.25 -33.4229
      vertex -37.9 -22.25 -40.6
      vertex -10.3383 -22.25 -33.5987
    endloop
  endfacet
  facet normal 0 -1 -0
    outer loop
      vertex -16.2723 -22.25 -33.2458
      vertex -37.9 -22.25 -40.6
      vertex -13.3687 -22.25 -33.4218
    endloop
  endfacet
  facet normal 0 -1 -0
    outer loop
      vertex -16.3185 -22.25 -33.2408
      vertex -37.9 -22.25 -40.6
      vertex -16.2723 -22.25 -33.2458
    endloop
  endfacet
  facet normal 0 -1 -0
    outer loop
      vertex -17.7243 -22.25 -32.976
      vertex -37.9 -22.25 -40.6
      vertex -16.3185 -22.25 -33.2408
    endloop
  endfacet
  facet normal 0 -1 0
    outer loop
      vertex 34.5349 -22.25 -40.6
      vertex 17.9237 -22.25 -30.6
      vertex 17.751 -22.25 -30.6452
    endloop
  endfacet
  facet normal 0 -1 0
    outer loop
      vertex 34.5349 -22.25 -40.6
      vertex 17.751 -22.25 -30.6452
      vertex 17.7331 -22.25 -30.6493
    endloop
  endfacet
  facet normal 0 -1 0
    outer loop
      vertex 34.5349 -22.25 -40.6
      vertex 17.7331 -22.25 -30.6493
      vertex 16.3211 -22.25 -30.9283
    endloop
  endfacet
  facet normal 0 -1 0
    outer loop
      vertex 34.5349 -22.25 -40.6
      vertex 16.3211 -22.25 -30.9283
      vertex 14.8721 -22.25 -31.1941
    endloop
  endfacet
  facet normal 0 -1 0
    outer loop
      vertex 34.5349 -22.25 -40.6
      vertex 14.8721 -22.25 -31.1941
      vertex 14.8583 -22.25 -31.1963
    endloop
  endfacet
  facet normal 0 -1 0
    outer loop
      vertex 34.5349 -22.25 -40.6
      vertex 14.8583 -22.25 -31.1963
      vertex 13.3938 -22.25 -31.3947
    endloop
  endfacet
  facet normal 0 -1 0
    outer loop
      vertex 34.5349 -22.25 -40.6
      vertex 13.3938 -22.25 -31.3947
      vertex 11.9014 -22.25 -31.7172
    endloop
  endfacet
  facet normal 0 -1 0
    outer loop
      vertex 34.5349 -22.25 -40.6
      vertex 11.9014 -22.25 -31.7172
      vertex 11.8764 -22.25 -31.7215
    endloop
  endfacet
  facet normal 0 -1 0
    outer loop
      vertex 8.825 -22.25 -32.2579
      vertex 11.8764 -22.25 -31.7215
      vertex 10.3619 -22.25 -31.9168
    endloop
  endfacet
  facet normal 0 -1 -0
    outer loop
      vertex 11.8764 -22.25 -31.7215
      vertex 8.825 -22.25 -32.2579
      vertex 34.5349 -22.25 -40.6
    endloop
  endfacet
  facet normal 0 -1 0
    outer loop
      vertex 34.5349 -22.25 -40.6
      vertex 8.825 -22.25 -32.2579
      vertex 8.77966 -22.25 -32.2644
    endloop
  endfacet
  facet normal 0 -1 0
    outer loop
      vertex 5.6508 -22.25 -32.5701
      vertex 8.77966 -22.25 -32.2644
      vertex 7.22099 -22.25 -32.3667
    endloop
  endfacet
  facet normal 0 -1 -0
    outer loop
      vertex 8.77966 -22.25 -32.2644
      vertex 5.6508 -22.25 -32.5701
      vertex 34.5349 -22.25 -40.6
    endloop
  endfacet
  facet normal 0 -1 0
    outer loop
      vertex 34.5349 -22.25 -40.6
      vertex 5.6508 -22.25 -32.5701
      vertex 4.05966 -22.25 -32.8097
    endloop
  endfacet
  facet normal 0 -1 0
    outer loop
      vertex 34.5349 -22.25 -40.6
      vertex 4.05966 -22.25 -32.8097
      vertex 4.04608 -22.25 -32.8114
    endloop
  endfacet
  facet normal 0 -1 0
    outer loop
      vertex 0.853989 -22.25 -33.242
      vertex 4.04608 -22.25 -32.8114
      vertex 2.4521 -22.25 -32.9774
    endloop
  endfacet
  facet normal 0 -1 -0
    outer loop
      vertex 4.04608 -22.25 -32.8114
      vertex 0.853989 -22.25 -33.242
      vertex 34.5349 -22.25 -40.6
    endloop
  endfacet
  facet normal 0 -1 0
    outer loop
      vertex 34.5349 -22.25 -40.6
      vertex 0.853989 -22.25 -33.242
      vertex 0.828217 -22.25 -33.2451
    endloop
  endfacet
  facet normal 0 -1 0
    outer loop
      vertex -2.36966 -22.25 -33.597
      vertex 0.828217 -22.25 -33.2451
      vertex -0.772263 -22.25 -33.3694
    endloop
  endfacet
  facet normal 0 -1 0
    outer loop
      vertex 34.5349 -22.25 -40.6
      vertex 0.828217 -22.25 -33.2451
      vertex -2.36966 -22.25 -33.597
    endloop
  endfacet
  facet normal 0 -1 0
    outer loop
      vertex 34.5349 -22.25 -40.6
      vertex -2.41199 -22.25 -33.6
      vertex -37.9 -22.25 -40.6
    endloop
  endfacet
  facet normal 0 -1 0
    outer loop
      vertex -2.41199 -22.25 -33.6
      vertex 34.5349 -22.25 -40.6
      vertex -2.36966 -22.25 -33.597
    endloop
  endfacet
  facet normal 0 -1 0
    outer loop
      vertex 17.9237 -22.25 -30.6
      vertex 34.5349 -22.25 -40.6
      vertex 34.5349 -22.25 -30.6
    endloop
  endfacet
  facet normal -0.141057 0 0.990001
    outer loop
      vertex -2.36966 22.25 -33.597
      vertex -0.772263 -22.25 -33.3694
      vertex -0.772263 22.25 -33.3694
    endloop
  endfacet
  facet normal -0.141057 0 0.990001
    outer loop
      vertex -0.772263 -22.25 -33.3694
      vertex -2.36966 22.25 -33.597
      vertex -2.36966 -22.25 -33.597
    endloop
  endfacet
  facet normal -0.077431 0 0.996998
    outer loop
      vertex -0.772263 22.25 -33.3694
      vertex 0.828217 -22.25 -33.2451
      vertex 0.828217 22.25 -33.2451
    endloop
  endfacet
  facet normal -0.077431 0 0.996998
    outer loop
      vertex 0.828217 -22.25 -33.2451
      vertex -0.772263 22.25 -33.3694
      vertex -0.772263 -22.25 -33.3694
    endloop
  endfacet
  facet normal -0.119425 0 0.992843
    outer loop
      vertex 0.828217 22.25 -33.2451
      vertex 0.853989 -22.25 -33.242
      vertex 0.853989 22.25 -33.242
    endloop
  endfacet
  facet normal -0.119425 0 0.992843
    outer loop
      vertex 0.853989 -22.25 -33.242
      vertex 0.828217 22.25 -33.2451
      vertex 0.828217 -22.25 -33.2451
    endloop
  endfacet
  facet normal -0.163347 0 0.986569
    outer loop
      vertex 0.853989 22.25 -33.242
      vertex 2.4521 -22.25 -32.9774
      vertex 2.4521 22.25 -32.9774
    endloop
  endfacet
  facet normal -0.163347 0 0.986569
    outer loop
      vertex 2.4521 -22.25 -32.9774
      vertex 0.853989 22.25 -33.242
      vertex 0.853989 -22.25 -33.242
    endloop
  endfacet
  facet normal -0.103582 0 0.994621
    outer loop
      vertex 2.4521 22.25 -32.9774
      vertex 4.04608 -22.25 -32.8114
      vertex 4.04608 22.25 -32.8114
    endloop
  endfacet
  facet normal -0.103582 0 0.994621
    outer loop
      vertex 4.04608 -22.25 -32.8114
      vertex 2.4521 22.25 -32.9774
      vertex 2.4521 -22.25 -32.9774
    endloop
  endfacet
  facet normal -0.124215 0 0.992255
    outer loop
      vertex 4.04608 22.25 -32.8114
      vertex 4.05966 -22.25 -32.8097
      vertex 4.05966 22.25 -32.8097
    endloop
  endfacet
  facet normal -0.124215 0 0.992255
    outer loop
      vertex 4.05966 -22.25 -32.8097
      vertex 4.04608 22.25 -32.8114
      vertex 4.04608 -22.25 -32.8114
    endloop
  endfacet
  facet normal -0.148905 0 0.988851
    outer loop
      vertex 4.05966 22.25 -32.8097
      vertex 5.6508 -22.25 -32.5701
      vertex 5.6508 22.25 -32.5701
    endloop
  endfacet
  facet normal -0.148905 0 0.988851
    outer loop
      vertex 5.6508 -22.25 -32.5701
      vertex 4.05966 22.25 -32.8097
      vertex 4.05966 -22.25 -32.8097
    endloop
  endfacet
  facet normal -0.128465 0 0.991714
    outer loop
      vertex 5.6508 22.25 -32.5701
      vertex 7.22099 -22.25 -32.3667
      vertex 7.22099 22.25 -32.3667
    endloop
  endfacet
  facet normal -0.128465 0 0.991714
    outer loop
      vertex 7.22099 -22.25 -32.3667
      vertex 5.6508 22.25 -32.5701
      vertex 5.6508 -22.25 -32.5701
    endloop
  endfacet
  facet normal -0.065492 0 0.997853
    outer loop
      vertex 7.22099 22.25 -32.3667
      vertex 8.77966 -22.25 -32.2644
      vertex 8.77966 22.25 -32.2644
    endloop
  endfacet
  facet normal -0.065492 0 0.997853
    outer loop
      vertex 8.77966 -22.25 -32.2644
      vertex 7.22099 22.25 -32.3667
      vertex 7.22099 -22.25 -32.3667
    endloop
  endfacet
  facet normal -0.14191 0 0.98988
    outer loop
      vertex 8.77966 22.25 -32.2644
      vertex 8.825 -22.25 -32.2579
      vertex 8.825 22.25 -32.2579
    endloop
  endfacet
  facet normal -0.14191 0 0.98988
    outer loop
      vertex 8.825 -22.25 -32.2579
      vertex 8.77966 22.25 -32.2644
      vertex 8.77966 -22.25 -32.2644
    endloop
  endfacet
  facet normal -0.216668 0 0.976245
    outer loop
      vertex 8.825 22.25 -32.2579
      vertex 10.3619 -22.25 -31.9168
      vertex 10.3619 22.25 -31.9168
    endloop
  endfacet
  facet normal -0.216668 0 0.976245
    outer loop
      vertex 10.3619 -22.25 -31.9168
      vertex 8.825 22.25 -32.2579
      vertex 8.825 -22.25 -32.2579
    endloop
  endfacet
  facet normal -0.127894 0 0.991788
    outer loop
      vertex 10.3619 22.25 -31.9168
      vertex 11.8764 -22.25 -31.7215
      vertex 11.8764 22.25 -31.7215
    endloop
  endfacet
  facet normal -0.127894 0 0.991788
    outer loop
      vertex 11.8764 -22.25 -31.7215
      vertex 10.3619 22.25 -31.9168
      vertex 10.3619 -22.25 -31.9168
    endloop
  endfacet
  facet normal -0.169511 0 0.985528
    outer loop
      vertex 11.8764 22.25 -31.7215
      vertex 11.9014 -22.25 -31.7172
      vertex 11.9014 22.25 -31.7172
    endloop
  endfacet
  facet normal -0.169511 0 0.985528
    outer loop
      vertex 11.9014 -22.25 -31.7172
      vertex 11.8764 22.25 -31.7215
      vertex 11.8764 -22.25 -31.7215
    endloop
  endfacet
  facet normal -0.211219 0 0.977439
    outer loop
      vertex 11.9014 22.25 -31.7172
      vertex 13.3938 -22.25 -31.3947
      vertex 13.3938 22.25 -31.3947
    endloop
  endfacet
  facet normal -0.211219 0 0.977439
    outer loop
      vertex 13.3938 -22.25 -31.3947
      vertex 11.9014 22.25 -31.7172
      vertex 11.9014 -22.25 -31.7172
    endloop
  endfacet
  facet normal -0.134247 0 0.990948
    outer loop
      vertex 13.3938 22.25 -31.3947
      vertex 14.8583 -22.25 -31.1963
      vertex 14.8583 22.25 -31.1963
    endloop
  endfacet
  facet normal -0.134247 0 0.990948
    outer loop
      vertex 14.8583 -22.25 -31.1963
      vertex 13.3938 22.25 -31.3947
      vertex 13.3938 -22.25 -31.3947
    endloop
  endfacet
  facet normal -0.157432 0 0.98753
    outer loop
      vertex 14.8583 22.25 -31.1963
      vertex 14.8721 -22.25 -31.1941
      vertex 14.8721 22.25 -31.1941
    endloop
  endfacet
  facet normal -0.157432 0 0.98753
    outer loop
      vertex 14.8721 -22.25 -31.1941
      vertex 14.8583 22.25 -31.1963
      vertex 14.8583 -22.25 -31.1963
    endloop
  endfacet
  facet normal -0.180426 0 0.983588
    outer loop
      vertex 14.8721 22.25 -31.1941
      vertex 16.3211 -22.25 -30.9283
      vertex 16.3211 22.25 -30.9283
    endloop
  endfacet
  facet normal -0.180426 0 0.983588
    outer loop
      vertex 16.3211 -22.25 -30.9283
      vertex 14.8721 22.25 -31.1941
      vertex 14.8721 -22.25 -31.1941
    endloop
  endfacet
  facet normal -0.193844 0 0.981032
    outer loop
      vertex 16.3211 22.25 -30.9283
      vertex 17.7331 -22.25 -30.6493
      vertex 17.7331 22.25 -30.6493
    endloop
  endfacet
  facet normal -0.193844 0 0.981032
    outer loop
      vertex 17.7331 -22.25 -30.6493
      vertex 16.3211 22.25 -30.9283
      vertex 16.3211 -22.25 -30.9283
    endloop
  endfacet
  facet normal -0.223268 0 0.974757
    outer loop
      vertex 17.7331 22.25 -30.6493
      vertex 17.751 -22.25 -30.6452
      vertex 17.751 22.25 -30.6452
    endloop
  endfacet
  facet normal -0.223268 0 0.974757
    outer loop
      vertex 17.751 -22.25 -30.6452
      vertex 17.7331 22.25 -30.6493
      vertex 17.7331 -22.25 -30.6493
    endloop
  endfacet
  facet normal -0.253197 0 0.967415
    outer loop
      vertex 17.751 22.25 -30.6452
      vertex 17.9237 -22.25 -30.6
      vertex 17.9237 22.25 -30.6
    endloop
  endfacet
  facet normal -0.253197 0 0.967415
    outer loop
      vertex 17.9237 -22.25 -30.6
      vertex 17.751 22.25 -30.6452
      vertex 17.751 -22.25 -30.6452
    endloop
  endfacet
  facet normal 0.417558 0 0.90865
    outer loop
      vertex -26.2804 22.25 -30.6
      vertex -25.4043 -22.25 -31.0026
      vertex -25.4043 22.25 -31.0026
    endloop
  endfacet
  facet normal 0.417558 0 0.90865
    outer loop
      vertex -25.4043 -22.25 -31.0026
      vertex -26.2804 22.25 -30.6
      vertex -26.2804 -22.25 -30.6
    endloop
  endfacet
  facet normal 0.372602 0 0.927991
    outer loop
      vertex -25.4043 22.25 -31.0026
      vertex -25.3779 -22.25 -31.0132
      vertex -25.3779 22.25 -31.0132
    endloop
  endfacet
  facet normal 0.372602 0 0.927991
    outer loop
      vertex -25.3779 -22.25 -31.0132
      vertex -25.4043 22.25 -31.0026
      vertex -25.4043 -22.25 -31.0026
    endloop
  endfacet
  facet normal 0.329701 0 0.944085
    outer loop
      vertex -25.3779 22.25 -31.0132
      vertex -24.2245 -22.25 -31.416
      vertex -24.2245 22.25 -31.416
    endloop
  endfacet
  facet normal 0.329701 0 0.944085
    outer loop
      vertex -24.2245 -22.25 -31.416
      vertex -25.3779 22.25 -31.0132
      vertex -25.3779 -22.25 -31.0132
    endloop
  endfacet
  facet normal 0.321662 0 0.946854
    outer loop
      vertex -24.2245 22.25 -31.416
      vertex -23.0235 -22.25 -31.824
      vertex -23.0235 22.25 -31.824
    endloop
  endfacet
  facet normal 0.321662 0 0.946854
    outer loop
      vertex -23.0235 -22.25 -31.824
      vertex -24.2245 22.25 -31.416
      vertex -24.2245 -22.25 -31.416
    endloop
  endfacet
  facet normal 0.304776 0 0.952424
    outer loop
      vertex -23.0235 22.25 -31.824
      vertex -23.011 -22.25 -31.828
      vertex -23.011 22.25 -31.828
    endloop
  endfacet
  facet normal 0.304776 0 0.952424
    outer loop
      vertex -23.011 -22.25 -31.828
      vertex -23.0235 22.25 -31.824
      vertex -23.0235 -22.25 -31.824
    endloop
  endfacet
  facet normal 0.28 0 0.96
    outer loop
      vertex -23.011 22.25 -31.828
      vertex -21.763 -22.25 -32.192
      vertex -21.763 22.25 -32.192
    endloop
  endfacet
  facet normal 0.28 0 0.96
    outer loop
      vertex -21.763 -22.25 -32.192
      vertex -23.011 22.25 -31.828
      vertex -23.011 -22.25 -31.828
    endloop
  endfacet
  facet normal 0.24366 0 0.969861
    outer loop
      vertex -21.763 22.25 -32.192
      vertex -21.7427 -22.25 -32.1971
      vertex -21.7427 22.25 -32.1971
    endloop
  endfacet
  facet normal 0.24366 0 0.969861
    outer loop
      vertex -21.7427 -22.25 -32.1971
      vertex -21.763 22.25 -32.192
      vertex -21.763 -22.25 -32.192
    endloop
  endfacet
  facet normal 0.212379 0 0.977187
    outer loop
      vertex -21.7427 22.25 -32.1971
      vertex -20.4507 -22.25 -32.4779
      vertex -20.4507 22.25 -32.4779
    endloop
  endfacet
  facet normal 0.212379 0 0.977187
    outer loop
      vertex -20.4507 -22.25 -32.4779
      vertex -21.7427 22.25 -32.1971
      vertex -21.7427 -22.25 -32.1971
    endloop
  endfacet
  facet normal 0.216342 0 0.976318
    outer loop
      vertex -20.4507 22.25 -32.4779
      vertex -19.1149 -22.25 -32.7739
      vertex -19.1149 22.25 -32.7739
    endloop
  endfacet
  facet normal 0.216342 0 0.976318
    outer loop
      vertex -19.1149 -22.25 -32.7739
      vertex -20.4507 22.25 -32.4779
      vertex -20.4507 -22.25 -32.4779
    endloop
  endfacet
  facet normal 0.179676 0 0.983726
    outer loop
      vertex -19.1149 22.25 -32.7739
      vertex -19.093 -22.25 -32.7779
      vertex -19.093 22.25 -32.7779
    endloop
  endfacet
  facet normal 0.179676 0 0.983726
    outer loop
      vertex -19.093 -22.25 -32.7779
      vertex -19.1149 22.25 -32.7739
      vertex -19.1149 -22.25 -32.7739
    endloop
  endfacet
  facet normal 0.143243 0 0.989688
    outer loop
      vertex -19.093 22.25 -32.7779
      vertex -17.7243 -22.25 -32.976
      vertex -17.7243 22.25 -32.976
    endloop
  endfacet
  facet normal 0.143243 0 0.989688
    outer loop
      vertex -17.7243 -22.25 -32.976
      vertex -19.093 22.25 -32.7779
      vertex -19.093 -22.25 -32.7779
    endloop
  endfacet
  facet normal 0.185107 0 0.982718
    outer loop
      vertex -17.7243 22.25 -32.976
      vertex -16.3185 -22.25 -33.2408
      vertex -16.3185 22.25 -33.2408
    endloop
  endfacet
  facet normal 0.185107 0 0.982718
    outer loop
      vertex -16.3185 -22.25 -33.2408
      vertex -17.7243 22.25 -32.976
      vertex -17.7243 -22.25 -32.976
    endloop
  endfacet
  facet normal 0.107597 0 0.994195
    outer loop
      vertex -16.3185 22.25 -33.2408
      vertex -16.2723 -22.25 -33.2458
      vertex -16.2723 22.25 -33.2458
    endloop
  endfacet
  facet normal 0.107597 0 0.994195
    outer loop
      vertex -16.2723 -22.25 -33.2458
      vertex -16.3185 22.25 -33.2408
      vertex -16.3185 -22.25 -33.2408
    endloop
  endfacet
  facet normal 0.0311804 0 0.999514
    outer loop
      vertex -16.2723 22.25 -33.2458
      vertex -14.8362 -22.25 -33.2906
      vertex -14.8362 22.25 -33.2906
    endloop
  endfacet
  facet normal 0.0311804 0 0.999514
    outer loop
      vertex -14.8362 -22.25 -33.2906
      vertex -16.2723 22.25 -33.2458
      vertex -16.2723 -22.25 -33.2458
    endloop
  endfacet
  facet normal 0.0890486 0 0.996027
    outer loop
      vertex -14.8362 22.25 -33.2906
      vertex -13.3687 -22.25 -33.4218
      vertex -13.3687 22.25 -33.4218
    endloop
  endfacet
  facet normal 0.0890486 0 0.996027
    outer loop
      vertex -13.3687 -22.25 -33.4218
      vertex -14.8362 22.25 -33.2906
      vertex -14.8362 -22.25 -33.2906
    endloop
  endfacet
  facet normal 0.0541078 0 0.998535
    outer loop
      vertex -13.3687 22.25 -33.4218
      vertex -13.3484 -22.25 -33.4229
      vertex -13.3484 22.25 -33.4229
    endloop
  endfacet
  facet normal 0.0541078 0 0.998535
    outer loop
      vertex -13.3484 -22.25 -33.4229
      vertex -13.3687 22.25 -33.4218
      vertex -13.3687 -22.25 -33.4218
    endloop
  endfacet
  facet normal 0.021296 0 0.999773
    outer loop
      vertex -13.3484 22.25 -33.4229
      vertex -11.8555 -22.25 -33.4547
      vertex -11.8555 22.25 -33.4547
    endloop
  endfacet
  facet normal 0.021296 0 0.999773
    outer loop
      vertex -11.8555 -22.25 -33.4547
      vertex -13.3484 22.25 -33.4229
      vertex -13.3484 -22.25 -33.4229
    endloop
  endfacet
  facet normal 0.0944871 0 0.995526
    outer loop
      vertex -11.8555 22.25 -33.4547
      vertex -10.3383 -22.25 -33.5987
      vertex -10.3383 22.25 -33.5987
    endloop
  endfacet
  facet normal 0.0944871 0 0.995526
    outer loop
      vertex -10.3383 -22.25 -33.5987
      vertex -11.8555 22.25 -33.4547
      vertex -11.8555 -22.25 -33.4547
    endloop
  endfacet
  facet normal 0.045888 0 0.998947
    outer loop
      vertex -10.3383 22.25 -33.5987
      vertex -10.31 -22.25 -33.6
      vertex -10.31 22.25 -33.6
    endloop
  endfacet
  facet normal 0.045888 0 0.998947
    outer loop
      vertex -10.31 -22.25 -33.6
      vertex -10.3383 22.25 -33.5987
      vertex -10.3383 -22.25 -33.5987
    endloop
  endfacet
  facet normal -0 0 1
    outer loop
      vertex -10.31 22.25 -33.6
      vertex -2.41199 -22.25 -33.6
      vertex -2.41199 22.25 -33.6
    endloop
  endfacet
  facet normal 0 0 1
    outer loop
      vertex -2.41199 -22.25 -33.6
      vertex -10.31 22.25 -33.6
      vertex -10.31 -22.25 -33.6
    endloop
  endfacet
  facet normal -0.0706944 0 0.997498
    outer loop
      vertex -2.41199 22.25 -33.6
      vertex -2.36966 -22.25 -33.597
      vertex -2.36966 22.25 -33.597
    endloop
  endfacet
  facet normal -0.0706944 0 0.997498
    outer loop
      vertex -2.36966 -22.25 -33.597
      vertex -2.41199 22.25 -33.6
      vertex -2.41199 -22.25 -33.6
    endloop
  endfacet
  facet normal 0 0 -1
    outer loop
      vertex -37.9 -19.25 -37.6
      vertex 37.65 0 -37.6
      vertex 37.6006 -2.82904 -37.6
    endloop
  endfacet
  facet normal 0 0 -1
    outer loop
      vertex -37.9 -19.25 -37.6
      vertex 37.6006 -2.82904 -37.6
      vertex 37.4525 -5.65463 -37.6
    endloop
  endfacet
  facet normal 0 0 -1
    outer loop
      vertex -37.9 19.25 -37.6
      vertex 37.65 0 -37.6
      vertex -37.9 -19.25 -37.6
    endloop
  endfacet
  facet normal 0 0 -1
    outer loop
      vertex -37.9 -19.25 -37.6
      vertex 37.4525 -5.65463 -37.6
      vertex 37.2059 -8.47334 -37.6
    endloop
  endfacet
  facet normal 0 0 -1
    outer loop
      vertex 37.65 0 -37.6
      vertex -37.9 19.25 -37.6
      vertex 37.6006 2.82904 -37.6
    endloop
  endfacet
  facet normal 0 0 -1
    outer loop
      vertex -37.9 -19.25 -37.6
      vertex 37.2059 -8.47334 -37.6
      vertex 36.8611 -11.2817 -37.6
    endloop
  endfacet
  facet normal 0 0 -1
    outer loop
      vertex 37.6006 2.82904 -37.6
      vertex -37.9 19.25 -37.6
      vertex 37.4525 5.65463 -37.6
    endloop
  endfacet
  facet normal 0 0 -1
    outer loop
      vertex -37.9 -19.25 -37.6
      vertex 36.8611 -11.2817 -37.6
      vertex 36.4185 -14.0764 -37.6
    endloop
  endfacet
  facet normal 0 0 -1
    outer loop
      vertex 37.4525 5.65463 -37.6
      vertex -37.9 19.25 -37.6
      vertex 37.2059 8.47334 -37.6
    endloop
  endfacet
  facet normal 0 0 -1
    outer loop
      vertex -37.9 -19.25 -37.6
      vertex 36.4185 -14.0764 -37.6
      vertex 35.8786 -16.8538 -37.6
    endloop
  endfacet
  facet normal 0 0 -1
    outer loop
      vertex 37.2059 8.47334 -37.6
      vertex -37.9 19.25 -37.6
      vertex 36.8611 11.2817 -37.6
    endloop
  endfacet
  facet normal 0 0 -1
    outer loop
      vertex -37.9 -19.25 -37.6
      vertex 35.8786 -16.8538 -37.6
      vertex 35.3254 -19.25 -37.6
    endloop
  endfacet
  facet normal 0 0 -1
    outer loop
      vertex 36.8611 11.2817 -37.6
      vertex -37.9 19.25 -37.6
      vertex 36.4185 14.0764 -37.6
    endloop
  endfacet
  facet normal 0 0 -1
    outer loop
      vertex 36.4185 14.0764 -37.6
      vertex -37.9 19.25 -37.6
      vertex 35.8786 16.8538 -37.6
    endloop
  endfacet
  facet normal 0 0 -1
    outer loop
      vertex 35.8786 16.8538 -37.6
      vertex -37.9 19.25 -37.6
      vertex 35.3254 19.25 -37.6
    endloop
  endfacet
  facet normal 0 1 -0
    outer loop
      vertex 35.3254 -19.25 -40.6
      vertex -37.9 -19.25 -37.6
      vertex 35.3254 -19.25 -37.6
    endloop
  endfacet
  facet normal 0 1 0
    outer loop
      vertex -37.9 -19.25 -37.6
      vertex 35.3254 -19.25 -40.6
      vertex -37.9 -19.25 -40.6
    endloop
  endfacet
  facet normal 0 -1 0
    outer loop
      vertex -37.9 19.25 -40.6
      vertex 35.3254 19.25 -37.6
      vertex -37.9 19.25 -37.6
    endloop
  endfacet
  facet normal 0 -1 -0
    outer loop
      vertex 35.3254 19.25 -37.6
      vertex -37.9 19.25 -40.6
      vertex 35.3254 19.25 -40.6
    endloop
  endfacet
  facet normal 0.974368 0.224958 0
    outer loop
      vertex 35.2421 19.6108 -30.6
      vertex 35.3254 19.25 -37.6
      vertex 35.2421 19.6108 -40.6
    endloop
  endfacet
  facet normal 0.97437 0.22495 4.49344e-07
    outer loop
      vertex 35.8786 16.8538 -30.6
      vertex 35.3254 19.25 -37.6
      vertex 35.2421 19.6108 -30.6
    endloop
  endfacet
  facet normal 0.974371 0.224949 0
    outer loop
      vertex 35.3254 19.25 -37.6
      vertex 35.8786 16.8538 -30.6
      vertex 35.8786 16.8538 -37.6
    endloop
  endfacet
  facet normal 0.974368 0.224958 0
    outer loop
      vertex 35.2421 19.6108 -40.6
      vertex 35.3254 19.25 -37.6
      vertex 35.3254 19.25 -40.6
    endloop
  endfacet
  facet normal 0.998629 0.052342 0
    outer loop
      vertex 37.6006 2.82904 -30.6
      vertex 37.4525 5.65463 -37.6
      vertex 37.4525 5.65463 -30.6
    endloop
  endfacet
  facet normal 0.998629 0.052342 0
    outer loop
      vertex 37.4525 5.65463 -37.6
      vertex 37.6006 2.82904 -30.6
      vertex 37.6006 2.82904 -37.6
    endloop
  endfacet
  facet normal 0.999848 0.0174591 0
    outer loop
      vertex 37.65 0 -30.6
      vertex 37.6006 2.82904 -37.6
      vertex 37.6006 2.82904 -30.6
    endloop
  endfacet
  facet normal 0.999848 0.0174591 0
    outer loop
      vertex 37.6006 2.82904 -37.6
      vertex 37.65 0 -30.6
      vertex 37.65 0 -37.6
    endloop
  endfacet
  facet normal 0.98769 -0.156422 0
    outer loop
      vertex 36.4185 -14.0764 -30.6
      vertex 36.8611 -11.2817 -37.6
      vertex 36.8611 -11.2817 -30.6
    endloop
  endfacet
  facet normal 0.98769 -0.156422 0
    outer loop
      vertex 36.8611 -11.2817 -37.6
      vertex 36.4185 -14.0764 -30.6
      vertex 36.4185 -14.0764 -37.6
    endloop
  endfacet
  facet normal 0.981625 0.190819 0
    outer loop
      vertex 36.4185 14.0764 -30.6
      vertex 35.8786 16.8538 -37.6
      vertex 35.8786 16.8538 -30.6
    endloop
  endfacet
  facet normal 0.981625 0.190819 0
    outer loop
      vertex 35.8786 16.8538 -37.6
      vertex 36.4185 14.0764 -30.6
      vertex 36.4185 14.0764 -37.6
    endloop
  endfacet
  facet normal 0.98769 0.156422 0
    outer loop
      vertex 36.8611 11.2817 -30.6
      vertex 36.4185 14.0764 -37.6
      vertex 36.4185 14.0764 -30.6
    endloop
  endfacet
  facet normal 0.98769 0.156422 0
    outer loop
      vertex 36.4185 14.0764 -37.6
      vertex 36.8611 11.2817 -30.6
      vertex 36.8611 11.2817 -37.6
    endloop
  endfacet
  facet normal 0.992547 0.121861 0
    outer loop
      vertex 37.2059 8.47334 -30.6
      vertex 36.8611 11.2817 -37.6
      vertex 36.8611 11.2817 -30.6
    endloop
  endfacet
  facet normal 0.992547 0.121861 0
    outer loop
      vertex 36.8611 11.2817 -37.6
      vertex 37.2059 8.47334 -30.6
      vertex 37.2059 8.47334 -37.6
    endloop
  endfacet
  facet normal 0.965923 0.258829 0
    outer loop
      vertex 35.2421 19.6108 -30.6
      vertex 34.5349 22.25 -40.6
      vertex 34.5349 22.25 -30.6
    endloop
  endfacet
  facet normal 0.965923 0.258829 0
    outer loop
      vertex 34.5349 22.25 -40.6
      vertex 35.2421 19.6108 -30.6
      vertex 35.2421 19.6108 -40.6
    endloop
  endfacet
  facet normal 0.999848 -0.0174591 0
    outer loop
      vertex 37.6006 -2.82904 -30.6
      vertex 37.65 0 -37.6
      vertex 37.65 0 -30.6
    endloop
  endfacet
  facet normal 0.999848 -0.0174591 0
    outer loop
      vertex 37.65 0 -37.6
      vertex 37.6006 -2.82904 -30.6
      vertex 37.6006 -2.82904 -37.6
    endloop
  endfacet
  facet normal 0.998629 -0.052342 0
    outer loop
      vertex 37.4525 -5.65463 -30.6
      vertex 37.6006 -2.82904 -37.6
      vertex 37.6006 -2.82904 -30.6
    endloop
  endfacet
  facet normal 0.998629 -0.052342 0
    outer loop
      vertex 37.6006 -2.82904 -37.6
      vertex 37.4525 -5.65463 -30.6
      vertex 37.4525 -5.65463 -37.6
    endloop
  endfacet
  facet normal 0.981625 -0.190819 0
    outer loop
      vertex 35.8786 -16.8538 -30.6
      vertex 36.4185 -14.0764 -37.6
      vertex 36.4185 -14.0764 -30.6
    endloop
  endfacet
  facet normal 0.981625 -0.190819 0
    outer loop
      vertex 36.4185 -14.0764 -37.6
      vertex 35.8786 -16.8538 -30.6
      vertex 35.8786 -16.8538 -37.6
    endloop
  endfacet
  facet normal 0.965923 -0.258829 0
    outer loop
      vertex 34.5349 -22.25 -30.6
      vertex 35.2421 -19.6108 -40.6
      vertex 35.2421 -19.6108 -30.6
    endloop
  endfacet
  facet normal 0.965923 -0.258829 0
    outer loop
      vertex 35.2421 -19.6108 -40.6
      vertex 34.5349 -22.25 -30.6
      vertex 34.5349 -22.25 -40.6
    endloop
  endfacet
  facet normal 0.992547 -0.121861 0
    outer loop
      vertex 36.8611 -11.2817 -30.6
      vertex 37.2059 -8.47334 -37.6
      vertex 37.2059 -8.47334 -30.6
    endloop
  endfacet
  facet normal 0.992547 -0.121861 0
    outer loop
      vertex 37.2059 -8.47334 -37.6
      vertex 36.8611 -11.2817 -30.6
      vertex 36.8611 -11.2817 -37.6
    endloop
  endfacet
  facet normal 0.996195 -0.0871539 0
    outer loop
      vertex 37.2059 -8.47334 -30.6
      vertex 37.4525 -5.65463 -37.6
      vertex 37.4525 -5.65463 -30.6
    endloop
  endfacet
  facet normal 0.996195 -0.0871539 0
    outer loop
      vertex 37.4525 -5.65463 -37.6
      vertex 37.2059 -8.47334 -30.6
      vertex 37.2059 -8.47334 -37.6
    endloop
  endfacet
  facet normal 0.996195 0.0871539 0
    outer loop
      vertex 37.4525 5.65463 -30.6
      vertex 37.2059 8.47334 -37.6
      vertex 37.2059 8.47334 -30.6
    endloop
  endfacet
  facet normal 0.996195 0.0871539 0
    outer loop
      vertex 37.2059 8.47334 -37.6
      vertex 37.4525 5.65463 -30.6
      vertex 37.4525 5.65463 -37.6
    endloop
  endfacet
  facet normal 0.974371 -0.224949 0
    outer loop
      vertex 35.8786 -16.8538 -30.6
      vertex 35.3254 -19.25 -37.6
      vertex 35.8786 -16.8538 -37.6
    endloop
  endfacet
  facet normal 0.97437 -0.22495 4.49344e-07
    outer loop
      vertex 35.2421 -19.6108 -30.6
      vertex 35.3254 -19.25 -37.6
      vertex 35.8786 -16.8538 -30.6
    endloop
  endfacet
  facet normal 0.974368 -0.224958 0
    outer loop
      vertex 35.2421 -19.6108 -40.6
      vertex 35.3254 -19.25 -37.6
      vertex 35.2421 -19.6108 -30.6
    endloop
  endfacet
  facet normal 0.974368 -0.224958 0
    outer loop
      vertex 35.3254 -19.25 -37.6
      vertex 35.2421 -19.6108 -40.6
      vertex 35.3254 -19.25 -40.6
    endloop
  endfacet
endsolid OpenSCAD_Model
