solid OpenSCAD_Model
  facet normal 0 0 1
    outer loop
      vertex -39.2375 6 0
      vertex -45.3375 0 0
      vertex -39.2375 -6 0
    endloop
  endfacet
  facet normal 0 0 1
    outer loop
      vertex -39.2375 6 0
      vertex -45.3521 0.398736 0
      vertex -45.3375 0 0
    endloop
  endfacet
  facet normal 0 0 1
    outer loop
      vertex -39.2375 6 0
      vertex -45.3957 0.795346 0
      vertex -45.3521 0.398736 0
    endloop
  endfacet
  facet normal 0 0 1
    outer loop
      vertex -39.2375 6 0
      vertex -45.4682 1.18771 0
      vertex -45.3957 0.795346 0
    endloop
  endfacet
  facet normal 0 0 1
    outer loop
      vertex -39.2375 6 0
      vertex -45.5691 1.57374 0
      vertex -45.4682 1.18771 0
    endloop
  endfacet
  facet normal 0 0 1
    outer loop
      vertex -39.2375 6 0
      vertex -45.6979 1.95137 0
      vertex -45.5691 1.57374 0
    endloop
  endfacet
  facet normal 0 0 1
    outer loop
      vertex -39.2375 6 0
      vertex -45.854 2.31859 0
      vertex -45.6979 1.95137 0
    endloop
  endfacet
  facet normal 0 0 1
    outer loop
      vertex -39.2375 6 0
      vertex -46.0364 2.67344 0
      vertex -45.854 2.31859 0
    endloop
  endfacet
  facet normal 0 0 1
    outer loop
      vertex -39.2375 6 0
      vertex -46.2443 3.01403 0
      vertex -46.0364 2.67344 0
    endloop
  endfacet
  facet normal 0 0 1
    outer loop
      vertex -39.2375 6 0
      vertex -46.4764 3.33854 0
      vertex -46.2443 3.01403 0
    endloop
  endfacet
  facet normal -0 0 1
    outer loop
      vertex -47.2375 6 0
      vertex -46.4764 3.33854 0
      vertex -39.2375 6 0
    endloop
  endfacet
  facet normal 0 0 1
    outer loop
      vertex -46.4764 3.33854 0
      vertex -47.2375 6 0
      vertex -46.7317 3.64523 0
    endloop
  endfacet
  facet normal 0 0 1
    outer loop
      vertex -46.7317 3.64523 0
      vertex -47.2375 6 0
      vertex -47.0086 3.93247 0
    endloop
  endfacet
  facet normal 0 0 1
    outer loop
      vertex -47.0086 3.93247 0
      vertex -47.2375 6 0
      vertex -47.2375 4.13755 0
    endloop
  endfacet
  facet normal -0 0 1
    outer loop
      vertex -45.3521 -0.398736 0
      vertex -39.2375 -6 0
      vertex -45.3375 0 0
    endloop
  endfacet
  facet normal -0 0 1
    outer loop
      vertex -45.3957 -0.795346 0
      vertex -39.2375 -6 0
      vertex -45.3521 -0.398736 0
    endloop
  endfacet
  facet normal -0 0 1
    outer loop
      vertex -45.4682 -1.18771 0
      vertex -39.2375 -6 0
      vertex -45.3957 -0.795346 0
    endloop
  endfacet
  facet normal -0 0 1
    outer loop
      vertex -45.5691 -1.57374 0
      vertex -39.2375 -6 0
      vertex -45.4682 -1.18771 0
    endloop
  endfacet
  facet normal -0 0 1
    outer loop
      vertex -45.6979 -1.95137 0
      vertex -39.2375 -6 0
      vertex -45.5691 -1.57374 0
    endloop
  endfacet
  facet normal -0 0 1
    outer loop
      vertex -45.854 -2.31859 0
      vertex -39.2375 -6 0
      vertex -45.6979 -1.95137 0
    endloop
  endfacet
  facet normal -0 0 1
    outer loop
      vertex -46.0364 -2.67344 0
      vertex -39.2375 -6 0
      vertex -45.854 -2.31859 0
    endloop
  endfacet
  facet normal -0 0 1
    outer loop
      vertex -46.2443 -3.01403 0
      vertex -39.2375 -6 0
      vertex -46.0364 -2.67344 0
    endloop
  endfacet
  facet normal -0 0 1
    outer loop
      vertex -46.4764 -3.33854 0
      vertex -39.2375 -6 0
      vertex -46.2443 -3.01403 0
    endloop
  endfacet
  facet normal 0 0 1
    outer loop
      vertex -47.2375 -6 0
      vertex -46.4764 -3.33854 0
      vertex -46.7317 -3.64523 0
    endloop
  endfacet
  facet normal 0 0 1
    outer loop
      vertex -47.2375 -6 0
      vertex -46.7317 -3.64523 0
      vertex -47.0086 -3.93247 0
    endloop
  endfacet
  facet normal 0 0 1
    outer loop
      vertex -47.2375 -6 0
      vertex -47.0086 -3.93247 0
      vertex -47.2375 -4.13755 0
    endloop
  endfacet
  facet normal 0 0 1
    outer loop
      vertex -46.4764 -3.33854 0
      vertex -47.2375 -6 0
      vertex -39.2375 -6 0
    endloop
  endfacet
  facet normal 0 0 1
    outer loop
      vertex 47.2375 6 0
      vertex 47.0086 3.93247 0
      vertex 47.2375 4.13755 0
    endloop
  endfacet
  facet normal 0 0 1
    outer loop
      vertex 47.2375 6 0
      vertex 46.7317 3.64523 0
      vertex 47.0086 3.93247 0
    endloop
  endfacet
  facet normal 0 0 1
    outer loop
      vertex 47.2375 6 0
      vertex 46.4764 3.33854 0
      vertex 46.7317 3.64523 0
    endloop
  endfacet
  facet normal 0 0 1
    outer loop
      vertex 47.2375 6 0
      vertex 46.2443 3.01403 0
      vertex 46.4764 3.33854 0
    endloop
  endfacet
  facet normal 0 0 1
    outer loop
      vertex 47.2375 6 0
      vertex 46.0364 2.67344 0
      vertex 46.2443 3.01403 0
    endloop
  endfacet
  facet normal 0 0 1
    outer loop
      vertex 47.2375 6 0
      vertex 45.854 2.31859 0
      vertex 46.0364 2.67344 0
    endloop
  endfacet
  facet normal -0 0 1
    outer loop
      vertex -29.2375 6 0
      vertex 45.854 2.31859 0
      vertex 47.2375 6 0
    endloop
  endfacet
  facet normal 0 0 1
    outer loop
      vertex 45.3521 0.398736 0
      vertex -29.2375 6 0
      vertex 45.3375 0 0
    endloop
  endfacet
  facet normal 0 0 1
    outer loop
      vertex 45.3957 0.795346 0
      vertex -29.2375 6 0
      vertex 45.3521 0.398736 0
    endloop
  endfacet
  facet normal 0 0 1
    outer loop
      vertex 45.4682 1.18771 0
      vertex -29.2375 6 0
      vertex 45.3957 0.795346 0
    endloop
  endfacet
  facet normal 0 0 1
    outer loop
      vertex 45.5691 1.57374 0
      vertex -29.2375 6 0
      vertex 45.4682 1.18771 0
    endloop
  endfacet
  facet normal 0 0 1
    outer loop
      vertex 45.6979 1.95137 0
      vertex -29.2375 6 0
      vertex 45.5691 1.57374 0
    endloop
  endfacet
  facet normal 0 0 1
    outer loop
      vertex 45.854 2.31859 0
      vertex -29.2375 6 0
      vertex 45.6979 1.95137 0
    endloop
  endfacet
  facet normal 0 0 1
    outer loop
      vertex 47.0086 -3.93247 0
      vertex 47.2375 -6 0
      vertex 47.2375 -4.13755 0
    endloop
  endfacet
  facet normal 0 0 1
    outer loop
      vertex 46.7317 -3.64523 0
      vertex 47.2375 -6 0
      vertex 47.0086 -3.93247 0
    endloop
  endfacet
  facet normal 0 0 1
    outer loop
      vertex 46.4764 -3.33854 0
      vertex 47.2375 -6 0
      vertex 46.7317 -3.64523 0
    endloop
  endfacet
  facet normal 0 0 1
    outer loop
      vertex 46.2443 -3.01403 0
      vertex 47.2375 -6 0
      vertex 46.4764 -3.33854 0
    endloop
  endfacet
  facet normal 0 0 1
    outer loop
      vertex 46.0364 -2.67344 0
      vertex 47.2375 -6 0
      vertex 46.2443 -3.01403 0
    endloop
  endfacet
  facet normal 0 0 1
    outer loop
      vertex 45.854 -2.31859 0
      vertex 47.2375 -6 0
      vertex 46.0364 -2.67344 0
    endloop
  endfacet
  facet normal 0 0 1
    outer loop
      vertex -29.2375 -6 0
      vertex 45.854 -2.31859 0
      vertex 45.6979 -1.95137 0
    endloop
  endfacet
  facet normal 0 0 1
    outer loop
      vertex -29.2375 -6 0
      vertex 45.3375 0 0
      vertex -29.2375 6 0
    endloop
  endfacet
  facet normal 0 0 1
    outer loop
      vertex 45.3375 0 0
      vertex -29.2375 -6 0
      vertex 45.3521 -0.398736 0
    endloop
  endfacet
  facet normal 0 0 1
    outer loop
      vertex 45.3521 -0.398736 0
      vertex -29.2375 -6 0
      vertex 45.3957 -0.795346 0
    endloop
  endfacet
  facet normal 0 0 1
    outer loop
      vertex 45.3957 -0.795346 0
      vertex -29.2375 -6 0
      vertex 45.4682 -1.18771 0
    endloop
  endfacet
  facet normal 0 0 1
    outer loop
      vertex 45.4682 -1.18771 0
      vertex -29.2375 -6 0
      vertex 45.5691 -1.57374 0
    endloop
  endfacet
  facet normal 0 0 1
    outer loop
      vertex 45.5691 -1.57374 0
      vertex -29.2375 -6 0
      vertex 45.6979 -1.95137 0
    endloop
  endfacet
  facet normal 0 0 1
    outer loop
      vertex 45.854 -2.31859 0
      vertex -29.2375 -6 0
      vertex 47.2375 -6 0
    endloop
  endfacet
  facet normal -0 0 1
    outer loop
      vertex -36.2375 6 0
      vertex -32.2375 -6 0
      vertex -32.2375 6 0
    endloop
  endfacet
  facet normal 0 0 1
    outer loop
      vertex -32.2375 -6 0
      vertex -36.2375 6 0
      vertex -36.2375 -6 0
    endloop
  endfacet
  facet normal 0 0 -1
    outer loop
      vertex -46.7375 -6 -6
      vertex -47.0086 -3.93247 -6
      vertex -46.7375 -3.65126 -6
    endloop
  endfacet
  facet normal 0 0 -1
    outer loop
      vertex -47.2375 -4.13755 -6
      vertex -46.7375 -6 -6
      vertex -47.2375 -6 -6
    endloop
  endfacet
  facet normal 0 0 -1
    outer loop
      vertex -46.7375 -6 -6
      vertex -47.2375 -4.13755 -6
      vertex -47.0086 -3.93247 -6
    endloop
  endfacet
  facet normal 0 0 -1
    outer loop
      vertex 46.7375 -6 -6
      vertex 47.2375 -4.13755 -6
      vertex 47.2375 -6 -6
    endloop
  endfacet
  facet normal -0 0 -1
    outer loop
      vertex 47.2375 -4.13755 -6
      vertex 46.7375 -6 -6
      vertex 47.0086 -3.93247 -6
    endloop
  endfacet
  facet normal -0 0 -1
    outer loop
      vertex 47.0086 -3.93247 -6
      vertex 46.7375 -6 -6
      vertex 46.7375 -3.65126 -6
    endloop
  endfacet
  facet normal 0 0 -1
    outer loop
      vertex -47.0086 3.93247 -6
      vertex -46.7375 6 -6
      vertex -46.7375 3.65126 -6
    endloop
  endfacet
  facet normal 0 0 -1
    outer loop
      vertex -47.2375 4.13755 -6
      vertex -46.7375 6 -6
      vertex -47.0086 3.93247 -6
    endloop
  endfacet
  facet normal -0 0 -1
    outer loop
      vertex -46.7375 6 -6
      vertex -47.2375 4.13755 -6
      vertex -47.2375 6 -6
    endloop
  endfacet
  facet normal 0 0 -1
    outer loop
      vertex 46.7375 6 -6
      vertex 47.2375 4.13755 -6
      vertex 47.0086 3.93247 -6
    endloop
  endfacet
  facet normal 0 0 -1
    outer loop
      vertex 46.7375 6 -6
      vertex 47.0086 3.93247 -6
      vertex 46.7375 3.65126 -6
    endloop
  endfacet
  facet normal 0 0 -1
    outer loop
      vertex 47.2375 4.13755 -6
      vertex 46.7375 6 -6
      vertex 47.2375 6 -6
    endloop
  endfacet
  facet normal 1 -0 0
    outer loop
      vertex 46.7375 3.65126 -6
      vertex 46.7375 6 -25
      vertex 46.7375 6 -6
    endloop
  endfacet
  facet normal 1 0 0
    outer loop
      vertex 46.7375 6 -25
      vertex 46.7375 3.65126 -6
      vertex 46.7375 3.65126 -25
    endloop
  endfacet
  facet normal 1 -0 0
    outer loop
      vertex 46.7375 -6 -6
      vertex 46.7375 -3.65126 -25
      vertex 46.7375 -3.65126 -6
    endloop
  endfacet
  facet normal 1 0 0
    outer loop
      vertex 46.7375 -3.65126 -25
      vertex 46.7375 -6 -6
      vertex 46.7375 -6 -25
    endloop
  endfacet
  facet normal 0 0 -1
    outer loop
      vertex -34.1827 -6 -25
      vertex -45.3375 0 -25
      vertex -34.1827 6 -25
    endloop
  endfacet
  facet normal 0 0 -1
    outer loop
      vertex -34.1827 -6 -25
      vertex -45.3521 -0.398736 -25
      vertex -45.3375 0 -25
    endloop
  endfacet
  facet normal 0 0 -1
    outer loop
      vertex -34.1827 -6 -25
      vertex -45.3957 -0.795346 -25
      vertex -45.3521 -0.398736 -25
    endloop
  endfacet
  facet normal 0 0 -1
    outer loop
      vertex -34.1827 -6 -25
      vertex -45.4682 -1.18771 -25
      vertex -45.3957 -0.795346 -25
    endloop
  endfacet
  facet normal 0 0 -1
    outer loop
      vertex -34.1827 -6 -25
      vertex -45.5691 -1.57374 -25
      vertex -45.4682 -1.18771 -25
    endloop
  endfacet
  facet normal 0 0 -1
    outer loop
      vertex -34.1827 -6 -25
      vertex -45.6979 -1.95137 -25
      vertex -45.5691 -1.57374 -25
    endloop
  endfacet
  facet normal 0 0 -1
    outer loop
      vertex -34.1827 -6 -25
      vertex -45.854 -2.31859 -25
      vertex -45.6979 -1.95137 -25
    endloop
  endfacet
  facet normal 0 0 -1
    outer loop
      vertex -34.1827 -6 -25
      vertex -46.0364 -2.67344 -25
      vertex -45.854 -2.31859 -25
    endloop
  endfacet
  facet normal 0 0 -1
    outer loop
      vertex -46.7375 -6 -25
      vertex -46.0364 -2.67344 -25
      vertex -34.1827 -6 -25
    endloop
  endfacet
  facet normal 0 0 -1
    outer loop
      vertex -46.0364 -2.67344 -25
      vertex -46.7375 -6 -25
      vertex -46.2443 -3.01403 -25
    endloop
  endfacet
  facet normal 0 0 -1
    outer loop
      vertex -46.2443 -3.01403 -25
      vertex -46.7375 -6 -25
      vertex -46.4764 -3.33854 -25
    endloop
  endfacet
  facet normal 0 0 -1
    outer loop
      vertex -46.4764 -3.33854 -25
      vertex -46.7375 -6 -25
      vertex -46.7317 -3.64523 -25
    endloop
  endfacet
  facet normal 0 0 -1
    outer loop
      vertex -46.7317 -3.64523 -25
      vertex -46.7375 -6 -25
      vertex -46.7375 -3.65126 -25
    endloop
  endfacet
  facet normal 0 0 -1
    outer loop
      vertex -45.3521 0.398736 -25
      vertex -34.1827 6 -25
      vertex -45.3375 0 -25
    endloop
  endfacet
  facet normal 0 0 -1
    outer loop
      vertex -45.3957 0.795346 -25
      vertex -34.1827 6 -25
      vertex -45.3521 0.398736 -25
    endloop
  endfacet
  facet normal 0 0 -1
    outer loop
      vertex -45.4682 1.18771 -25
      vertex -34.1827 6 -25
      vertex -45.3957 0.795346 -25
    endloop
  endfacet
  facet normal 0 0 -1
    outer loop
      vertex -45.5691 1.57374 -25
      vertex -34.1827 6 -25
      vertex -45.4682 1.18771 -25
    endloop
  endfacet
  facet normal 0 0 -1
    outer loop
      vertex -45.6979 1.95137 -25
      vertex -34.1827 6 -25
      vertex -45.5691 1.57374 -25
    endloop
  endfacet
  facet normal 0 0 -1
    outer loop
      vertex -45.854 2.31859 -25
      vertex -34.1827 6 -25
      vertex -45.6979 1.95137 -25
    endloop
  endfacet
  facet normal 0 0 -1
    outer loop
      vertex -46.0364 2.67344 -25
      vertex -34.1827 6 -25
      vertex -45.854 2.31859 -25
    endloop
  endfacet
  facet normal 0 0 -1
    outer loop
      vertex -46.7375 6 -25
      vertex -46.0364 2.67344 -25
      vertex -46.2443 3.01403 -25
    endloop
  endfacet
  facet normal 0 0 -1
    outer loop
      vertex -46.7375 6 -25
      vertex -46.2443 3.01403 -25
      vertex -46.4764 3.33854 -25
    endloop
  endfacet
  facet normal 0 0 -1
    outer loop
      vertex -46.7375 6 -25
      vertex -46.4764 3.33854 -25
      vertex -46.7317 3.64523 -25
    endloop
  endfacet
  facet normal 0 0 -1
    outer loop
      vertex -46.7375 6 -25
      vertex -46.7317 3.64523 -25
      vertex -46.7375 3.65126 -25
    endloop
  endfacet
  facet normal 0 0 -1
    outer loop
      vertex -46.0364 2.67344 -25
      vertex -46.7375 6 -25
      vertex -34.1827 6 -25
    endloop
  endfacet
  facet normal 0 0 -1
    outer loop
      vertex 46.7375 -6 -25
      vertex 46.7317 -3.64523 -25
      vertex 46.7375 -3.65126 -25
    endloop
  endfacet
  facet normal 0 0 -1
    outer loop
      vertex 46.7375 -6 -25
      vertex 46.4764 -3.33854 -25
      vertex 46.7317 -3.64523 -25
    endloop
  endfacet
  facet normal 0 0 -1
    outer loop
      vertex 46.7375 -6 -25
      vertex 46.2443 -3.01403 -25
      vertex 46.4764 -3.33854 -25
    endloop
  endfacet
  facet normal 0 0 -1
    outer loop
      vertex 46.7375 -6 -25
      vertex 46.0364 -2.67344 -25
      vertex 46.2443 -3.01403 -25
    endloop
  endfacet
  facet normal 0 0 -1
    outer loop
      vertex 36.2497 -6 -25
      vertex 46.0364 -2.67344 -25
      vertex 46.7375 -6 -25
    endloop
  endfacet
  facet normal -0 0 -1
    outer loop
      vertex 46.0364 -2.67344 -25
      vertex 36.2497 -6 -25
      vertex 45.854 -2.31859 -25
    endloop
  endfacet
  facet normal -0 0 -1
    outer loop
      vertex 45.854 -2.31859 -25
      vertex 36.2497 -6 -25
      vertex 45.6979 -1.95137 -25
    endloop
  endfacet
  facet normal -0 0 -1
    outer loop
      vertex 45.3521 -0.398736 -25
      vertex 36.2497 -6 -25
      vertex 45.3375 0 -25
    endloop
  endfacet
  facet normal -0 0 -1
    outer loop
      vertex 45.3957 -0.795346 -25
      vertex 36.2497 -6 -25
      vertex 45.3521 -0.398736 -25
    endloop
  endfacet
  facet normal -0 0 -1
    outer loop
      vertex 45.4682 -1.18771 -25
      vertex 36.2497 -6 -25
      vertex 45.3957 -0.795346 -25
    endloop
  endfacet
  facet normal -0 0 -1
    outer loop
      vertex 45.5691 -1.57374 -25
      vertex 36.2497 -6 -25
      vertex 45.4682 -1.18771 -25
    endloop
  endfacet
  facet normal -0 0 -1
    outer loop
      vertex 45.6979 -1.95137 -25
      vertex 36.2497 -6 -25
      vertex 45.5691 -1.57374 -25
    endloop
  endfacet
  facet normal 0 0 -1
    outer loop
      vertex 46.7317 3.64523 -25
      vertex 46.7375 6 -25
      vertex 46.7375 3.65126 -25
    endloop
  endfacet
  facet normal 0 0 -1
    outer loop
      vertex 46.4764 3.33854 -25
      vertex 46.7375 6 -25
      vertex 46.7317 3.64523 -25
    endloop
  endfacet
  facet normal 0 0 -1
    outer loop
      vertex 46.2443 3.01403 -25
      vertex 46.7375 6 -25
      vertex 46.4764 3.33854 -25
    endloop
  endfacet
  facet normal 0 0 -1
    outer loop
      vertex 46.0364 2.67344 -25
      vertex 46.7375 6 -25
      vertex 46.2443 3.01403 -25
    endloop
  endfacet
  facet normal 0 0 -1
    outer loop
      vertex 36.2497 6 -25
      vertex 46.0364 2.67344 -25
      vertex 45.854 2.31859 -25
    endloop
  endfacet
  facet normal 0 0 -1
    outer loop
      vertex 36.2497 6 -25
      vertex 45.854 2.31859 -25
      vertex 45.6979 1.95137 -25
    endloop
  endfacet
  facet normal 0 0 -1
    outer loop
      vertex 36.2497 6 -25
      vertex 45.6979 1.95137 -25
      vertex 45.5691 1.57374 -25
    endloop
  endfacet
  facet normal 0 0 -1
    outer loop
      vertex 36.2497 6 -25
      vertex 45.3375 0 -25
      vertex 36.2497 -6 -25
    endloop
  endfacet
  facet normal 0 0 -1
    outer loop
      vertex 45.3375 0 -25
      vertex 36.2497 6 -25
      vertex 45.3521 0.398736 -25
    endloop
  endfacet
  facet normal 0 0 -1
    outer loop
      vertex 45.3521 0.398736 -25
      vertex 36.2497 6 -25
      vertex 45.3957 0.795346 -25
    endloop
  endfacet
  facet normal 0 0 -1
    outer loop
      vertex 45.3957 0.795346 -25
      vertex 36.2497 6 -25
      vertex 45.4682 1.18771 -25
    endloop
  endfacet
  facet normal 0 0 -1
    outer loop
      vertex 45.4682 1.18771 -25
      vertex 36.2497 6 -25
      vertex 45.5691 1.57374 -25
    endloop
  endfacet
  facet normal 0 0 -1
    outer loop
      vertex 46.0364 2.67344 -25
      vertex 36.2497 6 -25
      vertex 46.7375 6 -25
    endloop
  endfacet
  facet normal -1 0 0
    outer loop
      vertex -46.7375 3.65126 -25
      vertex -46.7375 6 -6
      vertex -46.7375 6 -25
    endloop
  endfacet
  facet normal -1 -0 0
    outer loop
      vertex -46.7375 6 -6
      vertex -46.7375 3.65126 -25
      vertex -46.7375 3.65126 -6
    endloop
  endfacet
  facet normal -1 0 0
    outer loop
      vertex -46.7375 -6 -25
      vertex -46.7375 -3.65126 -6
      vertex -46.7375 -3.65126 -25
    endloop
  endfacet
  facet normal -1 -0 0
    outer loop
      vertex -46.7375 -3.65126 -6
      vertex -46.7375 -6 -25
      vertex -46.7375 -6 -6
    endloop
  endfacet
  facet normal 0.920302 0.391208 0
    outer loop
      vertex 45.854 -2.31859 0
      vertex 45.6979 -1.95137 -25
      vertex 45.6979 -1.95137 0
    endloop
  endfacet
  facet normal 0.920302 0.391208 0
    outer loop
      vertex 45.6979 -1.95137 -25
      vertex 45.854 -2.31859 0
      vertex 45.854 -2.31859 -25
    endloop
  endfacet
  facet normal 0.946462 0.322814 0
    outer loop
      vertex 45.6979 -1.95137 0
      vertex 45.5691 -1.57374 -25
      vertex 45.5691 -1.57374 0
    endloop
  endfacet
  facet normal 0.946462 0.322814 0
    outer loop
      vertex 45.5691 -1.57374 -25
      vertex 45.6979 -1.95137 0
      vertex 45.6979 -1.95137 -25
    endloop
  endfacet
  facet normal 0.983354 0.181702 0
    outer loop
      vertex 45.4682 -1.18771 0
      vertex 45.3957 -0.795346 -25
      vertex 45.3957 -0.795346 0
    endloop
  endfacet
  facet normal 0.983354 0.181702 0
    outer loop
      vertex 45.3957 -0.795346 -25
      vertex 45.4682 -1.18771 0
      vertex 45.4682 -1.18771 -25
    endloop
  endfacet
  facet normal 0.853547 -0.521015 0
    outer loop
      vertex 46.0364 2.67344 0
      vertex 46.2443 3.01403 -25
      vertex 46.2443 3.01403 0
    endloop
  endfacet
  facet normal 0.853547 -0.521015 0
    outer loop
      vertex 46.2443 3.01403 -25
      vertex 46.0364 2.67344 0
      vertex 46.0364 2.67344 -25
    endloop
  endfacet
  facet normal 0.71993 -0.694047 0
    outer loop
      vertex 47.0086 3.93247 0
      vertex 46.7375 3.65126 -6
      vertex 47.0086 3.93247 -6
    endloop
  endfacet
  facet normal 0.719946 -0.69403 -1.5519e-06
    outer loop
      vertex 46.7317 3.64523 0
      vertex 46.7375 3.65126 -6
      vertex 47.0086 3.93247 0
    endloop
  endfacet
  facet normal 0.720718 -0.693228 0
    outer loop
      vertex 46.7317 3.64523 -25
      vertex 46.7375 3.65126 -6
      vertex 46.7317 3.64523 0
    endloop
  endfacet
  facet normal 0.720718 -0.693228 0
    outer loop
      vertex 46.7375 3.65126 -6
      vertex 46.7317 3.64523 -25
      vertex 46.7375 3.65126 -25
    endloop
  endfacet
  facet normal 0.813369 -0.581748 0
    outer loop
      vertex 46.2443 3.01403 0
      vertex 46.4764 3.33854 -25
      vertex 46.4764 3.33854 0
    endloop
  endfacet
  facet normal 0.813369 -0.581748 0
    outer loop
      vertex 46.4764 3.33854 -25
      vertex 46.2443 3.01403 0
      vertex 46.2443 3.01403 -25
    endloop
  endfacet
  facet normal 0.889384 0.457161 0
    outer loop
      vertex 46.0364 -2.67344 0
      vertex 45.854 -2.31859 -25
      vertex 45.854 -2.31859 0
    endloop
  endfacet
  facet normal 0.889384 0.457161 0
    outer loop
      vertex 45.854 -2.31859 -25
      vertex 46.0364 -2.67344 0
      vertex 46.0364 -2.67344 -25
    endloop
  endfacet
  facet normal 0.76856 -0.639778 0
    outer loop
      vertex 46.4764 3.33854 0
      vertex 46.7317 3.64523 -25
      vertex 46.7317 3.64523 0
    endloop
  endfacet
  facet normal 0.76856 -0.639778 0
    outer loop
      vertex 46.7317 3.64523 -25
      vertex 46.4764 3.33854 0
      vertex 46.4764 3.33854 -25
    endloop
  endfacet
  facet normal 0.667291 -0.744797 0
    outer loop
      vertex 47.0086 3.93247 -6
      vertex 47.2375 4.13755 0
      vertex 47.0086 3.93247 0
    endloop
  endfacet
  facet normal 0.667291 -0.744797 0
    outer loop
      vertex 47.2375 4.13755 0
      vertex 47.0086 3.93247 -6
      vertex 47.2375 4.13755 -6
    endloop
  endfacet
  facet normal 0.667291 0.744797 -0
    outer loop
      vertex 47.2375 -4.13755 -6
      vertex 47.0086 -3.93247 0
      vertex 47.2375 -4.13755 0
    endloop
  endfacet
  facet normal 0.667291 0.744797 0
    outer loop
      vertex 47.0086 -3.93247 0
      vertex 47.2375 -4.13755 -6
      vertex 47.0086 -3.93247 -6
    endloop
  endfacet
  facet normal 0.967497 0.252883 0
    outer loop
      vertex 45.5691 -1.57374 0
      vertex 45.4682 -1.18771 -25
      vertex 45.4682 -1.18771 0
    endloop
  endfacet
  facet normal 0.967497 0.252883 0
    outer loop
      vertex 45.4682 -1.18771 -25
      vertex 45.5691 -1.57374 0
      vertex 45.5691 -1.57374 -25
    endloop
  endfacet
  facet normal 0.983354 -0.181702 0
    outer loop
      vertex 45.3957 0.795346 0
      vertex 45.4682 1.18771 -25
      vertex 45.4682 1.18771 0
    endloop
  endfacet
  facet normal 0.983354 -0.181702 0
    outer loop
      vertex 45.4682 1.18771 -25
      vertex 45.3957 0.795346 0
      vertex 45.3957 0.795346 -25
    endloop
  endfacet
  facet normal 0.813369 0.581748 0
    outer loop
      vertex 46.4764 -3.33854 0
      vertex 46.2443 -3.01403 -25
      vertex 46.2443 -3.01403 0
    endloop
  endfacet
  facet normal 0.813369 0.581748 0
    outer loop
      vertex 46.2443 -3.01403 -25
      vertex 46.4764 -3.33854 0
      vertex 46.4764 -3.33854 -25
    endloop
  endfacet
  facet normal 0.99933 0.0365912 0
    outer loop
      vertex 45.3521 -0.398736 0
      vertex 45.3375 0 -25
      vertex 45.3375 0 0
    endloop
  endfacet
  facet normal 0.99933 0.0365912 0
    outer loop
      vertex 45.3375 0 -25
      vertex 45.3521 -0.398736 0
      vertex 45.3521 -0.398736 -25
    endloop
  endfacet
  facet normal 0.994012 0.109273 0
    outer loop
      vertex 45.3957 -0.795346 0
      vertex 45.3521 -0.398736 -25
      vertex 45.3521 -0.398736 0
    endloop
  endfacet
  facet normal 0.994012 0.109273 0
    outer loop
      vertex 45.3521 -0.398736 -25
      vertex 45.3957 -0.795346 0
      vertex 45.3957 -0.795346 -25
    endloop
  endfacet
  facet normal 0.946462 -0.322814 0
    outer loop
      vertex 45.5691 1.57374 0
      vertex 45.6979 1.95137 -25
      vertex 45.6979 1.95137 0
    endloop
  endfacet
  facet normal 0.946462 -0.322814 0
    outer loop
      vertex 45.6979 1.95137 -25
      vertex 45.5691 1.57374 0
      vertex 45.5691 1.57374 -25
    endloop
  endfacet
  facet normal 0.853547 0.521015 0
    outer loop
      vertex 46.2443 -3.01403 0
      vertex 46.0364 -2.67344 -25
      vertex 46.0364 -2.67344 0
    endloop
  endfacet
  facet normal 0.853547 0.521015 0
    outer loop
      vertex 46.0364 -2.67344 -25
      vertex 46.2443 -3.01403 0
      vertex 46.2443 -3.01403 -25
    endloop
  endfacet
  facet normal 0.99933 -0.0365912 0
    outer loop
      vertex 45.3375 0 0
      vertex 45.3521 0.398736 -25
      vertex 45.3521 0.398736 0
    endloop
  endfacet
  facet normal 0.99933 -0.0365912 0
    outer loop
      vertex 45.3521 0.398736 -25
      vertex 45.3375 0 0
      vertex 45.3375 0 -25
    endloop
  endfacet
  facet normal 0.967497 -0.252883 0
    outer loop
      vertex 45.4682 1.18771 0
      vertex 45.5691 1.57374 -25
      vertex 45.5691 1.57374 0
    endloop
  endfacet
  facet normal 0.967497 -0.252883 0
    outer loop
      vertex 45.5691 1.57374 -25
      vertex 45.4682 1.18771 0
      vertex 45.4682 1.18771 -25
    endloop
  endfacet
  facet normal 0.994012 -0.109273 0
    outer loop
      vertex 45.3521 0.398736 0
      vertex 45.3957 0.795346 -25
      vertex 45.3957 0.795346 0
    endloop
  endfacet
  facet normal 0.994012 -0.109273 0
    outer loop
      vertex 45.3957 0.795346 -25
      vertex 45.3521 0.398736 0
      vertex 45.3521 0.398736 -25
    endloop
  endfacet
  facet normal 0.920302 -0.391208 0
    outer loop
      vertex 45.6979 1.95137 0
      vertex 45.854 2.31859 -25
      vertex 45.854 2.31859 0
    endloop
  endfacet
  facet normal 0.920302 -0.391208 0
    outer loop
      vertex 45.854 2.31859 -25
      vertex 45.6979 1.95137 0
      vertex 45.6979 1.95137 -25
    endloop
  endfacet
  facet normal 0.889384 -0.457161 0
    outer loop
      vertex 45.854 2.31859 0
      vertex 46.0364 2.67344 -25
      vertex 46.0364 2.67344 0
    endloop
  endfacet
  facet normal 0.889384 -0.457161 0
    outer loop
      vertex 46.0364 2.67344 -25
      vertex 45.854 2.31859 0
      vertex 45.854 2.31859 -25
    endloop
  endfacet
  facet normal 0.76856 0.639778 0
    outer loop
      vertex 46.7317 -3.64523 0
      vertex 46.4764 -3.33854 -25
      vertex 46.4764 -3.33854 0
    endloop
  endfacet
  facet normal 0.76856 0.639778 0
    outer loop
      vertex 46.4764 -3.33854 -25
      vertex 46.7317 -3.64523 0
      vertex 46.7317 -3.64523 -25
    endloop
  endfacet
  facet normal 0.720718 0.693228 0
    outer loop
      vertex 46.7317 -3.64523 0
      vertex 46.7375 -3.65126 -6
      vertex 46.7317 -3.64523 -25
    endloop
  endfacet
  facet normal 0.719946 0.69403 -1.5519e-06
    outer loop
      vertex 47.0086 -3.93247 0
      vertex 46.7375 -3.65126 -6
      vertex 46.7317 -3.64523 0
    endloop
  endfacet
  facet normal 0.71993 0.694047 0
    outer loop
      vertex 46.7375 -3.65126 -6
      vertex 47.0086 -3.93247 0
      vertex 47.0086 -3.93247 -6
    endloop
  endfacet
  facet normal 0.720718 0.693228 0
    outer loop
      vertex 46.7317 -3.64523 -25
      vertex 46.7375 -3.65126 -6
      vertex 46.7375 -3.65126 -25
    endloop
  endfacet
  facet normal -0.667291 -0.744797 0
    outer loop
      vertex -47.2375 4.13755 -6
      vertex -47.0086 3.93247 0
      vertex -47.2375 4.13755 0
    endloop
  endfacet
  facet normal -0.667291 -0.744797 -0
    outer loop
      vertex -47.0086 3.93247 0
      vertex -47.2375 4.13755 -6
      vertex -47.0086 3.93247 -6
    endloop
  endfacet
  facet normal -0.994012 -0.109273 0
    outer loop
      vertex -45.3521 0.398736 -25
      vertex -45.3957 0.795346 0
      vertex -45.3957 0.795346 -25
    endloop
  endfacet
  facet normal -0.994012 -0.109273 0
    outer loop
      vertex -45.3957 0.795346 0
      vertex -45.3521 0.398736 -25
      vertex -45.3521 0.398736 0
    endloop
  endfacet
  facet normal -0.99933 -0.0365912 0
    outer loop
      vertex -45.3375 0 -25
      vertex -45.3521 0.398736 0
      vertex -45.3521 0.398736 -25
    endloop
  endfacet
  facet normal -0.99933 -0.0365912 0
    outer loop
      vertex -45.3521 0.398736 0
      vertex -45.3375 0 -25
      vertex -45.3375 0 0
    endloop
  endfacet
  facet normal -0.983354 0.181702 0
    outer loop
      vertex -45.4682 -1.18771 -25
      vertex -45.3957 -0.795346 0
      vertex -45.3957 -0.795346 -25
    endloop
  endfacet
  facet normal -0.983354 0.181702 0
    outer loop
      vertex -45.3957 -0.795346 0
      vertex -45.4682 -1.18771 -25
      vertex -45.4682 -1.18771 0
    endloop
  endfacet
  facet normal -0.99933 0.0365912 0
    outer loop
      vertex -45.3521 -0.398736 -25
      vertex -45.3375 0 0
      vertex -45.3375 0 -25
    endloop
  endfacet
  facet normal -0.99933 0.0365912 0
    outer loop
      vertex -45.3375 0 0
      vertex -45.3521 -0.398736 -25
      vertex -45.3521 -0.398736 0
    endloop
  endfacet
  facet normal -0.920302 -0.391208 0
    outer loop
      vertex -45.6979 1.95137 -25
      vertex -45.854 2.31859 0
      vertex -45.854 2.31859 -25
    endloop
  endfacet
  facet normal -0.920302 -0.391208 0
    outer loop
      vertex -45.854 2.31859 0
      vertex -45.6979 1.95137 -25
      vertex -45.6979 1.95137 0
    endloop
  endfacet
  facet normal -0.920302 0.391208 0
    outer loop
      vertex -45.854 -2.31859 -25
      vertex -45.6979 -1.95137 0
      vertex -45.6979 -1.95137 -25
    endloop
  endfacet
  facet normal -0.920302 0.391208 0
    outer loop
      vertex -45.6979 -1.95137 0
      vertex -45.854 -2.31859 -25
      vertex -45.854 -2.31859 0
    endloop
  endfacet
  facet normal -0.889384 -0.457161 0
    outer loop
      vertex -45.854 2.31859 -25
      vertex -46.0364 2.67344 0
      vertex -46.0364 2.67344 -25
    endloop
  endfacet
  facet normal -0.889384 -0.457161 0
    outer loop
      vertex -46.0364 2.67344 0
      vertex -45.854 2.31859 -25
      vertex -45.854 2.31859 0
    endloop
  endfacet
  facet normal -0.667291 0.744797 0
    outer loop
      vertex -47.0086 -3.93247 -6
      vertex -47.2375 -4.13755 0
      vertex -47.0086 -3.93247 0
    endloop
  endfacet
  facet normal -0.667291 0.744797 0
    outer loop
      vertex -47.2375 -4.13755 0
      vertex -47.0086 -3.93247 -6
      vertex -47.2375 -4.13755 -6
    endloop
  endfacet
  facet normal -0.946462 -0.322814 0
    outer loop
      vertex -45.5691 1.57374 -25
      vertex -45.6979 1.95137 0
      vertex -45.6979 1.95137 -25
    endloop
  endfacet
  facet normal -0.946462 -0.322814 0
    outer loop
      vertex -45.6979 1.95137 0
      vertex -45.5691 1.57374 -25
      vertex -45.5691 1.57374 0
    endloop
  endfacet
  facet normal -0.813369 -0.581748 0
    outer loop
      vertex -46.2443 3.01403 -25
      vertex -46.4764 3.33854 0
      vertex -46.4764 3.33854 -25
    endloop
  endfacet
  facet normal -0.813369 -0.581748 0
    outer loop
      vertex -46.4764 3.33854 0
      vertex -46.2443 3.01403 -25
      vertex -46.2443 3.01403 0
    endloop
  endfacet
  facet normal -0.71993 -0.694047 0
    outer loop
      vertex -46.7375 3.65126 -6
      vertex -47.0086 3.93247 0
      vertex -47.0086 3.93247 -6
    endloop
  endfacet
  facet normal -0.719946 -0.69403 -1.5519e-06
    outer loop
      vertex -46.7375 3.65126 -6
      vertex -46.7317 3.64523 0
      vertex -47.0086 3.93247 0
    endloop
  endfacet
  facet normal -0.720718 -0.693228 -0
    outer loop
      vertex -46.7317 3.64523 0
      vertex -46.7375 3.65126 -6
      vertex -46.7317 3.64523 -25
    endloop
  endfacet
  facet normal -0.720718 -0.693228 0
    outer loop
      vertex -46.7375 3.65126 -25
      vertex -46.7317 3.64523 -25
      vertex -46.7375 3.65126 -6
    endloop
  endfacet
  facet normal -0.946462 0.322814 0
    outer loop
      vertex -45.6979 -1.95137 -25
      vertex -45.5691 -1.57374 0
      vertex -45.5691 -1.57374 -25
    endloop
  endfacet
  facet normal -0.946462 0.322814 0
    outer loop
      vertex -45.5691 -1.57374 0
      vertex -45.6979 -1.95137 -25
      vertex -45.6979 -1.95137 0
    endloop
  endfacet
  facet normal -0.76856 -0.639778 0
    outer loop
      vertex -46.4764 3.33854 -25
      vertex -46.7317 3.64523 0
      vertex -46.7317 3.64523 -25
    endloop
  endfacet
  facet normal -0.76856 -0.639778 0
    outer loop
      vertex -46.7317 3.64523 0
      vertex -46.4764 3.33854 -25
      vertex -46.4764 3.33854 0
    endloop
  endfacet
  facet normal -0.853547 -0.521015 0
    outer loop
      vertex -46.0364 2.67344 -25
      vertex -46.2443 3.01403 0
      vertex -46.2443 3.01403 -25
    endloop
  endfacet
  facet normal -0.853547 -0.521015 0
    outer loop
      vertex -46.2443 3.01403 0
      vertex -46.0364 2.67344 -25
      vertex -46.0364 2.67344 0
    endloop
  endfacet
  facet normal -0.994012 0.109273 0
    outer loop
      vertex -45.3957 -0.795346 -25
      vertex -45.3521 -0.398736 0
      vertex -45.3521 -0.398736 -25
    endloop
  endfacet
  facet normal -0.994012 0.109273 0
    outer loop
      vertex -45.3521 -0.398736 0
      vertex -45.3957 -0.795346 -25
      vertex -45.3957 -0.795346 0
    endloop
  endfacet
  facet normal -0.853547 0.521015 0
    outer loop
      vertex -46.2443 -3.01403 -25
      vertex -46.0364 -2.67344 0
      vertex -46.0364 -2.67344 -25
    endloop
  endfacet
  facet normal -0.853547 0.521015 0
    outer loop
      vertex -46.0364 -2.67344 0
      vertex -46.2443 -3.01403 -25
      vertex -46.2443 -3.01403 0
    endloop
  endfacet
  facet normal -0.720718 0.693228 0
    outer loop
      vertex -46.7375 -3.65126 -6
      vertex -46.7317 -3.64523 -25
      vertex -46.7375 -3.65126 -25
    endloop
  endfacet
  facet normal -0.720718 0.693228 0
    outer loop
      vertex -46.7317 -3.64523 -25
      vertex -46.7375 -3.65126 -6
      vertex -46.7317 -3.64523 0
    endloop
  endfacet
  facet normal -0.71993 0.694047 -1.58514e-06
    outer loop
      vertex -47.0086 -3.93247 -6
      vertex -46.7317 -3.64523 0
      vertex -46.7375 -3.65126 -6
    endloop
  endfacet
  facet normal -0.719946 0.69403 0
    outer loop
      vertex -46.7317 -3.64523 0
      vertex -47.0086 -3.93247 -6
      vertex -47.0086 -3.93247 0
    endloop
  endfacet
  facet normal -0.889384 0.457161 0
    outer loop
      vertex -46.0364 -2.67344 -25
      vertex -45.854 -2.31859 0
      vertex -45.854 -2.31859 -25
    endloop
  endfacet
  facet normal -0.889384 0.457161 0
    outer loop
      vertex -45.854 -2.31859 0
      vertex -46.0364 -2.67344 -25
      vertex -46.0364 -2.67344 0
    endloop
  endfacet
  facet normal -0.967497 0.252883 0
    outer loop
      vertex -45.5691 -1.57374 -25
      vertex -45.4682 -1.18771 0
      vertex -45.4682 -1.18771 -25
    endloop
  endfacet
  facet normal -0.967497 0.252883 0
    outer loop
      vertex -45.4682 -1.18771 0
      vertex -45.5691 -1.57374 -25
      vertex -45.5691 -1.57374 0
    endloop
  endfacet
  facet normal -0.967497 -0.252883 0
    outer loop
      vertex -45.4682 1.18771 -25
      vertex -45.5691 1.57374 0
      vertex -45.5691 1.57374 -25
    endloop
  endfacet
  facet normal -0.967497 -0.252883 0
    outer loop
      vertex -45.5691 1.57374 0
      vertex -45.4682 1.18771 -25
      vertex -45.4682 1.18771 0
    endloop
  endfacet
  facet normal -0.983354 -0.181702 0
    outer loop
      vertex -45.3957 0.795346 -25
      vertex -45.4682 1.18771 0
      vertex -45.4682 1.18771 -25
    endloop
  endfacet
  facet normal -0.983354 -0.181702 0
    outer loop
      vertex -45.4682 1.18771 0
      vertex -45.3957 0.795346 -25
      vertex -45.3957 0.795346 0
    endloop
  endfacet
  facet normal -0.76856 0.639778 0
    outer loop
      vertex -46.7317 -3.64523 -25
      vertex -46.4764 -3.33854 0
      vertex -46.4764 -3.33854 -25
    endloop
  endfacet
  facet normal -0.76856 0.639778 0
    outer loop
      vertex -46.4764 -3.33854 0
      vertex -46.7317 -3.64523 -25
      vertex -46.7317 -3.64523 0
    endloop
  endfacet
  facet normal -0.813369 0.581748 0
    outer loop
      vertex -46.4764 -3.33854 -25
      vertex -46.2443 -3.01403 0
      vertex -46.2443 -3.01403 -25
    endloop
  endfacet
  facet normal -0.813369 0.581748 0
    outer loop
      vertex -46.2443 -3.01403 0
      vertex -46.4764 -3.33854 -25
      vertex -46.4764 -3.33854 0
    endloop
  endfacet
  facet normal 0 0 -1
    outer loop
      vertex -8.75999 -6 -6
      vertex -3.58499 6 -6
      vertex -3.58499 -6 -6
    endloop
  endfacet
  facet normal -0 0 -1
    outer loop
      vertex -3.58499 6 -6
      vertex -8.75999 -6 -6
      vertex -8.75999 6 -6
    endloop
  endfacet
  facet normal 0.0109283 0 -0.99994
    outer loop
      vertex -8.77097 -6 -6.00012
      vertex -8.75999 6 -6
      vertex -8.75999 -6 -6
    endloop
  endfacet
  facet normal 0.0109283 0 -0.99994
    outer loop
      vertex -8.75999 6 -6
      vertex -8.77097 -6 -6.00012
      vertex -8.77097 6 -6.00012
    endloop
  endfacet
  facet normal 0.0219362 0 -0.999759
    outer loop
      vertex -10.321 -6 -6.03413
      vertex -8.77097 6 -6.00012
      vertex -8.77097 -6 -6.00012
    endloop
  endfacet
  facet normal 0.0219362 0 -0.999759
    outer loop
      vertex -8.77097 6 -6.00012
      vertex -10.321 -6 -6.03413
      vertex -10.321 6 -6.03413
    endloop
  endfacet
  facet normal 0.0577685 0 -0.99833
    outer loop
      vertex -10.3566 -6 -6.03619
      vertex -10.321 6 -6.03413
      vertex -10.321 -6 -6.03413
    endloop
  endfacet
  facet normal 0.0577685 0 -0.99833
    outer loop
      vertex -10.321 6 -6.03413
      vertex -10.3566 -6 -6.03619
      vertex -10.3566 6 -6.03619
    endloop
  endfacet
  facet normal 0.093173 0 -0.99565
    outer loop
      vertex -11.8613 -6 -6.177
      vertex -10.3566 6 -6.03619
      vertex -10.3566 -6 -6.03619
    endloop
  endfacet
  facet normal 0.093173 0 -0.99565
    outer loop
      vertex -10.3566 6 -6.03619
      vertex -11.8613 -6 -6.177
      vertex -11.8613 6 -6.177
    endloop
  endfacet
  facet normal 0 0 -1
    outer loop
      vertex -13.342 -6 -6.177
      vertex -11.8613 6 -6.177
      vertex -11.8613 -6 -6.177
    endloop
  endfacet
  facet normal -0 0 -1
    outer loop
      vertex -11.8613 6 -6.177
      vertex -13.342 -6 -6.177
      vertex -13.342 6 -6.177
    endloop
  endfacet
  facet normal 0.0543476 0 -0.998522
    outer loop
      vertex -13.3962 -6 -6.17995
      vertex -13.342 6 -6.177
      vertex -13.342 -6 -6.177
    endloop
  endfacet
  facet normal 0.0543476 0 -0.998522
    outer loop
      vertex -13.342 6 -6.177
      vertex -13.3962 -6 -6.17995
      vertex -13.3962 6 -6.17995
    endloop
  endfacet
  facet normal 0.108442 0 -0.994103
    outer loop
      vertex -14.8722 -6 -6.34096
      vertex -13.3962 6 -6.17995
      vertex -13.3962 -6 -6.17995
    endloop
  endfacet
  facet normal 0.108442 0 -0.994103
    outer loop
      vertex -13.3962 6 -6.17995
      vertex -14.8722 -6 -6.34096
      vertex -14.8722 6 -6.34096
    endloop
  endfacet
  facet normal 0.130218 0 -0.991485
    outer loop
      vertex -14.8939 -6 -6.34381
      vertex -14.8722 6 -6.34096
      vertex -14.8722 -6 -6.34096
    endloop
  endfacet
  facet normal 0.130218 0 -0.991485
    outer loop
      vertex -14.8722 6 -6.34096
      vertex -14.8939 -6 -6.34381
      vertex -14.8939 6 -6.34381
    endloop
  endfacet
  facet normal 0.151847 0 -0.988404
    outer loop
      vertex -16.3284 -6 -6.56419
      vertex -14.8939 6 -6.34381
      vertex -14.8939 -6 -6.34381
    endloop
  endfacet
  facet normal 0.151847 0 -0.988404
    outer loop
      vertex -14.8939 6 -6.34381
      vertex -16.3284 -6 -6.56419
      vertex -16.3284 6 -6.56419
    endloop
  endfacet
  facet normal 0.109806 0 -0.993953
    outer loop
      vertex -17.7299 -6 -6.71902
      vertex -16.3284 6 -6.56419
      vertex -16.3284 -6 -6.56419
    endloop
  endfacet
  facet normal 0.109806 0 -0.993953
    outer loop
      vertex -16.3284 6 -6.56419
      vertex -17.7299 -6 -6.71902
      vertex -17.7299 6 -6.71902
    endloop
  endfacet
  facet normal 0.168305 0 -0.985735
    outer loop
      vertex -17.788 -6 -6.72894
      vertex -17.7299 6 -6.71902
      vertex -17.7299 -6 -6.71902
    endloop
  endfacet
  facet normal 0.168305 0 -0.985735
    outer loop
      vertex -17.7299 6 -6.71902
      vertex -17.788 -6 -6.72894
      vertex -17.788 6 -6.72894
    endloop
  endfacet
  facet normal 0.226006 0 -0.974126
    outer loop
      vertex -19.1395 -6 -7.0425
      vertex -17.788 6 -6.72894
      vertex -17.788 -6 -6.72894
    endloop
  endfacet
  facet normal 0.226006 0 -0.974126
    outer loop
      vertex -17.788 6 -6.72894
      vertex -19.1395 -6 -7.0425
      vertex -19.1395 6 -7.0425
    endloop
  endfacet
  facet normal 0.131332 0 -0.991338
    outer loop
      vertex -20.4517 -6 -7.21634
      vertex -19.1395 6 -7.0425
      vertex -19.1395 -6 -7.0425
    endloop
  endfacet
  facet normal 0.131332 0 -0.991338
    outer loop
      vertex -19.1395 6 -7.0425
      vertex -20.4517 -6 -7.21634
      vertex -20.4517 6 -7.21634
    endloop
  endfacet
  facet normal 0.203845 0 -0.979003
    outer loop
      vertex -20.5235 -6 -7.23129
      vertex -20.4517 6 -7.21634
      vertex -20.4517 -6 -7.21634
    endloop
  endfacet
  facet normal 0.203845 0 -0.979003
    outer loop
      vertex -20.4517 6 -7.21634
      vertex -20.5235 -6 -7.23129
      vertex -20.5235 6 -7.23129
    endloop
  endfacet
  facet normal 0.275097 0 -0.961416
    outer loop
      vertex -21.8104 -6 -7.59952
      vertex -20.5235 6 -7.23129
      vertex -20.5235 -6 -7.23129
    endloop
  endfacet
  facet normal 0.275097 0 -0.961416
    outer loop
      vertex -20.5235 6 -7.23129
      vertex -21.8104 -6 -7.59952
      vertex -21.8104 6 -7.59952
    endloop
  endfacet
  facet normal 0.249844 0 -0.968286
    outer loop
      vertex -23.0519 -6 -7.91986
      vertex -21.8104 6 -7.59952
      vertex -21.8104 -6 -7.59952
    endloop
  endfacet
  facet normal 0.249844 0 -0.968286
    outer loop
      vertex -21.8104 6 -7.59952
      vertex -23.0519 -6 -7.91986
      vertex -23.0519 6 -7.91986
    endloop
  endfacet
  facet normal 0.283092 0 -0.959093
    outer loop
      vertex -23.085 -6 -7.92963
      vertex -23.0519 6 -7.91986
      vertex -23.0519 -6 -7.91986
    endloop
  endfacet
  facet normal 0.283092 0 -0.959093
    outer loop
      vertex -23.0519 6 -7.91986
      vertex -23.085 -6 -7.92963
      vertex -23.085 6 -7.92963
    endloop
  endfacet
  facet normal 0.315984 0 -0.948764
    outer loop
      vertex -24.2766 -6 -8.32649
      vertex -23.085 6 -7.92963
      vertex -23.085 -6 -7.92963
    endloop
  endfacet
  facet normal 0.315984 0 -0.948764
    outer loop
      vertex -23.085 6 -7.92963
      vertex -24.2766 -6 -8.32649
      vertex -24.2766 6 -8.32649
    endloop
  endfacet
  facet normal 0.278701 0 -0.960378
    outer loop
      vertex -25.4183 -6 -8.65781
      vertex -24.2766 6 -8.32649
      vertex -24.2766 -6 -8.32649
    endloop
  endfacet
  facet normal 0.278701 0 -0.960378
    outer loop
      vertex -24.2766 6 -8.32649
      vertex -25.4183 -6 -8.65781
      vertex -25.4183 6 -8.65781
    endloop
  endfacet
  facet normal 0.341562 0 -0.939859
    outer loop
      vertex -25.4809 -6 -8.68056
      vertex -25.4183 6 -8.65781
      vertex -25.4183 -6 -8.65781
    endloop
  endfacet
  facet normal 0.341562 0 -0.939859
    outer loop
      vertex -25.4183 6 -8.65781
      vertex -25.4809 -6 -8.68056
      vertex -25.4809 6 -8.68056
    endloop
  endfacet
  facet normal 0.403743 0 -0.914873
    outer loop
      vertex -26.5799 -6 -9.16556
      vertex -25.4809 6 -8.68056
      vertex -25.4809 -6 -8.68056
    endloop
  endfacet
  facet normal 0.403743 0 -0.914873
    outer loop
      vertex -25.4809 6 -8.68056
      vertex -26.5799 -6 -9.16556
      vertex -26.5799 6 -9.16556
    endloop
  endfacet
  facet normal 0.452474 0 -0.891778
    outer loop
      vertex -26.6273 -6 -9.18961
      vertex -26.5799 6 -9.16556
      vertex -26.5799 -6 -9.16556
    endloop
  endfacet
  facet normal 0.452474 0 -0.891778
    outer loop
      vertex -26.5799 6 -9.16556
      vertex -26.6273 -6 -9.18961
      vertex -26.6273 6 -9.18961
    endloop
  endfacet
  facet normal 0.498646 0 -0.866806
    outer loop
      vertex -27.662 -6 -9.78484
      vertex -26.6273 6 -9.18961
      vertex -26.6273 -6 -9.18961
    endloop
  endfacet
  facet normal 0.498646 0 -0.866806
    outer loop
      vertex -26.6273 6 -9.18961
      vertex -27.662 -6 -9.78484
      vertex -27.662 6 -9.78484
    endloop
  endfacet
  facet normal 0.466129 0 -0.884717
    outer loop
      vertex -28.6375 -6 -10.2988
      vertex -27.662 6 -9.78484
      vertex -27.662 -6 -9.78484
    endloop
  endfacet
  facet normal 0.466129 0 -0.884717
    outer loop
      vertex -27.662 6 -9.78484
      vertex -28.6375 -6 -10.2988
      vertex -28.6375 6 -10.2988
    endloop
  endfacet
  facet normal 0.450304 0 -0.892875
    outer loop
      vertex -29.5611 -6 -10.7646
      vertex -28.6375 6 -10.2988
      vertex -28.6375 -6 -10.2988
    endloop
  endfacet
  facet normal 0.450304 0 -0.892875
    outer loop
      vertex -28.6375 6 -10.2988
      vertex -29.5611 -6 -10.7646
      vertex -29.5611 6 -10.7646
    endloop
  endfacet
  facet normal 0.492912 0 -0.870079
    outer loop
      vertex -29.6047 -6 -10.7893
      vertex -29.5611 6 -10.7646
      vertex -29.5611 -6 -10.7646
    endloop
  endfacet
  facet normal 0.492912 0 -0.870079
    outer loop
      vertex -29.5611 6 -10.7646
      vertex -29.6047 -6 -10.7893
      vertex -29.6047 6 -10.7893
    endloop
  endfacet
  facet normal 0.537316 0 -0.843381
    outer loop
      vertex -30.4727 -6 -11.3423
      vertex -29.6047 6 -10.7893
      vertex -29.6047 -6 -10.7893
    endloop
  endfacet
  facet normal 0.537316 0 -0.843381
    outer loop
      vertex -29.6047 6 -10.7893
      vertex -30.4727 -6 -11.3423
      vertex -30.4727 6 -11.3423
    endloop
  endfacet
  facet normal 0.591364 0 -0.806405
    outer loop
      vertex -30.5252 -6 -11.3808
      vertex -30.4727 6 -11.3423
      vertex -30.4727 -6 -11.3423
    endloop
  endfacet
  facet normal 0.591364 0 -0.806405
    outer loop
      vertex -30.4727 6 -11.3423
      vertex -30.5252 -6 -11.3808
      vertex -30.5252 6 -11.3808
    endloop
  endfacet
  facet normal 0.642428 0 -0.766346
    outer loop
      vertex -31.3304 -6 -12.0558
      vertex -30.5252 6 -11.3808
      vertex -30.5252 -6 -11.3808
    endloop
  endfacet
  facet normal 0.642428 0 -0.766346
    outer loop
      vertex -30.5252 6 -11.3808
      vertex -31.3304 -6 -12.0558
      vertex -31.3304 6 -12.0558
    endloop
  endfacet
  facet normal 0.644739 0 -0.764403
    outer loop
      vertex -32.0714 -6 -12.6808
      vertex -31.3304 6 -12.0558
      vertex -31.3304 -6 -12.0558
    endloop
  endfacet
  facet normal 0.644739 0 -0.764403
    outer loop
      vertex -31.3304 6 -12.0558
      vertex -32.0714 -6 -12.6808
      vertex -32.0714 6 -12.6808
    endloop
  endfacet
  facet normal 0.659234 0 -0.751938
    outer loop
      vertex -32.086 -6 -12.6936
      vertex -32.0714 6 -12.6808
      vertex -32.0714 -6 -12.6808
    endloop
  endfacet
  facet normal 0.659234 0 -0.751938
    outer loop
      vertex -32.0714 6 -12.6808
      vertex -32.086 -6 -12.6936
      vertex -32.086 6 -12.6936
    endloop
  endfacet
  facet normal 0.674095 0 -0.738644
    outer loop
      vertex -32.76 -6 -13.3087
      vertex -32.086 6 -12.6936
      vertex -32.086 -6 -12.6936
    endloop
  endfacet
  facet normal 0.674095 0 -0.738644
    outer loop
      vertex -32.086 6 -12.6936
      vertex -32.76 -6 -13.3087
      vertex -32.76 6 -13.3087
    endloop
  endfacet
  facet normal 0.721297 0 -0.692626
    outer loop
      vertex -32.76 -6 -13.3087
      vertex -32.8059 6 -13.3565
      vertex -32.76 6 -13.3087
    endloop
  endfacet
  facet normal 0.721297 0 -0.692626
    outer loop
      vertex -32.8059 6 -13.3565
      vertex -32.76 -6 -13.3087
      vertex -32.8059 -6 -13.3565
    endloop
  endfacet
  facet normal 0.765788 0 -0.643093
    outer loop
      vertex -32.8059 -6 -13.3565
      vertex -33.4139 6 -14.0805
      vertex -32.8059 6 -13.3565
    endloop
  endfacet
  facet normal 0.765788 0 -0.643093
    outer loop
      vertex -33.4139 6 -14.0805
      vertex -32.8059 -6 -13.3565
      vertex -33.4139 -6 -14.0805
    endloop
  endfacet
  facet normal 0.780459 0 -0.625207
    outer loop
      vertex -33.4139 -6 -14.0805
      vertex -33.4288 6 -14.0991
      vertex -33.4139 6 -14.0805
    endloop
  endfacet
  facet normal 0.780459 0 -0.625207
    outer loop
      vertex -33.4288 6 -14.0991
      vertex -33.4139 -6 -14.0805
      vertex -33.4288 -6 -14.0991
    endloop
  endfacet
  facet normal 0.795678 0 -0.60572
    outer loop
      vertex -33.4288 -6 -14.0991
      vertex -33.9661 6 -14.8049
      vertex -33.4288 6 -14.0991
    endloop
  endfacet
  facet normal 0.795678 0 -0.60572
    outer loop
      vertex -33.9661 6 -14.8049
      vertex -33.4288 -6 -14.0991
      vertex -33.9661 -6 -14.8049
    endloop
  endfacet
  facet normal 0.792285 0 -0.610151
    outer loop
      vertex -33.9661 -6 -14.8049
      vertex -34.4351 6 -15.4139
      vertex -33.9661 6 -14.8049
    endloop
  endfacet
  facet normal 0.792285 0 -0.610151
    outer loop
      vertex -34.4351 6 -15.4139
      vertex -33.9661 -6 -14.8049
      vertex -34.4351 -6 -15.4139
    endloop
  endfacet
  facet normal 0.858319 0 -0.513116
    outer loop
      vertex -34.4351 -6 -15.4139
      vertex -34.4953 6 -15.5146
      vertex -34.4351 6 -15.4139
    endloop
  endfacet
  facet normal 0.858319 0 -0.513116
    outer loop
      vertex -34.4953 6 -15.5146
      vertex -34.4351 -6 -15.4139
      vertex -34.4953 -6 -15.5146
    endloop
  endfacet
  facet normal 0.912667 0 -0.408703
    outer loop
      vertex -34.4953 -6 -15.5146
      vertex -34.8943 6 -16.4056
      vertex -34.4953 6 -15.5146
    endloop
  endfacet
  facet normal 0.912667 0 -0.408703
    outer loop
      vertex -34.8943 6 -16.4056
      vertex -34.4953 -6 -15.5146
      vertex -34.8943 -6 -16.4056
    endloop
  endfacet
  facet normal 0.927316 0 -0.374278
    outer loop
      vertex -34.8943 -6 -16.4056
      vertex -34.9077 6 -16.4388
      vertex -34.8943 6 -16.4056
    endloop
  endfacet
  facet normal 0.927316 0 -0.374278
    outer loop
      vertex -34.9077 6 -16.4388
      vertex -34.8943 -6 -16.4056
      vertex -34.9077 -6 -16.4388
    endloop
  endfacet
  facet normal 0.939482 0 -0.342599
    outer loop
      vertex -34.9077 -6 -16.4388
      vertex -35.2324 6 -17.3292
      vertex -34.9077 6 -16.4388
    endloop
  endfacet
  facet normal 0.939482 0 -0.342599
    outer loop
      vertex -35.2324 6 -17.3292
      vertex -34.9077 -6 -16.4388
      vertex -35.2324 -6 -17.3292
    endloop
  endfacet
  facet normal 0.92926 0 -0.369428
    outer loop
      vertex -35.2324 -6 -17.3292
      vertex -35.4726 6 -17.9334
      vertex -35.2324 6 -17.3292
    endloop
  endfacet
  facet normal 0.92926 0 -0.369428
    outer loop
      vertex -35.4726 6 -17.9334
      vertex -35.2324 -6 -17.3292
      vertex -35.4726 -6 -17.9334
    endloop
  endfacet
  facet normal 0.868243 0 -0.496139
    outer loop
      vertex -35.4726 -6 -17.9334
      vertex -35.6154 6 -18.1833
      vertex -35.4726 6 -17.9334
    endloop
  endfacet
  facet normal 0.868243 0 -0.496139
    outer loop
      vertex -35.6154 6 -18.1833
      vertex -35.4726 -6 -17.9334
      vertex -35.6154 -6 -18.1833
    endloop
  endfacet
  facet normal 0.764036 0 -0.645174
    outer loop
      vertex -35.6154 -6 -18.1833
      vertex -35.7321 6 -18.3215
      vertex -35.6154 6 -18.1833
    endloop
  endfacet
  facet normal 0.764036 0 -0.645174
    outer loop
      vertex -35.7321 6 -18.3215
      vertex -35.6154 -6 -18.1833
      vertex -35.7321 -6 -18.3215
    endloop
  endfacet
  facet normal 0.942019 0 -0.33556
    outer loop
      vertex -35.7321 -6 -18.3215
      vertex -35.8499 6 -18.6522
      vertex -35.7321 6 -18.3215
    endloop
  endfacet
  facet normal 0.942019 0 -0.33556
    outer loop
      vertex -35.8499 6 -18.6522
      vertex -35.7321 -6 -18.3215
      vertex -35.8499 -6 -18.6522
    endloop
  endfacet
  facet normal 0.999867 -0 0.0162981
    outer loop
      vertex -35.8499 -6 -18.6522
      vertex -35.8129 6 -20.9221
      vertex -35.8499 6 -18.6522
    endloop
  endfacet
  facet normal 0.999867 0 0.0162981
    outer loop
      vertex -35.8129 6 -20.9221
      vertex -35.8499 -6 -18.6522
      vertex -35.8129 -6 -20.9221
    endloop
  endfacet
  facet normal 0.981887 -0 0.189467
    outer loop
      vertex -35.8129 -6 -20.9221
      vertex -35.78 6 -21.0926
      vertex -35.8129 6 -20.9221
    endloop
  endfacet
  facet normal 0.981887 0 0.189467
    outer loop
      vertex -35.78 6 -21.0926
      vertex -35.8129 -6 -20.9221
      vertex -35.78 -6 -21.0926
    endloop
  endfacet
  facet normal 0.934065 -0 0.357103
    outer loop
      vertex -35.78 -6 -21.0926
      vertex -35.6741 6 -21.3696
      vertex -35.78 6 -21.0926
    endloop
  endfacet
  facet normal 0.934065 0 0.357103
    outer loop
      vertex -35.6741 6 -21.3696
      vertex -35.78 -6 -21.0926
      vertex -35.6741 -6 -21.3696
    endloop
  endfacet
  facet normal 0.945605 -0 0.325316
    outer loop
      vertex -35.6741 -6 -21.3696
      vertex -35.4972 6 -21.8838
      vertex -35.6741 6 -21.3696
    endloop
  endfacet
  facet normal 0.945605 0 0.325316
    outer loop
      vertex -35.4972 6 -21.8838
      vertex -35.6741 -6 -21.3696
      vertex -35.4972 -6 -21.8838
    endloop
  endfacet
  facet normal 0.958353 -0 0.285587
    outer loop
      vertex -35.4972 -6 -21.8838
      vertex -35.2442 6 -22.7328
      vertex -35.4972 6 -21.8838
    endloop
  endfacet
  facet normal 0.958353 0 0.285587
    outer loop
      vertex -35.2442 6 -22.7328
      vertex -35.4972 -6 -21.8838
      vertex -35.2442 -6 -22.7328
    endloop
  endfacet
  facet normal 0.946547 -0 0.322566
    outer loop
      vertex -35.2442 -6 -22.7328
      vertex -35.232 6 -22.7686
      vertex -35.2442 6 -22.7328
    endloop
  endfacet
  facet normal 0.946547 0 0.322566
    outer loop
      vertex -35.232 6 -22.7686
      vertex -35.2442 -6 -22.7328
      vertex -35.232 -6 -22.7686
    endloop
  endfacet
  facet normal 0.93402 -0 0.357222
    outer loop
      vertex -35.232 -6 -22.7686
      vertex -34.905 6 -23.6236
      vertex -35.232 6 -22.7686
    endloop
  endfacet
  facet normal 0.93402 0 0.357222
    outer loop
      vertex -34.905 6 -23.6236
      vertex -35.232 -6 -22.7686
      vertex -34.905 -6 -23.6236
    endloop
  endfacet
  facet normal 0.917722 -0 0.397223
    outer loop
      vertex -34.905 -6 -23.6236
      vertex -34.8876 6 -23.6638
      vertex -34.905 6 -23.6236
    endloop
  endfacet
  facet normal 0.917722 0 0.397223
    outer loop
      vertex -34.8876 6 -23.6638
      vertex -34.905 -6 -23.6236
      vertex -34.8876 -6 -23.6638
    endloop
  endfacet
  facet normal 0.8992 -0 0.437538
    outer loop
      vertex -34.8876 -6 -23.6638
      vertex -34.4886 6 -24.4838
      vertex -34.8876 6 -23.6638
    endloop
  endfacet
  facet normal 0.8992 0 0.437538
    outer loop
      vertex -34.4886 6 -24.4838
      vertex -34.8876 -6 -23.6638
      vertex -34.4886 -6 -24.4838
    endloop
  endfacet
  facet normal 0.879866 -0 0.475222
    outer loop
      vertex -34.4886 -6 -24.4838
      vertex -34.4684 6 -24.5212
      vertex -34.4886 6 -24.4838
    endloop
  endfacet
  facet normal 0.879866 0 0.475222
    outer loop
      vertex -34.4684 6 -24.5212
      vertex -34.4886 -6 -24.4838
      vertex -34.4684 -6 -24.5212
    endloop
  endfacet
  facet normal 0.858741 -0 0.512411
    outer loop
      vertex -34.4684 -6 -24.5212
      vertex -34.1827 6 -25
      vertex -34.4684 6 -24.5212
    endloop
  endfacet
  facet normal 0.858741 0 0.512411
    outer loop
      vertex -34.1827 6 -25
      vertex -34.4684 -6 -24.5212
      vertex -34.1827 -6 -25
    endloop
  endfacet
  facet normal -0.812841 0 -0.582486
    outer loop
      vertex 36.0482 -6 -14.7159
      vertex 35.1566 6 -13.4717
      vertex 36.0482 6 -14.7159
    endloop
  endfacet
  facet normal -0.812841 -0 -0.582486
    outer loop
      vertex 35.1566 6 -13.4717
      vertex 36.0482 -6 -14.7159
      vertex 35.1566 -6 -13.4717
    endloop
  endfacet
  facet normal -0.932135 0 -0.362111
    outer loop
      vertex 36.21 -6 -15.1324
      vertex 36.0482 6 -14.7159
      vertex 36.21 6 -15.1324
    endloop
  endfacet
  facet normal -0.932135 -0 -0.362111
    outer loop
      vertex 36.0482 6 -14.7159
      vertex 36.21 -6 -15.1324
      vertex 36.0482 -6 -14.7159
    endloop
  endfacet
  facet normal -0.999364 0 -0.0356563
    outer loop
      vertex 36.2497 -6 -16.2451
      vertex 36.21 6 -15.1324
      vertex 36.2497 6 -16.2451
    endloop
  endfacet
  facet normal -0.999364 -0 -0.0356563
    outer loop
      vertex 36.21 6 -15.1324
      vertex 36.2497 -6 -16.2451
      vertex 36.21 -6 -15.1324
    endloop
  endfacet
  facet normal -1 0 0
    outer loop
      vertex 36.2497 -6 -25
      vertex 36.2497 6 -16.2451
      vertex 36.2497 6 -25
    endloop
  endfacet
  facet normal -1 -0 0
    outer loop
      vertex 36.2497 6 -16.2451
      vertex 36.2497 -6 -25
      vertex 36.2497 -6 -16.2451
    endloop
  endfacet
  facet normal 1 -0 0
    outer loop
      vertex -3.58499 -6 -5.60001
      vertex -3.58499 6 -6
      vertex -3.58499 6 -5.60001
    endloop
  endfacet
  facet normal 1 0 0
    outer loop
      vertex -3.58499 6 -6
      vertex -3.58499 -6 -5.60001
      vertex -3.58499 -6 -6
    endloop
  endfacet
  facet normal -0.133403 0 -0.991062
    outer loop
      vertex -2.23441 -6 -5.61942
      vertex 10.4268 6 -7.3237
      vertex 10.4268 -6 -7.3237
    endloop
  endfacet
  facet normal -0.133403 0 -0.991062
    outer loop
      vertex 10.4268 6 -7.3237
      vertex -2.23441 -6 -5.61942
      vertex -2.23441 6 -5.61942
    endloop
  endfacet
  facet normal -0.192757 0 -0.981247
    outer loop
      vertex 19.2095 -6 -9.00034
      vertex 21.8336 6 -9.51582
      vertex 21.8336 -6 -9.51582
    endloop
  endfacet
  facet normal -0.192757 0 -0.981247
    outer loop
      vertex 21.8336 6 -9.51582
      vertex 19.2095 -6 -9.00034
      vertex 19.2095 6 -9.00034
    endloop
  endfacet
  facet normal -0.190575 0 -0.981673
    outer loop
      vertex 13.5187 -6 -7.89557
      vertex 19.2095 6 -9.00034
      vertex 19.2095 -6 -9.00034
    endloop
  endfacet
  facet normal -0.190575 0 -0.981673
    outer loop
      vertex 19.2095 6 -9.00034
      vertex 13.5187 -6 -7.89557
      vertex 13.5187 6 -7.89557
    endloop
  endfacet
  facet normal -0.162015 0 -0.986788
    outer loop
      vertex 10.4268 -6 -7.3237
      vertex 10.4832 6 -7.33296
      vertex 10.4832 -6 -7.33296
    endloop
  endfacet
  facet normal -0.162015 0 -0.986788
    outer loop
      vertex 10.4832 6 -7.33296
      vertex 10.4268 -6 -7.3237
      vertex 10.4268 6 -7.3237
    endloop
  endfacet
  facet normal -0.638526 0 -0.769601
    outer loop
      vertex 34.5989 -6 -12.9781
      vertex 35.0328 6 -13.3381
      vertex 35.0328 -6 -13.3381
    endloop
  endfacet
  facet normal -0.638526 0 -0.769601
    outer loop
      vertex 35.0328 6 -13.3381
      vertex 34.5989 -6 -12.9781
      vertex 34.5989 6 -12.9781
    endloop
  endfacet
  facet normal 0 0 -1
    outer loop
      vertex -3.58499 -6 -5.60001
      vertex -2.38658 6 -5.60001
      vertex -2.38658 -6 -5.60001
    endloop
  endfacet
  facet normal -0 0 -1
    outer loop
      vertex -2.38658 6 -5.60001
      vertex -3.58499 -6 -5.60001
      vertex -3.58499 6 -5.60001
    endloop
  endfacet
  facet normal -0.244585 0 -0.969628
    outer loop
      vertex 21.9226 -6 -9.53613
      vertex 30.4106 6 -11.6772
      vertex 30.4106 -6 -11.6772
    endloop
  endfacet
  facet normal -0.244585 0 -0.969628
    outer loop
      vertex 30.4106 6 -11.6772
      vertex 21.9226 -6 -9.53613
      vertex 21.9226 6 -9.53613
    endloop
  endfacet
  facet normal -0.733497 0 -0.679693
    outer loop
      vertex 35.1566 -6 -13.4717
      vertex 35.0328 6 -13.3381
      vertex 35.1566 6 -13.4717
    endloop
  endfacet
  facet normal -0.733497 -0 -0.679693
    outer loop
      vertex 35.0328 6 -13.3381
      vertex 35.1566 -6 -13.4717
      vertex 35.0328 -6 -13.3381
    endloop
  endfacet
  facet normal -0.18224 0 -0.983254
    outer loop
      vertex 10.4832 -6 -7.33296
      vertex 13.5187 6 -7.89557
      vertex 13.5187 -6 -7.89557
    endloop
  endfacet
  facet normal -0.18224 0 -0.983254
    outer loop
      vertex 13.5187 6 -7.89557
      vertex 10.4832 -6 -7.33296
      vertex 10.4832 6 -7.33296
    endloop
  endfacet
  facet normal -0.12653 0 -0.991963
    outer loop
      vertex -2.38658 -6 -5.60001
      vertex -2.23441 6 -5.61942
      vertex -2.23441 -6 -5.61942
    endloop
  endfacet
  facet normal -0.12653 0 -0.991963
    outer loop
      vertex -2.23441 6 -5.61942
      vertex -2.38658 -6 -5.60001
      vertex -2.38658 6 -5.60001
    endloop
  endfacet
  facet normal -0.222483 0 -0.974937
    outer loop
      vertex 21.8336 -6 -9.51582
      vertex 21.9226 6 -9.53613
      vertex 21.9226 -6 -9.53613
    endloop
  endfacet
  facet normal -0.222483 0 -0.974937
    outer loop
      vertex 21.9226 6 -9.53613
      vertex 21.8336 -6 -9.51582
      vertex 21.8336 6 -9.51582
    endloop
  endfacet
  facet normal -0.340321 0 -0.940309
    outer loop
      vertex 33.7841 -6 -12.5527
      vertex 33.9753 6 -12.6219
      vertex 33.9753 -6 -12.6219
    endloop
  endfacet
  facet normal -0.340321 0 -0.940309
    outer loop
      vertex 33.9753 6 -12.6219
      vertex 33.7841 -6 -12.5527
      vertex 33.7841 6 -12.5527
    endloop
  endfacet
  facet normal -0.251201 0 -0.967935
    outer loop
      vertex 30.4106 -6 -11.6772
      vertex 33.7841 6 -12.5527
      vertex 33.7841 -6 -12.5527
    endloop
  endfacet
  facet normal -0.251201 0 -0.967935
    outer loop
      vertex 33.7841 6 -12.5527
      vertex 30.4106 -6 -11.6772
      vertex 30.4106 6 -11.6772
    endloop
  endfacet
  facet normal -0.480409 0 -0.877045
    outer loop
      vertex 33.9753 -6 -12.6219
      vertex 34.4883 6 -12.9029
      vertex 34.4883 -6 -12.9029
    endloop
  endfacet
  facet normal -0.480409 0 -0.877045
    outer loop
      vertex 34.4883 6 -12.9029
      vertex 33.9753 -6 -12.6219
      vertex 33.9753 6 -12.6219
    endloop
  endfacet
  facet normal -0.562269 0 -0.826954
    outer loop
      vertex 34.4883 -6 -12.9029
      vertex 34.5989 6 -12.9781
      vertex 34.5989 -6 -12.9781
    endloop
  endfacet
  facet normal -0.562269 0 -0.826954
    outer loop
      vertex 34.5989 6 -12.9781
      vertex 34.4883 -6 -12.9029
      vertex 34.4883 6 -12.9029
    endloop
  endfacet
  facet normal 1 -0 0
    outer loop
      vertex 47.2375 4.13755 0
      vertex 47.2375 6 -6
      vertex 47.2375 6 0
    endloop
  endfacet
  facet normal 1 0 0
    outer loop
      vertex 47.2375 6 -6
      vertex 47.2375 4.13755 0
      vertex 47.2375 4.13755 -6
    endloop
  endfacet
  facet normal 1 -0 0
    outer loop
      vertex 47.2375 -6 0
      vertex 47.2375 -4.13755 -6
      vertex 47.2375 -4.13755 0
    endloop
  endfacet
  facet normal 1 0 0
    outer loop
      vertex 47.2375 -4.13755 -6
      vertex 47.2375 -6 0
      vertex 47.2375 -6 -6
    endloop
  endfacet
  facet normal -1 0 0
    outer loop
      vertex -47.2375 4.13755 -6
      vertex -47.2375 6 0
      vertex -47.2375 6 -6
    endloop
  endfacet
  facet normal -1 -0 0
    outer loop
      vertex -47.2375 6 0
      vertex -47.2375 4.13755 -6
      vertex -47.2375 4.13755 0
    endloop
  endfacet
  facet normal -1 0 0
    outer loop
      vertex -47.2375 -6 -6
      vertex -47.2375 -4.13755 0
      vertex -47.2375 -4.13755 -6
    endloop
  endfacet
  facet normal -1 -0 0
    outer loop
      vertex -47.2375 -4.13755 0
      vertex -47.2375 -6 -6
      vertex -47.2375 -6 0
    endloop
  endfacet
  facet normal 0 1 -0
    outer loop
      vertex -10.3566 6 -6.03619
      vertex -29.2375 6 0
      vertex -10.321 6 -6.03413
    endloop
  endfacet
  facet normal 0 1 -0
    outer loop
      vertex -13.342 6 -6.177
      vertex -29.2375 6 0
      vertex -10.3566 6 -6.03619
    endloop
  endfacet
  facet normal 0 1 -0
    outer loop
      vertex -13.3962 6 -6.17995
      vertex -29.2375 6 0
      vertex -13.342 6 -6.177
    endloop
  endfacet
  facet normal 0 1 0
    outer loop
      vertex -13.342 6 -6.177
      vertex -10.3566 6 -6.03619
      vertex -11.8613 6 -6.177
    endloop
  endfacet
  facet normal 0 1 -0
    outer loop
      vertex -14.8722 6 -6.34096
      vertex -29.2375 6 0
      vertex -13.3962 6 -6.17995
    endloop
  endfacet
  facet normal 0 1 -0
    outer loop
      vertex -14.8939 6 -6.34381
      vertex -29.2375 6 0
      vertex -14.8722 6 -6.34096
    endloop
  endfacet
  facet normal 0 1 -0
    outer loop
      vertex -16.3284 6 -6.56419
      vertex -29.2375 6 0
      vertex -14.8939 6 -6.34381
    endloop
  endfacet
  facet normal 0 1 -0
    outer loop
      vertex -17.7299 6 -6.71902
      vertex -29.2375 6 0
      vertex -16.3284 6 -6.56419
    endloop
  endfacet
  facet normal 0 1 -0
    outer loop
      vertex -17.788 6 -6.72894
      vertex -29.2375 6 0
      vertex -17.7299 6 -6.71902
    endloop
  endfacet
  facet normal 0 1 -0
    outer loop
      vertex -19.1395 6 -7.0425
      vertex -29.2375 6 0
      vertex -17.788 6 -6.72894
    endloop
  endfacet
  facet normal 0 1 -0
    outer loop
      vertex -20.4517 6 -7.21634
      vertex -29.2375 6 0
      vertex -19.1395 6 -7.0425
    endloop
  endfacet
  facet normal 0 1 -0
    outer loop
      vertex -20.5235 6 -7.23129
      vertex -29.2375 6 0
      vertex -20.4517 6 -7.21634
    endloop
  endfacet
  facet normal 0 1 0
    outer loop
      vertex -29.2375 6 0
      vertex -20.5235 6 -7.23129
      vertex -29.2375 6 -1.5
    endloop
  endfacet
  facet normal 0 1 -0
    outer loop
      vertex -21.8104 6 -7.59952
      vertex -29.2375 6 -1.5
      vertex -20.5235 6 -7.23129
    endloop
  endfacet
  facet normal 0 1 -0
    outer loop
      vertex -23.0519 6 -7.91986
      vertex -29.2375 6 -1.5
      vertex -21.8104 6 -7.59952
    endloop
  endfacet
  facet normal 0 1 -0
    outer loop
      vertex -23.085 6 -7.92963
      vertex -29.2375 6 -1.5
      vertex -23.0519 6 -7.91986
    endloop
  endfacet
  facet normal 0 1 -0
    outer loop
      vertex -24.2766 6 -8.32649
      vertex -29.2375 6 -1.5
      vertex -23.085 6 -7.92963
    endloop
  endfacet
  facet normal 0 1 -0
    outer loop
      vertex -25.4183 6 -8.65781
      vertex -29.2375 6 -1.5
      vertex -24.2766 6 -8.32649
    endloop
  endfacet
  facet normal 0 1 -0
    outer loop
      vertex -25.4809 6 -8.68056
      vertex -29.2375 6 -1.5
      vertex -25.4183 6 -8.65781
    endloop
  endfacet
  facet normal 0 1 -0
    outer loop
      vertex -26.5799 6 -9.16556
      vertex -29.2375 6 -1.5
      vertex -25.4809 6 -8.68056
    endloop
  endfacet
  facet normal 0 1 -0
    outer loop
      vertex -26.6273 6 -9.18961
      vertex -29.2375 6 -1.5
      vertex -26.5799 6 -9.16556
    endloop
  endfacet
  facet normal 0 1 -0
    outer loop
      vertex -27.662 6 -9.78484
      vertex -29.2375 6 -1.5
      vertex -26.6273 6 -9.18961
    endloop
  endfacet
  facet normal 0 1 -0
    outer loop
      vertex -28.6375 6 -10.2988
      vertex -29.2375 6 -1.5
      vertex -27.662 6 -9.78484
    endloop
  endfacet
  facet normal 0 1 0
    outer loop
      vertex -29.5611 6 -10.7646
      vertex -29.2375 6 -1.5
      vertex -28.6375 6 -10.2988
    endloop
  endfacet
  facet normal 0 1 0
    outer loop
      vertex -29.6047 6 -10.7893
      vertex -29.2375 6 -1.5
      vertex -29.5611 6 -10.7646
    endloop
  endfacet
  facet normal 0 1 0
    outer loop
      vertex -30.4727 6 -11.3423
      vertex -29.2375 6 -1.5
      vertex -29.6047 6 -10.7893
    endloop
  endfacet
  facet normal 0 1 0
    outer loop
      vertex -30.5252 6 -11.3808
      vertex -29.2375 6 -1.5
      vertex -30.4727 6 -11.3423
    endloop
  endfacet
  facet normal 0 1 0
    outer loop
      vertex -31.3304 6 -12.0558
      vertex -29.2375 6 -1.5
      vertex -30.5252 6 -11.3808
    endloop
  endfacet
  facet normal 0 1 0
    outer loop
      vertex -29.2375 6 -1.5
      vertex -31.3304 6 -12.0558
      vertex -46.7375 6 -6
    endloop
  endfacet
  facet normal 0 1 -0
    outer loop
      vertex -32.0714 6 -12.6808
      vertex -46.7375 6 -6
      vertex -31.3304 6 -12.0558
    endloop
  endfacet
  facet normal 0 1 -0
    outer loop
      vertex -32.086 6 -12.6936
      vertex -46.7375 6 -6
      vertex -32.0714 6 -12.6808
    endloop
  endfacet
  facet normal 0 1 -0
    outer loop
      vertex -32.76 6 -13.3087
      vertex -46.7375 6 -6
      vertex -32.086 6 -12.6936
    endloop
  endfacet
  facet normal 0 1 -0
    outer loop
      vertex -32.8059 6 -13.3565
      vertex -46.7375 6 -6
      vertex -32.76 6 -13.3087
    endloop
  endfacet
  facet normal 0 1 -0
    outer loop
      vertex -33.4139 6 -14.0805
      vertex -46.7375 6 -6
      vertex -32.8059 6 -13.3565
    endloop
  endfacet
  facet normal 0 1 -0
    outer loop
      vertex -33.4288 6 -14.0991
      vertex -46.7375 6 -6
      vertex -33.4139 6 -14.0805
    endloop
  endfacet
  facet normal 0 1 -0
    outer loop
      vertex -33.9661 6 -14.8049
      vertex -46.7375 6 -6
      vertex -33.4288 6 -14.0991
    endloop
  endfacet
  facet normal 0 1 -0
    outer loop
      vertex -34.4351 6 -15.4139
      vertex -46.7375 6 -6
      vertex -33.9661 6 -14.8049
    endloop
  endfacet
  facet normal 0 1 -0
    outer loop
      vertex -34.4953 6 -15.5146
      vertex -46.7375 6 -6
      vertex -34.4351 6 -15.4139
    endloop
  endfacet
  facet normal 0 1 -0
    outer loop
      vertex -34.8943 6 -16.4056
      vertex -46.7375 6 -6
      vertex -34.4953 6 -15.5146
    endloop
  endfacet
  facet normal 0 1 -0
    outer loop
      vertex -34.9077 6 -16.4388
      vertex -46.7375 6 -6
      vertex -34.8943 6 -16.4056
    endloop
  endfacet
  facet normal 0 1 -0
    outer loop
      vertex -35.2324 6 -17.3292
      vertex -46.7375 6 -6
      vertex -34.9077 6 -16.4388
    endloop
  endfacet
  facet normal 0 1 0
    outer loop
      vertex -35.7321 6 -18.3215
      vertex -35.2324 6 -17.3292
      vertex -35.4726 6 -17.9334
    endloop
  endfacet
  facet normal 0 1 0
    outer loop
      vertex -35.7321 6 -18.3215
      vertex -35.4726 6 -17.9334
      vertex -35.6154 6 -18.1833
    endloop
  endfacet
  facet normal 0 1 0
    outer loop
      vertex -35.2324 6 -17.3292
      vertex -35.7321 6 -18.3215
      vertex -46.7375 6 -6
    endloop
  endfacet
  facet normal 0 1 -0
    outer loop
      vertex -35.8499 6 -18.6522
      vertex -46.7375 6 -6
      vertex -35.7321 6 -18.3215
    endloop
  endfacet
  facet normal 0 1 0
    outer loop
      vertex -46.7375 6 -25
      vertex -35.8499 6 -18.6522
      vertex -35.8129 6 -20.9221
    endloop
  endfacet
  facet normal 0 1 0
    outer loop
      vertex -46.7375 6 -25
      vertex -35.8129 6 -20.9221
      vertex -35.78 6 -21.0926
    endloop
  endfacet
  facet normal 0 1 0
    outer loop
      vertex -46.7375 6 -25
      vertex -35.78 6 -21.0926
      vertex -35.6741 6 -21.3696
    endloop
  endfacet
  facet normal 0 1 0
    outer loop
      vertex -46.7375 6 -25
      vertex -35.6741 6 -21.3696
      vertex -35.4972 6 -21.8838
    endloop
  endfacet
  facet normal 0 1 0
    outer loop
      vertex -46.7375 6 -25
      vertex -35.4972 6 -21.8838
      vertex -35.2442 6 -22.7328
    endloop
  endfacet
  facet normal 0 1 0
    outer loop
      vertex -46.7375 6 -25
      vertex -35.2442 6 -22.7328
      vertex -35.232 6 -22.7686
    endloop
  endfacet
  facet normal 0 1 0
    outer loop
      vertex -46.7375 6 -25
      vertex -35.232 6 -22.7686
      vertex -34.905 6 -23.6236
    endloop
  endfacet
  facet normal 0 1 0
    outer loop
      vertex -46.7375 6 -25
      vertex -34.905 6 -23.6236
      vertex -34.8876 6 -23.6638
    endloop
  endfacet
  facet normal 0 1 0
    outer loop
      vertex -46.7375 6 -25
      vertex -34.8876 6 -23.6638
      vertex -34.4886 6 -24.4838
    endloop
  endfacet
  facet normal 0 1 0
    outer loop
      vertex -46.7375 6 -25
      vertex -34.4886 6 -24.4838
      vertex -34.4684 6 -24.5212
    endloop
  endfacet
  facet normal 0 1 0
    outer loop
      vertex -46.7375 6 -25
      vertex -34.4684 6 -24.5212
      vertex -34.1827 6 -25
    endloop
  endfacet
  facet normal 0 1 0
    outer loop
      vertex -35.8499 6 -18.6522
      vertex -46.7375 6 -25
      vertex -46.7375 6 -6
    endloop
  endfacet
  facet normal 0 1 -0
    outer loop
      vertex -2.38658 6 -5.60001
      vertex -29.2375 6 0
      vertex 47.2375 6 0
    endloop
  endfacet
  facet normal 0 1 0
    outer loop
      vertex -46.7375 6 -6
      vertex -32.2375 6 -1.5
      vertex -29.2375 6 -1.5
    endloop
  endfacet
  facet normal 0 1 0
    outer loop
      vertex -32.2375 6 -1.5
      vertex -46.7375 6 -6
      vertex -36.2375 6 -1.5
    endloop
  endfacet
  facet normal 0 1 -0
    outer loop
      vertex -8.75999 6 -6
      vertex -29.2375 6 0
      vertex -3.58499 6 -5.60001
    endloop
  endfacet
  facet normal 0 1 -0
    outer loop
      vertex -3.58499 6 -5.60001
      vertex -29.2375 6 0
      vertex -2.38658 6 -5.60001
    endloop
  endfacet
  facet normal 0 1 0
    outer loop
      vertex 47.2375 6 0
      vertex -2.23441 6 -5.61942
      vertex -2.38658 6 -5.60001
    endloop
  endfacet
  facet normal 0 1 0
    outer loop
      vertex 46.7375 6 -6
      vertex 47.2375 6 0
      vertex 47.2375 6 -6
    endloop
  endfacet
  facet normal 0 1 0
    outer loop
      vertex 33.7841 6 -12.5527
      vertex 47.2375 6 0
      vertex 46.7375 6 -6
    endloop
  endfacet
  facet normal 0 1 0
    outer loop
      vertex 47.2375 6 0
      vertex 10.4268 6 -7.3237
      vertex -2.23441 6 -5.61942
    endloop
  endfacet
  facet normal 0 1 0
    outer loop
      vertex 47.2375 6 0
      vertex 10.4832 6 -7.33296
      vertex 10.4268 6 -7.3237
    endloop
  endfacet
  facet normal 0 1 0
    outer loop
      vertex 47.2375 6 0
      vertex 13.5187 6 -7.89557
      vertex 10.4832 6 -7.33296
    endloop
  endfacet
  facet normal 0 1 0
    outer loop
      vertex 47.2375 6 0
      vertex 19.2095 6 -9.00034
      vertex 13.5187 6 -7.89557
    endloop
  endfacet
  facet normal 0 1 0
    outer loop
      vertex 47.2375 6 0
      vertex 21.8336 6 -9.51582
      vertex 19.2095 6 -9.00034
    endloop
  endfacet
  facet normal 0 1 0
    outer loop
      vertex 47.2375 6 0
      vertex 21.9226 6 -9.53613
      vertex 21.8336 6 -9.51582
    endloop
  endfacet
  facet normal 0 1 0
    outer loop
      vertex 47.2375 6 0
      vertex 30.4106 6 -11.6772
      vertex 21.9226 6 -9.53613
    endloop
  endfacet
  facet normal 0 1 0
    outer loop
      vertex 47.2375 6 0
      vertex 33.7841 6 -12.5527
      vertex 30.4106 6 -11.6772
    endloop
  endfacet
  facet normal 0 1 0
    outer loop
      vertex 46.7375 6 -6
      vertex 33.9753 6 -12.6219
      vertex 33.7841 6 -12.5527
    endloop
  endfacet
  facet normal 0 1 0
    outer loop
      vertex 46.7375 6 -6
      vertex 34.4883 6 -12.9029
      vertex 33.9753 6 -12.6219
    endloop
  endfacet
  facet normal 0 1 0
    outer loop
      vertex 46.7375 6 -6
      vertex 34.5989 6 -12.9781
      vertex 34.4883 6 -12.9029
    endloop
  endfacet
  facet normal 0 1 0
    outer loop
      vertex 46.7375 6 -6
      vertex 35.0328 6 -13.3381
      vertex 34.5989 6 -12.9781
    endloop
  endfacet
  facet normal 0 1 0
    outer loop
      vertex 46.7375 6 -6
      vertex 35.1566 6 -13.4717
      vertex 35.0328 6 -13.3381
    endloop
  endfacet
  facet normal 0 1 0
    outer loop
      vertex 46.7375 6 -6
      vertex 36.0482 6 -14.7159
      vertex 35.1566 6 -13.4717
    endloop
  endfacet
  facet normal 0 1 0
    outer loop
      vertex 46.7375 6 -6
      vertex 36.21 6 -15.1324
      vertex 36.0482 6 -14.7159
    endloop
  endfacet
  facet normal 0 1 0
    outer loop
      vertex 46.7375 6 -6
      vertex 36.2497 6 -16.2451
      vertex 36.21 6 -15.1324
    endloop
  endfacet
  facet normal 0 1 -0
    outer loop
      vertex 46.7375 6 -25
      vertex 36.2497 6 -16.2451
      vertex 46.7375 6 -6
    endloop
  endfacet
  facet normal 0 1 0
    outer loop
      vertex 36.2497 6 -16.2451
      vertex 46.7375 6 -25
      vertex 36.2497 6 -25
    endloop
  endfacet
  facet normal 0 1 -0
    outer loop
      vertex -32.2375 6 -1.5
      vertex -36.2375 6 0
      vertex -32.2375 6 0
    endloop
  endfacet
  facet normal 0 1 0
    outer loop
      vertex -36.2375 6 0
      vertex -32.2375 6 -1.5
      vertex -36.2375 6 -1.5
    endloop
  endfacet
  facet normal 0 1 -0
    outer loop
      vertex -39.2375 6 -1.5
      vertex -47.2375 6 0
      vertex -39.2375 6 0
    endloop
  endfacet
  facet normal 0 1 -0
    outer loop
      vertex -8.77097 6 -6.00012
      vertex -29.2375 6 0
      vertex -8.75999 6 -6
    endloop
  endfacet
  facet normal 0 1 0
    outer loop
      vertex -8.75999 6 -6
      vertex -3.58499 6 -5.60001
      vertex -3.58499 6 -6
    endloop
  endfacet
  facet normal 0 1 -0
    outer loop
      vertex -10.321 6 -6.03413
      vertex -29.2375 6 0
      vertex -8.77097 6 -6.00012
    endloop
  endfacet
  facet normal 0 1 0
    outer loop
      vertex -36.2375 6 -1.5
      vertex -46.7375 6 -6
      vertex -39.2375 6 -1.5
    endloop
  endfacet
  facet normal 0 1 -0
    outer loop
      vertex -46.7375 6 -6
      vertex -47.2375 6 0
      vertex -39.2375 6 -1.5
    endloop
  endfacet
  facet normal 0 1 0
    outer loop
      vertex -47.2375 6 0
      vertex -46.7375 6 -6
      vertex -47.2375 6 -6
    endloop
  endfacet
  facet normal 0 -1 0
    outer loop
      vertex 10.4832 -6 -7.33296
      vertex 47.2375 -6 0
      vertex 10.4268 -6 -7.3237
    endloop
  endfacet
  facet normal 0 -1 0
    outer loop
      vertex 13.5187 -6 -7.89557
      vertex 47.2375 -6 0
      vertex 10.4832 -6 -7.33296
    endloop
  endfacet
  facet normal 0 -1 0
    outer loop
      vertex 19.2095 -6 -9.00034
      vertex 47.2375 -6 0
      vertex 13.5187 -6 -7.89557
    endloop
  endfacet
  facet normal 0 -1 0
    outer loop
      vertex 21.8336 -6 -9.51582
      vertex 47.2375 -6 0
      vertex 19.2095 -6 -9.00034
    endloop
  endfacet
  facet normal 0 -1 0
    outer loop
      vertex 21.9226 -6 -9.53613
      vertex 47.2375 -6 0
      vertex 21.8336 -6 -9.51582
    endloop
  endfacet
  facet normal 0 -1 0
    outer loop
      vertex 30.4106 -6 -11.6772
      vertex 47.2375 -6 0
      vertex 21.9226 -6 -9.53613
    endloop
  endfacet
  facet normal 0 -1 0
    outer loop
      vertex 33.7841 -6 -12.5527
      vertex 47.2375 -6 0
      vertex 30.4106 -6 -11.6772
    endloop
  endfacet
  facet normal 0 -1 0
    outer loop
      vertex 47.2375 -6 0
      vertex 33.7841 -6 -12.5527
      vertex 46.7375 -6 -6
    endloop
  endfacet
  facet normal 0 -1 0
    outer loop
      vertex 33.9753 -6 -12.6219
      vertex 46.7375 -6 -6
      vertex 33.7841 -6 -12.5527
    endloop
  endfacet
  facet normal 0 -1 0
    outer loop
      vertex 34.4883 -6 -12.9029
      vertex 46.7375 -6 -6
      vertex 33.9753 -6 -12.6219
    endloop
  endfacet
  facet normal 0 -1 0
    outer loop
      vertex 34.5989 -6 -12.9781
      vertex 46.7375 -6 -6
      vertex 34.4883 -6 -12.9029
    endloop
  endfacet
  facet normal 0 -1 0
    outer loop
      vertex 35.0328 -6 -13.3381
      vertex 46.7375 -6 -6
      vertex 34.5989 -6 -12.9781
    endloop
  endfacet
  facet normal 0 -1 0
    outer loop
      vertex 35.1566 -6 -13.4717
      vertex 46.7375 -6 -6
      vertex 35.0328 -6 -13.3381
    endloop
  endfacet
  facet normal 0 -1 0
    outer loop
      vertex 36.0482 -6 -14.7159
      vertex 46.7375 -6 -6
      vertex 35.1566 -6 -13.4717
    endloop
  endfacet
  facet normal 0 -1 0
    outer loop
      vertex 36.21 -6 -15.1324
      vertex 46.7375 -6 -6
      vertex 36.0482 -6 -14.7159
    endloop
  endfacet
  facet normal 0 -1 0
    outer loop
      vertex 36.2497 -6 -16.2451
      vertex 46.7375 -6 -6
      vertex 36.21 -6 -15.1324
    endloop
  endfacet
  facet normal 0 -1 0
    outer loop
      vertex 46.7375 -6 -25
      vertex 36.2497 -6 -16.2451
      vertex 36.2497 -6 -25
    endloop
  endfacet
  facet normal 0 -1 0
    outer loop
      vertex 36.2497 -6 -16.2451
      vertex 46.7375 -6 -25
      vertex 46.7375 -6 -6
    endloop
  endfacet
  facet normal 0 -1 0
    outer loop
      vertex -29.2375 -6 -1.5
      vertex -8.77097 -6 -6.00012
      vertex -8.75999 -6 -6
    endloop
  endfacet
  facet normal 0 -1 0
    outer loop
      vertex -29.2375 -6 -1.5
      vertex -10.321 -6 -6.03413
      vertex -8.77097 -6 -6.00012
    endloop
  endfacet
  facet normal 0 -1 0
    outer loop
      vertex -29.2375 -6 -1.5
      vertex -10.3566 -6 -6.03619
      vertex -10.321 -6 -6.03413
    endloop
  endfacet
  facet normal 0 -1 0
    outer loop
      vertex -29.2375 -6 -1.5
      vertex -13.342 -6 -6.177
      vertex -10.3566 -6 -6.03619
    endloop
  endfacet
  facet normal 0 -1 0
    outer loop
      vertex -29.2375 -6 -1.5
      vertex -13.3962 -6 -6.17995
      vertex -13.342 -6 -6.177
    endloop
  endfacet
  facet normal 0 -1 0
    outer loop
      vertex -29.2375 -6 -1.5
      vertex -14.8722 -6 -6.34096
      vertex -13.3962 -6 -6.17995
    endloop
  endfacet
  facet normal 0 -1 0
    outer loop
      vertex -29.2375 -6 -1.5
      vertex -14.8939 -6 -6.34381
      vertex -14.8722 -6 -6.34096
    endloop
  endfacet
  facet normal -0 -1 0
    outer loop
      vertex -16.3284 -6 -6.56419
      vertex -29.2375 -6 -1.5
      vertex -17.7299 -6 -6.71902
    endloop
  endfacet
  facet normal 0 -1 0
    outer loop
      vertex -29.2375 -6 -1.5
      vertex -16.3284 -6 -6.56419
      vertex -14.8939 -6 -6.34381
    endloop
  endfacet
  facet normal 0 -1 0
    outer loop
      vertex -29.2375 -6 -1.5
      vertex -17.788 -6 -6.72894
      vertex -17.7299 -6 -6.71902
    endloop
  endfacet
  facet normal -0 -1 0
    outer loop
      vertex -19.1395 -6 -7.0425
      vertex -29.2375 -6 -1.5
      vertex -20.4517 -6 -7.21634
    endloop
  endfacet
  facet normal 0 -1 0
    outer loop
      vertex -29.2375 -6 -1.5
      vertex -19.1395 -6 -7.0425
      vertex -17.788 -6 -6.72894
    endloop
  endfacet
  facet normal 0 -1 0
    outer loop
      vertex -29.2375 -6 -1.5
      vertex -20.5235 -6 -7.23129
      vertex -20.4517 -6 -7.21634
    endloop
  endfacet
  facet normal 0 -1 0
    outer loop
      vertex -29.2375 -6 -1.5
      vertex -21.8104 -6 -7.59952
      vertex -20.5235 -6 -7.23129
    endloop
  endfacet
  facet normal 0 -1 0
    outer loop
      vertex -29.2375 -6 -1.5
      vertex -23.0519 -6 -7.91986
      vertex -21.8104 -6 -7.59952
    endloop
  endfacet
  facet normal 0 -1 0
    outer loop
      vertex -29.2375 -6 -1.5
      vertex -23.085 -6 -7.92963
      vertex -23.0519 -6 -7.91986
    endloop
  endfacet
  facet normal 0 -1 0
    outer loop
      vertex -29.2375 -6 -1.5
      vertex -24.2766 -6 -8.32649
      vertex -23.085 -6 -7.92963
    endloop
  endfacet
  facet normal 0 -1 0
    outer loop
      vertex -29.2375 -6 -1.5
      vertex -25.4183 -6 -8.65781
      vertex -24.2766 -6 -8.32649
    endloop
  endfacet
  facet normal 0 -1 0
    outer loop
      vertex -29.2375 -6 -1.5
      vertex -25.4809 -6 -8.68056
      vertex -25.4183 -6 -8.65781
    endloop
  endfacet
  facet normal 0 -1 0
    outer loop
      vertex -29.2375 -6 -1.5
      vertex -26.5799 -6 -9.16556
      vertex -25.4809 -6 -8.68056
    endloop
  endfacet
  facet normal 0 -1 0
    outer loop
      vertex -29.2375 -6 -1.5
      vertex -26.6273 -6 -9.18961
      vertex -26.5799 -6 -9.16556
    endloop
  endfacet
  facet normal 0 -1 0
    outer loop
      vertex -29.2375 -6 -1.5
      vertex -27.662 -6 -9.78484
      vertex -26.6273 -6 -9.18961
    endloop
  endfacet
  facet normal 0 -1 0
    outer loop
      vertex -29.2375 -6 -1.5
      vertex -28.6375 -6 -10.2988
      vertex -27.662 -6 -9.78484
    endloop
  endfacet
  facet normal 0 -1 0
    outer loop
      vertex -32.2375 -6 -1.5
      vertex -28.6375 -6 -10.2988
      vertex -29.2375 -6 -1.5
    endloop
  endfacet
  facet normal -0 -1 0
    outer loop
      vertex -28.6375 -6 -10.2988
      vertex -32.2375 -6 -1.5
      vertex -29.5611 -6 -10.7646
    endloop
  endfacet
  facet normal -0 -1 0
    outer loop
      vertex -29.5611 -6 -10.7646
      vertex -32.2375 -6 -1.5
      vertex -29.6047 -6 -10.7893
    endloop
  endfacet
  facet normal -0 -1 0
    outer loop
      vertex -29.6047 -6 -10.7893
      vertex -32.2375 -6 -1.5
      vertex -30.4727 -6 -11.3423
    endloop
  endfacet
  facet normal -0 -1 0
    outer loop
      vertex -30.4727 -6 -11.3423
      vertex -32.2375 -6 -1.5
      vertex -30.5252 -6 -11.3808
    endloop
  endfacet
  facet normal 0 -1 0
    outer loop
      vertex -46.7375 -6 -6
      vertex -32.0714 -6 -12.6808
      vertex -31.3304 -6 -12.0558
    endloop
  endfacet
  facet normal 0 -1 0
    outer loop
      vertex -46.7375 -6 -6
      vertex -32.086 -6 -12.6936
      vertex -32.0714 -6 -12.6808
    endloop
  endfacet
  facet normal 0 -1 0
    outer loop
      vertex -46.7375 -6 -6
      vertex -32.76 -6 -13.3087
      vertex -32.086 -6 -12.6936
    endloop
  endfacet
  facet normal 0 -1 0
    outer loop
      vertex -46.7375 -6 -6
      vertex -32.8059 -6 -13.3565
      vertex -32.76 -6 -13.3087
    endloop
  endfacet
  facet normal 0 -1 0
    outer loop
      vertex -46.7375 -6 -6
      vertex -33.4139 -6 -14.0805
      vertex -32.8059 -6 -13.3565
    endloop
  endfacet
  facet normal 0 -1 0
    outer loop
      vertex -46.7375 -6 -6
      vertex -33.4288 -6 -14.0991
      vertex -33.4139 -6 -14.0805
    endloop
  endfacet
  facet normal 0 -1 0
    outer loop
      vertex -46.7375 -6 -6
      vertex -33.9661 -6 -14.8049
      vertex -33.4288 -6 -14.0991
    endloop
  endfacet
  facet normal 0 -1 0
    outer loop
      vertex -46.7375 -6 -6
      vertex -34.4351 -6 -15.4139
      vertex -33.9661 -6 -14.8049
    endloop
  endfacet
  facet normal 0 -1 0
    outer loop
      vertex -46.7375 -6 -6
      vertex -34.4953 -6 -15.5146
      vertex -34.4351 -6 -15.4139
    endloop
  endfacet
  facet normal 0 -1 0
    outer loop
      vertex -46.7375 -6 -6
      vertex -34.8943 -6 -16.4056
      vertex -34.4953 -6 -15.5146
    endloop
  endfacet
  facet normal 0 -1 0
    outer loop
      vertex -46.7375 -6 -6
      vertex -34.9077 -6 -16.4388
      vertex -34.8943 -6 -16.4056
    endloop
  endfacet
  facet normal 0 -1 0
    outer loop
      vertex -46.7375 -6 -6
      vertex -35.2324 -6 -17.3292
      vertex -34.9077 -6 -16.4388
    endloop
  endfacet
  facet normal 0 -1 0
    outer loop
      vertex -35.7321 -6 -18.3215
      vertex -35.2324 -6 -17.3292
      vertex -46.7375 -6 -6
    endloop
  endfacet
  facet normal 0 -1 0
    outer loop
      vertex -35.2324 -6 -17.3292
      vertex -35.7321 -6 -18.3215
      vertex -35.4726 -6 -17.9334
    endloop
  endfacet
  facet normal 0 -1 0
    outer loop
      vertex -35.4726 -6 -17.9334
      vertex -35.7321 -6 -18.3215
      vertex -35.6154 -6 -18.1833
    endloop
  endfacet
  facet normal 0 -1 0
    outer loop
      vertex -46.7375 -6 -6
      vertex -35.8499 -6 -18.6522
      vertex -35.7321 -6 -18.3215
    endloop
  endfacet
  facet normal 0 -1 0
    outer loop
      vertex -46.7375 -6 -25
      vertex -35.8499 -6 -18.6522
      vertex -46.7375 -6 -6
    endloop
  endfacet
  facet normal 0 -1 -0
    outer loop
      vertex -35.8499 -6 -18.6522
      vertex -46.7375 -6 -25
      vertex -35.8129 -6 -20.9221
    endloop
  endfacet
  facet normal 0 -1 -0
    outer loop
      vertex -35.8129 -6 -20.9221
      vertex -46.7375 -6 -25
      vertex -35.78 -6 -21.0926
    endloop
  endfacet
  facet normal 0 -1 -0
    outer loop
      vertex -35.78 -6 -21.0926
      vertex -46.7375 -6 -25
      vertex -35.6741 -6 -21.3696
    endloop
  endfacet
  facet normal 0 -1 -0
    outer loop
      vertex -35.6741 -6 -21.3696
      vertex -46.7375 -6 -25
      vertex -35.4972 -6 -21.8838
    endloop
  endfacet
  facet normal 0 -1 -0
    outer loop
      vertex -35.4972 -6 -21.8838
      vertex -46.7375 -6 -25
      vertex -35.2442 -6 -22.7328
    endloop
  endfacet
  facet normal 0 -1 -0
    outer loop
      vertex -35.2442 -6 -22.7328
      vertex -46.7375 -6 -25
      vertex -35.232 -6 -22.7686
    endloop
  endfacet
  facet normal 0 -1 -0
    outer loop
      vertex -35.232 -6 -22.7686
      vertex -46.7375 -6 -25
      vertex -34.905 -6 -23.6236
    endloop
  endfacet
  facet normal 0 -1 -0
    outer loop
      vertex -34.905 -6 -23.6236
      vertex -46.7375 -6 -25
      vertex -34.8876 -6 -23.6638
    endloop
  endfacet
  facet normal 0 -1 -0
    outer loop
      vertex -34.8876 -6 -23.6638
      vertex -46.7375 -6 -25
      vertex -34.4886 -6 -24.4838
    endloop
  endfacet
  facet normal 0 -1 -0
    outer loop
      vertex -34.4886 -6 -24.4838
      vertex -46.7375 -6 -25
      vertex -34.4684 -6 -24.5212
    endloop
  endfacet
  facet normal 0 -1 -0
    outer loop
      vertex -34.4684 -6 -24.5212
      vertex -46.7375 -6 -25
      vertex -34.1827 -6 -25
    endloop
  endfacet
  facet normal 0 -1 0
    outer loop
      vertex -47.2375 -6 0
      vertex -39.2375 -6 -1.5
      vertex -39.2375 -6 0
    endloop
  endfacet
  facet normal 0 -1 0
    outer loop
      vertex -31.3304 -6 -12.0558
      vertex -39.2375 -6 -1.5
      vertex -46.7375 -6 -6
    endloop
  endfacet
  facet normal 0 -1 0
    outer loop
      vertex -39.2375 -6 -1.5
      vertex -31.3304 -6 -12.0558
      vertex -36.2375 -6 -1.5
    endloop
  endfacet
  facet normal -0 -1 0
    outer loop
      vertex -30.5252 -6 -11.3808
      vertex -36.2375 -6 -1.5
      vertex -31.3304 -6 -12.0558
    endloop
  endfacet
  facet normal 0 -1 0
    outer loop
      vertex -46.7375 -6 -6
      vertex -47.2375 -6 0
      vertex -47.2375 -6 -6
    endloop
  endfacet
  facet normal 0 -1 0
    outer loop
      vertex -47.2375 -6 0
      vertex -46.7375 -6 -6
      vertex -39.2375 -6 -1.5
    endloop
  endfacet
  facet normal 0 -1 0
    outer loop
      vertex -36.2375 -6 -1.5
      vertex -30.5252 -6 -11.3808
      vertex -32.2375 -6 -1.5
    endloop
  endfacet
  facet normal 0 -1 0
    outer loop
      vertex -29.2375 -6 -1.5
      vertex -8.75999 -6 -6
      vertex -3.58499 -6 -5.60001
    endloop
  endfacet
  facet normal 0 -1 -0
    outer loop
      vertex -3.58499 -6 -5.60001
      vertex -8.75999 -6 -6
      vertex -3.58499 -6 -6
    endloop
  endfacet
  facet normal 0 -1 0
    outer loop
      vertex -36.2375 -6 -1.5
      vertex -32.2375 -6 0
      vertex -36.2375 -6 0
    endloop
  endfacet
  facet normal 0 -1 -0
    outer loop
      vertex -32.2375 -6 0
      vertex -36.2375 -6 -1.5
      vertex -32.2375 -6 -1.5
    endloop
  endfacet
  facet normal 0 -1 0
    outer loop
      vertex -3.58499 -6 -5.60001
      vertex -29.2375 -6 0
      vertex -29.2375 -6 -1.5
    endloop
  endfacet
  facet normal 0 -1 0
    outer loop
      vertex -29.2375 -6 0
      vertex -3.58499 -6 -5.60001
      vertex -2.38658 -6 -5.60001
    endloop
  endfacet
  facet normal 0 -1 0
    outer loop
      vertex -29.2375 -6 0
      vertex -2.38658 -6 -5.60001
      vertex 47.2375 -6 0
    endloop
  endfacet
  facet normal 0 -1 0
    outer loop
      vertex -2.23441 -6 -5.61942
      vertex 47.2375 -6 0
      vertex -2.38658 -6 -5.60001
    endloop
  endfacet
  facet normal 0 -1 0
    outer loop
      vertex 10.4268 -6 -7.3237
      vertex 47.2375 -6 0
      vertex -2.23441 -6 -5.61942
    endloop
  endfacet
  facet normal 0 -1 -0
    outer loop
      vertex 47.2375 -6 0
      vertex 46.7375 -6 -6
      vertex 47.2375 -6 -6
    endloop
  endfacet
  facet normal 0 -1 0
    outer loop
      vertex -10.3566 -6 -6.03619
      vertex -13.342 -6 -6.177
      vertex -11.8613 -6 -6.177
    endloop
  endfacet
  facet normal -1 0 0
    outer loop
      vertex -36.2375 -6 -1.5
      vertex -36.2375 6 0
      vertex -36.2375 6 -1.5
    endloop
  endfacet
  facet normal -1 -0 0
    outer loop
      vertex -36.2375 6 0
      vertex -36.2375 -6 -1.5
      vertex -36.2375 -6 0
    endloop
  endfacet
  facet normal -0 0 1
    outer loop
      vertex -39.2375 6 -1.5
      vertex -36.2375 -6 -1.5
      vertex -36.2375 6 -1.5
    endloop
  endfacet
  facet normal 0 0 1
    outer loop
      vertex -36.2375 -6 -1.5
      vertex -39.2375 6 -1.5
      vertex -39.2375 -6 -1.5
    endloop
  endfacet
  facet normal 1 -0 0
    outer loop
      vertex -39.2375 -6 0
      vertex -39.2375 6 -1.5
      vertex -39.2375 6 0
    endloop
  endfacet
  facet normal 1 0 0
    outer loop
      vertex -39.2375 6 -1.5
      vertex -39.2375 -6 0
      vertex -39.2375 -6 -1.5
    endloop
  endfacet
  facet normal -1 0 0
    outer loop
      vertex -29.2375 -6 -1.5
      vertex -29.2375 6 0
      vertex -29.2375 6 -1.5
    endloop
  endfacet
  facet normal -1 -0 0
    outer loop
      vertex -29.2375 6 0
      vertex -29.2375 -6 -1.5
      vertex -29.2375 -6 0
    endloop
  endfacet
  facet normal -0 0 1
    outer loop
      vertex -32.2375 6 -1.5
      vertex -29.2375 -6 -1.5
      vertex -29.2375 6 -1.5
    endloop
  endfacet
  facet normal 0 0 1
    outer loop
      vertex -29.2375 -6 -1.5
      vertex -32.2375 6 -1.5
      vertex -32.2375 -6 -1.5
    endloop
  endfacet
  facet normal 1 -0 0
    outer loop
      vertex -32.2375 -6 0
      vertex -32.2375 6 -1.5
      vertex -32.2375 6 0
    endloop
  endfacet
  facet normal 1 0 0
    outer loop
      vertex -32.2375 6 -1.5
      vertex -32.2375 -6 0
      vertex -32.2375 -6 -1.5
    endloop
  endfacet
endsolid OpenSCAD_Model
