solid OpenSCAD_Model
  facet normal 0 0 1
    outer loop
      vertex -39.2375 6 0
      vertex -45.3375 0 0
      vertex -39.2375 -6 0
    endloop
  endfacet
  facet normal 0 0 1
    outer loop
      vertex -39.2375 6 0
      vertex -45.3521 0.398736 0
      vertex -45.3375 0 0
    endloop
  endfacet
  facet normal 0 0 1
    outer loop
      vertex -39.2375 6 0
      vertex -45.3957 0.795346 0
      vertex -45.3521 0.398736 0
    endloop
  endfacet
  facet normal 0 0 1
    outer loop
      vertex -39.2375 6 0
      vertex -45.4682 1.18771 0
      vertex -45.3957 0.795346 0
    endloop
  endfacet
  facet normal 0 0 1
    outer loop
      vertex -39.2375 6 0
      vertex -45.5691 1.57374 0
      vertex -45.4682 1.18771 0
    endloop
  endfacet
  facet normal 0 0 1
    outer loop
      vertex -39.2375 6 0
      vertex -45.6979 1.95137 0
      vertex -45.5691 1.57374 0
    endloop
  endfacet
  facet normal 0 0 1
    outer loop
      vertex -39.2375 6 0
      vertex -45.854 2.31859 0
      vertex -45.6979 1.95137 0
    endloop
  endfacet
  facet normal 0 0 1
    outer loop
      vertex -39.2375 6 0
      vertex -46.0364 2.67344 0
      vertex -45.854 2.31859 0
    endloop
  endfacet
  facet normal 0 0 1
    outer loop
      vertex -39.2375 6 0
      vertex -46.2443 3.01403 0
      vertex -46.0364 2.67344 0
    endloop
  endfacet
  facet normal 0 0 1
    outer loop
      vertex -39.2375 6 0
      vertex -46.4764 3.33854 0
      vertex -46.2443 3.01403 0
    endloop
  endfacet
  facet normal -0 0 1
    outer loop
      vertex -47.2375 6 0
      vertex -46.4764 3.33854 0
      vertex -39.2375 6 0
    endloop
  endfacet
  facet normal 0 0 1
    outer loop
      vertex -46.4764 3.33854 0
      vertex -47.2375 6 0
      vertex -46.7317 3.64523 0
    endloop
  endfacet
  facet normal 0 0 1
    outer loop
      vertex -46.7317 3.64523 0
      vertex -47.2375 6 0
      vertex -47.0086 3.93247 0
    endloop
  endfacet
  facet normal 0 0 1
    outer loop
      vertex -47.0086 3.93247 0
      vertex -47.2375 6 0
      vertex -47.2375 4.13755 0
    endloop
  endfacet
  facet normal -0 0 1
    outer loop
      vertex -45.3521 -0.398736 0
      vertex -39.2375 -6 0
      vertex -45.3375 0 0
    endloop
  endfacet
  facet normal -0 0 1
    outer loop
      vertex -45.3957 -0.795346 0
      vertex -39.2375 -6 0
      vertex -45.3521 -0.398736 0
    endloop
  endfacet
  facet normal -0 0 1
    outer loop
      vertex -45.4682 -1.18771 0
      vertex -39.2375 -6 0
      vertex -45.3957 -0.795346 0
    endloop
  endfacet
  facet normal -0 0 1
    outer loop
      vertex -45.5691 -1.57374 0
      vertex -39.2375 -6 0
      vertex -45.4682 -1.18771 0
    endloop
  endfacet
  facet normal -0 0 1
    outer loop
      vertex -45.6979 -1.95137 0
      vertex -39.2375 -6 0
      vertex -45.5691 -1.57374 0
    endloop
  endfacet
  facet normal -0 0 1
    outer loop
      vertex -45.854 -2.31859 0
      vertex -39.2375 -6 0
      vertex -45.6979 -1.95137 0
    endloop
  endfacet
  facet normal -0 0 1
    outer loop
      vertex -46.0364 -2.67344 0
      vertex -39.2375 -6 0
      vertex -45.854 -2.31859 0
    endloop
  endfacet
  facet normal -0 0 1
    outer loop
      vertex -46.2443 -3.01403 0
      vertex -39.2375 -6 0
      vertex -46.0364 -2.67344 0
    endloop
  endfacet
  facet normal -0 0 1
    outer loop
      vertex -46.4764 -3.33854 0
      vertex -39.2375 -6 0
      vertex -46.2443 -3.01403 0
    endloop
  endfacet
  facet normal 0 0 1
    outer loop
      vertex -47.2375 -6 0
      vertex -46.4764 -3.33854 0
      vertex -46.7317 -3.64523 0
    endloop
  endfacet
  facet normal 0 0 1
    outer loop
      vertex -47.2375 -6 0
      vertex -46.7317 -3.64523 0
      vertex -47.0086 -3.93247 0
    endloop
  endfacet
  facet normal 0 0 1
    outer loop
      vertex -47.2375 -6 0
      vertex -47.0086 -3.93247 0
      vertex -47.2375 -4.13755 0
    endloop
  endfacet
  facet normal 0 0 1
    outer loop
      vertex -46.4764 -3.33854 0
      vertex -47.2375 -6 0
      vertex -39.2375 -6 0
    endloop
  endfacet
  facet normal 0 0 1
    outer loop
      vertex 47.2375 6 0
      vertex 47.0086 3.93247 0
      vertex 47.2375 4.13755 0
    endloop
  endfacet
  facet normal 0 0 1
    outer loop
      vertex 47.2375 6 0
      vertex 46.7317 3.64523 0
      vertex 47.0086 3.93247 0
    endloop
  endfacet
  facet normal 0 0 1
    outer loop
      vertex 47.2375 6 0
      vertex 46.4764 3.33854 0
      vertex 46.7317 3.64523 0
    endloop
  endfacet
  facet normal 0 0 1
    outer loop
      vertex 47.2375 6 0
      vertex 46.2443 3.01403 0
      vertex 46.4764 3.33854 0
    endloop
  endfacet
  facet normal 0 0 1
    outer loop
      vertex 47.2375 6 0
      vertex 46.0364 2.67344 0
      vertex 46.2443 3.01403 0
    endloop
  endfacet
  facet normal 0 0 1
    outer loop
      vertex 47.2375 6 0
      vertex 45.854 2.31859 0
      vertex 46.0364 2.67344 0
    endloop
  endfacet
  facet normal -0 0 1
    outer loop
      vertex -29.2375 6 0
      vertex 45.854 2.31859 0
      vertex 47.2375 6 0
    endloop
  endfacet
  facet normal 0 0 1
    outer loop
      vertex 45.3521 0.398736 0
      vertex -29.2375 6 0
      vertex 45.3375 0 0
    endloop
  endfacet
  facet normal 0 0 1
    outer loop
      vertex 45.3957 0.795346 0
      vertex -29.2375 6 0
      vertex 45.3521 0.398736 0
    endloop
  endfacet
  facet normal 0 0 1
    outer loop
      vertex 45.4682 1.18771 0
      vertex -29.2375 6 0
      vertex 45.3957 0.795346 0
    endloop
  endfacet
  facet normal 0 0 1
    outer loop
      vertex 45.5691 1.57374 0
      vertex -29.2375 6 0
      vertex 45.4682 1.18771 0
    endloop
  endfacet
  facet normal 0 0 1
    outer loop
      vertex 45.6979 1.95137 0
      vertex -29.2375 6 0
      vertex 45.5691 1.57374 0
    endloop
  endfacet
  facet normal 0 0 1
    outer loop
      vertex 45.854 2.31859 0
      vertex -29.2375 6 0
      vertex 45.6979 1.95137 0
    endloop
  endfacet
  facet normal 0 0 1
    outer loop
      vertex 47.0086 -3.93247 0
      vertex 47.2375 -6 0
      vertex 47.2375 -4.13755 0
    endloop
  endfacet
  facet normal 0 0 1
    outer loop
      vertex 46.7317 -3.64523 0
      vertex 47.2375 -6 0
      vertex 47.0086 -3.93247 0
    endloop
  endfacet
  facet normal 0 0 1
    outer loop
      vertex 46.4764 -3.33854 0
      vertex 47.2375 -6 0
      vertex 46.7317 -3.64523 0
    endloop
  endfacet
  facet normal 0 0 1
    outer loop
      vertex 46.2443 -3.01403 0
      vertex 47.2375 -6 0
      vertex 46.4764 -3.33854 0
    endloop
  endfacet
  facet normal 0 0 1
    outer loop
      vertex 46.0364 -2.67344 0
      vertex 47.2375 -6 0
      vertex 46.2443 -3.01403 0
    endloop
  endfacet
  facet normal 0 0 1
    outer loop
      vertex 45.854 -2.31859 0
      vertex 47.2375 -6 0
      vertex 46.0364 -2.67344 0
    endloop
  endfacet
  facet normal 0 0 1
    outer loop
      vertex -29.2375 -6 0
      vertex 45.854 -2.31859 0
      vertex 45.6979 -1.95137 0
    endloop
  endfacet
  facet normal 0 0 1
    outer loop
      vertex -29.2375 -6 0
      vertex 45.3375 0 0
      vertex -29.2375 6 0
    endloop
  endfacet
  facet normal 0 0 1
    outer loop
      vertex 45.3375 0 0
      vertex -29.2375 -6 0
      vertex 45.3521 -0.398736 0
    endloop
  endfacet
  facet normal 0 0 1
    outer loop
      vertex 45.3521 -0.398736 0
      vertex -29.2375 -6 0
      vertex 45.3957 -0.795346 0
    endloop
  endfacet
  facet normal 0 0 1
    outer loop
      vertex 45.3957 -0.795346 0
      vertex -29.2375 -6 0
      vertex 45.4682 -1.18771 0
    endloop
  endfacet
  facet normal 0 0 1
    outer loop
      vertex 45.4682 -1.18771 0
      vertex -29.2375 -6 0
      vertex 45.5691 -1.57374 0
    endloop
  endfacet
  facet normal 0 0 1
    outer loop
      vertex 45.5691 -1.57374 0
      vertex -29.2375 -6 0
      vertex 45.6979 -1.95137 0
    endloop
  endfacet
  facet normal 0 0 1
    outer loop
      vertex 45.854 -2.31859 0
      vertex -29.2375 -6 0
      vertex 47.2375 -6 0
    endloop
  endfacet
  facet normal -0 0 1
    outer loop
      vertex -36.2375 6 0
      vertex -32.2375 -6 0
      vertex -32.2375 6 0
    endloop
  endfacet
  facet normal 0 0 1
    outer loop
      vertex -32.2375 -6 0
      vertex -36.2375 6 0
      vertex -36.2375 -6 0
    endloop
  endfacet
  facet normal 0 0 -1
    outer loop
      vertex -46.7375 -6 -6
      vertex -47.0086 -3.93247 -6
      vertex -46.7375 -3.65126 -6
    endloop
  endfacet
  facet normal 0 0 -1
    outer loop
      vertex -47.2375 -4.13755 -6
      vertex -46.7375 -6 -6
      vertex -47.2375 -6 -6
    endloop
  endfacet
  facet normal 0 0 -1
    outer loop
      vertex -46.7375 -6 -6
      vertex -47.2375 -4.13755 -6
      vertex -47.0086 -3.93247 -6
    endloop
  endfacet
  facet normal 0 0 -1
    outer loop
      vertex 46.7375 -6 -6
      vertex 47.2375 -4.13755 -6
      vertex 47.2375 -6 -6
    endloop
  endfacet
  facet normal -0 0 -1
    outer loop
      vertex 47.2375 -4.13755 -6
      vertex 46.7375 -6 -6
      vertex 47.0086 -3.93247 -6
    endloop
  endfacet
  facet normal -0 0 -1
    outer loop
      vertex 47.0086 -3.93247 -6
      vertex 46.7375 -6 -6
      vertex 46.7375 -3.65126 -6
    endloop
  endfacet
  facet normal 0 0 -1
    outer loop
      vertex -47.0086 3.93247 -6
      vertex -46.7375 6 -6
      vertex -46.7375 3.65126 -6
    endloop
  endfacet
  facet normal 0 0 -1
    outer loop
      vertex -47.2375 4.13755 -6
      vertex -46.7375 6 -6
      vertex -47.0086 3.93247 -6
    endloop
  endfacet
  facet normal -0 0 -1
    outer loop
      vertex -46.7375 6 -6
      vertex -47.2375 4.13755 -6
      vertex -47.2375 6 -6
    endloop
  endfacet
  facet normal 0 0 -1
    outer loop
      vertex 46.7375 6 -6
      vertex 47.2375 4.13755 -6
      vertex 47.0086 3.93247 -6
    endloop
  endfacet
  facet normal 0 0 -1
    outer loop
      vertex 46.7375 6 -6
      vertex 47.0086 3.93247 -6
      vertex 46.7375 3.65126 -6
    endloop
  endfacet
  facet normal 0 0 -1
    outer loop
      vertex 47.2375 4.13755 -6
      vertex 46.7375 6 -6
      vertex 47.2375 6 -6
    endloop
  endfacet
  facet normal 1 -0 0
    outer loop
      vertex 46.7375 3.65126 -6
      vertex 46.7375 6 -27
      vertex 46.7375 6 -6
    endloop
  endfacet
  facet normal 1 0 0
    outer loop
      vertex 46.7375 6 -27
      vertex 46.7375 3.65126 -6
      vertex 46.7375 3.65126 -27
    endloop
  endfacet
  facet normal 1 -0 0
    outer loop
      vertex 46.7375 -6 -6
      vertex 46.7375 -3.65126 -27
      vertex 46.7375 -3.65126 -6
    endloop
  endfacet
  facet normal 1 0 0
    outer loop
      vertex 46.7375 -3.65126 -27
      vertex 46.7375 -6 -6
      vertex 46.7375 -6 -27
    endloop
  endfacet
  facet normal 0 0 -1
    outer loop
      vertex -36.1477 -6 -27
      vertex -45.3375 0 -27
      vertex -36.1477 6 -27
    endloop
  endfacet
  facet normal 0 0 -1
    outer loop
      vertex -36.1477 -6 -27
      vertex -45.3521 -0.398736 -27
      vertex -45.3375 0 -27
    endloop
  endfacet
  facet normal 0 0 -1
    outer loop
      vertex -36.1477 -6 -27
      vertex -45.3957 -0.795346 -27
      vertex -45.3521 -0.398736 -27
    endloop
  endfacet
  facet normal 0 0 -1
    outer loop
      vertex -36.1477 -6 -27
      vertex -45.4682 -1.18771 -27
      vertex -45.3957 -0.795346 -27
    endloop
  endfacet
  facet normal 0 0 -1
    outer loop
      vertex -36.1477 -6 -27
      vertex -45.5691 -1.57374 -27
      vertex -45.4682 -1.18771 -27
    endloop
  endfacet
  facet normal 0 0 -1
    outer loop
      vertex -36.1477 -6 -27
      vertex -45.6979 -1.95137 -27
      vertex -45.5691 -1.57374 -27
    endloop
  endfacet
  facet normal 0 0 -1
    outer loop
      vertex -36.1477 -6 -27
      vertex -45.854 -2.31859 -27
      vertex -45.6979 -1.95137 -27
    endloop
  endfacet
  facet normal 0 0 -1
    outer loop
      vertex -36.1477 -6 -27
      vertex -46.0364 -2.67344 -27
      vertex -45.854 -2.31859 -27
    endloop
  endfacet
  facet normal 0 0 -1
    outer loop
      vertex -46.7375 -6 -27
      vertex -46.0364 -2.67344 -27
      vertex -36.1477 -6 -27
    endloop
  endfacet
  facet normal 0 0 -1
    outer loop
      vertex -46.0364 -2.67344 -27
      vertex -46.7375 -6 -27
      vertex -46.2443 -3.01403 -27
    endloop
  endfacet
  facet normal 0 0 -1
    outer loop
      vertex -46.2443 -3.01403 -27
      vertex -46.7375 -6 -27
      vertex -46.4764 -3.33854 -27
    endloop
  endfacet
  facet normal 0 0 -1
    outer loop
      vertex -46.4764 -3.33854 -27
      vertex -46.7375 -6 -27
      vertex -46.7317 -3.64523 -27
    endloop
  endfacet
  facet normal 0 0 -1
    outer loop
      vertex -46.7317 -3.64523 -27
      vertex -46.7375 -6 -27
      vertex -46.7375 -3.65126 -27
    endloop
  endfacet
  facet normal 0 0 -1
    outer loop
      vertex -45.3521 0.398736 -27
      vertex -36.1477 6 -27
      vertex -45.3375 0 -27
    endloop
  endfacet
  facet normal 0 0 -1
    outer loop
      vertex -45.3957 0.795346 -27
      vertex -36.1477 6 -27
      vertex -45.3521 0.398736 -27
    endloop
  endfacet
  facet normal 0 0 -1
    outer loop
      vertex -45.4682 1.18771 -27
      vertex -36.1477 6 -27
      vertex -45.3957 0.795346 -27
    endloop
  endfacet
  facet normal 0 0 -1
    outer loop
      vertex -45.5691 1.57374 -27
      vertex -36.1477 6 -27
      vertex -45.4682 1.18771 -27
    endloop
  endfacet
  facet normal 0 0 -1
    outer loop
      vertex -45.6979 1.95137 -27
      vertex -36.1477 6 -27
      vertex -45.5691 1.57374 -27
    endloop
  endfacet
  facet normal 0 0 -1
    outer loop
      vertex -45.854 2.31859 -27
      vertex -36.1477 6 -27
      vertex -45.6979 1.95137 -27
    endloop
  endfacet
  facet normal 0 0 -1
    outer loop
      vertex -46.0364 2.67344 -27
      vertex -36.1477 6 -27
      vertex -45.854 2.31859 -27
    endloop
  endfacet
  facet normal 0 0 -1
    outer loop
      vertex -46.7375 6 -27
      vertex -46.0364 2.67344 -27
      vertex -46.2443 3.01403 -27
    endloop
  endfacet
  facet normal 0 0 -1
    outer loop
      vertex -46.7375 6 -27
      vertex -46.2443 3.01403 -27
      vertex -46.4764 3.33854 -27
    endloop
  endfacet
  facet normal 0 0 -1
    outer loop
      vertex -46.7375 6 -27
      vertex -46.4764 3.33854 -27
      vertex -46.7317 3.64523 -27
    endloop
  endfacet
  facet normal 0 0 -1
    outer loop
      vertex -46.7375 6 -27
      vertex -46.7317 3.64523 -27
      vertex -46.7375 3.65126 -27
    endloop
  endfacet
  facet normal 0 0 -1
    outer loop
      vertex -46.0364 2.67344 -27
      vertex -46.7375 6 -27
      vertex -36.1477 6 -27
    endloop
  endfacet
  facet normal 0 0 -1
    outer loop
      vertex 46.7375 -6 -27
      vertex 46.7317 -3.64523 -27
      vertex 46.7375 -3.65126 -27
    endloop
  endfacet
  facet normal 0 0 -1
    outer loop
      vertex 46.7375 -6 -27
      vertex 46.4764 -3.33854 -27
      vertex 46.7317 -3.64523 -27
    endloop
  endfacet
  facet normal 0 0 -1
    outer loop
      vertex 46.7375 -6 -27
      vertex 46.2443 -3.01403 -27
      vertex 46.4764 -3.33854 -27
    endloop
  endfacet
  facet normal 0 0 -1
    outer loop
      vertex 46.7375 -6 -27
      vertex 46.0364 -2.67344 -27
      vertex 46.2443 -3.01403 -27
    endloop
  endfacet
  facet normal 0 0 -1
    outer loop
      vertex 37.95 -6 -27
      vertex 46.0364 -2.67344 -27
      vertex 46.7375 -6 -27
    endloop
  endfacet
  facet normal -0 0 -1
    outer loop
      vertex 46.0364 -2.67344 -27
      vertex 37.95 -6 -27
      vertex 45.854 -2.31859 -27
    endloop
  endfacet
  facet normal -0 0 -1
    outer loop
      vertex 45.854 -2.31859 -27
      vertex 37.95 -6 -27
      vertex 45.6979 -1.95137 -27
    endloop
  endfacet
  facet normal -0 0 -1
    outer loop
      vertex 45.3521 -0.398736 -27
      vertex 37.95 -6 -27
      vertex 45.3375 0 -27
    endloop
  endfacet
  facet normal -0 0 -1
    outer loop
      vertex 45.3957 -0.795346 -27
      vertex 37.95 -6 -27
      vertex 45.3521 -0.398736 -27
    endloop
  endfacet
  facet normal -0 0 -1
    outer loop
      vertex 45.4682 -1.18771 -27
      vertex 37.95 -6 -27
      vertex 45.3957 -0.795346 -27
    endloop
  endfacet
  facet normal -0 0 -1
    outer loop
      vertex 45.5691 -1.57374 -27
      vertex 37.95 -6 -27
      vertex 45.4682 -1.18771 -27
    endloop
  endfacet
  facet normal -0 0 -1
    outer loop
      vertex 45.6979 -1.95137 -27
      vertex 37.95 -6 -27
      vertex 45.5691 -1.57374 -27
    endloop
  endfacet
  facet normal 0 0 -1
    outer loop
      vertex 46.7317 3.64523 -27
      vertex 46.7375 6 -27
      vertex 46.7375 3.65126 -27
    endloop
  endfacet
  facet normal 0 0 -1
    outer loop
      vertex 46.4764 3.33854 -27
      vertex 46.7375 6 -27
      vertex 46.7317 3.64523 -27
    endloop
  endfacet
  facet normal 0 0 -1
    outer loop
      vertex 46.2443 3.01403 -27
      vertex 46.7375 6 -27
      vertex 46.4764 3.33854 -27
    endloop
  endfacet
  facet normal 0 0 -1
    outer loop
      vertex 46.0364 2.67344 -27
      vertex 46.7375 6 -27
      vertex 46.2443 3.01403 -27
    endloop
  endfacet
  facet normal 0 0 -1
    outer loop
      vertex 37.95 6 -27
      vertex 46.0364 2.67344 -27
      vertex 45.854 2.31859 -27
    endloop
  endfacet
  facet normal 0 0 -1
    outer loop
      vertex 37.95 6 -27
      vertex 45.854 2.31859 -27
      vertex 45.6979 1.95137 -27
    endloop
  endfacet
  facet normal 0 0 -1
    outer loop
      vertex 37.95 6 -27
      vertex 45.6979 1.95137 -27
      vertex 45.5691 1.57374 -27
    endloop
  endfacet
  facet normal 0 0 -1
    outer loop
      vertex 37.95 6 -27
      vertex 45.3375 0 -27
      vertex 37.95 -6 -27
    endloop
  endfacet
  facet normal 0 0 -1
    outer loop
      vertex 45.3375 0 -27
      vertex 37.95 6 -27
      vertex 45.3521 0.398736 -27
    endloop
  endfacet
  facet normal 0 0 -1
    outer loop
      vertex 45.3521 0.398736 -27
      vertex 37.95 6 -27
      vertex 45.3957 0.795346 -27
    endloop
  endfacet
  facet normal 0 0 -1
    outer loop
      vertex 45.3957 0.795346 -27
      vertex 37.95 6 -27
      vertex 45.4682 1.18771 -27
    endloop
  endfacet
  facet normal 0 0 -1
    outer loop
      vertex 45.4682 1.18771 -27
      vertex 37.95 6 -27
      vertex 45.5691 1.57374 -27
    endloop
  endfacet
  facet normal 0 0 -1
    outer loop
      vertex 46.0364 2.67344 -27
      vertex 37.95 6 -27
      vertex 46.7375 6 -27
    endloop
  endfacet
  facet normal -1 0 0
    outer loop
      vertex -46.7375 3.65126 -27
      vertex -46.7375 6 -6
      vertex -46.7375 6 -27
    endloop
  endfacet
  facet normal -1 -0 0
    outer loop
      vertex -46.7375 6 -6
      vertex -46.7375 3.65126 -27
      vertex -46.7375 3.65126 -6
    endloop
  endfacet
  facet normal -1 0 0
    outer loop
      vertex -46.7375 -6 -27
      vertex -46.7375 -3.65126 -6
      vertex -46.7375 -3.65126 -27
    endloop
  endfacet
  facet normal -1 -0 0
    outer loop
      vertex -46.7375 -3.65126 -6
      vertex -46.7375 -6 -27
      vertex -46.7375 -6 -6
    endloop
  endfacet
  facet normal 0.920302 0.391208 0
    outer loop
      vertex 45.854 -2.31859 0
      vertex 45.6979 -1.95137 -27
      vertex 45.6979 -1.95137 0
    endloop
  endfacet
  facet normal 0.920302 0.391208 0
    outer loop
      vertex 45.6979 -1.95137 -27
      vertex 45.854 -2.31859 0
      vertex 45.854 -2.31859 -27
    endloop
  endfacet
  facet normal 0.946462 0.322814 0
    outer loop
      vertex 45.6979 -1.95137 0
      vertex 45.5691 -1.57374 -27
      vertex 45.5691 -1.57374 0
    endloop
  endfacet
  facet normal 0.946462 0.322814 0
    outer loop
      vertex 45.5691 -1.57374 -27
      vertex 45.6979 -1.95137 0
      vertex 45.6979 -1.95137 -27
    endloop
  endfacet
  facet normal 0.983354 0.181702 0
    outer loop
      vertex 45.4682 -1.18771 0
      vertex 45.3957 -0.795346 -27
      vertex 45.3957 -0.795346 0
    endloop
  endfacet
  facet normal 0.983354 0.181702 0
    outer loop
      vertex 45.3957 -0.795346 -27
      vertex 45.4682 -1.18771 0
      vertex 45.4682 -1.18771 -27
    endloop
  endfacet
  facet normal 0.853547 -0.521015 0
    outer loop
      vertex 46.0364 2.67344 0
      vertex 46.2443 3.01403 -27
      vertex 46.2443 3.01403 0
    endloop
  endfacet
  facet normal 0.853547 -0.521015 0
    outer loop
      vertex 46.2443 3.01403 -27
      vertex 46.0364 2.67344 0
      vertex 46.0364 2.67344 -27
    endloop
  endfacet
  facet normal 0.71993 -0.694047 0
    outer loop
      vertex 47.0086 3.93247 0
      vertex 46.7375 3.65126 -6
      vertex 47.0086 3.93247 -6
    endloop
  endfacet
  facet normal 0.719946 -0.69403 -1.5519e-06
    outer loop
      vertex 46.7317 3.64523 0
      vertex 46.7375 3.65126 -6
      vertex 47.0086 3.93247 0
    endloop
  endfacet
  facet normal 0.720718 -0.693228 0
    outer loop
      vertex 46.7317 3.64523 -27
      vertex 46.7375 3.65126 -6
      vertex 46.7317 3.64523 0
    endloop
  endfacet
  facet normal 0.720718 -0.693228 0
    outer loop
      vertex 46.7375 3.65126 -6
      vertex 46.7317 3.64523 -27
      vertex 46.7375 3.65126 -27
    endloop
  endfacet
  facet normal 0.813369 -0.581748 0
    outer loop
      vertex 46.2443 3.01403 0
      vertex 46.4764 3.33854 -27
      vertex 46.4764 3.33854 0
    endloop
  endfacet
  facet normal 0.813369 -0.581748 0
    outer loop
      vertex 46.4764 3.33854 -27
      vertex 46.2443 3.01403 0
      vertex 46.2443 3.01403 -27
    endloop
  endfacet
  facet normal 0.889384 0.457161 0
    outer loop
      vertex 46.0364 -2.67344 0
      vertex 45.854 -2.31859 -27
      vertex 45.854 -2.31859 0
    endloop
  endfacet
  facet normal 0.889384 0.457161 0
    outer loop
      vertex 45.854 -2.31859 -27
      vertex 46.0364 -2.67344 0
      vertex 46.0364 -2.67344 -27
    endloop
  endfacet
  facet normal 0.76856 -0.639778 0
    outer loop
      vertex 46.4764 3.33854 0
      vertex 46.7317 3.64523 -27
      vertex 46.7317 3.64523 0
    endloop
  endfacet
  facet normal 0.76856 -0.639778 0
    outer loop
      vertex 46.7317 3.64523 -27
      vertex 46.4764 3.33854 0
      vertex 46.4764 3.33854 -27
    endloop
  endfacet
  facet normal 0.667291 -0.744797 0
    outer loop
      vertex 47.0086 3.93247 -6
      vertex 47.2375 4.13755 0
      vertex 47.0086 3.93247 0
    endloop
  endfacet
  facet normal 0.667291 -0.744797 0
    outer loop
      vertex 47.2375 4.13755 0
      vertex 47.0086 3.93247 -6
      vertex 47.2375 4.13755 -6
    endloop
  endfacet
  facet normal 0.667291 0.744797 -0
    outer loop
      vertex 47.2375 -4.13755 -6
      vertex 47.0086 -3.93247 0
      vertex 47.2375 -4.13755 0
    endloop
  endfacet
  facet normal 0.667291 0.744797 0
    outer loop
      vertex 47.0086 -3.93247 0
      vertex 47.2375 -4.13755 -6
      vertex 47.0086 -3.93247 -6
    endloop
  endfacet
  facet normal 0.967497 0.252883 0
    outer loop
      vertex 45.5691 -1.57374 0
      vertex 45.4682 -1.18771 -27
      vertex 45.4682 -1.18771 0
    endloop
  endfacet
  facet normal 0.967497 0.252883 0
    outer loop
      vertex 45.4682 -1.18771 -27
      vertex 45.5691 -1.57374 0
      vertex 45.5691 -1.57374 -27
    endloop
  endfacet
  facet normal 0.983354 -0.181702 0
    outer loop
      vertex 45.3957 0.795346 0
      vertex 45.4682 1.18771 -27
      vertex 45.4682 1.18771 0
    endloop
  endfacet
  facet normal 0.983354 -0.181702 0
    outer loop
      vertex 45.4682 1.18771 -27
      vertex 45.3957 0.795346 0
      vertex 45.3957 0.795346 -27
    endloop
  endfacet
  facet normal 0.813369 0.581748 0
    outer loop
      vertex 46.4764 -3.33854 0
      vertex 46.2443 -3.01403 -27
      vertex 46.2443 -3.01403 0
    endloop
  endfacet
  facet normal 0.813369 0.581748 0
    outer loop
      vertex 46.2443 -3.01403 -27
      vertex 46.4764 -3.33854 0
      vertex 46.4764 -3.33854 -27
    endloop
  endfacet
  facet normal 0.99933 0.0365912 0
    outer loop
      vertex 45.3521 -0.398736 0
      vertex 45.3375 0 -27
      vertex 45.3375 0 0
    endloop
  endfacet
  facet normal 0.99933 0.0365912 0
    outer loop
      vertex 45.3375 0 -27
      vertex 45.3521 -0.398736 0
      vertex 45.3521 -0.398736 -27
    endloop
  endfacet
  facet normal 0.994012 0.109273 0
    outer loop
      vertex 45.3957 -0.795346 0
      vertex 45.3521 -0.398736 -27
      vertex 45.3521 -0.398736 0
    endloop
  endfacet
  facet normal 0.994012 0.109273 0
    outer loop
      vertex 45.3521 -0.398736 -27
      vertex 45.3957 -0.795346 0
      vertex 45.3957 -0.795346 -27
    endloop
  endfacet
  facet normal 0.946462 -0.322814 0
    outer loop
      vertex 45.5691 1.57374 0
      vertex 45.6979 1.95137 -27
      vertex 45.6979 1.95137 0
    endloop
  endfacet
  facet normal 0.946462 -0.322814 0
    outer loop
      vertex 45.6979 1.95137 -27
      vertex 45.5691 1.57374 0
      vertex 45.5691 1.57374 -27
    endloop
  endfacet
  facet normal 0.853547 0.521015 0
    outer loop
      vertex 46.2443 -3.01403 0
      vertex 46.0364 -2.67344 -27
      vertex 46.0364 -2.67344 0
    endloop
  endfacet
  facet normal 0.853547 0.521015 0
    outer loop
      vertex 46.0364 -2.67344 -27
      vertex 46.2443 -3.01403 0
      vertex 46.2443 -3.01403 -27
    endloop
  endfacet
  facet normal 0.99933 -0.0365912 0
    outer loop
      vertex 45.3375 0 0
      vertex 45.3521 0.398736 -27
      vertex 45.3521 0.398736 0
    endloop
  endfacet
  facet normal 0.99933 -0.0365912 0
    outer loop
      vertex 45.3521 0.398736 -27
      vertex 45.3375 0 0
      vertex 45.3375 0 -27
    endloop
  endfacet
  facet normal 0.967497 -0.252883 0
    outer loop
      vertex 45.4682 1.18771 0
      vertex 45.5691 1.57374 -27
      vertex 45.5691 1.57374 0
    endloop
  endfacet
  facet normal 0.967497 -0.252883 0
    outer loop
      vertex 45.5691 1.57374 -27
      vertex 45.4682 1.18771 0
      vertex 45.4682 1.18771 -27
    endloop
  endfacet
  facet normal 0.994012 -0.109273 0
    outer loop
      vertex 45.3521 0.398736 0
      vertex 45.3957 0.795346 -27
      vertex 45.3957 0.795346 0
    endloop
  endfacet
  facet normal 0.994012 -0.109273 0
    outer loop
      vertex 45.3957 0.795346 -27
      vertex 45.3521 0.398736 0
      vertex 45.3521 0.398736 -27
    endloop
  endfacet
  facet normal 0.920302 -0.391208 0
    outer loop
      vertex 45.6979 1.95137 0
      vertex 45.854 2.31859 -27
      vertex 45.854 2.31859 0
    endloop
  endfacet
  facet normal 0.920302 -0.391208 0
    outer loop
      vertex 45.854 2.31859 -27
      vertex 45.6979 1.95137 0
      vertex 45.6979 1.95137 -27
    endloop
  endfacet
  facet normal 0.889384 -0.457161 0
    outer loop
      vertex 45.854 2.31859 0
      vertex 46.0364 2.67344 -27
      vertex 46.0364 2.67344 0
    endloop
  endfacet
  facet normal 0.889384 -0.457161 0
    outer loop
      vertex 46.0364 2.67344 -27
      vertex 45.854 2.31859 0
      vertex 45.854 2.31859 -27
    endloop
  endfacet
  facet normal 0.76856 0.639778 0
    outer loop
      vertex 46.7317 -3.64523 0
      vertex 46.4764 -3.33854 -27
      vertex 46.4764 -3.33854 0
    endloop
  endfacet
  facet normal 0.76856 0.639778 0
    outer loop
      vertex 46.4764 -3.33854 -27
      vertex 46.7317 -3.64523 0
      vertex 46.7317 -3.64523 -27
    endloop
  endfacet
  facet normal 0.720718 0.693228 0
    outer loop
      vertex 46.7317 -3.64523 0
      vertex 46.7375 -3.65126 -6
      vertex 46.7317 -3.64523 -27
    endloop
  endfacet
  facet normal 0.719946 0.69403 -1.5519e-06
    outer loop
      vertex 47.0086 -3.93247 0
      vertex 46.7375 -3.65126 -6
      vertex 46.7317 -3.64523 0
    endloop
  endfacet
  facet normal 0.71993 0.694047 0
    outer loop
      vertex 46.7375 -3.65126 -6
      vertex 47.0086 -3.93247 0
      vertex 47.0086 -3.93247 -6
    endloop
  endfacet
  facet normal 0.720718 0.693228 0
    outer loop
      vertex 46.7317 -3.64523 -27
      vertex 46.7375 -3.65126 -6
      vertex 46.7375 -3.65126 -27
    endloop
  endfacet
  facet normal -0.667291 -0.744797 0
    outer loop
      vertex -47.2375 4.13755 -6
      vertex -47.0086 3.93247 0
      vertex -47.2375 4.13755 0
    endloop
  endfacet
  facet normal -0.667291 -0.744797 -0
    outer loop
      vertex -47.0086 3.93247 0
      vertex -47.2375 4.13755 -6
      vertex -47.0086 3.93247 -6
    endloop
  endfacet
  facet normal -0.994012 -0.109273 0
    outer loop
      vertex -45.3521 0.398736 -27
      vertex -45.3957 0.795346 0
      vertex -45.3957 0.795346 -27
    endloop
  endfacet
  facet normal -0.994012 -0.109273 0
    outer loop
      vertex -45.3957 0.795346 0
      vertex -45.3521 0.398736 -27
      vertex -45.3521 0.398736 0
    endloop
  endfacet
  facet normal -0.99933 -0.0365912 0
    outer loop
      vertex -45.3375 0 -27
      vertex -45.3521 0.398736 0
      vertex -45.3521 0.398736 -27
    endloop
  endfacet
  facet normal -0.99933 -0.0365912 0
    outer loop
      vertex -45.3521 0.398736 0
      vertex -45.3375 0 -27
      vertex -45.3375 0 0
    endloop
  endfacet
  facet normal -0.983354 0.181702 0
    outer loop
      vertex -45.4682 -1.18771 -27
      vertex -45.3957 -0.795346 0
      vertex -45.3957 -0.795346 -27
    endloop
  endfacet
  facet normal -0.983354 0.181702 0
    outer loop
      vertex -45.3957 -0.795346 0
      vertex -45.4682 -1.18771 -27
      vertex -45.4682 -1.18771 0
    endloop
  endfacet
  facet normal -0.99933 0.0365912 0
    outer loop
      vertex -45.3521 -0.398736 -27
      vertex -45.3375 0 0
      vertex -45.3375 0 -27
    endloop
  endfacet
  facet normal -0.99933 0.0365912 0
    outer loop
      vertex -45.3375 0 0
      vertex -45.3521 -0.398736 -27
      vertex -45.3521 -0.398736 0
    endloop
  endfacet
  facet normal -0.920302 -0.391208 0
    outer loop
      vertex -45.6979 1.95137 -27
      vertex -45.854 2.31859 0
      vertex -45.854 2.31859 -27
    endloop
  endfacet
  facet normal -0.920302 -0.391208 0
    outer loop
      vertex -45.854 2.31859 0
      vertex -45.6979 1.95137 -27
      vertex -45.6979 1.95137 0
    endloop
  endfacet
  facet normal -0.920302 0.391208 0
    outer loop
      vertex -45.854 -2.31859 -27
      vertex -45.6979 -1.95137 0
      vertex -45.6979 -1.95137 -27
    endloop
  endfacet
  facet normal -0.920302 0.391208 0
    outer loop
      vertex -45.6979 -1.95137 0
      vertex -45.854 -2.31859 -27
      vertex -45.854 -2.31859 0
    endloop
  endfacet
  facet normal -0.889384 -0.457161 0
    outer loop
      vertex -45.854 2.31859 -27
      vertex -46.0364 2.67344 0
      vertex -46.0364 2.67344 -27
    endloop
  endfacet
  facet normal -0.889384 -0.457161 0
    outer loop
      vertex -46.0364 2.67344 0
      vertex -45.854 2.31859 -27
      vertex -45.854 2.31859 0
    endloop
  endfacet
  facet normal -0.667291 0.744797 0
    outer loop
      vertex -47.0086 -3.93247 -6
      vertex -47.2375 -4.13755 0
      vertex -47.0086 -3.93247 0
    endloop
  endfacet
  facet normal -0.667291 0.744797 0
    outer loop
      vertex -47.2375 -4.13755 0
      vertex -47.0086 -3.93247 -6
      vertex -47.2375 -4.13755 -6
    endloop
  endfacet
  facet normal -0.946462 -0.322814 0
    outer loop
      vertex -45.5691 1.57374 -27
      vertex -45.6979 1.95137 0
      vertex -45.6979 1.95137 -27
    endloop
  endfacet
  facet normal -0.946462 -0.322814 0
    outer loop
      vertex -45.6979 1.95137 0
      vertex -45.5691 1.57374 -27
      vertex -45.5691 1.57374 0
    endloop
  endfacet
  facet normal -0.813369 -0.581748 0
    outer loop
      vertex -46.2443 3.01403 -27
      vertex -46.4764 3.33854 0
      vertex -46.4764 3.33854 -27
    endloop
  endfacet
  facet normal -0.813369 -0.581748 0
    outer loop
      vertex -46.4764 3.33854 0
      vertex -46.2443 3.01403 -27
      vertex -46.2443 3.01403 0
    endloop
  endfacet
  facet normal -0.71993 -0.694047 0
    outer loop
      vertex -46.7375 3.65126 -6
      vertex -47.0086 3.93247 0
      vertex -47.0086 3.93247 -6
    endloop
  endfacet
  facet normal -0.719946 -0.69403 -1.5519e-06
    outer loop
      vertex -46.7375 3.65126 -6
      vertex -46.7317 3.64523 0
      vertex -47.0086 3.93247 0
    endloop
  endfacet
  facet normal -0.720718 -0.693228 -0
    outer loop
      vertex -46.7317 3.64523 0
      vertex -46.7375 3.65126 -6
      vertex -46.7317 3.64523 -27
    endloop
  endfacet
  facet normal -0.720718 -0.693228 0
    outer loop
      vertex -46.7375 3.65126 -27
      vertex -46.7317 3.64523 -27
      vertex -46.7375 3.65126 -6
    endloop
  endfacet
  facet normal -0.946462 0.322814 0
    outer loop
      vertex -45.6979 -1.95137 -27
      vertex -45.5691 -1.57374 0
      vertex -45.5691 -1.57374 -27
    endloop
  endfacet
  facet normal -0.946462 0.322814 0
    outer loop
      vertex -45.5691 -1.57374 0
      vertex -45.6979 -1.95137 -27
      vertex -45.6979 -1.95137 0
    endloop
  endfacet
  facet normal -0.76856 -0.639778 0
    outer loop
      vertex -46.4764 3.33854 -27
      vertex -46.7317 3.64523 0
      vertex -46.7317 3.64523 -27
    endloop
  endfacet
  facet normal -0.76856 -0.639778 0
    outer loop
      vertex -46.7317 3.64523 0
      vertex -46.4764 3.33854 -27
      vertex -46.4764 3.33854 0
    endloop
  endfacet
  facet normal -0.853547 -0.521015 0
    outer loop
      vertex -46.0364 2.67344 -27
      vertex -46.2443 3.01403 0
      vertex -46.2443 3.01403 -27
    endloop
  endfacet
  facet normal -0.853547 -0.521015 0
    outer loop
      vertex -46.2443 3.01403 0
      vertex -46.0364 2.67344 -27
      vertex -46.0364 2.67344 0
    endloop
  endfacet
  facet normal -0.994012 0.109273 0
    outer loop
      vertex -45.3957 -0.795346 -27
      vertex -45.3521 -0.398736 0
      vertex -45.3521 -0.398736 -27
    endloop
  endfacet
  facet normal -0.994012 0.109273 0
    outer loop
      vertex -45.3521 -0.398736 0
      vertex -45.3957 -0.795346 -27
      vertex -45.3957 -0.795346 0
    endloop
  endfacet
  facet normal -0.853547 0.521015 0
    outer loop
      vertex -46.2443 -3.01403 -27
      vertex -46.0364 -2.67344 0
      vertex -46.0364 -2.67344 -27
    endloop
  endfacet
  facet normal -0.853547 0.521015 0
    outer loop
      vertex -46.0364 -2.67344 0
      vertex -46.2443 -3.01403 -27
      vertex -46.2443 -3.01403 0
    endloop
  endfacet
  facet normal -0.720718 0.693228 0
    outer loop
      vertex -46.7375 -3.65126 -6
      vertex -46.7317 -3.64523 -27
      vertex -46.7375 -3.65126 -27
    endloop
  endfacet
  facet normal -0.720718 0.693228 0
    outer loop
      vertex -46.7317 -3.64523 -27
      vertex -46.7375 -3.65126 -6
      vertex -46.7317 -3.64523 0
    endloop
  endfacet
  facet normal -0.71993 0.694047 -1.58514e-06
    outer loop
      vertex -47.0086 -3.93247 -6
      vertex -46.7317 -3.64523 0
      vertex -46.7375 -3.65126 -6
    endloop
  endfacet
  facet normal -0.719946 0.69403 0
    outer loop
      vertex -46.7317 -3.64523 0
      vertex -47.0086 -3.93247 -6
      vertex -47.0086 -3.93247 0
    endloop
  endfacet
  facet normal -0.889384 0.457161 0
    outer loop
      vertex -46.0364 -2.67344 -27
      vertex -45.854 -2.31859 0
      vertex -45.854 -2.31859 -27
    endloop
  endfacet
  facet normal -0.889384 0.457161 0
    outer loop
      vertex -45.854 -2.31859 0
      vertex -46.0364 -2.67344 -27
      vertex -46.0364 -2.67344 0
    endloop
  endfacet
  facet normal -0.967497 0.252883 0
    outer loop
      vertex -45.5691 -1.57374 -27
      vertex -45.4682 -1.18771 0
      vertex -45.4682 -1.18771 -27
    endloop
  endfacet
  facet normal -0.967497 0.252883 0
    outer loop
      vertex -45.4682 -1.18771 0
      vertex -45.5691 -1.57374 -27
      vertex -45.5691 -1.57374 0
    endloop
  endfacet
  facet normal -0.967497 -0.252883 0
    outer loop
      vertex -45.4682 1.18771 -27
      vertex -45.5691 1.57374 0
      vertex -45.5691 1.57374 -27
    endloop
  endfacet
  facet normal -0.967497 -0.252883 0
    outer loop
      vertex -45.5691 1.57374 0
      vertex -45.4682 1.18771 -27
      vertex -45.4682 1.18771 0
    endloop
  endfacet
  facet normal -0.983354 -0.181702 0
    outer loop
      vertex -45.3957 0.795346 -27
      vertex -45.4682 1.18771 0
      vertex -45.4682 1.18771 -27
    endloop
  endfacet
  facet normal -0.983354 -0.181702 0
    outer loop
      vertex -45.4682 1.18771 0
      vertex -45.3957 0.795346 -27
      vertex -45.3957 0.795346 0
    endloop
  endfacet
  facet normal -0.76856 0.639778 0
    outer loop
      vertex -46.7317 -3.64523 -27
      vertex -46.4764 -3.33854 0
      vertex -46.4764 -3.33854 -27
    endloop
  endfacet
  facet normal -0.76856 0.639778 0
    outer loop
      vertex -46.4764 -3.33854 0
      vertex -46.7317 -3.64523 -27
      vertex -46.7317 -3.64523 0
    endloop
  endfacet
  facet normal -0.813369 0.581748 0
    outer loop
      vertex -46.4764 -3.33854 -27
      vertex -46.2443 -3.01403 0
      vertex -46.2443 -3.01403 -27
    endloop
  endfacet
  facet normal -0.813369 0.581748 0
    outer loop
      vertex -46.2443 -3.01403 0
      vertex -46.4764 -3.33854 -27
      vertex -46.4764 -3.33854 0
    endloop
  endfacet
  facet normal -0.401784 0 -0.915735
    outer loop
      vertex 33.1772 -6 -16.4287
      vertex 33.5405 6 -16.5881
      vertex 33.5405 -6 -16.5881
    endloop
  endfacet
  facet normal -0.401784 0 -0.915735
    outer loop
      vertex 33.5405 6 -16.5881
      vertex 33.1772 -6 -16.4287
      vertex 33.1772 6 -16.4287
    endloop
  endfacet
  facet normal 0.945521 0 -0.32556
    outer loop
      vertex -35.9851 -6 -16.5277
      vertex -36.1669 6 -17.0557
      vertex -35.9851 6 -16.5277
    endloop
  endfacet
  facet normal 0.945521 0 -0.32556
    outer loop
      vertex -36.1669 6 -17.0557
      vertex -35.9851 -6 -16.5277
      vertex -36.1669 -6 -17.0557
    endloop
  endfacet
  facet normal 0.656055 0 -0.754713
    outer loop
      vertex -31.6561 -6 -10.1097
      vertex -31.2346 6 -9.7433
      vertex -31.2346 -6 -9.7433
    endloop
  endfacet
  facet normal 0.656055 0 -0.754713
    outer loop
      vertex -31.2346 6 -9.7433
      vertex -31.6561 -6 -10.1097
      vertex -31.6561 6 -10.1097
    endloop
  endfacet
  facet normal -0.846081 0 -0.533054
    outer loop
      vertex 36.1295 -6 -18.9714
      vertex 35.918 6 -18.6357
      vertex 36.1295 6 -18.9714
    endloop
  endfacet
  facet normal -0.846081 -0 -0.533054
    outer loop
      vertex 35.918 6 -18.6357
      vertex 36.1295 -6 -18.9714
      vertex 35.918 -6 -18.6357
    endloop
  endfacet
  facet normal -0.156443 0 -0.987687
    outer loop
      vertex -18.7232 -6 -6.15572
      vertex -18.1716 6 -6.24309
      vertex -18.1716 -6 -6.24309
    endloop
  endfacet
  facet normal -0.156443 0 -0.987687
    outer loop
      vertex -18.1716 6 -6.24309
      vertex -18.7232 -6 -6.15572
      vertex -18.7232 6 -6.15572
    endloop
  endfacet
  facet normal 0.42265 0 -0.906293
    outer loop
      vertex -27.9639 -6 -7.61931
      vertex -27.4578 6 -7.38329
      vertex -27.4578 -6 -7.38329
    endloop
  endfacet
  facet normal 0.42265 0 -0.906293
    outer loop
      vertex -27.4578 6 -7.38329
      vertex -27.9639 -6 -7.61931
      vertex -27.9639 6 -7.61931
    endloop
  endfacet
  facet normal 0.629346 0 -0.777125
    outer loop
      vertex -31.2346 -6 -9.7433
      vertex -30.8006 6 -9.39183
      vertex -30.8006 -6 -9.39183
    endloop
  endfacet
  facet normal 0.629346 0 -0.777125
    outer loop
      vertex -30.8006 6 -9.39183
      vertex -31.2346 -6 -9.7433
      vertex -31.2346 6 -9.7433
    endloop
  endfacet
  facet normal 0.81919 0 -0.573522
    outer loop
      vertex -33.8943 -6 -12.5954
      vertex -34.2146 6 -13.0529
      vertex -33.8943 6 -12.5954
    endloop
  endfacet
  facet normal 0.81919 0 -0.573522
    outer loop
      vertex -34.2146 6 -13.0529
      vertex -33.8943 -6 -12.5954
      vertex -34.2146 -6 -13.0529
    endloop
  endfacet
  facet normal -0.213246 0 -0.976999
    outer loop
      vertex 32.0353 -6 -16.099
      vertex 32.4229 6 -16.1836
      vertex 32.4229 -6 -16.1836
    endloop
  endfacet
  facet normal -0.213246 0 -0.976999
    outer loop
      vertex 32.4229 6 -16.1836
      vertex 32.0353 -6 -16.099
      vertex 32.0353 6 -16.099
    endloop
  endfacet
  facet normal 0.515049 0 -0.857161
    outer loop
      vertex -29.4287 -6 -8.43124
      vertex -28.95 6 -8.1436
      vertex -28.95 -6 -8.1436
    endloop
  endfacet
  facet normal 0.515049 0 -0.857161
    outer loop
      vertex -28.95 6 -8.1436
      vertex -29.4287 -6 -8.43124
      vertex -29.4287 6 -8.43124
    endloop
  endfacet
  facet normal 0.965952 -0 0.258721
    outer loop
      vertex -36.4747 -6 -25.8707
      vertex -36.3302 6 -26.4102
      vertex -36.4747 6 -25.8707
    endloop
  endfacet
  facet normal 0.965952 0 0.258721
    outer loop
      vertex -36.3302 6 -26.4102
      vertex -36.4747 -6 -25.8707
      vertex -36.3302 -6 -26.4102
    endloop
  endfacet
  facet normal 0.224993 0 -0.97436
    outer loop
      vertex -24.8207 -6 -6.47528
      vertex -24.2766 6 -6.34964
      vertex -24.2766 -6 -6.34964
    endloop
  endfacet
  facet normal 0.224993 0 -0.97436
    outer loop
      vertex -24.2766 6 -6.34964
      vertex -24.8207 -6 -6.47528
      vertex -24.8207 6 -6.47528
    endloop
  endfacet
  facet normal -0.956002 0 -0.293361
    outer loop
      vertex 36.6562 -6 -20.1538
      vertex 36.6249 6 -20.0518
      vertex 36.6562 6 -20.1538
    endloop
  endfacet
  facet normal -0.956002 -0 -0.293361
    outer loop
      vertex 36.6249 6 -20.0518
      vertex 36.6562 -6 -20.1538
      vertex 36.6249 -6 -20.0518
    endloop
  endfacet
  facet normal 0.974337 0 -0.225095
    outer loop
      vertex -36.4747 -6 -18.1293
      vertex -36.6004 6 -18.6734
      vertex -36.4747 6 -18.1293
    endloop
  endfacet
  facet normal 0.974337 0 -0.225095
    outer loop
      vertex -36.6004 6 -18.6734
      vertex -36.4747 -6 -18.1293
      vertex -36.6004 -6 -18.6734
    endloop
  endfacet
  facet normal -0.12187 0 -0.992546
    outer loop
      vertex -19.2775 -6 -6.08766
      vertex -18.7232 6 -6.15572
      vertex -18.7232 -6 -6.15572
    endloop
  endfacet
  facet normal -0.12187 0 -0.992546
    outer loop
      vertex -18.7232 6 -6.15572
      vertex -19.2775 -6 -6.08766
      vertex -19.2775 6 -6.08766
    endloop
  endfacet
  facet normal 0.998632 0 -0.0522863
    outer loop
      vertex -36.911 -6 -20.8839
      vertex -36.9402 6 -21.4416
      vertex -36.911 6 -20.8839
    endloop
  endfacet
  facet normal 0.998632 0 -0.0522863
    outer loop
      vertex -36.9402 6 -21.4416
      vertex -36.911 -6 -20.8839
      vertex -36.9402 -6 -21.4416
    endloop
  endfacet
  facet normal 0.992559 0 -0.121764
    outer loop
      vertex -36.7943 -6 -19.7732
      vertex -36.8623 6 -20.3275
      vertex -36.7943 6 -19.7732
    endloop
  endfacet
  facet normal 0.992559 0 -0.121764
    outer loop
      vertex -36.8623 6 -20.3275
      vertex -36.7943 -6 -19.7732
      vertex -36.8623 -6 -20.3275
    endloop
  endfacet
  facet normal -0.0871403 0 -0.996196
    outer loop
      vertex -19.8339 -6 -6.03899
      vertex -19.2775 6 -6.08766
      vertex -19.2775 -6 -6.08766
    endloop
  endfacet
  facet normal -0.0871403 0 -0.996196
    outer loop
      vertex -19.2775 6 -6.08766
      vertex -19.8339 -6 -6.03899
      vertex -19.8339 6 -6.03899
    endloop
  endfacet
  facet normal 0.996191 -0 0.0871936
    outer loop
      vertex -36.911 -6 -23.1161
      vertex -36.8623 6 -23.6725
      vertex -36.911 6 -23.1161
    endloop
  endfacet
  facet normal 0.996191 0 0.0871936
    outer loop
      vertex -36.8623 6 -23.6725
      vertex -36.911 -6 -23.1161
      vertex -36.8623 -6 -23.6725
    endloop
  endfacet
  facet normal 0.965952 0 -0.258721
    outer loop
      vertex -36.3302 -6 -17.5898
      vertex -36.4747 6 -18.1293
      vertex -36.3302 6 -17.5898
    endloop
  endfacet
  facet normal 0.965952 0 -0.258721
    outer loop
      vertex -36.4747 6 -18.1293
      vertex -36.3302 -6 -17.5898
      vertex -36.4747 -6 -18.1293
    endloop
  endfacet
  facet normal -0.0174579 0 -0.999848
    outer loop
      vertex -20.95 -6 -6
      vertex -20.3916 6 -6.00975
      vertex -20.3916 -6 -6.00975
    endloop
  endfacet
  facet normal -0.0174579 0 -0.999848
    outer loop
      vertex -20.3916 6 -6.00975
      vertex -20.95 -6 -6
      vertex -20.95 6 -6
    endloop
  endfacet
  facet normal 0.682057 0 -0.731299
    outer loop
      vertex -32.0645 -6 -10.4906
      vertex -31.6561 6 -10.1097
      vertex -31.6561 -6 -10.1097
    endloop
  endfacet
  facet normal 0.682057 0 -0.731299
    outer loop
      vertex -31.6561 6 -10.1097
      vertex -32.0645 -6 -10.4906
      vertex -32.0645 6 -10.4906
    endloop
  endfacet
  facet normal 0.890963 0 -0.454076
    outer loop
      vertex -35.0771 -6 -14.4885
      vertex -35.3307 6 -14.9861
      vertex -35.0771 6 -14.4885
    endloop
  endfacet
  facet normal 0.890963 0 -0.454076
    outer loop
      vertex -35.3307 6 -14.9861
      vertex -35.0771 -6 -14.4885
      vertex -35.3307 -6 -14.9861
    endloop
  endfacet
  facet normal -0.0523577 0 -0.998628
    outer loop
      vertex -20.3916 -6 -6.00975
      vertex -19.8339 6 -6.03899
      vertex -19.8339 -6 -6.03899
    endloop
  endfacet
  facet normal -0.0523577 0 -0.998628
    outer loop
      vertex -19.8339 6 -6.03899
      vertex -20.3916 -6 -6.00975
      vertex -20.3916 6 -6.00975
    endloop
  endfacet
  facet normal -0.19265 0 -0.981268
    outer loop
      vertex -17.6234 -6 -6.34964
      vertex 32.0353 6 -16.099
      vertex 32.0353 -6 -16.099
    endloop
  endfacet
  facet normal -0.19265 0 -0.981268
    outer loop
      vertex 32.0353 6 -16.099
      vertex -17.6234 -6 -6.34964
      vertex -17.6234 6 -6.34964
    endloop
  endfacet
  facet normal 0.998632 -0 0.0522863
    outer loop
      vertex -36.9402 -6 -22.5584
      vertex -36.911 6 -23.1161
      vertex -36.9402 6 -22.5584
    endloop
  endfacet
  facet normal 0.998632 0 0.0522863
    outer loop
      vertex -36.911 6 -23.1161
      vertex -36.9402 -6 -22.5584
      vertex -36.911 -6 -23.1161
    endloop
  endfacet
  facet normal -0.190793 0 -0.98163
    outer loop
      vertex -18.1716 -6 -6.24309
      vertex -17.6234 6 -6.34964
      vertex -17.6234 -6 -6.34964
    endloop
  endfacet
  facet normal -0.190793 0 -0.98163
    outer loop
      vertex -17.6234 6 -6.34964
      vertex -18.1716 -6 -6.24309
      vertex -18.1716 6 -6.24309
    endloop
  endfacet
  facet normal 0.777099 0 -0.629378
    outer loop
      vertex -33.2067 -6 -11.7154
      vertex -33.5582 6 -12.1494
      vertex -33.2067 6 -11.7154
    endloop
  endfacet
  facet normal 0.777099 0 -0.629378
    outer loop
      vertex -33.5582 6 -12.1494
      vertex -33.2067 -6 -11.7154
      vertex -33.5582 -6 -12.1494
    endloop
  endfacet
  facet normal -0.934536 0 -0.35587
    outer loop
      vertex 36.6249 -6 -20.0518
      vertex 36.4837 6 -19.681
      vertex 36.6249 6 -20.0518
    endloop
  endfacet
  facet normal -0.934536 -0 -0.35587
    outer loop
      vertex 36.4837 6 -19.681
      vertex 36.6249 -6 -20.0518
      vertex 36.4837 -6 -19.681
    endloop
  endfacet
  facet normal 0.390727 0 -0.920506
    outer loop
      vertex -27.4578 -6 -7.38329
      vertex -26.9437 6 -7.16507
      vertex -26.9437 -6 -7.16507
    endloop
  endfacet
  facet normal 0.390727 0 -0.920506
    outer loop
      vertex -26.9437 6 -7.16507
      vertex -27.4578 -6 -7.38329
      vertex -27.4578 6 -7.38329
    endloop
  endfacet
  facet normal 0.573558 0 -0.819165
    outer loop
      vertex -30.3546 -6 -9.05574
      vertex -29.8971 6 -8.73541
      vertex -29.8971 -6 -8.73541
    endloop
  endfacet
  facet normal 0.573558 0 -0.819165
    outer loop
      vertex -29.8971 6 -8.73541
      vertex -30.3546 -6 -9.05574
      vertex -30.3546 6 -9.05574
    endloop
  endfacet
  facet normal 0.0174579 0 -0.999848
    outer loop
      vertex -21.5084 -6 -6.00975
      vertex -20.95 6 -6
      vertex -20.95 -6 -6
    endloop
  endfacet
  facet normal 0.0174579 0 -0.999848
    outer loop
      vertex -20.95 6 -6
      vertex -21.5084 -6 -6.00975
      vertex -21.5084 6 -6.00975
    endloop
  endfacet
  facet normal 0.544623 0 -0.838681
    outer loop
      vertex -29.8971 -6 -8.73541
      vertex -29.4287 6 -8.43124
      vertex -29.4287 -6 -8.43124
    endloop
  endfacet
  facet normal 0.544623 0 -0.838681
    outer loop
      vertex -29.4287 6 -8.43124
      vertex -29.8971 -6 -8.73541
      vertex -29.8971 6 -8.73541
    endloop
  endfacet
  facet normal 0.0523577 0 -0.998628
    outer loop
      vertex -22.0661 -6 -6.03899
      vertex -21.5084 6 -6.00975
      vertex -21.5084 -6 -6.00975
    endloop
  endfacet
  facet normal 0.0523577 0 -0.998628
    outer loop
      vertex -21.5084 6 -6.00975
      vertex -22.0661 -6 -6.03899
      vertex -22.0661 6 -6.03899
    endloop
  endfacet
  facet normal 0.798623 0 -0.601832
    outer loop
      vertex -33.5582 -6 -12.1494
      vertex -33.8943 6 -12.5954
      vertex -33.5582 6 -12.1494
    endloop
  endfacet
  facet normal 0.798623 0 -0.601832
    outer loop
      vertex -33.8943 6 -12.5954
      vertex -33.5582 -6 -12.1494
      vertex -33.8943 -6 -12.5954
    endloop
  endfacet
  facet normal 0.981647 0 -0.190707
    outer loop
      vertex -36.6004 -6 -18.6734
      vertex -36.7069 6 -19.2216
      vertex -36.6004 6 -18.6734
    endloop
  endfacet
  facet normal 0.981647 0 -0.190707
    outer loop
      vertex -36.7069 6 -19.2216
      vertex -36.6004 -6 -18.6734
      vertex -36.7069 -6 -19.2216
    endloop
  endfacet
  facet normal -0.809041 0 -0.587752
    outer loop
      vertex 35.918 -6 -18.6357
      vertex 35.6848 6 -18.3147
      vertex 35.918 6 -18.6357
    endloop
  endfacet
  facet normal -0.809041 -0 -0.587752
    outer loop
      vertex 35.6848 6 -18.3147
      vertex 35.918 -6 -18.6357
      vertex 35.6848 -6 -18.3147
    endloop
  endfacet
  facet normal 0.325592 0 -0.94551
    outer loop
      vertex -26.4223 -6 -6.96492
      vertex -25.8943 6 -6.7831
      vertex -25.8943 -6 -6.7831
    endloop
  endfacet
  facet normal 0.325592 0 -0.94551
    outer loop
      vertex -25.8943 6 -6.7831
      vertex -26.4223 -6 -6.96492
      vertex -26.4223 6 -6.96492
    endloop
  endfacet
  facet normal -0.724527 0 -0.689246
    outer loop
      vertex 35.4309 -6 -18.0099
      vertex 35.1574 6 -17.7224
      vertex 35.4309 6 -18.0099
    endloop
  endfacet
  facet normal -0.724527 -0 -0.689246
    outer loop
      vertex 35.1574 6 -17.7224
      vertex 35.4309 -6 -18.0099
      vertex 35.1574 -6 -17.7224
    endloop
  endfacet
  facet normal 0.754713 0 -0.656055
    outer loop
      vertex -32.8403 -6 -11.2939
      vertex -33.2067 6 -11.7154
      vertex -32.8403 6 -11.2939
    endloop
  endfacet
  facet normal 0.754713 0 -0.656055
    outer loop
      vertex -33.2067 6 -11.7154
      vertex -32.8403 -6 -11.2939
      vertex -33.2067 -6 -11.7154
    endloop
  endfacet
  facet normal -0.768345 0 -0.640036
    outer loop
      vertex 35.6848 -6 -18.3147
      vertex 35.4309 6 -18.0099
      vertex 35.6848 6 -18.3147
    endloop
  endfacet
  facet normal -0.768345 -0 -0.640036
    outer loop
      vertex 35.4309 6 -18.0099
      vertex 35.6848 -6 -18.3147
      vertex 35.4309 -6 -18.0099
    endloop
  endfacet
  facet normal 0.996191 0 -0.0871936
    outer loop
      vertex -36.8623 -6 -20.3275
      vertex -36.911 6 -20.8839
      vertex -36.8623 6 -20.3275
    endloop
  endfacet
  facet normal 0.996191 0 -0.0871936
    outer loop
      vertex -36.911 6 -20.8839
      vertex -36.8623 -6 -20.3275
      vertex -36.911 -6 -20.8839
    endloop
  endfacet
  facet normal 0.707107 0 -0.707107
    outer loop
      vertex -32.0645 -6 -10.4906
      vertex -32.4594 6 -10.8855
      vertex -32.0645 6 -10.4906
    endloop
  endfacet
  facet normal 0.707107 0 -0.707107
    outer loop
      vertex -32.4594 6 -10.8855
      vertex -32.0645 -6 -10.4906
      vertex -32.4594 -6 -10.8855
    endloop
  endfacet
  facet normal 0.9563 0 -0.292387
    outer loop
      vertex -36.1669 -6 -17.0557
      vertex -36.3302 6 -17.5898
      vertex -36.1669 6 -17.0557
    endloop
  endfacet
  facet normal 0.9563 0 -0.292387
    outer loop
      vertex -36.3302 6 -17.5898
      vertex -36.1669 -6 -17.0557
      vertex -36.3302 -6 -17.5898
    endloop
  endfacet
  facet normal 0.992559 -0 0.121764
    outer loop
      vertex -36.8623 -6 -23.6725
      vertex -36.7943 6 -24.2268
      vertex -36.8623 6 -23.6725
    endloop
  endfacet
  facet normal 0.992559 0 0.121764
    outer loop
      vertex -36.7943 6 -24.2268
      vertex -36.8623 -6 -23.6725
      vertex -36.7943 -6 -24.2268
    endloop
  endfacet
  facet normal 0.857193 0 -0.514996
    outer loop
      vertex -34.5188 -6 -13.5213
      vertex -34.8064 6 -14
      vertex -34.5188 6 -13.5213
    endloop
  endfacet
  facet normal 0.857193 0 -0.514996
    outer loop
      vertex -34.8064 6 -14
      vertex -34.5188 -6 -13.5213
      vertex -34.8064 -6 -14
    endloop
  endfacet
  facet normal -0.909041 0 -0.416707
    outer loop
      vertex 36.4837 -6 -19.681
      vertex 36.3184 6 -19.3204
      vertex 36.4837 6 -19.681
    endloop
  endfacet
  facet normal -0.909041 -0 -0.416707
    outer loop
      vertex 36.3184 6 -19.3204
      vertex 36.4837 -6 -19.681
      vertex 36.3184 -6 -19.3204
    endloop
  endfacet
  facet normal 0.838656 0 -0.544661
    outer loop
      vertex -34.2146 -6 -13.0529
      vertex -34.5188 6 -13.5213
      vertex -34.2146 6 -13.0529
    endloop
  endfacet
  facet normal 0.838656 0 -0.544661
    outer loop
      vertex -34.5188 6 -13.5213
      vertex -34.2146 -6 -13.0529
      vertex -34.5188 -6 -13.5213
    endloop
  endfacet
  facet normal 0.731299 0 -0.682057
    outer loop
      vertex -32.4594 -6 -10.8855
      vertex -32.8403 6 -11.2939
      vertex -32.4594 6 -10.8855
    endloop
  endfacet
  facet normal 0.731299 0 -0.682057
    outer loop
      vertex -32.8403 6 -11.2939
      vertex -32.4594 -6 -10.8855
      vertex -32.8403 -6 -11.2939
    endloop
  endfacet
  facet normal 0.601821 0 -0.798631
    outer loop
      vertex -30.8006 -6 -9.39183
      vertex -30.3546 6 -9.05574
      vertex -30.3546 -6 -9.05574
    endloop
  endfacet
  facet normal 0.601821 0 -0.798631
    outer loop
      vertex -30.3546 6 -9.05574
      vertex -30.8006 -6 -9.39183
      vertex -30.8006 6 -9.39183
    endloop
  endfacet
  facet normal 0.999846 0 -0.0175474
    outer loop
      vertex -36.9402 -6 -21.4416
      vertex -36.95 6 -22
      vertex -36.9402 6 -21.4416
    endloop
  endfacet
  facet normal 0.999846 0 -0.0175474
    outer loop
      vertex -36.95 6 -22
      vertex -36.9402 -6 -21.4416
      vertex -36.95 -6 -22
    endloop
  endfacet
  facet normal 0.0871403 0 -0.996196
    outer loop
      vertex -22.6225 -6 -6.08766
      vertex -22.0661 6 -6.03899
      vertex -22.0661 -6 -6.03899
    endloop
  endfacet
  facet normal 0.0871403 0 -0.996196
    outer loop
      vertex -22.0661 6 -6.03899
      vertex -22.6225 -6 -6.08766
      vertex -22.6225 6 -6.08766
    endloop
  endfacet
  facet normal 0.974337 -0 0.225095
    outer loop
      vertex -36.6004 -6 -25.3266
      vertex -36.4747 6 -25.8707
      vertex -36.6004 6 -25.3266
    endloop
  endfacet
  facet normal 0.974337 0 0.225095
    outer loop
      vertex -36.4747 6 -25.8707
      vertex -36.6004 -6 -25.3266
      vertex -36.4747 -6 -25.8707
    endloop
  endfacet
  facet normal 0.292338 0 -0.956315
    outer loop
      vertex -25.8943 -6 -6.7831
      vertex -25.3602 6 -6.61983
      vertex -25.3602 -6 -6.61983
    endloop
  endfacet
  facet normal 0.292338 0 -0.956315
    outer loop
      vertex -25.3602 6 -6.61983
      vertex -25.8943 -6 -6.7831
      vertex -25.8943 6 -6.7831
    endloop
  endfacet
  facet normal 0.945409 -0 0.325886
    outer loop
      vertex -36.1669 -6 -26.9443
      vertex -36.1477 6 -27
      vertex -36.1669 6 -26.9443
    endloop
  endfacet
  facet normal 0.945409 0 0.325886
    outer loop
      vertex -36.1477 6 -27
      vertex -36.1669 -6 -26.9443
      vertex -36.1477 -6 -27
    endloop
  endfacet
  facet normal 0.933548 0 -0.358451
    outer loop
      vertex -35.7849 -6 -16.0063
      vertex -35.9851 6 -16.5277
      vertex -35.7849 6 -16.0063
    endloop
  endfacet
  facet normal 0.933548 0 -0.358451
    outer loop
      vertex -35.9851 6 -16.5277
      vertex -35.7849 -6 -16.0063
      vertex -35.9851 -6 -16.5277
    endloop
  endfacet
  facet normal 0.258805 0 -0.96593
    outer loop
      vertex -25.3602 -6 -6.61983
      vertex -24.8207 6 -6.47528
      vertex -24.8207 -6 -6.47528
    endloop
  endfacet
  facet normal 0.258805 0 -0.96593
    outer loop
      vertex -24.8207 6 -6.47528
      vertex -25.3602 -6 -6.61983
      vertex -25.3602 6 -6.61983
    endloop
  endfacet
  facet normal -0.518899 0 -0.854835
    outer loop
      vertex 33.8925 -6 -16.7711
      vertex 34.2317 6 -16.977
      vertex 34.2317 -6 -16.977
    endloop
  endfacet
  facet normal -0.518899 0 -0.854835
    outer loop
      vertex 34.2317 6 -16.977
      vertex 33.8925 -6 -16.7711
      vertex 33.8925 6 -16.7711
    endloop
  endfacet
  facet normal 0.999846 -0 0.0175474
    outer loop
      vertex -36.95 -6 -22
      vertex -36.9402 6 -22.5584
      vertex -36.95 6 -22
    endloop
  endfacet
  facet normal 0.999846 0 0.0175474
    outer loop
      vertex -36.9402 6 -22.5584
      vertex -36.95 -6 -22
      vertex -36.9402 -6 -22.5584
    endloop
  endfacet
  facet normal 0.156443 0 -0.987687
    outer loop
      vertex -23.7284 -6 -6.24309
      vertex -23.1768 6 -6.15572
      vertex -23.1768 -6 -6.15572
    endloop
  endfacet
  facet normal 0.156443 0 -0.987687
    outer loop
      vertex -23.1768 6 -6.15572
      vertex -23.7284 -6 -6.24309
      vertex -23.7284 6 -6.24309
    endloop
  endfacet
  facet normal 0.358373 0 -0.933578
    outer loop
      vertex -26.9437 -6 -7.16507
      vertex -26.4223 6 -6.96492
      vertex -26.4223 -6 -6.96492
    endloop
  endfacet
  facet normal 0.358373 0 -0.933578
    outer loop
      vertex -26.4223 6 -6.96492
      vertex -26.9437 -6 -7.16507
      vertex -26.9437 6 -7.16507
    endloop
  endfacet
  facet normal -0.461273 0 -0.887258
    outer loop
      vertex 33.5405 -6 -16.5881
      vertex 33.8925 6 -16.7711
      vertex 33.8925 -6 -16.7711
    endloop
  endfacet
  facet normal -0.461273 0 -0.887258
    outer loop
      vertex 33.8925 6 -16.7711
      vertex 33.5405 -6 -16.5881
      vertex 33.5405 6 -16.5881
    endloop
  endfacet
  facet normal 0.453991 0 -0.891006
    outer loop
      vertex -28.4615 -6 -7.87285
      vertex -27.9639 6 -7.61931
      vertex -27.9639 -6 -7.61931
    endloop
  endfacet
  facet normal 0.453991 0 -0.891006
    outer loop
      vertex -27.9639 6 -7.61931
      vertex -28.4615 -6 -7.87285
      vertex -28.4615 6 -7.87285
    endloop
  endfacet
  facet normal 0.920519 0 -0.390697
    outer loop
      vertex -35.5667 -6 -15.4922
      vertex -35.7849 6 -16.0063
      vertex -35.5667 6 -15.4922
    endloop
  endfacet
  facet normal 0.920519 0 -0.390697
    outer loop
      vertex -35.7849 6 -16.0063
      vertex -35.5667 -6 -15.4922
      vertex -35.7849 -6 -16.0063
    endloop
  endfacet
  facet normal -0.879441 0 -0.476007
    outer loop
      vertex 36.3184 -6 -19.3204
      vertex 36.1295 6 -18.9714
      vertex 36.3184 6 -19.3204
    endloop
  endfacet
  facet normal -0.879441 -0 -0.476007
    outer loop
      vertex 36.1295 6 -18.9714
      vertex 36.3184 -6 -19.3204
      vertex 36.1295 -6 -18.9714
    endloop
  endfacet
  facet normal 0.12187 0 -0.992546
    outer loop
      vertex -23.1768 -6 -6.15572
      vertex -22.6225 6 -6.08766
      vertex -22.6225 -6 -6.08766
    endloop
  endfacet
  facet normal 0.12187 0 -0.992546
    outer loop
      vertex -22.6225 6 -6.08766
      vertex -23.1768 -6 -6.15572
      vertex -23.1768 6 -6.15572
    endloop
  endfacet
  facet normal 0.906307 0 -0.422621
    outer loop
      vertex -35.3307 -6 -14.9861
      vertex -35.5667 6 -15.4922
      vertex -35.3307 6 -14.9861
    endloop
  endfacet
  facet normal 0.906307 0 -0.422621
    outer loop
      vertex -35.5667 6 -15.4922
      vertex -35.3307 -6 -14.9861
      vertex -35.5667 -6 -15.4922
    endloop
  endfacet
  facet normal 0.981647 -0 0.190707
    outer loop
      vertex -36.7069 -6 -24.7784
      vertex -36.6004 6 -25.3266
      vertex -36.7069 6 -24.7784
    endloop
  endfacet
  facet normal 0.981647 0 0.190707
    outer loop
      vertex -36.6004 6 -25.3266
      vertex -36.7069 -6 -24.7784
      vertex -36.6004 -6 -25.3266
    endloop
  endfacet
  facet normal -0.277483 0 -0.960731
    outer loop
      vertex 32.4229 -6 -16.1836
      vertex 32.8041 6 -16.2937
      vertex 32.8041 -6 -16.2937
    endloop
  endfacet
  facet normal -0.277483 0 -0.960731
    outer loop
      vertex 32.8041 6 -16.2937
      vertex 32.4229 -6 -16.1836
      vertex 32.4229 6 -16.1836
    endloop
  endfacet
  facet normal 0.987679 0 -0.156496
    outer loop
      vertex -36.7069 -6 -19.2216
      vertex -36.7943 6 -19.7732
      vertex -36.7069 6 -19.2216
    endloop
  endfacet
  facet normal 0.987679 0 -0.156496
    outer loop
      vertex -36.7943 6 -19.7732
      vertex -36.7069 -6 -19.2216
      vertex -36.7943 -6 -19.7732
    endloop
  endfacet
  facet normal 0.190793 0 -0.98163
    outer loop
      vertex -24.2766 -6 -6.34964
      vertex -23.7284 6 -6.24309
      vertex -23.7284 -6 -6.24309
    endloop
  endfacet
  facet normal 0.190793 0 -0.98163
    outer loop
      vertex -23.7284 6 -6.24309
      vertex -24.2766 -6 -6.34964
      vertex -24.2766 6 -6.34964
    endloop
  endfacet
  facet normal -0.677264 0 -0.73574
    outer loop
      vertex 34.8655 -6 -17.4537
      vertex 35.1574 6 -17.7224
      vertex 35.1574 -6 -17.7224
    endloop
  endfacet
  facet normal -0.677264 0 -0.73574
    outer loop
      vertex 35.1574 6 -17.7224
      vertex 34.8655 -6 -17.4537
      vertex 34.8655 6 -17.4537
    endloop
  endfacet
  facet normal 0.9563 -0 0.292387
    outer loop
      vertex -36.3302 -6 -26.4102
      vertex -36.1669 6 -26.9443
      vertex -36.3302 6 -26.4102
    endloop
  endfacet
  facet normal 0.9563 0 0.292387
    outer loop
      vertex -36.1669 6 -26.9443
      vertex -36.3302 -6 -26.4102
      vertex -36.1669 -6 -26.9443
    endloop
  endfacet
  facet normal -0.574375 0 -0.818592
    outer loop
      vertex 34.2317 -6 -16.977
      vertex 34.5565 6 -17.2049
      vertex 34.5565 -6 -17.2049
    endloop
  endfacet
  facet normal -0.574375 0 -0.818592
    outer loop
      vertex 34.5565 6 -17.2049
      vertex 34.2317 -6 -16.977
      vertex 34.2317 6 -16.977
    endloop
  endfacet
  facet normal -0.627151 0 -0.778898
    outer loop
      vertex 34.5565 -6 -17.2049
      vertex 34.8655 6 -17.4537
      vertex 34.8655 -6 -17.4537
    endloop
  endfacet
  facet normal -0.627151 0 -0.778898
    outer loop
      vertex 34.8655 6 -17.4537
      vertex 34.5565 -6 -17.2049
      vertex 34.5565 6 -17.2049
    endloop
  endfacet
  facet normal 0.87468 0 -0.4847
    outer loop
      vertex -34.8064 -6 -14
      vertex -35.0771 6 -14.4885
      vertex -34.8064 6 -14
    endloop
  endfacet
  facet normal 0.87468 0 -0.4847
    outer loop
      vertex -35.0771 6 -14.4885
      vertex -34.8064 -6 -14
      vertex -35.0771 -6 -14.4885
    endloop
  endfacet
  facet normal 0.484769 0 -0.874642
    outer loop
      vertex -28.95 -6 -8.1436
      vertex -28.4615 6 -7.87285
      vertex -28.4615 -6 -7.87285
    endloop
  endfacet
  facet normal 0.484769 0 -0.874642
    outer loop
      vertex -28.4615 6 -7.87285
      vertex -28.95 -6 -8.1436
      vertex -28.95 6 -8.1436
    endloop
  endfacet
  facet normal 0.987679 -0 0.156496
    outer loop
      vertex -36.7943 -6 -24.2268
      vertex -36.7069 6 -24.7784
      vertex -36.7943 6 -24.2268
    endloop
  endfacet
  facet normal 0.987679 0 0.156496
    outer loop
      vertex -36.7069 6 -24.7784
      vertex -36.7943 -6 -24.2268
      vertex -36.7069 -6 -24.7784
    endloop
  endfacet
  facet normal -0.340245 0 -0.940337
    outer loop
      vertex 32.8041 -6 -16.2937
      vertex 33.1772 6 -16.4287
      vertex 33.1772 -6 -16.4287
    endloop
  endfacet
  facet normal -0.340245 0 -0.940337
    outer loop
      vertex 33.1772 6 -16.4287
      vertex 32.8041 -6 -16.2937
      vertex 32.8041 6 -16.2937
    endloop
  endfacet
  facet normal -1 0 0
    outer loop
      vertex 37.95 -6 -27
      vertex 37.95 6 -20
      vertex 37.95 6 -27
    endloop
  endfacet
  facet normal -1 -0 0
    outer loop
      vertex 37.95 6 -20
      vertex 37.95 -6 -27
      vertex 37.95 -6 -20
    endloop
  endfacet
  facet normal 0.118044 0 -0.993008
    outer loop
      vertex 36.6562 -6 -20.1538
      vertex 37.95 6 -20
      vertex 37.95 -6 -20
    endloop
  endfacet
  facet normal 0.118044 0 -0.993008
    outer loop
      vertex 37.95 6 -20
      vertex 36.6562 -6 -20.1538
      vertex 36.6562 6 -20.1538
    endloop
  endfacet
  facet normal 1 -0 0
    outer loop
      vertex 47.2375 4.13755 0
      vertex 47.2375 6 -6
      vertex 47.2375 6 0
    endloop
  endfacet
  facet normal 1 0 0
    outer loop
      vertex 47.2375 6 -6
      vertex 47.2375 4.13755 0
      vertex 47.2375 4.13755 -6
    endloop
  endfacet
  facet normal 1 -0 0
    outer loop
      vertex 47.2375 -6 0
      vertex 47.2375 -4.13755 -6
      vertex 47.2375 -4.13755 0
    endloop
  endfacet
  facet normal 1 0 0
    outer loop
      vertex 47.2375 -4.13755 -6
      vertex 47.2375 -6 0
      vertex 47.2375 -6 -6
    endloop
  endfacet
  facet normal -1 0 0
    outer loop
      vertex -47.2375 4.13755 -6
      vertex -47.2375 6 0
      vertex -47.2375 6 -6
    endloop
  endfacet
  facet normal -1 -0 0
    outer loop
      vertex -47.2375 6 0
      vertex -47.2375 4.13755 -6
      vertex -47.2375 4.13755 0
    endloop
  endfacet
  facet normal -1 0 0
    outer loop
      vertex -47.2375 -6 -6
      vertex -47.2375 -4.13755 0
      vertex -47.2375 -4.13755 -6
    endloop
  endfacet
  facet normal -1 -0 0
    outer loop
      vertex -47.2375 -4.13755 0
      vertex -47.2375 -6 -6
      vertex -47.2375 -6 0
    endloop
  endfacet
  facet normal 0 1 -0
    outer loop
      vertex -17.6234 6 -6.34964
      vertex -29.2375 6 0
      vertex 47.2375 6 0
    endloop
  endfacet
  facet normal 0 1 0
    outer loop
      vertex -28.95 6 -8.1436
      vertex -32.2375 6 -1.5
      vertex -29.2375 6 -1.5
    endloop
  endfacet
  facet normal 0 1 -0
    outer loop
      vertex -30.3546 6 -9.05574
      vertex -32.2375 6 -1.5
      vertex -29.8971 6 -8.73541
    endloop
  endfacet
  facet normal 0 1 0
    outer loop
      vertex 32.0353 6 -16.099
      vertex 47.2375 6 0
      vertex 46.7375 6 -6
    endloop
  endfacet
  facet normal 0 1 0
    outer loop
      vertex 46.7375 6 -6
      vertex 47.2375 6 0
      vertex 47.2375 6 -6
    endloop
  endfacet
  facet normal 0 1 -0
    outer loop
      vertex -32.2375 6 -1.5
      vertex -36.2375 6 0
      vertex -32.2375 6 0
    endloop
  endfacet
  facet normal 0 1 0
    outer loop
      vertex -36.2375 6 0
      vertex -32.2375 6 -1.5
      vertex -36.2375 6 -1.5
    endloop
  endfacet
  facet normal 0 1 -0
    outer loop
      vertex -39.2375 6 -1.5
      vertex -47.2375 6 0
      vertex -39.2375 6 0
    endloop
  endfacet
  facet normal -0 1 -0
    outer loop
      vertex -18.1716 6 -6.24309
      vertex -29.2375 6 0
      vertex -17.6234 6 -6.34964
    endloop
  endfacet
  facet normal -0 1 -0
    outer loop
      vertex -19.2775 6 -6.08766
      vertex -29.2375 6 0
      vertex -18.7232 6 -6.15572
    endloop
  endfacet
  facet normal 0 1 -0
    outer loop
      vertex -22.6225 6 -6.08766
      vertex -29.2375 6 0
      vertex -22.0661 6 -6.03899
    endloop
  endfacet
  facet normal 0 1 -0
    outer loop
      vertex -23.1768 6 -6.15572
      vertex -29.2375 6 0
      vertex -22.6225 6 -6.08766
    endloop
  endfacet
  facet normal 0 1 0
    outer loop
      vertex -47.2375 6 0
      vertex -46.7375 6 -6
      vertex -47.2375 6 -6
    endloop
  endfacet
  facet normal 0 1 0
    outer loop
      vertex -29.2375 6 0
      vertex -23.1768 6 -6.15572
      vertex -29.2375 6 -1.5
    endloop
  endfacet
  facet normal 0 1 -0
    outer loop
      vertex -23.7284 6 -6.24309
      vertex -29.2375 6 -1.5
      vertex -23.1768 6 -6.15572
    endloop
  endfacet
  facet normal 0 1 -0
    outer loop
      vertex -24.2766 6 -6.34964
      vertex -29.2375 6 -1.5
      vertex -23.7284 6 -6.24309
    endloop
  endfacet
  facet normal 0 1 -0
    outer loop
      vertex -24.8207 6 -6.47528
      vertex -29.2375 6 -1.5
      vertex -24.2766 6 -6.34964
    endloop
  endfacet
  facet normal 0 1 -0
    outer loop
      vertex -25.3602 6 -6.61983
      vertex -29.2375 6 -1.5
      vertex -24.8207 6 -6.47528
    endloop
  endfacet
  facet normal 0 1 -0
    outer loop
      vertex -25.8943 6 -6.7831
      vertex -29.2375 6 -1.5
      vertex -25.3602 6 -6.61983
    endloop
  endfacet
  facet normal 0 1 -0
    outer loop
      vertex -26.4223 6 -6.96492
      vertex -29.2375 6 -1.5
      vertex -25.8943 6 -6.7831
    endloop
  endfacet
  facet normal 0 1 -0
    outer loop
      vertex -26.9437 6 -7.16507
      vertex -29.2375 6 -1.5
      vertex -26.4223 6 -6.96492
    endloop
  endfacet
  facet normal 0 1 -0
    outer loop
      vertex -27.4578 6 -7.38329
      vertex -29.2375 6 -1.5
      vertex -26.9437 6 -7.16507
    endloop
  endfacet
  facet normal 0 1 -0
    outer loop
      vertex -27.9639 6 -7.61931
      vertex -29.2375 6 -1.5
      vertex -27.4578 6 -7.38329
    endloop
  endfacet
  facet normal 0 1 -0
    outer loop
      vertex -28.4615 6 -7.87285
      vertex -29.2375 6 -1.5
      vertex -27.9639 6 -7.61931
    endloop
  endfacet
  facet normal 0 1 -0
    outer loop
      vertex -28.95 6 -8.1436
      vertex -29.2375 6 -1.5
      vertex -28.4615 6 -7.87285
    endloop
  endfacet
  facet normal 0 1 0
    outer loop
      vertex -32.2375 6 -1.5
      vertex -28.95 6 -8.1436
      vertex -29.4287 6 -8.43124
    endloop
  endfacet
  facet normal 0 1 0
    outer loop
      vertex -32.2375 6 -1.5
      vertex -29.4287 6 -8.43124
      vertex -29.8971 6 -8.73541
    endloop
  endfacet
  facet normal 0 1 -0
    outer loop
      vertex -30.8006 6 -9.39183
      vertex -32.2375 6 -1.5
      vertex -30.3546 6 -9.05574
    endloop
  endfacet
  facet normal 0 1 -0
    outer loop
      vertex -31.2346 6 -9.7433
      vertex -32.2375 6 -1.5
      vertex -30.8006 6 -9.39183
    endloop
  endfacet
  facet normal 0 1 0
    outer loop
      vertex -32.2375 6 -1.5
      vertex -31.2346 6 -9.7433
      vertex -36.2375 6 -1.5
    endloop
  endfacet
  facet normal 0 1 -0
    outer loop
      vertex -31.6561 6 -10.1097
      vertex -36.2375 6 -1.5
      vertex -31.2346 6 -9.7433
    endloop
  endfacet
  facet normal 0 1 -0
    outer loop
      vertex -32.0645 6 -10.4906
      vertex -36.2375 6 -1.5
      vertex -31.6561 6 -10.1097
    endloop
  endfacet
  facet normal 0 1 0
    outer loop
      vertex -39.2375 6 -1.5
      vertex -46.7375 6 -6
      vertex -47.2375 6 0
    endloop
  endfacet
  facet normal 0 1 -0
    outer loop
      vertex -32.4594 6 -10.8855
      vertex -36.2375 6 -1.5
      vertex -32.0645 6 -10.4906
    endloop
  endfacet
  facet normal 0 1 -0
    outer loop
      vertex -32.8403 6 -11.2939
      vertex -36.2375 6 -1.5
      vertex -32.4594 6 -10.8855
    endloop
  endfacet
  facet normal 0 1 -0
    outer loop
      vertex -33.2067 6 -11.7154
      vertex -36.2375 6 -1.5
      vertex -32.8403 6 -11.2939
    endloop
  endfacet
  facet normal 0 1 0
    outer loop
      vertex -36.2375 6 -1.5
      vertex -33.2067 6 -11.7154
      vertex -39.2375 6 -1.5
    endloop
  endfacet
  facet normal 0 1 -0
    outer loop
      vertex -33.5582 6 -12.1494
      vertex -39.2375 6 -1.5
      vertex -33.2067 6 -11.7154
    endloop
  endfacet
  facet normal 0 1 -0
    outer loop
      vertex -33.8943 6 -12.5954
      vertex -39.2375 6 -1.5
      vertex -33.5582 6 -12.1494
    endloop
  endfacet
  facet normal 0 1 0
    outer loop
      vertex -39.2375 6 -1.5
      vertex -33.8943 6 -12.5954
      vertex -46.7375 6 -6
    endloop
  endfacet
  facet normal 0 1 -0
    outer loop
      vertex -34.2146 6 -13.0529
      vertex -46.7375 6 -6
      vertex -33.8943 6 -12.5954
    endloop
  endfacet
  facet normal 0 1 -0
    outer loop
      vertex -34.5188 6 -13.5213
      vertex -46.7375 6 -6
      vertex -34.2146 6 -13.0529
    endloop
  endfacet
  facet normal 0 1 -0
    outer loop
      vertex -34.8064 6 -14
      vertex -46.7375 6 -6
      vertex -34.5188 6 -13.5213
    endloop
  endfacet
  facet normal 0 1 -0
    outer loop
      vertex -35.0771 6 -14.4885
      vertex -46.7375 6 -6
      vertex -34.8064 6 -14
    endloop
  endfacet
  facet normal 0 1 -0
    outer loop
      vertex -35.3307 6 -14.9861
      vertex -46.7375 6 -6
      vertex -35.0771 6 -14.4885
    endloop
  endfacet
  facet normal 0 1 -0
    outer loop
      vertex -35.5667 6 -15.4922
      vertex -46.7375 6 -6
      vertex -35.3307 6 -14.9861
    endloop
  endfacet
  facet normal 0 1 -0
    outer loop
      vertex -35.7849 6 -16.0063
      vertex -46.7375 6 -6
      vertex -35.5667 6 -15.4922
    endloop
  endfacet
  facet normal 0 1 -0
    outer loop
      vertex -35.9851 6 -16.5277
      vertex -46.7375 6 -6
      vertex -35.7849 6 -16.0063
    endloop
  endfacet
  facet normal 0 1 -0
    outer loop
      vertex -36.1669 6 -17.0557
      vertex -46.7375 6 -6
      vertex -35.9851 6 -16.5277
    endloop
  endfacet
  facet normal 0 1 -0
    outer loop
      vertex -36.3302 6 -17.5898
      vertex -46.7375 6 -6
      vertex -36.1669 6 -17.0557
    endloop
  endfacet
  facet normal 0 1 -0
    outer loop
      vertex -36.4747 6 -18.1293
      vertex -46.7375 6 -6
      vertex -36.3302 6 -17.5898
    endloop
  endfacet
  facet normal 0 1 -0
    outer loop
      vertex -36.6004 6 -18.6734
      vertex -46.7375 6 -6
      vertex -36.4747 6 -18.1293
    endloop
  endfacet
  facet normal 0 1 0
    outer loop
      vertex -46.7375 6 -27
      vertex -36.6004 6 -18.6734
      vertex -36.7069 6 -19.2216
    endloop
  endfacet
  facet normal 0 1 0
    outer loop
      vertex -46.7375 6 -27
      vertex -36.7069 6 -19.2216
      vertex -36.7943 6 -19.7732
    endloop
  endfacet
  facet normal 0 1 0
    outer loop
      vertex -46.7375 6 -27
      vertex -36.7943 6 -19.7732
      vertex -36.8623 6 -20.3275
    endloop
  endfacet
  facet normal 0 1 0
    outer loop
      vertex -46.7375 6 -27
      vertex -36.8623 6 -20.3275
      vertex -36.911 6 -20.8839
    endloop
  endfacet
  facet normal 0 1 0
    outer loop
      vertex -46.7375 6 -27
      vertex -36.911 6 -20.8839
      vertex -36.9402 6 -21.4416
    endloop
  endfacet
  facet normal 0 1 0
    outer loop
      vertex -46.7375 6 -27
      vertex -36.9402 6 -21.4416
      vertex -36.95 6 -22
    endloop
  endfacet
  facet normal 0 1 0
    outer loop
      vertex -46.7375 6 -27
      vertex -36.95 6 -22
      vertex -36.9402 6 -22.5584
    endloop
  endfacet
  facet normal 0 1 0
    outer loop
      vertex -46.7375 6 -27
      vertex -36.9402 6 -22.5584
      vertex -36.911 6 -23.1161
    endloop
  endfacet
  facet normal 0 1 0
    outer loop
      vertex -46.7375 6 -27
      vertex -36.911 6 -23.1161
      vertex -36.8623 6 -23.6725
    endloop
  endfacet
  facet normal 0 1 0
    outer loop
      vertex -46.7375 6 -27
      vertex -36.8623 6 -23.6725
      vertex -36.7943 6 -24.2268
    endloop
  endfacet
  facet normal 0 1 0
    outer loop
      vertex -46.7375 6 -27
      vertex -36.7943 6 -24.2268
      vertex -36.7069 6 -24.7784
    endloop
  endfacet
  facet normal 0 1 0
    outer loop
      vertex -46.7375 6 -27
      vertex -36.7069 6 -24.7784
      vertex -36.6004 6 -25.3266
    endloop
  endfacet
  facet normal 0 1 0
    outer loop
      vertex -46.7375 6 -27
      vertex -36.6004 6 -25.3266
      vertex -36.4747 6 -25.8707
    endloop
  endfacet
  facet normal 0 1 0
    outer loop
      vertex -46.7375 6 -27
      vertex -36.4747 6 -25.8707
      vertex -36.3302 6 -26.4102
    endloop
  endfacet
  facet normal 0 1 0
    outer loop
      vertex -46.7375 6 -27
      vertex -36.3302 6 -26.4102
      vertex -36.1669 6 -26.9443
    endloop
  endfacet
  facet normal 0 1 0
    outer loop
      vertex -46.7375 6 -27
      vertex -36.1669 6 -26.9443
      vertex -36.1477 6 -27
    endloop
  endfacet
  facet normal 0 1 0
    outer loop
      vertex -36.6004 6 -18.6734
      vertex -46.7375 6 -27
      vertex -46.7375 6 -6
    endloop
  endfacet
  facet normal 0 1 -0
    outer loop
      vertex -22.0661 6 -6.03899
      vertex -29.2375 6 0
      vertex -21.5084 6 -6.00975
    endloop
  endfacet
  facet normal 0 1 -0
    outer loop
      vertex -21.5084 6 -6.00975
      vertex -29.2375 6 0
      vertex -20.95 6 -6
    endloop
  endfacet
  facet normal -0 1 -0
    outer loop
      vertex -20.95 6 -6
      vertex -29.2375 6 0
      vertex -20.3916 6 -6.00975
    endloop
  endfacet
  facet normal -0 1 -0
    outer loop
      vertex -20.3916 6 -6.00975
      vertex -29.2375 6 0
      vertex -19.8339 6 -6.03899
    endloop
  endfacet
  facet normal -0 1 -0
    outer loop
      vertex -19.8339 6 -6.03899
      vertex -29.2375 6 0
      vertex -19.2775 6 -6.08766
    endloop
  endfacet
  facet normal -0 1 -0
    outer loop
      vertex -18.7232 6 -6.15572
      vertex -29.2375 6 0
      vertex -18.1716 6 -6.24309
    endloop
  endfacet
  facet normal 0 1 0
    outer loop
      vertex 47.2375 6 0
      vertex 32.0353 6 -16.099
      vertex -17.6234 6 -6.34964
    endloop
  endfacet
  facet normal 0 1 0
    outer loop
      vertex 46.7375 6 -6
      vertex 32.4229 6 -16.1836
      vertex 32.0353 6 -16.099
    endloop
  endfacet
  facet normal 0 1 0
    outer loop
      vertex 46.7375 6 -6
      vertex 32.8041 6 -16.2937
      vertex 32.4229 6 -16.1836
    endloop
  endfacet
  facet normal 0 1 0
    outer loop
      vertex 46.7375 6 -6
      vertex 33.1772 6 -16.4287
      vertex 32.8041 6 -16.2937
    endloop
  endfacet
  facet normal 0 1 0
    outer loop
      vertex 46.7375 6 -6
      vertex 33.5405 6 -16.5881
      vertex 33.1772 6 -16.4287
    endloop
  endfacet
  facet normal 0 1 0
    outer loop
      vertex 46.7375 6 -6
      vertex 33.8925 6 -16.7711
      vertex 33.5405 6 -16.5881
    endloop
  endfacet
  facet normal 0 1 0
    outer loop
      vertex 46.7375 6 -6
      vertex 34.2317 6 -16.977
      vertex 33.8925 6 -16.7711
    endloop
  endfacet
  facet normal 0 1 0
    outer loop
      vertex 46.7375 6 -6
      vertex 34.5565 6 -17.2049
      vertex 34.2317 6 -16.977
    endloop
  endfacet
  facet normal 0 1 0
    outer loop
      vertex 46.7375 6 -6
      vertex 34.8655 6 -17.4537
      vertex 34.5565 6 -17.2049
    endloop
  endfacet
  facet normal 0 1 0
    outer loop
      vertex 46.7375 6 -6
      vertex 35.1574 6 -17.7224
      vertex 34.8655 6 -17.4537
    endloop
  endfacet
  facet normal 0 1 0
    outer loop
      vertex 46.7375 6 -6
      vertex 35.4309 6 -18.0099
      vertex 35.1574 6 -17.7224
    endloop
  endfacet
  facet normal 0 1 -0
    outer loop
      vertex 37.95 6 -20
      vertex 35.4309 6 -18.0099
      vertex 46.7375 6 -6
    endloop
  endfacet
  facet normal 0 1 0
    outer loop
      vertex 35.4309 6 -18.0099
      vertex 37.95 6 -20
      vertex 35.6848 6 -18.3147
    endloop
  endfacet
  facet normal 0 1 0
    outer loop
      vertex 35.6848 6 -18.3147
      vertex 37.95 6 -20
      vertex 35.918 6 -18.6357
    endloop
  endfacet
  facet normal 0 1 0
    outer loop
      vertex 35.918 6 -18.6357
      vertex 37.95 6 -20
      vertex 36.1295 6 -18.9714
    endloop
  endfacet
  facet normal 0 1 0
    outer loop
      vertex 36.1295 6 -18.9714
      vertex 37.95 6 -20
      vertex 36.3184 6 -19.3204
    endloop
  endfacet
  facet normal 0 1 0
    outer loop
      vertex 36.3184 6 -19.3204
      vertex 37.95 6 -20
      vertex 36.4837 6 -19.681
    endloop
  endfacet
  facet normal 0 1 -0
    outer loop
      vertex 46.7375 6 -27
      vertex 37.95 6 -20
      vertex 46.7375 6 -6
    endloop
  endfacet
  facet normal 0 1 0
    outer loop
      vertex 37.95 6 -20
      vertex 46.7375 6 -27
      vertex 37.95 6 -27
    endloop
  endfacet
  facet normal 0 1 0
    outer loop
      vertex 37.95 6 -20
      vertex 36.6249 6 -20.0518
      vertex 36.4837 6 -19.681
    endloop
  endfacet
  facet normal -0 1 0
    outer loop
      vertex 36.6249 6 -20.0518
      vertex 37.95 6 -20
      vertex 36.6562 6 -20.1538
    endloop
  endfacet
  facet normal 0 -1 0
    outer loop
      vertex -47.2375 -6 0
      vertex -39.2375 -6 -1.5
      vertex -39.2375 -6 0
    endloop
  endfacet
  facet normal 0 -1 0
    outer loop
      vertex -33.2067 -6 -11.7154
      vertex -36.2375 -6 -1.5
      vertex -39.2375 -6 -1.5
    endloop
  endfacet
  facet normal -0 -1 0
    outer loop
      vertex -31.2346 -6 -9.7433
      vertex -36.2375 -6 -1.5
      vertex -31.6561 -6 -10.1097
    endloop
  endfacet
  facet normal 0 -1 0
    outer loop
      vertex -47.2375 -6 0
      vertex -46.7375 -6 -6
      vertex -39.2375 -6 -1.5
    endloop
  endfacet
  facet normal 0 -1 0
    outer loop
      vertex -46.7375 -6 -6
      vertex -47.2375 -6 0
      vertex -47.2375 -6 -6
    endloop
  endfacet
  facet normal 0 -1 0
    outer loop
      vertex -36.2375 -6 -1.5
      vertex -32.2375 -6 0
      vertex -36.2375 -6 0
    endloop
  endfacet
  facet normal 0 -1 -0
    outer loop
      vertex -32.2375 -6 0
      vertex -36.2375 -6 -1.5
      vertex -32.2375 -6 -1.5
    endloop
  endfacet
  facet normal 0 -1 0
    outer loop
      vertex -23.1768 -6 -6.15572
      vertex -29.2375 -6 0
      vertex -29.2375 -6 -1.5
    endloop
  endfacet
  facet normal 0 -1 0
    outer loop
      vertex -33.8943 -6 -12.5954
      vertex -39.2375 -6 -1.5
      vertex -46.7375 -6 -6
    endloop
  endfacet
  facet normal 0 -1 0
    outer loop
      vertex -36.2375 -6 -1.5
      vertex -31.2346 -6 -9.7433
      vertex -32.2375 -6 -1.5
    endloop
  endfacet
  facet normal 0 -1 0
    outer loop
      vertex -29.2375 -6 0
      vertex -20.95 -6 -6
      vertex -20.3916 -6 -6.00975
    endloop
  endfacet
  facet normal 0 -1 0
    outer loop
      vertex -29.2375 -6 0
      vertex -20.3916 -6 -6.00975
      vertex -19.8339 -6 -6.03899
    endloop
  endfacet
  facet normal 0 -1 -0
    outer loop
      vertex 47.2375 -6 0
      vertex 46.7375 -6 -6
      vertex 47.2375 -6 -6
    endloop
  endfacet
  facet normal 0 -1 0
    outer loop
      vertex 36.6249 -6 -20.0518
      vertex 37.95 -6 -20
      vertex 36.4837 -6 -19.681
    endloop
  endfacet
  facet normal 0 -1 0
    outer loop
      vertex 37.95 -6 -20
      vertex 36.6249 -6 -20.0518
      vertex 36.6562 -6 -20.1538
    endloop
  endfacet
  facet normal 0 -1 0
    outer loop
      vertex -29.2375 -6 0
      vertex -19.8339 -6 -6.03899
      vertex -19.2775 -6 -6.08766
    endloop
  endfacet
  facet normal 0 -1 0
    outer loop
      vertex -29.2375 -6 0
      vertex -19.2775 -6 -6.08766
      vertex -18.7232 -6 -6.15572
    endloop
  endfacet
  facet normal 0 -1 0
    outer loop
      vertex -29.2375 -6 0
      vertex -18.7232 -6 -6.15572
      vertex -18.1716 -6 -6.24309
    endloop
  endfacet
  facet normal 0 -1 0
    outer loop
      vertex -29.2375 -6 0
      vertex -18.1716 -6 -6.24309
      vertex -17.6234 -6 -6.34964
    endloop
  endfacet
  facet normal 0 -1 0
    outer loop
      vertex -29.2375 -6 0
      vertex -17.6234 -6 -6.34964
      vertex 47.2375 -6 0
    endloop
  endfacet
  facet normal 0 -1 0
    outer loop
      vertex 32.0353 -6 -16.099
      vertex 47.2375 -6 0
      vertex -17.6234 -6 -6.34964
    endloop
  endfacet
  facet normal 0 -1 0
    outer loop
      vertex 47.2375 -6 0
      vertex 32.0353 -6 -16.099
      vertex 46.7375 -6 -6
    endloop
  endfacet
  facet normal 0 -1 0
    outer loop
      vertex 32.4229 -6 -16.1836
      vertex 46.7375 -6 -6
      vertex 32.0353 -6 -16.099
    endloop
  endfacet
  facet normal 0 -1 0
    outer loop
      vertex 32.8041 -6 -16.2937
      vertex 46.7375 -6 -6
      vertex 32.4229 -6 -16.1836
    endloop
  endfacet
  facet normal 0 -1 0
    outer loop
      vertex 33.1772 -6 -16.4287
      vertex 46.7375 -6 -6
      vertex 32.8041 -6 -16.2937
    endloop
  endfacet
  facet normal 0 -1 0
    outer loop
      vertex 33.5405 -6 -16.5881
      vertex 46.7375 -6 -6
      vertex 33.1772 -6 -16.4287
    endloop
  endfacet
  facet normal 0 -1 0
    outer loop
      vertex 33.8925 -6 -16.7711
      vertex 46.7375 -6 -6
      vertex 33.5405 -6 -16.5881
    endloop
  endfacet
  facet normal 0 -1 0
    outer loop
      vertex 34.2317 -6 -16.977
      vertex 46.7375 -6 -6
      vertex 33.8925 -6 -16.7711
    endloop
  endfacet
  facet normal 0 -1 0
    outer loop
      vertex 34.5565 -6 -17.2049
      vertex 46.7375 -6 -6
      vertex 34.2317 -6 -16.977
    endloop
  endfacet
  facet normal 0 -1 0
    outer loop
      vertex 34.8655 -6 -17.4537
      vertex 46.7375 -6 -6
      vertex 34.5565 -6 -17.2049
    endloop
  endfacet
  facet normal 0 -1 0
    outer loop
      vertex 35.1574 -6 -17.7224
      vertex 46.7375 -6 -6
      vertex 34.8655 -6 -17.4537
    endloop
  endfacet
  facet normal 0 -1 0
    outer loop
      vertex 35.4309 -6 -18.0099
      vertex 46.7375 -6 -6
      vertex 35.1574 -6 -17.7224
    endloop
  endfacet
  facet normal 0 -1 0
    outer loop
      vertex 37.95 -6 -20
      vertex 35.4309 -6 -18.0099
      vertex 35.6848 -6 -18.3147
    endloop
  endfacet
  facet normal 0 -1 0
    outer loop
      vertex 37.95 -6 -20
      vertex 35.6848 -6 -18.3147
      vertex 35.918 -6 -18.6357
    endloop
  endfacet
  facet normal 0 -1 0
    outer loop
      vertex 37.95 -6 -20
      vertex 35.918 -6 -18.6357
      vertex 36.1295 -6 -18.9714
    endloop
  endfacet
  facet normal 0 -1 0
    outer loop
      vertex 37.95 -6 -20
      vertex 36.1295 -6 -18.9714
      vertex 36.3184 -6 -19.3204
    endloop
  endfacet
  facet normal 0 -1 0
    outer loop
      vertex 37.95 -6 -20
      vertex 36.3184 -6 -19.3204
      vertex 36.4837 -6 -19.681
    endloop
  endfacet
  facet normal 0 -1 0
    outer loop
      vertex 35.4309 -6 -18.0099
      vertex 37.95 -6 -20
      vertex 46.7375 -6 -6
    endloop
  endfacet
  facet normal 0 -1 0
    outer loop
      vertex 46.7375 -6 -27
      vertex 37.95 -6 -20
      vertex 37.95 -6 -27
    endloop
  endfacet
  facet normal 0 -1 0
    outer loop
      vertex 37.95 -6 -20
      vertex 46.7375 -6 -27
      vertex 46.7375 -6 -6
    endloop
  endfacet
  facet normal 0 -1 0
    outer loop
      vertex -29.2375 -6 0
      vertex -21.5084 -6 -6.00975
      vertex -20.95 -6 -6
    endloop
  endfacet
  facet normal 0 -1 0
    outer loop
      vertex -29.2375 -6 0
      vertex -22.0661 -6 -6.03899
      vertex -21.5084 -6 -6.00975
    endloop
  endfacet
  facet normal 0 -1 0
    outer loop
      vertex -29.2375 -6 0
      vertex -22.6225 -6 -6.08766
      vertex -22.0661 -6 -6.03899
    endloop
  endfacet
  facet normal 0 -1 0
    outer loop
      vertex -29.2375 -6 0
      vertex -23.1768 -6 -6.15572
      vertex -22.6225 -6 -6.08766
    endloop
  endfacet
  facet normal 0 -1 0
    outer loop
      vertex -29.2375 -6 -1.5
      vertex -23.7284 -6 -6.24309
      vertex -23.1768 -6 -6.15572
    endloop
  endfacet
  facet normal 0 -1 0
    outer loop
      vertex -29.2375 -6 -1.5
      vertex -24.2766 -6 -6.34964
      vertex -23.7284 -6 -6.24309
    endloop
  endfacet
  facet normal 0 -1 0
    outer loop
      vertex -29.2375 -6 -1.5
      vertex -24.8207 -6 -6.47528
      vertex -24.2766 -6 -6.34964
    endloop
  endfacet
  facet normal 0 -1 0
    outer loop
      vertex -29.2375 -6 -1.5
      vertex -25.3602 -6 -6.61983
      vertex -24.8207 -6 -6.47528
    endloop
  endfacet
  facet normal 0 -1 0
    outer loop
      vertex -29.2375 -6 -1.5
      vertex -25.8943 -6 -6.7831
      vertex -25.3602 -6 -6.61983
    endloop
  endfacet
  facet normal 0 -1 0
    outer loop
      vertex -29.2375 -6 -1.5
      vertex -26.4223 -6 -6.96492
      vertex -25.8943 -6 -6.7831
    endloop
  endfacet
  facet normal 0 -1 0
    outer loop
      vertex -29.2375 -6 -1.5
      vertex -26.9437 -6 -7.16507
      vertex -26.4223 -6 -6.96492
    endloop
  endfacet
  facet normal 0 -1 0
    outer loop
      vertex -29.2375 -6 -1.5
      vertex -27.4578 -6 -7.38329
      vertex -26.9437 -6 -7.16507
    endloop
  endfacet
  facet normal 0 -1 0
    outer loop
      vertex -29.2375 -6 -1.5
      vertex -27.9639 -6 -7.61931
      vertex -27.4578 -6 -7.38329
    endloop
  endfacet
  facet normal 0 -1 0
    outer loop
      vertex -29.2375 -6 -1.5
      vertex -28.4615 -6 -7.87285
      vertex -27.9639 -6 -7.61931
    endloop
  endfacet
  facet normal 0 -1 0
    outer loop
      vertex -29.2375 -6 -1.5
      vertex -28.95 -6 -8.1436
      vertex -28.4615 -6 -7.87285
    endloop
  endfacet
  facet normal 0 -1 0
    outer loop
      vertex -32.2375 -6 -1.5
      vertex -28.95 -6 -8.1436
      vertex -29.2375 -6 -1.5
    endloop
  endfacet
  facet normal -0 -1 0
    outer loop
      vertex -28.95 -6 -8.1436
      vertex -32.2375 -6 -1.5
      vertex -29.4287 -6 -8.43124
    endloop
  endfacet
  facet normal -0 -1 0
    outer loop
      vertex -29.4287 -6 -8.43124
      vertex -32.2375 -6 -1.5
      vertex -29.8971 -6 -8.73541
    endloop
  endfacet
  facet normal -0 -1 0
    outer loop
      vertex -29.8971 -6 -8.73541
      vertex -32.2375 -6 -1.5
      vertex -30.3546 -6 -9.05574
    endloop
  endfacet
  facet normal -0 -1 0
    outer loop
      vertex -30.3546 -6 -9.05574
      vertex -32.2375 -6 -1.5
      vertex -30.8006 -6 -9.39183
    endloop
  endfacet
  facet normal 0 -1 0
    outer loop
      vertex -32.2375 -6 -1.5
      vertex -31.2346 -6 -9.7433
      vertex -30.8006 -6 -9.39183
    endloop
  endfacet
  facet normal 0 -1 0
    outer loop
      vertex -36.2375 -6 -1.5
      vertex -32.0645 -6 -10.4906
      vertex -31.6561 -6 -10.1097
    endloop
  endfacet
  facet normal 0 -1 0
    outer loop
      vertex -36.2375 -6 -1.5
      vertex -32.4594 -6 -10.8855
      vertex -32.0645 -6 -10.4906
    endloop
  endfacet
  facet normal 0 -1 0
    outer loop
      vertex -36.2375 -6 -1.5
      vertex -32.8403 -6 -11.2939
      vertex -32.4594 -6 -10.8855
    endloop
  endfacet
  facet normal 0 -1 0
    outer loop
      vertex -36.2375 -6 -1.5
      vertex -33.2067 -6 -11.7154
      vertex -32.8403 -6 -11.2939
    endloop
  endfacet
  facet normal 0 -1 0
    outer loop
      vertex -39.2375 -6 -1.5
      vertex -33.5582 -6 -12.1494
      vertex -33.2067 -6 -11.7154
    endloop
  endfacet
  facet normal 0 -1 0
    outer loop
      vertex -39.2375 -6 -1.5
      vertex -33.8943 -6 -12.5954
      vertex -33.5582 -6 -12.1494
    endloop
  endfacet
  facet normal 0 -1 0
    outer loop
      vertex -46.7375 -6 -6
      vertex -34.2146 -6 -13.0529
      vertex -33.8943 -6 -12.5954
    endloop
  endfacet
  facet normal 0 -1 0
    outer loop
      vertex -46.7375 -6 -6
      vertex -34.5188 -6 -13.5213
      vertex -34.2146 -6 -13.0529
    endloop
  endfacet
  facet normal 0 -1 0
    outer loop
      vertex -46.7375 -6 -6
      vertex -34.8064 -6 -14
      vertex -34.5188 -6 -13.5213
    endloop
  endfacet
  facet normal 0 -1 0
    outer loop
      vertex -46.7375 -6 -6
      vertex -35.0771 -6 -14.4885
      vertex -34.8064 -6 -14
    endloop
  endfacet
  facet normal 0 -1 0
    outer loop
      vertex -46.7375 -6 -6
      vertex -35.3307 -6 -14.9861
      vertex -35.0771 -6 -14.4885
    endloop
  endfacet
  facet normal 0 -1 0
    outer loop
      vertex -46.7375 -6 -6
      vertex -35.5667 -6 -15.4922
      vertex -35.3307 -6 -14.9861
    endloop
  endfacet
  facet normal 0 -1 0
    outer loop
      vertex -46.7375 -6 -6
      vertex -35.7849 -6 -16.0063
      vertex -35.5667 -6 -15.4922
    endloop
  endfacet
  facet normal 0 -1 0
    outer loop
      vertex -46.7375 -6 -6
      vertex -35.9851 -6 -16.5277
      vertex -35.7849 -6 -16.0063
    endloop
  endfacet
  facet normal 0 -1 0
    outer loop
      vertex -46.7375 -6 -6
      vertex -36.1669 -6 -17.0557
      vertex -35.9851 -6 -16.5277
    endloop
  endfacet
  facet normal 0 -1 0
    outer loop
      vertex -46.7375 -6 -6
      vertex -36.3302 -6 -17.5898
      vertex -36.1669 -6 -17.0557
    endloop
  endfacet
  facet normal 0 -1 0
    outer loop
      vertex -46.7375 -6 -6
      vertex -36.4747 -6 -18.1293
      vertex -36.3302 -6 -17.5898
    endloop
  endfacet
  facet normal 0 -1 0
    outer loop
      vertex -46.7375 -6 -6
      vertex -36.6004 -6 -18.6734
      vertex -36.4747 -6 -18.1293
    endloop
  endfacet
  facet normal 0 -1 0
    outer loop
      vertex -46.7375 -6 -27
      vertex -36.6004 -6 -18.6734
      vertex -46.7375 -6 -6
    endloop
  endfacet
  facet normal 0 -1 0
    outer loop
      vertex -36.6004 -6 -18.6734
      vertex -46.7375 -6 -27
      vertex -36.7069 -6 -19.2216
    endloop
  endfacet
  facet normal 0 -1 0
    outer loop
      vertex -36.7069 -6 -19.2216
      vertex -46.7375 -6 -27
      vertex -36.7943 -6 -19.7732
    endloop
  endfacet
  facet normal 0 -1 0
    outer loop
      vertex -36.7943 -6 -19.7732
      vertex -46.7375 -6 -27
      vertex -36.8623 -6 -20.3275
    endloop
  endfacet
  facet normal 0 -1 0
    outer loop
      vertex -36.8623 -6 -20.3275
      vertex -46.7375 -6 -27
      vertex -36.911 -6 -20.8839
    endloop
  endfacet
  facet normal 0 -1 0
    outer loop
      vertex -36.911 -6 -20.8839
      vertex -46.7375 -6 -27
      vertex -36.9402 -6 -21.4416
    endloop
  endfacet
  facet normal 0 -1 0
    outer loop
      vertex -36.9402 -6 -21.4416
      vertex -46.7375 -6 -27
      vertex -36.95 -6 -22
    endloop
  endfacet
  facet normal 0 -1 -0
    outer loop
      vertex -36.95 -6 -22
      vertex -46.7375 -6 -27
      vertex -36.9402 -6 -22.5584
    endloop
  endfacet
  facet normal 0 -1 -0
    outer loop
      vertex -36.9402 -6 -22.5584
      vertex -46.7375 -6 -27
      vertex -36.911 -6 -23.1161
    endloop
  endfacet
  facet normal 0 -1 -0
    outer loop
      vertex -36.911 -6 -23.1161
      vertex -46.7375 -6 -27
      vertex -36.8623 -6 -23.6725
    endloop
  endfacet
  facet normal 0 -1 -0
    outer loop
      vertex -36.8623 -6 -23.6725
      vertex -46.7375 -6 -27
      vertex -36.7943 -6 -24.2268
    endloop
  endfacet
  facet normal 0 -1 -0
    outer loop
      vertex -36.7943 -6 -24.2268
      vertex -46.7375 -6 -27
      vertex -36.7069 -6 -24.7784
    endloop
  endfacet
  facet normal 0 -1 -0
    outer loop
      vertex -36.7069 -6 -24.7784
      vertex -46.7375 -6 -27
      vertex -36.6004 -6 -25.3266
    endloop
  endfacet
  facet normal 0 -1 -0
    outer loop
      vertex -36.6004 -6 -25.3266
      vertex -46.7375 -6 -27
      vertex -36.4747 -6 -25.8707
    endloop
  endfacet
  facet normal 0 -1 -0
    outer loop
      vertex -36.4747 -6 -25.8707
      vertex -46.7375 -6 -27
      vertex -36.3302 -6 -26.4102
    endloop
  endfacet
  facet normal 0 -1 -0
    outer loop
      vertex -36.3302 -6 -26.4102
      vertex -46.7375 -6 -27
      vertex -36.1669 -6 -26.9443
    endloop
  endfacet
  facet normal 0 -1 -0
    outer loop
      vertex -36.1669 -6 -26.9443
      vertex -46.7375 -6 -27
      vertex -36.1477 -6 -27
    endloop
  endfacet
  facet normal -1 0 0
    outer loop
      vertex -36.2375 -6 -1.5
      vertex -36.2375 6 0
      vertex -36.2375 6 -1.5
    endloop
  endfacet
  facet normal -1 -0 0
    outer loop
      vertex -36.2375 6 0
      vertex -36.2375 -6 -1.5
      vertex -36.2375 -6 0
    endloop
  endfacet
  facet normal -0 0 1
    outer loop
      vertex -39.2375 6 -1.5
      vertex -36.2375 -6 -1.5
      vertex -36.2375 6 -1.5
    endloop
  endfacet
  facet normal 0 0 1
    outer loop
      vertex -36.2375 -6 -1.5
      vertex -39.2375 6 -1.5
      vertex -39.2375 -6 -1.5
    endloop
  endfacet
  facet normal 1 -0 0
    outer loop
      vertex -39.2375 -6 0
      vertex -39.2375 6 -1.5
      vertex -39.2375 6 0
    endloop
  endfacet
  facet normal 1 0 0
    outer loop
      vertex -39.2375 6 -1.5
      vertex -39.2375 -6 0
      vertex -39.2375 -6 -1.5
    endloop
  endfacet
  facet normal -1 0 0
    outer loop
      vertex -29.2375 -6 -1.5
      vertex -29.2375 6 0
      vertex -29.2375 6 -1.5
    endloop
  endfacet
  facet normal -1 -0 0
    outer loop
      vertex -29.2375 6 0
      vertex -29.2375 -6 -1.5
      vertex -29.2375 -6 0
    endloop
  endfacet
  facet normal -0 0 1
    outer loop
      vertex -32.2375 6 -1.5
      vertex -29.2375 -6 -1.5
      vertex -29.2375 6 -1.5
    endloop
  endfacet
  facet normal 0 0 1
    outer loop
      vertex -29.2375 -6 -1.5
      vertex -32.2375 6 -1.5
      vertex -32.2375 -6 -1.5
    endloop
  endfacet
  facet normal 1 -0 0
    outer loop
      vertex -32.2375 -6 0
      vertex -32.2375 6 -1.5
      vertex -32.2375 6 0
    endloop
  endfacet
  facet normal 1 0 0
    outer loop
      vertex -32.2375 6 -1.5
      vertex -32.2375 -6 0
      vertex -32.2375 -6 -1.5
    endloop
  endfacet
endsolid OpenSCAD_Model
