solid OpenSCAD_Model
  facet normal 0 0 1
    outer loop
      vertex -39.2375 6 0
      vertex -45.3375 0 0
      vertex -39.2375 -6 0
    endloop
  endfacet
  facet normal 0 0 1
    outer loop
      vertex -39.2375 6 0
      vertex -45.3521 0.398736 0
      vertex -45.3375 0 0
    endloop
  endfacet
  facet normal 0 0 1
    outer loop
      vertex -39.2375 6 0
      vertex -45.3957 0.795346 0
      vertex -45.3521 0.398736 0
    endloop
  endfacet
  facet normal 0 0 1
    outer loop
      vertex -39.2375 6 0
      vertex -45.4682 1.18771 0
      vertex -45.3957 0.795346 0
    endloop
  endfacet
  facet normal 0 0 1
    outer loop
      vertex -39.2375 6 0
      vertex -45.5691 1.57374 0
      vertex -45.4682 1.18771 0
    endloop
  endfacet
  facet normal 0 0 1
    outer loop
      vertex -39.2375 6 0
      vertex -45.6979 1.95137 0
      vertex -45.5691 1.57374 0
    endloop
  endfacet
  facet normal 0 0 1
    outer loop
      vertex -39.2375 6 0
      vertex -45.854 2.31859 0
      vertex -45.6979 1.95137 0
    endloop
  endfacet
  facet normal 0 0 1
    outer loop
      vertex -39.2375 6 0
      vertex -46.0364 2.67344 0
      vertex -45.854 2.31859 0
    endloop
  endfacet
  facet normal 0 0 1
    outer loop
      vertex -39.2375 6 0
      vertex -46.2443 3.01403 0
      vertex -46.0364 2.67344 0
    endloop
  endfacet
  facet normal 0 0 1
    outer loop
      vertex -39.2375 6 0
      vertex -46.4764 3.33854 0
      vertex -46.2443 3.01403 0
    endloop
  endfacet
  facet normal -0 0 1
    outer loop
      vertex -47.2375 6 0
      vertex -46.4764 3.33854 0
      vertex -39.2375 6 0
    endloop
  endfacet
  facet normal 0 0 1
    outer loop
      vertex -46.4764 3.33854 0
      vertex -47.2375 6 0
      vertex -46.7317 3.64523 0
    endloop
  endfacet
  facet normal 0 0 1
    outer loop
      vertex -46.7317 3.64523 0
      vertex -47.2375 6 0
      vertex -47.0086 3.93247 0
    endloop
  endfacet
  facet normal 0 0 1
    outer loop
      vertex -47.0086 3.93247 0
      vertex -47.2375 6 0
      vertex -47.2375 4.13755 0
    endloop
  endfacet
  facet normal -0 0 1
    outer loop
      vertex -45.3521 -0.398736 0
      vertex -39.2375 -6 0
      vertex -45.3375 0 0
    endloop
  endfacet
  facet normal -0 0 1
    outer loop
      vertex -45.3957 -0.795346 0
      vertex -39.2375 -6 0
      vertex -45.3521 -0.398736 0
    endloop
  endfacet
  facet normal -0 0 1
    outer loop
      vertex -45.4682 -1.18771 0
      vertex -39.2375 -6 0
      vertex -45.3957 -0.795346 0
    endloop
  endfacet
  facet normal -0 0 1
    outer loop
      vertex -45.5691 -1.57374 0
      vertex -39.2375 -6 0
      vertex -45.4682 -1.18771 0
    endloop
  endfacet
  facet normal -0 0 1
    outer loop
      vertex -45.6979 -1.95137 0
      vertex -39.2375 -6 0
      vertex -45.5691 -1.57374 0
    endloop
  endfacet
  facet normal -0 0 1
    outer loop
      vertex -45.854 -2.31859 0
      vertex -39.2375 -6 0
      vertex -45.6979 -1.95137 0
    endloop
  endfacet
  facet normal -0 0 1
    outer loop
      vertex -46.0364 -2.67344 0
      vertex -39.2375 -6 0
      vertex -45.854 -2.31859 0
    endloop
  endfacet
  facet normal -0 0 1
    outer loop
      vertex -46.2443 -3.01403 0
      vertex -39.2375 -6 0
      vertex -46.0364 -2.67344 0
    endloop
  endfacet
  facet normal -0 0 1
    outer loop
      vertex -46.4764 -3.33854 0
      vertex -39.2375 -6 0
      vertex -46.2443 -3.01403 0
    endloop
  endfacet
  facet normal 0 0 1
    outer loop
      vertex -47.2375 -6 0
      vertex -46.4764 -3.33854 0
      vertex -46.7317 -3.64523 0
    endloop
  endfacet
  facet normal 0 0 1
    outer loop
      vertex -47.2375 -6 0
      vertex -46.7317 -3.64523 0
      vertex -47.0086 -3.93247 0
    endloop
  endfacet
  facet normal 0 0 1
    outer loop
      vertex -47.2375 -6 0
      vertex -47.0086 -3.93247 0
      vertex -47.2375 -4.13755 0
    endloop
  endfacet
  facet normal 0 0 1
    outer loop
      vertex -46.4764 -3.33854 0
      vertex -47.2375 -6 0
      vertex -39.2375 -6 0
    endloop
  endfacet
  facet normal 0 0 1
    outer loop
      vertex 47.2375 6 0
      vertex 47.0086 3.93247 0
      vertex 47.2375 4.13755 0
    endloop
  endfacet
  facet normal 0 0 1
    outer loop
      vertex 47.2375 6 0
      vertex 46.7317 3.64523 0
      vertex 47.0086 3.93247 0
    endloop
  endfacet
  facet normal 0 0 1
    outer loop
      vertex 47.2375 6 0
      vertex 46.4764 3.33854 0
      vertex 46.7317 3.64523 0
    endloop
  endfacet
  facet normal 0 0 1
    outer loop
      vertex 47.2375 6 0
      vertex 46.2443 3.01403 0
      vertex 46.4764 3.33854 0
    endloop
  endfacet
  facet normal 0 0 1
    outer loop
      vertex 47.2375 6 0
      vertex 46.0364 2.67344 0
      vertex 46.2443 3.01403 0
    endloop
  endfacet
  facet normal 0 0 1
    outer loop
      vertex 47.2375 6 0
      vertex 45.854 2.31859 0
      vertex 46.0364 2.67344 0
    endloop
  endfacet
  facet normal -0 0 1
    outer loop
      vertex -22.2375 6 0
      vertex 45.854 2.31859 0
      vertex 47.2375 6 0
    endloop
  endfacet
  facet normal 0 0 1
    outer loop
      vertex 45.3521 0.398736 0
      vertex -22.2375 6 0
      vertex 45.3375 0 0
    endloop
  endfacet
  facet normal 0 0 1
    outer loop
      vertex 45.3957 0.795346 0
      vertex -22.2375 6 0
      vertex 45.3521 0.398736 0
    endloop
  endfacet
  facet normal 0 0 1
    outer loop
      vertex 45.4682 1.18771 0
      vertex -22.2375 6 0
      vertex 45.3957 0.795346 0
    endloop
  endfacet
  facet normal 0 0 1
    outer loop
      vertex 45.5691 1.57374 0
      vertex -22.2375 6 0
      vertex 45.4682 1.18771 0
    endloop
  endfacet
  facet normal 0 0 1
    outer loop
      vertex 45.6979 1.95137 0
      vertex -22.2375 6 0
      vertex 45.5691 1.57374 0
    endloop
  endfacet
  facet normal 0 0 1
    outer loop
      vertex 45.854 2.31859 0
      vertex -22.2375 6 0
      vertex 45.6979 1.95137 0
    endloop
  endfacet
  facet normal 0 0 1
    outer loop
      vertex 47.0086 -3.93247 0
      vertex 47.2375 -6 0
      vertex 47.2375 -4.13755 0
    endloop
  endfacet
  facet normal 0 0 1
    outer loop
      vertex 46.7317 -3.64523 0
      vertex 47.2375 -6 0
      vertex 47.0086 -3.93247 0
    endloop
  endfacet
  facet normal 0 0 1
    outer loop
      vertex 46.4764 -3.33854 0
      vertex 47.2375 -6 0
      vertex 46.7317 -3.64523 0
    endloop
  endfacet
  facet normal 0 0 1
    outer loop
      vertex 46.2443 -3.01403 0
      vertex 47.2375 -6 0
      vertex 46.4764 -3.33854 0
    endloop
  endfacet
  facet normal 0 0 1
    outer loop
      vertex 46.0364 -2.67344 0
      vertex 47.2375 -6 0
      vertex 46.2443 -3.01403 0
    endloop
  endfacet
  facet normal 0 0 1
    outer loop
      vertex 45.854 -2.31859 0
      vertex 47.2375 -6 0
      vertex 46.0364 -2.67344 0
    endloop
  endfacet
  facet normal 0 0 1
    outer loop
      vertex -22.2375 -6 0
      vertex 45.854 -2.31859 0
      vertex 45.6979 -1.95137 0
    endloop
  endfacet
  facet normal 0 0 1
    outer loop
      vertex -22.2375 -6 0
      vertex 45.3375 0 0
      vertex -22.2375 6 0
    endloop
  endfacet
  facet normal 0 0 1
    outer loop
      vertex 45.3375 0 0
      vertex -22.2375 -6 0
      vertex 45.3521 -0.398736 0
    endloop
  endfacet
  facet normal 0 0 1
    outer loop
      vertex 45.3521 -0.398736 0
      vertex -22.2375 -6 0
      vertex 45.3957 -0.795346 0
    endloop
  endfacet
  facet normal 0 0 1
    outer loop
      vertex 45.3957 -0.795346 0
      vertex -22.2375 -6 0
      vertex 45.4682 -1.18771 0
    endloop
  endfacet
  facet normal 0 0 1
    outer loop
      vertex 45.4682 -1.18771 0
      vertex -22.2375 -6 0
      vertex 45.5691 -1.57374 0
    endloop
  endfacet
  facet normal 0 0 1
    outer loop
      vertex 45.5691 -1.57374 0
      vertex -22.2375 -6 0
      vertex 45.6979 -1.95137 0
    endloop
  endfacet
  facet normal 0 0 1
    outer loop
      vertex 45.854 -2.31859 0
      vertex -22.2375 -6 0
      vertex 47.2375 -6 0
    endloop
  endfacet
  facet normal -0 0 1
    outer loop
      vertex -36.2375 6 0
      vertex -32.2375 -6 0
      vertex -32.2375 6 0
    endloop
  endfacet
  facet normal 0 0 1
    outer loop
      vertex -32.2375 -6 0
      vertex -36.2375 6 0
      vertex -36.2375 -6 0
    endloop
  endfacet
  facet normal -0 0 1
    outer loop
      vertex -29.2375 6 0
      vertex -25.2375 -6 0
      vertex -25.2375 6 0
    endloop
  endfacet
  facet normal 0 0 1
    outer loop
      vertex -25.2375 -6 0
      vertex -29.2375 6 0
      vertex -29.2375 -6 0
    endloop
  endfacet
  facet normal 0 0 -1
    outer loop
      vertex -46.7375 -6 -6
      vertex -47.0086 -3.93247 -6
      vertex -46.7375 -3.65126 -6
    endloop
  endfacet
  facet normal 0 0 -1
    outer loop
      vertex -47.2375 -4.13755 -6
      vertex -46.7375 -6 -6
      vertex -47.2375 -6 -6
    endloop
  endfacet
  facet normal 0 0 -1
    outer loop
      vertex -46.7375 -6 -6
      vertex -47.2375 -4.13755 -6
      vertex -47.0086 -3.93247 -6
    endloop
  endfacet
  facet normal 0 0 -1
    outer loop
      vertex 46.7375 -6 -6
      vertex 47.2375 -4.13755 -6
      vertex 47.2375 -6 -6
    endloop
  endfacet
  facet normal -0 0 -1
    outer loop
      vertex 47.2375 -4.13755 -6
      vertex 46.7375 -6 -6
      vertex 47.0086 -3.93247 -6
    endloop
  endfacet
  facet normal -0 0 -1
    outer loop
      vertex 47.0086 -3.93247 -6
      vertex 46.7375 -6 -6
      vertex 46.7375 -3.65126 -6
    endloop
  endfacet
  facet normal 0 0 -1
    outer loop
      vertex -47.0086 3.93247 -6
      vertex -46.7375 6 -6
      vertex -46.7375 3.65126 -6
    endloop
  endfacet
  facet normal 0 0 -1
    outer loop
      vertex -47.2375 4.13755 -6
      vertex -46.7375 6 -6
      vertex -47.0086 3.93247 -6
    endloop
  endfacet
  facet normal -0 0 -1
    outer loop
      vertex -46.7375 6 -6
      vertex -47.2375 4.13755 -6
      vertex -47.2375 6 -6
    endloop
  endfacet
  facet normal 0 0 -1
    outer loop
      vertex 46.7375 6 -6
      vertex 47.2375 4.13755 -6
      vertex 47.0086 3.93247 -6
    endloop
  endfacet
  facet normal 0 0 -1
    outer loop
      vertex 46.7375 6 -6
      vertex 47.0086 3.93247 -6
      vertex 46.7375 3.65126 -6
    endloop
  endfacet
  facet normal 0 0 -1
    outer loop
      vertex 47.2375 4.13755 -6
      vertex 46.7375 6 -6
      vertex 47.2375 6 -6
    endloop
  endfacet
  facet normal 1 -0 0
    outer loop
      vertex 46.7375 3.65126 -6
      vertex 46.7375 6 -25.3
      vertex 46.7375 6 -6
    endloop
  endfacet
  facet normal 1 0 0
    outer loop
      vertex 46.7375 6 -25.3
      vertex 46.7375 3.65126 -6
      vertex 46.7375 3.65126 -25.3
    endloop
  endfacet
  facet normal 1 -0 0
    outer loop
      vertex 46.7375 -6 -6
      vertex 46.7375 -3.65126 -25.3
      vertex 46.7375 -3.65126 -6
    endloop
  endfacet
  facet normal 1 0 0
    outer loop
      vertex 46.7375 -3.65126 -25.3
      vertex 46.7375 -6 -6
      vertex 46.7375 -6 -25.3
    endloop
  endfacet
  facet normal 0 0 -1
    outer loop
      vertex -34.532 -6 -25.3
      vertex -45.3375 0 -25.3
      vertex -34.532 6 -25.3
    endloop
  endfacet
  facet normal 0 0 -1
    outer loop
      vertex -34.532 -6 -25.3
      vertex -45.3521 -0.398736 -25.3
      vertex -45.3375 0 -25.3
    endloop
  endfacet
  facet normal 0 0 -1
    outer loop
      vertex -34.532 -6 -25.3
      vertex -45.3957 -0.795346 -25.3
      vertex -45.3521 -0.398736 -25.3
    endloop
  endfacet
  facet normal 0 0 -1
    outer loop
      vertex -34.532 -6 -25.3
      vertex -45.4682 -1.18771 -25.3
      vertex -45.3957 -0.795346 -25.3
    endloop
  endfacet
  facet normal 0 0 -1
    outer loop
      vertex -34.532 -6 -25.3
      vertex -45.5691 -1.57374 -25.3
      vertex -45.4682 -1.18771 -25.3
    endloop
  endfacet
  facet normal 0 0 -1
    outer loop
      vertex -34.532 -6 -25.3
      vertex -45.6979 -1.95137 -25.3
      vertex -45.5691 -1.57374 -25.3
    endloop
  endfacet
  facet normal 0 0 -1
    outer loop
      vertex -34.532 -6 -25.3
      vertex -45.854 -2.31859 -25.3
      vertex -45.6979 -1.95137 -25.3
    endloop
  endfacet
  facet normal 0 0 -1
    outer loop
      vertex -34.532 -6 -25.3
      vertex -46.0364 -2.67344 -25.3
      vertex -45.854 -2.31859 -25.3
    endloop
  endfacet
  facet normal 0 0 -1
    outer loop
      vertex -46.7375 -6 -25.3
      vertex -46.0364 -2.67344 -25.3
      vertex -34.532 -6 -25.3
    endloop
  endfacet
  facet normal 0 0 -1
    outer loop
      vertex -46.0364 -2.67344 -25.3
      vertex -46.7375 -6 -25.3
      vertex -46.2443 -3.01403 -25.3
    endloop
  endfacet
  facet normal 0 0 -1
    outer loop
      vertex -46.2443 -3.01403 -25.3
      vertex -46.7375 -6 -25.3
      vertex -46.4764 -3.33854 -25.3
    endloop
  endfacet
  facet normal 0 0 -1
    outer loop
      vertex -46.4764 -3.33854 -25.3
      vertex -46.7375 -6 -25.3
      vertex -46.7317 -3.64523 -25.3
    endloop
  endfacet
  facet normal 0 0 -1
    outer loop
      vertex -46.7317 -3.64523 -25.3
      vertex -46.7375 -6 -25.3
      vertex -46.7375 -3.65126 -25.3
    endloop
  endfacet
  facet normal 0 0 -1
    outer loop
      vertex -45.3521 0.398736 -25.3
      vertex -34.532 6 -25.3
      vertex -45.3375 0 -25.3
    endloop
  endfacet
  facet normal 0 0 -1
    outer loop
      vertex -45.3957 0.795346 -25.3
      vertex -34.532 6 -25.3
      vertex -45.3521 0.398736 -25.3
    endloop
  endfacet
  facet normal 0 0 -1
    outer loop
      vertex -45.4682 1.18771 -25.3
      vertex -34.532 6 -25.3
      vertex -45.3957 0.795346 -25.3
    endloop
  endfacet
  facet normal 0 0 -1
    outer loop
      vertex -45.5691 1.57374 -25.3
      vertex -34.532 6 -25.3
      vertex -45.4682 1.18771 -25.3
    endloop
  endfacet
  facet normal 0 0 -1
    outer loop
      vertex -45.6979 1.95137 -25.3
      vertex -34.532 6 -25.3
      vertex -45.5691 1.57374 -25.3
    endloop
  endfacet
  facet normal 0 0 -1
    outer loop
      vertex -45.854 2.31859 -25.3
      vertex -34.532 6 -25.3
      vertex -45.6979 1.95137 -25.3
    endloop
  endfacet
  facet normal 0 0 -1
    outer loop
      vertex -46.0364 2.67344 -25.3
      vertex -34.532 6 -25.3
      vertex -45.854 2.31859 -25.3
    endloop
  endfacet
  facet normal 0 0 -1
    outer loop
      vertex -46.7375 6 -25.3
      vertex -46.0364 2.67344 -25.3
      vertex -46.2443 3.01403 -25.3
    endloop
  endfacet
  facet normal 0 0 -1
    outer loop
      vertex -46.7375 6 -25.3
      vertex -46.2443 3.01403 -25.3
      vertex -46.4764 3.33854 -25.3
    endloop
  endfacet
  facet normal 0 0 -1
    outer loop
      vertex -46.7375 6 -25.3
      vertex -46.4764 3.33854 -25.3
      vertex -46.7317 3.64523 -25.3
    endloop
  endfacet
  facet normal 0 0 -1
    outer loop
      vertex -46.7375 6 -25.3
      vertex -46.7317 3.64523 -25.3
      vertex -46.7375 3.65126 -25.3
    endloop
  endfacet
  facet normal 0 0 -1
    outer loop
      vertex -46.0364 2.67344 -25.3
      vertex -46.7375 6 -25.3
      vertex -34.532 6 -25.3
    endloop
  endfacet
  facet normal 0 0 -1
    outer loop
      vertex 46.7375 -6 -25.3
      vertex 46.7317 -3.64523 -25.3
      vertex 46.7375 -3.65126 -25.3
    endloop
  endfacet
  facet normal 0 0 -1
    outer loop
      vertex 46.7375 -6 -25.3
      vertex 46.4764 -3.33854 -25.3
      vertex 46.7317 -3.64523 -25.3
    endloop
  endfacet
  facet normal 0 0 -1
    outer loop
      vertex 46.7375 -6 -25.3
      vertex 46.2443 -3.01403 -25.3
      vertex 46.4764 -3.33854 -25.3
    endloop
  endfacet
  facet normal 0 0 -1
    outer loop
      vertex 46.7375 -6 -25.3
      vertex 46.0364 -2.67344 -25.3
      vertex 46.2443 -3.01403 -25.3
    endloop
  endfacet
  facet normal 0 0 -1
    outer loop
      vertex 36.5495 -6 -25.3
      vertex 46.0364 -2.67344 -25.3
      vertex 46.7375 -6 -25.3
    endloop
  endfacet
  facet normal -0 0 -1
    outer loop
      vertex 46.0364 -2.67344 -25.3
      vertex 36.5495 -6 -25.3
      vertex 45.854 -2.31859 -25.3
    endloop
  endfacet
  facet normal -0 0 -1
    outer loop
      vertex 45.854 -2.31859 -25.3
      vertex 36.5495 -6 -25.3
      vertex 45.6979 -1.95137 -25.3
    endloop
  endfacet
  facet normal -0 0 -1
    outer loop
      vertex 45.3521 -0.398736 -25.3
      vertex 36.5495 -6 -25.3
      vertex 45.3375 0 -25.3
    endloop
  endfacet
  facet normal -0 0 -1
    outer loop
      vertex 45.3957 -0.795346 -25.3
      vertex 36.5495 -6 -25.3
      vertex 45.3521 -0.398736 -25.3
    endloop
  endfacet
  facet normal -0 0 -1
    outer loop
      vertex 45.4682 -1.18771 -25.3
      vertex 36.5495 -6 -25.3
      vertex 45.3957 -0.795346 -25.3
    endloop
  endfacet
  facet normal -0 0 -1
    outer loop
      vertex 45.5691 -1.57374 -25.3
      vertex 36.5495 -6 -25.3
      vertex 45.4682 -1.18771 -25.3
    endloop
  endfacet
  facet normal -0 0 -1
    outer loop
      vertex 45.6979 -1.95137 -25.3
      vertex 36.5495 -6 -25.3
      vertex 45.5691 -1.57374 -25.3
    endloop
  endfacet
  facet normal 0 0 -1
    outer loop
      vertex 46.7317 3.64523 -25.3
      vertex 46.7375 6 -25.3
      vertex 46.7375 3.65126 -25.3
    endloop
  endfacet
  facet normal 0 0 -1
    outer loop
      vertex 46.4764 3.33854 -25.3
      vertex 46.7375 6 -25.3
      vertex 46.7317 3.64523 -25.3
    endloop
  endfacet
  facet normal 0 0 -1
    outer loop
      vertex 46.2443 3.01403 -25.3
      vertex 46.7375 6 -25.3
      vertex 46.4764 3.33854 -25.3
    endloop
  endfacet
  facet normal 0 0 -1
    outer loop
      vertex 46.0364 2.67344 -25.3
      vertex 46.7375 6 -25.3
      vertex 46.2443 3.01403 -25.3
    endloop
  endfacet
  facet normal 0 0 -1
    outer loop
      vertex 36.5495 6 -25.3
      vertex 46.0364 2.67344 -25.3
      vertex 45.854 2.31859 -25.3
    endloop
  endfacet
  facet normal 0 0 -1
    outer loop
      vertex 36.5495 6 -25.3
      vertex 45.854 2.31859 -25.3
      vertex 45.6979 1.95137 -25.3
    endloop
  endfacet
  facet normal 0 0 -1
    outer loop
      vertex 36.5495 6 -25.3
      vertex 45.6979 1.95137 -25.3
      vertex 45.5691 1.57374 -25.3
    endloop
  endfacet
  facet normal 0 0 -1
    outer loop
      vertex 36.5495 6 -25.3
      vertex 45.3375 0 -25.3
      vertex 36.5495 -6 -25.3
    endloop
  endfacet
  facet normal 0 0 -1
    outer loop
      vertex 45.3375 0 -25.3
      vertex 36.5495 6 -25.3
      vertex 45.3521 0.398736 -25.3
    endloop
  endfacet
  facet normal 0 0 -1
    outer loop
      vertex 45.3521 0.398736 -25.3
      vertex 36.5495 6 -25.3
      vertex 45.3957 0.795346 -25.3
    endloop
  endfacet
  facet normal 0 0 -1
    outer loop
      vertex 45.3957 0.795346 -25.3
      vertex 36.5495 6 -25.3
      vertex 45.4682 1.18771 -25.3
    endloop
  endfacet
  facet normal 0 0 -1
    outer loop
      vertex 45.4682 1.18771 -25.3
      vertex 36.5495 6 -25.3
      vertex 45.5691 1.57374 -25.3
    endloop
  endfacet
  facet normal 0 0 -1
    outer loop
      vertex 46.0364 2.67344 -25.3
      vertex 36.5495 6 -25.3
      vertex 46.7375 6 -25.3
    endloop
  endfacet
  facet normal -1 0 0
    outer loop
      vertex -46.7375 3.65126 -25.3
      vertex -46.7375 6 -6
      vertex -46.7375 6 -25.3
    endloop
  endfacet
  facet normal -1 -0 0
    outer loop
      vertex -46.7375 6 -6
      vertex -46.7375 3.65126 -25.3
      vertex -46.7375 3.65126 -6
    endloop
  endfacet
  facet normal -1 0 0
    outer loop
      vertex -46.7375 -6 -25.3
      vertex -46.7375 -3.65126 -6
      vertex -46.7375 -3.65126 -25.3
    endloop
  endfacet
  facet normal -1 -0 0
    outer loop
      vertex -46.7375 -3.65126 -6
      vertex -46.7375 -6 -25.3
      vertex -46.7375 -6 -6
    endloop
  endfacet
  facet normal 0.920302 0.391208 0
    outer loop
      vertex 45.854 -2.31859 0
      vertex 45.6979 -1.95137 -25.3
      vertex 45.6979 -1.95137 0
    endloop
  endfacet
  facet normal 0.920302 0.391208 0
    outer loop
      vertex 45.6979 -1.95137 -25.3
      vertex 45.854 -2.31859 0
      vertex 45.854 -2.31859 -25.3
    endloop
  endfacet
  facet normal 0.946462 0.322814 0
    outer loop
      vertex 45.6979 -1.95137 0
      vertex 45.5691 -1.57374 -25.3
      vertex 45.5691 -1.57374 0
    endloop
  endfacet
  facet normal 0.946462 0.322814 0
    outer loop
      vertex 45.5691 -1.57374 -25.3
      vertex 45.6979 -1.95137 0
      vertex 45.6979 -1.95137 -25.3
    endloop
  endfacet
  facet normal 0.983354 0.181702 0
    outer loop
      vertex 45.4682 -1.18771 0
      vertex 45.3957 -0.795346 -25.3
      vertex 45.3957 -0.795346 0
    endloop
  endfacet
  facet normal 0.983354 0.181702 0
    outer loop
      vertex 45.3957 -0.795346 -25.3
      vertex 45.4682 -1.18771 0
      vertex 45.4682 -1.18771 -25.3
    endloop
  endfacet
  facet normal 0.853547 -0.521015 0
    outer loop
      vertex 46.0364 2.67344 0
      vertex 46.2443 3.01403 -25.3
      vertex 46.2443 3.01403 0
    endloop
  endfacet
  facet normal 0.853547 -0.521015 0
    outer loop
      vertex 46.2443 3.01403 -25.3
      vertex 46.0364 2.67344 0
      vertex 46.0364 2.67344 -25.3
    endloop
  endfacet
  facet normal 0.71993 -0.694047 0
    outer loop
      vertex 47.0086 3.93247 0
      vertex 46.7375 3.65126 -6
      vertex 47.0086 3.93247 -6
    endloop
  endfacet
  facet normal 0.719946 -0.69403 -1.5519e-06
    outer loop
      vertex 46.7317 3.64523 0
      vertex 46.7375 3.65126 -6
      vertex 47.0086 3.93247 0
    endloop
  endfacet
  facet normal 0.720718 -0.693228 0
    outer loop
      vertex 46.7317 3.64523 -25.3
      vertex 46.7375 3.65126 -6
      vertex 46.7317 3.64523 0
    endloop
  endfacet
  facet normal 0.720718 -0.693228 0
    outer loop
      vertex 46.7375 3.65126 -6
      vertex 46.7317 3.64523 -25.3
      vertex 46.7375 3.65126 -25.3
    endloop
  endfacet
  facet normal 0.813369 -0.581748 0
    outer loop
      vertex 46.2443 3.01403 0
      vertex 46.4764 3.33854 -25.3
      vertex 46.4764 3.33854 0
    endloop
  endfacet
  facet normal 0.813369 -0.581748 0
    outer loop
      vertex 46.4764 3.33854 -25.3
      vertex 46.2443 3.01403 0
      vertex 46.2443 3.01403 -25.3
    endloop
  endfacet
  facet normal 0.889384 0.457161 0
    outer loop
      vertex 46.0364 -2.67344 0
      vertex 45.854 -2.31859 -25.3
      vertex 45.854 -2.31859 0
    endloop
  endfacet
  facet normal 0.889384 0.457161 0
    outer loop
      vertex 45.854 -2.31859 -25.3
      vertex 46.0364 -2.67344 0
      vertex 46.0364 -2.67344 -25.3
    endloop
  endfacet
  facet normal 0.76856 -0.639778 0
    outer loop
      vertex 46.4764 3.33854 0
      vertex 46.7317 3.64523 -25.3
      vertex 46.7317 3.64523 0
    endloop
  endfacet
  facet normal 0.76856 -0.639778 0
    outer loop
      vertex 46.7317 3.64523 -25.3
      vertex 46.4764 3.33854 0
      vertex 46.4764 3.33854 -25.3
    endloop
  endfacet
  facet normal 0.667291 -0.744797 0
    outer loop
      vertex 47.0086 3.93247 -6
      vertex 47.2375 4.13755 0
      vertex 47.0086 3.93247 0
    endloop
  endfacet
  facet normal 0.667291 -0.744797 0
    outer loop
      vertex 47.2375 4.13755 0
      vertex 47.0086 3.93247 -6
      vertex 47.2375 4.13755 -6
    endloop
  endfacet
  facet normal 0.667291 0.744797 -0
    outer loop
      vertex 47.2375 -4.13755 -6
      vertex 47.0086 -3.93247 0
      vertex 47.2375 -4.13755 0
    endloop
  endfacet
  facet normal 0.667291 0.744797 0
    outer loop
      vertex 47.0086 -3.93247 0
      vertex 47.2375 -4.13755 -6
      vertex 47.0086 -3.93247 -6
    endloop
  endfacet
  facet normal 0.967497 0.252883 0
    outer loop
      vertex 45.5691 -1.57374 0
      vertex 45.4682 -1.18771 -25.3
      vertex 45.4682 -1.18771 0
    endloop
  endfacet
  facet normal 0.967497 0.252883 0
    outer loop
      vertex 45.4682 -1.18771 -25.3
      vertex 45.5691 -1.57374 0
      vertex 45.5691 -1.57374 -25.3
    endloop
  endfacet
  facet normal 0.983354 -0.181702 0
    outer loop
      vertex 45.3957 0.795346 0
      vertex 45.4682 1.18771 -25.3
      vertex 45.4682 1.18771 0
    endloop
  endfacet
  facet normal 0.983354 -0.181702 0
    outer loop
      vertex 45.4682 1.18771 -25.3
      vertex 45.3957 0.795346 0
      vertex 45.3957 0.795346 -25.3
    endloop
  endfacet
  facet normal 0.813369 0.581748 0
    outer loop
      vertex 46.4764 -3.33854 0
      vertex 46.2443 -3.01403 -25.3
      vertex 46.2443 -3.01403 0
    endloop
  endfacet
  facet normal 0.813369 0.581748 0
    outer loop
      vertex 46.2443 -3.01403 -25.3
      vertex 46.4764 -3.33854 0
      vertex 46.4764 -3.33854 -25.3
    endloop
  endfacet
  facet normal 0.99933 0.0365912 0
    outer loop
      vertex 45.3521 -0.398736 0
      vertex 45.3375 0 -25.3
      vertex 45.3375 0 0
    endloop
  endfacet
  facet normal 0.99933 0.0365912 0
    outer loop
      vertex 45.3375 0 -25.3
      vertex 45.3521 -0.398736 0
      vertex 45.3521 -0.398736 -25.3
    endloop
  endfacet
  facet normal 0.994012 0.109273 0
    outer loop
      vertex 45.3957 -0.795346 0
      vertex 45.3521 -0.398736 -25.3
      vertex 45.3521 -0.398736 0
    endloop
  endfacet
  facet normal 0.994012 0.109273 0
    outer loop
      vertex 45.3521 -0.398736 -25.3
      vertex 45.3957 -0.795346 0
      vertex 45.3957 -0.795346 -25.3
    endloop
  endfacet
  facet normal 0.946462 -0.322814 0
    outer loop
      vertex 45.5691 1.57374 0
      vertex 45.6979 1.95137 -25.3
      vertex 45.6979 1.95137 0
    endloop
  endfacet
  facet normal 0.946462 -0.322814 0
    outer loop
      vertex 45.6979 1.95137 -25.3
      vertex 45.5691 1.57374 0
      vertex 45.5691 1.57374 -25.3
    endloop
  endfacet
  facet normal 0.99933 -0.0365912 0
    outer loop
      vertex 45.3375 0 0
      vertex 45.3521 0.398736 -25.3
      vertex 45.3521 0.398736 0
    endloop
  endfacet
  facet normal 0.99933 -0.0365912 0
    outer loop
      vertex 45.3521 0.398736 -25.3
      vertex 45.3375 0 0
      vertex 45.3375 0 -25.3
    endloop
  endfacet
  facet normal 0.967497 -0.252883 0
    outer loop
      vertex 45.4682 1.18771 0
      vertex 45.5691 1.57374 -25.3
      vertex 45.5691 1.57374 0
    endloop
  endfacet
  facet normal 0.967497 -0.252883 0
    outer loop
      vertex 45.5691 1.57374 -25.3
      vertex 45.4682 1.18771 0
      vertex 45.4682 1.18771 -25.3
    endloop
  endfacet
  facet normal 0.853547 0.521015 0
    outer loop
      vertex 46.2443 -3.01403 0
      vertex 46.0364 -2.67344 -25.3
      vertex 46.0364 -2.67344 0
    endloop
  endfacet
  facet normal 0.853547 0.521015 0
    outer loop
      vertex 46.0364 -2.67344 -25.3
      vertex 46.2443 -3.01403 0
      vertex 46.2443 -3.01403 -25.3
    endloop
  endfacet
  facet normal 0.994012 -0.109273 0
    outer loop
      vertex 45.3521 0.398736 0
      vertex 45.3957 0.795346 -25.3
      vertex 45.3957 0.795346 0
    endloop
  endfacet
  facet normal 0.994012 -0.109273 0
    outer loop
      vertex 45.3957 0.795346 -25.3
      vertex 45.3521 0.398736 0
      vertex 45.3521 0.398736 -25.3
    endloop
  endfacet
  facet normal 0.920302 -0.391208 0
    outer loop
      vertex 45.6979 1.95137 0
      vertex 45.854 2.31859 -25.3
      vertex 45.854 2.31859 0
    endloop
  endfacet
  facet normal 0.920302 -0.391208 0
    outer loop
      vertex 45.854 2.31859 -25.3
      vertex 45.6979 1.95137 0
      vertex 45.6979 1.95137 -25.3
    endloop
  endfacet
  facet normal 0.889384 -0.457161 0
    outer loop
      vertex 45.854 2.31859 0
      vertex 46.0364 2.67344 -25.3
      vertex 46.0364 2.67344 0
    endloop
  endfacet
  facet normal 0.889384 -0.457161 0
    outer loop
      vertex 46.0364 2.67344 -25.3
      vertex 45.854 2.31859 0
      vertex 45.854 2.31859 -25.3
    endloop
  endfacet
  facet normal 0.76856 0.639778 0
    outer loop
      vertex 46.7317 -3.64523 0
      vertex 46.4764 -3.33854 -25.3
      vertex 46.4764 -3.33854 0
    endloop
  endfacet
  facet normal 0.76856 0.639778 0
    outer loop
      vertex 46.4764 -3.33854 -25.3
      vertex 46.7317 -3.64523 0
      vertex 46.7317 -3.64523 -25.3
    endloop
  endfacet
  facet normal 0.720718 0.693228 0
    outer loop
      vertex 46.7317 -3.64523 0
      vertex 46.7375 -3.65126 -6
      vertex 46.7317 -3.64523 -25.3
    endloop
  endfacet
  facet normal 0.719946 0.69403 -1.5519e-06
    outer loop
      vertex 47.0086 -3.93247 0
      vertex 46.7375 -3.65126 -6
      vertex 46.7317 -3.64523 0
    endloop
  endfacet
  facet normal 0.71993 0.694047 0
    outer loop
      vertex 46.7375 -3.65126 -6
      vertex 47.0086 -3.93247 0
      vertex 47.0086 -3.93247 -6
    endloop
  endfacet
  facet normal 0.720718 0.693228 0
    outer loop
      vertex 46.7317 -3.64523 -25.3
      vertex 46.7375 -3.65126 -6
      vertex 46.7375 -3.65126 -25.3
    endloop
  endfacet
  facet normal -0.667291 -0.744797 0
    outer loop
      vertex -47.2375 4.13755 -6
      vertex -47.0086 3.93247 0
      vertex -47.2375 4.13755 0
    endloop
  endfacet
  facet normal -0.667291 -0.744797 -0
    outer loop
      vertex -47.0086 3.93247 0
      vertex -47.2375 4.13755 -6
      vertex -47.0086 3.93247 -6
    endloop
  endfacet
  facet normal -0.994012 -0.109273 0
    outer loop
      vertex -45.3521 0.398736 -25.3
      vertex -45.3957 0.795346 0
      vertex -45.3957 0.795346 -25.3
    endloop
  endfacet
  facet normal -0.994012 -0.109273 0
    outer loop
      vertex -45.3957 0.795346 0
      vertex -45.3521 0.398736 -25.3
      vertex -45.3521 0.398736 0
    endloop
  endfacet
  facet normal -0.99933 -0.0365912 0
    outer loop
      vertex -45.3375 0 -25.3
      vertex -45.3521 0.398736 0
      vertex -45.3521 0.398736 -25.3
    endloop
  endfacet
  facet normal -0.99933 -0.0365912 0
    outer loop
      vertex -45.3521 0.398736 0
      vertex -45.3375 0 -25.3
      vertex -45.3375 0 0
    endloop
  endfacet
  facet normal -0.983354 0.181702 0
    outer loop
      vertex -45.4682 -1.18771 -25.3
      vertex -45.3957 -0.795346 0
      vertex -45.3957 -0.795346 -25.3
    endloop
  endfacet
  facet normal -0.983354 0.181702 0
    outer loop
      vertex -45.3957 -0.795346 0
      vertex -45.4682 -1.18771 -25.3
      vertex -45.4682 -1.18771 0
    endloop
  endfacet
  facet normal -0.99933 0.0365912 0
    outer loop
      vertex -45.3521 -0.398736 -25.3
      vertex -45.3375 0 0
      vertex -45.3375 0 -25.3
    endloop
  endfacet
  facet normal -0.99933 0.0365912 0
    outer loop
      vertex -45.3375 0 0
      vertex -45.3521 -0.398736 -25.3
      vertex -45.3521 -0.398736 0
    endloop
  endfacet
  facet normal -0.920302 -0.391208 0
    outer loop
      vertex -45.6979 1.95137 -25.3
      vertex -45.854 2.31859 0
      vertex -45.854 2.31859 -25.3
    endloop
  endfacet
  facet normal -0.920302 -0.391208 0
    outer loop
      vertex -45.854 2.31859 0
      vertex -45.6979 1.95137 -25.3
      vertex -45.6979 1.95137 0
    endloop
  endfacet
  facet normal -0.920302 0.391208 0
    outer loop
      vertex -45.854 -2.31859 -25.3
      vertex -45.6979 -1.95137 0
      vertex -45.6979 -1.95137 -25.3
    endloop
  endfacet
  facet normal -0.920302 0.391208 0
    outer loop
      vertex -45.6979 -1.95137 0
      vertex -45.854 -2.31859 -25.3
      vertex -45.854 -2.31859 0
    endloop
  endfacet
  facet normal -0.889384 -0.457161 0
    outer loop
      vertex -45.854 2.31859 -25.3
      vertex -46.0364 2.67344 0
      vertex -46.0364 2.67344 -25.3
    endloop
  endfacet
  facet normal -0.889384 -0.457161 0
    outer loop
      vertex -46.0364 2.67344 0
      vertex -45.854 2.31859 -25.3
      vertex -45.854 2.31859 0
    endloop
  endfacet
  facet normal -0.667291 0.744797 0
    outer loop
      vertex -47.0086 -3.93247 -6
      vertex -47.2375 -4.13755 0
      vertex -47.0086 -3.93247 0
    endloop
  endfacet
  facet normal -0.667291 0.744797 0
    outer loop
      vertex -47.2375 -4.13755 0
      vertex -47.0086 -3.93247 -6
      vertex -47.2375 -4.13755 -6
    endloop
  endfacet
  facet normal -0.946462 -0.322814 0
    outer loop
      vertex -45.5691 1.57374 -25.3
      vertex -45.6979 1.95137 0
      vertex -45.6979 1.95137 -25.3
    endloop
  endfacet
  facet normal -0.946462 -0.322814 0
    outer loop
      vertex -45.6979 1.95137 0
      vertex -45.5691 1.57374 -25.3
      vertex -45.5691 1.57374 0
    endloop
  endfacet
  facet normal -0.813369 -0.581748 0
    outer loop
      vertex -46.2443 3.01403 -25.3
      vertex -46.4764 3.33854 0
      vertex -46.4764 3.33854 -25.3
    endloop
  endfacet
  facet normal -0.813369 -0.581748 0
    outer loop
      vertex -46.4764 3.33854 0
      vertex -46.2443 3.01403 -25.3
      vertex -46.2443 3.01403 0
    endloop
  endfacet
  facet normal -0.71993 -0.694047 0
    outer loop
      vertex -46.7375 3.65126 -6
      vertex -47.0086 3.93247 0
      vertex -47.0086 3.93247 -6
    endloop
  endfacet
  facet normal -0.719946 -0.69403 -1.5519e-06
    outer loop
      vertex -46.7375 3.65126 -6
      vertex -46.7317 3.64523 0
      vertex -47.0086 3.93247 0
    endloop
  endfacet
  facet normal -0.720718 -0.693228 -0
    outer loop
      vertex -46.7317 3.64523 0
      vertex -46.7375 3.65126 -6
      vertex -46.7317 3.64523 -25.3
    endloop
  endfacet
  facet normal -0.720718 -0.693228 0
    outer loop
      vertex -46.7375 3.65126 -25.3
      vertex -46.7317 3.64523 -25.3
      vertex -46.7375 3.65126 -6
    endloop
  endfacet
  facet normal -0.946462 0.322814 0
    outer loop
      vertex -45.6979 -1.95137 -25.3
      vertex -45.5691 -1.57374 0
      vertex -45.5691 -1.57374 -25.3
    endloop
  endfacet
  facet normal -0.946462 0.322814 0
    outer loop
      vertex -45.5691 -1.57374 0
      vertex -45.6979 -1.95137 -25.3
      vertex -45.6979 -1.95137 0
    endloop
  endfacet
  facet normal -0.76856 -0.639778 0
    outer loop
      vertex -46.4764 3.33854 -25.3
      vertex -46.7317 3.64523 0
      vertex -46.7317 3.64523 -25.3
    endloop
  endfacet
  facet normal -0.76856 -0.639778 0
    outer loop
      vertex -46.7317 3.64523 0
      vertex -46.4764 3.33854 -25.3
      vertex -46.4764 3.33854 0
    endloop
  endfacet
  facet normal -0.853547 -0.521015 0
    outer loop
      vertex -46.0364 2.67344 -25.3
      vertex -46.2443 3.01403 0
      vertex -46.2443 3.01403 -25.3
    endloop
  endfacet
  facet normal -0.853547 -0.521015 0
    outer loop
      vertex -46.2443 3.01403 0
      vertex -46.0364 2.67344 -25.3
      vertex -46.0364 2.67344 0
    endloop
  endfacet
  facet normal -0.994012 0.109273 0
    outer loop
      vertex -45.3957 -0.795346 -25.3
      vertex -45.3521 -0.398736 0
      vertex -45.3521 -0.398736 -25.3
    endloop
  endfacet
  facet normal -0.994012 0.109273 0
    outer loop
      vertex -45.3521 -0.398736 0
      vertex -45.3957 -0.795346 -25.3
      vertex -45.3957 -0.795346 0
    endloop
  endfacet
  facet normal -0.853547 0.521015 0
    outer loop
      vertex -46.2443 -3.01403 -25.3
      vertex -46.0364 -2.67344 0
      vertex -46.0364 -2.67344 -25.3
    endloop
  endfacet
  facet normal -0.853547 0.521015 0
    outer loop
      vertex -46.0364 -2.67344 0
      vertex -46.2443 -3.01403 -25.3
      vertex -46.2443 -3.01403 0
    endloop
  endfacet
  facet normal -0.720718 0.693228 0
    outer loop
      vertex -46.7375 -3.65126 -6
      vertex -46.7317 -3.64523 -25.3
      vertex -46.7375 -3.65126 -25.3
    endloop
  endfacet
  facet normal -0.720718 0.693228 0
    outer loop
      vertex -46.7317 -3.64523 -25.3
      vertex -46.7375 -3.65126 -6
      vertex -46.7317 -3.64523 0
    endloop
  endfacet
  facet normal -0.71993 0.694047 -1.58514e-06
    outer loop
      vertex -47.0086 -3.93247 -6
      vertex -46.7317 -3.64523 0
      vertex -46.7375 -3.65126 -6
    endloop
  endfacet
  facet normal -0.719946 0.69403 0
    outer loop
      vertex -46.7317 -3.64523 0
      vertex -47.0086 -3.93247 -6
      vertex -47.0086 -3.93247 0
    endloop
  endfacet
  facet normal -0.889384 0.457161 0
    outer loop
      vertex -46.0364 -2.67344 -25.3
      vertex -45.854 -2.31859 0
      vertex -45.854 -2.31859 -25.3
    endloop
  endfacet
  facet normal -0.889384 0.457161 0
    outer loop
      vertex -45.854 -2.31859 0
      vertex -46.0364 -2.67344 -25.3
      vertex -46.0364 -2.67344 0
    endloop
  endfacet
  facet normal -0.967497 0.252883 0
    outer loop
      vertex -45.5691 -1.57374 -25.3
      vertex -45.4682 -1.18771 0
      vertex -45.4682 -1.18771 -25.3
    endloop
  endfacet
  facet normal -0.967497 0.252883 0
    outer loop
      vertex -45.4682 -1.18771 0
      vertex -45.5691 -1.57374 -25.3
      vertex -45.5691 -1.57374 0
    endloop
  endfacet
  facet normal -0.967497 -0.252883 0
    outer loop
      vertex -45.4682 1.18771 -25.3
      vertex -45.5691 1.57374 0
      vertex -45.5691 1.57374 -25.3
    endloop
  endfacet
  facet normal -0.967497 -0.252883 0
    outer loop
      vertex -45.5691 1.57374 0
      vertex -45.4682 1.18771 -25.3
      vertex -45.4682 1.18771 0
    endloop
  endfacet
  facet normal -0.983354 -0.181702 0
    outer loop
      vertex -45.3957 0.795346 -25.3
      vertex -45.4682 1.18771 0
      vertex -45.4682 1.18771 -25.3
    endloop
  endfacet
  facet normal -0.983354 -0.181702 0
    outer loop
      vertex -45.4682 1.18771 0
      vertex -45.3957 0.795346 -25.3
      vertex -45.3957 0.795346 0
    endloop
  endfacet
  facet normal -0.76856 0.639778 0
    outer loop
      vertex -46.7317 -3.64523 -25.3
      vertex -46.4764 -3.33854 0
      vertex -46.4764 -3.33854 -25.3
    endloop
  endfacet
  facet normal -0.76856 0.639778 0
    outer loop
      vertex -46.4764 -3.33854 0
      vertex -46.7317 -3.64523 -25.3
      vertex -46.7317 -3.64523 0
    endloop
  endfacet
  facet normal -0.813369 0.581748 0
    outer loop
      vertex -46.4764 -3.33854 -25.3
      vertex -46.2443 -3.01403 0
      vertex -46.2443 -3.01403 -25.3
    endloop
  endfacet
  facet normal -0.813369 0.581748 0
    outer loop
      vertex -46.2443 -3.01403 0
      vertex -46.4764 -3.33854 -25.3
      vertex -46.4764 -3.33854 0
    endloop
  endfacet
  facet normal 0 0 -1
    outer loop
      vertex -8.75999 -6 -6
      vertex -3.61499 6 -6
      vertex -3.61499 -6 -6
    endloop
  endfacet
  facet normal -0 0 -1
    outer loop
      vertex -3.61499 6 -6
      vertex -8.75999 -6 -6
      vertex -8.75999 6 -6
    endloop
  endfacet
  facet normal 0.0108256 0 -0.999941
    outer loop
      vertex -8.77754 -6 -6.00019
      vertex -8.75999 6 -6
      vertex -8.75999 -6 -6
    endloop
  endfacet
  facet normal 0.0108256 0 -0.999941
    outer loop
      vertex -8.75999 6 -6
      vertex -8.77754 -6 -6.00019
      vertex -8.77754 6 -6.00019
    endloop
  endfacet
  facet normal 0.0219437 0 -0.999759
    outer loop
      vertex -10.3275 -6 -6.03421
      vertex -8.77754 6 -6.00019
      vertex -8.77754 -6 -6.00019
    endloop
  endfacet
  facet normal 0.0219437 0 -0.999759
    outer loop
      vertex -8.77754 6 -6.00019
      vertex -10.3275 -6 -6.03421
      vertex -10.3275 6 -6.03421
    endloop
  endfacet
  facet normal 0.0574488 0 -0.998348
    outer loop
      vertex -10.3845 -6 -6.03749
      vertex -10.3275 6 -6.03421
      vertex -10.3275 -6 -6.03421
    endloop
  endfacet
  facet normal 0.0574488 0 -0.998348
    outer loop
      vertex -10.3275 6 -6.03421
      vertex -10.3845 -6 -6.03749
      vertex -10.3845 6 -6.03749
    endloop
  endfacet
  facet normal 0.0931673 0 -0.99565
    outer loop
      vertex -11.8754 -6 -6.177
      vertex -10.3845 6 -6.03749
      vertex -10.3845 -6 -6.03749
    endloop
  endfacet
  facet normal 0.0931673 0 -0.99565
    outer loop
      vertex -10.3845 6 -6.03749
      vertex -11.8754 -6 -6.177
      vertex -11.8754 6 -6.177
    endloop
  endfacet
  facet normal 0 0 -1
    outer loop
      vertex -13.342 -6 -6.177
      vertex -11.8754 6 -6.177
      vertex -11.8754 -6 -6.177
    endloop
  endfacet
  facet normal -0 0 -1
    outer loop
      vertex -11.8754 6 -6.177
      vertex -13.342 -6 -6.177
      vertex -13.342 6 -6.177
    endloop
  endfacet
  facet normal 0.054183 0 -0.998531
    outer loop
      vertex -13.4288 -6 -6.18171
      vertex -13.342 6 -6.177
      vertex -13.342 -6 -6.177
    endloop
  endfacet
  facet normal 0.054183 0 -0.998531
    outer loop
      vertex -13.342 6 -6.177
      vertex -13.4288 -6 -6.18171
      vertex -13.4288 6 -6.18171
    endloop
  endfacet
  facet normal 0.108442 0 -0.994103
    outer loop
      vertex -14.9048 -6 -6.34272
      vertex -13.4288 6 -6.18171
      vertex -13.4288 -6 -6.18171
    endloop
  endfacet
  facet normal 0.108442 0 -0.994103
    outer loop
      vertex -13.4288 6 -6.18171
      vertex -14.9048 -6 -6.34272
      vertex -14.9048 6 -6.34272
    endloop
  endfacet
  facet normal 0.130573 0 -0.991439
    outer loop
      vertex -14.9395 -6 -6.34729
      vertex -14.9048 6 -6.34272
      vertex -14.9048 -6 -6.34272
    endloop
  endfacet
  facet normal 0.130573 0 -0.991439
    outer loop
      vertex -14.9048 6 -6.34272
      vertex -14.9395 -6 -6.34729
      vertex -14.9395 6 -6.34729
    endloop
  endfacet
  facet normal 0.151852 0 -0.988403
    outer loop
      vertex -16.3677 -6 -6.56671
      vertex -14.9395 6 -6.34729
      vertex -14.9395 -6 -6.34729
    endloop
  endfacet
  facet normal 0.151852 0 -0.988403
    outer loop
      vertex -14.9395 6 -6.34729
      vertex -16.3677 -6 -6.56671
      vertex -16.3677 6 -6.56671
    endloop
  endfacet
  facet normal 0.109811 0 -0.993952
    outer loop
      vertex -17.7628 -6 -6.72084
      vertex -16.3677 6 -6.56671
      vertex -16.3677 -6 -6.56671
    endloop
  endfacet
  facet normal 0.109811 0 -0.993952
    outer loop
      vertex -16.3677 6 -6.56671
      vertex -17.7628 -6 -6.72084
      vertex -17.7628 6 -6.72084
    endloop
  endfacet
  facet normal 0.168214 0 -0.985751
    outer loop
      vertex -17.8558 -6 -6.73671
      vertex -17.7628 6 -6.72084
      vertex -17.7628 -6 -6.72084
    endloop
  endfacet
  facet normal 0.168214 0 -0.985751
    outer loop
      vertex -17.7628 6 -6.72084
      vertex -17.8558 -6 -6.73671
      vertex -17.8558 6 -6.73671
    endloop
  endfacet
  facet normal 0.226009 0 -0.974125
    outer loop
      vertex -19.1931 -6 -7.04698
      vertex -17.8558 6 -6.73671
      vertex -17.8558 -6 -6.73671
    endloop
  endfacet
  facet normal 0.226009 0 -0.974125
    outer loop
      vertex -17.8558 6 -6.73671
      vertex -19.1931 -6 -7.04698
      vertex -19.1931 6 -7.04698
    endloop
  endfacet
  facet normal 0.131326 0 -0.991339
    outer loop
      vertex -20.4911 -6 -7.21893
      vertex -19.1931 6 -7.04698
      vertex -19.1931 -6 -7.04698
    endloop
  endfacet
  facet normal 0.131326 0 -0.991339
    outer loop
      vertex -19.1931 6 -7.04698
      vertex -20.4911 -6 -7.21893
      vertex -20.4911 6 -7.21893
    endloop
  endfacet
  facet normal 0.203805 0 -0.979012
    outer loop
      vertex -20.6061 -6 -7.24287
      vertex -20.4911 6 -7.21893
      vertex -20.4911 -6 -7.21893
    endloop
  endfacet
  facet normal 0.203805 0 -0.979012
    outer loop
      vertex -20.4911 6 -7.21893
      vertex -20.6061 -6 -7.24287
      vertex -20.6061 6 -7.24287
    endloop
  endfacet
  facet normal 0.27511 0 -0.961413
    outer loop
      vertex -21.8893 -6 -7.61006
      vertex -20.6061 6 -7.24287
      vertex -20.6061 -6 -7.24287
    endloop
  endfacet
  facet normal 0.27511 0 -0.961413
    outer loop
      vertex -20.6061 6 -7.24287
      vertex -21.8893 -6 -7.61006
      vertex -21.8893 6 -7.61006
    endloop
  endfacet
  facet normal 0.249834 0 -0.968289
    outer loop
      vertex -23.1269 -6 -7.92938
      vertex -21.8893 6 -7.61006
      vertex -21.8893 -6 -7.61006
    endloop
  endfacet
  facet normal 0.249834 0 -0.968289
    outer loop
      vertex -21.8893 6 -7.61006
      vertex -23.1269 -6 -7.92938
      vertex -23.1269 6 -7.92938
    endloop
  endfacet
  facet normal 0.28302 0 -0.959114
    outer loop
      vertex -23.1798 -6 -7.94499
      vertex -23.1269 6 -7.92938
      vertex -23.1269 -6 -7.92938
    endloop
  endfacet
  facet normal 0.28302 0 -0.959114
    outer loop
      vertex -23.1269 6 -7.92938
      vertex -23.1798 -6 -7.94499
      vertex -23.1798 6 -7.94499
    endloop
  endfacet
  facet normal 0.315997 0 -0.94876
    outer loop
      vertex -24.366 -6 -8.34007
      vertex -23.1798 6 -7.94499
      vertex -23.1798 -6 -7.94499
    endloop
  endfacet
  facet normal 0.315997 0 -0.94876
    outer loop
      vertex -23.1798 6 -7.94499
      vertex -24.366 -6 -8.34007
      vertex -24.366 6 -8.34007
    endloop
  endfacet
  facet normal 0.278687 0 -0.960382
    outer loop
      vertex -25.5019 -6 -8.66969
      vertex -24.366 6 -8.34007
      vertex -24.366 -6 -8.34007
    endloop
  endfacet
  facet normal 0.278687 0 -0.960382
    outer loop
      vertex -24.366 6 -8.34007
      vertex -25.5019 -6 -8.66969
      vertex -25.5019 6 -8.66969
    endloop
  endfacet
  facet normal 0.341826 0 -0.939763
    outer loop
      vertex -25.602 -6 -8.7061
      vertex -25.5019 6 -8.66969
      vertex -25.5019 -6 -8.66969
    endloop
  endfacet
  facet normal 0.341826 0 -0.939763
    outer loop
      vertex -25.5019 6 -8.66969
      vertex -25.602 -6 -8.7061
      vertex -25.602 6 -8.7061
    endloop
  endfacet
  facet normal 0.403743 0 -0.914873
    outer loop
      vertex -26.701 -6 -9.1911
      vertex -25.602 6 -8.7061
      vertex -25.602 -6 -8.7061
    endloop
  endfacet
  facet normal 0.403743 0 -0.914873
    outer loop
      vertex -25.602 6 -8.7061
      vertex -26.701 -6 -9.1911
      vertex -26.701 6 -9.1911
    endloop
  endfacet
  facet normal 0.451909 0 -0.892064
    outer loop
      vertex -26.7769 -6 -9.22955
      vertex -26.701 6 -9.1911
      vertex -26.701 -6 -9.1911
    endloop
  endfacet
  facet normal 0.451909 0 -0.892064
    outer loop
      vertex -26.701 6 -9.1911
      vertex -26.7769 -6 -9.22955
      vertex -26.7769 6 -9.22955
    endloop
  endfacet
  facet normal 0.498632 0 -0.866814
    outer loop
      vertex -27.8071 -6 -9.82217
      vertex -26.7769 6 -9.22955
      vertex -26.7769 -6 -9.22955
    endloop
  endfacet
  facet normal 0.498632 0 -0.866814
    outer loop
      vertex -26.7769 6 -9.22955
      vertex -27.8071 -6 -9.82217
      vertex -27.8071 6 -9.82217
    endloop
  endfacet
  facet normal 0.466152 0 -0.884705
    outer loop
      vertex -28.7747 -6 -10.332
      vertex -27.8071 6 -9.82217
      vertex -27.8071 -6 -9.82217
    endloop
  endfacet
  facet normal 0.466152 0 -0.884705
    outer loop
      vertex -27.8071 6 -9.82217
      vertex -28.7747 -6 -10.332
      vertex -28.7747 6 -10.332
    endloop
  endfacet
  facet normal 0.450273 0 -0.892891
    outer loop
      vertex -29.6962 -6 -10.7967
      vertex -28.7747 6 -10.332
      vertex -28.7747 -6 -10.332
    endloop
  endfacet
  facet normal 0.450273 0 -0.892891
    outer loop
      vertex -28.7747 6 -10.332
      vertex -29.6962 -6 -10.7967
      vertex -29.6962 6 -10.7967
    endloop
  endfacet
  facet normal 0.493988 0 -0.869469
    outer loop
      vertex -29.7659 -6 -10.8363
      vertex -29.6962 6 -10.7967
      vertex -29.6962 -6 -10.7967
    endloop
  endfacet
  facet normal 0.493988 0 -0.869469
    outer loop
      vertex -29.6962 6 -10.7967
      vertex -29.7659 -6 -10.8363
      vertex -29.7659 6 -10.8363
    endloop
  endfacet
  facet normal 0.537316 0 -0.843381
    outer loop
      vertex -30.6339 -6 -11.3893
      vertex -29.7659 6 -10.8363
      vertex -29.7659 -6 -10.8363
    endloop
  endfacet
  facet normal 0.537316 0 -0.843381
    outer loop
      vertex -29.7659 6 -10.8363
      vertex -30.6339 -6 -11.3893
      vertex -30.6339 6 -11.3893
    endloop
  endfacet
  facet normal 0.591364 0 -0.806405
    outer loop
      vertex -30.7179 -6 -11.4509
      vertex -30.6339 6 -11.3893
      vertex -30.6339 -6 -11.3893
    endloop
  endfacet
  facet normal 0.591364 0 -0.806405
    outer loop
      vertex -30.6339 6 -11.3893
      vertex -30.7179 -6 -11.4509
      vertex -30.7179 6 -11.4509
    endloop
  endfacet
  facet normal 0.642436 0 -0.76634
    outer loop
      vertex -31.5238 -6 -12.1265
      vertex -30.7179 6 -11.4509
      vertex -30.7179 -6 -11.4509
    endloop
  endfacet
  facet normal 0.642436 0 -0.76634
    outer loop
      vertex -30.7179 6 -11.4509
      vertex -31.5238 -6 -12.1265
      vertex -31.5238 6 -12.1265
    endloop
  endfacet
  facet normal 0.644739 0 -0.764403
    outer loop
      vertex -32.2648 -6 -12.7515
      vertex -31.5238 6 -12.1265
      vertex -31.5238 -6 -12.1265
    endloop
  endfacet
  facet normal 0.644739 0 -0.764403
    outer loop
      vertex -31.5238 6 -12.1265
      vertex -32.2648 -6 -12.7515
      vertex -32.2648 6 -12.7515
    endloop
  endfacet
  facet normal 0.65896 0 -0.752178
    outer loop
      vertex -32.2882 -6 -12.772
      vertex -32.2648 6 -12.7515
      vertex -32.2648 -6 -12.7515
    endloop
  endfacet
  facet normal 0.65896 0 -0.752178
    outer loop
      vertex -32.2648 6 -12.7515
      vertex -32.2882 -6 -12.772
      vertex -32.2882 6 -12.772
    endloop
  endfacet
  facet normal 0.674095 0 -0.738644
    outer loop
      vertex -32.9622 -6 -13.3871
      vertex -32.2882 6 -12.772
      vertex -32.2882 -6 -12.772
    endloop
  endfacet
  facet normal 0.674095 0 -0.738644
    outer loop
      vertex -32.2882 6 -12.772
      vertex -32.9622 -6 -13.3871
      vertex -32.9622 6 -13.3871
    endloop
  endfacet
  facet normal 0.721123 0 -0.692807
    outer loop
      vertex -32.9622 -6 -13.3871
      vertex -33.0356 6 -13.4635
      vertex -32.9622 6 -13.3871
    endloop
  endfacet
  facet normal 0.721123 0 -0.692807
    outer loop
      vertex -33.0356 6 -13.4635
      vertex -32.9622 -6 -13.3871
      vertex -33.0356 -6 -13.4635
    endloop
  endfacet
  facet normal 0.765788 0 -0.643093
    outer loop
      vertex -33.0356 -6 -13.4635
      vertex -33.6436 6 -14.1875
      vertex -33.0356 6 -13.4635
    endloop
  endfacet
  facet normal 0.765788 0 -0.643093
    outer loop
      vertex -33.6436 6 -14.1875
      vertex -33.0356 -6 -13.4635
      vertex -33.6436 -6 -14.1875
    endloop
  endfacet
  facet normal 0.781124 0 -0.624376
    outer loop
      vertex -33.6436 -6 -14.1875
      vertex -33.6675 6 -14.2174
      vertex -33.6436 6 -14.1875
    endloop
  endfacet
  facet normal 0.781124 0 -0.624376
    outer loop
      vertex -33.6675 6 -14.2174
      vertex -33.6436 -6 -14.1875
      vertex -33.6675 -6 -14.2174
    endloop
  endfacet
  facet normal 0.795683 0 -0.605713
    outer loop
      vertex -33.6675 -6 -14.2174
      vertex -34.2038 6 -14.9219
      vertex -33.6675 6 -14.2174
    endloop
  endfacet
  facet normal 0.795683 0 -0.605713
    outer loop
      vertex -34.2038 6 -14.9219
      vertex -33.6675 -6 -14.2174
      vertex -34.2038 -6 -14.9219
    endloop
  endfacet
  facet normal 0.792285 0 -0.610151
    outer loop
      vertex -34.2038 -6 -14.9219
      vertex -34.6728 6 -15.5309
      vertex -34.2038 6 -14.9219
    endloop
  endfacet
  facet normal 0.792285 0 -0.610151
    outer loop
      vertex -34.6728 6 -15.5309
      vertex -34.2038 -6 -14.9219
      vertex -34.6728 -6 -15.5309
    endloop
  endfacet
  facet normal 0.858338 0 -0.513085
    outer loop
      vertex -34.6728 -6 -15.5309
      vertex -34.7691 6 -15.692
      vertex -34.6728 6 -15.5309
    endloop
  endfacet
  facet normal 0.858338 0 -0.513085
    outer loop
      vertex -34.7691 6 -15.692
      vertex -34.6728 -6 -15.5309
      vertex -34.7691 -6 -15.692
    endloop
  endfacet
  facet normal 0.912667 0 -0.408703
    outer loop
      vertex -34.7691 -6 -15.692
      vertex -35.1681 6 -16.583
      vertex -34.7691 6 -15.692
    endloop
  endfacet
  facet normal 0.912667 0 -0.408703
    outer loop
      vertex -35.1681 6 -16.583
      vertex -34.7691 -6 -15.692
      vertex -35.1681 -6 -16.583
    endloop
  endfacet
  facet normal 0.926657 0 -0.375908
    outer loop
      vertex -35.1681 -6 -16.583
      vertex -35.1896 6 -16.636
      vertex -35.1681 6 -16.583
    endloop
  endfacet
  facet normal 0.926657 0 -0.375908
    outer loop
      vertex -35.1896 6 -16.636
      vertex -35.1681 -6 -16.583
      vertex -35.1896 -6 -16.636
    endloop
  endfacet
  facet normal 0.939527 0 -0.342475
    outer loop
      vertex -35.1896 -6 -16.636
      vertex -35.5126 6 -17.5221
      vertex -35.1896 6 -16.636
    endloop
  endfacet
  facet normal 0.939527 0 -0.342475
    outer loop
      vertex -35.5126 6 -17.5221
      vertex -35.1896 -6 -16.636
      vertex -35.5126 -6 -17.5221
    endloop
  endfacet
  facet normal 0.929258 0 -0.369431
    outer loop
      vertex -35.5126 -6 -17.5221
      vertex -35.7435 6 -18.1029
      vertex -35.5126 6 -17.5221
    endloop
  endfacet
  facet normal 0.929258 0 -0.369431
    outer loop
      vertex -35.7435 6 -18.1029
      vertex -35.5126 -6 -17.5221
      vertex -35.7435 -6 -18.1029
    endloop
  endfacet
  facet normal 0.86796 0 -0.496634
    outer loop
      vertex -35.7435 -6 -18.1029
      vertex -35.8624 6 -18.3107
      vertex -35.7435 6 -18.1029
    endloop
  endfacet
  facet normal 0.86796 0 -0.496634
    outer loop
      vertex -35.8624 6 -18.3107
      vertex -35.7435 -6 -18.1029
      vertex -35.8624 -6 -18.3107
    endloop
  endfacet
  facet normal 0.764472 0 -0.644657
    outer loop
      vertex -35.8624 -6 -18.3107
      vertex -35.9614 6 -18.4281
      vertex -35.8624 6 -18.3107
    endloop
  endfacet
  facet normal 0.764472 0 -0.644657
    outer loop
      vertex -35.9614 6 -18.4281
      vertex -35.8624 -6 -18.3107
      vertex -35.9614 -6 -18.4281
    endloop
  endfacet
  facet normal 0.941983 0 -0.335659
    outer loop
      vertex -35.9614 -6 -18.4281
      vertex -36.1499 6 -18.9571
      vertex -35.9614 6 -18.4281
    endloop
  endfacet
  facet normal 0.941983 0 -0.335659
    outer loop
      vertex -36.1499 6 -18.9571
      vertex -35.9614 -6 -18.4281
      vertex -36.1499 -6 -18.9571
    endloop
  endfacet
  facet normal 0.999867 -0 0.0162981
    outer loop
      vertex -36.1499 -6 -18.9571
      vertex -36.1129 6 -21.227
      vertex -36.1499 6 -18.9571
    endloop
  endfacet
  facet normal 0.999867 0 0.0162981
    outer loop
      vertex -36.1129 6 -21.227
      vertex -36.1499 -6 -18.9571
      vertex -36.1129 -6 -21.227
    endloop
  endfacet
  facet normal 0.981847 -0 0.189675
    outer loop
      vertex -36.1129 -6 -21.227
      vertex -36.0602 6 -21.4998
      vertex -36.1129 6 -21.227
    endloop
  endfacet
  facet normal 0.981847 0 0.189675
    outer loop
      vertex -36.0602 6 -21.4998
      vertex -36.1129 -6 -21.227
      vertex -36.0602 -6 -21.4998
    endloop
  endfacet
  facet normal 0.934025 -0 0.357208
    outer loop
      vertex -36.0602 -6 -21.4998
      vertex -35.9561 6 -21.772
      vertex -36.0602 6 -21.4998
    endloop
  endfacet
  facet normal 0.934025 0 0.357208
    outer loop
      vertex -35.9561 6 -21.772
      vertex -36.0602 -6 -21.4998
      vertex -35.9561 -6 -21.772
    endloop
  endfacet
  facet normal 0.945636 -0 0.325227
    outer loop
      vertex -35.9561 -6 -21.772
      vertex -35.7829 6 -22.2756
      vertex -35.9561 6 -21.772
    endloop
  endfacet
  facet normal 0.945636 0 0.325227
    outer loop
      vertex -35.7829 6 -22.2756
      vertex -35.9561 -6 -21.772
      vertex -35.7829 -6 -22.2756
    endloop
  endfacet
  facet normal 0.958347 -0 0.285605
    outer loop
      vertex -35.7829 -6 -22.2756
      vertex -35.5317 6 -23.1185
      vertex -35.7829 6 -22.2756
    endloop
  endfacet
  facet normal 0.958347 0 0.285605
    outer loop
      vertex -35.5317 6 -23.1185
      vertex -35.7829 -6 -22.2756
      vertex -35.5317 -6 -23.1185
    endloop
  endfacet
  facet normal 0.946682 -0 0.322169
    outer loop
      vertex -35.5317 -6 -23.1185
      vertex -35.5122 6 -23.1758
      vertex -35.5317 6 -23.1185
    endloop
  endfacet
  facet normal 0.946682 0 0.322169
    outer loop
      vertex -35.5122 6 -23.1758
      vertex -35.5317 -6 -23.1185
      vertex -35.5122 -6 -23.1758
    endloop
  endfacet
  facet normal 0.93402 -0 0.357222
    outer loop
      vertex -35.5122 -6 -23.1758
      vertex -35.1852 6 -24.0308
      vertex -35.5122 6 -23.1758
    endloop
  endfacet
  facet normal 0.93402 0 0.357222
    outer loop
      vertex -35.1852 6 -24.0308
      vertex -35.5122 -6 -23.1758
      vertex -35.1852 -6 -24.0308
    endloop
  endfacet
  facet normal 0.917138 -0 0.398569
    outer loop
      vertex -35.1852 -6 -24.0308
      vertex -35.1573 6 -24.095
      vertex -35.1852 6 -24.0308
    endloop
  endfacet
  facet normal 0.917138 0 0.398569
    outer loop
      vertex -35.1573 6 -24.095
      vertex -35.1852 -6 -24.0308
      vertex -35.1573 -6 -24.095
    endloop
  endfacet
  facet normal 0.8992 -0 0.437538
    outer loop
      vertex -35.1573 -6 -24.095
      vertex -34.7583 6 -24.915
      vertex -35.1573 6 -24.095
    endloop
  endfacet
  facet normal 0.8992 0 0.437538
    outer loop
      vertex -34.7583 6 -24.915
      vertex -35.1573 -6 -24.095
      vertex -34.7583 -6 -24.915
    endloop
  endfacet
  facet normal 0.880188 -0 0.474625
    outer loop
      vertex -34.7583 -6 -24.915
      vertex -34.726 6 -24.9749
      vertex -34.7583 6 -24.915
    endloop
  endfacet
  facet normal 0.880188 0 0.474625
    outer loop
      vertex -34.726 6 -24.9749
      vertex -34.7583 -6 -24.915
      vertex -34.726 -6 -24.9749
    endloop
  endfacet
  facet normal 0.858726 -0 0.512436
    outer loop
      vertex -34.726 -6 -24.9749
      vertex -34.532 6 -25.3
      vertex -34.726 6 -24.9749
    endloop
  endfacet
  facet normal 0.858726 0 0.512436
    outer loop
      vertex -34.532 6 -25.3
      vertex -34.726 -6 -24.9749
      vertex -34.532 -6 -25.3
    endloop
  endfacet
  facet normal -0.813275 0 -0.58188
    outer loop
      vertex 36.2767 -6 -14.8216
      vertex 35.4016 6 -13.5985
      vertex 36.2767 6 -14.8216
    endloop
  endfacet
  facet normal -0.813275 -0 -0.58188
    outer loop
      vertex 35.4016 6 -13.5985
      vertex 36.2767 -6 -14.8216
      vertex 35.4016 -6 -13.5985
    endloop
  endfacet
  facet normal -0.932147 0 -0.362079
    outer loop
      vertex 36.5098 -6 -15.4217
      vertex 36.2767 6 -14.8216
      vertex 36.5098 6 -15.4217
    endloop
  endfacet
  facet normal -0.932147 -0 -0.362079
    outer loop
      vertex 36.2767 6 -14.8216
      vertex 36.5098 -6 -15.4217
      vertex 36.2767 -6 -14.8216
    endloop
  endfacet
  facet normal -0.999364 0 -0.0356563
    outer loop
      vertex 36.5495 -6 -16.5344
      vertex 36.5098 6 -15.4217
      vertex 36.5495 6 -16.5344
    endloop
  endfacet
  facet normal -0.999364 -0 -0.0356563
    outer loop
      vertex 36.5098 6 -15.4217
      vertex 36.5495 -6 -16.5344
      vertex 36.5098 -6 -15.4217
    endloop
  endfacet
  facet normal -1 0 0
    outer loop
      vertex 36.5495 -6 -25.3
      vertex 36.5495 6 -16.5344
      vertex 36.5495 6 -25.3
    endloop
  endfacet
  facet normal -1 -0 0
    outer loop
      vertex 36.5495 6 -16.5344
      vertex 36.5495 -6 -25.3
      vertex 36.5495 -6 -16.5344
    endloop
  endfacet
  facet normal 1 -0 0
    outer loop
      vertex -3.61499 -6 -5.59999
      vertex -3.61499 6 -6
      vertex -3.61499 6 -5.59999
    endloop
  endfacet
  facet normal 1 0 0
    outer loop
      vertex -3.61499 6 -6
      vertex -3.61499 -6 -5.59999
      vertex -3.61499 -6 -6
    endloop
  endfacet
  facet normal -0.133237 0 -0.991084
    outer loop
      vertex -2.15907 -6 -5.62903
      vertex 10.4614 6 -7.32567
      vertex 10.4614 -6 -7.32567
    endloop
  endfacet
  facet normal -0.133237 0 -0.991084
    outer loop
      vertex 10.4614 6 -7.32567
      vertex -2.15907 -6 -5.62903
      vertex -2.15907 6 -5.62903
    endloop
  endfacet
  facet normal -0.192856 0 -0.981227
    outer loop
      vertex 19.2592 -6 -9.00447
      vertex 21.8766 6 -9.51891
      vertex 21.8766 -6 -9.51891
    endloop
  endfacet
  facet normal -0.192856 0 -0.981227
    outer loop
      vertex 21.8766 6 -9.51891
      vertex 19.2592 -6 -9.00447
      vertex 19.2592 6 -9.00447
    endloop
  endfacet
  facet normal -0.190585 0 -0.981671
    outer loop
      vertex 13.58 -6 -7.90189
      vertex 19.2592 6 -9.00447
      vertex 19.2592 -6 -9.00447
    endloop
  endfacet
  facet normal -0.190585 0 -0.981671
    outer loop
      vertex 19.2592 6 -9.00447
      vertex 13.58 -6 -7.90189
      vertex 13.58 6 -7.90189
    endloop
  endfacet
  facet normal -0.162275 0 -0.986746
    outer loop
      vertex 10.4614 -6 -7.32567
      vertex 10.5458 6 -7.33955
      vertex 10.5458 -6 -7.33955
    endloop
  endfacet
  facet normal -0.162275 0 -0.986746
    outer loop
      vertex 10.5458 6 -7.33955
      vertex 10.4614 -6 -7.32567
      vertex 10.4614 6 -7.32567
    endloop
  endfacet
  facet normal -0.638438 0 -0.769673
    outer loop
      vertex 34.7904 -6 -13.0472
      vertex 35.2244 6 -13.4072
      vertex 35.2244 -6 -13.4072
    endloop
  endfacet
  facet normal -0.638438 0 -0.769673
    outer loop
      vertex 35.2244 6 -13.4072
      vertex 34.7904 -6 -13.0472
      vertex 34.7904 6 -13.0472
    endloop
  endfacet
  facet normal 0 0 -1
    outer loop
      vertex -3.61499 -6 -5.59999
      vertex -2.38657 6 -5.59999
      vertex -2.38657 -6 -5.59999
    endloop
  endfacet
  facet normal -0 0 -1
    outer loop
      vertex -2.38657 6 -5.59999
      vertex -3.61499 -6 -5.59999
      vertex -3.61499 6 -5.59999
    endloop
  endfacet
  facet normal -0.244544 0 -0.969638
    outer loop
      vertex 22.0127 -6 -9.54997
      vertex 30.4751 6 -11.6842
      vertex 30.4751 -6 -11.6842
    endloop
  endfacet
  facet normal -0.244544 0 -0.969638
    outer loop
      vertex 30.4751 6 -11.6842
      vertex 22.0127 -6 -9.54997
      vertex 22.0127 6 -9.54997
    endloop
  endfacet
  facet normal -0.733626 0 -0.679553
    outer loop
      vertex 35.4016 -6 -13.5985
      vertex 35.2244 6 -13.4072
      vertex 35.4016 6 -13.5985
    endloop
  endfacet
  facet normal -0.733626 -0 -0.679553
    outer loop
      vertex 35.2244 6 -13.4072
      vertex 35.4016 -6 -13.5985
      vertex 35.2244 -6 -13.4072
    endloop
  endfacet
  facet normal -0.182231 0 -0.983256
    outer loop
      vertex 10.5458 -6 -7.33955
      vertex 13.58 6 -7.90189
      vertex 13.58 -6 -7.90189
    endloop
  endfacet
  facet normal -0.182231 0 -0.983256
    outer loop
      vertex 13.58 6 -7.90189
      vertex 10.5458 -6 -7.33955
      vertex 10.5458 6 -7.33955
    endloop
  endfacet
  facet normal -0.126621 0 -0.991951
    outer loop
      vertex -2.38657 -6 -5.59999
      vertex -2.15907 6 -5.62903
      vertex -2.15907 -6 -5.62903
    endloop
  endfacet
  facet normal -0.126621 0 -0.991951
    outer loop
      vertex -2.15907 6 -5.62903
      vertex -2.38657 -6 -5.59999
      vertex -2.38657 6 -5.59999
    endloop
  endfacet
  facet normal -0.222494 0 -0.974934
    outer loop
      vertex 21.8766 -6 -9.51891
      vertex 22.0127 6 -9.54997
      vertex 22.0127 -6 -9.54997
    endloop
  endfacet
  facet normal -0.222494 0 -0.974934
    outer loop
      vertex 22.0127 6 -9.54997
      vertex 21.8766 -6 -9.51891
      vertex 21.8766 6 -9.51891
    endloop
  endfacet
  facet normal -0.339977 0 -0.940434
    outer loop
      vertex 33.8415 -6 -12.5583
      vertex 34.1195 6 -12.6588
      vertex 34.1195 -6 -12.6588
    endloop
  endfacet
  facet normal -0.339977 0 -0.940434
    outer loop
      vertex 34.1195 6 -12.6588
      vertex 33.8415 -6 -12.5583
      vertex 33.8415 6 -12.5583
    endloop
  endfacet
  facet normal -0.25132 0 -0.967904
    outer loop
      vertex 30.4751 -6 -11.6842
      vertex 33.8415 6 -12.5583
      vertex 33.8415 -6 -12.5583
    endloop
  endfacet
  facet normal -0.25132 0 -0.967904
    outer loop
      vertex 33.8415 6 -12.5583
      vertex 30.4751 -6 -11.6842
      vertex 30.4751 6 -11.6842
    endloop
  endfacet
  facet normal -0.480481 0 -0.877005
    outer loop
      vertex 34.1195 -6 -12.6588
      vertex 34.6324 6 -12.9398
      vertex 34.6324 -6 -12.9398
    endloop
  endfacet
  facet normal -0.480481 0 -0.877005
    outer loop
      vertex 34.6324 6 -12.9398
      vertex 34.1195 -6 -12.6588
      vertex 34.1195 6 -12.6588
    endloop
  endfacet
  facet normal -0.562167 0 -0.827024
    outer loop
      vertex 34.6324 -6 -12.9398
      vertex 34.7904 6 -13.0472
      vertex 34.7904 -6 -13.0472
    endloop
  endfacet
  facet normal -0.562167 0 -0.827024
    outer loop
      vertex 34.7904 6 -13.0472
      vertex 34.6324 -6 -12.9398
      vertex 34.6324 6 -12.9398
    endloop
  endfacet
  facet normal 1 -0 0
    outer loop
      vertex 47.2375 4.13755 0
      vertex 47.2375 6 -6
      vertex 47.2375 6 0
    endloop
  endfacet
  facet normal 1 0 0
    outer loop
      vertex 47.2375 6 -6
      vertex 47.2375 4.13755 0
      vertex 47.2375 4.13755 -6
    endloop
  endfacet
  facet normal 1 -0 0
    outer loop
      vertex 47.2375 -6 0
      vertex 47.2375 -4.13755 -6
      vertex 47.2375 -4.13755 0
    endloop
  endfacet
  facet normal 1 0 0
    outer loop
      vertex 47.2375 -4.13755 -6
      vertex 47.2375 -6 0
      vertex 47.2375 -6 -6
    endloop
  endfacet
  facet normal -1 0 0
    outer loop
      vertex -47.2375 4.13755 -6
      vertex -47.2375 6 0
      vertex -47.2375 6 -6
    endloop
  endfacet
  facet normal -1 -0 0
    outer loop
      vertex -47.2375 6 0
      vertex -47.2375 4.13755 -6
      vertex -47.2375 4.13755 0
    endloop
  endfacet
  facet normal -1 0 0
    outer loop
      vertex -47.2375 -6 -6
      vertex -47.2375 -4.13755 0
      vertex -47.2375 -4.13755 -6
    endloop
  endfacet
  facet normal -1 -0 0
    outer loop
      vertex -47.2375 -4.13755 0
      vertex -47.2375 -6 -6
      vertex -47.2375 -6 0
    endloop
  endfacet
  facet normal 0 1 -0
    outer loop
      vertex -13.342 6 -6.177
      vertex -22.2375 6 0
      vertex -11.8754 6 -6.177
    endloop
  endfacet
  facet normal 0 1 -0
    outer loop
      vertex -14.9048 6 -6.34272
      vertex -22.2375 6 0
      vertex -13.4288 6 -6.18171
    endloop
  endfacet
  facet normal 0 1 -0
    outer loop
      vertex -14.9395 6 -6.34729
      vertex -22.2375 6 0
      vertex -14.9048 6 -6.34272
    endloop
  endfacet
  facet normal 0 1 -0
    outer loop
      vertex -13.4288 6 -6.18171
      vertex -22.2375 6 0
      vertex -13.342 6 -6.177
    endloop
  endfacet
  facet normal 0 1 0
    outer loop
      vertex -22.2375 6 0
      vertex -14.9395 6 -6.34729
      vertex -22.2375 6 -1.5
    endloop
  endfacet
  facet normal 0 1 -0
    outer loop
      vertex -16.3677 6 -6.56671
      vertex -22.2375 6 -1.5
      vertex -14.9395 6 -6.34729
    endloop
  endfacet
  facet normal 0 1 -0
    outer loop
      vertex -17.7628 6 -6.72084
      vertex -22.2375 6 -1.5
      vertex -16.3677 6 -6.56671
    endloop
  endfacet
  facet normal 0 1 -0
    outer loop
      vertex -17.8558 6 -6.73671
      vertex -22.2375 6 -1.5
      vertex -17.7628 6 -6.72084
    endloop
  endfacet
  facet normal 0 1 -0
    outer loop
      vertex -19.1931 6 -7.04698
      vertex -22.2375 6 -1.5
      vertex -17.8558 6 -6.73671
    endloop
  endfacet
  facet normal 0 1 -0
    outer loop
      vertex -20.4911 6 -7.21893
      vertex -22.2375 6 -1.5
      vertex -19.1931 6 -7.04698
    endloop
  endfacet
  facet normal 0 1 -0
    outer loop
      vertex -20.6061 6 -7.24287
      vertex -22.2375 6 -1.5
      vertex -20.4911 6 -7.21893
    endloop
  endfacet
  facet normal 0 1 -0
    outer loop
      vertex -21.8893 6 -7.61006
      vertex -22.2375 6 -1.5
      vertex -20.6061 6 -7.24287
    endloop
  endfacet
  facet normal 0 1 0
    outer loop
      vertex -23.1269 6 -7.92938
      vertex -22.2375 6 -1.5
      vertex -21.8893 6 -7.61006
    endloop
  endfacet
  facet normal 0 1 0
    outer loop
      vertex -22.2375 6 -1.5
      vertex -23.1269 6 -7.92938
      vertex -25.2375 6 -1.5
    endloop
  endfacet
  facet normal 0 1 -0
    outer loop
      vertex -23.1798 6 -7.94499
      vertex -25.2375 6 -1.5
      vertex -23.1269 6 -7.92938
    endloop
  endfacet
  facet normal 0 1 -0
    outer loop
      vertex -24.366 6 -8.34007
      vertex -25.2375 6 -1.5
      vertex -23.1798 6 -7.94499
    endloop
  endfacet
  facet normal 0 1 0
    outer loop
      vertex -25.5019 6 -8.66969
      vertex -25.2375 6 -1.5
      vertex -24.366 6 -8.34007
    endloop
  endfacet
  facet normal 0 1 0
    outer loop
      vertex -25.602 6 -8.7061
      vertex -25.2375 6 -1.5
      vertex -25.5019 6 -8.66969
    endloop
  endfacet
  facet normal 0 1 0
    outer loop
      vertex -25.2375 6 -1.5
      vertex -25.602 6 -8.7061
      vertex -29.2375 6 -1.5
    endloop
  endfacet
  facet normal 0 1 -0
    outer loop
      vertex -26.701 6 -9.1911
      vertex -29.2375 6 -1.5
      vertex -25.602 6 -8.7061
    endloop
  endfacet
  facet normal 0 1 -0
    outer loop
      vertex -26.7769 6 -9.22955
      vertex -29.2375 6 -1.5
      vertex -26.701 6 -9.1911
    endloop
  endfacet
  facet normal 0 1 -0
    outer loop
      vertex -27.8071 6 -9.82217
      vertex -29.2375 6 -1.5
      vertex -26.7769 6 -9.22955
    endloop
  endfacet
  facet normal 0 1 -0
    outer loop
      vertex -28.7747 6 -10.332
      vertex -29.2375 6 -1.5
      vertex -27.8071 6 -9.82217
    endloop
  endfacet
  facet normal 0 1 0
    outer loop
      vertex -29.6962 6 -10.7967
      vertex -29.2375 6 -1.5
      vertex -28.7747 6 -10.332
    endloop
  endfacet
  facet normal 0 1 0
    outer loop
      vertex -29.7659 6 -10.8363
      vertex -29.2375 6 -1.5
      vertex -29.6962 6 -10.7967
    endloop
  endfacet
  facet normal 0 1 0
    outer loop
      vertex -30.6339 6 -11.3893
      vertex -29.2375 6 -1.5
      vertex -29.7659 6 -10.8363
    endloop
  endfacet
  facet normal 0 1 0
    outer loop
      vertex -30.7179 6 -11.4509
      vertex -29.2375 6 -1.5
      vertex -30.6339 6 -11.3893
    endloop
  endfacet
  facet normal 0 1 0
    outer loop
      vertex -31.5238 6 -12.1265
      vertex -29.2375 6 -1.5
      vertex -30.7179 6 -11.4509
    endloop
  endfacet
  facet normal 0 1 0
    outer loop
      vertex -29.2375 6 -1.5
      vertex -31.5238 6 -12.1265
      vertex -46.7375 6 -6
    endloop
  endfacet
  facet normal 0 1 -0
    outer loop
      vertex -32.2648 6 -12.7515
      vertex -46.7375 6 -6
      vertex -31.5238 6 -12.1265
    endloop
  endfacet
  facet normal 0 1 -0
    outer loop
      vertex -32.2882 6 -12.772
      vertex -46.7375 6 -6
      vertex -32.2648 6 -12.7515
    endloop
  endfacet
  facet normal 0 1 -0
    outer loop
      vertex -32.9622 6 -13.3871
      vertex -46.7375 6 -6
      vertex -32.2882 6 -12.772
    endloop
  endfacet
  facet normal 0 1 -0
    outer loop
      vertex -33.0356 6 -13.4635
      vertex -46.7375 6 -6
      vertex -32.9622 6 -13.3871
    endloop
  endfacet
  facet normal 0 1 -0
    outer loop
      vertex -33.6436 6 -14.1875
      vertex -46.7375 6 -6
      vertex -33.0356 6 -13.4635
    endloop
  endfacet
  facet normal 0 1 -0
    outer loop
      vertex -33.6675 6 -14.2174
      vertex -46.7375 6 -6
      vertex -33.6436 6 -14.1875
    endloop
  endfacet
  facet normal 0 1 -0
    outer loop
      vertex -34.2038 6 -14.9219
      vertex -46.7375 6 -6
      vertex -33.6675 6 -14.2174
    endloop
  endfacet
  facet normal 0 1 -0
    outer loop
      vertex -34.6728 6 -15.5309
      vertex -46.7375 6 -6
      vertex -34.2038 6 -14.9219
    endloop
  endfacet
  facet normal 0 1 -0
    outer loop
      vertex -34.7691 6 -15.692
      vertex -46.7375 6 -6
      vertex -34.6728 6 -15.5309
    endloop
  endfacet
  facet normal 0 1 -0
    outer loop
      vertex -35.1681 6 -16.583
      vertex -46.7375 6 -6
      vertex -34.7691 6 -15.692
    endloop
  endfacet
  facet normal 0 1 -0
    outer loop
      vertex -35.1896 6 -16.636
      vertex -46.7375 6 -6
      vertex -35.1681 6 -16.583
    endloop
  endfacet
  facet normal 0 1 -0
    outer loop
      vertex -35.5126 6 -17.5221
      vertex -46.7375 6 -6
      vertex -35.1896 6 -16.636
    endloop
  endfacet
  facet normal 0 1 0
    outer loop
      vertex -35.9614 6 -18.4281
      vertex -35.5126 6 -17.5221
      vertex -35.7435 6 -18.1029
    endloop
  endfacet
  facet normal 0 1 0
    outer loop
      vertex -35.9614 6 -18.4281
      vertex -35.7435 6 -18.1029
      vertex -35.8624 6 -18.3107
    endloop
  endfacet
  facet normal 0 1 0
    outer loop
      vertex -35.5126 6 -17.5221
      vertex -35.9614 6 -18.4281
      vertex -46.7375 6 -6
    endloop
  endfacet
  facet normal 0 1 -0
    outer loop
      vertex -36.1499 6 -18.9571
      vertex -46.7375 6 -6
      vertex -35.9614 6 -18.4281
    endloop
  endfacet
  facet normal 0 1 0
    outer loop
      vertex -46.7375 6 -25.3
      vertex -36.1499 6 -18.9571
      vertex -36.1129 6 -21.227
    endloop
  endfacet
  facet normal 0 1 0
    outer loop
      vertex -46.7375 6 -25.3
      vertex -36.1129 6 -21.227
      vertex -36.0602 6 -21.4998
    endloop
  endfacet
  facet normal 0 1 0
    outer loop
      vertex -46.7375 6 -25.3
      vertex -36.0602 6 -21.4998
      vertex -35.9561 6 -21.772
    endloop
  endfacet
  facet normal 0 1 0
    outer loop
      vertex -46.7375 6 -25.3
      vertex -35.9561 6 -21.772
      vertex -35.7829 6 -22.2756
    endloop
  endfacet
  facet normal 0 1 0
    outer loop
      vertex -46.7375 6 -25.3
      vertex -35.7829 6 -22.2756
      vertex -35.5317 6 -23.1185
    endloop
  endfacet
  facet normal 0 1 0
    outer loop
      vertex -46.7375 6 -25.3
      vertex -35.5317 6 -23.1185
      vertex -35.5122 6 -23.1758
    endloop
  endfacet
  facet normal 0 1 0
    outer loop
      vertex -46.7375 6 -25.3
      vertex -35.5122 6 -23.1758
      vertex -35.1852 6 -24.0308
    endloop
  endfacet
  facet normal 0 1 0
    outer loop
      vertex -46.7375 6 -25.3
      vertex -35.1852 6 -24.0308
      vertex -35.1573 6 -24.095
    endloop
  endfacet
  facet normal 0 1 0
    outer loop
      vertex -46.7375 6 -25.3
      vertex -35.1573 6 -24.095
      vertex -34.7583 6 -24.915
    endloop
  endfacet
  facet normal 0 1 0
    outer loop
      vertex -46.7375 6 -25.3
      vertex -34.7583 6 -24.915
      vertex -34.726 6 -24.9749
    endloop
  endfacet
  facet normal 0 1 0
    outer loop
      vertex -46.7375 6 -25.3
      vertex -34.726 6 -24.9749
      vertex -34.532 6 -25.3
    endloop
  endfacet
  facet normal 0 1 0
    outer loop
      vertex -36.1499 6 -18.9571
      vertex -46.7375 6 -25.3
      vertex -46.7375 6 -6
    endloop
  endfacet
  facet normal 0 1 -0
    outer loop
      vertex -2.15907 6 -5.62903
      vertex -22.2375 6 0
      vertex 47.2375 6 0
    endloop
  endfacet
  facet normal 0 1 -0
    outer loop
      vertex -10.3275 6 -6.03421
      vertex -22.2375 6 0
      vertex -8.77754 6 -6.00019
    endloop
  endfacet
  facet normal 0 1 -0
    outer loop
      vertex -10.3845 6 -6.03749
      vertex -22.2375 6 0
      vertex -10.3275 6 -6.03421
    endloop
  endfacet
  facet normal 0 1 -0
    outer loop
      vertex -11.8754 6 -6.177
      vertex -22.2375 6 0
      vertex -10.3845 6 -6.03749
    endloop
  endfacet
  facet normal 0 1 0
    outer loop
      vertex -32.2375 6 -1.5
      vertex -46.7375 6 -6
      vertex -36.2375 6 -1.5
    endloop
  endfacet
  facet normal 0 1 -0
    outer loop
      vertex -8.75999 6 -6
      vertex -22.2375 6 0
      vertex -3.61499 6 -5.59999
    endloop
  endfacet
  facet normal 0 1 -0
    outer loop
      vertex -3.61499 6 -5.59999
      vertex -22.2375 6 0
      vertex -2.38657 6 -5.59999
    endloop
  endfacet
  facet normal 0 1 0
    outer loop
      vertex -22.2375 6 0
      vertex -2.15907 6 -5.62903
      vertex -2.38657 6 -5.59999
    endloop
  endfacet
  facet normal 0 1 0
    outer loop
      vertex 46.7375 6 -6
      vertex 47.2375 6 0
      vertex 47.2375 6 -6
    endloop
  endfacet
  facet normal 0 1 0
    outer loop
      vertex 33.8415 6 -12.5583
      vertex 47.2375 6 0
      vertex 46.7375 6 -6
    endloop
  endfacet
  facet normal 0 1 0
    outer loop
      vertex 47.2375 6 0
      vertex 10.4614 6 -7.32567
      vertex -2.15907 6 -5.62903
    endloop
  endfacet
  facet normal 0 1 0
    outer loop
      vertex 47.2375 6 0
      vertex 10.5458 6 -7.33955
      vertex 10.4614 6 -7.32567
    endloop
  endfacet
  facet normal 0 1 0
    outer loop
      vertex 47.2375 6 0
      vertex 13.58 6 -7.90189
      vertex 10.5458 6 -7.33955
    endloop
  endfacet
  facet normal 0 1 0
    outer loop
      vertex 47.2375 6 0
      vertex 19.2592 6 -9.00447
      vertex 13.58 6 -7.90189
    endloop
  endfacet
  facet normal 0 1 0
    outer loop
      vertex 47.2375 6 0
      vertex 21.8766 6 -9.51891
      vertex 19.2592 6 -9.00447
    endloop
  endfacet
  facet normal 0 1 0
    outer loop
      vertex 47.2375 6 0
      vertex 22.0127 6 -9.54997
      vertex 21.8766 6 -9.51891
    endloop
  endfacet
  facet normal 0 1 0
    outer loop
      vertex 47.2375 6 0
      vertex 30.4751 6 -11.6842
      vertex 22.0127 6 -9.54997
    endloop
  endfacet
  facet normal 0 1 0
    outer loop
      vertex 47.2375 6 0
      vertex 33.8415 6 -12.5583
      vertex 30.4751 6 -11.6842
    endloop
  endfacet
  facet normal 0 1 0
    outer loop
      vertex 46.7375 6 -6
      vertex 34.1195 6 -12.6588
      vertex 33.8415 6 -12.5583
    endloop
  endfacet
  facet normal 0 1 0
    outer loop
      vertex 46.7375 6 -6
      vertex 34.6324 6 -12.9398
      vertex 34.1195 6 -12.6588
    endloop
  endfacet
  facet normal 0 1 0
    outer loop
      vertex 46.7375 6 -6
      vertex 34.7904 6 -13.0472
      vertex 34.6324 6 -12.9398
    endloop
  endfacet
  facet normal 0 1 0
    outer loop
      vertex 46.7375 6 -6
      vertex 35.2244 6 -13.4072
      vertex 34.7904 6 -13.0472
    endloop
  endfacet
  facet normal 0 1 0
    outer loop
      vertex 46.7375 6 -6
      vertex 35.4016 6 -13.5985
      vertex 35.2244 6 -13.4072
    endloop
  endfacet
  facet normal 0 1 0
    outer loop
      vertex 46.7375 6 -6
      vertex 36.2767 6 -14.8216
      vertex 35.4016 6 -13.5985
    endloop
  endfacet
  facet normal 0 1 0
    outer loop
      vertex 46.7375 6 -6
      vertex 36.5098 6 -15.4217
      vertex 36.2767 6 -14.8216
    endloop
  endfacet
  facet normal 0 1 0
    outer loop
      vertex 46.7375 6 -6
      vertex 36.5495 6 -16.5344
      vertex 36.5098 6 -15.4217
    endloop
  endfacet
  facet normal 0 1 -0
    outer loop
      vertex 46.7375 6 -25.3
      vertex 36.5495 6 -16.5344
      vertex 46.7375 6 -6
    endloop
  endfacet
  facet normal 0 1 0
    outer loop
      vertex 36.5495 6 -16.5344
      vertex 46.7375 6 -25.3
      vertex 36.5495 6 -25.3
    endloop
  endfacet
  facet normal 0 1 -0
    outer loop
      vertex -25.2375 6 -1.5
      vertex -29.2375 6 0
      vertex -25.2375 6 0
    endloop
  endfacet
  facet normal 0 1 0
    outer loop
      vertex -29.2375 6 0
      vertex -25.2375 6 -1.5
      vertex -29.2375 6 -1.5
    endloop
  endfacet
  facet normal 0 1 -0
    outer loop
      vertex -32.2375 6 -1.5
      vertex -36.2375 6 0
      vertex -32.2375 6 0
    endloop
  endfacet
  facet normal 0 1 0
    outer loop
      vertex -36.2375 6 0
      vertex -32.2375 6 -1.5
      vertex -36.2375 6 -1.5
    endloop
  endfacet
  facet normal 0 1 -0
    outer loop
      vertex -39.2375 6 -1.5
      vertex -47.2375 6 0
      vertex -39.2375 6 0
    endloop
  endfacet
  facet normal 0 1 -0
    outer loop
      vertex -8.77754 6 -6.00019
      vertex -22.2375 6 0
      vertex -8.75999 6 -6
    endloop
  endfacet
  facet normal 0 1 0
    outer loop
      vertex -8.75999 6 -6
      vertex -3.61499 6 -5.59999
      vertex -3.61499 6 -6
    endloop
  endfacet
  facet normal 0 1 0
    outer loop
      vertex -29.2375 6 -1.5
      vertex -46.7375 6 -6
      vertex -32.2375 6 -1.5
    endloop
  endfacet
  facet normal 0 1 0
    outer loop
      vertex -36.2375 6 -1.5
      vertex -46.7375 6 -6
      vertex -39.2375 6 -1.5
    endloop
  endfacet
  facet normal 0 1 -0
    outer loop
      vertex -46.7375 6 -6
      vertex -47.2375 6 0
      vertex -39.2375 6 -1.5
    endloop
  endfacet
  facet normal 0 1 0
    outer loop
      vertex -47.2375 6 0
      vertex -46.7375 6 -6
      vertex -47.2375 6 -6
    endloop
  endfacet
  facet normal 0 -1 0
    outer loop
      vertex 10.5458 -6 -7.33955
      vertex 47.2375 -6 0
      vertex 10.4614 -6 -7.32567
    endloop
  endfacet
  facet normal 0 -1 0
    outer loop
      vertex 13.58 -6 -7.90189
      vertex 47.2375 -6 0
      vertex 10.5458 -6 -7.33955
    endloop
  endfacet
  facet normal 0 -1 0
    outer loop
      vertex 19.2592 -6 -9.00447
      vertex 47.2375 -6 0
      vertex 13.58 -6 -7.90189
    endloop
  endfacet
  facet normal 0 -1 0
    outer loop
      vertex 21.8766 -6 -9.51891
      vertex 47.2375 -6 0
      vertex 19.2592 -6 -9.00447
    endloop
  endfacet
  facet normal 0 -1 0
    outer loop
      vertex 22.0127 -6 -9.54997
      vertex 47.2375 -6 0
      vertex 21.8766 -6 -9.51891
    endloop
  endfacet
  facet normal 0 -1 0
    outer loop
      vertex 30.4751 -6 -11.6842
      vertex 47.2375 -6 0
      vertex 22.0127 -6 -9.54997
    endloop
  endfacet
  facet normal 0 -1 0
    outer loop
      vertex 33.8415 -6 -12.5583
      vertex 47.2375 -6 0
      vertex 30.4751 -6 -11.6842
    endloop
  endfacet
  facet normal 0 -1 0
    outer loop
      vertex 47.2375 -6 0
      vertex 33.8415 -6 -12.5583
      vertex 46.7375 -6 -6
    endloop
  endfacet
  facet normal 0 -1 0
    outer loop
      vertex 34.1195 -6 -12.6588
      vertex 46.7375 -6 -6
      vertex 33.8415 -6 -12.5583
    endloop
  endfacet
  facet normal 0 -1 0
    outer loop
      vertex 34.6324 -6 -12.9398
      vertex 46.7375 -6 -6
      vertex 34.1195 -6 -12.6588
    endloop
  endfacet
  facet normal 0 -1 0
    outer loop
      vertex 34.7904 -6 -13.0472
      vertex 46.7375 -6 -6
      vertex 34.6324 -6 -12.9398
    endloop
  endfacet
  facet normal 0 -1 0
    outer loop
      vertex 35.2244 -6 -13.4072
      vertex 46.7375 -6 -6
      vertex 34.7904 -6 -13.0472
    endloop
  endfacet
  facet normal 0 -1 0
    outer loop
      vertex 35.4016 -6 -13.5985
      vertex 46.7375 -6 -6
      vertex 35.2244 -6 -13.4072
    endloop
  endfacet
  facet normal 0 -1 0
    outer loop
      vertex 36.2767 -6 -14.8216
      vertex 46.7375 -6 -6
      vertex 35.4016 -6 -13.5985
    endloop
  endfacet
  facet normal 0 -1 0
    outer loop
      vertex 36.5098 -6 -15.4217
      vertex 46.7375 -6 -6
      vertex 36.2767 -6 -14.8216
    endloop
  endfacet
  facet normal 0 -1 0
    outer loop
      vertex 36.5495 -6 -16.5344
      vertex 46.7375 -6 -6
      vertex 36.5098 -6 -15.4217
    endloop
  endfacet
  facet normal 0 -1 0
    outer loop
      vertex 46.7375 -6 -25.3
      vertex 36.5495 -6 -16.5344
      vertex 36.5495 -6 -25.3
    endloop
  endfacet
  facet normal 0 -1 0
    outer loop
      vertex 36.5495 -6 -16.5344
      vertex 46.7375 -6 -25.3
      vertex 46.7375 -6 -6
    endloop
  endfacet
  facet normal 0 -1 0
    outer loop
      vertex -47.2375 -6 0
      vertex -39.2375 -6 -1.5
      vertex -39.2375 -6 0
    endloop
  endfacet
  facet normal 0 -1 0
    outer loop
      vertex -32.9622 -6 -13.3871
      vertex -36.2375 -6 -1.5
      vertex -39.2375 -6 -1.5
    endloop
  endfacet
  facet normal -0 -1 0
    outer loop
      vertex -30.7179 -6 -11.4509
      vertex -36.2375 -6 -1.5
      vertex -31.5238 -6 -12.1265
    endloop
  endfacet
  facet normal -0 -1 0
    outer loop
      vertex -29.7659 -6 -10.8363
      vertex -32.2375 -6 -1.5
      vertex -30.6339 -6 -11.3893
    endloop
  endfacet
  facet normal -0 -1 0
    outer loop
      vertex -27.8071 -6 -9.82217
      vertex -29.2375 -6 -1.5
      vertex -28.7747 -6 -10.332
    endloop
  endfacet
  facet normal -0 -1 0
    outer loop
      vertex -25.602 -6 -8.7061
      vertex -29.2375 -6 -1.5
      vertex -26.701 -6 -9.1911
    endloop
  endfacet
  facet normal -0 -1 0
    outer loop
      vertex -8.77754 -6 -6.00019
      vertex -22.2375 -6 -1.5
      vertex -10.3275 -6 -6.03421
    endloop
  endfacet
  facet normal 0 -1 0
    outer loop
      vertex -46.7375 -6 -6
      vertex -47.2375 -6 0
      vertex -47.2375 -6 -6
    endloop
  endfacet
  facet normal 0 -1 0
    outer loop
      vertex -47.2375 -6 0
      vertex -46.7375 -6 -6
      vertex -39.2375 -6 -1.5
    endloop
  endfacet
  facet normal 0 -1 0
    outer loop
      vertex -33.6436 -6 -14.1875
      vertex -39.2375 -6 -1.5
      vertex -46.7375 -6 -6
    endloop
  endfacet
  facet normal 0 -1 0
    outer loop
      vertex -22.2375 -6 -1.5
      vertex -8.75999 -6 -6
      vertex -3.61499 -6 -5.59999
    endloop
  endfacet
  facet normal -0 -1 0
    outer loop
      vertex -8.75999 -6 -6
      vertex -22.2375 -6 -1.5
      vertex -8.77754 -6 -6.00019
    endloop
  endfacet
  facet normal 0 -1 0
    outer loop
      vertex -22.2375 -6 -1.5
      vertex -10.3845 -6 -6.03749
      vertex -10.3275 -6 -6.03421
    endloop
  endfacet
  facet normal 0 -1 0
    outer loop
      vertex -11.8754 -6 -6.177
      vertex -22.2375 -6 -1.5
      vertex -13.342 -6 -6.177
    endloop
  endfacet
  facet normal 0 -1 0
    outer loop
      vertex -22.2375 -6 -1.5
      vertex -13.4288 -6 -6.18171
      vertex -13.342 -6 -6.177
    endloop
  endfacet
  facet normal 0 -1 0
    outer loop
      vertex -22.2375 -6 -1.5
      vertex -14.9048 -6 -6.34272
      vertex -13.4288 -6 -6.18171
    endloop
  endfacet
  facet normal 0 -1 0
    outer loop
      vertex -22.2375 -6 -1.5
      vertex -14.9395 -6 -6.34729
      vertex -14.9048 -6 -6.34272
    endloop
  endfacet
  facet normal -0 -1 0
    outer loop
      vertex -16.3677 -6 -6.56671
      vertex -22.2375 -6 -1.5
      vertex -17.7628 -6 -6.72084
    endloop
  endfacet
  facet normal 0 -1 0
    outer loop
      vertex -22.2375 -6 -1.5
      vertex -16.3677 -6 -6.56671
      vertex -14.9395 -6 -6.34729
    endloop
  endfacet
  facet normal 0 -1 0
    outer loop
      vertex -22.2375 -6 -1.5
      vertex -17.8558 -6 -6.73671
      vertex -17.7628 -6 -6.72084
    endloop
  endfacet
  facet normal -0 -1 0
    outer loop
      vertex -19.1931 -6 -7.04698
      vertex -22.2375 -6 -1.5
      vertex -20.4911 -6 -7.21893
    endloop
  endfacet
  facet normal 0 -1 0
    outer loop
      vertex -22.2375 -6 -1.5
      vertex -19.1931 -6 -7.04698
      vertex -17.8558 -6 -6.73671
    endloop
  endfacet
  facet normal 0 -1 0
    outer loop
      vertex -22.2375 -6 -1.5
      vertex -20.6061 -6 -7.24287
      vertex -20.4911 -6 -7.21893
    endloop
  endfacet
  facet normal 0 -1 0
    outer loop
      vertex -22.2375 -6 -1.5
      vertex -21.8893 -6 -7.61006
      vertex -20.6061 -6 -7.24287
    endloop
  endfacet
  facet normal 0 -1 -0
    outer loop
      vertex -22.2375 -6 -1.5
      vertex -23.1269 -6 -7.92938
      vertex -21.8893 -6 -7.61006
    endloop
  endfacet
  facet normal 0 -1 0
    outer loop
      vertex -25.2375 -6 -1.5
      vertex -23.1269 -6 -7.92938
      vertex -22.2375 -6 -1.5
    endloop
  endfacet
  facet normal -0 -1 0
    outer loop
      vertex -23.1269 -6 -7.92938
      vertex -25.2375 -6 -1.5
      vertex -23.1798 -6 -7.94499
    endloop
  endfacet
  facet normal -0 -1 0
    outer loop
      vertex -23.1798 -6 -7.94499
      vertex -25.2375 -6 -1.5
      vertex -24.366 -6 -8.34007
    endloop
  endfacet
  facet normal -0 -1 0
    outer loop
      vertex -24.366 -6 -8.34007
      vertex -25.2375 -6 -1.5
      vertex -25.5019 -6 -8.66969
    endloop
  endfacet
  facet normal -0 -1 0
    outer loop
      vertex -25.5019 -6 -8.66969
      vertex -25.2375 -6 -1.5
      vertex -25.602 -6 -8.7061
    endloop
  endfacet
  facet normal 0 -1 0
    outer loop
      vertex -29.2375 -6 -1.5
      vertex -25.602 -6 -8.7061
      vertex -25.2375 -6 -1.5
    endloop
  endfacet
  facet normal -0 -1 0
    outer loop
      vertex -26.701 -6 -9.1911
      vertex -29.2375 -6 -1.5
      vertex -26.7769 -6 -9.22955
    endloop
  endfacet
  facet normal -0 -1 0
    outer loop
      vertex -26.7769 -6 -9.22955
      vertex -29.2375 -6 -1.5
      vertex -27.8071 -6 -9.82217
    endloop
  endfacet
  facet normal 0 -1 0
    outer loop
      vertex -32.2375 -6 -1.5
      vertex -28.7747 -6 -10.332
      vertex -29.2375 -6 -1.5
    endloop
  endfacet
  facet normal -0 -1 0
    outer loop
      vertex -28.7747 -6 -10.332
      vertex -32.2375 -6 -1.5
      vertex -29.6962 -6 -10.7967
    endloop
  endfacet
  facet normal -0 -1 0
    outer loop
      vertex -29.6962 -6 -10.7967
      vertex -32.2375 -6 -1.5
      vertex -29.7659 -6 -10.8363
    endloop
  endfacet
  facet normal 0 -1 0
    outer loop
      vertex -32.2375 -6 -1.5
      vertex -30.7179 -6 -11.4509
      vertex -30.6339 -6 -11.3893
    endloop
  endfacet
  facet normal 0 -1 0
    outer loop
      vertex -36.2375 -6 -1.5
      vertex -30.7179 -6 -11.4509
      vertex -32.2375 -6 -1.5
    endloop
  endfacet
  facet normal 0 -1 0
    outer loop
      vertex -36.2375 -6 -1.5
      vertex -32.2648 -6 -12.7515
      vertex -31.5238 -6 -12.1265
    endloop
  endfacet
  facet normal 0 -1 0
    outer loop
      vertex -36.2375 -6 -1.5
      vertex -32.2882 -6 -12.772
      vertex -32.2648 -6 -12.7515
    endloop
  endfacet
  facet normal 0 -1 0
    outer loop
      vertex -36.2375 -6 -1.5
      vertex -32.9622 -6 -13.3871
      vertex -32.2882 -6 -12.772
    endloop
  endfacet
  facet normal 0 -1 0
    outer loop
      vertex -39.2375 -6 -1.5
      vertex -33.0356 -6 -13.4635
      vertex -32.9622 -6 -13.3871
    endloop
  endfacet
  facet normal 0 -1 0
    outer loop
      vertex -39.2375 -6 -1.5
      vertex -33.6436 -6 -14.1875
      vertex -33.0356 -6 -13.4635
    endloop
  endfacet
  facet normal 0 -1 0
    outer loop
      vertex -46.7375 -6 -6
      vertex -33.6675 -6 -14.2174
      vertex -33.6436 -6 -14.1875
    endloop
  endfacet
  facet normal 0 -1 0
    outer loop
      vertex -46.7375 -6 -6
      vertex -34.2038 -6 -14.9219
      vertex -33.6675 -6 -14.2174
    endloop
  endfacet
  facet normal 0 -1 0
    outer loop
      vertex -46.7375 -6 -6
      vertex -34.6728 -6 -15.5309
      vertex -34.2038 -6 -14.9219
    endloop
  endfacet
  facet normal 0 -1 0
    outer loop
      vertex -46.7375 -6 -6
      vertex -34.7691 -6 -15.692
      vertex -34.6728 -6 -15.5309
    endloop
  endfacet
  facet normal 0 -1 0
    outer loop
      vertex -46.7375 -6 -6
      vertex -35.1681 -6 -16.583
      vertex -34.7691 -6 -15.692
    endloop
  endfacet
  facet normal 0 -1 0
    outer loop
      vertex -46.7375 -6 -6
      vertex -35.1896 -6 -16.636
      vertex -35.1681 -6 -16.583
    endloop
  endfacet
  facet normal 0 -1 0
    outer loop
      vertex -46.7375 -6 -6
      vertex -35.5126 -6 -17.5221
      vertex -35.1896 -6 -16.636
    endloop
  endfacet
  facet normal 0 -1 0
    outer loop
      vertex -35.9614 -6 -18.4281
      vertex -35.5126 -6 -17.5221
      vertex -46.7375 -6 -6
    endloop
  endfacet
  facet normal 0 -1 0
    outer loop
      vertex -35.5126 -6 -17.5221
      vertex -35.9614 -6 -18.4281
      vertex -35.7435 -6 -18.1029
    endloop
  endfacet
  facet normal 0 -1 0
    outer loop
      vertex -35.7435 -6 -18.1029
      vertex -35.9614 -6 -18.4281
      vertex -35.8624 -6 -18.3107
    endloop
  endfacet
  facet normal 0 -1 0
    outer loop
      vertex -46.7375 -6 -6
      vertex -36.1499 -6 -18.9571
      vertex -35.9614 -6 -18.4281
    endloop
  endfacet
  facet normal 0 -1 0
    outer loop
      vertex -46.7375 -6 -25.3
      vertex -36.1499 -6 -18.9571
      vertex -46.7375 -6 -6
    endloop
  endfacet
  facet normal 0 -1 -0
    outer loop
      vertex -36.1499 -6 -18.9571
      vertex -46.7375 -6 -25.3
      vertex -36.1129 -6 -21.227
    endloop
  endfacet
  facet normal 0 -1 -0
    outer loop
      vertex -36.1129 -6 -21.227
      vertex -46.7375 -6 -25.3
      vertex -36.0602 -6 -21.4998
    endloop
  endfacet
  facet normal 0 -1 -0
    outer loop
      vertex -36.0602 -6 -21.4998
      vertex -46.7375 -6 -25.3
      vertex -35.9561 -6 -21.772
    endloop
  endfacet
  facet normal 0 -1 -0
    outer loop
      vertex -35.9561 -6 -21.772
      vertex -46.7375 -6 -25.3
      vertex -35.7829 -6 -22.2756
    endloop
  endfacet
  facet normal 0 -1 -0
    outer loop
      vertex -35.7829 -6 -22.2756
      vertex -46.7375 -6 -25.3
      vertex -35.5317 -6 -23.1185
    endloop
  endfacet
  facet normal 0 -1 -0
    outer loop
      vertex -35.5317 -6 -23.1185
      vertex -46.7375 -6 -25.3
      vertex -35.5122 -6 -23.1758
    endloop
  endfacet
  facet normal 0 -1 -0
    outer loop
      vertex -35.5122 -6 -23.1758
      vertex -46.7375 -6 -25.3
      vertex -35.1852 -6 -24.0308
    endloop
  endfacet
  facet normal 0 -1 -0
    outer loop
      vertex -35.1852 -6 -24.0308
      vertex -46.7375 -6 -25.3
      vertex -35.1573 -6 -24.095
    endloop
  endfacet
  facet normal 0 -1 -0
    outer loop
      vertex -35.1573 -6 -24.095
      vertex -46.7375 -6 -25.3
      vertex -34.7583 -6 -24.915
    endloop
  endfacet
  facet normal 0 -1 -0
    outer loop
      vertex -34.7583 -6 -24.915
      vertex -46.7375 -6 -25.3
      vertex -34.726 -6 -24.9749
    endloop
  endfacet
  facet normal 0 -1 -0
    outer loop
      vertex -34.726 -6 -24.9749
      vertex -46.7375 -6 -25.3
      vertex -34.532 -6 -25.3
    endloop
  endfacet
  facet normal 0 -1 0
    outer loop
      vertex -36.2375 -6 -1.5
      vertex -32.2375 -6 0
      vertex -36.2375 -6 0
    endloop
  endfacet
  facet normal 0 -1 -0
    outer loop
      vertex -32.2375 -6 0
      vertex -36.2375 -6 -1.5
      vertex -32.2375 -6 -1.5
    endloop
  endfacet
  facet normal 0 -1 0
    outer loop
      vertex -29.2375 -6 -1.5
      vertex -25.2375 -6 0
      vertex -29.2375 -6 0
    endloop
  endfacet
  facet normal 0 -1 -0
    outer loop
      vertex -25.2375 -6 0
      vertex -29.2375 -6 -1.5
      vertex -25.2375 -6 -1.5
    endloop
  endfacet
  facet normal 0 -1 0
    outer loop
      vertex -3.61499 -6 -5.59999
      vertex -22.2375 -6 0
      vertex -22.2375 -6 -1.5
    endloop
  endfacet
  facet normal 0 -1 0
    outer loop
      vertex -22.2375 -6 0
      vertex -3.61499 -6 -5.59999
      vertex -2.38657 -6 -5.59999
    endloop
  endfacet
  facet normal 0 -1 0
    outer loop
      vertex -2.15907 -6 -5.62903
      vertex -22.2375 -6 0
      vertex -2.38657 -6 -5.59999
    endloop
  endfacet
  facet normal 0 -1 0
    outer loop
      vertex -22.2375 -6 0
      vertex -2.15907 -6 -5.62903
      vertex 47.2375 -6 0
    endloop
  endfacet
  facet normal 0 -1 0
    outer loop
      vertex 10.4614 -6 -7.32567
      vertex 47.2375 -6 0
      vertex -2.15907 -6 -5.62903
    endloop
  endfacet
  facet normal 0 -1 -0
    outer loop
      vertex 47.2375 -6 0
      vertex 46.7375 -6 -6
      vertex 47.2375 -6 -6
    endloop
  endfacet
  facet normal 0 -1 -0
    outer loop
      vertex -3.61499 -6 -5.59999
      vertex -8.75999 -6 -6
      vertex -3.61499 -6 -6
    endloop
  endfacet
  facet normal 0 -1 0
    outer loop
      vertex -22.2375 -6 -1.5
      vertex -11.8754 -6 -6.177
      vertex -10.3845 -6 -6.03749
    endloop
  endfacet
  facet normal -1 0 0
    outer loop
      vertex -36.2375 -6 -1.5
      vertex -36.2375 6 0
      vertex -36.2375 6 -1.5
    endloop
  endfacet
  facet normal -1 -0 0
    outer loop
      vertex -36.2375 6 0
      vertex -36.2375 -6 -1.5
      vertex -36.2375 -6 0
    endloop
  endfacet
  facet normal -0 0 1
    outer loop
      vertex -39.2375 6 -1.5
      vertex -36.2375 -6 -1.5
      vertex -36.2375 6 -1.5
    endloop
  endfacet
  facet normal 0 0 1
    outer loop
      vertex -36.2375 -6 -1.5
      vertex -39.2375 6 -1.5
      vertex -39.2375 -6 -1.5
    endloop
  endfacet
  facet normal 1 -0 0
    outer loop
      vertex -39.2375 -6 0
      vertex -39.2375 6 -1.5
      vertex -39.2375 6 0
    endloop
  endfacet
  facet normal 1 0 0
    outer loop
      vertex -39.2375 6 -1.5
      vertex -39.2375 -6 0
      vertex -39.2375 -6 -1.5
    endloop
  endfacet
  facet normal -1 0 0
    outer loop
      vertex -29.2375 -6 -1.5
      vertex -29.2375 6 0
      vertex -29.2375 6 -1.5
    endloop
  endfacet
  facet normal -1 -0 0
    outer loop
      vertex -29.2375 6 0
      vertex -29.2375 -6 -1.5
      vertex -29.2375 -6 0
    endloop
  endfacet
  facet normal -0 0 1
    outer loop
      vertex -32.2375 6 -1.5
      vertex -29.2375 -6 -1.5
      vertex -29.2375 6 -1.5
    endloop
  endfacet
  facet normal 0 0 1
    outer loop
      vertex -29.2375 -6 -1.5
      vertex -32.2375 6 -1.5
      vertex -32.2375 -6 -1.5
    endloop
  endfacet
  facet normal 1 -0 0
    outer loop
      vertex -32.2375 -6 0
      vertex -32.2375 6 -1.5
      vertex -32.2375 6 0
    endloop
  endfacet
  facet normal 1 0 0
    outer loop
      vertex -32.2375 6 -1.5
      vertex -32.2375 -6 0
      vertex -32.2375 -6 -1.5
    endloop
  endfacet
  facet normal -1 0 0
    outer loop
      vertex -22.2375 -6 -1.5
      vertex -22.2375 6 0
      vertex -22.2375 6 -1.5
    endloop
  endfacet
  facet normal -1 -0 0
    outer loop
      vertex -22.2375 6 0
      vertex -22.2375 -6 -1.5
      vertex -22.2375 -6 0
    endloop
  endfacet
  facet normal -0 0 1
    outer loop
      vertex -25.2375 6 -1.5
      vertex -22.2375 -6 -1.5
      vertex -22.2375 6 -1.5
    endloop
  endfacet
  facet normal 0 0 1
    outer loop
      vertex -22.2375 -6 -1.5
      vertex -25.2375 6 -1.5
      vertex -25.2375 -6 -1.5
    endloop
  endfacet
  facet normal 1 -0 0
    outer loop
      vertex -25.2375 -6 0
      vertex -25.2375 6 -1.5
      vertex -25.2375 6 0
    endloop
  endfacet
  facet normal 1 0 0
    outer loop
      vertex -25.2375 6 -1.5
      vertex -25.2375 -6 0
      vertex -25.2375 -6 -1.5
    endloop
  endfacet
endsolid OpenSCAD_Model
