solid OpenSCAD_Model
  facet normal 0 0 1
    outer loop
      vertex 42.475 6 0
      vertex 42.2461 3.93247 0
      vertex 42.475 4.13755 0
    endloop
  endfacet
  facet normal 0 0 1
    outer loop
      vertex 42.475 6 0
      vertex 41.9692 3.64523 0
      vertex 42.2461 3.93247 0
    endloop
  endfacet
  facet normal 0 0 1
    outer loop
      vertex 42.475 6 0
      vertex 41.714 3.33854 0
      vertex 41.9692 3.64523 0
    endloop
  endfacet
  facet normal 0 0 1
    outer loop
      vertex 42.475 6 0
      vertex 41.4818 3.01403 0
      vertex 41.714 3.33854 0
    endloop
  endfacet
  facet normal 0 0 1
    outer loop
      vertex 42.475 6 0
      vertex 41.2739 2.67344 0
      vertex 41.4818 3.01403 0
    endloop
  endfacet
  facet normal 0 0 1
    outer loop
      vertex 42.475 6 0
      vertex 41.0915 2.31859 0
      vertex 41.2739 2.67344 0
    endloop
  endfacet
  facet normal 0 0 1
    outer loop
      vertex 42.475 6 0
      vertex 40.9354 1.95137 0
      vertex 41.0915 2.31859 0
    endloop
  endfacet
  facet normal 0 0 1
    outer loop
      vertex 40.5896 0.398736 0
      vertex -40.575 0 0
      vertex 40.575 0 0
    endloop
  endfacet
  facet normal 0 0 1
    outer loop
      vertex -40.5896 0.398736 0
      vertex 40.5896 0.398736 0
      vertex 40.6332 0.795346 0
    endloop
  endfacet
  facet normal 0 0 1
    outer loop
      vertex -40.6332 0.795346 0
      vertex 40.6332 0.795346 0
      vertex 40.7057 1.18771 0
    endloop
  endfacet
  facet normal 0 0 1
    outer loop
      vertex -40.7057 1.18771 0
      vertex 40.7057 1.18771 0
      vertex 40.8066 1.57374 0
    endloop
  endfacet
  facet normal 0 0 1
    outer loop
      vertex -40.8066 1.57374 0
      vertex 40.8066 1.57374 0
      vertex 40.9354 1.95137 0
    endloop
  endfacet
  facet normal 0 0 1
    outer loop
      vertex -40.9354 1.95137 0
      vertex 40.9354 1.95137 0
      vertex 42.475 6 0
    endloop
  endfacet
  facet normal 0 0 1
    outer loop
      vertex 40.5896 0.398736 0
      vertex -40.5896 0.398736 0
      vertex -40.575 0 0
    endloop
  endfacet
  facet normal 0 0 1
    outer loop
      vertex 40.6332 0.795346 0
      vertex -40.6332 0.795346 0
      vertex -40.5896 0.398736 0
    endloop
  endfacet
  facet normal 0 0 1
    outer loop
      vertex 40.7057 1.18771 0
      vertex -40.7057 1.18771 0
      vertex -40.6332 0.795346 0
    endloop
  endfacet
  facet normal 0 0 1
    outer loop
      vertex 40.8066 1.57374 0
      vertex -40.8066 1.57374 0
      vertex -40.7057 1.18771 0
    endloop
  endfacet
  facet normal 0 0 1
    outer loop
      vertex 40.9354 1.95137 0
      vertex -40.9354 1.95137 0
      vertex -40.8066 1.57374 0
    endloop
  endfacet
  facet normal 0 0 1
    outer loop
      vertex 42.475 6 0
      vertex -41.0915 2.31859 0
      vertex -40.9354 1.95137 0
    endloop
  endfacet
  facet normal -0 0 1
    outer loop
      vertex -42.475 6 0
      vertex -41.0915 2.31859 0
      vertex 42.475 6 0
    endloop
  endfacet
  facet normal 0 0 1
    outer loop
      vertex -41.0915 2.31859 0
      vertex -42.475 6 0
      vertex -41.2739 2.67344 0
    endloop
  endfacet
  facet normal 0 0 1
    outer loop
      vertex -41.2739 2.67344 0
      vertex -42.475 6 0
      vertex -41.4818 3.01403 0
    endloop
  endfacet
  facet normal 0 0 1
    outer loop
      vertex -41.4818 3.01403 0
      vertex -42.475 6 0
      vertex -41.714 3.33854 0
    endloop
  endfacet
  facet normal 0 0 1
    outer loop
      vertex -41.714 3.33854 0
      vertex -42.475 6 0
      vertex -41.9692 3.64523 0
    endloop
  endfacet
  facet normal 0 0 1
    outer loop
      vertex -41.9692 3.64523 0
      vertex -42.475 6 0
      vertex -42.2461 3.93247 0
    endloop
  endfacet
  facet normal 0 0 1
    outer loop
      vertex -42.2461 3.93247 0
      vertex -42.475 6 0
      vertex -42.475 4.13755 0
    endloop
  endfacet
  facet normal 0 0 1
    outer loop
      vertex 42.2461 -3.93247 0
      vertex 42.475 -6 0
      vertex 42.475 -4.13755 0
    endloop
  endfacet
  facet normal 0 0 1
    outer loop
      vertex 41.9692 -3.64523 0
      vertex 42.475 -6 0
      vertex 42.2461 -3.93247 0
    endloop
  endfacet
  facet normal 0 0 1
    outer loop
      vertex 41.714 -3.33854 0
      vertex 42.475 -6 0
      vertex 41.9692 -3.64523 0
    endloop
  endfacet
  facet normal 0 0 1
    outer loop
      vertex 41.4818 -3.01403 0
      vertex 42.475 -6 0
      vertex 41.714 -3.33854 0
    endloop
  endfacet
  facet normal 0 0 1
    outer loop
      vertex 41.2739 -2.67344 0
      vertex 42.475 -6 0
      vertex 41.4818 -3.01403 0
    endloop
  endfacet
  facet normal 0 0 1
    outer loop
      vertex 41.0915 -2.31859 0
      vertex 42.475 -6 0
      vertex 41.2739 -2.67344 0
    endloop
  endfacet
  facet normal 0 0 1
    outer loop
      vertex 40.9354 -1.95137 0
      vertex 42.475 -6 0
      vertex 41.0915 -2.31859 0
    endloop
  endfacet
  facet normal -0 0 1
    outer loop
      vertex -40.575 0 0
      vertex 40.5896 -0.398736 0
      vertex 40.575 0 0
    endloop
  endfacet
  facet normal 0 0 1
    outer loop
      vertex -40.5896 -0.398736 0
      vertex 40.5896 -0.398736 0
      vertex -40.575 0 0
    endloop
  endfacet
  facet normal 0 0 1
    outer loop
      vertex 40.5896 -0.398736 0
      vertex -40.5896 -0.398736 0
      vertex 40.6332 -0.795346 0
    endloop
  endfacet
  facet normal 0 0 1
    outer loop
      vertex -40.6332 -0.795346 0
      vertex 40.6332 -0.795346 0
      vertex -40.5896 -0.398736 0
    endloop
  endfacet
  facet normal 0 0 1
    outer loop
      vertex 40.6332 -0.795346 0
      vertex -40.6332 -0.795346 0
      vertex 40.7057 -1.18771 0
    endloop
  endfacet
  facet normal 0 0 1
    outer loop
      vertex -40.7057 -1.18771 0
      vertex 40.7057 -1.18771 0
      vertex -40.6332 -0.795346 0
    endloop
  endfacet
  facet normal 0 0 1
    outer loop
      vertex 40.7057 -1.18771 0
      vertex -40.7057 -1.18771 0
      vertex 40.8066 -1.57374 0
    endloop
  endfacet
  facet normal 0 0 1
    outer loop
      vertex -40.8066 -1.57374 0
      vertex 40.8066 -1.57374 0
      vertex -40.7057 -1.18771 0
    endloop
  endfacet
  facet normal 0 0 1
    outer loop
      vertex 40.8066 -1.57374 0
      vertex -40.8066 -1.57374 0
      vertex 40.9354 -1.95137 0
    endloop
  endfacet
  facet normal 0 0 1
    outer loop
      vertex -40.9354 -1.95137 0
      vertex 40.9354 -1.95137 0
      vertex -40.8066 -1.57374 0
    endloop
  endfacet
  facet normal 0 0 1
    outer loop
      vertex 40.9354 -1.95137 0
      vertex -40.9354 -1.95137 0
      vertex 42.475 -6 0
    endloop
  endfacet
  facet normal -0 0 1
    outer loop
      vertex -41.0915 -2.31859 0
      vertex 42.475 -6 0
      vertex -40.9354 -1.95137 0
    endloop
  endfacet
  facet normal 0 0 1
    outer loop
      vertex -42.475 -6 0
      vertex -41.0915 -2.31859 0
      vertex -41.2739 -2.67344 0
    endloop
  endfacet
  facet normal 0 0 1
    outer loop
      vertex -42.475 -6 0
      vertex -41.2739 -2.67344 0
      vertex -41.4818 -3.01403 0
    endloop
  endfacet
  facet normal 0 0 1
    outer loop
      vertex -42.475 -6 0
      vertex -41.4818 -3.01403 0
      vertex -41.714 -3.33854 0
    endloop
  endfacet
  facet normal 0 0 1
    outer loop
      vertex -42.475 -6 0
      vertex -41.714 -3.33854 0
      vertex -41.9692 -3.64523 0
    endloop
  endfacet
  facet normal 0 0 1
    outer loop
      vertex -42.475 -6 0
      vertex -41.9692 -3.64523 0
      vertex -42.2461 -3.93247 0
    endloop
  endfacet
  facet normal 0 0 1
    outer loop
      vertex -42.475 -6 0
      vertex -42.2461 -3.93247 0
      vertex -42.475 -4.13755 0
    endloop
  endfacet
  facet normal 0 0 1
    outer loop
      vertex -41.0915 -2.31859 0
      vertex -42.475 -6 0
      vertex 42.475 -6 0
    endloop
  endfacet
  facet normal 0 0 -1
    outer loop
      vertex -41.975 -6 -6
      vertex -42.2461 -3.93247 -6
      vertex -41.975 -3.65126 -6
    endloop
  endfacet
  facet normal 0 0 -1
    outer loop
      vertex -42.475 -4.13755 -6
      vertex -41.975 -6 -6
      vertex -42.475 -6 -6
    endloop
  endfacet
  facet normal 0 0 -1
    outer loop
      vertex -41.975 -6 -6
      vertex -42.475 -4.13755 -6
      vertex -42.2461 -3.93247 -6
    endloop
  endfacet
  facet normal 0 0 -1
    outer loop
      vertex 41.975 -6 -6
      vertex 42.475 -4.13755 -6
      vertex 42.475 -6 -6
    endloop
  endfacet
  facet normal -0 0 -1
    outer loop
      vertex 42.475 -4.13755 -6
      vertex 41.975 -6 -6
      vertex 42.2461 -3.93247 -6
    endloop
  endfacet
  facet normal -0 0 -1
    outer loop
      vertex 42.2461 -3.93247 -6
      vertex 41.975 -6 -6
      vertex 41.975 -3.65126 -6
    endloop
  endfacet
  facet normal 0 0 -1
    outer loop
      vertex -42.2461 3.93247 -6
      vertex -41.975 6 -6
      vertex -41.975 3.65126 -6
    endloop
  endfacet
  facet normal 0 0 -1
    outer loop
      vertex -42.475 4.13755 -6
      vertex -41.975 6 -6
      vertex -42.2461 3.93247 -6
    endloop
  endfacet
  facet normal -0 0 -1
    outer loop
      vertex -41.975 6 -6
      vertex -42.475 4.13755 -6
      vertex -42.475 6 -6
    endloop
  endfacet
  facet normal 0 0 -1
    outer loop
      vertex 41.975 6 -6
      vertex 42.475 4.13755 -6
      vertex 42.2461 3.93247 -6
    endloop
  endfacet
  facet normal 0 0 -1
    outer loop
      vertex 41.975 6 -6
      vertex 42.2461 3.93247 -6
      vertex 41.975 3.65126 -6
    endloop
  endfacet
  facet normal 0 0 -1
    outer loop
      vertex 42.475 4.13755 -6
      vertex 41.975 6 -6
      vertex 42.475 6 -6
    endloop
  endfacet
  facet normal 1 -0 0
    outer loop
      vertex 41.975 3.65126 -6
      vertex 41.975 6 -25.3
      vertex 41.975 6 -6
    endloop
  endfacet
  facet normal 1 0 0
    outer loop
      vertex 41.975 6 -25.3
      vertex 41.975 3.65126 -6
      vertex 41.975 3.65126 -25.3
    endloop
  endfacet
  facet normal 1 -0 0
    outer loop
      vertex 41.975 -6 -6
      vertex 41.975 -3.65126 -25.3
      vertex 41.975 -3.65126 -6
    endloop
  endfacet
  facet normal 1 0 0
    outer loop
      vertex 41.975 -3.65126 -25.3
      vertex 41.975 -6 -6
      vertex 41.975 -6 -25.3
    endloop
  endfacet
  facet normal 0 0 -1
    outer loop
      vertex -34.3457 -6 -25.3
      vertex -40.575 0 -25.3
      vertex -34.3457 6 -25.3
    endloop
  endfacet
  facet normal 0 0 -1
    outer loop
      vertex -34.3457 -6 -25.3
      vertex -40.5896 -0.398736 -25.3
      vertex -40.575 0 -25.3
    endloop
  endfacet
  facet normal 0 0 -1
    outer loop
      vertex -34.3457 -6 -25.3
      vertex -40.6332 -0.795346 -25.3
      vertex -40.5896 -0.398736 -25.3
    endloop
  endfacet
  facet normal 0 0 -1
    outer loop
      vertex -34.3457 -6 -25.3
      vertex -40.7057 -1.18771 -25.3
      vertex -40.6332 -0.795346 -25.3
    endloop
  endfacet
  facet normal 0 0 -1
    outer loop
      vertex -34.3457 -6 -25.3
      vertex -40.8066 -1.57374 -25.3
      vertex -40.7057 -1.18771 -25.3
    endloop
  endfacet
  facet normal 0 0 -1
    outer loop
      vertex -34.3457 -6 -25.3
      vertex -40.9354 -1.95137 -25.3
      vertex -40.8066 -1.57374 -25.3
    endloop
  endfacet
  facet normal 0 0 -1
    outer loop
      vertex -34.3457 -6 -25.3
      vertex -41.0915 -2.31859 -25.3
      vertex -40.9354 -1.95137 -25.3
    endloop
  endfacet
  facet normal 0 0 -1
    outer loop
      vertex -34.3457 -6 -25.3
      vertex -41.2739 -2.67344 -25.3
      vertex -41.0915 -2.31859 -25.3
    endloop
  endfacet
  facet normal 0 0 -1
    outer loop
      vertex -34.3457 -6 -25.3
      vertex -41.4818 -3.01403 -25.3
      vertex -41.2739 -2.67344 -25.3
    endloop
  endfacet
  facet normal 0 0 -1
    outer loop
      vertex -41.975 -6 -25.3
      vertex -41.4818 -3.01403 -25.3
      vertex -34.3457 -6 -25.3
    endloop
  endfacet
  facet normal 0 0 -1
    outer loop
      vertex -41.4818 -3.01403 -25.3
      vertex -41.975 -6 -25.3
      vertex -41.714 -3.33854 -25.3
    endloop
  endfacet
  facet normal 0 0 -1
    outer loop
      vertex -41.714 -3.33854 -25.3
      vertex -41.975 -6 -25.3
      vertex -41.9692 -3.64523 -25.3
    endloop
  endfacet
  facet normal 0 0 -1
    outer loop
      vertex -41.9692 -3.64523 -25.3
      vertex -41.975 -6 -25.3
      vertex -41.975 -3.65126 -25.3
    endloop
  endfacet
  facet normal 0 0 -1
    outer loop
      vertex -40.5896 0.398736 -25.3
      vertex -34.3457 6 -25.3
      vertex -40.575 0 -25.3
    endloop
  endfacet
  facet normal 0 0 -1
    outer loop
      vertex -40.6332 0.795346 -25.3
      vertex -34.3457 6 -25.3
      vertex -40.5896 0.398736 -25.3
    endloop
  endfacet
  facet normal 0 0 -1
    outer loop
      vertex -40.7057 1.18771 -25.3
      vertex -34.3457 6 -25.3
      vertex -40.6332 0.795346 -25.3
    endloop
  endfacet
  facet normal 0 0 -1
    outer loop
      vertex -40.8066 1.57374 -25.3
      vertex -34.3457 6 -25.3
      vertex -40.7057 1.18771 -25.3
    endloop
  endfacet
  facet normal 0 0 -1
    outer loop
      vertex -40.9354 1.95137 -25.3
      vertex -34.3457 6 -25.3
      vertex -40.8066 1.57374 -25.3
    endloop
  endfacet
  facet normal 0 0 -1
    outer loop
      vertex -41.0915 2.31859 -25.3
      vertex -34.3457 6 -25.3
      vertex -40.9354 1.95137 -25.3
    endloop
  endfacet
  facet normal 0 0 -1
    outer loop
      vertex -41.2739 2.67344 -25.3
      vertex -34.3457 6 -25.3
      vertex -41.0915 2.31859 -25.3
    endloop
  endfacet
  facet normal 0 0 -1
    outer loop
      vertex -41.4818 3.01403 -25.3
      vertex -34.3457 6 -25.3
      vertex -41.2739 2.67344 -25.3
    endloop
  endfacet
  facet normal 0 0 -1
    outer loop
      vertex -41.975 6 -25.3
      vertex -41.4818 3.01403 -25.3
      vertex -41.714 3.33854 -25.3
    endloop
  endfacet
  facet normal 0 0 -1
    outer loop
      vertex -41.975 6 -25.3
      vertex -41.714 3.33854 -25.3
      vertex -41.9692 3.64523 -25.3
    endloop
  endfacet
  facet normal 0 0 -1
    outer loop
      vertex -41.975 6 -25.3
      vertex -41.9692 3.64523 -25.3
      vertex -41.975 3.65126 -25.3
    endloop
  endfacet
  facet normal 0 0 -1
    outer loop
      vertex -41.4818 3.01403 -25.3
      vertex -41.975 6 -25.3
      vertex -34.3457 6 -25.3
    endloop
  endfacet
  facet normal 0 0 -1
    outer loop
      vertex 41.975 -6 -25.3
      vertex 41.9692 -3.64523 -25.3
      vertex 41.975 -3.65126 -25.3
    endloop
  endfacet
  facet normal 0 0 -1
    outer loop
      vertex 41.975 -6 -25.3
      vertex 41.714 -3.33854 -25.3
      vertex 41.9692 -3.64523 -25.3
    endloop
  endfacet
  facet normal 0 0 -1
    outer loop
      vertex 41.975 -6 -25.3
      vertex 41.4818 -3.01403 -25.3
      vertex 41.714 -3.33854 -25.3
    endloop
  endfacet
  facet normal 0 0 -1
    outer loop
      vertex 36.25 -6 -25.3
      vertex 41.4818 -3.01403 -25.3
      vertex 41.975 -6 -25.3
    endloop
  endfacet
  facet normal -0 0 -1
    outer loop
      vertex 41.4818 -3.01403 -25.3
      vertex 36.25 -6 -25.3
      vertex 41.2739 -2.67344 -25.3
    endloop
  endfacet
  facet normal -0 0 -1
    outer loop
      vertex 41.2739 -2.67344 -25.3
      vertex 36.25 -6 -25.3
      vertex 41.0915 -2.31859 -25.3
    endloop
  endfacet
  facet normal -0 0 -1
    outer loop
      vertex 41.0915 -2.31859 -25.3
      vertex 36.25 -6 -25.3
      vertex 40.9354 -1.95137 -25.3
    endloop
  endfacet
  facet normal -0 0 -1
    outer loop
      vertex 40.5896 -0.398736 -25.3
      vertex 36.25 -6 -25.3
      vertex 40.575 0 -25.3
    endloop
  endfacet
  facet normal -0 0 -1
    outer loop
      vertex 40.6332 -0.795346 -25.3
      vertex 36.25 -6 -25.3
      vertex 40.5896 -0.398736 -25.3
    endloop
  endfacet
  facet normal -0 0 -1
    outer loop
      vertex 40.7057 -1.18771 -25.3
      vertex 36.25 -6 -25.3
      vertex 40.6332 -0.795346 -25.3
    endloop
  endfacet
  facet normal -0 0 -1
    outer loop
      vertex 40.8066 -1.57374 -25.3
      vertex 36.25 -6 -25.3
      vertex 40.7057 -1.18771 -25.3
    endloop
  endfacet
  facet normal -0 0 -1
    outer loop
      vertex 40.9354 -1.95137 -25.3
      vertex 36.25 -6 -25.3
      vertex 40.8066 -1.57374 -25.3
    endloop
  endfacet
  facet normal 0 0 -1
    outer loop
      vertex 41.9692 3.64523 -25.3
      vertex 41.975 6 -25.3
      vertex 41.975 3.65126 -25.3
    endloop
  endfacet
  facet normal 0 0 -1
    outer loop
      vertex 41.714 3.33854 -25.3
      vertex 41.975 6 -25.3
      vertex 41.9692 3.64523 -25.3
    endloop
  endfacet
  facet normal 0 0 -1
    outer loop
      vertex 41.4818 3.01403 -25.3
      vertex 41.975 6 -25.3
      vertex 41.714 3.33854 -25.3
    endloop
  endfacet
  facet normal 0 0 -1
    outer loop
      vertex 36.25 6 -25.3
      vertex 41.4818 3.01403 -25.3
      vertex 41.2739 2.67344 -25.3
    endloop
  endfacet
  facet normal 0 0 -1
    outer loop
      vertex 36.25 6 -25.3
      vertex 41.2739 2.67344 -25.3
      vertex 41.0915 2.31859 -25.3
    endloop
  endfacet
  facet normal 0 0 -1
    outer loop
      vertex 36.25 6 -25.3
      vertex 41.0915 2.31859 -25.3
      vertex 40.9354 1.95137 -25.3
    endloop
  endfacet
  facet normal 0 0 -1
    outer loop
      vertex 36.25 6 -25.3
      vertex 40.9354 1.95137 -25.3
      vertex 40.8066 1.57374 -25.3
    endloop
  endfacet
  facet normal 0 0 -1
    outer loop
      vertex 36.25 6 -25.3
      vertex 40.575 0 -25.3
      vertex 36.25 -6 -25.3
    endloop
  endfacet
  facet normal 0 0 -1
    outer loop
      vertex 40.575 0 -25.3
      vertex 36.25 6 -25.3
      vertex 40.5896 0.398736 -25.3
    endloop
  endfacet
  facet normal 0 0 -1
    outer loop
      vertex 40.5896 0.398736 -25.3
      vertex 36.25 6 -25.3
      vertex 40.6332 0.795346 -25.3
    endloop
  endfacet
  facet normal 0 0 -1
    outer loop
      vertex 40.6332 0.795346 -25.3
      vertex 36.25 6 -25.3
      vertex 40.7057 1.18771 -25.3
    endloop
  endfacet
  facet normal 0 0 -1
    outer loop
      vertex 40.7057 1.18771 -25.3
      vertex 36.25 6 -25.3
      vertex 40.8066 1.57374 -25.3
    endloop
  endfacet
  facet normal 0 0 -1
    outer loop
      vertex 41.4818 3.01403 -25.3
      vertex 36.25 6 -25.3
      vertex 41.975 6 -25.3
    endloop
  endfacet
  facet normal -1 0 0
    outer loop
      vertex -41.975 3.65126 -25.3
      vertex -41.975 6 -6
      vertex -41.975 6 -25.3
    endloop
  endfacet
  facet normal -1 -0 0
    outer loop
      vertex -41.975 6 -6
      vertex -41.975 3.65126 -25.3
      vertex -41.975 3.65126 -6
    endloop
  endfacet
  facet normal -1 0 0
    outer loop
      vertex -41.975 -6 -25.3
      vertex -41.975 -3.65126 -6
      vertex -41.975 -3.65126 -25.3
    endloop
  endfacet
  facet normal -1 -0 0
    outer loop
      vertex -41.975 -3.65126 -6
      vertex -41.975 -6 -25.3
      vertex -41.975 -6 -6
    endloop
  endfacet
  facet normal 0.946462 0.322814 0
    outer loop
      vertex 40.9354 -1.95137 0
      vertex 40.8066 -1.57374 -25.3
      vertex 40.8066 -1.57374 0
    endloop
  endfacet
  facet normal 0.946462 0.322814 0
    outer loop
      vertex 40.8066 -1.57374 -25.3
      vertex 40.9354 -1.95137 0
      vertex 40.9354 -1.95137 -25.3
    endloop
  endfacet
  facet normal 0.994012 0.109273 0
    outer loop
      vertex 40.6332 -0.795346 0
      vertex 40.5896 -0.398736 -25.3
      vertex 40.5896 -0.398736 0
    endloop
  endfacet
  facet normal 0.994012 0.109273 0
    outer loop
      vertex 40.5896 -0.398736 -25.3
      vertex 40.6332 -0.795346 0
      vertex 40.6332 -0.795346 -25.3
    endloop
  endfacet
  facet normal 0.768683 0.63963 0
    outer loop
      vertex 41.9692 -3.64523 0
      vertex 41.714 -3.33854 -25.3
      vertex 41.714 -3.33854 0
    endloop
  endfacet
  facet normal 0.768683 0.63963 0
    outer loop
      vertex 41.714 -3.33854 -25.3
      vertex 41.9692 -3.64523 0
      vertex 41.9692 -3.64523 -25.3
    endloop
  endfacet
  facet normal 0.71993 -0.694047 0
    outer loop
      vertex 42.2461 3.93247 0
      vertex 41.975 3.65126 -6
      vertex 42.2461 3.93247 -6
    endloop
  endfacet
  facet normal 0.719946 -0.69403 -1.5519e-06
    outer loop
      vertex 41.9692 3.64523 0
      vertex 41.975 3.65126 -6
      vertex 42.2461 3.93247 0
    endloop
  endfacet
  facet normal 0.720718 -0.693228 0
    outer loop
      vertex 41.9692 3.64523 -25.3
      vertex 41.975 3.65126 -6
      vertex 41.9692 3.64523 0
    endloop
  endfacet
  facet normal 0.720718 -0.693228 0
    outer loop
      vertex 41.975 3.65126 -6
      vertex 41.9692 3.64523 -25.3
      vertex 41.975 3.65126 -25.3
    endloop
  endfacet
  facet normal 0.967497 0.252883 0
    outer loop
      vertex 40.8066 -1.57374 0
      vertex 40.7057 -1.18771 -25.3
      vertex 40.7057 -1.18771 0
    endloop
  endfacet
  facet normal 0.967497 0.252883 0
    outer loop
      vertex 40.7057 -1.18771 -25.3
      vertex 40.8066 -1.57374 0
      vertex 40.8066 -1.57374 -25.3
    endloop
  endfacet
  facet normal 0.768683 -0.63963 0
    outer loop
      vertex 41.714 3.33854 0
      vertex 41.9692 3.64523 -25.3
      vertex 41.9692 3.64523 0
    endloop
  endfacet
  facet normal 0.768683 -0.63963 0
    outer loop
      vertex 41.9692 3.64523 -25.3
      vertex 41.714 3.33854 0
      vertex 41.714 3.33854 -25.3
    endloop
  endfacet
  facet normal 0.983354 -0.181702 0
    outer loop
      vertex 40.6332 0.795346 0
      vertex 40.7057 1.18771 -25.3
      vertex 40.7057 1.18771 0
    endloop
  endfacet
  facet normal 0.983354 -0.181702 0
    outer loop
      vertex 40.7057 1.18771 -25.3
      vertex 40.6332 0.795346 0
      vertex 40.6332 0.795346 -25.3
    endloop
  endfacet
  facet normal 0.99933 -0.0365912 0
    outer loop
      vertex 40.575 0 0
      vertex 40.5896 0.398736 -25.3
      vertex 40.5896 0.398736 0
    endloop
  endfacet
  facet normal 0.99933 -0.0365912 0
    outer loop
      vertex 40.5896 0.398736 -25.3
      vertex 40.575 0 0
      vertex 40.575 0 -25.3
    endloop
  endfacet
  facet normal 0.667291 -0.744797 0
    outer loop
      vertex 42.2461 3.93247 -6
      vertex 42.475 4.13755 0
      vertex 42.2461 3.93247 0
    endloop
  endfacet
  facet normal 0.667291 -0.744797 0
    outer loop
      vertex 42.475 4.13755 0
      vertex 42.2461 3.93247 -6
      vertex 42.475 4.13755 -6
    endloop
  endfacet
  facet normal 0.920302 0.391208 0
    outer loop
      vertex 41.0915 -2.31859 0
      vertex 40.9354 -1.95137 -25.3
      vertex 40.9354 -1.95137 0
    endloop
  endfacet
  facet normal 0.920302 0.391208 0
    outer loop
      vertex 40.9354 -1.95137 -25.3
      vertex 41.0915 -2.31859 0
      vertex 41.0915 -2.31859 -25.3
    endloop
  endfacet
  facet normal 0.667291 0.744797 -0
    outer loop
      vertex 42.475 -4.13755 -6
      vertex 42.2461 -3.93247 0
      vertex 42.475 -4.13755 0
    endloop
  endfacet
  facet normal 0.667291 0.744797 0
    outer loop
      vertex 42.2461 -3.93247 0
      vertex 42.475 -4.13755 -6
      vertex 42.2461 -3.93247 -6
    endloop
  endfacet
  facet normal 0.946462 -0.322814 0
    outer loop
      vertex 40.8066 1.57374 0
      vertex 40.9354 1.95137 -25.3
      vertex 40.9354 1.95137 0
    endloop
  endfacet
  facet normal 0.946462 -0.322814 0
    outer loop
      vertex 40.9354 1.95137 -25.3
      vertex 40.8066 1.57374 0
      vertex 40.8066 1.57374 -25.3
    endloop
  endfacet
  facet normal 0.967497 -0.252883 0
    outer loop
      vertex 40.7057 1.18771 0
      vertex 40.8066 1.57374 -25.3
      vertex 40.8066 1.57374 0
    endloop
  endfacet
  facet normal 0.967497 -0.252883 0
    outer loop
      vertex 40.8066 1.57374 -25.3
      vertex 40.7057 1.18771 0
      vertex 40.7057 1.18771 -25.3
    endloop
  endfacet
  facet normal 0.720718 0.693228 0
    outer loop
      vertex 41.9692 -3.64523 0
      vertex 41.975 -3.65126 -6
      vertex 41.9692 -3.64523 -25.3
    endloop
  endfacet
  facet normal 0.719946 0.69403 -1.5519e-06
    outer loop
      vertex 42.2461 -3.93247 0
      vertex 41.975 -3.65126 -6
      vertex 41.9692 -3.64523 0
    endloop
  endfacet
  facet normal 0.71993 0.694047 0
    outer loop
      vertex 41.975 -3.65126 -6
      vertex 42.2461 -3.93247 0
      vertex 42.2461 -3.93247 -6
    endloop
  endfacet
  facet normal 0.720718 0.693228 0
    outer loop
      vertex 41.9692 -3.64523 -25.3
      vertex 41.975 -3.65126 -6
      vertex 41.975 -3.65126 -25.3
    endloop
  endfacet
  facet normal 0.920302 -0.391208 0
    outer loop
      vertex 40.9354 1.95137 0
      vertex 41.0915 2.31859 -25.3
      vertex 41.0915 2.31859 0
    endloop
  endfacet
  facet normal 0.920302 -0.391208 0
    outer loop
      vertex 41.0915 2.31859 -25.3
      vertex 40.9354 1.95137 0
      vertex 40.9354 1.95137 -25.3
    endloop
  endfacet
  facet normal 0.813251 -0.581914 0
    outer loop
      vertex 41.4818 3.01403 0
      vertex 41.714 3.33854 -25.3
      vertex 41.714 3.33854 0
    endloop
  endfacet
  facet normal 0.813251 -0.581914 0
    outer loop
      vertex 41.714 3.33854 -25.3
      vertex 41.4818 3.01403 0
      vertex 41.4818 3.01403 -25.3
    endloop
  endfacet
  facet normal 0.889384 -0.457161 0
    outer loop
      vertex 41.0915 2.31859 0
      vertex 41.2739 2.67344 -25.3
      vertex 41.2739 2.67344 0
    endloop
  endfacet
  facet normal 0.889384 -0.457161 0
    outer loop
      vertex 41.2739 2.67344 -25.3
      vertex 41.0915 2.31859 0
      vertex 41.0915 2.31859 -25.3
    endloop
  endfacet
  facet normal 0.889384 0.457161 0
    outer loop
      vertex 41.2739 -2.67344 0
      vertex 41.0915 -2.31859 -25.3
      vertex 41.0915 -2.31859 0
    endloop
  endfacet
  facet normal 0.889384 0.457161 0
    outer loop
      vertex 41.0915 -2.31859 -25.3
      vertex 41.2739 -2.67344 0
      vertex 41.2739 -2.67344 -25.3
    endloop
  endfacet
  facet normal 0.994012 -0.109273 0
    outer loop
      vertex 40.5896 0.398736 0
      vertex 40.6332 0.795346 -25.3
      vertex 40.6332 0.795346 0
    endloop
  endfacet
  facet normal 0.994012 -0.109273 0
    outer loop
      vertex 40.6332 0.795346 -25.3
      vertex 40.5896 0.398736 0
      vertex 40.5896 0.398736 -25.3
    endloop
  endfacet
  facet normal 0.983354 0.181702 0
    outer loop
      vertex 40.7057 -1.18771 0
      vertex 40.6332 -0.795346 -25.3
      vertex 40.6332 -0.795346 0
    endloop
  endfacet
  facet normal 0.983354 0.181702 0
    outer loop
      vertex 40.6332 -0.795346 -25.3
      vertex 40.7057 -1.18771 0
      vertex 40.7057 -1.18771 -25.3
    endloop
  endfacet
  facet normal 0.853547 0.521015 0
    outer loop
      vertex 41.4818 -3.01403 0
      vertex 41.2739 -2.67344 -25.3
      vertex 41.2739 -2.67344 0
    endloop
  endfacet
  facet normal 0.853547 0.521015 0
    outer loop
      vertex 41.2739 -2.67344 -25.3
      vertex 41.4818 -3.01403 0
      vertex 41.4818 -3.01403 -25.3
    endloop
  endfacet
  facet normal 0.99933 0.0365912 0
    outer loop
      vertex 40.5896 -0.398736 0
      vertex 40.575 0 -25.3
      vertex 40.575 0 0
    endloop
  endfacet
  facet normal 0.99933 0.0365912 0
    outer loop
      vertex 40.575 0 -25.3
      vertex 40.5896 -0.398736 0
      vertex 40.5896 -0.398736 -25.3
    endloop
  endfacet
  facet normal 0.853547 -0.521015 0
    outer loop
      vertex 41.2739 2.67344 0
      vertex 41.4818 3.01403 -25.3
      vertex 41.4818 3.01403 0
    endloop
  endfacet
  facet normal 0.853547 -0.521015 0
    outer loop
      vertex 41.4818 3.01403 -25.3
      vertex 41.2739 2.67344 0
      vertex 41.2739 2.67344 -25.3
    endloop
  endfacet
  facet normal 0.813251 0.581914 0
    outer loop
      vertex 41.714 -3.33854 0
      vertex 41.4818 -3.01403 -25.3
      vertex 41.4818 -3.01403 0
    endloop
  endfacet
  facet normal 0.813251 0.581914 0
    outer loop
      vertex 41.4818 -3.01403 -25.3
      vertex 41.714 -3.33854 0
      vertex 41.714 -3.33854 -25.3
    endloop
  endfacet
  facet normal -0.994012 -0.109273 0
    outer loop
      vertex -40.5896 0.398736 -25.3
      vertex -40.6332 0.795346 0
      vertex -40.6332 0.795346 -25.3
    endloop
  endfacet
  facet normal -0.994012 -0.109273 0
    outer loop
      vertex -40.6332 0.795346 0
      vertex -40.5896 0.398736 -25.3
      vertex -40.5896 0.398736 0
    endloop
  endfacet
  facet normal -0.99933 -0.0365912 0
    outer loop
      vertex -40.575 0 -25.3
      vertex -40.5896 0.398736 0
      vertex -40.5896 0.398736 -25.3
    endloop
  endfacet
  facet normal -0.99933 -0.0365912 0
    outer loop
      vertex -40.5896 0.398736 0
      vertex -40.575 0 -25.3
      vertex -40.575 0 0
    endloop
  endfacet
  facet normal -0.983354 -0.181702 0
    outer loop
      vertex -40.6332 0.795346 -25.3
      vertex -40.7057 1.18771 0
      vertex -40.7057 1.18771 -25.3
    endloop
  endfacet
  facet normal -0.983354 -0.181702 0
    outer loop
      vertex -40.7057 1.18771 0
      vertex -40.6332 0.795346 -25.3
      vertex -40.6332 0.795346 0
    endloop
  endfacet
  facet normal -0.853547 0.521015 0
    outer loop
      vertex -41.4818 -3.01403 -25.3
      vertex -41.2739 -2.67344 0
      vertex -41.2739 -2.67344 -25.3
    endloop
  endfacet
  facet normal -0.853547 0.521015 0
    outer loop
      vertex -41.2739 -2.67344 0
      vertex -41.4818 -3.01403 -25.3
      vertex -41.4818 -3.01403 0
    endloop
  endfacet
  facet normal -0.967497 -0.252883 0
    outer loop
      vertex -40.7057 1.18771 -25.3
      vertex -40.8066 1.57374 0
      vertex -40.8066 1.57374 -25.3
    endloop
  endfacet
  facet normal -0.967497 -0.252883 0
    outer loop
      vertex -40.8066 1.57374 0
      vertex -40.7057 1.18771 -25.3
      vertex -40.7057 1.18771 0
    endloop
  endfacet
  facet normal -0.853547 -0.521015 0
    outer loop
      vertex -41.2739 2.67344 -25.3
      vertex -41.4818 3.01403 0
      vertex -41.4818 3.01403 -25.3
    endloop
  endfacet
  facet normal -0.853547 -0.521015 0
    outer loop
      vertex -41.4818 3.01403 0
      vertex -41.2739 2.67344 -25.3
      vertex -41.2739 2.67344 0
    endloop
  endfacet
  facet normal -0.768683 -0.63963 0
    outer loop
      vertex -41.714 3.33854 -25.3
      vertex -41.9692 3.64523 0
      vertex -41.9692 3.64523 -25.3
    endloop
  endfacet
  facet normal -0.768683 -0.63963 0
    outer loop
      vertex -41.9692 3.64523 0
      vertex -41.714 3.33854 -25.3
      vertex -41.714 3.33854 0
    endloop
  endfacet
  facet normal -0.813251 -0.581914 0
    outer loop
      vertex -41.4818 3.01403 -25.3
      vertex -41.714 3.33854 0
      vertex -41.714 3.33854 -25.3
    endloop
  endfacet
  facet normal -0.813251 -0.581914 0
    outer loop
      vertex -41.714 3.33854 0
      vertex -41.4818 3.01403 -25.3
      vertex -41.4818 3.01403 0
    endloop
  endfacet
  facet normal -0.813251 0.581914 0
    outer loop
      vertex -41.714 -3.33854 -25.3
      vertex -41.4818 -3.01403 0
      vertex -41.4818 -3.01403 -25.3
    endloop
  endfacet
  facet normal -0.813251 0.581914 0
    outer loop
      vertex -41.4818 -3.01403 0
      vertex -41.714 -3.33854 -25.3
      vertex -41.714 -3.33854 0
    endloop
  endfacet
  facet normal -0.967497 0.252883 0
    outer loop
      vertex -40.8066 -1.57374 -25.3
      vertex -40.7057 -1.18771 0
      vertex -40.7057 -1.18771 -25.3
    endloop
  endfacet
  facet normal -0.967497 0.252883 0
    outer loop
      vertex -40.7057 -1.18771 0
      vertex -40.8066 -1.57374 -25.3
      vertex -40.8066 -1.57374 0
    endloop
  endfacet
  facet normal -0.71993 -0.694047 0
    outer loop
      vertex -41.975 3.65126 -6
      vertex -42.2461 3.93247 0
      vertex -42.2461 3.93247 -6
    endloop
  endfacet
  facet normal -0.719946 -0.69403 -1.5519e-06
    outer loop
      vertex -41.975 3.65126 -6
      vertex -41.9692 3.64523 0
      vertex -42.2461 3.93247 0
    endloop
  endfacet
  facet normal -0.720718 -0.693228 -0
    outer loop
      vertex -41.9692 3.64523 0
      vertex -41.975 3.65126 -6
      vertex -41.9692 3.64523 -25.3
    endloop
  endfacet
  facet normal -0.720718 -0.693228 0
    outer loop
      vertex -41.975 3.65126 -25.3
      vertex -41.9692 3.64523 -25.3
      vertex -41.975 3.65126 -6
    endloop
  endfacet
  facet normal -0.99933 0.0365912 0
    outer loop
      vertex -40.5896 -0.398736 -25.3
      vertex -40.575 0 0
      vertex -40.575 0 -25.3
    endloop
  endfacet
  facet normal -0.99933 0.0365912 0
    outer loop
      vertex -40.575 0 0
      vertex -40.5896 -0.398736 -25.3
      vertex -40.5896 -0.398736 0
    endloop
  endfacet
  facet normal -0.983354 0.181702 0
    outer loop
      vertex -40.7057 -1.18771 -25.3
      vertex -40.6332 -0.795346 0
      vertex -40.6332 -0.795346 -25.3
    endloop
  endfacet
  facet normal -0.983354 0.181702 0
    outer loop
      vertex -40.6332 -0.795346 0
      vertex -40.7057 -1.18771 -25.3
      vertex -40.7057 -1.18771 0
    endloop
  endfacet
  facet normal -0.720718 0.693228 0
    outer loop
      vertex -41.975 -3.65126 -6
      vertex -41.9692 -3.64523 -25.3
      vertex -41.975 -3.65126 -25.3
    endloop
  endfacet
  facet normal -0.720718 0.693228 0
    outer loop
      vertex -41.9692 -3.64523 -25.3
      vertex -41.975 -3.65126 -6
      vertex -41.9692 -3.64523 0
    endloop
  endfacet
  facet normal -0.71993 0.694047 -1.58514e-06
    outer loop
      vertex -42.2461 -3.93247 -6
      vertex -41.9692 -3.64523 0
      vertex -41.975 -3.65126 -6
    endloop
  endfacet
  facet normal -0.719946 0.69403 0
    outer loop
      vertex -41.9692 -3.64523 0
      vertex -42.2461 -3.93247 -6
      vertex -42.2461 -3.93247 0
    endloop
  endfacet
  facet normal -0.946462 0.322814 0
    outer loop
      vertex -40.9354 -1.95137 -25.3
      vertex -40.8066 -1.57374 0
      vertex -40.8066 -1.57374 -25.3
    endloop
  endfacet
  facet normal -0.946462 0.322814 0
    outer loop
      vertex -40.8066 -1.57374 0
      vertex -40.9354 -1.95137 -25.3
      vertex -40.9354 -1.95137 0
    endloop
  endfacet
  facet normal -0.667291 -0.744797 0
    outer loop
      vertex -42.475 4.13755 -6
      vertex -42.2461 3.93247 0
      vertex -42.475 4.13755 0
    endloop
  endfacet
  facet normal -0.667291 -0.744797 -0
    outer loop
      vertex -42.2461 3.93247 0
      vertex -42.475 4.13755 -6
      vertex -42.2461 3.93247 -6
    endloop
  endfacet
  facet normal -0.946462 -0.322814 0
    outer loop
      vertex -40.8066 1.57374 -25.3
      vertex -40.9354 1.95137 0
      vertex -40.9354 1.95137 -25.3
    endloop
  endfacet
  facet normal -0.946462 -0.322814 0
    outer loop
      vertex -40.9354 1.95137 0
      vertex -40.8066 1.57374 -25.3
      vertex -40.8066 1.57374 0
    endloop
  endfacet
  facet normal -0.994012 0.109273 0
    outer loop
      vertex -40.6332 -0.795346 -25.3
      vertex -40.5896 -0.398736 0
      vertex -40.5896 -0.398736 -25.3
    endloop
  endfacet
  facet normal -0.994012 0.109273 0
    outer loop
      vertex -40.5896 -0.398736 0
      vertex -40.6332 -0.795346 -25.3
      vertex -40.6332 -0.795346 0
    endloop
  endfacet
  facet normal -0.768683 0.63963 0
    outer loop
      vertex -41.9692 -3.64523 -25.3
      vertex -41.714 -3.33854 0
      vertex -41.714 -3.33854 -25.3
    endloop
  endfacet
  facet normal -0.768683 0.63963 0
    outer loop
      vertex -41.714 -3.33854 0
      vertex -41.9692 -3.64523 -25.3
      vertex -41.9692 -3.64523 0
    endloop
  endfacet
  facet normal -0.667291 0.744797 0
    outer loop
      vertex -42.2461 -3.93247 -6
      vertex -42.475 -4.13755 0
      vertex -42.2461 -3.93247 0
    endloop
  endfacet
  facet normal -0.667291 0.744797 0
    outer loop
      vertex -42.475 -4.13755 0
      vertex -42.2461 -3.93247 -6
      vertex -42.475 -4.13755 -6
    endloop
  endfacet
  facet normal -0.889384 0.457161 0
    outer loop
      vertex -41.2739 -2.67344 -25.3
      vertex -41.0915 -2.31859 0
      vertex -41.0915 -2.31859 -25.3
    endloop
  endfacet
  facet normal -0.889384 0.457161 0
    outer loop
      vertex -41.0915 -2.31859 0
      vertex -41.2739 -2.67344 -25.3
      vertex -41.2739 -2.67344 0
    endloop
  endfacet
  facet normal -0.920302 0.391208 0
    outer loop
      vertex -41.0915 -2.31859 -25.3
      vertex -40.9354 -1.95137 0
      vertex -40.9354 -1.95137 -25.3
    endloop
  endfacet
  facet normal -0.920302 0.391208 0
    outer loop
      vertex -40.9354 -1.95137 0
      vertex -41.0915 -2.31859 -25.3
      vertex -41.0915 -2.31859 0
    endloop
  endfacet
  facet normal -0.920302 -0.391208 0
    outer loop
      vertex -40.9354 1.95137 -25.3
      vertex -41.0915 2.31859 0
      vertex -41.0915 2.31859 -25.3
    endloop
  endfacet
  facet normal -0.920302 -0.391208 0
    outer loop
      vertex -41.0915 2.31859 0
      vertex -40.9354 1.95137 -25.3
      vertex -40.9354 1.95137 0
    endloop
  endfacet
  facet normal -0.889384 -0.457161 0
    outer loop
      vertex -41.0915 2.31859 -25.3
      vertex -41.2739 2.67344 0
      vertex -41.2739 2.67344 -25.3
    endloop
  endfacet
  facet normal -0.889384 -0.457161 0
    outer loop
      vertex -41.2739 2.67344 0
      vertex -41.0915 2.31859 -25.3
      vertex -41.0915 2.31859 0
    endloop
  endfacet
  facet normal -0.486647 0 -0.873599
    outer loop
      vertex 32.8667 -6 -16.4508
      vertex 33.2137 6 -16.6441
      vertex 33.2137 -6 -16.6441
    endloop
  endfacet
  facet normal -0.486647 0 -0.873599
    outer loop
      vertex 33.2137 6 -16.6441
      vertex 32.8667 -6 -16.4508
      vertex 32.8667 6 -16.4508
    endloop
  endfacet
  facet normal 0.838618 0 -0.544721
    outer loop
      vertex -32.8052 -6 -12.3036
      vertex -33.0771 6 -12.7222
      vertex -32.8052 6 -12.3036
    endloop
  endfacet
  facet normal 0.838618 0 -0.544721
    outer loop
      vertex -33.0771 6 -12.7222
      vertex -32.8052 -6 -12.3036
      vertex -33.0771 -6 -12.7222
    endloop
  endfacet
  facet normal -0.190854 0 -0.981619
    outer loop
      vertex -18.4668 -6 -6.21725
      vertex -17.9769 6 -6.3125
      vertex -17.9769 -6 -6.3125
    endloop
  endfacet
  facet normal -0.190854 0 -0.981619
    outer loop
      vertex -17.9769 6 -6.3125
      vertex -18.4668 -6 -6.21725
      vertex -18.4668 6 -6.21725
    endloop
  endfacet
  facet normal 0.933567 0 -0.358402
    outer loop
      vertex -34.2087 -6 -14.9431
      vertex -34.3876 6 -15.4091
      vertex -34.2087 6 -14.9431
    endloop
  endfacet
  facet normal 0.933567 0 -0.358402
    outer loop
      vertex -34.3876 6 -15.4091
      vertex -34.2087 -6 -14.9431
      vertex -34.3876 -6 -15.4091
    endloop
  endfacet
  facet normal 0.087157 0 -0.996195
    outer loop
      vertex -22.4447 -6 -6.07835
      vertex -21.9475 6 -6.03485
      vertex -21.9475 -6 -6.03485
    endloop
  endfacet
  facet normal 0.087157 0 -0.996195
    outer loop
      vertex -21.9475 6 -6.03485
      vertex -22.4447 -6 -6.07835
      vertex -22.4447 6 -6.07835
    endloop
  endfacet
  facet normal 0.974368 -0 0.224962
    outer loop
      vertex -34.9375 -6 -23.2731
      vertex -34.8252 6 -23.7595
      vertex -34.9375 6 -23.2731
    endloop
  endfacet
  facet normal 0.974368 0 0.224962
    outer loop
      vertex -34.8252 6 -23.7595
      vertex -34.9375 -6 -23.2731
      vertex -34.8252 -6 -23.7595
    endloop
  endfacet
  facet normal -0.192648 0 -0.981268
    outer loop
      vertex -17.9769 -6 -6.3125
      vertex 31.7401 6 -16.0732
      vertex 31.7401 -6 -16.0732
    endloop
  endfacet
  facet normal -0.192648 0 -0.981268
    outer loop
      vertex 31.7401 6 -16.0732
      vertex -17.9769 -6 -6.3125
      vertex -17.9769 6 -6.3125
    endloop
  endfacet
  facet normal 0.956319 0 -0.292325
    outer loop
      vertex -34.5501 -6 -15.8811
      vertex -34.696 6 -16.3584
      vertex -34.5501 6 -15.8811
    endloop
  endfacet
  facet normal 0.956319 0 -0.292325
    outer loop
      vertex -34.696 6 -16.3584
      vertex -34.5501 -6 -15.8811
      vertex -34.696 -6 -16.3584
    endloop
  endfacet
  facet normal -0.638896 0 -0.769293
    outer loop
      vertex 33.5413 -6 -16.8685
      vertex 33.8469 6 -17.1223
      vertex 33.8469 -6 -17.1223
    endloop
  endfacet
  facet normal -0.638896 0 -0.769293
    outer loop
      vertex 33.8469 6 -17.1223
      vertex 33.5413 -6 -16.8685
      vertex 33.5413 6 -16.8685
    endloop
  endfacet
  facet normal 0.945533 -0 0.325528
    outer loop
      vertex -34.5501 -6 -24.7189
      vertex -34.3876 6 -25.1909
      vertex -34.5501 6 -24.7189
    endloop
  endfacet
  facet normal 0.945533 0 0.325528
    outer loop
      vertex -34.3876 6 -25.1909
      vertex -34.5501 -6 -24.7189
      vertex -34.3876 -6 -25.1909
    endloop
  endfacet
  facet normal 0.515085 0 -0.857139
    outer loop
      vertex -28.5278 -6 -8.17292
      vertex -28.1 6 -7.91584
      vertex -28.1 -6 -7.91584
    endloop
  endfacet
  facet normal 0.515085 0 -0.857139
    outer loop
      vertex -28.1 6 -7.91584
      vertex -28.5278 -6 -8.17292
      vertex -28.5278 6 -8.17292
    endloop
  endfacet
  facet normal 0.731322 0 -0.682033
    outer loop
      vertex -31.2366 -6 -10.3664
      vertex -31.577 6 -10.7314
      vertex -31.2366 6 -10.3664
    endloop
  endfacet
  facet normal 0.731322 0 -0.682033
    outer loop
      vertex -31.577 6 -10.7314
      vertex -31.2366 -6 -10.3664
      vertex -31.577 -6 -10.7314
    endloop
  endfacet
  facet normal 0.12183 0 -0.992551
    outer loop
      vertex -22.9402 -6 -6.13917
      vertex -22.4447 6 -6.07835
      vertex -22.4447 -6 -6.07835
    endloop
  endfacet
  facet normal 0.12183 0 -0.992551
    outer loop
      vertex -22.4447 6 -6.07835
      vertex -22.9402 -6 -6.13917
      vertex -22.9402 6 -6.13917
    endloop
  endfacet
  facet normal 0.601761 0 -0.798676
    outer loop
      vertex -29.754 -6 -9.03146
      vertex -29.3553 6 -8.73106
      vertex -29.3553 -6 -8.73106
    endloop
  endfacet
  facet normal 0.601761 0 -0.798676
    outer loop
      vertex -29.3553 6 -8.73106
      vertex -29.754 -6 -9.03146
      vertex -29.754 6 -9.03146
    endloop
  endfacet
  facet normal 0.996196 -0 0.0871396
    outer loop
      vertex -35.2152 -6 -21.2975
      vertex -35.1717 6 -21.7948
      vertex -35.2152 6 -21.2975
    endloop
  endfacet
  facet normal 0.996196 0 0.0871396
    outer loop
      vertex -35.1717 6 -21.7948
      vertex -35.2152 -6 -21.2975
      vertex -35.1717 -6 -21.7948
    endloop
  endfacet
  facet normal -0.121855 0 -0.992548
    outer loop
      vertex -19.4552 -6 -6.07835
      vertex -18.9598 6 -6.13917
      vertex -18.9598 -6 -6.13917
    endloop
  endfacet
  facet normal -0.121855 0 -0.992548
    outer loop
      vertex -18.9598 6 -6.13917
      vertex -19.4552 -6 -6.07835
      vertex -19.4552 6 -6.07835
    endloop
  endfacet
  facet normal 0.987683 0 -0.156467
    outer loop
      vertex -35.0327 -6 -17.8168
      vertex -35.1108 6 -18.3098
      vertex -35.0327 6 -17.8168
    endloop
  endfacet
  facet normal 0.987683 0 -0.156467
    outer loop
      vertex -35.1108 6 -18.3098
      vertex -35.0327 -6 -17.8168
      vertex -35.1108 -6 -18.3098
    endloop
  endfacet
  facet normal 0.190854 0 -0.981619
    outer loop
      vertex -23.9231 -6 -6.3125
      vertex -23.4332 6 -6.21725
      vertex -23.4332 -6 -6.21725
    endloop
  endfacet
  facet normal 0.190854 0 -0.981619
    outer loop
      vertex -23.4332 6 -6.21725
      vertex -23.9231 -6 -6.3125
      vertex -23.9231 6 -6.3125
    endloop
  endfacet
  facet normal 0.819166 0 -0.573556
    outer loop
      vertex -32.5189 -6 -11.8947
      vertex -32.8052 6 -12.3036
      vertex -32.5189 6 -11.8947
    endloop
  endfacet
  facet normal 0.819166 0 -0.573556
    outer loop
      vertex -32.8052 6 -12.3036
      vertex -32.5189 -6 -11.8947
      vertex -32.8052 -6 -12.3036
    endloop
  endfacet
  facet normal 0.0523559 0 -0.998628
    outer loop
      vertex -21.9475 -6 -6.03485
      vertex -21.4491 6 -6.00872
      vertex -21.4491 -6 -6.00872
    endloop
  endfacet
  facet normal 0.0523559 0 -0.998628
    outer loop
      vertex -21.4491 6 -6.00872
      vertex -21.9475 -6 -6.03485
      vertex -21.9475 6 -6.03485
    endloop
  endfacet
  facet normal 0.933522 -0 0.35852
    outer loop
      vertex -34.3876 -6 -25.1909
      vertex -34.3457 6 -25.3
      vertex -34.3876 6 -25.1909
    endloop
  endfacet
  facet normal 0.933522 0 0.35852
    outer loop
      vertex -34.3457 6 -25.3
      vertex -34.3876 -6 -25.1909
      vertex -34.3457 -6 -25.3
    endloop
  endfacet
  facet normal -0.565117 0 -0.825011
    outer loop
      vertex 33.2137 -6 -16.6441
      vertex 33.5413 6 -16.8685
      vertex 33.5413 -6 -16.8685
    endloop
  endfacet
  facet normal -0.565117 0 -0.825011
    outer loop
      vertex 33.5413 6 -16.8685
      vertex 33.2137 -6 -16.6441
      vertex 33.2137 6 -16.6441
    endloop
  endfacet
  facet normal 0.156428 0 -0.987689
    outer loop
      vertex -23.4332 -6 -6.21725
      vertex -22.9402 6 -6.13917
      vertex -22.9402 -6 -6.13917
    endloop
  endfacet
  facet normal 0.156428 0 -0.987689
    outer loop
      vertex -22.9402 6 -6.13917
      vertex -23.4332 -6 -6.21725
      vertex -23.4332 6 -6.21725
    endloop
  endfacet
  facet normal -0.229124 0 -0.973397
    outer loop
      vertex 31.7401 -6 -16.0732
      vertex 32.1267 6 -16.1642
      vertex 32.1267 -6 -16.1642
    endloop
  endfacet
  facet normal -0.229124 0 -0.973397
    outer loop
      vertex 32.1267 6 -16.1642
      vertex 31.7401 -6 -16.0732
      vertex 31.7401 6 -16.0732
    endloop
  endfacet
  facet normal 0.981637 -0 0.190757
    outer loop
      vertex -35.0327 -6 -22.7832
      vertex -34.9375 6 -23.2731
      vertex -35.0327 6 -22.7832
    endloop
  endfacet
  facet normal 0.981637 0 0.190757
    outer loop
      vertex -34.9375 6 -23.2731
      vertex -35.0327 -6 -22.7832
      vertex -34.9375 -6 -23.2731
    endloop
  endfacet
  facet normal 0.974368 0 -0.224962
    outer loop
      vertex -34.8252 -6 -16.8405
      vertex -34.9375 6 -17.3269
      vertex -34.8252 6 -16.8405
    endloop
  endfacet
  facet normal 0.974368 0 -0.224962
    outer loop
      vertex -34.9375 6 -17.3269
      vertex -34.8252 -6 -16.8405
      vertex -34.9375 -6 -17.3269
    endloop
  endfacet
  facet normal 0.656047 0 -0.75472
    outer loop
      vertex -30.5186 -6 -9.67303
      vertex -30.1419 6 -9.34558
      vertex -30.1419 -6 -9.34558
    endloop
  endfacet
  facet normal 0.656047 0 -0.75472
    outer loop
      vertex -30.1419 6 -9.34558
      vertex -30.5186 -6 -9.67303
      vertex -30.5186 6 -9.67303
    endloop
  endfacet
  facet normal 0.987683 -0 0.156467
    outer loop
      vertex -35.1108 -6 -22.2902
      vertex -35.0327 6 -22.7832
      vertex -35.1108 6 -22.2902
    endloop
  endfacet
  facet normal 0.987683 0 0.156467
    outer loop
      vertex -35.0327 6 -22.7832
      vertex -35.1108 -6 -22.2902
      vertex -35.0327 -6 -22.7832
    endloop
  endfacet
  facet normal 0.422589 0 -0.906321
    outer loop
      vertex -27.2187 -6 -7.44725
      vertex -26.7663 6 -7.23631
      vertex -26.7663 -6 -7.23631
    endloop
  endfacet
  facet normal 0.422589 0 -0.906321
    outer loop
      vertex -26.7663 6 -7.23631
      vertex -27.2187 -6 -7.44725
      vertex -27.2187 6 -7.44725
    endloop
  endfacet
  facet normal 0.874714 0 -0.484639
    outer loop
      vertex -33.3342 -6 -13.15
      vertex -33.5761 6 -13.5866
      vertex -33.3342 6 -13.15
    endloop
  endfacet
  facet normal 0.874714 0 -0.484639
    outer loop
      vertex -33.5761 6 -13.5866
      vertex -33.3342 -6 -13.15
      vertex -33.5761 -6 -13.5866
    endloop
  endfacet
  facet normal -0.0174488 0 -0.999848
    outer loop
      vertex -20.95 -6 -6.00001
      vertex -20.4509 6 -6.00872
      vertex -20.4509 -6 -6.00872
    endloop
  endfacet
  facet normal -0.0174488 0 -0.999848
    outer loop
      vertex -20.4509 6 -6.00872
      vertex -20.95 -6 -6.00001
      vertex -20.95 6 -6.00001
    endloop
  endfacet
  facet normal 0.857121 0 -0.515114
    outer loop
      vertex -33.0771 -6 -12.7222
      vertex -33.3342 6 -13.15
      vertex -33.0771 6 -12.7222
    endloop
  endfacet
  facet normal 0.857121 0 -0.515114
    outer loop
      vertex -33.3342 6 -13.15
      vertex -33.0771 -6 -12.7222
      vertex -33.3342 -6 -13.15
    endloop
  endfacet
  facet normal -0.707107 0 -0.707107
    outer loop
      vertex 34.1277 -6 -17.4031
      vertex 33.8469 6 -17.1223
      vertex 34.1277 6 -17.4031
    endloop
  endfacet
  facet normal -0.707107 -0 -0.707107
    outer loop
      vertex 33.8469 6 -17.1223
      vertex 34.1277 -6 -17.4031
      vertex 33.8469 -6 -17.1223
    endloop
  endfacet
  facet normal 0.999848 -0 0.0174287
    outer loop
      vertex -35.25 -6 -20.3
      vertex -35.2413 6 -20.7991
      vertex -35.25 6 -20.3
    endloop
  endfacet
  facet normal 0.999848 0 0.0174287
    outer loop
      vertex -35.2413 6 -20.7991
      vertex -35.25 -6 -20.3
      vertex -35.2413 -6 -20.7991
    endloop
  endfacet
  facet normal 0.998632 -0 0.0522959
    outer loop
      vertex -35.2413 -6 -20.7991
      vertex -35.2152 6 -21.2975
      vertex -35.2413 6 -20.7991
    endloop
  endfacet
  facet normal 0.998632 0 0.0522959
    outer loop
      vertex -35.2152 6 -21.2975
      vertex -35.2413 -6 -20.7991
      vertex -35.2152 -6 -21.2975
    endloop
  endfacet
  facet normal 0.945533 0 -0.325528
    outer loop
      vertex -34.3876 -6 -15.4091
      vertex -34.5501 6 -15.8811
      vertex -34.3876 6 -15.4091
    endloop
  endfacet
  facet normal 0.945533 0 -0.325528
    outer loop
      vertex -34.5501 6 -15.8811
      vertex -34.3876 -6 -15.4091
      vertex -34.5501 -6 -15.8811
    endloop
  endfacet
  facet normal 0.454013 0 -0.890995
    outer loop
      vertex -27.6634 -6 -7.67385
      vertex -27.2187 6 -7.44725
      vertex -27.2187 -6 -7.44725
    endloop
  endfacet
  facet normal 0.454013 0 -0.890995
    outer loop
      vertex -27.2187 6 -7.44725
      vertex -27.6634 -6 -7.67385
      vertex -27.6634 6 -7.67385
    endloop
  endfacet
  facet normal -0.0523559 0 -0.998628
    outer loop
      vertex -20.4509 -6 -6.00872
      vertex -19.9525 6 -6.03485
      vertex -19.9525 -6 -6.03485
    endloop
  endfacet
  facet normal -0.0523559 0 -0.998628
    outer loop
      vertex -19.9525 6 -6.03485
      vertex -20.4509 -6 -6.00872
      vertex -20.4509 6 -6.00872
    endloop
  endfacet
  facet normal 0.224905 0 -0.974381
    outer loop
      vertex -24.4095 -6 -6.42477
      vertex -23.9231 6 -6.3125
      vertex -23.9231 -6 -6.3125
    endloop
  endfacet
  facet normal 0.224905 0 -0.974381
    outer loop
      vertex -23.9231 6 -6.3125
      vertex -24.4095 -6 -6.42477
      vertex -24.4095 6 -6.42477
    endloop
  endfacet
  facet normal 0.682108 0 -0.731252
    outer loop
      vertex -30.8836 -6 -10.0135
      vertex -30.5186 6 -9.67303
      vertex -30.5186 -6 -9.67303
    endloop
  endfacet
  facet normal 0.682108 0 -0.731252
    outer loop
      vertex -30.5186 6 -9.67303
      vertex -30.8836 -6 -10.0135
      vertex -30.8836 6 -10.0135
    endloop
  endfacet
  facet normal -0.914695 0 -0.404144
    outer loop
      vertex 34.8387 -6 -18.4727
      vertex 34.7992 6 -18.3833
      vertex 34.8387 6 -18.4727
    endloop
  endfacet
  facet normal -0.914695 -0 -0.404144
    outer loop
      vertex 34.7992 6 -18.3833
      vertex 34.8387 -6 -18.4727
      vertex 34.7992 -6 -18.3833
    endloop
  endfacet
  facet normal 0.29238 0 -0.956302
    outer loop
      vertex -25.3689 -6 -6.6999
      vertex -24.8916 6 -6.55397
      vertex -24.8916 -6 -6.55397
    endloop
  endfacet
  facet normal 0.29238 0 -0.956302
    outer loop
      vertex -24.8916 6 -6.55397
      vertex -25.3689 -6 -6.6999
      vertex -25.3689 6 -6.6999
    endloop
  endfacet
  facet normal 0.920508 0 -0.390725
    outer loop
      vertex -34.0137 -6 -14.4837
      vertex -34.2087 6 -14.9431
      vertex -34.0137 6 -14.4837
    endloop
  endfacet
  facet normal 0.920508 0 -0.390725
    outer loop
      vertex -34.2087 6 -14.9431
      vertex -34.0137 -6 -14.4837
      vertex -34.2087 -6 -14.9431
    endloop
  endfacet
  facet normal 0.484777 0 -0.874638
    outer loop
      vertex -28.1 -6 -7.91584
      vertex -27.6634 6 -7.67385
      vertex -27.6634 -6 -7.67385
    endloop
  endfacet
  facet normal 0.484777 0 -0.874638
    outer loop
      vertex -27.6634 6 -7.67385
      vertex -28.1 -6 -7.91584
      vertex -28.1 6 -7.91584
    endloop
  endfacet
  facet normal -0.769293 0 -0.638896
    outer loop
      vertex 34.3815 -6 -17.7087
      vertex 34.1277 6 -17.4031
      vertex 34.3815 6 -17.7087
    endloop
  endfacet
  facet normal -0.769293 -0 -0.638896
    outer loop
      vertex 34.1277 6 -17.4031
      vertex 34.3815 -6 -17.7087
      vertex 34.1277 -6 -17.4031
    endloop
  endfacet
  facet normal 0.325546 0 -0.945526
    outer loop
      vertex -25.8409 -6 -6.86241
      vertex -25.3689 6 -6.6999
      vertex -25.3689 -6 -6.6999
    endloop
  endfacet
  facet normal 0.325546 0 -0.945526
    outer loop
      vertex -25.3689 6 -6.6999
      vertex -25.8409 -6 -6.86241
      vertex -25.8409 6 -6.86241
    endloop
  endfacet
  facet normal -0.825011 0 -0.565117
    outer loop
      vertex 34.6059 -6 -18.0363
      vertex 34.3815 6 -17.7087
      vertex 34.6059 6 -18.0363
    endloop
  endfacet
  facet normal -0.825011 -0 -0.565117
    outer loop
      vertex 34.3815 6 -17.7087
      vertex 34.6059 -6 -18.0363
      vertex 34.3815 -6 -17.7087
    endloop
  endfacet
  facet normal 0.956319 -0 0.292325
    outer loop
      vertex -34.696 -6 -24.2416
      vertex -34.5501 6 -24.7189
      vertex -34.696 6 -24.2416
    endloop
  endfacet
  facet normal 0.956319 0 0.292325
    outer loop
      vertex -34.5501 6 -24.7189
      vertex -34.696 -6 -24.2416
      vertex -34.5501 -6 -24.7189
    endloop
  endfacet
  facet normal 0.776984 0 -0.629521
    outer loop
      vertex -31.9044 -6 -11.1082
      vertex -32.2186 6 -11.496
      vertex -31.9044 6 -11.1082
    endloop
  endfacet
  facet normal 0.776984 0 -0.629521
    outer loop
      vertex -32.2186 6 -11.496
      vertex -31.9044 -6 -11.1082
      vertex -32.2186 -6 -11.496
    endloop
  endfacet
  facet normal -0.156428 0 -0.987689
    outer loop
      vertex -18.9598 -6 -6.13917
      vertex -18.4668 6 -6.21725
      vertex -18.4668 -6 -6.21725
    endloop
  endfacet
  facet normal -0.156428 0 -0.987689
    outer loop
      vertex -18.4668 6 -6.21725
      vertex -18.9598 -6 -6.13917
      vertex -18.9598 6 -6.13917
    endloop
  endfacet
  facet normal 0.999848 0 -0.0174287
    outer loop
      vertex -35.2413 -6 -19.8009
      vertex -35.25 6 -20.3
      vertex -35.2413 6 -19.8009
    endloop
  endfacet
  facet normal 0.999848 0 -0.0174287
    outer loop
      vertex -35.25 6 -20.3
      vertex -35.2413 -6 -19.8009
      vertex -35.25 -6 -20.3
    endloop
  endfacet
  facet normal 0.390793 0 -0.920479
    outer loop
      vertex -26.7663 -6 -7.23631
      vertex -26.3069 6 -7.04127
      vertex -26.3069 -6 -7.04127
    endloop
  endfacet
  facet normal 0.390793 0 -0.920479
    outer loop
      vertex -26.3069 6 -7.04127
      vertex -26.7663 -6 -7.23631
      vertex -26.7663 6 -7.23631
    endloop
  endfacet
  facet normal 0.965915 -0 0.25886
    outer loop
      vertex -34.8252 -6 -23.7595
      vertex -34.696 6 -24.2416
      vertex -34.8252 6 -23.7595
    endloop
  endfacet
  facet normal 0.965915 0 0.25886
    outer loop
      vertex -34.696 6 -24.2416
      vertex -34.8252 -6 -23.7595
      vertex -34.696 -6 -24.2416
    endloop
  endfacet
  facet normal 0.573637 0 -0.81911
    outer loop
      vertex -29.3553 -6 -8.73106
      vertex -28.9465 6 -8.44477
      vertex -28.9465 -6 -8.44477
    endloop
  endfacet
  facet normal 0.573637 0 -0.81911
    outer loop
      vertex -28.9465 6 -8.44477
      vertex -29.3553 -6 -8.73106
      vertex -29.3553 6 -8.73106
    endloop
  endfacet
  facet normal -0.0871396 0 -0.996196
    outer loop
      vertex -19.9525 -6 -6.03485
      vertex -19.4552 6 -6.07835
      vertex -19.4552 -6 -6.07835
    endloop
  endfacet
  facet normal -0.0871396 0 -0.996196
    outer loop
      vertex -19.4552 6 -6.07835
      vertex -19.9525 -6 -6.03485
      vertex -19.9525 6 -6.03485
    endloop
  endfacet
  facet normal 0.544559 0 -0.838723
    outer loop
      vertex -28.9465 -6 -8.44477
      vertex -28.5278 6 -8.17292
      vertex -28.5278 -6 -8.17292
    endloop
  endfacet
  facet normal 0.544559 0 -0.838723
    outer loop
      vertex -28.5278 6 -8.17292
      vertex -28.9465 -6 -8.44477
      vertex -28.9465 6 -8.44477
    endloop
  endfacet
  facet normal 0.798772 0 -0.601634
    outer loop
      vertex -32.2186 -6 -11.496
      vertex -32.5189 6 -11.8947
      vertex -32.2186 6 -11.496
    endloop
  endfacet
  facet normal 0.798772 0 -0.601634
    outer loop
      vertex -32.5189 6 -11.8947
      vertex -32.2186 -6 -11.496
      vertex -32.5189 -6 -11.8947
    endloop
  endfacet
  facet normal 0.707007 0 -0.707207
    outer loop
      vertex -31.2366 -6 -10.3664
      vertex -30.8836 6 -10.0135
      vertex -30.8836 -6 -10.0135
    endloop
  endfacet
  facet normal 0.707007 0 -0.707207
    outer loop
      vertex -30.8836 6 -10.0135
      vertex -31.2366 -6 -10.3664
      vertex -31.2366 6 -10.3664
    endloop
  endfacet
  facet normal 0.992529 -0 0.122012
    outer loop
      vertex -35.1717 -6 -21.7948
      vertex -35.1108 6 -22.2902
      vertex -35.1717 6 -21.7948
    endloop
  endfacet
  facet normal 0.992529 0 0.122012
    outer loop
      vertex -35.1108 6 -22.2902
      vertex -35.1717 -6 -21.7948
      vertex -35.1108 -6 -22.2902
    endloop
  endfacet
  facet normal 0.0174488 0 -0.999848
    outer loop
      vertex -21.4491 -6 -6.00872
      vertex -20.95 6 -6.00001
      vertex -20.95 -6 -6.00001
    endloop
  endfacet
  facet normal 0.0174488 0 -0.999848
    outer loop
      vertex -20.95 6 -6.00001
      vertex -21.4491 -6 -6.00872
      vertex -21.4491 6 -6.00872
    endloop
  endfacet
  facet normal 0.358332 0 -0.933594
    outer loop
      vertex -26.3069 -6 -7.04127
      vertex -25.8409 6 -6.86241
      vertex -25.8409 -6 -6.86241
    endloop
  endfacet
  facet normal 0.358332 0 -0.933594
    outer loop
      vertex -25.8409 6 -6.86241
      vertex -26.3069 -6 -7.04127
      vertex -26.3069 6 -7.04127
    endloop
  endfacet
  facet normal 0.992529 0 -0.122012
    outer loop
      vertex -35.1108 -6 -18.3098
      vertex -35.1717 6 -18.8052
      vertex -35.1108 6 -18.3098
    endloop
  endfacet
  facet normal 0.992529 0 -0.122012
    outer loop
      vertex -35.1717 6 -18.8052
      vertex -35.1108 -6 -18.3098
      vertex -35.1717 -6 -18.8052
    endloop
  endfacet
  facet normal 0.906275 0 -0.422688
    outer loop
      vertex -33.8027 -6 -14.0313
      vertex -34.0137 6 -14.4837
      vertex -33.8027 6 -14.0313
    endloop
  endfacet
  facet normal 0.906275 0 -0.422688
    outer loop
      vertex -34.0137 6 -14.4837
      vertex -33.8027 -6 -14.0313
      vertex -34.0137 -6 -14.4837
    endloop
  endfacet
  facet normal 0.890995 0 -0.454013
    outer loop
      vertex -33.5761 -6 -13.5866
      vertex -33.8027 6 -14.0313
      vertex -33.5761 6 -13.5866
    endloop
  endfacet
  facet normal 0.890995 0 -0.454013
    outer loop
      vertex -33.8027 6 -14.0313
      vertex -33.5761 -6 -13.5866
      vertex -33.8027 -6 -14.0313
    endloop
  endfacet
  facet normal 0.25886 0 -0.965915
    outer loop
      vertex -24.8916 -6 -6.55397
      vertex -24.4095 6 -6.42477
      vertex -24.4095 -6 -6.42477
    endloop
  endfacet
  facet normal 0.25886 0 -0.965915
    outer loop
      vertex -24.4095 6 -6.42477
      vertex -24.8916 -6 -6.55397
      vertex -24.8916 6 -6.55397
    endloop
  endfacet
  facet normal 0.965915 0 -0.25886
    outer loop
      vertex -34.696 -6 -16.3584
      vertex -34.8252 6 -16.8405
      vertex -34.696 6 -16.3584
    endloop
  endfacet
  facet normal 0.965915 0 -0.25886
    outer loop
      vertex -34.8252 6 -16.8405
      vertex -34.696 -6 -16.3584
      vertex -34.8252 -6 -16.8405
    endloop
  endfacet
  facet normal -0.873599 0 -0.486647
    outer loop
      vertex 34.7992 -6 -18.3833
      vertex 34.6059 6 -18.0363
      vertex 34.7992 6 -18.3833
    endloop
  endfacet
  facet normal -0.873599 -0 -0.486647
    outer loop
      vertex 34.6059 6 -18.0363
      vertex 34.7992 -6 -18.3833
      vertex 34.6059 -6 -18.0363
    endloop
  endfacet
  facet normal 0.754856 0 -0.655891
    outer loop
      vertex -31.577 -6 -10.7314
      vertex -31.9044 6 -11.1082
      vertex -31.577 6 -10.7314
    endloop
  endfacet
  facet normal 0.754856 0 -0.655891
    outer loop
      vertex -31.9044 6 -11.1082
      vertex -31.577 -6 -10.7314
      vertex -31.9044 -6 -11.1082
    endloop
  endfacet
  facet normal 0.629326 0 -0.777141
    outer loop
      vertex -30.1419 -6 -9.34558
      vertex -29.754 6 -9.03146
      vertex -29.754 -6 -9.03146
    endloop
  endfacet
  facet normal 0.629326 0 -0.777141
    outer loop
      vertex -29.754 6 -9.03146
      vertex -30.1419 -6 -9.34558
      vertex -30.1419 6 -9.34558
    endloop
  endfacet
  facet normal 0.998632 0 -0.0522959
    outer loop
      vertex -35.2152 -6 -19.3025
      vertex -35.2413 6 -19.8009
      vertex -35.2152 6 -19.3025
    endloop
  endfacet
  facet normal 0.998632 0 -0.0522959
    outer loop
      vertex -35.2413 6 -19.8009
      vertex -35.2152 -6 -19.3025
      vertex -35.2413 -6 -19.8009
    endloop
  endfacet
  facet normal 0.996196 0 -0.0871396
    outer loop
      vertex -35.1717 -6 -18.8052
      vertex -35.2152 6 -19.3025
      vertex -35.1717 6 -18.8052
    endloop
  endfacet
  facet normal 0.996196 0 -0.0871396
    outer loop
      vertex -35.2152 6 -19.3025
      vertex -35.1717 -6 -18.8052
      vertex -35.2152 -6 -19.3025
    endloop
  endfacet
  facet normal -0.403801 0 -0.914847
    outer loop
      vertex 32.5033 -6 -16.2904
      vertex 32.8667 6 -16.4508
      vertex 32.8667 -6 -16.4508
    endloop
  endfacet
  facet normal -0.403801 0 -0.914847
    outer loop
      vertex 32.8667 6 -16.4508
      vertex 32.5033 -6 -16.2904
      vertex 32.5033 6 -16.2904
    endloop
  endfacet
  facet normal -0.317738 0 -0.948179
    outer loop
      vertex 32.1267 -6 -16.1642
      vertex 32.5033 6 -16.2904
      vertex 32.5033 -6 -16.2904
    endloop
  endfacet
  facet normal -0.317738 0 -0.948179
    outer loop
      vertex 32.5033 6 -16.2904
      vertex 32.1267 -6 -16.1642
      vertex 32.1267 6 -16.1642
    endloop
  endfacet
  facet normal 0.981637 0 -0.190757
    outer loop
      vertex -34.9375 -6 -17.3269
      vertex -35.0327 6 -17.8168
      vertex -34.9375 6 -17.3269
    endloop
  endfacet
  facet normal 0.981637 0 -0.190757
    outer loop
      vertex -35.0327 6 -17.8168
      vertex -34.9375 -6 -17.3269
      vertex -35.0327 -6 -17.8168
    endloop
  endfacet
  facet normal -1 0 0
    outer loop
      vertex 36.25 -6 -25.3
      vertex 36.25 6 -18.3
      vertex 36.25 6 -25.3
    endloop
  endfacet
  facet normal -1 -0 0
    outer loop
      vertex 36.25 6 -18.3
      vertex 36.25 -6 -25.3
      vertex 36.25 -6 -18.3
    endloop
  endfacet
  facet normal 0.121463 0 -0.992596
    outer loop
      vertex 34.8387 -6 -18.4727
      vertex 36.25 6 -18.3
      vertex 36.25 -6 -18.3
    endloop
  endfacet
  facet normal 0.121463 0 -0.992596
    outer loop
      vertex 36.25 6 -18.3
      vertex 34.8387 -6 -18.4727
      vertex 34.8387 6 -18.4727
    endloop
  endfacet
  facet normal 1 -0 0
    outer loop
      vertex 42.475 4.13755 0
      vertex 42.475 6 -6
      vertex 42.475 6 0
    endloop
  endfacet
  facet normal 1 0 0
    outer loop
      vertex 42.475 6 -6
      vertex 42.475 4.13755 0
      vertex 42.475 4.13755 -6
    endloop
  endfacet
  facet normal 1 -0 0
    outer loop
      vertex 42.475 -6 0
      vertex 42.475 -4.13755 -6
      vertex 42.475 -4.13755 0
    endloop
  endfacet
  facet normal 1 0 0
    outer loop
      vertex 42.475 -4.13755 -6
      vertex 42.475 -6 0
      vertex 42.475 -6 -6
    endloop
  endfacet
  facet normal -1 0 0
    outer loop
      vertex -42.475 4.13755 -6
      vertex -42.475 6 0
      vertex -42.475 6 -6
    endloop
  endfacet
  facet normal -1 -0 0
    outer loop
      vertex -42.475 6 0
      vertex -42.475 4.13755 -6
      vertex -42.475 4.13755 0
    endloop
  endfacet
  facet normal -1 0 0
    outer loop
      vertex -42.475 -6 -6
      vertex -42.475 -4.13755 0
      vertex -42.475 -4.13755 -6
    endloop
  endfacet
  facet normal -1 -0 0
    outer loop
      vertex -42.475 -4.13755 0
      vertex -42.475 -6 -6
      vertex -42.475 -6 0
    endloop
  endfacet
  facet normal 0 1 -0
    outer loop
      vertex -21.4491 6 -6.00872
      vertex -42.475 6 0
      vertex -20.95 6 -6.00001
    endloop
  endfacet
  facet normal 0 1 0
    outer loop
      vertex 42.475 6 0
      vertex -20.4509 6 -6.00872
      vertex -20.95 6 -6.00001
    endloop
  endfacet
  facet normal 0 1 0
    outer loop
      vertex 42.475 6 0
      vertex -19.9525 6 -6.03485
      vertex -20.4509 6 -6.00872
    endloop
  endfacet
  facet normal 0 1 0
    outer loop
      vertex 42.475 6 0
      vertex -19.4552 6 -6.07835
      vertex -19.9525 6 -6.03485
    endloop
  endfacet
  facet normal 0 1 0
    outer loop
      vertex 42.475 6 0
      vertex -18.9598 6 -6.13917
      vertex -19.4552 6 -6.07835
    endloop
  endfacet
  facet normal 0 1 0
    outer loop
      vertex 42.475 6 0
      vertex -18.4668 6 -6.21725
      vertex -18.9598 6 -6.13917
    endloop
  endfacet
  facet normal 0 1 0
    outer loop
      vertex 42.475 6 0
      vertex -17.9769 6 -6.3125
      vertex -18.4668 6 -6.21725
    endloop
  endfacet
  facet normal 0 1 0
    outer loop
      vertex 42.475 6 0
      vertex 31.7401 6 -16.0732
      vertex -17.9769 6 -6.3125
    endloop
  endfacet
  facet normal 0 1 0
    outer loop
      vertex 41.975 6 -6
      vertex 32.1267 6 -16.1642
      vertex 31.7401 6 -16.0732
    endloop
  endfacet
  facet normal 0 1 0
    outer loop
      vertex 41.975 6 -6
      vertex 32.5033 6 -16.2904
      vertex 32.1267 6 -16.1642
    endloop
  endfacet
  facet normal 0 1 0
    outer loop
      vertex 41.975 6 -6
      vertex 32.8667 6 -16.4508
      vertex 32.5033 6 -16.2904
    endloop
  endfacet
  facet normal 0 1 0
    outer loop
      vertex 41.975 6 -6
      vertex 33.2137 6 -16.6441
      vertex 32.8667 6 -16.4508
    endloop
  endfacet
  facet normal 0 1 0
    outer loop
      vertex 41.975 6 -6
      vertex 33.5413 6 -16.8685
      vertex 33.2137 6 -16.6441
    endloop
  endfacet
  facet normal 0 1 -0
    outer loop
      vertex 36.25 6 -18.3
      vertex 33.5413 6 -16.8685
      vertex 41.975 6 -6
    endloop
  endfacet
  facet normal 0 1 0
    outer loop
      vertex 33.5413 6 -16.8685
      vertex 36.25 6 -18.3
      vertex 33.8469 6 -17.1223
    endloop
  endfacet
  facet normal 0 1 0
    outer loop
      vertex 33.8469 6 -17.1223
      vertex 36.25 6 -18.3
      vertex 34.1277 6 -17.4031
    endloop
  endfacet
  facet normal 0 1 0
    outer loop
      vertex 34.1277 6 -17.4031
      vertex 36.25 6 -18.3
      vertex 34.3815 6 -17.7087
    endloop
  endfacet
  facet normal 0 1 0
    outer loop
      vertex 34.3815 6 -17.7087
      vertex 36.25 6 -18.3
      vertex 34.6059 6 -18.0363
    endloop
  endfacet
  facet normal 0 1 -0
    outer loop
      vertex 41.975 6 -25.3
      vertex 36.25 6 -18.3
      vertex 41.975 6 -6
    endloop
  endfacet
  facet normal 0 1 0
    outer loop
      vertex 36.25 6 -18.3
      vertex 41.975 6 -25.3
      vertex 36.25 6 -25.3
    endloop
  endfacet
  facet normal 0 1 0
    outer loop
      vertex 41.975 6 -6
      vertex 42.475 6 0
      vertex 42.475 6 -6
    endloop
  endfacet
  facet normal 0 1 0
    outer loop
      vertex 31.7401 6 -16.0732
      vertex 42.475 6 0
      vertex 41.975 6 -6
    endloop
  endfacet
  facet normal 0 1 0
    outer loop
      vertex 42.475 6 0
      vertex -20.95 6 -6.00001
      vertex -42.475 6 0
    endloop
  endfacet
  facet normal 0 1 0
    outer loop
      vertex -42.475 6 0
      vertex -41.975 6 -6
      vertex -42.475 6 -6
    endloop
  endfacet
  facet normal 0 1 -0
    outer loop
      vertex -21.9475 6 -6.03485
      vertex -42.475 6 0
      vertex -21.4491 6 -6.00872
    endloop
  endfacet
  facet normal 0 1 -0
    outer loop
      vertex -22.4447 6 -6.07835
      vertex -42.475 6 0
      vertex -21.9475 6 -6.03485
    endloop
  endfacet
  facet normal 0 1 -0
    outer loop
      vertex -22.9402 6 -6.13917
      vertex -42.475 6 0
      vertex -22.4447 6 -6.07835
    endloop
  endfacet
  facet normal 0 1 -0
    outer loop
      vertex -23.4332 6 -6.21725
      vertex -42.475 6 0
      vertex -22.9402 6 -6.13917
    endloop
  endfacet
  facet normal 0 1 -0
    outer loop
      vertex -23.9231 6 -6.3125
      vertex -42.475 6 0
      vertex -23.4332 6 -6.21725
    endloop
  endfacet
  facet normal 0 1 -0
    outer loop
      vertex -24.4095 6 -6.42477
      vertex -42.475 6 0
      vertex -23.9231 6 -6.3125
    endloop
  endfacet
  facet normal 0 1 -0
    outer loop
      vertex -24.8916 6 -6.55397
      vertex -42.475 6 0
      vertex -24.4095 6 -6.42477
    endloop
  endfacet
  facet normal 0 1 -0
    outer loop
      vertex -25.3689 6 -6.6999
      vertex -42.475 6 0
      vertex -24.8916 6 -6.55397
    endloop
  endfacet
  facet normal 0 1 -0
    outer loop
      vertex -25.8409 6 -6.86241
      vertex -42.475 6 0
      vertex -25.3689 6 -6.6999
    endloop
  endfacet
  facet normal 0 1 -0
    outer loop
      vertex -26.3069 6 -7.04127
      vertex -42.475 6 0
      vertex -25.8409 6 -6.86241
    endloop
  endfacet
  facet normal 0 1 -0
    outer loop
      vertex -26.7663 6 -7.23631
      vertex -42.475 6 0
      vertex -26.3069 6 -7.04127
    endloop
  endfacet
  facet normal 0 1 -0
    outer loop
      vertex -27.2187 6 -7.44725
      vertex -42.475 6 0
      vertex -26.7663 6 -7.23631
    endloop
  endfacet
  facet normal 0 1 -0
    outer loop
      vertex -27.6634 6 -7.67385
      vertex -42.475 6 0
      vertex -27.2187 6 -7.44725
    endloop
  endfacet
  facet normal 0 1 -0
    outer loop
      vertex -28.1 6 -7.91584
      vertex -42.475 6 0
      vertex -27.6634 6 -7.67385
    endloop
  endfacet
  facet normal 0 1 -0
    outer loop
      vertex -28.5278 6 -8.17292
      vertex -42.475 6 0
      vertex -28.1 6 -7.91584
    endloop
  endfacet
  facet normal 0 1 -0
    outer loop
      vertex -28.9465 6 -8.44477
      vertex -42.475 6 0
      vertex -28.5278 6 -8.17292
    endloop
  endfacet
  facet normal 0 1 -0
    outer loop
      vertex -29.3553 6 -8.73106
      vertex -42.475 6 0
      vertex -28.9465 6 -8.44477
    endloop
  endfacet
  facet normal 0 1 -0
    outer loop
      vertex -29.754 6 -9.03146
      vertex -42.475 6 0
      vertex -29.3553 6 -8.73106
    endloop
  endfacet
  facet normal 0 1 0
    outer loop
      vertex -42.475 6 0
      vertex -29.754 6 -9.03146
      vertex -41.975 6 -6
    endloop
  endfacet
  facet normal 0 1 -0
    outer loop
      vertex -30.1419 6 -9.34558
      vertex -41.975 6 -6
      vertex -29.754 6 -9.03146
    endloop
  endfacet
  facet normal 0 1 -0
    outer loop
      vertex -30.5186 6 -9.67303
      vertex -41.975 6 -6
      vertex -30.1419 6 -9.34558
    endloop
  endfacet
  facet normal 0 1 -0
    outer loop
      vertex -30.8836 6 -10.0135
      vertex -41.975 6 -6
      vertex -30.5186 6 -9.67303
    endloop
  endfacet
  facet normal 0 1 -0
    outer loop
      vertex -31.2366 6 -10.3664
      vertex -41.975 6 -6
      vertex -30.8836 6 -10.0135
    endloop
  endfacet
  facet normal 0 1 -0
    outer loop
      vertex -31.577 6 -10.7314
      vertex -41.975 6 -6
      vertex -31.2366 6 -10.3664
    endloop
  endfacet
  facet normal 0 1 -0
    outer loop
      vertex -31.9044 6 -11.1082
      vertex -41.975 6 -6
      vertex -31.577 6 -10.7314
    endloop
  endfacet
  facet normal 0 1 -0
    outer loop
      vertex -32.2186 6 -11.496
      vertex -41.975 6 -6
      vertex -31.9044 6 -11.1082
    endloop
  endfacet
  facet normal 0 1 -0
    outer loop
      vertex -32.5189 6 -11.8947
      vertex -41.975 6 -6
      vertex -32.2186 6 -11.496
    endloop
  endfacet
  facet normal 0 1 -0
    outer loop
      vertex -32.8052 6 -12.3036
      vertex -41.975 6 -6
      vertex -32.5189 6 -11.8947
    endloop
  endfacet
  facet normal 0 1 -0
    outer loop
      vertex -33.0771 6 -12.7222
      vertex -41.975 6 -6
      vertex -32.8052 6 -12.3036
    endloop
  endfacet
  facet normal 0 1 -0
    outer loop
      vertex -33.3342 6 -13.15
      vertex -41.975 6 -6
      vertex -33.0771 6 -12.7222
    endloop
  endfacet
  facet normal 0 1 -0
    outer loop
      vertex -33.5761 6 -13.5866
      vertex -41.975 6 -6
      vertex -33.3342 6 -13.15
    endloop
  endfacet
  facet normal 0 1 -0
    outer loop
      vertex -33.8027 6 -14.0313
      vertex -41.975 6 -6
      vertex -33.5761 6 -13.5866
    endloop
  endfacet
  facet normal 0 1 -0
    outer loop
      vertex -34.0137 6 -14.4837
      vertex -41.975 6 -6
      vertex -33.8027 6 -14.0313
    endloop
  endfacet
  facet normal 0 1 -0
    outer loop
      vertex -34.2087 6 -14.9431
      vertex -41.975 6 -6
      vertex -34.0137 6 -14.4837
    endloop
  endfacet
  facet normal 0 1 -0
    outer loop
      vertex -34.3876 6 -15.4091
      vertex -41.975 6 -6
      vertex -34.2087 6 -14.9431
    endloop
  endfacet
  facet normal 0 1 -0
    outer loop
      vertex -34.5501 6 -15.8811
      vertex -41.975 6 -6
      vertex -34.3876 6 -15.4091
    endloop
  endfacet
  facet normal 0 1 -0
    outer loop
      vertex -34.696 6 -16.3584
      vertex -41.975 6 -6
      vertex -34.5501 6 -15.8811
    endloop
  endfacet
  facet normal 0 1 -0
    outer loop
      vertex -34.8252 6 -16.8405
      vertex -41.975 6 -6
      vertex -34.696 6 -16.3584
    endloop
  endfacet
  facet normal 0 1 -0
    outer loop
      vertex -34.9375 6 -17.3269
      vertex -41.975 6 -6
      vertex -34.8252 6 -16.8405
    endloop
  endfacet
  facet normal 0 1 -0
    outer loop
      vertex -35.0327 6 -17.8168
      vertex -41.975 6 -6
      vertex -34.9375 6 -17.3269
    endloop
  endfacet
  facet normal 0 1 0
    outer loop
      vertex -41.975 6 -25.3
      vertex -35.0327 6 -17.8168
      vertex -35.1108 6 -18.3098
    endloop
  endfacet
  facet normal 0 1 0
    outer loop
      vertex -41.975 6 -25.3
      vertex -35.1108 6 -18.3098
      vertex -35.1717 6 -18.8052
    endloop
  endfacet
  facet normal 0 1 0
    outer loop
      vertex -41.975 6 -25.3
      vertex -35.1717 6 -18.8052
      vertex -35.2152 6 -19.3025
    endloop
  endfacet
  facet normal 0 1 0
    outer loop
      vertex -41.975 6 -25.3
      vertex -35.2152 6 -19.3025
      vertex -35.2413 6 -19.8009
    endloop
  endfacet
  facet normal 0 1 0
    outer loop
      vertex -41.975 6 -25.3
      vertex -35.2413 6 -19.8009
      vertex -35.25 6 -20.3
    endloop
  endfacet
  facet normal 0 1 0
    outer loop
      vertex -41.975 6 -25.3
      vertex -35.25 6 -20.3
      vertex -35.2413 6 -20.7991
    endloop
  endfacet
  facet normal 0 1 0
    outer loop
      vertex -41.975 6 -25.3
      vertex -35.2413 6 -20.7991
      vertex -35.2152 6 -21.2975
    endloop
  endfacet
  facet normal 0 1 0
    outer loop
      vertex -41.975 6 -25.3
      vertex -35.2152 6 -21.2975
      vertex -35.1717 6 -21.7948
    endloop
  endfacet
  facet normal 0 1 0
    outer loop
      vertex -41.975 6 -25.3
      vertex -35.1717 6 -21.7948
      vertex -35.1108 6 -22.2902
    endloop
  endfacet
  facet normal 0 1 0
    outer loop
      vertex -41.975 6 -25.3
      vertex -35.1108 6 -22.2902
      vertex -35.0327 6 -22.7832
    endloop
  endfacet
  facet normal 0 1 0
    outer loop
      vertex -41.975 6 -25.3
      vertex -35.0327 6 -22.7832
      vertex -34.9375 6 -23.2731
    endloop
  endfacet
  facet normal 0 1 0
    outer loop
      vertex -41.975 6 -25.3
      vertex -34.9375 6 -23.2731
      vertex -34.8252 6 -23.7595
    endloop
  endfacet
  facet normal 0 1 0
    outer loop
      vertex -41.975 6 -25.3
      vertex -34.8252 6 -23.7595
      vertex -34.696 6 -24.2416
    endloop
  endfacet
  facet normal 0 1 0
    outer loop
      vertex -41.975 6 -25.3
      vertex -34.696 6 -24.2416
      vertex -34.5501 6 -24.7189
    endloop
  endfacet
  facet normal 0 1 0
    outer loop
      vertex -41.975 6 -25.3
      vertex -34.5501 6 -24.7189
      vertex -34.3876 6 -25.1909
    endloop
  endfacet
  facet normal 0 1 0
    outer loop
      vertex -41.975 6 -25.3
      vertex -34.3876 6 -25.1909
      vertex -34.3457 6 -25.3
    endloop
  endfacet
  facet normal 0 1 0
    outer loop
      vertex -35.0327 6 -17.8168
      vertex -41.975 6 -25.3
      vertex -41.975 6 -6
    endloop
  endfacet
  facet normal 0 1 0
    outer loop
      vertex 36.25 6 -18.3
      vertex 34.7992 6 -18.3833
      vertex 34.6059 6 -18.0363
    endloop
  endfacet
  facet normal -0 1 0
    outer loop
      vertex 34.7992 6 -18.3833
      vertex 36.25 6 -18.3
      vertex 34.8387 6 -18.4727
    endloop
  endfacet
  facet normal 0 -1 0
    outer loop
      vertex 34.7992 -6 -18.3833
      vertex 36.25 -6 -18.3
      vertex 34.6059 -6 -18.0363
    endloop
  endfacet
  facet normal 0 -1 0
    outer loop
      vertex 36.25 -6 -18.3
      vertex 34.7992 -6 -18.3833
      vertex 34.8387 -6 -18.4727
    endloop
  endfacet
  facet normal 0 -1 0
    outer loop
      vertex -19.9525 -6 -6.03485
      vertex -42.475 -6 0
      vertex -20.4509 -6 -6.00872
    endloop
  endfacet
  facet normal 0 -1 0
    outer loop
      vertex -42.475 -6 0
      vertex -21.4491 -6 -6.00872
      vertex -20.95 -6 -6.00001
    endloop
  endfacet
  facet normal 0 -1 0
    outer loop
      vertex -42.475 -6 0
      vertex -21.9475 -6 -6.03485
      vertex -21.4491 -6 -6.00872
    endloop
  endfacet
  facet normal 0 -1 0
    outer loop
      vertex -42.475 -6 0
      vertex -22.4447 -6 -6.07835
      vertex -21.9475 -6 -6.03485
    endloop
  endfacet
  facet normal 0 -1 0
    outer loop
      vertex -42.475 -6 0
      vertex -22.9402 -6 -6.13917
      vertex -22.4447 -6 -6.07835
    endloop
  endfacet
  facet normal 0 -1 0
    outer loop
      vertex -42.475 -6 0
      vertex -23.4332 -6 -6.21725
      vertex -22.9402 -6 -6.13917
    endloop
  endfacet
  facet normal 0 -1 0
    outer loop
      vertex -42.475 -6 0
      vertex -23.9231 -6 -6.3125
      vertex -23.4332 -6 -6.21725
    endloop
  endfacet
  facet normal 0 -1 0
    outer loop
      vertex -42.475 -6 0
      vertex -24.4095 -6 -6.42477
      vertex -23.9231 -6 -6.3125
    endloop
  endfacet
  facet normal 0 -1 0
    outer loop
      vertex -42.475 -6 0
      vertex -24.8916 -6 -6.55397
      vertex -24.4095 -6 -6.42477
    endloop
  endfacet
  facet normal 0 -1 0
    outer loop
      vertex -42.475 -6 0
      vertex -25.3689 -6 -6.6999
      vertex -24.8916 -6 -6.55397
    endloop
  endfacet
  facet normal 0 -1 0
    outer loop
      vertex -42.475 -6 0
      vertex -25.8409 -6 -6.86241
      vertex -25.3689 -6 -6.6999
    endloop
  endfacet
  facet normal 0 -1 0
    outer loop
      vertex -42.475 -6 0
      vertex -26.3069 -6 -7.04127
      vertex -25.8409 -6 -6.86241
    endloop
  endfacet
  facet normal 0 -1 0
    outer loop
      vertex -42.475 -6 0
      vertex -26.7663 -6 -7.23631
      vertex -26.3069 -6 -7.04127
    endloop
  endfacet
  facet normal 0 -1 0
    outer loop
      vertex -42.475 -6 0
      vertex -27.2187 -6 -7.44725
      vertex -26.7663 -6 -7.23631
    endloop
  endfacet
  facet normal 0 -1 0
    outer loop
      vertex -42.475 -6 0
      vertex -27.6634 -6 -7.67385
      vertex -27.2187 -6 -7.44725
    endloop
  endfacet
  facet normal 0 -1 0
    outer loop
      vertex -42.475 -6 0
      vertex -28.1 -6 -7.91584
      vertex -27.6634 -6 -7.67385
    endloop
  endfacet
  facet normal 0 -1 0
    outer loop
      vertex -42.475 -6 0
      vertex -28.5278 -6 -8.17292
      vertex -28.1 -6 -7.91584
    endloop
  endfacet
  facet normal 0 -1 0
    outer loop
      vertex -42.475 -6 0
      vertex -28.9465 -6 -8.44477
      vertex -28.5278 -6 -8.17292
    endloop
  endfacet
  facet normal 0 -1 0
    outer loop
      vertex -42.475 -6 0
      vertex -29.3553 -6 -8.73106
      vertex -28.9465 -6 -8.44477
    endloop
  endfacet
  facet normal 0 -1 0
    outer loop
      vertex -42.475 -6 0
      vertex -29.754 -6 -9.03146
      vertex -29.3553 -6 -8.73106
    endloop
  endfacet
  facet normal 0 -1 0
    outer loop
      vertex -41.975 -6 -6
      vertex -30.1419 -6 -9.34558
      vertex -29.754 -6 -9.03146
    endloop
  endfacet
  facet normal 0 -1 0
    outer loop
      vertex -41.975 -6 -6
      vertex -30.5186 -6 -9.67303
      vertex -30.1419 -6 -9.34558
    endloop
  endfacet
  facet normal 0 -1 0
    outer loop
      vertex -41.975 -6 -6
      vertex -30.8836 -6 -10.0135
      vertex -30.5186 -6 -9.67303
    endloop
  endfacet
  facet normal 0 -1 0
    outer loop
      vertex -41.975 -6 -6
      vertex -31.2366 -6 -10.3664
      vertex -30.8836 -6 -10.0135
    endloop
  endfacet
  facet normal 0 -1 0
    outer loop
      vertex -41.975 -6 -6
      vertex -31.577 -6 -10.7314
      vertex -31.2366 -6 -10.3664
    endloop
  endfacet
  facet normal 0 -1 0
    outer loop
      vertex -41.975 -6 -6
      vertex -31.9044 -6 -11.1082
      vertex -31.577 -6 -10.7314
    endloop
  endfacet
  facet normal 0 -1 0
    outer loop
      vertex -41.975 -6 -6
      vertex -32.2186 -6 -11.496
      vertex -31.9044 -6 -11.1082
    endloop
  endfacet
  facet normal 0 -1 0
    outer loop
      vertex -41.975 -6 -6
      vertex -32.5189 -6 -11.8947
      vertex -32.2186 -6 -11.496
    endloop
  endfacet
  facet normal 0 -1 0
    outer loop
      vertex -41.975 -6 -6
      vertex -32.8052 -6 -12.3036
      vertex -32.5189 -6 -11.8947
    endloop
  endfacet
  facet normal 0 -1 0
    outer loop
      vertex -41.975 -6 -6
      vertex -33.0771 -6 -12.7222
      vertex -32.8052 -6 -12.3036
    endloop
  endfacet
  facet normal 0 -1 0
    outer loop
      vertex -41.975 -6 -6
      vertex -33.3342 -6 -13.15
      vertex -33.0771 -6 -12.7222
    endloop
  endfacet
  facet normal 0 -1 0
    outer loop
      vertex -41.975 -6 -6
      vertex -33.5761 -6 -13.5866
      vertex -33.3342 -6 -13.15
    endloop
  endfacet
  facet normal 0 -1 0
    outer loop
      vertex -41.975 -6 -6
      vertex -33.8027 -6 -14.0313
      vertex -33.5761 -6 -13.5866
    endloop
  endfacet
  facet normal 0 -1 0
    outer loop
      vertex -41.975 -6 -6
      vertex -34.0137 -6 -14.4837
      vertex -33.8027 -6 -14.0313
    endloop
  endfacet
  facet normal 0 -1 0
    outer loop
      vertex -41.975 -6 -6
      vertex -34.2087 -6 -14.9431
      vertex -34.0137 -6 -14.4837
    endloop
  endfacet
  facet normal 0 -1 0
    outer loop
      vertex -41.975 -6 -6
      vertex -34.3876 -6 -15.4091
      vertex -34.2087 -6 -14.9431
    endloop
  endfacet
  facet normal 0 -1 0
    outer loop
      vertex -41.975 -6 -6
      vertex -34.5501 -6 -15.8811
      vertex -34.3876 -6 -15.4091
    endloop
  endfacet
  facet normal 0 -1 0
    outer loop
      vertex -41.975 -6 -6
      vertex -34.696 -6 -16.3584
      vertex -34.5501 -6 -15.8811
    endloop
  endfacet
  facet normal 0 -1 0
    outer loop
      vertex -41.975 -6 -6
      vertex -34.8252 -6 -16.8405
      vertex -34.696 -6 -16.3584
    endloop
  endfacet
  facet normal 0 -1 0
    outer loop
      vertex -41.975 -6 -6
      vertex -34.9375 -6 -17.3269
      vertex -34.8252 -6 -16.8405
    endloop
  endfacet
  facet normal 0 -1 0
    outer loop
      vertex -41.975 -6 -6
      vertex -35.0327 -6 -17.8168
      vertex -34.9375 -6 -17.3269
    endloop
  endfacet
  facet normal 0 -1 0
    outer loop
      vertex -41.975 -6 -25.3
      vertex -35.0327 -6 -17.8168
      vertex -41.975 -6 -6
    endloop
  endfacet
  facet normal 0 -1 0
    outer loop
      vertex -35.0327 -6 -17.8168
      vertex -41.975 -6 -25.3
      vertex -35.1108 -6 -18.3098
    endloop
  endfacet
  facet normal 0 -1 0
    outer loop
      vertex -35.1108 -6 -18.3098
      vertex -41.975 -6 -25.3
      vertex -35.1717 -6 -18.8052
    endloop
  endfacet
  facet normal 0 -1 0
    outer loop
      vertex -35.1717 -6 -18.8052
      vertex -41.975 -6 -25.3
      vertex -35.2152 -6 -19.3025
    endloop
  endfacet
  facet normal 0 -1 0
    outer loop
      vertex -35.2152 -6 -19.3025
      vertex -41.975 -6 -25.3
      vertex -35.2413 -6 -19.8009
    endloop
  endfacet
  facet normal 0 -1 0
    outer loop
      vertex -35.2413 -6 -19.8009
      vertex -41.975 -6 -25.3
      vertex -35.25 -6 -20.3
    endloop
  endfacet
  facet normal 0 -1 -0
    outer loop
      vertex -35.25 -6 -20.3
      vertex -41.975 -6 -25.3
      vertex -35.2413 -6 -20.7991
    endloop
  endfacet
  facet normal 0 -1 -0
    outer loop
      vertex -35.2413 -6 -20.7991
      vertex -41.975 -6 -25.3
      vertex -35.2152 -6 -21.2975
    endloop
  endfacet
  facet normal 0 -1 -0
    outer loop
      vertex -35.2152 -6 -21.2975
      vertex -41.975 -6 -25.3
      vertex -35.1717 -6 -21.7948
    endloop
  endfacet
  facet normal 0 -1 -0
    outer loop
      vertex -35.1717 -6 -21.7948
      vertex -41.975 -6 -25.3
      vertex -35.1108 -6 -22.2902
    endloop
  endfacet
  facet normal 0 -1 -0
    outer loop
      vertex -35.1108 -6 -22.2902
      vertex -41.975 -6 -25.3
      vertex -35.0327 -6 -22.7832
    endloop
  endfacet
  facet normal 0 -1 -0
    outer loop
      vertex -35.0327 -6 -22.7832
      vertex -41.975 -6 -25.3
      vertex -34.9375 -6 -23.2731
    endloop
  endfacet
  facet normal 0 -1 -0
    outer loop
      vertex -34.9375 -6 -23.2731
      vertex -41.975 -6 -25.3
      vertex -34.8252 -6 -23.7595
    endloop
  endfacet
  facet normal 0 -1 -0
    outer loop
      vertex -34.8252 -6 -23.7595
      vertex -41.975 -6 -25.3
      vertex -34.696 -6 -24.2416
    endloop
  endfacet
  facet normal 0 -1 -0
    outer loop
      vertex -34.696 -6 -24.2416
      vertex -41.975 -6 -25.3
      vertex -34.5501 -6 -24.7189
    endloop
  endfacet
  facet normal 0 -1 -0
    outer loop
      vertex -34.5501 -6 -24.7189
      vertex -41.975 -6 -25.3
      vertex -34.3876 -6 -25.1909
    endloop
  endfacet
  facet normal 0 -1 -0
    outer loop
      vertex -34.3876 -6 -25.1909
      vertex -41.975 -6 -25.3
      vertex -34.3457 -6 -25.3
    endloop
  endfacet
  facet normal 0 -1 0
    outer loop
      vertex -41.975 -6 -6
      vertex -42.475 -6 0
      vertex -42.475 -6 -6
    endloop
  endfacet
  facet normal 0 -1 0
    outer loop
      vertex -29.754 -6 -9.03146
      vertex -42.475 -6 0
      vertex -41.975 -6 -6
    endloop
  endfacet
  facet normal 0 -1 0
    outer loop
      vertex -20.4509 -6 -6.00872
      vertex -42.475 -6 0
      vertex -20.95 -6 -6.00001
    endloop
  endfacet
  facet normal 0 -1 -0
    outer loop
      vertex 42.475 -6 0
      vertex 41.975 -6 -6
      vertex 42.475 -6 -6
    endloop
  endfacet
  facet normal 0 -1 0
    outer loop
      vertex -19.4552 -6 -6.07835
      vertex -42.475 -6 0
      vertex -19.9525 -6 -6.03485
    endloop
  endfacet
  facet normal 0 -1 0
    outer loop
      vertex -18.9598 -6 -6.13917
      vertex -42.475 -6 0
      vertex -19.4552 -6 -6.07835
    endloop
  endfacet
  facet normal 0 -1 0
    outer loop
      vertex -42.475 -6 0
      vertex -18.9598 -6 -6.13917
      vertex 42.475 -6 0
    endloop
  endfacet
  facet normal 0 -1 0
    outer loop
      vertex -18.4668 -6 -6.21725
      vertex 42.475 -6 0
      vertex -18.9598 -6 -6.13917
    endloop
  endfacet
  facet normal 0 -1 0
    outer loop
      vertex -17.9769 -6 -6.3125
      vertex 42.475 -6 0
      vertex -18.4668 -6 -6.21725
    endloop
  endfacet
  facet normal 0 -1 0
    outer loop
      vertex 31.7401 -6 -16.0732
      vertex 42.475 -6 0
      vertex -17.9769 -6 -6.3125
    endloop
  endfacet
  facet normal 0 -1 0
    outer loop
      vertex 42.475 -6 0
      vertex 31.7401 -6 -16.0732
      vertex 41.975 -6 -6
    endloop
  endfacet
  facet normal 0 -1 0
    outer loop
      vertex 32.1267 -6 -16.1642
      vertex 41.975 -6 -6
      vertex 31.7401 -6 -16.0732
    endloop
  endfacet
  facet normal 0 -1 0
    outer loop
      vertex 32.5033 -6 -16.2904
      vertex 41.975 -6 -6
      vertex 32.1267 -6 -16.1642
    endloop
  endfacet
  facet normal 0 -1 0
    outer loop
      vertex 32.8667 -6 -16.4508
      vertex 41.975 -6 -6
      vertex 32.5033 -6 -16.2904
    endloop
  endfacet
  facet normal 0 -1 0
    outer loop
      vertex 33.2137 -6 -16.6441
      vertex 41.975 -6 -6
      vertex 32.8667 -6 -16.4508
    endloop
  endfacet
  facet normal 0 -1 0
    outer loop
      vertex 33.5413 -6 -16.8685
      vertex 41.975 -6 -6
      vertex 33.2137 -6 -16.6441
    endloop
  endfacet
  facet normal 0 -1 0
    outer loop
      vertex 36.25 -6 -18.3
      vertex 33.5413 -6 -16.8685
      vertex 33.8469 -6 -17.1223
    endloop
  endfacet
  facet normal 0 -1 0
    outer loop
      vertex 36.25 -6 -18.3
      vertex 33.8469 -6 -17.1223
      vertex 34.1277 -6 -17.4031
    endloop
  endfacet
  facet normal 0 -1 0
    outer loop
      vertex 36.25 -6 -18.3
      vertex 34.1277 -6 -17.4031
      vertex 34.3815 -6 -17.7087
    endloop
  endfacet
  facet normal 0 -1 0
    outer loop
      vertex 36.25 -6 -18.3
      vertex 34.3815 -6 -17.7087
      vertex 34.6059 -6 -18.0363
    endloop
  endfacet
  facet normal 0 -1 0
    outer loop
      vertex 33.5413 -6 -16.8685
      vertex 36.25 -6 -18.3
      vertex 41.975 -6 -6
    endloop
  endfacet
  facet normal 0 -1 0
    outer loop
      vertex 41.975 -6 -25.3
      vertex 36.25 -6 -18.3
      vertex 36.25 -6 -25.3
    endloop
  endfacet
  facet normal 0 -1 0
    outer loop
      vertex 36.25 -6 -18.3
      vertex 41.975 -6 -25.3
      vertex 41.975 -6 -6
    endloop
  endfacet
endsolid OpenSCAD_Model
