solid OpenSCAD_Model
  facet normal 0 0 1
    outer loop
      vertex 42.475 6 0
      vertex 42.2461 3.93247 0
      vertex 42.475 4.13755 0
    endloop
  endfacet
  facet normal 0 0 1
    outer loop
      vertex 42.475 6 0
      vertex 41.9692 3.64523 0
      vertex 42.2461 3.93247 0
    endloop
  endfacet
  facet normal 0 0 1
    outer loop
      vertex 42.475 6 0
      vertex 41.714 3.33854 0
      vertex 41.9692 3.64523 0
    endloop
  endfacet
  facet normal 0 0 1
    outer loop
      vertex 42.475 6 0
      vertex 41.4818 3.01403 0
      vertex 41.714 3.33854 0
    endloop
  endfacet
  facet normal 0 0 1
    outer loop
      vertex 42.475 6 0
      vertex 41.2739 2.67344 0
      vertex 41.4818 3.01403 0
    endloop
  endfacet
  facet normal 0 0 1
    outer loop
      vertex 42.475 6 0
      vertex 41.0915 2.31859 0
      vertex 41.2739 2.67344 0
    endloop
  endfacet
  facet normal 0 0 1
    outer loop
      vertex 42.475 6 0
      vertex 40.9354 1.95137 0
      vertex 41.0915 2.31859 0
    endloop
  endfacet
  facet normal 0 0 1
    outer loop
      vertex 40.5896 0.398736 0
      vertex -40.575 0 0
      vertex 40.575 0 0
    endloop
  endfacet
  facet normal 0 0 1
    outer loop
      vertex -40.5896 0.398736 0
      vertex 40.5896 0.398736 0
      vertex 40.6332 0.795346 0
    endloop
  endfacet
  facet normal 0 0 1
    outer loop
      vertex -40.6332 0.795346 0
      vertex 40.6332 0.795346 0
      vertex 40.7057 1.18771 0
    endloop
  endfacet
  facet normal 0 0 1
    outer loop
      vertex -40.7057 1.18771 0
      vertex 40.7057 1.18771 0
      vertex 40.8066 1.57374 0
    endloop
  endfacet
  facet normal 0 0 1
    outer loop
      vertex -40.8066 1.57374 0
      vertex 40.8066 1.57374 0
      vertex 40.9354 1.95137 0
    endloop
  endfacet
  facet normal 0 0 1
    outer loop
      vertex -40.9354 1.95137 0
      vertex 40.9354 1.95137 0
      vertex 42.475 6 0
    endloop
  endfacet
  facet normal 0 0 1
    outer loop
      vertex 40.5896 0.398736 0
      vertex -40.5896 0.398736 0
      vertex -40.575 0 0
    endloop
  endfacet
  facet normal 0 0 1
    outer loop
      vertex 40.6332 0.795346 0
      vertex -40.6332 0.795346 0
      vertex -40.5896 0.398736 0
    endloop
  endfacet
  facet normal 0 0 1
    outer loop
      vertex 40.7057 1.18771 0
      vertex -40.7057 1.18771 0
      vertex -40.6332 0.795346 0
    endloop
  endfacet
  facet normal 0 0 1
    outer loop
      vertex 40.8066 1.57374 0
      vertex -40.8066 1.57374 0
      vertex -40.7057 1.18771 0
    endloop
  endfacet
  facet normal 0 0 1
    outer loop
      vertex 40.9354 1.95137 0
      vertex -40.9354 1.95137 0
      vertex -40.8066 1.57374 0
    endloop
  endfacet
  facet normal 0 0 1
    outer loop
      vertex 42.475 6 0
      vertex -41.0915 2.31859 0
      vertex -40.9354 1.95137 0
    endloop
  endfacet
  facet normal -0 0 1
    outer loop
      vertex -42.475 6 0
      vertex -41.0915 2.31859 0
      vertex 42.475 6 0
    endloop
  endfacet
  facet normal 0 0 1
    outer loop
      vertex -41.0915 2.31859 0
      vertex -42.475 6 0
      vertex -41.2739 2.67344 0
    endloop
  endfacet
  facet normal 0 0 1
    outer loop
      vertex -41.2739 2.67344 0
      vertex -42.475 6 0
      vertex -41.4818 3.01403 0
    endloop
  endfacet
  facet normal 0 0 1
    outer loop
      vertex -41.4818 3.01403 0
      vertex -42.475 6 0
      vertex -41.714 3.33854 0
    endloop
  endfacet
  facet normal 0 0 1
    outer loop
      vertex -41.714 3.33854 0
      vertex -42.475 6 0
      vertex -41.9692 3.64523 0
    endloop
  endfacet
  facet normal 0 0 1
    outer loop
      vertex -41.9692 3.64523 0
      vertex -42.475 6 0
      vertex -42.2461 3.93247 0
    endloop
  endfacet
  facet normal 0 0 1
    outer loop
      vertex -42.2461 3.93247 0
      vertex -42.475 6 0
      vertex -42.475 4.13755 0
    endloop
  endfacet
  facet normal 0 0 1
    outer loop
      vertex 42.2461 -3.93247 0
      vertex 42.475 -6 0
      vertex 42.475 -4.13755 0
    endloop
  endfacet
  facet normal 0 0 1
    outer loop
      vertex 41.9692 -3.64523 0
      vertex 42.475 -6 0
      vertex 42.2461 -3.93247 0
    endloop
  endfacet
  facet normal 0 0 1
    outer loop
      vertex 41.714 -3.33854 0
      vertex 42.475 -6 0
      vertex 41.9692 -3.64523 0
    endloop
  endfacet
  facet normal 0 0 1
    outer loop
      vertex 41.4818 -3.01403 0
      vertex 42.475 -6 0
      vertex 41.714 -3.33854 0
    endloop
  endfacet
  facet normal 0 0 1
    outer loop
      vertex 41.2739 -2.67344 0
      vertex 42.475 -6 0
      vertex 41.4818 -3.01403 0
    endloop
  endfacet
  facet normal 0 0 1
    outer loop
      vertex 41.0915 -2.31859 0
      vertex 42.475 -6 0
      vertex 41.2739 -2.67344 0
    endloop
  endfacet
  facet normal 0 0 1
    outer loop
      vertex 40.9354 -1.95137 0
      vertex 42.475 -6 0
      vertex 41.0915 -2.31859 0
    endloop
  endfacet
  facet normal -0 0 1
    outer loop
      vertex -40.575 0 0
      vertex 40.5896 -0.398736 0
      vertex 40.575 0 0
    endloop
  endfacet
  facet normal 0 0 1
    outer loop
      vertex -40.5896 -0.398736 0
      vertex 40.5896 -0.398736 0
      vertex -40.575 0 0
    endloop
  endfacet
  facet normal 0 0 1
    outer loop
      vertex 40.5896 -0.398736 0
      vertex -40.5896 -0.398736 0
      vertex 40.6332 -0.795346 0
    endloop
  endfacet
  facet normal 0 0 1
    outer loop
      vertex -40.6332 -0.795346 0
      vertex 40.6332 -0.795346 0
      vertex -40.5896 -0.398736 0
    endloop
  endfacet
  facet normal 0 0 1
    outer loop
      vertex 40.6332 -0.795346 0
      vertex -40.6332 -0.795346 0
      vertex 40.7057 -1.18771 0
    endloop
  endfacet
  facet normal 0 0 1
    outer loop
      vertex -40.7057 -1.18771 0
      vertex 40.7057 -1.18771 0
      vertex -40.6332 -0.795346 0
    endloop
  endfacet
  facet normal 0 0 1
    outer loop
      vertex 40.7057 -1.18771 0
      vertex -40.7057 -1.18771 0
      vertex 40.8066 -1.57374 0
    endloop
  endfacet
  facet normal 0 0 1
    outer loop
      vertex -40.8066 -1.57374 0
      vertex 40.8066 -1.57374 0
      vertex -40.7057 -1.18771 0
    endloop
  endfacet
  facet normal 0 0 1
    outer loop
      vertex 40.8066 -1.57374 0
      vertex -40.8066 -1.57374 0
      vertex 40.9354 -1.95137 0
    endloop
  endfacet
  facet normal 0 0 1
    outer loop
      vertex -40.9354 -1.95137 0
      vertex 40.9354 -1.95137 0
      vertex -40.8066 -1.57374 0
    endloop
  endfacet
  facet normal 0 0 1
    outer loop
      vertex 40.9354 -1.95137 0
      vertex -40.9354 -1.95137 0
      vertex 42.475 -6 0
    endloop
  endfacet
  facet normal -0 0 1
    outer loop
      vertex -41.0915 -2.31859 0
      vertex 42.475 -6 0
      vertex -40.9354 -1.95137 0
    endloop
  endfacet
  facet normal 0 0 1
    outer loop
      vertex -42.475 -6 0
      vertex -41.0915 -2.31859 0
      vertex -41.2739 -2.67344 0
    endloop
  endfacet
  facet normal 0 0 1
    outer loop
      vertex -42.475 -6 0
      vertex -41.2739 -2.67344 0
      vertex -41.4818 -3.01403 0
    endloop
  endfacet
  facet normal 0 0 1
    outer loop
      vertex -42.475 -6 0
      vertex -41.4818 -3.01403 0
      vertex -41.714 -3.33854 0
    endloop
  endfacet
  facet normal 0 0 1
    outer loop
      vertex -42.475 -6 0
      vertex -41.714 -3.33854 0
      vertex -41.9692 -3.64523 0
    endloop
  endfacet
  facet normal 0 0 1
    outer loop
      vertex -42.475 -6 0
      vertex -41.9692 -3.64523 0
      vertex -42.2461 -3.93247 0
    endloop
  endfacet
  facet normal 0 0 1
    outer loop
      vertex -42.475 -6 0
      vertex -42.2461 -3.93247 0
      vertex -42.475 -4.13755 0
    endloop
  endfacet
  facet normal 0 0 1
    outer loop
      vertex -41.0915 -2.31859 0
      vertex -42.475 -6 0
      vertex 42.475 -6 0
    endloop
  endfacet
  facet normal 0 0 -1
    outer loop
      vertex -41.975 -6 -6
      vertex -42.2461 -3.93247 -6
      vertex -41.975 -3.65126 -6
    endloop
  endfacet
  facet normal 0 0 -1
    outer loop
      vertex -42.475 -4.13755 -6
      vertex -41.975 -6 -6
      vertex -42.475 -6 -6
    endloop
  endfacet
  facet normal 0 0 -1
    outer loop
      vertex -41.975 -6 -6
      vertex -42.475 -4.13755 -6
      vertex -42.2461 -3.93247 -6
    endloop
  endfacet
  facet normal 0 0 -1
    outer loop
      vertex 41.975 -6 -6
      vertex 42.475 -4.13755 -6
      vertex 42.475 -6 -6
    endloop
  endfacet
  facet normal -0 0 -1
    outer loop
      vertex 42.475 -4.13755 -6
      vertex 41.975 -6 -6
      vertex 42.2461 -3.93247 -6
    endloop
  endfacet
  facet normal -0 0 -1
    outer loop
      vertex 42.2461 -3.93247 -6
      vertex 41.975 -6 -6
      vertex 41.975 -3.65126 -6
    endloop
  endfacet
  facet normal 0 0 -1
    outer loop
      vertex -42.2461 3.93247 -6
      vertex -41.975 6 -6
      vertex -41.975 3.65126 -6
    endloop
  endfacet
  facet normal 0 0 -1
    outer loop
      vertex -42.475 4.13755 -6
      vertex -41.975 6 -6
      vertex -42.2461 3.93247 -6
    endloop
  endfacet
  facet normal -0 0 -1
    outer loop
      vertex -41.975 6 -6
      vertex -42.475 4.13755 -6
      vertex -42.475 6 -6
    endloop
  endfacet
  facet normal 0 0 -1
    outer loop
      vertex 41.975 6 -6
      vertex 42.475 4.13755 -6
      vertex 42.2461 3.93247 -6
    endloop
  endfacet
  facet normal 0 0 -1
    outer loop
      vertex 41.975 6 -6
      vertex 42.2461 3.93247 -6
      vertex 41.975 3.65126 -6
    endloop
  endfacet
  facet normal 0 0 -1
    outer loop
      vertex 42.475 4.13755 -6
      vertex 41.975 6 -6
      vertex 42.475 6 -6
    endloop
  endfacet
  facet normal 1 -0 0
    outer loop
      vertex 41.975 3.65126 -6
      vertex 41.975 6 -24.5
      vertex 41.975 6 -6
    endloop
  endfacet
  facet normal 1 0 0
    outer loop
      vertex 41.975 6 -24.5
      vertex 41.975 3.65126 -6
      vertex 41.975 3.65126 -24.5
    endloop
  endfacet
  facet normal 1 -0 0
    outer loop
      vertex 41.975 -6 -6
      vertex 41.975 -3.65126 -24.5
      vertex 41.975 -3.65126 -6
    endloop
  endfacet
  facet normal 1 0 0
    outer loop
      vertex 41.975 -3.65126 -24.5
      vertex 41.975 -6 -6
      vertex 41.975 -6 -24.5
    endloop
  endfacet
  facet normal 0 0 -1
    outer loop
      vertex -37.9389 -6 -24.5
      vertex -40.575 0 -24.5
      vertex -37.9389 6 -24.5
    endloop
  endfacet
  facet normal 0 0 -1
    outer loop
      vertex -37.9389 -6 -24.5
      vertex -40.5896 -0.398736 -24.5
      vertex -40.575 0 -24.5
    endloop
  endfacet
  facet normal 0 0 -1
    outer loop
      vertex -37.9389 -6 -24.5
      vertex -40.6332 -0.795346 -24.5
      vertex -40.5896 -0.398736 -24.5
    endloop
  endfacet
  facet normal 0 0 -1
    outer loop
      vertex -37.9389 -6 -24.5
      vertex -40.7057 -1.18771 -24.5
      vertex -40.6332 -0.795346 -24.5
    endloop
  endfacet
  facet normal 0 0 -1
    outer loop
      vertex -37.9389 -6 -24.5
      vertex -40.8066 -1.57374 -24.5
      vertex -40.7057 -1.18771 -24.5
    endloop
  endfacet
  facet normal 0 0 -1
    outer loop
      vertex -37.9389 -6 -24.5
      vertex -40.9354 -1.95137 -24.5
      vertex -40.8066 -1.57374 -24.5
    endloop
  endfacet
  facet normal 0 0 -1
    outer loop
      vertex -37.9389 -6 -24.5
      vertex -41.0915 -2.31859 -24.5
      vertex -40.9354 -1.95137 -24.5
    endloop
  endfacet
  facet normal 0 0 -1
    outer loop
      vertex -37.9389 -6 -24.5
      vertex -41.2739 -2.67344 -24.5
      vertex -41.0915 -2.31859 -24.5
    endloop
  endfacet
  facet normal 0 0 -1
    outer loop
      vertex -37.9389 -6 -24.5
      vertex -41.4818 -3.01403 -24.5
      vertex -41.2739 -2.67344 -24.5
    endloop
  endfacet
  facet normal 0 0 -1
    outer loop
      vertex -37.9389 -6 -24.5
      vertex -41.714 -3.33854 -24.5
      vertex -41.4818 -3.01403 -24.5
    endloop
  endfacet
  facet normal 0 0 -1
    outer loop
      vertex -41.975 -6 -24.5
      vertex -41.714 -3.33854 -24.5
      vertex -37.9389 -6 -24.5
    endloop
  endfacet
  facet normal 0 0 -1
    outer loop
      vertex -41.714 -3.33854 -24.5
      vertex -41.975 -6 -24.5
      vertex -41.9692 -3.64523 -24.5
    endloop
  endfacet
  facet normal 0 0 -1
    outer loop
      vertex -41.9692 -3.64523 -24.5
      vertex -41.975 -6 -24.5
      vertex -41.975 -3.65126 -24.5
    endloop
  endfacet
  facet normal 0 0 -1
    outer loop
      vertex -40.5896 0.398736 -24.5
      vertex -37.9389 6 -24.5
      vertex -40.575 0 -24.5
    endloop
  endfacet
  facet normal 0 0 -1
    outer loop
      vertex -40.6332 0.795346 -24.5
      vertex -37.9389 6 -24.5
      vertex -40.5896 0.398736 -24.5
    endloop
  endfacet
  facet normal 0 0 -1
    outer loop
      vertex -40.7057 1.18771 -24.5
      vertex -37.9389 6 -24.5
      vertex -40.6332 0.795346 -24.5
    endloop
  endfacet
  facet normal 0 0 -1
    outer loop
      vertex -40.8066 1.57374 -24.5
      vertex -37.9389 6 -24.5
      vertex -40.7057 1.18771 -24.5
    endloop
  endfacet
  facet normal 0 0 -1
    outer loop
      vertex -40.9354 1.95137 -24.5
      vertex -37.9389 6 -24.5
      vertex -40.8066 1.57374 -24.5
    endloop
  endfacet
  facet normal 0 0 -1
    outer loop
      vertex -41.0915 2.31859 -24.5
      vertex -37.9389 6 -24.5
      vertex -40.9354 1.95137 -24.5
    endloop
  endfacet
  facet normal 0 0 -1
    outer loop
      vertex -41.2739 2.67344 -24.5
      vertex -37.9389 6 -24.5
      vertex -41.0915 2.31859 -24.5
    endloop
  endfacet
  facet normal 0 0 -1
    outer loop
      vertex -41.4818 3.01403 -24.5
      vertex -37.9389 6 -24.5
      vertex -41.2739 2.67344 -24.5
    endloop
  endfacet
  facet normal 0 0 -1
    outer loop
      vertex -41.714 3.33854 -24.5
      vertex -37.9389 6 -24.5
      vertex -41.4818 3.01403 -24.5
    endloop
  endfacet
  facet normal 0 0 -1
    outer loop
      vertex -41.975 6 -24.5
      vertex -41.714 3.33854 -24.5
      vertex -41.9692 3.64523 -24.5
    endloop
  endfacet
  facet normal 0 0 -1
    outer loop
      vertex -41.975 6 -24.5
      vertex -41.9692 3.64523 -24.5
      vertex -41.975 3.65126 -24.5
    endloop
  endfacet
  facet normal 0 0 -1
    outer loop
      vertex -41.714 3.33854 -24.5
      vertex -41.975 6 -24.5
      vertex -37.9389 6 -24.5
    endloop
  endfacet
  facet normal 0 0 -1
    outer loop
      vertex 39.9 -6 -24.5
      vertex 41.975 -3.65126 -24.5
      vertex 41.975 -6 -24.5
    endloop
  endfacet
  facet normal -0 0 -1
    outer loop
      vertex 41.975 -3.65126 -24.5
      vertex 39.9 -6 -24.5
      vertex 41.9692 -3.64523 -24.5
    endloop
  endfacet
  facet normal -0 0 -1
    outer loop
      vertex 41.9692 -3.64523 -24.5
      vertex 39.9 -6 -24.5
      vertex 41.714 -3.33854 -24.5
    endloop
  endfacet
  facet normal -0 0 -1
    outer loop
      vertex 41.714 -3.33854 -24.5
      vertex 39.9 -6 -24.5
      vertex 41.4818 -3.01403 -24.5
    endloop
  endfacet
  facet normal -0 0 -1
    outer loop
      vertex 41.4818 -3.01403 -24.5
      vertex 39.9 -6 -24.5
      vertex 41.2739 -2.67344 -24.5
    endloop
  endfacet
  facet normal -0 0 -1
    outer loop
      vertex 41.2739 -2.67344 -24.5
      vertex 39.9 -6 -24.5
      vertex 41.0915 -2.31859 -24.5
    endloop
  endfacet
  facet normal -0 0 -1
    outer loop
      vertex 41.0915 -2.31859 -24.5
      vertex 39.9 -6 -24.5
      vertex 40.9354 -1.95137 -24.5
    endloop
  endfacet
  facet normal -0 0 -1
    outer loop
      vertex 40.5896 -0.398736 -24.5
      vertex 39.9 -6 -24.5
      vertex 40.575 0 -24.5
    endloop
  endfacet
  facet normal -0 0 -1
    outer loop
      vertex 40.6332 -0.795346 -24.5
      vertex 39.9 -6 -24.5
      vertex 40.5896 -0.398736 -24.5
    endloop
  endfacet
  facet normal -0 0 -1
    outer loop
      vertex 40.7057 -1.18771 -24.5
      vertex 39.9 -6 -24.5
      vertex 40.6332 -0.795346 -24.5
    endloop
  endfacet
  facet normal -0 0 -1
    outer loop
      vertex 40.8066 -1.57374 -24.5
      vertex 39.9 -6 -24.5
      vertex 40.7057 -1.18771 -24.5
    endloop
  endfacet
  facet normal -0 0 -1
    outer loop
      vertex 40.9354 -1.95137 -24.5
      vertex 39.9 -6 -24.5
      vertex 40.8066 -1.57374 -24.5
    endloop
  endfacet
  facet normal 0 0 -1
    outer loop
      vertex 39.9 6 -24.5
      vertex 41.975 3.65126 -24.5
      vertex 41.9692 3.64523 -24.5
    endloop
  endfacet
  facet normal 0 0 -1
    outer loop
      vertex 39.9 6 -24.5
      vertex 41.9692 3.64523 -24.5
      vertex 41.714 3.33854 -24.5
    endloop
  endfacet
  facet normal 0 0 -1
    outer loop
      vertex 39.9 6 -24.5
      vertex 41.714 3.33854 -24.5
      vertex 41.4818 3.01403 -24.5
    endloop
  endfacet
  facet normal 0 0 -1
    outer loop
      vertex 39.9 6 -24.5
      vertex 41.4818 3.01403 -24.5
      vertex 41.2739 2.67344 -24.5
    endloop
  endfacet
  facet normal 0 0 -1
    outer loop
      vertex 39.9 6 -24.5
      vertex 41.2739 2.67344 -24.5
      vertex 41.0915 2.31859 -24.5
    endloop
  endfacet
  facet normal 0 0 -1
    outer loop
      vertex 39.9 6 -24.5
      vertex 41.0915 2.31859 -24.5
      vertex 40.9354 1.95137 -24.5
    endloop
  endfacet
  facet normal 0 0 -1
    outer loop
      vertex 39.9 6 -24.5
      vertex 40.9354 1.95137 -24.5
      vertex 40.8066 1.57374 -24.5
    endloop
  endfacet
  facet normal 0 0 -1
    outer loop
      vertex 39.9 6 -24.5
      vertex 40.575 0 -24.5
      vertex 39.9 -6 -24.5
    endloop
  endfacet
  facet normal 0 0 -1
    outer loop
      vertex 41.975 3.65126 -24.5
      vertex 39.9 6 -24.5
      vertex 41.975 6 -24.5
    endloop
  endfacet
  facet normal 0 0 -1
    outer loop
      vertex 40.7057 1.18771 -24.5
      vertex 39.9 6 -24.5
      vertex 40.8066 1.57374 -24.5
    endloop
  endfacet
  facet normal 0 0 -1
    outer loop
      vertex 40.6332 0.795346 -24.5
      vertex 39.9 6 -24.5
      vertex 40.7057 1.18771 -24.5
    endloop
  endfacet
  facet normal 0 0 -1
    outer loop
      vertex 40.5896 0.398736 -24.5
      vertex 39.9 6 -24.5
      vertex 40.6332 0.795346 -24.5
    endloop
  endfacet
  facet normal 0 0 -1
    outer loop
      vertex 40.575 0 -24.5
      vertex 39.9 6 -24.5
      vertex 40.5896 0.398736 -24.5
    endloop
  endfacet
  facet normal -1 0 0
    outer loop
      vertex -41.975 3.65126 -24.5
      vertex -41.975 6 -6
      vertex -41.975 6 -24.5
    endloop
  endfacet
  facet normal -1 -0 0
    outer loop
      vertex -41.975 6 -6
      vertex -41.975 3.65126 -24.5
      vertex -41.975 3.65126 -6
    endloop
  endfacet
  facet normal -1 0 0
    outer loop
      vertex -41.975 -6 -24.5
      vertex -41.975 -3.65126 -6
      vertex -41.975 -3.65126 -24.5
    endloop
  endfacet
  facet normal -1 -0 0
    outer loop
      vertex -41.975 -3.65126 -6
      vertex -41.975 -6 -24.5
      vertex -41.975 -6 -6
    endloop
  endfacet
  facet normal 0.946462 0.322814 0
    outer loop
      vertex 40.9354 -1.95137 0
      vertex 40.8066 -1.57374 -24.5
      vertex 40.8066 -1.57374 0
    endloop
  endfacet
  facet normal 0.946462 0.322814 0
    outer loop
      vertex 40.8066 -1.57374 -24.5
      vertex 40.9354 -1.95137 0
      vertex 40.9354 -1.95137 -24.5
    endloop
  endfacet
  facet normal 0.994012 0.109273 0
    outer loop
      vertex 40.6332 -0.795346 0
      vertex 40.5896 -0.398736 -24.5
      vertex 40.5896 -0.398736 0
    endloop
  endfacet
  facet normal 0.994012 0.109273 0
    outer loop
      vertex 40.5896 -0.398736 -24.5
      vertex 40.6332 -0.795346 0
      vertex 40.6332 -0.795346 -24.5
    endloop
  endfacet
  facet normal 0.768683 0.63963 0
    outer loop
      vertex 41.9692 -3.64523 0
      vertex 41.714 -3.33854 -24.5
      vertex 41.714 -3.33854 0
    endloop
  endfacet
  facet normal 0.768683 0.63963 0
    outer loop
      vertex 41.714 -3.33854 -24.5
      vertex 41.9692 -3.64523 0
      vertex 41.9692 -3.64523 -24.5
    endloop
  endfacet
  facet normal 0.71993 -0.694047 0
    outer loop
      vertex 42.2461 3.93247 0
      vertex 41.975 3.65126 -6
      vertex 42.2461 3.93247 -6
    endloop
  endfacet
  facet normal 0.719946 -0.69403 -1.5519e-06
    outer loop
      vertex 41.9692 3.64523 0
      vertex 41.975 3.65126 -6
      vertex 42.2461 3.93247 0
    endloop
  endfacet
  facet normal 0.720718 -0.693228 0
    outer loop
      vertex 41.9692 3.64523 -24.5
      vertex 41.975 3.65126 -6
      vertex 41.9692 3.64523 0
    endloop
  endfacet
  facet normal 0.720718 -0.693228 0
    outer loop
      vertex 41.975 3.65126 -6
      vertex 41.9692 3.64523 -24.5
      vertex 41.975 3.65126 -24.5
    endloop
  endfacet
  facet normal 0.967497 0.252883 0
    outer loop
      vertex 40.8066 -1.57374 0
      vertex 40.7057 -1.18771 -24.5
      vertex 40.7057 -1.18771 0
    endloop
  endfacet
  facet normal 0.967497 0.252883 0
    outer loop
      vertex 40.7057 -1.18771 -24.5
      vertex 40.8066 -1.57374 0
      vertex 40.8066 -1.57374 -24.5
    endloop
  endfacet
  facet normal 0.768683 -0.63963 0
    outer loop
      vertex 41.714 3.33854 0
      vertex 41.9692 3.64523 -24.5
      vertex 41.9692 3.64523 0
    endloop
  endfacet
  facet normal 0.768683 -0.63963 0
    outer loop
      vertex 41.9692 3.64523 -24.5
      vertex 41.714 3.33854 0
      vertex 41.714 3.33854 -24.5
    endloop
  endfacet
  facet normal 0.983354 -0.181702 0
    outer loop
      vertex 40.6332 0.795346 0
      vertex 40.7057 1.18771 -24.5
      vertex 40.7057 1.18771 0
    endloop
  endfacet
  facet normal 0.983354 -0.181702 0
    outer loop
      vertex 40.7057 1.18771 -24.5
      vertex 40.6332 0.795346 0
      vertex 40.6332 0.795346 -24.5
    endloop
  endfacet
  facet normal 0.99933 -0.0365912 0
    outer loop
      vertex 40.575 0 0
      vertex 40.5896 0.398736 -24.5
      vertex 40.5896 0.398736 0
    endloop
  endfacet
  facet normal 0.99933 -0.0365912 0
    outer loop
      vertex 40.5896 0.398736 -24.5
      vertex 40.575 0 0
      vertex 40.575 0 -24.5
    endloop
  endfacet
  facet normal 0.667291 -0.744797 0
    outer loop
      vertex 42.2461 3.93247 -6
      vertex 42.475 4.13755 0
      vertex 42.2461 3.93247 0
    endloop
  endfacet
  facet normal 0.667291 -0.744797 0
    outer loop
      vertex 42.475 4.13755 0
      vertex 42.2461 3.93247 -6
      vertex 42.475 4.13755 -6
    endloop
  endfacet
  facet normal 0.920302 0.391208 0
    outer loop
      vertex 41.0915 -2.31859 0
      vertex 40.9354 -1.95137 -24.5
      vertex 40.9354 -1.95137 0
    endloop
  endfacet
  facet normal 0.920302 0.391208 0
    outer loop
      vertex 40.9354 -1.95137 -24.5
      vertex 41.0915 -2.31859 0
      vertex 41.0915 -2.31859 -24.5
    endloop
  endfacet
  facet normal 0.667291 0.744797 -0
    outer loop
      vertex 42.475 -4.13755 -6
      vertex 42.2461 -3.93247 0
      vertex 42.475 -4.13755 0
    endloop
  endfacet
  facet normal 0.667291 0.744797 0
    outer loop
      vertex 42.2461 -3.93247 0
      vertex 42.475 -4.13755 -6
      vertex 42.2461 -3.93247 -6
    endloop
  endfacet
  facet normal 0.946462 -0.322814 0
    outer loop
      vertex 40.8066 1.57374 0
      vertex 40.9354 1.95137 -24.5
      vertex 40.9354 1.95137 0
    endloop
  endfacet
  facet normal 0.946462 -0.322814 0
    outer loop
      vertex 40.9354 1.95137 -24.5
      vertex 40.8066 1.57374 0
      vertex 40.8066 1.57374 -24.5
    endloop
  endfacet
  facet normal 0.967497 -0.252883 0
    outer loop
      vertex 40.7057 1.18771 0
      vertex 40.8066 1.57374 -24.5
      vertex 40.8066 1.57374 0
    endloop
  endfacet
  facet normal 0.967497 -0.252883 0
    outer loop
      vertex 40.8066 1.57374 -24.5
      vertex 40.7057 1.18771 0
      vertex 40.7057 1.18771 -24.5
    endloop
  endfacet
  facet normal 0.720718 0.693228 0
    outer loop
      vertex 41.9692 -3.64523 0
      vertex 41.975 -3.65126 -6
      vertex 41.9692 -3.64523 -24.5
    endloop
  endfacet
  facet normal 0.719946 0.69403 -1.5519e-06
    outer loop
      vertex 42.2461 -3.93247 0
      vertex 41.975 -3.65126 -6
      vertex 41.9692 -3.64523 0
    endloop
  endfacet
  facet normal 0.71993 0.694047 0
    outer loop
      vertex 41.975 -3.65126 -6
      vertex 42.2461 -3.93247 0
      vertex 42.2461 -3.93247 -6
    endloop
  endfacet
  facet normal 0.720718 0.693228 0
    outer loop
      vertex 41.9692 -3.64523 -24.5
      vertex 41.975 -3.65126 -6
      vertex 41.975 -3.65126 -24.5
    endloop
  endfacet
  facet normal 0.920302 -0.391208 0
    outer loop
      vertex 40.9354 1.95137 0
      vertex 41.0915 2.31859 -24.5
      vertex 41.0915 2.31859 0
    endloop
  endfacet
  facet normal 0.920302 -0.391208 0
    outer loop
      vertex 41.0915 2.31859 -24.5
      vertex 40.9354 1.95137 0
      vertex 40.9354 1.95137 -24.5
    endloop
  endfacet
  facet normal 0.813251 -0.581914 0
    outer loop
      vertex 41.4818 3.01403 0
      vertex 41.714 3.33854 -24.5
      vertex 41.714 3.33854 0
    endloop
  endfacet
  facet normal 0.813251 -0.581914 0
    outer loop
      vertex 41.714 3.33854 -24.5
      vertex 41.4818 3.01403 0
      vertex 41.4818 3.01403 -24.5
    endloop
  endfacet
  facet normal 0.889384 -0.457161 0
    outer loop
      vertex 41.0915 2.31859 0
      vertex 41.2739 2.67344 -24.5
      vertex 41.2739 2.67344 0
    endloop
  endfacet
  facet normal 0.889384 -0.457161 0
    outer loop
      vertex 41.2739 2.67344 -24.5
      vertex 41.0915 2.31859 0
      vertex 41.0915 2.31859 -24.5
    endloop
  endfacet
  facet normal 0.889384 0.457161 0
    outer loop
      vertex 41.2739 -2.67344 0
      vertex 41.0915 -2.31859 -24.5
      vertex 41.0915 -2.31859 0
    endloop
  endfacet
  facet normal 0.889384 0.457161 0
    outer loop
      vertex 41.0915 -2.31859 -24.5
      vertex 41.2739 -2.67344 0
      vertex 41.2739 -2.67344 -24.5
    endloop
  endfacet
  facet normal 0.994012 -0.109273 0
    outer loop
      vertex 40.5896 0.398736 0
      vertex 40.6332 0.795346 -24.5
      vertex 40.6332 0.795346 0
    endloop
  endfacet
  facet normal 0.994012 -0.109273 0
    outer loop
      vertex 40.6332 0.795346 -24.5
      vertex 40.5896 0.398736 0
      vertex 40.5896 0.398736 -24.5
    endloop
  endfacet
  facet normal 0.983354 0.181702 0
    outer loop
      vertex 40.7057 -1.18771 0
      vertex 40.6332 -0.795346 -24.5
      vertex 40.6332 -0.795346 0
    endloop
  endfacet
  facet normal 0.983354 0.181702 0
    outer loop
      vertex 40.6332 -0.795346 -24.5
      vertex 40.7057 -1.18771 0
      vertex 40.7057 -1.18771 -24.5
    endloop
  endfacet
  facet normal 0.853547 0.521015 0
    outer loop
      vertex 41.4818 -3.01403 0
      vertex 41.2739 -2.67344 -24.5
      vertex 41.2739 -2.67344 0
    endloop
  endfacet
  facet normal 0.853547 0.521015 0
    outer loop
      vertex 41.2739 -2.67344 -24.5
      vertex 41.4818 -3.01403 0
      vertex 41.4818 -3.01403 -24.5
    endloop
  endfacet
  facet normal 0.99933 0.0365912 0
    outer loop
      vertex 40.5896 -0.398736 0
      vertex 40.575 0 -24.5
      vertex 40.575 0 0
    endloop
  endfacet
  facet normal 0.99933 0.0365912 0
    outer loop
      vertex 40.575 0 -24.5
      vertex 40.5896 -0.398736 0
      vertex 40.5896 -0.398736 -24.5
    endloop
  endfacet
  facet normal 0.853547 -0.521015 0
    outer loop
      vertex 41.2739 2.67344 0
      vertex 41.4818 3.01403 -24.5
      vertex 41.4818 3.01403 0
    endloop
  endfacet
  facet normal 0.853547 -0.521015 0
    outer loop
      vertex 41.4818 3.01403 -24.5
      vertex 41.2739 2.67344 0
      vertex 41.2739 2.67344 -24.5
    endloop
  endfacet
  facet normal 0.813251 0.581914 0
    outer loop
      vertex 41.714 -3.33854 0
      vertex 41.4818 -3.01403 -24.5
      vertex 41.4818 -3.01403 0
    endloop
  endfacet
  facet normal 0.813251 0.581914 0
    outer loop
      vertex 41.4818 -3.01403 -24.5
      vertex 41.714 -3.33854 0
      vertex 41.714 -3.33854 -24.5
    endloop
  endfacet
  facet normal -0.994012 -0.109273 0
    outer loop
      vertex -40.5896 0.398736 -24.5
      vertex -40.6332 0.795346 0
      vertex -40.6332 0.795346 -24.5
    endloop
  endfacet
  facet normal -0.994012 -0.109273 0
    outer loop
      vertex -40.6332 0.795346 0
      vertex -40.5896 0.398736 -24.5
      vertex -40.5896 0.398736 0
    endloop
  endfacet
  facet normal -0.99933 -0.0365912 0
    outer loop
      vertex -40.575 0 -24.5
      vertex -40.5896 0.398736 0
      vertex -40.5896 0.398736 -24.5
    endloop
  endfacet
  facet normal -0.99933 -0.0365912 0
    outer loop
      vertex -40.5896 0.398736 0
      vertex -40.575 0 -24.5
      vertex -40.575 0 0
    endloop
  endfacet
  facet normal -0.983354 -0.181702 0
    outer loop
      vertex -40.6332 0.795346 -24.5
      vertex -40.7057 1.18771 0
      vertex -40.7057 1.18771 -24.5
    endloop
  endfacet
  facet normal -0.983354 -0.181702 0
    outer loop
      vertex -40.7057 1.18771 0
      vertex -40.6332 0.795346 -24.5
      vertex -40.6332 0.795346 0
    endloop
  endfacet
  facet normal -0.853547 0.521015 0
    outer loop
      vertex -41.4818 -3.01403 -24.5
      vertex -41.2739 -2.67344 0
      vertex -41.2739 -2.67344 -24.5
    endloop
  endfacet
  facet normal -0.853547 0.521015 0
    outer loop
      vertex -41.2739 -2.67344 0
      vertex -41.4818 -3.01403 -24.5
      vertex -41.4818 -3.01403 0
    endloop
  endfacet
  facet normal -0.967497 -0.252883 0
    outer loop
      vertex -40.7057 1.18771 -24.5
      vertex -40.8066 1.57374 0
      vertex -40.8066 1.57374 -24.5
    endloop
  endfacet
  facet normal -0.967497 -0.252883 0
    outer loop
      vertex -40.8066 1.57374 0
      vertex -40.7057 1.18771 -24.5
      vertex -40.7057 1.18771 0
    endloop
  endfacet
  facet normal -0.853547 -0.521015 0
    outer loop
      vertex -41.2739 2.67344 -24.5
      vertex -41.4818 3.01403 0
      vertex -41.4818 3.01403 -24.5
    endloop
  endfacet
  facet normal -0.853547 -0.521015 0
    outer loop
      vertex -41.4818 3.01403 0
      vertex -41.2739 2.67344 -24.5
      vertex -41.2739 2.67344 0
    endloop
  endfacet
  facet normal -0.768683 -0.63963 0
    outer loop
      vertex -41.714 3.33854 -24.5
      vertex -41.9692 3.64523 0
      vertex -41.9692 3.64523 -24.5
    endloop
  endfacet
  facet normal -0.768683 -0.63963 0
    outer loop
      vertex -41.9692 3.64523 0
      vertex -41.714 3.33854 -24.5
      vertex -41.714 3.33854 0
    endloop
  endfacet
  facet normal -0.813251 -0.581914 0
    outer loop
      vertex -41.4818 3.01403 -24.5
      vertex -41.714 3.33854 0
      vertex -41.714 3.33854 -24.5
    endloop
  endfacet
  facet normal -0.813251 -0.581914 0
    outer loop
      vertex -41.714 3.33854 0
      vertex -41.4818 3.01403 -24.5
      vertex -41.4818 3.01403 0
    endloop
  endfacet
  facet normal -0.813251 0.581914 0
    outer loop
      vertex -41.714 -3.33854 -24.5
      vertex -41.4818 -3.01403 0
      vertex -41.4818 -3.01403 -24.5
    endloop
  endfacet
  facet normal -0.813251 0.581914 0
    outer loop
      vertex -41.4818 -3.01403 0
      vertex -41.714 -3.33854 -24.5
      vertex -41.714 -3.33854 0
    endloop
  endfacet
  facet normal -0.967497 0.252883 0
    outer loop
      vertex -40.8066 -1.57374 -24.5
      vertex -40.7057 -1.18771 0
      vertex -40.7057 -1.18771 -24.5
    endloop
  endfacet
  facet normal -0.967497 0.252883 0
    outer loop
      vertex -40.7057 -1.18771 0
      vertex -40.8066 -1.57374 -24.5
      vertex -40.8066 -1.57374 0
    endloop
  endfacet
  facet normal -0.71993 -0.694047 0
    outer loop
      vertex -41.975 3.65126 -6
      vertex -42.2461 3.93247 0
      vertex -42.2461 3.93247 -6
    endloop
  endfacet
  facet normal -0.719946 -0.69403 -1.5519e-06
    outer loop
      vertex -41.975 3.65126 -6
      vertex -41.9692 3.64523 0
      vertex -42.2461 3.93247 0
    endloop
  endfacet
  facet normal -0.720718 -0.693228 -0
    outer loop
      vertex -41.9692 3.64523 0
      vertex -41.975 3.65126 -6
      vertex -41.9692 3.64523 -24.5
    endloop
  endfacet
  facet normal -0.720718 -0.693228 0
    outer loop
      vertex -41.975 3.65126 -24.5
      vertex -41.9692 3.64523 -24.5
      vertex -41.975 3.65126 -6
    endloop
  endfacet
  facet normal -0.99933 0.0365912 0
    outer loop
      vertex -40.5896 -0.398736 -24.5
      vertex -40.575 0 0
      vertex -40.575 0 -24.5
    endloop
  endfacet
  facet normal -0.99933 0.0365912 0
    outer loop
      vertex -40.575 0 0
      vertex -40.5896 -0.398736 -24.5
      vertex -40.5896 -0.398736 0
    endloop
  endfacet
  facet normal -0.983354 0.181702 0
    outer loop
      vertex -40.7057 -1.18771 -24.5
      vertex -40.6332 -0.795346 0
      vertex -40.6332 -0.795346 -24.5
    endloop
  endfacet
  facet normal -0.983354 0.181702 0
    outer loop
      vertex -40.6332 -0.795346 0
      vertex -40.7057 -1.18771 -24.5
      vertex -40.7057 -1.18771 0
    endloop
  endfacet
  facet normal -0.720718 0.693228 0
    outer loop
      vertex -41.975 -3.65126 -6
      vertex -41.9692 -3.64523 -24.5
      vertex -41.975 -3.65126 -24.5
    endloop
  endfacet
  facet normal -0.720718 0.693228 0
    outer loop
      vertex -41.9692 -3.64523 -24.5
      vertex -41.975 -3.65126 -6
      vertex -41.9692 -3.64523 0
    endloop
  endfacet
  facet normal -0.71993 0.694047 -1.58514e-06
    outer loop
      vertex -42.2461 -3.93247 -6
      vertex -41.9692 -3.64523 0
      vertex -41.975 -3.65126 -6
    endloop
  endfacet
  facet normal -0.719946 0.69403 0
    outer loop
      vertex -41.9692 -3.64523 0
      vertex -42.2461 -3.93247 -6
      vertex -42.2461 -3.93247 0
    endloop
  endfacet
  facet normal -0.946462 0.322814 0
    outer loop
      vertex -40.9354 -1.95137 -24.5
      vertex -40.8066 -1.57374 0
      vertex -40.8066 -1.57374 -24.5
    endloop
  endfacet
  facet normal -0.946462 0.322814 0
    outer loop
      vertex -40.8066 -1.57374 0
      vertex -40.9354 -1.95137 -24.5
      vertex -40.9354 -1.95137 0
    endloop
  endfacet
  facet normal -0.667291 -0.744797 0
    outer loop
      vertex -42.475 4.13755 -6
      vertex -42.2461 3.93247 0
      vertex -42.475 4.13755 0
    endloop
  endfacet
  facet normal -0.667291 -0.744797 -0
    outer loop
      vertex -42.2461 3.93247 0
      vertex -42.475 4.13755 -6
      vertex -42.2461 3.93247 -6
    endloop
  endfacet
  facet normal -0.946462 -0.322814 0
    outer loop
      vertex -40.8066 1.57374 -24.5
      vertex -40.9354 1.95137 0
      vertex -40.9354 1.95137 -24.5
    endloop
  endfacet
  facet normal -0.946462 -0.322814 0
    outer loop
      vertex -40.9354 1.95137 0
      vertex -40.8066 1.57374 -24.5
      vertex -40.8066 1.57374 0
    endloop
  endfacet
  facet normal -0.994012 0.109273 0
    outer loop
      vertex -40.6332 -0.795346 -24.5
      vertex -40.5896 -0.398736 0
      vertex -40.5896 -0.398736 -24.5
    endloop
  endfacet
  facet normal -0.994012 0.109273 0
    outer loop
      vertex -40.5896 -0.398736 0
      vertex -40.6332 -0.795346 -24.5
      vertex -40.6332 -0.795346 0
    endloop
  endfacet
  facet normal -0.768683 0.63963 0
    outer loop
      vertex -41.9692 -3.64523 -24.5
      vertex -41.714 -3.33854 0
      vertex -41.714 -3.33854 -24.5
    endloop
  endfacet
  facet normal -0.768683 0.63963 0
    outer loop
      vertex -41.714 -3.33854 0
      vertex -41.9692 -3.64523 -24.5
      vertex -41.9692 -3.64523 0
    endloop
  endfacet
  facet normal -0.667291 0.744797 0
    outer loop
      vertex -42.2461 -3.93247 -6
      vertex -42.475 -4.13755 0
      vertex -42.2461 -3.93247 0
    endloop
  endfacet
  facet normal -0.667291 0.744797 0
    outer loop
      vertex -42.475 -4.13755 0
      vertex -42.2461 -3.93247 -6
      vertex -42.475 -4.13755 -6
    endloop
  endfacet
  facet normal -0.889384 0.457161 0
    outer loop
      vertex -41.2739 -2.67344 -24.5
      vertex -41.0915 -2.31859 0
      vertex -41.0915 -2.31859 -24.5
    endloop
  endfacet
  facet normal -0.889384 0.457161 0
    outer loop
      vertex -41.0915 -2.31859 0
      vertex -41.2739 -2.67344 -24.5
      vertex -41.2739 -2.67344 0
    endloop
  endfacet
  facet normal -0.920302 0.391208 0
    outer loop
      vertex -41.0915 -2.31859 -24.5
      vertex -40.9354 -1.95137 0
      vertex -40.9354 -1.95137 -24.5
    endloop
  endfacet
  facet normal -0.920302 0.391208 0
    outer loop
      vertex -40.9354 -1.95137 0
      vertex -41.0915 -2.31859 -24.5
      vertex -41.0915 -2.31859 0
    endloop
  endfacet
  facet normal -0.920302 -0.391208 0
    outer loop
      vertex -40.9354 1.95137 -24.5
      vertex -41.0915 2.31859 0
      vertex -41.0915 2.31859 -24.5
    endloop
  endfacet
  facet normal -0.920302 -0.391208 0
    outer loop
      vertex -41.0915 2.31859 0
      vertex -40.9354 1.95137 -24.5
      vertex -40.9354 1.95137 0
    endloop
  endfacet
  facet normal -0.889384 -0.457161 0
    outer loop
      vertex -41.0915 2.31859 -24.5
      vertex -41.2739 2.67344 0
      vertex -41.2739 2.67344 -24.5
    endloop
  endfacet
  facet normal -0.889384 -0.457161 0
    outer loop
      vertex -41.2739 2.67344 0
      vertex -41.0915 2.31859 -24.5
      vertex -41.0915 2.31859 0
    endloop
  endfacet
  facet normal -0.0174422 0 -0.999848
    outer loop
      vertex -25.4 -6 -6
      vertex -24.9288 6 -6.00822
      vertex -24.9288 -6 -6.00822
    endloop
  endfacet
  facet normal -0.0174422 0 -0.999848
    outer loop
      vertex -24.9288 6 -6.00822
      vertex -25.4 -6 -6
      vertex -25.4 6 -6
    endloop
  endfacet
  facet normal -0.146227 0 -0.989251
    outer loop
      vertex -23.5211 -6 -6.13139
      vertex 34.89 6 -14.7655
      vertex 34.89 -6 -14.7655
    endloop
  endfacet
  facet normal -0.146227 0 -0.989251
    outer loop
      vertex 34.89 6 -14.7655
      vertex -23.5211 -6 -6.13139
      vertex -23.5211 6 -6.13139
    endloop
  endfacet
  facet normal -0.121851 0 -0.992548
    outer loop
      vertex -23.9889 -6 -6.07396
      vertex -23.5211 6 -6.13139
      vertex -23.5211 -6 -6.13139
    endloop
  endfacet
  facet normal -0.121851 0 -0.992548
    outer loop
      vertex -23.5211 6 -6.13139
      vertex -23.9889 -6 -6.07396
      vertex -23.9889 6 -6.07396
    endloop
  endfacet
  facet normal 0.292387 0 -0.9563
    outer loop
      vertex -29.5717 -6 -6.66075
      vertex -29.1211 6 -6.52298
      vertex -29.1211 -6 -6.52298
    endloop
  endfacet
  facet normal 0.292387 0 -0.9563
    outer loop
      vertex -29.1211 6 -6.52298
      vertex -29.5717 -6 -6.66075
      vertex -29.5717 6 -6.66075
    endloop
  endfacet
  facet normal 0.682027 0 -0.731327
    outer loop
      vertex -34.7779 -6 -9.78893
      vertex -34.4333 6 -9.46756
      vertex -34.4333 -6 -9.46756
    endloop
  endfacet
  facet normal 0.682027 0 -0.731327
    outer loop
      vertex -34.4333 6 -9.46756
      vertex -34.7779 -6 -9.78893
      vertex -34.7779 6 -9.78893
    endloop
  endfacet
  facet normal -0.0871406 0 -0.996196
    outer loop
      vertex -24.4583 -6 -6.0329
      vertex -23.9889 6 -6.07396
      vertex -23.9889 -6 -6.07396
    endloop
  endfacet
  facet normal -0.0871406 0 -0.996196
    outer loop
      vertex -23.9889 6 -6.07396
      vertex -24.4583 -6 -6.0329
      vertex -24.4583 6 -6.0329
    endloop
  endfacet
  facet normal 0.390759 0 -0.920493
    outer loop
      vertex -30.8909 -6 -7.16714
      vertex -30.4572 6 -6.98303
      vertex -30.4572 -6 -6.98303
    endloop
  endfacet
  facet normal 0.390759 0 -0.920493
    outer loop
      vertex -30.4572 6 -6.98303
      vertex -30.8909 -6 -7.16714
      vertex -30.8909 6 -7.16714
    endloop
  endfacet
  facet normal 0.422601 0 -0.906316
    outer loop
      vertex -31.318 -6 -7.36629
      vertex -30.8909 6 -7.16714
      vertex -30.8909 -6 -7.16714
    endloop
  endfacet
  facet normal 0.422601 0 -0.906316
    outer loop
      vertex -30.8909 6 -7.16714
      vertex -31.318 -6 -7.36629
      vertex -31.318 6 -7.36629
    endloop
  endfacet
  facet normal 0.819132 0 -0.573605
    outer loop
      vertex -36.3217 -6 -11.5649
      vertex -36.592 6 -11.9509
      vertex -36.3217 6 -11.5649
    endloop
  endfacet
  facet normal 0.819132 0 -0.573605
    outer loop
      vertex -36.592 6 -11.9509
      vertex -36.3217 -6 -11.5649
      vertex -36.592 -6 -11.9509
    endloop
  endfacet
  facet normal 0.629317 0 -0.777149
    outer loop
      vertex -34.0776 -6 -9.1584
      vertex -33.7114 6 -8.86186
      vertex -33.7114 -6 -8.86186
    endloop
  endfacet
  facet normal 0.629317 0 -0.777149
    outer loop
      vertex -33.7114 6 -8.86186
      vertex -34.0776 -6 -9.1584
      vertex -34.0776 6 -9.1584
    endloop
  endfacet
  facet normal 0.190767 0 -0.981635
    outer loop
      vertex -28.2068 -6 -6.29501
      vertex -27.7442 6 -6.20511
      vertex -27.7442 -6 -6.20511
    endloop
  endfacet
  facet normal 0.190767 0 -0.981635
    outer loop
      vertex -27.7442 6 -6.20511
      vertex -28.2068 -6 -6.29501
      vertex -28.2068 6 -6.29501
    endloop
  endfacet
  facet normal 0.224988 0 -0.974361
    outer loop
      vertex -28.6659 -6 -6.40102
      vertex -28.2068 6 -6.29501
      vertex -28.2068 -6 -6.29501
    endloop
  endfacet
  facet normal 0.224988 0 -0.974361
    outer loop
      vertex -28.2068 6 -6.29501
      vertex -28.6659 -6 -6.40102
      vertex -28.6659 6 -6.40102
    endloop
  endfacet
  facet normal 0.999849 0 -0.0174034
    outer loop
      vertex -38.8918 -6 -19.0289
      vertex -38.9 6 -19.5
      vertex -38.8918 6 -19.0289
    endloop
  endfacet
  facet normal 0.999849 0 -0.0174034
    outer loop
      vertex -38.9 6 -19.5
      vertex -38.8918 -6 -19.0289
      vertex -38.9 -6 -19.5
    endloop
  endfacet
  facet normal 0.0174459 0 -0.999848
    outer loop
      vertex -25.8711 -6 -6.00822
      vertex -25.4 6 -6
      vertex -25.4 -6 -6
    endloop
  endfacet
  facet normal 0.0174459 0 -0.999848
    outer loop
      vertex -25.4 6 -6
      vertex -25.8711 -6 -6.00822
      vertex -25.8711 6 -6.00822
    endloop
  endfacet
  facet normal -0.363553 0 -0.931573
    outer loop
      vertex 35.6586 -6 -14.9601
      vertex 36.0281 6 -15.1043
      vertex 36.0281 -6 -15.1043
    endloop
  endfacet
  facet normal -0.363553 0 -0.931573
    outer loop
      vertex 36.0281 6 -15.1043
      vertex 35.6586 -6 -14.9601
      vertex 35.6586 6 -14.9601
    endloop
  endfacet
  facet normal 0.601839 0 -0.798618
    outer loop
      vertex -33.7114 -6 -8.86186
      vertex -33.3351 6 -8.57828
      vertex -33.3351 -6 -8.57828
    endloop
  endfacet
  facet normal 0.601839 0 -0.798618
    outer loop
      vertex -33.3351 6 -8.57828
      vertex -33.7114 -6 -8.86186
      vertex -33.7114 6 -8.86186
    endloop
  endfacet
  facet normal 0.874557 0 -0.484922
    outer loop
      vertex -37.0913 -6 -12.75
      vertex -37.3198 6 -13.1621
      vertex -37.0913 6 -12.75
    endloop
  endfacet
  facet normal 0.874557 0 -0.484922
    outer loop
      vertex -37.3198 6 -13.1621
      vertex -37.0913 -6 -12.75
      vertex -37.3198 -6 -13.1621
    endloop
  endfacet
  facet normal -0.581 0 -0.813904
    outer loop
      vertex 36.7253 -6 -15.4816
      vertex 37.0482 6 -15.7121
      vertex 37.0482 -6 -15.7121
    endloop
  endfacet
  facet normal -0.581 0 -0.813904
    outer loop
      vertex 37.0482 6 -15.7121
      vertex 36.7253 -6 -15.4816
      vertex 36.7253 6 -15.4816
    endloop
  endfacet
  facet normal 0.996189 -0 0.0872249
    outer loop
      vertex -38.8671 -6 -20.4417
      vertex -38.826 6 -20.9111
      vertex -38.8671 6 -20.4417
    endloop
  endfacet
  facet normal 0.996189 0 0.0872249
    outer loop
      vertex -38.826 6 -20.9111
      vertex -38.8671 -6 -20.4417
      vertex -38.826 -6 -20.9111
    endloop
  endfacet
  facet normal 0.0871406 0 -0.996196
    outer loop
      vertex -26.8111 -6 -6.07396
      vertex -26.3417 6 -6.0329
      vertex -26.3417 -6 -6.0329
    endloop
  endfacet
  facet normal 0.0871406 0 -0.996196
    outer loop
      vertex -26.3417 6 -6.0329
      vertex -26.8111 -6 -6.07396
      vertex -26.8111 6 -6.07396
    endloop
  endfacet
  facet normal 0.933584 -0 0.358358
    outer loop
      vertex -38.0858 -6 -24.1173
      vertex -37.9389 6 -24.5
      vertex -38.0858 6 -24.1173
    endloop
  endfacet
  facet normal 0.933584 0 0.358358
    outer loop
      vertex -37.9389 6 -24.5
      vertex -38.0858 -6 -24.1173
      vertex -37.9389 -6 -24.5
    endloop
  endfacet
  facet normal 0.325526 0 -0.945533
    outer loop
      vertex -30.0173 -6 -6.81416
      vertex -29.5717 6 -6.66075
      vertex -29.5717 -6 -6.66075
    endloop
  endfacet
  facet normal 0.325526 0 -0.945533
    outer loop
      vertex -29.5717 6 -6.66075
      vertex -30.0173 -6 -6.81416
      vertex -30.0173 6 -6.81416
    endloop
  endfacet
  facet normal 0.956342 0 -0.292251
    outer loop
      vertex -38.2393 -6 -15.3283
      vertex -38.377 6 -15.7789
      vertex -38.2393 6 -15.3283
    endloop
  endfacet
  facet normal 0.956342 0 -0.292251
    outer loop
      vertex -38.377 6 -15.7789
      vertex -38.2393 -6 -15.3283
      vertex -38.377 -6 -15.7789
    endloop
  endfacet
  facet normal 0.906357 0 -0.422514
    outer loop
      vertex -37.5337 -6 -13.582
      vertex -37.7328 6 -14.0091
      vertex -37.5337 6 -13.582
    endloop
  endfacet
  facet normal 0.906357 0 -0.422514
    outer loop
      vertex -37.7328 6 -14.0091
      vertex -37.5337 -6 -13.582
      vertex -37.7328 -6 -14.0091
    endloop
  endfacet
  facet normal 0.121877 0 -0.992545
    outer loop
      vertex -27.2788 -6 -6.13139
      vertex -26.8111 6 -6.07396
      vertex -26.8111 -6 -6.07396
    endloop
  endfacet
  facet normal 0.121877 0 -0.992545
    outer loop
      vertex -26.8111 6 -6.07396
      vertex -27.2788 -6 -6.13139
      vertex -27.2788 6 -6.13139
    endloop
  endfacet
  facet normal 0.981635 0 -0.190767
    outer loop
      vertex -38.605 -6 -16.6932
      vertex -38.6949 6 -17.1558
      vertex -38.605 6 -16.6932
    endloop
  endfacet
  facet normal 0.981635 0 -0.190767
    outer loop
      vertex -38.6949 6 -17.1558
      vertex -38.605 -6 -16.6932
      vertex -38.6949 -6 -17.1558
    endloop
  endfacet
  facet normal 0.838715 0 -0.544571
    outer loop
      vertex -36.592 -6 -11.9509
      vertex -36.8486 6 -12.3461
      vertex -36.592 6 -11.9509
    endloop
  endfacet
  facet normal 0.838715 0 -0.544571
    outer loop
      vertex -36.8486 6 -12.3461
      vertex -36.592 -6 -11.9509
      vertex -36.8486 -6 -12.3461
    endloop
  endfacet
  facet normal 0.573576 0 -0.819152
    outer loop
      vertex -33.3351 -6 -8.57828
      vertex -32.9491 6 -8.308
      vertex -32.9491 -6 -8.308
    endloop
  endfacet
  facet normal 0.573576 0 -0.819152
    outer loop
      vertex -32.9491 6 -8.308
      vertex -33.3351 -6 -8.57828
      vertex -33.3351 6 -8.57828
    endloop
  endfacet
  facet normal 0.96591 0 -0.258878
    outer loop
      vertex -38.377 -6 -15.7789
      vertex -38.499 6 -16.2341
      vertex -38.377 6 -15.7789
    endloop
  endfacet
  facet normal 0.96591 0 -0.258878
    outer loop
      vertex -38.499 6 -16.2341
      vertex -38.377 -6 -15.7789
      vertex -38.499 -6 -16.2341
    endloop
  endfacet
  facet normal 0.707075 0 -0.707139
    outer loop
      vertex -35.1111 -6 -10.1221
      vertex -34.7779 6 -9.78893
      vertex -34.7779 -6 -9.78893
    endloop
  endfacet
  facet normal 0.707075 0 -0.707139
    outer loop
      vertex -34.7779 6 -9.78893
      vertex -35.1111 -6 -10.1221
      vertex -35.1111 6 -10.1221
    endloop
  endfacet
  facet normal 0.656004 0 -0.754757
    outer loop
      vertex -34.4333 -6 -9.46756
      vertex -34.0776 6 -9.1584
      vertex -34.0776 -6 -9.1584
    endloop
  endfacet
  facet normal 0.656004 0 -0.754757
    outer loop
      vertex -34.0776 6 -9.1584
      vertex -34.4333 -6 -9.46756
      vertex -34.4333 6 -9.46756
    endloop
  endfacet
  facet normal 0.0523717 0 -0.998628
    outer loop
      vertex -26.3417 -6 -6.0329
      vertex -25.8711 6 -6.00822
      vertex -25.8711 -6 -6.00822
    endloop
  endfacet
  facet normal 0.0523717 0 -0.998628
    outer loop
      vertex -25.8711 6 -6.00822
      vertex -26.3417 -6 -6.0329
      vertex -26.3417 6 -6.0329
    endloop
  endfacet
  facet normal 0.992553 0 -0.121814
    outer loop
      vertex -38.7686 -6 -17.6212
      vertex -38.826 6 -18.0889
      vertex -38.7686 6 -17.6212
    endloop
  endfacet
  facet normal 0.992553 0 -0.121814
    outer loop
      vertex -38.826 6 -18.0889
      vertex -38.7686 -6 -17.6212
      vertex -38.826 -6 -18.0889
    endloop
  endfacet
  facet normal -0.931425 0 -0.363934
    outer loop
      vertex 38.5252 -6 -17.6474
      vertex 38.4957 6 -17.5719
      vertex 38.5252 6 -17.6474
    endloop
  endfacet
  facet normal -0.931425 -0 -0.363934
    outer loop
      vertex 38.4957 6 -17.5719
      vertex 38.5252 -6 -17.6474
      vertex 38.4957 -6 -17.5719
    endloop
  endfacet
  facet normal 0.987692 -0 0.156409
    outer loop
      vertex -38.7686 -6 -21.3788
      vertex -38.6949 6 -21.8442
      vertex -38.7686 6 -21.3788
    endloop
  endfacet
  facet normal 0.987692 0 0.156409
    outer loop
      vertex -38.6949 6 -21.8442
      vertex -38.7686 -6 -21.3788
      vertex -38.6949 -6 -21.8442
    endloop
  endfacet
  facet normal -0.763052 0 -0.646338
    outer loop
      vertex 37.8879 -6 -16.5518
      vertex 37.6315 6 -16.2491
      vertex 37.8879 6 -16.5518
    endloop
  endfacet
  facet normal -0.763052 -0 -0.646338
    outer loop
      vertex 37.6315 6 -16.2491
      vertex 37.8879 -6 -16.5518
      vertex 37.6315 -6 -16.2491
    endloop
  endfacet
  facet normal -0.813819 0 -0.581119
    outer loop
      vertex 38.1184 -6 -16.8746
      vertex 37.8879 6 -16.5518
      vertex 38.1184 6 -16.8746
    endloop
  endfacet
  facet normal -0.813819 -0 -0.581119
    outer loop
      vertex 37.8879 6 -16.5518
      vertex 38.1184 -6 -16.8746
      vertex 37.8879 -6 -16.5518
    endloop
  endfacet
  facet normal 0.54463 0 -0.838676
    outer loop
      vertex -32.9491 -6 -8.308
      vertex -32.5539 6 -8.05136
      vertex -32.5539 -6 -8.05136
    endloop
  endfacet
  facet normal 0.54463 0 -0.838676
    outer loop
      vertex -32.5539 6 -8.05136
      vertex -32.9491 -6 -8.308
      vertex -32.9491 6 -8.308
    endloop
  endfacet
  facet normal 0.258798 0 -0.965931
    outer loop
      vertex -29.1211 -6 -6.52298
      vertex -28.6659 6 -6.40102
      vertex -28.6659 -6 -6.40102
    endloop
  endfacet
  facet normal 0.258798 0 -0.965931
    outer loop
      vertex -28.6659 6 -6.40102
      vertex -29.1211 -6 -6.52298
      vertex -29.1211 6 -6.52298
    endloop
  endfacet
  facet normal 0.453957 0 -0.891023
    outer loop
      vertex -31.7379 -6 -7.58022
      vertex -31.318 6 -7.36629
      vertex -31.318 -6 -7.36629
    endloop
  endfacet
  facet normal 0.453957 0 -0.891023
    outer loop
      vertex -31.318 6 -7.36629
      vertex -31.7379 -6 -7.58022
      vertex -31.7379 6 -7.58022
    endloop
  endfacet
  facet normal 0.754624 0 -0.656158
    outer loop
      vertex -35.4324 -6 -10.4668
      vertex -35.7416 6 -10.8224
      vertex -35.4324 6 -10.4668
    endloop
  endfacet
  facet normal 0.754624 0 -0.656158
    outer loop
      vertex -35.7416 6 -10.8224
      vertex -35.4324 -6 -10.4668
      vertex -35.7416 -6 -10.8224
    endloop
  endfacet
  facet normal -0.0523828 0 -0.998627
    outer loop
      vertex -24.9288 -6 -6.00822
      vertex -24.4583 6 -6.0329
      vertex -24.4583 -6 -6.0329
    endloop
  endfacet
  facet normal -0.0523828 0 -0.998627
    outer loop
      vertex -24.4583 6 -6.0329
      vertex -24.9288 -6 -6.00822
      vertex -24.9288 6 -6.00822
    endloop
  endfacet
  facet normal 0.992553 -0 0.121814
    outer loop
      vertex -38.826 -6 -20.9111
      vertex -38.7686 6 -21.3788
      vertex -38.826 6 -20.9111
    endloop
  endfacet
  facet normal 0.992553 0 0.121814
    outer loop
      vertex -38.7686 6 -21.3788
      vertex -38.826 -6 -20.9111
      vertex -38.7686 -6 -21.3788
    endloop
  endfacet
  facet normal 0.956342 -0 0.292251
    outer loop
      vertex -38.377 -6 -23.2211
      vertex -38.2393 6 -23.6717
      vertex -38.377 6 -23.2211
    endloop
  endfacet
  facet normal 0.956342 0 0.292251
    outer loop
      vertex -38.2393 6 -23.6717
      vertex -38.377 -6 -23.2211
      vertex -38.2393 -6 -23.6717
    endloop
  endfacet
  facet normal 0.891049 0 -0.453907
    outer loop
      vertex -37.3198 -6 -13.1621
      vertex -37.5337 6 -13.582
      vertex -37.3198 6 -13.1621
    endloop
  endfacet
  facet normal 0.891049 0 -0.453907
    outer loop
      vertex -37.5337 6 -13.582
      vertex -37.3198 -6 -13.1621
      vertex -37.5337 -6 -13.582
    endloop
  endfacet
  facet normal -0.707107 0 -0.707107
    outer loop
      vertex 37.3509 -6 -15.9685
      vertex 37.6315 6 -16.2491
      vertex 37.6315 -6 -16.2491
    endloop
  endfacet
  facet normal -0.707107 0 -0.707107
    outer loop
      vertex 37.6315 6 -16.2491
      vertex 37.3509 -6 -15.9685
      vertex 37.3509 6 -15.9685
    endloop
  endfacet
  facet normal -0.646338 0 -0.763052
    outer loop
      vertex 37.0482 -6 -15.7121
      vertex 37.3509 6 -15.9685
      vertex 37.3509 -6 -15.9685
    endloop
  endfacet
  facet normal -0.646338 0 -0.763052
    outer loop
      vertex 37.3509 6 -15.9685
      vertex 37.0482 -6 -15.7121
      vertex 37.0482 6 -15.7121
    endloop
  endfacet
  facet normal 0.156451 0 -0.987686
    outer loop
      vertex -27.7442 -6 -6.20511
      vertex -27.2788 6 -6.13139
      vertex -27.2788 -6 -6.13139
    endloop
  endfacet
  facet normal 0.156451 0 -0.987686
    outer loop
      vertex -27.2788 6 -6.13139
      vertex -27.7442 -6 -6.20511
      vertex -27.7442 6 -6.20511
    endloop
  endfacet
  facet normal 0.7315 0 -0.681842
    outer loop
      vertex -35.1111 -6 -10.1221
      vertex -35.4324 6 -10.4668
      vertex -35.1111 6 -10.1221
    endloop
  endfacet
  facet normal 0.7315 0 -0.681842
    outer loop
      vertex -35.4324 6 -10.4668
      vertex -35.1111 -6 -10.1221
      vertex -35.4324 -6 -10.4668
    endloop
  endfacet
  facet normal 0.484841 0 -0.874602
    outer loop
      vertex -32.15 -6 -7.80867
      vertex -31.7379 6 -7.58022
      vertex -31.7379 -6 -7.58022
    endloop
  endfacet
  facet normal 0.484841 0 -0.874602
    outer loop
      vertex -31.7379 6 -7.58022
      vertex -32.15 -6 -7.80867
      vertex -32.15 6 -7.80867
    endloop
  endfacet
  facet normal 0.996189 0 -0.0872249
    outer loop
      vertex -38.826 -6 -18.0889
      vertex -38.8671 6 -18.5583
      vertex -38.826 6 -18.0889
    endloop
  endfacet
  facet normal 0.996189 0 -0.0872249
    outer loop
      vertex -38.8671 6 -18.5583
      vertex -38.826 -6 -18.0889
      vertex -38.8671 -6 -18.5583
    endloop
  endfacet
  facet normal 0.777191 0 -0.629265
    outer loop
      vertex -35.7416 -6 -10.8224
      vertex -36.0381 6 -11.1886
      vertex -35.7416 6 -10.8224
    endloop
  endfacet
  facet normal 0.777191 0 -0.629265
    outer loop
      vertex -36.0381 6 -11.1886
      vertex -35.7416 -6 -10.8224
      vertex -36.0381 -6 -11.1886
    endloop
  endfacet
  facet normal 0.981635 -0 0.190767
    outer loop
      vertex -38.6949 -6 -21.8442
      vertex -38.605 6 -22.3068
      vertex -38.6949 6 -21.8442
    endloop
  endfacet
  facet normal 0.981635 0 0.190767
    outer loop
      vertex -38.605 6 -22.3068
      vertex -38.6949 -6 -21.8442
      vertex -38.605 -6 -22.3068
    endloop
  endfacet
  facet normal 0.974366 0 -0.224968
    outer loop
      vertex -38.499 -6 -16.2341
      vertex -38.605 6 -16.6932
      vertex -38.499 6 -16.2341
    endloop
  endfacet
  facet normal 0.974366 0 -0.224968
    outer loop
      vertex -38.605 6 -16.6932
      vertex -38.499 -6 -16.2341
      vertex -38.605 -6 -16.6932
    endloop
  endfacet
  facet normal -0.898424 0 -0.439129
    outer loop
      vertex 38.4957 -6 -17.5719
      vertex 38.3215 6 -17.2155
      vertex 38.4957 6 -17.5719
    endloop
  endfacet
  facet normal -0.898424 -0 -0.439129
    outer loop
      vertex 38.3215 6 -17.2155
      vertex 38.4957 -6 -17.5719
      vertex 38.3215 -6 -17.2155
    endloop
  endfacet
  facet normal 0.945474 -0 0.325696
    outer loop
      vertex -38.2393 -6 -23.6717
      vertex -38.0858 6 -24.1173
      vertex -38.2393 6 -23.6717
    endloop
  endfacet
  facet normal 0.945474 0 0.325696
    outer loop
      vertex -38.0858 6 -24.1173
      vertex -38.2393 -6 -23.6717
      vertex -38.0858 -6 -24.1173
    endloop
  endfacet
  facet normal 0.358383 0 -0.933575
    outer loop
      vertex -30.4572 -6 -6.98303
      vertex -30.0173 6 -6.81416
      vertex -30.0173 -6 -6.81416
    endloop
  endfacet
  facet normal 0.358383 0 -0.933575
    outer loop
      vertex -30.0173 6 -6.81416
      vertex -30.4572 -6 -6.98303
      vertex -30.4572 6 -6.98303
    endloop
  endfacet
  facet normal -0.85909 0 -0.511825
    outer loop
      vertex 38.3215 -6 -17.2155
      vertex 38.1184 6 -16.8746
      vertex 38.3215 6 -17.2155
    endloop
  endfacet
  facet normal -0.85909 -0 -0.511825
    outer loop
      vertex 38.1184 6 -16.8746
      vertex 38.3215 -6 -17.2155
      vertex 38.1184 -6 -16.8746
    endloop
  endfacet
  facet normal 0.999849 -0 0.0174034
    outer loop
      vertex -38.9 -6 -19.5
      vertex -38.8918 6 -19.9711
      vertex -38.9 6 -19.5
    endloop
  endfacet
  facet normal 0.999849 0 0.0174034
    outer loop
      vertex -38.8918 6 -19.9711
      vertex -38.9 -6 -19.5
      vertex -38.8918 -6 -19.9711
    endloop
  endfacet
  facet normal 0.515042 0 -0.857165
    outer loop
      vertex -32.5539 -6 -8.05136
      vertex -32.15 6 -7.80867
      vertex -32.15 -6 -7.80867
    endloop
  endfacet
  facet normal 0.515042 0 -0.857165
    outer loop
      vertex -32.15 6 -7.80867
      vertex -32.5539 -6 -8.05136
      vertex -32.5539 6 -8.05136
    endloop
  endfacet
  facet normal 0.857156 0 -0.515057
    outer loop
      vertex -36.8486 -6 -12.3461
      vertex -37.0913 6 -12.75
      vertex -36.8486 6 -12.3461
    endloop
  endfacet
  facet normal 0.857156 0 -0.515057
    outer loop
      vertex -37.0913 6 -12.75
      vertex -36.8486 -6 -12.3461
      vertex -37.0913 -6 -12.75
    endloop
  endfacet
  facet normal 0.987692 0 -0.156409
    outer loop
      vertex -38.6949 -6 -17.1558
      vertex -38.7686 6 -17.6212
      vertex -38.6949 6 -17.1558
    endloop
  endfacet
  facet normal 0.987692 0 -0.156409
    outer loop
      vertex -38.7686 6 -17.6212
      vertex -38.6949 -6 -17.1558
      vertex -38.7686 -6 -17.6212
    endloop
  endfacet
  facet normal 0.96591 -0 0.258878
    outer loop
      vertex -38.499 -6 -22.7659
      vertex -38.377 6 -23.2211
      vertex -38.499 6 -22.7659
    endloop
  endfacet
  facet normal 0.96591 0 0.258878
    outer loop
      vertex -38.377 6 -23.2211
      vertex -38.499 -6 -22.7659
      vertex -38.377 -6 -23.2211
    endloop
  endfacet
  facet normal -0.511936 0 -0.859024
    outer loop
      vertex 36.3845 -6 -15.2785
      vertex 36.7253 6 -15.4816
      vertex 36.7253 -6 -15.4816
    endloop
  endfacet
  facet normal -0.511936 0 -0.859024
    outer loop
      vertex 36.7253 6 -15.4816
      vertex 36.3845 -6 -15.2785
      vertex 36.3845 6 -15.2785
    endloop
  endfacet
  facet normal 0.998625 -0 0.052414
    outer loop
      vertex -38.8918 -6 -19.9711
      vertex -38.8671 6 -20.4417
      vertex -38.8918 6 -19.9711
    endloop
  endfacet
  facet normal 0.998625 0 0.052414
    outer loop
      vertex -38.8671 6 -20.4417
      vertex -38.8918 -6 -19.9711
      vertex -38.8671 -6 -20.4417
    endloop
  endfacet
  facet normal 0.998625 0 -0.052414
    outer loop
      vertex -38.8671 -6 -18.5583
      vertex -38.8918 6 -19.0289
      vertex -38.8671 6 -18.5583
    endloop
  endfacet
  facet normal 0.998625 0 -0.052414
    outer loop
      vertex -38.8918 6 -19.0289
      vertex -38.8671 -6 -18.5583
      vertex -38.8918 -6 -19.0289
    endloop
  endfacet
  facet normal 0.933624 0 -0.358254
    outer loop
      vertex -37.917 -6 -14.4428
      vertex -38.0858 6 -14.8827
      vertex -37.917 6 -14.4428
    endloop
  endfacet
  facet normal 0.933624 0 -0.358254
    outer loop
      vertex -38.0858 6 -14.8827
      vertex -37.917 -6 -14.4428
      vertex -38.0858 -6 -14.8827
    endloop
  endfacet
  facet normal 0.920424 0 -0.39092
    outer loop
      vertex -37.7328 -6 -14.0091
      vertex -37.917 6 -14.4428
      vertex -37.7328 6 -14.0091
    endloop
  endfacet
  facet normal 0.920424 0 -0.39092
    outer loop
      vertex -37.917 6 -14.4428
      vertex -37.7328 -6 -14.0091
      vertex -37.917 -6 -14.4428
    endloop
  endfacet
  facet normal -0.205172 0 -0.978726
    outer loop
      vertex 34.89 -6 -14.7655
      vertex 35.2783 6 -14.8469
      vertex 35.2783 -6 -14.8469
    endloop
  endfacet
  facet normal -0.205172 0 -0.978726
    outer loop
      vertex 35.2783 6 -14.8469
      vertex 34.89 -6 -14.7655
      vertex 34.89 6 -14.7655
    endloop
  endfacet
  facet normal 0.798597 0 -0.601866
    outer loop
      vertex -36.0381 -6 -11.1886
      vertex -36.3217 6 -11.5649
      vertex -36.0381 6 -11.1886
    endloop
  endfacet
  facet normal 0.798597 0 -0.601866
    outer loop
      vertex -36.3217 6 -11.5649
      vertex -36.0381 -6 -11.1886
      vertex -36.3217 -6 -11.5649
    endloop
  endfacet
  facet normal -0.439129 0 -0.898424
    outer loop
      vertex 36.0281 -6 -15.1043
      vertex 36.3845 6 -15.2785
      vertex 36.3845 -6 -15.2785
    endloop
  endfacet
  facet normal -0.439129 0 -0.898424
    outer loop
      vertex 36.3845 6 -15.2785
      vertex 36.0281 -6 -15.1043
      vertex 36.0281 6 -15.1043
    endloop
  endfacet
  facet normal -0.285289 0 -0.958441
    outer loop
      vertex 35.2783 -6 -14.8469
      vertex 35.6586 6 -14.9601
      vertex 35.6586 -6 -14.9601
    endloop
  endfacet
  facet normal -0.285289 0 -0.958441
    outer loop
      vertex 35.6586 6 -14.9601
      vertex 35.2783 -6 -14.8469
      vertex 35.2783 6 -14.8469
    endloop
  endfacet
  facet normal 0.945474 0 -0.325696
    outer loop
      vertex -38.0858 -6 -14.8827
      vertex -38.2393 6 -15.3283
      vertex -38.0858 6 -14.8827
    endloop
  endfacet
  facet normal 0.945474 0 -0.325696
    outer loop
      vertex -38.2393 6 -15.3283
      vertex -38.0858 -6 -14.8827
      vertex -38.2393 -6 -15.3283
    endloop
  endfacet
  facet normal 0.974366 -0 0.224968
    outer loop
      vertex -38.605 -6 -22.3068
      vertex -38.499 6 -22.7659
      vertex -38.605 6 -22.3068
    endloop
  endfacet
  facet normal 0.974366 0 0.224968
    outer loop
      vertex -38.499 6 -22.7659
      vertex -38.605 -6 -22.3068
      vertex -38.499 -6 -22.7659
    endloop
  endfacet
  facet normal -1 0 0
    outer loop
      vertex 39.9 -6 -24.5
      vertex 39.9 6 -17.5
      vertex 39.9 6 -24.5
    endloop
  endfacet
  facet normal -1 -0 0
    outer loop
      vertex 39.9 6 -17.5
      vertex 39.9 -6 -24.5
      vertex 39.9 -6 -17.5
    endloop
  endfacet
  facet normal 0.106605 0 -0.994301
    outer loop
      vertex 38.5252 -6 -17.6474
      vertex 39.9 6 -17.5
      vertex 39.9 -6 -17.5
    endloop
  endfacet
  facet normal 0.106605 0 -0.994301
    outer loop
      vertex 39.9 6 -17.5
      vertex 38.5252 -6 -17.6474
      vertex 38.5252 6 -17.6474
    endloop
  endfacet
  facet normal 1 -0 0
    outer loop
      vertex 42.475 4.13755 0
      vertex 42.475 6 -6
      vertex 42.475 6 0
    endloop
  endfacet
  facet normal 1 0 0
    outer loop
      vertex 42.475 6 -6
      vertex 42.475 4.13755 0
      vertex 42.475 4.13755 -6
    endloop
  endfacet
  facet normal 1 -0 0
    outer loop
      vertex 42.475 -6 0
      vertex 42.475 -4.13755 -6
      vertex 42.475 -4.13755 0
    endloop
  endfacet
  facet normal 1 0 0
    outer loop
      vertex 42.475 -4.13755 -6
      vertex 42.475 -6 0
      vertex 42.475 -6 -6
    endloop
  endfacet
  facet normal -1 0 0
    outer loop
      vertex -42.475 4.13755 -6
      vertex -42.475 6 0
      vertex -42.475 6 -6
    endloop
  endfacet
  facet normal -1 -0 0
    outer loop
      vertex -42.475 6 0
      vertex -42.475 4.13755 -6
      vertex -42.475 4.13755 0
    endloop
  endfacet
  facet normal -1 0 0
    outer loop
      vertex -42.475 -6 -6
      vertex -42.475 -4.13755 0
      vertex -42.475 -4.13755 -6
    endloop
  endfacet
  facet normal -1 -0 0
    outer loop
      vertex -42.475 -4.13755 0
      vertex -42.475 -6 -6
      vertex -42.475 -6 0
    endloop
  endfacet
  facet normal 0 1 -0
    outer loop
      vertex -26.3417 6 -6.0329
      vertex -42.475 6 0
      vertex -25.8711 6 -6.00822
    endloop
  endfacet
  facet normal 0 1 -0
    outer loop
      vertex -26.8111 6 -6.07396
      vertex -42.475 6 0
      vertex -26.3417 6 -6.0329
    endloop
  endfacet
  facet normal 0 1 -0
    outer loop
      vertex -27.2788 6 -6.13139
      vertex -42.475 6 0
      vertex -26.8111 6 -6.07396
    endloop
  endfacet
  facet normal 0 1 -0
    outer loop
      vertex -27.7442 6 -6.20511
      vertex -42.475 6 0
      vertex -27.2788 6 -6.13139
    endloop
  endfacet
  facet normal 0 1 -0
    outer loop
      vertex -28.2068 6 -6.29501
      vertex -42.475 6 0
      vertex -27.7442 6 -6.20511
    endloop
  endfacet
  facet normal 0 1 -0
    outer loop
      vertex -28.6659 6 -6.40102
      vertex -42.475 6 0
      vertex -28.2068 6 -6.29501
    endloop
  endfacet
  facet normal 0 1 -0
    outer loop
      vertex -29.1211 6 -6.52298
      vertex -42.475 6 0
      vertex -28.6659 6 -6.40102
    endloop
  endfacet
  facet normal 0 1 -0
    outer loop
      vertex -29.5717 6 -6.66075
      vertex -42.475 6 0
      vertex -29.1211 6 -6.52298
    endloop
  endfacet
  facet normal 0 1 -0
    outer loop
      vertex -30.0173 6 -6.81416
      vertex -42.475 6 0
      vertex -29.5717 6 -6.66075
    endloop
  endfacet
  facet normal 0 1 -0
    outer loop
      vertex -30.4572 6 -6.98303
      vertex -42.475 6 0
      vertex -30.0173 6 -6.81416
    endloop
  endfacet
  facet normal 0 1 -0
    outer loop
      vertex -30.8909 6 -7.16714
      vertex -42.475 6 0
      vertex -30.4572 6 -6.98303
    endloop
  endfacet
  facet normal 0 1 -0
    outer loop
      vertex -31.318 6 -7.36629
      vertex -42.475 6 0
      vertex -30.8909 6 -7.16714
    endloop
  endfacet
  facet normal 0 1 -0
    outer loop
      vertex -31.7379 6 -7.58022
      vertex -42.475 6 0
      vertex -31.318 6 -7.36629
    endloop
  endfacet
  facet normal 0 1 -0
    outer loop
      vertex -32.15 6 -7.80867
      vertex -42.475 6 0
      vertex -31.7379 6 -7.58022
    endloop
  endfacet
  facet normal 0 1 -0
    outer loop
      vertex -32.5539 6 -8.05136
      vertex -42.475 6 0
      vertex -32.15 6 -7.80867
    endloop
  endfacet
  facet normal 0 1 0
    outer loop
      vertex -42.475 6 0
      vertex -32.5539 6 -8.05136
      vertex -41.975 6 -6
    endloop
  endfacet
  facet normal 0 1 -0
    outer loop
      vertex -32.9491 6 -8.308
      vertex -41.975 6 -6
      vertex -32.5539 6 -8.05136
    endloop
  endfacet
  facet normal 0 1 -0
    outer loop
      vertex -33.3351 6 -8.57828
      vertex -41.975 6 -6
      vertex -32.9491 6 -8.308
    endloop
  endfacet
  facet normal 0 1 -0
    outer loop
      vertex -33.7114 6 -8.86186
      vertex -41.975 6 -6
      vertex -33.3351 6 -8.57828
    endloop
  endfacet
  facet normal 0 1 -0
    outer loop
      vertex -34.0776 6 -9.1584
      vertex -41.975 6 -6
      vertex -33.7114 6 -8.86186
    endloop
  endfacet
  facet normal 0 1 -0
    outer loop
      vertex -34.4333 6 -9.46756
      vertex -41.975 6 -6
      vertex -34.0776 6 -9.1584
    endloop
  endfacet
  facet normal 0 1 -0
    outer loop
      vertex -34.7779 6 -9.78893
      vertex -41.975 6 -6
      vertex -34.4333 6 -9.46756
    endloop
  endfacet
  facet normal 0 1 -0
    outer loop
      vertex -35.1111 6 -10.1221
      vertex -41.975 6 -6
      vertex -34.7779 6 -9.78893
    endloop
  endfacet
  facet normal 0 1 -0
    outer loop
      vertex -35.4324 6 -10.4668
      vertex -41.975 6 -6
      vertex -35.1111 6 -10.1221
    endloop
  endfacet
  facet normal 0 1 -0
    outer loop
      vertex -35.7416 6 -10.8224
      vertex -41.975 6 -6
      vertex -35.4324 6 -10.4668
    endloop
  endfacet
  facet normal 0 1 -0
    outer loop
      vertex -36.0381 6 -11.1886
      vertex -41.975 6 -6
      vertex -35.7416 6 -10.8224
    endloop
  endfacet
  facet normal 0 1 -0
    outer loop
      vertex -36.3217 6 -11.5649
      vertex -41.975 6 -6
      vertex -36.0381 6 -11.1886
    endloop
  endfacet
  facet normal 0 1 -0
    outer loop
      vertex -36.592 6 -11.9509
      vertex -41.975 6 -6
      vertex -36.3217 6 -11.5649
    endloop
  endfacet
  facet normal 0 1 -0
    outer loop
      vertex -36.8486 6 -12.3461
      vertex -41.975 6 -6
      vertex -36.592 6 -11.9509
    endloop
  endfacet
  facet normal 0 1 -0
    outer loop
      vertex -37.0913 6 -12.75
      vertex -41.975 6 -6
      vertex -36.8486 6 -12.3461
    endloop
  endfacet
  facet normal 0 1 -0
    outer loop
      vertex -37.3198 6 -13.1621
      vertex -41.975 6 -6
      vertex -37.0913 6 -12.75
    endloop
  endfacet
  facet normal 0 1 -0
    outer loop
      vertex -37.5337 6 -13.582
      vertex -41.975 6 -6
      vertex -37.3198 6 -13.1621
    endloop
  endfacet
  facet normal 0 1 -0
    outer loop
      vertex -37.7328 6 -14.0091
      vertex -41.975 6 -6
      vertex -37.5337 6 -13.582
    endloop
  endfacet
  facet normal 0 1 -0
    outer loop
      vertex -37.917 6 -14.4428
      vertex -41.975 6 -6
      vertex -37.7328 6 -14.0091
    endloop
  endfacet
  facet normal 0 1 -0
    outer loop
      vertex -38.0858 6 -14.8827
      vertex -41.975 6 -6
      vertex -37.917 6 -14.4428
    endloop
  endfacet
  facet normal 0 1 -0
    outer loop
      vertex -38.2393 6 -15.3283
      vertex -41.975 6 -6
      vertex -38.0858 6 -14.8827
    endloop
  endfacet
  facet normal 0 1 -0
    outer loop
      vertex -38.377 6 -15.7789
      vertex -41.975 6 -6
      vertex -38.2393 6 -15.3283
    endloop
  endfacet
  facet normal 0 1 -0
    outer loop
      vertex -38.499 6 -16.2341
      vertex -41.975 6 -6
      vertex -38.377 6 -15.7789
    endloop
  endfacet
  facet normal 0 1 -0
    outer loop
      vertex -38.605 6 -16.6932
      vertex -41.975 6 -6
      vertex -38.499 6 -16.2341
    endloop
  endfacet
  facet normal 0 1 -0
    outer loop
      vertex -38.6949 6 -17.1558
      vertex -41.975 6 -6
      vertex -38.605 6 -16.6932
    endloop
  endfacet
  facet normal 0 1 -0
    outer loop
      vertex -38.7686 6 -17.6212
      vertex -41.975 6 -6
      vertex -38.6949 6 -17.1558
    endloop
  endfacet
  facet normal 0 1 0
    outer loop
      vertex -41.975 6 -24.5
      vertex -38.7686 6 -17.6212
      vertex -38.826 6 -18.0889
    endloop
  endfacet
  facet normal 0 1 0
    outer loop
      vertex -41.975 6 -24.5
      vertex -38.826 6 -18.0889
      vertex -38.8671 6 -18.5583
    endloop
  endfacet
  facet normal 0 1 0
    outer loop
      vertex -41.975 6 -24.5
      vertex -38.8671 6 -18.5583
      vertex -38.8918 6 -19.0289
    endloop
  endfacet
  facet normal 0 1 0
    outer loop
      vertex -41.975 6 -24.5
      vertex -38.8918 6 -19.0289
      vertex -38.9 6 -19.5
    endloop
  endfacet
  facet normal 0 1 0
    outer loop
      vertex -41.975 6 -24.5
      vertex -38.9 6 -19.5
      vertex -38.8918 6 -19.9711
    endloop
  endfacet
  facet normal 0 1 0
    outer loop
      vertex -41.975 6 -24.5
      vertex -38.8918 6 -19.9711
      vertex -38.8671 6 -20.4417
    endloop
  endfacet
  facet normal 0 1 0
    outer loop
      vertex -41.975 6 -24.5
      vertex -38.8671 6 -20.4417
      vertex -38.826 6 -20.9111
    endloop
  endfacet
  facet normal 0 1 0
    outer loop
      vertex -41.975 6 -24.5
      vertex -38.826 6 -20.9111
      vertex -38.7686 6 -21.3788
    endloop
  endfacet
  facet normal 0 1 0
    outer loop
      vertex -41.975 6 -24.5
      vertex -38.7686 6 -21.3788
      vertex -38.6949 6 -21.8442
    endloop
  endfacet
  facet normal 0 1 0
    outer loop
      vertex -41.975 6 -24.5
      vertex -38.6949 6 -21.8442
      vertex -38.605 6 -22.3068
    endloop
  endfacet
  facet normal 0 1 0
    outer loop
      vertex -38.7686 6 -17.6212
      vertex -41.975 6 -24.5
      vertex -41.975 6 -6
    endloop
  endfacet
  facet normal 0 1 0
    outer loop
      vertex -38.499 6 -22.7659
      vertex -41.975 6 -24.5
      vertex -38.605 6 -22.3068
    endloop
  endfacet
  facet normal 0 1 0
    outer loop
      vertex -38.377 6 -23.2211
      vertex -41.975 6 -24.5
      vertex -38.499 6 -22.7659
    endloop
  endfacet
  facet normal 0 1 0
    outer loop
      vertex -38.2393 6 -23.6717
      vertex -41.975 6 -24.5
      vertex -38.377 6 -23.2211
    endloop
  endfacet
  facet normal 0 1 0
    outer loop
      vertex -38.0858 6 -24.1173
      vertex -41.975 6 -24.5
      vertex -38.2393 6 -23.6717
    endloop
  endfacet
  facet normal 0 1 0
    outer loop
      vertex -41.975 6 -24.5
      vertex -38.0858 6 -24.1173
      vertex -37.9389 6 -24.5
    endloop
  endfacet
  facet normal 0 1 0
    outer loop
      vertex -42.475 6 0
      vertex -24.9288 6 -6.00822
      vertex -25.4 6 -6
    endloop
  endfacet
  facet normal 0 1 0
    outer loop
      vertex 42.475 6 0
      vertex -24.4583 6 -6.0329
      vertex -24.9288 6 -6.00822
    endloop
  endfacet
  facet normal 0 1 0
    outer loop
      vertex 42.475 6 0
      vertex -23.9889 6 -6.07396
      vertex -24.4583 6 -6.0329
    endloop
  endfacet
  facet normal 0 1 0
    outer loop
      vertex 42.475 6 0
      vertex -23.5211 6 -6.13139
      vertex -23.9889 6 -6.07396
    endloop
  endfacet
  facet normal 0 1 0
    outer loop
      vertex 42.475 6 0
      vertex 34.89 6 -14.7655
      vertex -23.5211 6 -6.13139
    endloop
  endfacet
  facet normal 0 1 0
    outer loop
      vertex 41.975 6 -6
      vertex 35.2783 6 -14.8469
      vertex 34.89 6 -14.7655
    endloop
  endfacet
  facet normal 0 1 0
    outer loop
      vertex 41.975 6 -6
      vertex 35.6586 6 -14.9601
      vertex 35.2783 6 -14.8469
    endloop
  endfacet
  facet normal 0 1 0
    outer loop
      vertex 41.975 6 -6
      vertex 36.0281 6 -15.1043
      vertex 35.6586 6 -14.9601
    endloop
  endfacet
  facet normal 0 1 0
    outer loop
      vertex 41.975 6 -6
      vertex 36.3845 6 -15.2785
      vertex 36.0281 6 -15.1043
    endloop
  endfacet
  facet normal 0 1 0
    outer loop
      vertex 41.975 6 -6
      vertex 36.7253 6 -15.4816
      vertex 36.3845 6 -15.2785
    endloop
  endfacet
  facet normal 0 1 0
    outer loop
      vertex 41.975 6 -6
      vertex 37.0482 6 -15.7121
      vertex 36.7253 6 -15.4816
    endloop
  endfacet
  facet normal 0 1 0
    outer loop
      vertex 41.975 6 -6
      vertex 37.3509 6 -15.9685
      vertex 37.0482 6 -15.7121
    endloop
  endfacet
  facet normal 0 1 -0
    outer loop
      vertex 39.9 6 -17.5
      vertex 37.3509 6 -15.9685
      vertex 41.975 6 -6
    endloop
  endfacet
  facet normal 0 1 0
    outer loop
      vertex 37.3509 6 -15.9685
      vertex 39.9 6 -17.5
      vertex 37.6315 6 -16.2491
    endloop
  endfacet
  facet normal 0 1 0
    outer loop
      vertex 37.6315 6 -16.2491
      vertex 39.9 6 -17.5
      vertex 37.8879 6 -16.5518
    endloop
  endfacet
  facet normal 0 1 0
    outer loop
      vertex 37.8879 6 -16.5518
      vertex 39.9 6 -17.5
      vertex 38.1184 6 -16.8746
    endloop
  endfacet
  facet normal 0 1 0
    outer loop
      vertex 38.1184 6 -16.8746
      vertex 39.9 6 -17.5
      vertex 38.3215 6 -17.2155
    endloop
  endfacet
  facet normal 0 1 -0
    outer loop
      vertex 41.975 6 -24.5
      vertex 39.9 6 -17.5
      vertex 41.975 6 -6
    endloop
  endfacet
  facet normal 0 1 0
    outer loop
      vertex 39.9 6 -17.5
      vertex 41.975 6 -24.5
      vertex 39.9 6 -24.5
    endloop
  endfacet
  facet normal 0 1 0
    outer loop
      vertex 41.975 6 -6
      vertex 42.475 6 0
      vertex 42.475 6 -6
    endloop
  endfacet
  facet normal 0 1 0
    outer loop
      vertex 34.89 6 -14.7655
      vertex 42.475 6 0
      vertex 41.975 6 -6
    endloop
  endfacet
  facet normal 0 1 -0
    outer loop
      vertex -24.9288 6 -6.00822
      vertex -42.475 6 0
      vertex 42.475 6 0
    endloop
  endfacet
  facet normal 0 1 -0
    outer loop
      vertex -25.8711 6 -6.00822
      vertex -42.475 6 0
      vertex -25.4 6 -6
    endloop
  endfacet
  facet normal 0 1 0
    outer loop
      vertex -42.475 6 0
      vertex -41.975 6 -6
      vertex -42.475 6 -6
    endloop
  endfacet
  facet normal 0 1 0
    outer loop
      vertex 39.9 6 -17.5
      vertex 38.4957 6 -17.5719
      vertex 38.3215 6 -17.2155
    endloop
  endfacet
  facet normal -0 1 0
    outer loop
      vertex 38.4957 6 -17.5719
      vertex 39.9 6 -17.5
      vertex 38.5252 6 -17.6474
    endloop
  endfacet
  facet normal 0 -1 0
    outer loop
      vertex 38.4957 -6 -17.5719
      vertex 39.9 -6 -17.5
      vertex 38.3215 -6 -17.2155
    endloop
  endfacet
  facet normal 0 -1 0
    outer loop
      vertex 39.9 -6 -17.5
      vertex 38.4957 -6 -17.5719
      vertex 38.5252 -6 -17.6474
    endloop
  endfacet
  facet normal 0 -1 0
    outer loop
      vertex -23.9889 -6 -6.07396
      vertex -42.475 -6 0
      vertex -24.4583 -6 -6.0329
    endloop
  endfacet
  facet normal 0 -1 0
    outer loop
      vertex -23.5211 -6 -6.13139
      vertex -42.475 -6 0
      vertex -23.9889 -6 -6.07396
    endloop
  endfacet
  facet normal 0 -1 0
    outer loop
      vertex -42.475 -6 0
      vertex -23.5211 -6 -6.13139
      vertex 42.475 -6 0
    endloop
  endfacet
  facet normal 0 -1 0
    outer loop
      vertex 34.89 -6 -14.7655
      vertex 42.475 -6 0
      vertex -23.5211 -6 -6.13139
    endloop
  endfacet
  facet normal 0 -1 0
    outer loop
      vertex 42.475 -6 0
      vertex 34.89 -6 -14.7655
      vertex 41.975 -6 -6
    endloop
  endfacet
  facet normal 0 -1 0
    outer loop
      vertex 35.2783 -6 -14.8469
      vertex 41.975 -6 -6
      vertex 34.89 -6 -14.7655
    endloop
  endfacet
  facet normal 0 -1 0
    outer loop
      vertex 35.6586 -6 -14.9601
      vertex 41.975 -6 -6
      vertex 35.2783 -6 -14.8469
    endloop
  endfacet
  facet normal 0 -1 0
    outer loop
      vertex 36.0281 -6 -15.1043
      vertex 41.975 -6 -6
      vertex 35.6586 -6 -14.9601
    endloop
  endfacet
  facet normal 0 -1 0
    outer loop
      vertex 36.3845 -6 -15.2785
      vertex 41.975 -6 -6
      vertex 36.0281 -6 -15.1043
    endloop
  endfacet
  facet normal 0 -1 0
    outer loop
      vertex 36.7253 -6 -15.4816
      vertex 41.975 -6 -6
      vertex 36.3845 -6 -15.2785
    endloop
  endfacet
  facet normal 0 -1 0
    outer loop
      vertex 37.0482 -6 -15.7121
      vertex 41.975 -6 -6
      vertex 36.7253 -6 -15.4816
    endloop
  endfacet
  facet normal 0 -1 0
    outer loop
      vertex 37.3509 -6 -15.9685
      vertex 41.975 -6 -6
      vertex 37.0482 -6 -15.7121
    endloop
  endfacet
  facet normal 0 -1 0
    outer loop
      vertex 39.9 -6 -17.5
      vertex 37.3509 -6 -15.9685
      vertex 37.6315 -6 -16.2491
    endloop
  endfacet
  facet normal 0 -1 0
    outer loop
      vertex 39.9 -6 -17.5
      vertex 37.6315 -6 -16.2491
      vertex 37.8879 -6 -16.5518
    endloop
  endfacet
  facet normal 0 -1 0
    outer loop
      vertex 39.9 -6 -17.5
      vertex 37.8879 -6 -16.5518
      vertex 38.1184 -6 -16.8746
    endloop
  endfacet
  facet normal 0 -1 0
    outer loop
      vertex 39.9 -6 -17.5
      vertex 38.1184 -6 -16.8746
      vertex 38.3215 -6 -17.2155
    endloop
  endfacet
  facet normal 0 -1 0
    outer loop
      vertex 37.3509 -6 -15.9685
      vertex 39.9 -6 -17.5
      vertex 41.975 -6 -6
    endloop
  endfacet
  facet normal 0 -1 0
    outer loop
      vertex 41.975 -6 -24.5
      vertex 39.9 -6 -17.5
      vertex 39.9 -6 -24.5
    endloop
  endfacet
  facet normal 0 -1 0
    outer loop
      vertex 39.9 -6 -17.5
      vertex 41.975 -6 -24.5
      vertex 41.975 -6 -6
    endloop
  endfacet
  facet normal 0 -1 0
    outer loop
      vertex -42.475 -6 0
      vertex -25.8711 -6 -6.00822
      vertex -25.4 -6 -6
    endloop
  endfacet
  facet normal 0 -1 0
    outer loop
      vertex -42.475 -6 0
      vertex -26.3417 -6 -6.0329
      vertex -25.8711 -6 -6.00822
    endloop
  endfacet
  facet normal 0 -1 0
    outer loop
      vertex -42.475 -6 0
      vertex -26.8111 -6 -6.07396
      vertex -26.3417 -6 -6.0329
    endloop
  endfacet
  facet normal 0 -1 0
    outer loop
      vertex -42.475 -6 0
      vertex -27.2788 -6 -6.13139
      vertex -26.8111 -6 -6.07396
    endloop
  endfacet
  facet normal 0 -1 0
    outer loop
      vertex -42.475 -6 0
      vertex -27.7442 -6 -6.20511
      vertex -27.2788 -6 -6.13139
    endloop
  endfacet
  facet normal 0 -1 0
    outer loop
      vertex -42.475 -6 0
      vertex -28.2068 -6 -6.29501
      vertex -27.7442 -6 -6.20511
    endloop
  endfacet
  facet normal 0 -1 0
    outer loop
      vertex -42.475 -6 0
      vertex -28.6659 -6 -6.40102
      vertex -28.2068 -6 -6.29501
    endloop
  endfacet
  facet normal 0 -1 0
    outer loop
      vertex -42.475 -6 0
      vertex -29.1211 -6 -6.52298
      vertex -28.6659 -6 -6.40102
    endloop
  endfacet
  facet normal 0 -1 0
    outer loop
      vertex -42.475 -6 0
      vertex -29.5717 -6 -6.66075
      vertex -29.1211 -6 -6.52298
    endloop
  endfacet
  facet normal 0 -1 0
    outer loop
      vertex -42.475 -6 0
      vertex -30.0173 -6 -6.81416
      vertex -29.5717 -6 -6.66075
    endloop
  endfacet
  facet normal 0 -1 0
    outer loop
      vertex -42.475 -6 0
      vertex -30.4572 -6 -6.98303
      vertex -30.0173 -6 -6.81416
    endloop
  endfacet
  facet normal 0 -1 0
    outer loop
      vertex -42.475 -6 0
      vertex -30.8909 -6 -7.16714
      vertex -30.4572 -6 -6.98303
    endloop
  endfacet
  facet normal 0 -1 0
    outer loop
      vertex -42.475 -6 0
      vertex -31.318 -6 -7.36629
      vertex -30.8909 -6 -7.16714
    endloop
  endfacet
  facet normal 0 -1 0
    outer loop
      vertex -42.475 -6 0
      vertex -31.7379 -6 -7.58022
      vertex -31.318 -6 -7.36629
    endloop
  endfacet
  facet normal 0 -1 0
    outer loop
      vertex -42.475 -6 0
      vertex -32.15 -6 -7.80867
      vertex -31.7379 -6 -7.58022
    endloop
  endfacet
  facet normal 0 -1 0
    outer loop
      vertex -42.475 -6 0
      vertex -32.5539 -6 -8.05136
      vertex -32.15 -6 -7.80867
    endloop
  endfacet
  facet normal 0 -1 0
    outer loop
      vertex -41.975 -6 -6
      vertex -32.9491 -6 -8.308
      vertex -32.5539 -6 -8.05136
    endloop
  endfacet
  facet normal 0 -1 0
    outer loop
      vertex -41.975 -6 -6
      vertex -33.3351 -6 -8.57828
      vertex -32.9491 -6 -8.308
    endloop
  endfacet
  facet normal 0 -1 0
    outer loop
      vertex -41.975 -6 -6
      vertex -33.7114 -6 -8.86186
      vertex -33.3351 -6 -8.57828
    endloop
  endfacet
  facet normal 0 -1 0
    outer loop
      vertex -41.975 -6 -6
      vertex -34.0776 -6 -9.1584
      vertex -33.7114 -6 -8.86186
    endloop
  endfacet
  facet normal 0 -1 0
    outer loop
      vertex -41.975 -6 -6
      vertex -34.4333 -6 -9.46756
      vertex -34.0776 -6 -9.1584
    endloop
  endfacet
  facet normal 0 -1 0
    outer loop
      vertex -41.975 -6 -6
      vertex -34.7779 -6 -9.78893
      vertex -34.4333 -6 -9.46756
    endloop
  endfacet
  facet normal 0 -1 0
    outer loop
      vertex -41.975 -6 -6
      vertex -35.1111 -6 -10.1221
      vertex -34.7779 -6 -9.78893
    endloop
  endfacet
  facet normal 0 -1 0
    outer loop
      vertex -41.975 -6 -6
      vertex -35.4324 -6 -10.4668
      vertex -35.1111 -6 -10.1221
    endloop
  endfacet
  facet normal 0 -1 0
    outer loop
      vertex -41.975 -6 -6
      vertex -35.7416 -6 -10.8224
      vertex -35.4324 -6 -10.4668
    endloop
  endfacet
  facet normal 0 -1 0
    outer loop
      vertex -41.975 -6 -6
      vertex -36.0381 -6 -11.1886
      vertex -35.7416 -6 -10.8224
    endloop
  endfacet
  facet normal 0 -1 0
    outer loop
      vertex -41.975 -6 -6
      vertex -36.3217 -6 -11.5649
      vertex -36.0381 -6 -11.1886
    endloop
  endfacet
  facet normal 0 -1 0
    outer loop
      vertex -41.975 -6 -6
      vertex -36.592 -6 -11.9509
      vertex -36.3217 -6 -11.5649
    endloop
  endfacet
  facet normal 0 -1 0
    outer loop
      vertex -41.975 -6 -6
      vertex -36.8486 -6 -12.3461
      vertex -36.592 -6 -11.9509
    endloop
  endfacet
  facet normal 0 -1 0
    outer loop
      vertex -41.975 -6 -6
      vertex -37.0913 -6 -12.75
      vertex -36.8486 -6 -12.3461
    endloop
  endfacet
  facet normal 0 -1 0
    outer loop
      vertex -41.975 -6 -6
      vertex -37.3198 -6 -13.1621
      vertex -37.0913 -6 -12.75
    endloop
  endfacet
  facet normal 0 -1 0
    outer loop
      vertex -41.975 -6 -6
      vertex -37.5337 -6 -13.582
      vertex -37.3198 -6 -13.1621
    endloop
  endfacet
  facet normal 0 -1 0
    outer loop
      vertex -41.975 -6 -6
      vertex -37.7328 -6 -14.0091
      vertex -37.5337 -6 -13.582
    endloop
  endfacet
  facet normal 0 -1 0
    outer loop
      vertex -41.975 -6 -6
      vertex -37.917 -6 -14.4428
      vertex -37.7328 -6 -14.0091
    endloop
  endfacet
  facet normal 0 -1 0
    outer loop
      vertex -41.975 -6 -6
      vertex -38.0858 -6 -14.8827
      vertex -37.917 -6 -14.4428
    endloop
  endfacet
  facet normal 0 -1 0
    outer loop
      vertex -41.975 -6 -6
      vertex -38.2393 -6 -15.3283
      vertex -38.0858 -6 -14.8827
    endloop
  endfacet
  facet normal 0 -1 0
    outer loop
      vertex -41.975 -6 -6
      vertex -38.377 -6 -15.7789
      vertex -38.2393 -6 -15.3283
    endloop
  endfacet
  facet normal 0 -1 0
    outer loop
      vertex -41.975 -6 -6
      vertex -38.499 -6 -16.2341
      vertex -38.377 -6 -15.7789
    endloop
  endfacet
  facet normal 0 -1 0
    outer loop
      vertex -41.975 -6 -6
      vertex -38.605 -6 -16.6932
      vertex -38.499 -6 -16.2341
    endloop
  endfacet
  facet normal 0 -1 0
    outer loop
      vertex -41.975 -6 -6
      vertex -38.6949 -6 -17.1558
      vertex -38.605 -6 -16.6932
    endloop
  endfacet
  facet normal 0 -1 0
    outer loop
      vertex -41.975 -6 -6
      vertex -38.7686 -6 -17.6212
      vertex -38.6949 -6 -17.1558
    endloop
  endfacet
  facet normal 0 -1 0
    outer loop
      vertex -41.975 -6 -24.5
      vertex -38.7686 -6 -17.6212
      vertex -41.975 -6 -6
    endloop
  endfacet
  facet normal 0 -1 0
    outer loop
      vertex -38.7686 -6 -17.6212
      vertex -41.975 -6 -24.5
      vertex -38.826 -6 -18.0889
    endloop
  endfacet
  facet normal 0 -1 0
    outer loop
      vertex -38.826 -6 -18.0889
      vertex -41.975 -6 -24.5
      vertex -38.8671 -6 -18.5583
    endloop
  endfacet
  facet normal 0 -1 0
    outer loop
      vertex -38.8671 -6 -18.5583
      vertex -41.975 -6 -24.5
      vertex -38.8918 -6 -19.0289
    endloop
  endfacet
  facet normal 0 -1 0
    outer loop
      vertex -38.8918 -6 -19.0289
      vertex -41.975 -6 -24.5
      vertex -38.9 -6 -19.5
    endloop
  endfacet
  facet normal 0 -1 -0
    outer loop
      vertex -38.9 -6 -19.5
      vertex -41.975 -6 -24.5
      vertex -38.8918 -6 -19.9711
    endloop
  endfacet
  facet normal 0 -1 -0
    outer loop
      vertex -38.8918 -6 -19.9711
      vertex -41.975 -6 -24.5
      vertex -38.8671 -6 -20.4417
    endloop
  endfacet
  facet normal 0 -1 -0
    outer loop
      vertex -38.8671 -6 -20.4417
      vertex -41.975 -6 -24.5
      vertex -38.826 -6 -20.9111
    endloop
  endfacet
  facet normal 0 -1 -0
    outer loop
      vertex -38.826 -6 -20.9111
      vertex -41.975 -6 -24.5
      vertex -38.7686 -6 -21.3788
    endloop
  endfacet
  facet normal 0 -1 -0
    outer loop
      vertex -38.7686 -6 -21.3788
      vertex -41.975 -6 -24.5
      vertex -38.6949 -6 -21.8442
    endloop
  endfacet
  facet normal 0 -1 -0
    outer loop
      vertex -38.6949 -6 -21.8442
      vertex -41.975 -6 -24.5
      vertex -38.605 -6 -22.3068
    endloop
  endfacet
  facet normal 0 -1 0
    outer loop
      vertex -41.975 -6 -24.5
      vertex -38.499 -6 -22.7659
      vertex -38.605 -6 -22.3068
    endloop
  endfacet
  facet normal 0 -1 0
    outer loop
      vertex -41.975 -6 -24.5
      vertex -38.377 -6 -23.2211
      vertex -38.499 -6 -22.7659
    endloop
  endfacet
  facet normal 0 -1 0
    outer loop
      vertex -41.975 -6 -24.5
      vertex -38.2393 -6 -23.6717
      vertex -38.377 -6 -23.2211
    endloop
  endfacet
  facet normal 0 -1 0
    outer loop
      vertex -41.975 -6 -24.5
      vertex -38.0858 -6 -24.1173
      vertex -38.2393 -6 -23.6717
    endloop
  endfacet
  facet normal 0 -1 -0
    outer loop
      vertex -38.0858 -6 -24.1173
      vertex -41.975 -6 -24.5
      vertex -37.9389 -6 -24.5
    endloop
  endfacet
  facet normal 0 -1 0
    outer loop
      vertex -41.975 -6 -6
      vertex -42.475 -6 0
      vertex -42.475 -6 -6
    endloop
  endfacet
  facet normal 0 -1 0
    outer loop
      vertex -32.5539 -6 -8.05136
      vertex -42.475 -6 0
      vertex -41.975 -6 -6
    endloop
  endfacet
  facet normal 0 -1 0
    outer loop
      vertex -24.9288 -6 -6.00822
      vertex -42.475 -6 0
      vertex -25.4 -6 -6
    endloop
  endfacet
  facet normal 0 -1 0
    outer loop
      vertex -24.4583 -6 -6.0329
      vertex -42.475 -6 0
      vertex -24.9288 -6 -6.00822
    endloop
  endfacet
  facet normal 0 -1 -0
    outer loop
      vertex 42.475 -6 0
      vertex 41.975 -6 -6
      vertex 42.475 -6 -6
    endloop
  endfacet
endsolid OpenSCAD_Model
