solid OpenSCAD_Model
  facet normal 0 0 1
    outer loop
      vertex 42.475 6 0
      vertex 42.2461 3.93247 0
      vertex 42.475 4.13755 0
    endloop
  endfacet
  facet normal 0 0 1
    outer loop
      vertex 42.475 6 0
      vertex 41.9692 3.64523 0
      vertex 42.2461 3.93247 0
    endloop
  endfacet
  facet normal 0 0 1
    outer loop
      vertex 42.475 6 0
      vertex 41.714 3.33854 0
      vertex 41.9692 3.64523 0
    endloop
  endfacet
  facet normal 0 0 1
    outer loop
      vertex 42.475 6 0
      vertex 41.4818 3.01403 0
      vertex 41.714 3.33854 0
    endloop
  endfacet
  facet normal 0 0 1
    outer loop
      vertex 42.475 6 0
      vertex 41.2739 2.67344 0
      vertex 41.4818 3.01403 0
    endloop
  endfacet
  facet normal 0 0 1
    outer loop
      vertex 42.475 6 0
      vertex 41.0915 2.31859 0
      vertex 41.2739 2.67344 0
    endloop
  endfacet
  facet normal 0 0 1
    outer loop
      vertex 42.475 6 0
      vertex 40.9354 1.95137 0
      vertex 41.0915 2.31859 0
    endloop
  endfacet
  facet normal 0 0 1
    outer loop
      vertex 40.5896 0.398736 0
      vertex -40.575 0 0
      vertex 40.575 0 0
    endloop
  endfacet
  facet normal 0 0 1
    outer loop
      vertex -40.5896 0.398736 0
      vertex 40.5896 0.398736 0
      vertex 40.6332 0.795346 0
    endloop
  endfacet
  facet normal 0 0 1
    outer loop
      vertex -40.6332 0.795346 0
      vertex 40.6332 0.795346 0
      vertex 40.7057 1.18771 0
    endloop
  endfacet
  facet normal 0 0 1
    outer loop
      vertex -40.7057 1.18771 0
      vertex 40.7057 1.18771 0
      vertex 40.8066 1.57374 0
    endloop
  endfacet
  facet normal 0 0 1
    outer loop
      vertex -40.8066 1.57374 0
      vertex 40.8066 1.57374 0
      vertex 40.9354 1.95137 0
    endloop
  endfacet
  facet normal 0 0 1
    outer loop
      vertex -40.9354 1.95137 0
      vertex 40.9354 1.95137 0
      vertex 42.475 6 0
    endloop
  endfacet
  facet normal 0 0 1
    outer loop
      vertex 40.5896 0.398736 0
      vertex -40.5896 0.398736 0
      vertex -40.575 0 0
    endloop
  endfacet
  facet normal 0 0 1
    outer loop
      vertex 40.6332 0.795346 0
      vertex -40.6332 0.795346 0
      vertex -40.5896 0.398736 0
    endloop
  endfacet
  facet normal 0 0 1
    outer loop
      vertex 40.7057 1.18771 0
      vertex -40.7057 1.18771 0
      vertex -40.6332 0.795346 0
    endloop
  endfacet
  facet normal 0 0 1
    outer loop
      vertex 40.8066 1.57374 0
      vertex -40.8066 1.57374 0
      vertex -40.7057 1.18771 0
    endloop
  endfacet
  facet normal 0 0 1
    outer loop
      vertex 40.9354 1.95137 0
      vertex -40.9354 1.95137 0
      vertex -40.8066 1.57374 0
    endloop
  endfacet
  facet normal 0 0 1
    outer loop
      vertex 42.475 6 0
      vertex -41.0915 2.31859 0
      vertex -40.9354 1.95137 0
    endloop
  endfacet
  facet normal -0 0 1
    outer loop
      vertex -42.475 6 0
      vertex -41.0915 2.31859 0
      vertex 42.475 6 0
    endloop
  endfacet
  facet normal 0 0 1
    outer loop
      vertex -41.0915 2.31859 0
      vertex -42.475 6 0
      vertex -41.2739 2.67344 0
    endloop
  endfacet
  facet normal 0 0 1
    outer loop
      vertex -41.2739 2.67344 0
      vertex -42.475 6 0
      vertex -41.4818 3.01403 0
    endloop
  endfacet
  facet normal 0 0 1
    outer loop
      vertex -41.4818 3.01403 0
      vertex -42.475 6 0
      vertex -41.714 3.33854 0
    endloop
  endfacet
  facet normal 0 0 1
    outer loop
      vertex -41.714 3.33854 0
      vertex -42.475 6 0
      vertex -41.9692 3.64523 0
    endloop
  endfacet
  facet normal 0 0 1
    outer loop
      vertex -41.9692 3.64523 0
      vertex -42.475 6 0
      vertex -42.2461 3.93247 0
    endloop
  endfacet
  facet normal 0 0 1
    outer loop
      vertex -42.2461 3.93247 0
      vertex -42.475 6 0
      vertex -42.475 4.13755 0
    endloop
  endfacet
  facet normal 0 0 1
    outer loop
      vertex 42.2461 -3.93247 0
      vertex 42.475 -6 0
      vertex 42.475 -4.13755 0
    endloop
  endfacet
  facet normal 0 0 1
    outer loop
      vertex 41.9692 -3.64523 0
      vertex 42.475 -6 0
      vertex 42.2461 -3.93247 0
    endloop
  endfacet
  facet normal 0 0 1
    outer loop
      vertex 41.714 -3.33854 0
      vertex 42.475 -6 0
      vertex 41.9692 -3.64523 0
    endloop
  endfacet
  facet normal 0 0 1
    outer loop
      vertex 41.4818 -3.01403 0
      vertex 42.475 -6 0
      vertex 41.714 -3.33854 0
    endloop
  endfacet
  facet normal 0 0 1
    outer loop
      vertex 41.2739 -2.67344 0
      vertex 42.475 -6 0
      vertex 41.4818 -3.01403 0
    endloop
  endfacet
  facet normal 0 0 1
    outer loop
      vertex 41.0915 -2.31859 0
      vertex 42.475 -6 0
      vertex 41.2739 -2.67344 0
    endloop
  endfacet
  facet normal 0 0 1
    outer loop
      vertex 40.9354 -1.95137 0
      vertex 42.475 -6 0
      vertex 41.0915 -2.31859 0
    endloop
  endfacet
  facet normal -0 0 1
    outer loop
      vertex -40.575 0 0
      vertex 40.5896 -0.398736 0
      vertex 40.575 0 0
    endloop
  endfacet
  facet normal 0 0 1
    outer loop
      vertex -40.5896 -0.398736 0
      vertex 40.5896 -0.398736 0
      vertex -40.575 0 0
    endloop
  endfacet
  facet normal 0 0 1
    outer loop
      vertex 40.5896 -0.398736 0
      vertex -40.5896 -0.398736 0
      vertex 40.6332 -0.795346 0
    endloop
  endfacet
  facet normal 0 0 1
    outer loop
      vertex -40.6332 -0.795346 0
      vertex 40.6332 -0.795346 0
      vertex -40.5896 -0.398736 0
    endloop
  endfacet
  facet normal 0 0 1
    outer loop
      vertex 40.6332 -0.795346 0
      vertex -40.6332 -0.795346 0
      vertex 40.7057 -1.18771 0
    endloop
  endfacet
  facet normal 0 0 1
    outer loop
      vertex -40.7057 -1.18771 0
      vertex 40.7057 -1.18771 0
      vertex -40.6332 -0.795346 0
    endloop
  endfacet
  facet normal 0 0 1
    outer loop
      vertex 40.7057 -1.18771 0
      vertex -40.7057 -1.18771 0
      vertex 40.8066 -1.57374 0
    endloop
  endfacet
  facet normal 0 0 1
    outer loop
      vertex -40.8066 -1.57374 0
      vertex 40.8066 -1.57374 0
      vertex -40.7057 -1.18771 0
    endloop
  endfacet
  facet normal 0 0 1
    outer loop
      vertex 40.8066 -1.57374 0
      vertex -40.8066 -1.57374 0
      vertex 40.9354 -1.95137 0
    endloop
  endfacet
  facet normal 0 0 1
    outer loop
      vertex -40.9354 -1.95137 0
      vertex 40.9354 -1.95137 0
      vertex -40.8066 -1.57374 0
    endloop
  endfacet
  facet normal 0 0 1
    outer loop
      vertex 40.9354 -1.95137 0
      vertex -40.9354 -1.95137 0
      vertex 42.475 -6 0
    endloop
  endfacet
  facet normal -0 0 1
    outer loop
      vertex -41.0915 -2.31859 0
      vertex 42.475 -6 0
      vertex -40.9354 -1.95137 0
    endloop
  endfacet
  facet normal 0 0 1
    outer loop
      vertex -42.475 -6 0
      vertex -41.0915 -2.31859 0
      vertex -41.2739 -2.67344 0
    endloop
  endfacet
  facet normal 0 0 1
    outer loop
      vertex -42.475 -6 0
      vertex -41.2739 -2.67344 0
      vertex -41.4818 -3.01403 0
    endloop
  endfacet
  facet normal 0 0 1
    outer loop
      vertex -42.475 -6 0
      vertex -41.4818 -3.01403 0
      vertex -41.714 -3.33854 0
    endloop
  endfacet
  facet normal 0 0 1
    outer loop
      vertex -42.475 -6 0
      vertex -41.714 -3.33854 0
      vertex -41.9692 -3.64523 0
    endloop
  endfacet
  facet normal 0 0 1
    outer loop
      vertex -42.475 -6 0
      vertex -41.9692 -3.64523 0
      vertex -42.2461 -3.93247 0
    endloop
  endfacet
  facet normal 0 0 1
    outer loop
      vertex -42.475 -6 0
      vertex -42.2461 -3.93247 0
      vertex -42.475 -4.13755 0
    endloop
  endfacet
  facet normal 0 0 1
    outer loop
      vertex -41.0915 -2.31859 0
      vertex -42.475 -6 0
      vertex 42.475 -6 0
    endloop
  endfacet
  facet normal 0 0 -1
    outer loop
      vertex -41.975 -6 -6
      vertex -42.2461 -3.93247 -6
      vertex -41.975 -3.65126 -6
    endloop
  endfacet
  facet normal 0 0 -1
    outer loop
      vertex -42.475 -4.13755 -6
      vertex -41.975 -6 -6
      vertex -42.475 -6 -6
    endloop
  endfacet
  facet normal 0 0 -1
    outer loop
      vertex -41.975 -6 -6
      vertex -42.475 -4.13755 -6
      vertex -42.2461 -3.93247 -6
    endloop
  endfacet
  facet normal 0 0 -1
    outer loop
      vertex 41.975 -6 -6
      vertex 42.475 -4.13755 -6
      vertex 42.475 -6 -6
    endloop
  endfacet
  facet normal -0 0 -1
    outer loop
      vertex 42.475 -4.13755 -6
      vertex 41.975 -6 -6
      vertex 42.2461 -3.93247 -6
    endloop
  endfacet
  facet normal -0 0 -1
    outer loop
      vertex 42.2461 -3.93247 -6
      vertex 41.975 -6 -6
      vertex 41.975 -3.65126 -6
    endloop
  endfacet
  facet normal 0 0 -1
    outer loop
      vertex -42.2461 3.93247 -6
      vertex -41.975 6 -6
      vertex -41.975 3.65126 -6
    endloop
  endfacet
  facet normal 0 0 -1
    outer loop
      vertex -42.475 4.13755 -6
      vertex -41.975 6 -6
      vertex -42.2461 3.93247 -6
    endloop
  endfacet
  facet normal -0 0 -1
    outer loop
      vertex -41.975 6 -6
      vertex -42.475 4.13755 -6
      vertex -42.475 6 -6
    endloop
  endfacet
  facet normal 0 0 -1
    outer loop
      vertex 41.975 6 -6
      vertex 42.475 4.13755 -6
      vertex 42.2461 3.93247 -6
    endloop
  endfacet
  facet normal 0 0 -1
    outer loop
      vertex 41.975 6 -6
      vertex 42.2461 3.93247 -6
      vertex 41.975 3.65126 -6
    endloop
  endfacet
  facet normal 0 0 -1
    outer loop
      vertex 42.475 4.13755 -6
      vertex 41.975 6 -6
      vertex 42.475 6 -6
    endloop
  endfacet
  facet normal 1 -0 0
    outer loop
      vertex 41.975 3.65126 -6
      vertex 41.975 6 -24.2
      vertex 41.975 6 -6
    endloop
  endfacet
  facet normal 1 0 0
    outer loop
      vertex 41.975 6 -24.2
      vertex 41.975 3.65126 -6
      vertex 41.975 3.65126 -24.2
    endloop
  endfacet
  facet normal 1 -0 0
    outer loop
      vertex 41.975 -6 -6
      vertex 41.975 -3.65126 -24.2
      vertex 41.975 -3.65126 -6
    endloop
  endfacet
  facet normal 1 0 0
    outer loop
      vertex 41.975 -3.65126 -24.2
      vertex 41.975 -6 -6
      vertex 41.975 -6 -24.2
    endloop
  endfacet
  facet normal 0 0 -1
    outer loop
      vertex -37.6154 -6 -24.2
      vertex -40.575 0 -24.2
      vertex -37.6154 6 -24.2
    endloop
  endfacet
  facet normal 0 0 -1
    outer loop
      vertex -37.6154 -6 -24.2
      vertex -40.5896 -0.398736 -24.2
      vertex -40.575 0 -24.2
    endloop
  endfacet
  facet normal 0 0 -1
    outer loop
      vertex -37.6154 -6 -24.2
      vertex -40.6332 -0.795346 -24.2
      vertex -40.5896 -0.398736 -24.2
    endloop
  endfacet
  facet normal 0 0 -1
    outer loop
      vertex -37.6154 -6 -24.2
      vertex -40.7057 -1.18771 -24.2
      vertex -40.6332 -0.795346 -24.2
    endloop
  endfacet
  facet normal 0 0 -1
    outer loop
      vertex -37.6154 -6 -24.2
      vertex -40.8066 -1.57374 -24.2
      vertex -40.7057 -1.18771 -24.2
    endloop
  endfacet
  facet normal 0 0 -1
    outer loop
      vertex -37.6154 -6 -24.2
      vertex -40.9354 -1.95137 -24.2
      vertex -40.8066 -1.57374 -24.2
    endloop
  endfacet
  facet normal 0 0 -1
    outer loop
      vertex -37.6154 -6 -24.2
      vertex -41.0915 -2.31859 -24.2
      vertex -40.9354 -1.95137 -24.2
    endloop
  endfacet
  facet normal 0 0 -1
    outer loop
      vertex -37.6154 -6 -24.2
      vertex -41.2739 -2.67344 -24.2
      vertex -41.0915 -2.31859 -24.2
    endloop
  endfacet
  facet normal 0 0 -1
    outer loop
      vertex -37.6154 -6 -24.2
      vertex -41.4818 -3.01403 -24.2
      vertex -41.2739 -2.67344 -24.2
    endloop
  endfacet
  facet normal 0 0 -1
    outer loop
      vertex -37.6154 -6 -24.2
      vertex -41.714 -3.33854 -24.2
      vertex -41.4818 -3.01403 -24.2
    endloop
  endfacet
  facet normal 0 0 -1
    outer loop
      vertex -41.975 -6 -24.2
      vertex -41.714 -3.33854 -24.2
      vertex -37.6154 -6 -24.2
    endloop
  endfacet
  facet normal 0 0 -1
    outer loop
      vertex -41.714 -3.33854 -24.2
      vertex -41.975 -6 -24.2
      vertex -41.9692 -3.64523 -24.2
    endloop
  endfacet
  facet normal 0 0 -1
    outer loop
      vertex -41.9692 -3.64523 -24.2
      vertex -41.975 -6 -24.2
      vertex -41.975 -3.65126 -24.2
    endloop
  endfacet
  facet normal 0 0 -1
    outer loop
      vertex -40.5896 0.398736 -24.2
      vertex -37.6154 6 -24.2
      vertex -40.575 0 -24.2
    endloop
  endfacet
  facet normal 0 0 -1
    outer loop
      vertex -40.6332 0.795346 -24.2
      vertex -37.6154 6 -24.2
      vertex -40.5896 0.398736 -24.2
    endloop
  endfacet
  facet normal 0 0 -1
    outer loop
      vertex -40.7057 1.18771 -24.2
      vertex -37.6154 6 -24.2
      vertex -40.6332 0.795346 -24.2
    endloop
  endfacet
  facet normal 0 0 -1
    outer loop
      vertex -40.8066 1.57374 -24.2
      vertex -37.6154 6 -24.2
      vertex -40.7057 1.18771 -24.2
    endloop
  endfacet
  facet normal 0 0 -1
    outer loop
      vertex -40.9354 1.95137 -24.2
      vertex -37.6154 6 -24.2
      vertex -40.8066 1.57374 -24.2
    endloop
  endfacet
  facet normal 0 0 -1
    outer loop
      vertex -41.0915 2.31859 -24.2
      vertex -37.6154 6 -24.2
      vertex -40.9354 1.95137 -24.2
    endloop
  endfacet
  facet normal 0 0 -1
    outer loop
      vertex -41.2739 2.67344 -24.2
      vertex -37.6154 6 -24.2
      vertex -41.0915 2.31859 -24.2
    endloop
  endfacet
  facet normal 0 0 -1
    outer loop
      vertex -41.4818 3.01403 -24.2
      vertex -37.6154 6 -24.2
      vertex -41.2739 2.67344 -24.2
    endloop
  endfacet
  facet normal 0 0 -1
    outer loop
      vertex -41.714 3.33854 -24.2
      vertex -37.6154 6 -24.2
      vertex -41.4818 3.01403 -24.2
    endloop
  endfacet
  facet normal 0 0 -1
    outer loop
      vertex -41.975 6 -24.2
      vertex -41.714 3.33854 -24.2
      vertex -41.9692 3.64523 -24.2
    endloop
  endfacet
  facet normal 0 0 -1
    outer loop
      vertex -41.975 6 -24.2
      vertex -41.9692 3.64523 -24.2
      vertex -41.975 3.65126 -24.2
    endloop
  endfacet
  facet normal 0 0 -1
    outer loop
      vertex -41.714 3.33854 -24.2
      vertex -41.975 6 -24.2
      vertex -37.6154 6 -24.2
    endloop
  endfacet
  facet normal 0 0 -1
    outer loop
      vertex 39.6 -6 -24.2
      vertex 41.975 -3.65126 -24.2
      vertex 41.975 -6 -24.2
    endloop
  endfacet
  facet normal -0 0 -1
    outer loop
      vertex 41.975 -3.65126 -24.2
      vertex 39.6 -6 -24.2
      vertex 41.9692 -3.64523 -24.2
    endloop
  endfacet
  facet normal -0 0 -1
    outer loop
      vertex 41.9692 -3.64523 -24.2
      vertex 39.6 -6 -24.2
      vertex 41.714 -3.33854 -24.2
    endloop
  endfacet
  facet normal -0 0 -1
    outer loop
      vertex 41.714 -3.33854 -24.2
      vertex 39.6 -6 -24.2
      vertex 41.4818 -3.01403 -24.2
    endloop
  endfacet
  facet normal -0 0 -1
    outer loop
      vertex 41.4818 -3.01403 -24.2
      vertex 39.6 -6 -24.2
      vertex 41.2739 -2.67344 -24.2
    endloop
  endfacet
  facet normal -0 0 -1
    outer loop
      vertex 41.2739 -2.67344 -24.2
      vertex 39.6 -6 -24.2
      vertex 41.0915 -2.31859 -24.2
    endloop
  endfacet
  facet normal -0 0 -1
    outer loop
      vertex 41.0915 -2.31859 -24.2
      vertex 39.6 -6 -24.2
      vertex 40.9354 -1.95137 -24.2
    endloop
  endfacet
  facet normal -0 0 -1
    outer loop
      vertex 40.5896 -0.398736 -24.2
      vertex 39.6 -6 -24.2
      vertex 40.575 0 -24.2
    endloop
  endfacet
  facet normal -0 0 -1
    outer loop
      vertex 40.6332 -0.795346 -24.2
      vertex 39.6 -6 -24.2
      vertex 40.5896 -0.398736 -24.2
    endloop
  endfacet
  facet normal -0 0 -1
    outer loop
      vertex 40.7057 -1.18771 -24.2
      vertex 39.6 -6 -24.2
      vertex 40.6332 -0.795346 -24.2
    endloop
  endfacet
  facet normal -0 0 -1
    outer loop
      vertex 40.8066 -1.57374 -24.2
      vertex 39.6 -6 -24.2
      vertex 40.7057 -1.18771 -24.2
    endloop
  endfacet
  facet normal -0 0 -1
    outer loop
      vertex 40.9354 -1.95137 -24.2
      vertex 39.6 -6 -24.2
      vertex 40.8066 -1.57374 -24.2
    endloop
  endfacet
  facet normal 0 0 -1
    outer loop
      vertex 39.6 6 -24.2
      vertex 41.975 3.65126 -24.2
      vertex 41.9692 3.64523 -24.2
    endloop
  endfacet
  facet normal 0 0 -1
    outer loop
      vertex 39.6 6 -24.2
      vertex 41.9692 3.64523 -24.2
      vertex 41.714 3.33854 -24.2
    endloop
  endfacet
  facet normal 0 0 -1
    outer loop
      vertex 39.6 6 -24.2
      vertex 41.714 3.33854 -24.2
      vertex 41.4818 3.01403 -24.2
    endloop
  endfacet
  facet normal 0 0 -1
    outer loop
      vertex 39.6 6 -24.2
      vertex 41.4818 3.01403 -24.2
      vertex 41.2739 2.67344 -24.2
    endloop
  endfacet
  facet normal 0 0 -1
    outer loop
      vertex 39.6 6 -24.2
      vertex 41.2739 2.67344 -24.2
      vertex 41.0915 2.31859 -24.2
    endloop
  endfacet
  facet normal 0 0 -1
    outer loop
      vertex 39.6 6 -24.2
      vertex 41.0915 2.31859 -24.2
      vertex 40.9354 1.95137 -24.2
    endloop
  endfacet
  facet normal 0 0 -1
    outer loop
      vertex 39.6 6 -24.2
      vertex 40.9354 1.95137 -24.2
      vertex 40.8066 1.57374 -24.2
    endloop
  endfacet
  facet normal 0 0 -1
    outer loop
      vertex 39.6 6 -24.2
      vertex 40.575 0 -24.2
      vertex 39.6 -6 -24.2
    endloop
  endfacet
  facet normal 0 0 -1
    outer loop
      vertex 40.575 0 -24.2
      vertex 39.6 6 -24.2
      vertex 40.5896 0.398736 -24.2
    endloop
  endfacet
  facet normal 0 0 -1
    outer loop
      vertex 41.975 3.65126 -24.2
      vertex 39.6 6 -24.2
      vertex 41.975 6 -24.2
    endloop
  endfacet
  facet normal 0 0 -1
    outer loop
      vertex 40.7057 1.18771 -24.2
      vertex 39.6 6 -24.2
      vertex 40.8066 1.57374 -24.2
    endloop
  endfacet
  facet normal 0 0 -1
    outer loop
      vertex 40.6332 0.795346 -24.2
      vertex 39.6 6 -24.2
      vertex 40.7057 1.18771 -24.2
    endloop
  endfacet
  facet normal 0 0 -1
    outer loop
      vertex 40.5896 0.398736 -24.2
      vertex 39.6 6 -24.2
      vertex 40.6332 0.795346 -24.2
    endloop
  endfacet
  facet normal -1 0 0
    outer loop
      vertex -41.975 3.65126 -24.2
      vertex -41.975 6 -6
      vertex -41.975 6 -24.2
    endloop
  endfacet
  facet normal -1 -0 0
    outer loop
      vertex -41.975 6 -6
      vertex -41.975 3.65126 -24.2
      vertex -41.975 3.65126 -6
    endloop
  endfacet
  facet normal -1 0 0
    outer loop
      vertex -41.975 -6 -24.2
      vertex -41.975 -3.65126 -6
      vertex -41.975 -3.65126 -24.2
    endloop
  endfacet
  facet normal -1 -0 0
    outer loop
      vertex -41.975 -3.65126 -6
      vertex -41.975 -6 -24.2
      vertex -41.975 -6 -6
    endloop
  endfacet
  facet normal 0.946462 0.322814 0
    outer loop
      vertex 40.9354 -1.95137 0
      vertex 40.8066 -1.57374 -24.2
      vertex 40.8066 -1.57374 0
    endloop
  endfacet
  facet normal 0.946462 0.322814 0
    outer loop
      vertex 40.8066 -1.57374 -24.2
      vertex 40.9354 -1.95137 0
      vertex 40.9354 -1.95137 -24.2
    endloop
  endfacet
  facet normal 0.994012 0.109273 0
    outer loop
      vertex 40.6332 -0.795346 0
      vertex 40.5896 -0.398736 -24.2
      vertex 40.5896 -0.398736 0
    endloop
  endfacet
  facet normal 0.994012 0.109273 0
    outer loop
      vertex 40.5896 -0.398736 -24.2
      vertex 40.6332 -0.795346 0
      vertex 40.6332 -0.795346 -24.2
    endloop
  endfacet
  facet normal 0.768683 0.63963 0
    outer loop
      vertex 41.9692 -3.64523 0
      vertex 41.714 -3.33854 -24.2
      vertex 41.714 -3.33854 0
    endloop
  endfacet
  facet normal 0.768683 0.63963 0
    outer loop
      vertex 41.714 -3.33854 -24.2
      vertex 41.9692 -3.64523 0
      vertex 41.9692 -3.64523 -24.2
    endloop
  endfacet
  facet normal 0.71993 -0.694047 0
    outer loop
      vertex 42.2461 3.93247 0
      vertex 41.975 3.65126 -6
      vertex 42.2461 3.93247 -6
    endloop
  endfacet
  facet normal 0.719946 -0.69403 -1.5519e-06
    outer loop
      vertex 41.9692 3.64523 0
      vertex 41.975 3.65126 -6
      vertex 42.2461 3.93247 0
    endloop
  endfacet
  facet normal 0.720718 -0.693228 0
    outer loop
      vertex 41.9692 3.64523 -24.2
      vertex 41.975 3.65126 -6
      vertex 41.9692 3.64523 0
    endloop
  endfacet
  facet normal 0.720718 -0.693228 0
    outer loop
      vertex 41.975 3.65126 -6
      vertex 41.9692 3.64523 -24.2
      vertex 41.975 3.65126 -24.2
    endloop
  endfacet
  facet normal 0.967497 0.252883 0
    outer loop
      vertex 40.8066 -1.57374 0
      vertex 40.7057 -1.18771 -24.2
      vertex 40.7057 -1.18771 0
    endloop
  endfacet
  facet normal 0.967497 0.252883 0
    outer loop
      vertex 40.7057 -1.18771 -24.2
      vertex 40.8066 -1.57374 0
      vertex 40.8066 -1.57374 -24.2
    endloop
  endfacet
  facet normal 0.768683 -0.63963 0
    outer loop
      vertex 41.714 3.33854 0
      vertex 41.9692 3.64523 -24.2
      vertex 41.9692 3.64523 0
    endloop
  endfacet
  facet normal 0.768683 -0.63963 0
    outer loop
      vertex 41.9692 3.64523 -24.2
      vertex 41.714 3.33854 0
      vertex 41.714 3.33854 -24.2
    endloop
  endfacet
  facet normal 0.983354 -0.181702 0
    outer loop
      vertex 40.6332 0.795346 0
      vertex 40.7057 1.18771 -24.2
      vertex 40.7057 1.18771 0
    endloop
  endfacet
  facet normal 0.983354 -0.181702 0
    outer loop
      vertex 40.7057 1.18771 -24.2
      vertex 40.6332 0.795346 0
      vertex 40.6332 0.795346 -24.2
    endloop
  endfacet
  facet normal 0.99933 -0.0365912 0
    outer loop
      vertex 40.575 0 0
      vertex 40.5896 0.398736 -24.2
      vertex 40.5896 0.398736 0
    endloop
  endfacet
  facet normal 0.99933 -0.0365912 0
    outer loop
      vertex 40.5896 0.398736 -24.2
      vertex 40.575 0 0
      vertex 40.575 0 -24.2
    endloop
  endfacet
  facet normal 0.667291 -0.744797 0
    outer loop
      vertex 42.2461 3.93247 -6
      vertex 42.475 4.13755 0
      vertex 42.2461 3.93247 0
    endloop
  endfacet
  facet normal 0.667291 -0.744797 0
    outer loop
      vertex 42.475 4.13755 0
      vertex 42.2461 3.93247 -6
      vertex 42.475 4.13755 -6
    endloop
  endfacet
  facet normal 0.920302 0.391208 0
    outer loop
      vertex 41.0915 -2.31859 0
      vertex 40.9354 -1.95137 -24.2
      vertex 40.9354 -1.95137 0
    endloop
  endfacet
  facet normal 0.920302 0.391208 0
    outer loop
      vertex 40.9354 -1.95137 -24.2
      vertex 41.0915 -2.31859 0
      vertex 41.0915 -2.31859 -24.2
    endloop
  endfacet
  facet normal 0.667291 0.744797 -0
    outer loop
      vertex 42.475 -4.13755 -6
      vertex 42.2461 -3.93247 0
      vertex 42.475 -4.13755 0
    endloop
  endfacet
  facet normal 0.667291 0.744797 0
    outer loop
      vertex 42.2461 -3.93247 0
      vertex 42.475 -4.13755 -6
      vertex 42.2461 -3.93247 -6
    endloop
  endfacet
  facet normal 0.946462 -0.322814 0
    outer loop
      vertex 40.8066 1.57374 0
      vertex 40.9354 1.95137 -24.2
      vertex 40.9354 1.95137 0
    endloop
  endfacet
  facet normal 0.946462 -0.322814 0
    outer loop
      vertex 40.9354 1.95137 -24.2
      vertex 40.8066 1.57374 0
      vertex 40.8066 1.57374 -24.2
    endloop
  endfacet
  facet normal 0.967497 -0.252883 0
    outer loop
      vertex 40.7057 1.18771 0
      vertex 40.8066 1.57374 -24.2
      vertex 40.8066 1.57374 0
    endloop
  endfacet
  facet normal 0.967497 -0.252883 0
    outer loop
      vertex 40.8066 1.57374 -24.2
      vertex 40.7057 1.18771 0
      vertex 40.7057 1.18771 -24.2
    endloop
  endfacet
  facet normal 0.720718 0.693228 0
    outer loop
      vertex 41.9692 -3.64523 0
      vertex 41.975 -3.65126 -6
      vertex 41.9692 -3.64523 -24.2
    endloop
  endfacet
  facet normal 0.719946 0.69403 -1.5519e-06
    outer loop
      vertex 42.2461 -3.93247 0
      vertex 41.975 -3.65126 -6
      vertex 41.9692 -3.64523 0
    endloop
  endfacet
  facet normal 0.71993 0.694047 0
    outer loop
      vertex 41.975 -3.65126 -6
      vertex 42.2461 -3.93247 0
      vertex 42.2461 -3.93247 -6
    endloop
  endfacet
  facet normal 0.720718 0.693228 0
    outer loop
      vertex 41.9692 -3.64523 -24.2
      vertex 41.975 -3.65126 -6
      vertex 41.975 -3.65126 -24.2
    endloop
  endfacet
  facet normal 0.920302 -0.391208 0
    outer loop
      vertex 40.9354 1.95137 0
      vertex 41.0915 2.31859 -24.2
      vertex 41.0915 2.31859 0
    endloop
  endfacet
  facet normal 0.920302 -0.391208 0
    outer loop
      vertex 41.0915 2.31859 -24.2
      vertex 40.9354 1.95137 0
      vertex 40.9354 1.95137 -24.2
    endloop
  endfacet
  facet normal 0.813251 -0.581914 0
    outer loop
      vertex 41.4818 3.01403 0
      vertex 41.714 3.33854 -24.2
      vertex 41.714 3.33854 0
    endloop
  endfacet
  facet normal 0.813251 -0.581914 0
    outer loop
      vertex 41.714 3.33854 -24.2
      vertex 41.4818 3.01403 0
      vertex 41.4818 3.01403 -24.2
    endloop
  endfacet
  facet normal 0.889384 -0.457161 0
    outer loop
      vertex 41.0915 2.31859 0
      vertex 41.2739 2.67344 -24.2
      vertex 41.2739 2.67344 0
    endloop
  endfacet
  facet normal 0.889384 -0.457161 0
    outer loop
      vertex 41.2739 2.67344 -24.2
      vertex 41.0915 2.31859 0
      vertex 41.0915 2.31859 -24.2
    endloop
  endfacet
  facet normal 0.889384 0.457161 0
    outer loop
      vertex 41.2739 -2.67344 0
      vertex 41.0915 -2.31859 -24.2
      vertex 41.0915 -2.31859 0
    endloop
  endfacet
  facet normal 0.889384 0.457161 0
    outer loop
      vertex 41.0915 -2.31859 -24.2
      vertex 41.2739 -2.67344 0
      vertex 41.2739 -2.67344 -24.2
    endloop
  endfacet
  facet normal 0.994012 -0.109273 0
    outer loop
      vertex 40.5896 0.398736 0
      vertex 40.6332 0.795346 -24.2
      vertex 40.6332 0.795346 0
    endloop
  endfacet
  facet normal 0.994012 -0.109273 0
    outer loop
      vertex 40.6332 0.795346 -24.2
      vertex 40.5896 0.398736 0
      vertex 40.5896 0.398736 -24.2
    endloop
  endfacet
  facet normal 0.983354 0.181702 0
    outer loop
      vertex 40.7057 -1.18771 0
      vertex 40.6332 -0.795346 -24.2
      vertex 40.6332 -0.795346 0
    endloop
  endfacet
  facet normal 0.983354 0.181702 0
    outer loop
      vertex 40.6332 -0.795346 -24.2
      vertex 40.7057 -1.18771 0
      vertex 40.7057 -1.18771 -24.2
    endloop
  endfacet
  facet normal 0.853547 0.521015 0
    outer loop
      vertex 41.4818 -3.01403 0
      vertex 41.2739 -2.67344 -24.2
      vertex 41.2739 -2.67344 0
    endloop
  endfacet
  facet normal 0.853547 0.521015 0
    outer loop
      vertex 41.2739 -2.67344 -24.2
      vertex 41.4818 -3.01403 0
      vertex 41.4818 -3.01403 -24.2
    endloop
  endfacet
  facet normal 0.99933 0.0365912 0
    outer loop
      vertex 40.5896 -0.398736 0
      vertex 40.575 0 -24.2
      vertex 40.575 0 0
    endloop
  endfacet
  facet normal 0.99933 0.0365912 0
    outer loop
      vertex 40.575 0 -24.2
      vertex 40.5896 -0.398736 0
      vertex 40.5896 -0.398736 -24.2
    endloop
  endfacet
  facet normal 0.853547 -0.521015 0
    outer loop
      vertex 41.2739 2.67344 0
      vertex 41.4818 3.01403 -24.2
      vertex 41.4818 3.01403 0
    endloop
  endfacet
  facet normal 0.853547 -0.521015 0
    outer loop
      vertex 41.4818 3.01403 -24.2
      vertex 41.2739 2.67344 0
      vertex 41.2739 2.67344 -24.2
    endloop
  endfacet
  facet normal 0.813251 0.581914 0
    outer loop
      vertex 41.714 -3.33854 0
      vertex 41.4818 -3.01403 -24.2
      vertex 41.4818 -3.01403 0
    endloop
  endfacet
  facet normal 0.813251 0.581914 0
    outer loop
      vertex 41.4818 -3.01403 -24.2
      vertex 41.714 -3.33854 0
      vertex 41.714 -3.33854 -24.2
    endloop
  endfacet
  facet normal -0.994012 -0.109273 0
    outer loop
      vertex -40.5896 0.398736 -24.2
      vertex -40.6332 0.795346 0
      vertex -40.6332 0.795346 -24.2
    endloop
  endfacet
  facet normal -0.994012 -0.109273 0
    outer loop
      vertex -40.6332 0.795346 0
      vertex -40.5896 0.398736 -24.2
      vertex -40.5896 0.398736 0
    endloop
  endfacet
  facet normal -0.99933 -0.0365912 0
    outer loop
      vertex -40.575 0 -24.2
      vertex -40.5896 0.398736 0
      vertex -40.5896 0.398736 -24.2
    endloop
  endfacet
  facet normal -0.99933 -0.0365912 0
    outer loop
      vertex -40.5896 0.398736 0
      vertex -40.575 0 -24.2
      vertex -40.575 0 0
    endloop
  endfacet
  facet normal -0.983354 -0.181702 0
    outer loop
      vertex -40.6332 0.795346 -24.2
      vertex -40.7057 1.18771 0
      vertex -40.7057 1.18771 -24.2
    endloop
  endfacet
  facet normal -0.983354 -0.181702 0
    outer loop
      vertex -40.7057 1.18771 0
      vertex -40.6332 0.795346 -24.2
      vertex -40.6332 0.795346 0
    endloop
  endfacet
  facet normal -0.853547 0.521015 0
    outer loop
      vertex -41.4818 -3.01403 -24.2
      vertex -41.2739 -2.67344 0
      vertex -41.2739 -2.67344 -24.2
    endloop
  endfacet
  facet normal -0.853547 0.521015 0
    outer loop
      vertex -41.2739 -2.67344 0
      vertex -41.4818 -3.01403 -24.2
      vertex -41.4818 -3.01403 0
    endloop
  endfacet
  facet normal -0.967497 -0.252883 0
    outer loop
      vertex -40.7057 1.18771 -24.2
      vertex -40.8066 1.57374 0
      vertex -40.8066 1.57374 -24.2
    endloop
  endfacet
  facet normal -0.967497 -0.252883 0
    outer loop
      vertex -40.8066 1.57374 0
      vertex -40.7057 1.18771 -24.2
      vertex -40.7057 1.18771 0
    endloop
  endfacet
  facet normal -0.853547 -0.521015 0
    outer loop
      vertex -41.2739 2.67344 -24.2
      vertex -41.4818 3.01403 0
      vertex -41.4818 3.01403 -24.2
    endloop
  endfacet
  facet normal -0.853547 -0.521015 0
    outer loop
      vertex -41.4818 3.01403 0
      vertex -41.2739 2.67344 -24.2
      vertex -41.2739 2.67344 0
    endloop
  endfacet
  facet normal -0.768683 -0.63963 0
    outer loop
      vertex -41.714 3.33854 -24.2
      vertex -41.9692 3.64523 0
      vertex -41.9692 3.64523 -24.2
    endloop
  endfacet
  facet normal -0.768683 -0.63963 0
    outer loop
      vertex -41.9692 3.64523 0
      vertex -41.714 3.33854 -24.2
      vertex -41.714 3.33854 0
    endloop
  endfacet
  facet normal -0.813251 -0.581914 0
    outer loop
      vertex -41.4818 3.01403 -24.2
      vertex -41.714 3.33854 0
      vertex -41.714 3.33854 -24.2
    endloop
  endfacet
  facet normal -0.813251 -0.581914 0
    outer loop
      vertex -41.714 3.33854 0
      vertex -41.4818 3.01403 -24.2
      vertex -41.4818 3.01403 0
    endloop
  endfacet
  facet normal -0.813251 0.581914 0
    outer loop
      vertex -41.714 -3.33854 -24.2
      vertex -41.4818 -3.01403 0
      vertex -41.4818 -3.01403 -24.2
    endloop
  endfacet
  facet normal -0.813251 0.581914 0
    outer loop
      vertex -41.4818 -3.01403 0
      vertex -41.714 -3.33854 -24.2
      vertex -41.714 -3.33854 0
    endloop
  endfacet
  facet normal -0.967497 0.252883 0
    outer loop
      vertex -40.8066 -1.57374 -24.2
      vertex -40.7057 -1.18771 0
      vertex -40.7057 -1.18771 -24.2
    endloop
  endfacet
  facet normal -0.967497 0.252883 0
    outer loop
      vertex -40.7057 -1.18771 0
      vertex -40.8066 -1.57374 -24.2
      vertex -40.8066 -1.57374 0
    endloop
  endfacet
  facet normal -0.71993 -0.694047 0
    outer loop
      vertex -41.975 3.65126 -6
      vertex -42.2461 3.93247 0
      vertex -42.2461 3.93247 -6
    endloop
  endfacet
  facet normal -0.719946 -0.69403 -1.5519e-06
    outer loop
      vertex -41.975 3.65126 -6
      vertex -41.9692 3.64523 0
      vertex -42.2461 3.93247 0
    endloop
  endfacet
  facet normal -0.720718 -0.693228 -0
    outer loop
      vertex -41.9692 3.64523 0
      vertex -41.975 3.65126 -6
      vertex -41.9692 3.64523 -24.2
    endloop
  endfacet
  facet normal -0.720718 -0.693228 0
    outer loop
      vertex -41.975 3.65126 -24.2
      vertex -41.9692 3.64523 -24.2
      vertex -41.975 3.65126 -6
    endloop
  endfacet
  facet normal -0.99933 0.0365912 0
    outer loop
      vertex -40.5896 -0.398736 -24.2
      vertex -40.575 0 0
      vertex -40.575 0 -24.2
    endloop
  endfacet
  facet normal -0.99933 0.0365912 0
    outer loop
      vertex -40.575 0 0
      vertex -40.5896 -0.398736 -24.2
      vertex -40.5896 -0.398736 0
    endloop
  endfacet
  facet normal -0.983354 0.181702 0
    outer loop
      vertex -40.7057 -1.18771 -24.2
      vertex -40.6332 -0.795346 0
      vertex -40.6332 -0.795346 -24.2
    endloop
  endfacet
  facet normal -0.983354 0.181702 0
    outer loop
      vertex -40.6332 -0.795346 0
      vertex -40.7057 -1.18771 -24.2
      vertex -40.7057 -1.18771 0
    endloop
  endfacet
  facet normal -0.720718 0.693228 0
    outer loop
      vertex -41.975 -3.65126 -6
      vertex -41.9692 -3.64523 -24.2
      vertex -41.975 -3.65126 -24.2
    endloop
  endfacet
  facet normal -0.720718 0.693228 0
    outer loop
      vertex -41.9692 -3.64523 -24.2
      vertex -41.975 -3.65126 -6
      vertex -41.9692 -3.64523 0
    endloop
  endfacet
  facet normal -0.71993 0.694047 -1.58514e-06
    outer loop
      vertex -42.2461 -3.93247 -6
      vertex -41.9692 -3.64523 0
      vertex -41.975 -3.65126 -6
    endloop
  endfacet
  facet normal -0.719946 0.69403 0
    outer loop
      vertex -41.9692 -3.64523 0
      vertex -42.2461 -3.93247 -6
      vertex -42.2461 -3.93247 0
    endloop
  endfacet
  facet normal -0.946462 0.322814 0
    outer loop
      vertex -40.9354 -1.95137 -24.2
      vertex -40.8066 -1.57374 0
      vertex -40.8066 -1.57374 -24.2
    endloop
  endfacet
  facet normal -0.946462 0.322814 0
    outer loop
      vertex -40.8066 -1.57374 0
      vertex -40.9354 -1.95137 -24.2
      vertex -40.9354 -1.95137 0
    endloop
  endfacet
  facet normal -0.667291 -0.744797 0
    outer loop
      vertex -42.475 4.13755 -6
      vertex -42.2461 3.93247 0
      vertex -42.475 4.13755 0
    endloop
  endfacet
  facet normal -0.667291 -0.744797 -0
    outer loop
      vertex -42.2461 3.93247 0
      vertex -42.475 4.13755 -6
      vertex -42.2461 3.93247 -6
    endloop
  endfacet
  facet normal -0.946462 -0.322814 0
    outer loop
      vertex -40.8066 1.57374 -24.2
      vertex -40.9354 1.95137 0
      vertex -40.9354 1.95137 -24.2
    endloop
  endfacet
  facet normal -0.946462 -0.322814 0
    outer loop
      vertex -40.9354 1.95137 0
      vertex -40.8066 1.57374 -24.2
      vertex -40.8066 1.57374 0
    endloop
  endfacet
  facet normal -0.994012 0.109273 0
    outer loop
      vertex -40.6332 -0.795346 -24.2
      vertex -40.5896 -0.398736 0
      vertex -40.5896 -0.398736 -24.2
    endloop
  endfacet
  facet normal -0.994012 0.109273 0
    outer loop
      vertex -40.5896 -0.398736 0
      vertex -40.6332 -0.795346 -24.2
      vertex -40.6332 -0.795346 0
    endloop
  endfacet
  facet normal -0.768683 0.63963 0
    outer loop
      vertex -41.9692 -3.64523 -24.2
      vertex -41.714 -3.33854 0
      vertex -41.714 -3.33854 -24.2
    endloop
  endfacet
  facet normal -0.768683 0.63963 0
    outer loop
      vertex -41.714 -3.33854 0
      vertex -41.9692 -3.64523 -24.2
      vertex -41.9692 -3.64523 0
    endloop
  endfacet
  facet normal -0.667291 0.744797 0
    outer loop
      vertex -42.2461 -3.93247 -6
      vertex -42.475 -4.13755 0
      vertex -42.2461 -3.93247 0
    endloop
  endfacet
  facet normal -0.667291 0.744797 0
    outer loop
      vertex -42.475 -4.13755 0
      vertex -42.2461 -3.93247 -6
      vertex -42.475 -4.13755 -6
    endloop
  endfacet
  facet normal -0.889384 0.457161 0
    outer loop
      vertex -41.2739 -2.67344 -24.2
      vertex -41.0915 -2.31859 0
      vertex -41.0915 -2.31859 -24.2
    endloop
  endfacet
  facet normal -0.889384 0.457161 0
    outer loop
      vertex -41.0915 -2.31859 0
      vertex -41.2739 -2.67344 -24.2
      vertex -41.2739 -2.67344 0
    endloop
  endfacet
  facet normal -0.920302 0.391208 0
    outer loop
      vertex -41.0915 -2.31859 -24.2
      vertex -40.9354 -1.95137 0
      vertex -40.9354 -1.95137 -24.2
    endloop
  endfacet
  facet normal -0.920302 0.391208 0
    outer loop
      vertex -40.9354 -1.95137 0
      vertex -41.0915 -2.31859 -24.2
      vertex -41.0915 -2.31859 0
    endloop
  endfacet
  facet normal -0.920302 -0.391208 0
    outer loop
      vertex -40.9354 1.95137 -24.2
      vertex -41.0915 2.31859 0
      vertex -41.0915 2.31859 -24.2
    endloop
  endfacet
  facet normal -0.920302 -0.391208 0
    outer loop
      vertex -41.0915 2.31859 0
      vertex -40.9354 1.95137 -24.2
      vertex -40.9354 1.95137 0
    endloop
  endfacet
  facet normal -0.889384 -0.457161 0
    outer loop
      vertex -41.0915 2.31859 -24.2
      vertex -41.2739 2.67344 0
      vertex -41.2739 2.67344 -24.2
    endloop
  endfacet
  facet normal -0.889384 -0.457161 0
    outer loop
      vertex -41.2739 2.67344 0
      vertex -41.0915 2.31859 -24.2
      vertex -41.0915 2.31859 0
    endloop
  endfacet
  facet normal 0.4226 0 -0.906316
    outer loop
      vertex -31.1865 -6 -7.33593
      vertex -30.7689 6 -7.14121
      vertex -30.7689 -6 -7.14121
    endloop
  endfacet
  facet normal 0.4226 0 -0.906316
    outer loop
      vertex -30.7689 6 -7.14121
      vertex -31.1865 -6 -7.33593
      vertex -31.1865 6 -7.33593
    endloop
  endfacet
  facet normal -0.921524 0 -0.388322
    outer loop
      vertex 38.1993 -6 -17.3508
      vertex 38.1666 6 -17.2732
      vertex 38.1993 6 -17.3508
    endloop
  endfacet
  facet normal -0.921524 -0 -0.388322
    outer loop
      vertex 38.1666 6 -17.2732
      vertex 38.1993 -6 -17.3508
      vertex 38.1666 -6 -17.2732
    endloop
  endfacet
  facet normal -0.146216 0 -0.989253
    outer loop
      vertex -23.5629 -6 -6.12847
      vertex 34.7941 6 -14.7539
      vertex 34.7941 -6 -14.7539
    endloop
  endfacet
  facet normal -0.146216 0 -0.989253
    outer loop
      vertex 34.7941 6 -14.7539
      vertex -23.5629 -6 -6.12847
      vertex -23.5629 6 -6.12847
    endloop
  endfacet
  facet normal 0.681955 0 -0.731394
    outer loop
      vertex -34.5695 -6 -9.70471
      vertex -34.2325 6 -9.39049
      vertex -34.2325 -6 -9.39049
    endloop
  endfacet
  facet normal 0.681955 0 -0.731394
    outer loop
      vertex -34.2325 6 -9.39049
      vertex -34.5695 -6 -9.70471
      vertex -34.5695 6 -9.70471
    endloop
  endfacet
  facet normal 0.920691 -0 0.390293
    outer loop
      vertex -37.6388 -6 -24.1448
      vertex -37.6154 6 -24.2
      vertex -37.6388 6 -24.1448
    endloop
  endfacet
  facet normal 0.920691 0 0.390293
    outer loop
      vertex -37.6154 6 -24.2
      vertex -37.6388 -6 -24.1448
      vertex -37.6154 -6 -24.2
    endloop
  endfacet
  facet normal 0.121892 0 -0.992543
    outer loop
      vertex -27.2371 -6 -6.12847
      vertex -26.7798 6 -6.07231
      vertex -26.7798 -6 -6.07231
    endloop
  endfacet
  facet normal 0.121892 0 -0.992543
    outer loop
      vertex -26.7798 6 -6.07231
      vertex -27.2371 -6 -6.12847
      vertex -27.2371 6 -6.12847
    endloop
  endfacet
  facet normal 0.98771 0 -0.156297
    outer loop
      vertex -38.3995 -6 -16.9079
      vertex -38.4715 6 -17.3629
      vertex -38.3995 6 -16.9079
    endloop
  endfacet
  facet normal 0.98771 0 -0.156297
    outer loop
      vertex -38.4715 6 -17.3629
      vertex -38.3995 -6 -16.9079
      vertex -38.4715 -6 -17.3629
    endloop
  endfacet
  facet normal 0.190832 0 -0.981623
    outer loop
      vertex -28.1444 -6 -6.28846
      vertex -27.6922 6 -6.20055
      vertex -27.6922 -6 -6.20055
    endloop
  endfacet
  facet normal 0.190832 0 -0.981623
    outer loop
      vertex -27.6922 6 -6.20055
      vertex -28.1444 -6 -6.28846
      vertex -28.1444 6 -6.28846
    endloop
  endfacet
  facet normal 0.992533 0 -0.121978
    outer loop
      vertex -38.4715 -6 -17.3629
      vertex -38.5277 6 -17.8202
      vertex -38.4715 6 -17.3629
    endloop
  endfacet
  facet normal 0.992533 0 -0.121978
    outer loop
      vertex -38.5277 6 -17.8202
      vertex -38.4715 -6 -17.3629
      vertex -38.5277 -6 -17.8202
    endloop
  endfacet
  facet normal 0.996205 0 -0.0870323
    outer loop
      vertex -38.5277 -6 -17.8202
      vertex -38.5678 6 -18.2792
      vertex -38.5277 6 -17.8202
    endloop
  endfacet
  facet normal 0.996205 0 -0.0870323
    outer loop
      vertex -38.5678 6 -18.2792
      vertex -38.5277 -6 -17.8202
      vertex -38.5678 -6 -18.2792
    endloop
  endfacet
  facet normal 0.39075 0 -0.920497
    outer loop
      vertex -30.7689 -6 -7.14121
      vertex -30.3448 6 -6.96118
      vertex -30.3448 -6 -6.96118
    endloop
  endfacet
  facet normal 0.39075 0 -0.920497
    outer loop
      vertex -30.3448 6 -6.96118
      vertex -30.7689 -6 -7.14121
      vertex -30.7689 6 -7.14121
    endloop
  endfacet
  facet normal 0.998631 -0 0.0523082
    outer loop
      vertex -38.5919 -6 -19.6607
      vertex -38.5678 6 -20.1208
      vertex -38.5919 6 -19.6607
    endloop
  endfacet
  facet normal 0.998631 0 0.0523082
    outer loop
      vertex -38.5678 6 -20.1208
      vertex -38.5919 -6 -19.6607
      vertex -38.5678 -6 -20.1208
    endloop
  endfacet
  facet normal 0.017449 0 -0.999848
    outer loop
      vertex -25.8607 -6 -6.00804
      vertex -25.4 6 -6
      vertex -25.4 -6 -6
    endloop
  endfacet
  facet normal 0.017449 0 -0.999848
    outer loop
      vertex -25.4 6 -6
      vertex -25.8607 -6 -6.00804
      vertex -25.8607 6 -6.00804
    endloop
  endfacet
  facet normal 0.573477 0 -0.819222
    outer loop
      vertex -33.1588 -6 -8.52098
      vertex -32.7813 6 -8.25672
      vertex -32.7813 -6 -8.25672
    endloop
  endfacet
  facet normal 0.573477 0 -0.819222
    outer loop
      vertex -32.7813 6 -8.25672
      vertex -33.1588 -6 -8.52098
      vertex -33.1588 6 -8.52098
    endloop
  endfacet
  facet normal -0.121892 0 -0.992543
    outer loop
      vertex -24.0202 -6 -6.07231
      vertex -23.5629 6 -6.12847
      vertex -23.5629 -6 -6.12847
    endloop
  endfacet
  facet normal -0.121892 0 -0.992543
    outer loop
      vertex -23.5629 6 -6.12847
      vertex -24.0202 -6 -6.07231
      vertex -24.0202 6 -6.07231
    endloop
  endfacet
  facet normal 0.358387 0 -0.933573
    outer loop
      vertex -30.3448 -6 -6.96118
      vertex -29.9147 6 -6.79607
      vertex -29.9147 -6 -6.79607
    endloop
  endfacet
  facet normal 0.358387 0 -0.933573
    outer loop
      vertex -29.9147 6 -6.79607
      vertex -30.3448 -6 -6.96118
      vertex -30.3448 6 -6.96118
    endloop
  endfacet
  facet normal -0.787781 0 -0.615956
    outer loop
      vertex 37.7638 -6 -16.5873
      vertex 37.5186 6 -16.2737
      vertex 37.7638 6 -16.5873
    endloop
  endfacet
  facet normal -0.787781 -0 -0.615956
    outer loop
      vertex 37.5186 6 -16.2737
      vertex 37.7638 -6 -16.5873
      vertex 37.5186 -6 -16.2737
    endloop
  endfacet
  facet normal 0.0523731 0 -0.998628
    outer loop
      vertex -26.3208 -6 -6.03217
      vertex -25.8607 6 -6.00804
      vertex -25.8607 -6 -6.00804
    endloop
  endfacet
  facet normal 0.0523731 0 -0.998628
    outer loop
      vertex -25.8607 6 -6.00804
      vertex -26.3208 -6 -6.03217
      vertex -26.3208 6 -6.03217
    endloop
  endfacet
  facet normal 0.981594 -0 0.19098
    outer loop
      vertex -38.3995 -6 -21.4921
      vertex -38.3115 6 -21.9444
      vertex -38.3995 6 -21.4921
    endloop
  endfacet
  facet normal 0.981594 0 0.19098
    outer loop
      vertex -38.3115 6 -21.9444
      vertex -38.3995 -6 -21.4921
      vertex -38.3115 -6 -21.9444
    endloop
  endfacet
  facet normal -0.017449 0 -0.999848
    outer loop
      vertex -25.4 -6 -6
      vertex -24.9393 6 -6.00804
      vertex -24.9393 -6 -6.00804
    endloop
  endfacet
  facet normal -0.017449 0 -0.999848
    outer loop
      vertex -24.9393 6 -6.00804
      vertex -25.4 -6 -6
      vertex -25.4 6 -6
    endloop
  endfacet
  facet normal 0.292362 0 -0.956308
    outer loop
      vertex -29.479 -6 -6.64606
      vertex -29.0384 6 -6.51136
      vertex -29.0384 -6 -6.51136
    endloop
  endfacet
  facet normal 0.292362 0 -0.956308
    outer loop
      vertex -29.0384 6 -6.51136
      vertex -29.479 -6 -6.64606
      vertex -29.479 6 -6.64606
    endloop
  endfacet
  facet normal 0.731416 0 -0.681932
    outer loop
      vertex -34.8953 -6 -10.0305
      vertex -35.2095 6 -10.3675
      vertex -34.8953 6 -10.0305
    endloop
  endfacet
  facet normal 0.731416 0 -0.681932
    outer loop
      vertex -35.2095 6 -10.3675
      vertex -34.8953 -6 -10.0305
      vertex -35.2095 -6 -10.3675
    endloop
  endfacet
  facet normal 0.999845 0 -0.0175792
    outer loop
      vertex -38.5919 -6 -18.7393
      vertex -38.6 6 -19.2
      vertex -38.5919 6 -18.7393
    endloop
  endfacet
  facet normal 0.999845 0 -0.0175792
    outer loop
      vertex -38.6 6 -19.2
      vertex -38.5919 -6 -18.7393
      vertex -38.6 -6 -19.2
    endloop
  endfacet
  facet normal 0.838701 0 -0.544592
    outer loop
      vertex -36.3433 -6 -11.8187
      vertex -36.5942 6 -12.2051
      vertex -36.3433 6 -11.8187
    endloop
  endfacet
  facet normal 0.838701 0 -0.544592
    outer loop
      vertex -36.5942 6 -12.2051
      vertex -36.3433 -6 -11.8187
      vertex -36.5942 -6 -12.2051
    endloop
  endfacet
  facet normal -0.883892 0 -0.467692
    outer loop
      vertex 38.1666 -6 -17.2732
      vertex 37.9804 6 -16.9213
      vertex 38.1666 6 -17.2732
    endloop
  endfacet
  facet normal -0.883892 -0 -0.467692
    outer loop
      vertex 37.9804 6 -16.9213
      vertex 38.1666 -6 -17.2732
      vertex 37.9804 -6 -16.9213
    endloop
  endfacet
  facet normal 0.629263 0 -0.777192
    outer loop
      vertex -33.8848 -6 -9.08821
      vertex -33.5267 6 -8.79827
      vertex -33.5267 -6 -8.79827
    endloop
  endfacet
  facet normal 0.629263 0 -0.777192
    outer loop
      vertex -33.5267 6 -8.79827
      vertex -33.8848 -6 -9.08821
      vertex -33.8848 6 -9.08821
    endloop
  endfacet
  facet normal 0.325542 0 -0.945528
    outer loop
      vertex -29.9147 -6 -6.79607
      vertex -29.479 6 -6.64606
      vertex -29.479 -6 -6.64606
    endloop
  endfacet
  facet normal 0.325542 0 -0.945528
    outer loop
      vertex -29.479 6 -6.64606
      vertex -29.9147 -6 -6.79607
      vertex -29.9147 6 -6.79607
    endloop
  endfacet
  facet normal 0.874607 0 -0.484832
    outer loop
      vertex -36.8315 -6 -12.6
      vertex -37.0549 6 -13.003
      vertex -36.8315 6 -12.6
    endloop
  endfacet
  facet normal 0.874607 0 -0.484832
    outer loop
      vertex -37.0549 6 -13.003
      vertex -36.8315 -6 -12.6
      vertex -37.0549 -6 -13.003
    endloop
  endfacet
  facet normal 0.992533 -0 0.121978
    outer loop
      vertex -38.5277 -6 -20.5798
      vertex -38.4715 6 -21.0371
      vertex -38.5277 6 -20.5798
    endloop
  endfacet
  facet normal 0.992533 0 0.121978
    outer loop
      vertex -38.4715 6 -21.0371
      vertex -38.5277 -6 -20.5798
      vertex -38.4715 -6 -21.0371
    endloop
  endfacet
  facet normal 0.945534 0 -0.325522
    outer loop
      vertex -37.8039 -6 -14.6853
      vertex -37.9539 6 -15.121
      vertex -37.8039 6 -14.6853
    endloop
  endfacet
  facet normal 0.945534 0 -0.325522
    outer loop
      vertex -37.9539 6 -15.121
      vertex -37.8039 -6 -14.6853
      vertex -37.9539 -6 -15.121
    endloop
  endfacet
  facet normal -0.447917 0 -0.894075
    outer loop
      vertex 35.9364 -6 -15.0918
      vertex 36.2923 6 -15.2701
      vertex 36.2923 -6 -15.2701
    endloop
  endfacet
  facet normal -0.447917 0 -0.894075
    outer loop
      vertex 36.2923 6 -15.2701
      vertex 35.9364 -6 -15.0918
      vertex 35.9364 6 -15.0918
    endloop
  endfacet
  facet normal -0.0871185 0 -0.996198
    outer loop
      vertex -24.4792 -6 -6.03217
      vertex -24.0202 6 -6.07231
      vertex -24.0202 -6 -6.07231
    endloop
  endfacet
  facet normal -0.0871185 0 -0.996198
    outer loop
      vertex -24.0202 6 -6.07231
      vertex -24.4792 -6 -6.03217
      vertex -24.4792 6 -6.03217
    endloop
  endfacet
  facet normal 0.777235 0 -0.629211
    outer loop
      vertex -35.5118 -6 -10.7152
      vertex -35.8017 6 -11.0733
      vertex -35.5118 6 -10.7152
    endloop
  endfacet
  facet normal 0.777235 0 -0.629211
    outer loop
      vertex -35.8017 6 -11.0733
      vertex -35.5118 -6 -10.7152
      vertex -35.8017 -6 -11.0733
    endloop
  endfacet
  facet normal 0.754657 0 -0.65612
    outer loop
      vertex -35.2095 -6 -10.3675
      vertex -35.5118 6 -10.7152
      vertex -35.2095 6 -10.3675
    endloop
  endfacet
  facet normal 0.754657 0 -0.65612
    outer loop
      vertex -35.5118 6 -10.7152
      vertex -35.2095 -6 -10.3675
      vertex -35.5118 -6 -10.7152
    endloop
  endfacet
  facet normal 0.484799 0 -0.874626
    outer loop
      vertex -32 -6 -7.76847
      vertex -31.597 6 -7.54509
      vertex -31.597 -6 -7.54509
    endloop
  endfacet
  facet normal 0.484799 0 -0.874626
    outer loop
      vertex -31.597 6 -7.54509
      vertex -32 -6 -7.76847
      vertex -32 6 -7.76847
    endloop
  endfacet
  facet normal 0.906333 0 -0.422565
    outer loop
      vertex -37.2641 -6 -13.4135
      vertex -37.4588 6 -13.8311
      vertex -37.2641 6 -13.4135
    endloop
  endfacet
  facet normal 0.906333 0 -0.422565
    outer loop
      vertex -37.4588 6 -13.8311
      vertex -37.2641 -6 -13.4135
      vertex -37.4588 -6 -13.8311
    endloop
  endfacet
  facet normal 0.890972 0 -0.454059
    outer loop
      vertex -37.0549 -6 -13.003
      vertex -37.2641 6 -13.4135
      vertex -37.0549 6 -13.003
    endloop
  endfacet
  facet normal 0.890972 0 -0.454059
    outer loop
      vertex -37.2641 6 -13.4135
      vertex -37.0549 -6 -13.003
      vertex -37.2641 -6 -13.4135
    endloop
  endfacet
  facet normal 0.156433 0 -0.987689
    outer loop
      vertex -27.6922 -6 -6.20055
      vertex -27.2371 6 -6.12847
      vertex -27.2371 -6 -6.12847
    endloop
  endfacet
  facet normal 0.156433 0 -0.987689
    outer loop
      vertex -27.2371 6 -6.12847
      vertex -27.6922 -6 -6.20055
      vertex -27.6922 6 -6.20055
    endloop
  endfacet
  facet normal -0.283567 0 -0.958953
    outer loop
      vertex 35.1843 -6 -14.8326
      vertex 35.5661 6 -14.9455
      vertex 35.5661 -6 -14.9455
    endloop
  endfacet
  facet normal -0.283567 0 -0.958953
    outer loop
      vertex 35.5661 6 -14.9455
      vertex 35.1843 -6 -14.8326
      vertex 35.1843 6 -14.8326
    endloop
  endfacet
  facet normal 0.0871185 0 -0.996198
    outer loop
      vertex -26.7798 -6 -6.07231
      vertex -26.3208 6 -6.03217
      vertex -26.3208 -6 -6.03217
    endloop
  endfacet
  facet normal 0.0871185 0 -0.996198
    outer loop
      vertex -26.3208 6 -6.03217
      vertex -26.7798 -6 -6.07231
      vertex -26.7798 6 -6.07231
    endloop
  endfacet
  facet normal 0.656095 0 -0.754678
    outer loop
      vertex -34.2325 -6 -9.39049
      vertex -33.8848 6 -9.08821
      vertex -33.8848 -6 -9.08821
    endloop
  endfacet
  facet normal 0.656095 0 -0.754678
    outer loop
      vertex -33.8848 6 -9.08821
      vertex -34.2325 -6 -9.39049
      vertex -34.2325 6 -9.39049
    endloop
  endfacet
  facet normal 0.93358 -0 0.358368
    outer loop
      vertex -37.8039 -6 -23.7147
      vertex -37.6388 6 -24.1448
      vertex -37.8039 6 -23.7147
    endloop
  endfacet
  facet normal 0.93358 0 0.358368
    outer loop
      vertex -37.6388 6 -24.1448
      vertex -37.8039 -6 -23.7147
      vertex -37.6388 -6 -24.1448
    endloop
  endfacet
  facet normal -0.525498 0 -0.850795
    outer loop
      vertex 36.2923 -6 -15.2701
      vertex 36.631 6 -15.4793
      vertex 36.631 -6 -15.4793
    endloop
  endfacet
  facet normal -0.525498 0 -0.850795
    outer loop
      vertex 36.631 6 -15.4793
      vertex 36.2923 -6 -15.2701
      vertex 36.2923 6 -15.2701
    endloop
  endfacet
  facet normal -0.839017 0 -0.544105
    outer loop
      vertex 37.9804 -6 -16.9213
      vertex 37.7638 6 -16.5873
      vertex 37.9804 6 -16.9213
    endloop
  endfacet
  facet normal -0.839017 -0 -0.544105
    outer loop
      vertex 37.7638 6 -16.5873
      vertex 37.9804 -6 -16.9213
      vertex 37.7638 -6 -16.5873
    endloop
  endfacet
  facet normal 0.798565 0 -0.601908
    outer loop
      vertex -35.8017 -6 -11.0733
      vertex -36.079 6 -11.4412
      vertex -35.8017 6 -11.0733
    endloop
  endfacet
  facet normal 0.798565 0 -0.601908
    outer loop
      vertex -36.079 6 -11.4412
      vertex -35.8017 -6 -11.0733
      vertex -36.079 -6 -11.4412
    endloop
  endfacet
  facet normal 0.98771 -0 0.156297
    outer loop
      vertex -38.4715 -6 -21.0371
      vertex -38.3995 6 -21.4921
      vertex -38.4715 6 -21.0371
    endloop
  endfacet
  facet normal 0.98771 0 0.156297
    outer loop
      vertex -38.3995 6 -21.4921
      vertex -38.4715 -6 -21.0371
      vertex -38.3995 -6 -21.4921
    endloop
  endfacet
  facet normal -0.730203 0 -0.683231
    outer loop
      vertex 37.5186 -6 -16.2737
      vertex 37.2466 6 -15.983
      vertex 37.5186 6 -16.2737
    endloop
  endfacet
  facet normal -0.730203 -0 -0.683231
    outer loop
      vertex 37.2466 6 -15.983
      vertex 37.5186 -6 -16.2737
      vertex 37.2466 -6 -15.983
    endloop
  endfacet
  facet normal 0.707096 0 -0.707118
    outer loop
      vertex -34.5695 -6 -9.70471
      vertex -34.8953 6 -10.0305
      vertex -34.5695 6 -9.70471
    endloop
  endfacet
  facet normal 0.707096 0 -0.707118
    outer loop
      vertex -34.8953 6 -10.0305
      vertex -34.5695 -6 -9.70471
      vertex -34.8953 -6 -10.0305
    endloop
  endfacet
  facet normal 0.819181 0 -0.573535
    outer loop
      vertex -36.079 -6 -11.4412
      vertex -36.3433 6 -11.8187
      vertex -36.079 6 -11.4412
    endloop
  endfacet
  facet normal 0.819181 0 -0.573535
    outer loop
      vertex -36.3433 6 -11.8187
      vertex -36.079 -6 -11.4412
      vertex -36.3433 -6 -11.8187
    endloop
  endfacet
  facet normal 0.224931 0 -0.974375
    outer loop
      vertex -28.5934 -6 -6.39211
      vertex -28.1444 6 -6.28846
      vertex -28.1444 -6 -6.28846
    endloop
  endfacet
  facet normal 0.224931 0 -0.974375
    outer loop
      vertex -28.1444 6 -6.28846
      vertex -28.5934 -6 -6.39211
      vertex -28.5934 6 -6.39211
    endloop
  endfacet
  facet normal 0.51507 0 -0.857148
    outer loop
      vertex -32.3949 -6 -8.00577
      vertex -32 6 -7.76847
      vertex -32 -6 -7.76847
    endloop
  endfacet
  facet normal 0.51507 0 -0.857148
    outer loop
      vertex -32 6 -7.76847
      vertex -32.3949 -6 -8.00577
      vertex -32.3949 6 -8.00577
    endloop
  endfacet
  facet normal 0.93358 0 -0.358368
    outer loop
      vertex -37.6388 -6 -14.2552
      vertex -37.8039 6 -14.6853
      vertex -37.6388 6 -14.2552
    endloop
  endfacet
  facet normal 0.93358 0 -0.358368
    outer loop
      vertex -37.8039 6 -14.6853
      vertex -37.6388 -6 -14.2552
      vertex -37.8039 -6 -14.6853
    endloop
  endfacet
  facet normal 0.974399 -0 0.224828
    outer loop
      vertex -38.3115 -6 -21.9444
      vertex -38.2079 6 -22.3934
      vertex -38.3115 6 -21.9444
    endloop
  endfacet
  facet normal 0.974399 0 0.224828
    outer loop
      vertex -38.2079 6 -22.3934
      vertex -38.3115 -6 -21.9444
      vertex -38.2079 -6 -22.3934
    endloop
  endfacet
  facet normal -0.367447 0 -0.930045
    outer loop
      vertex 35.5661 -6 -14.9455
      vertex 35.9364 6 -15.0918
      vertex 35.9364 -6 -15.0918
    endloop
  endfacet
  facet normal -0.367447 0 -0.930045
    outer loop
      vertex 35.9364 6 -15.0918
      vertex 35.5661 -6 -14.9455
      vertex 35.5661 6 -14.9455
    endloop
  endfacet
  facet normal -0.19771 0 -0.980261
    outer loop
      vertex 34.7941 -6 -14.7539
      vertex 35.1843 6 -14.8326
      vertex 35.1843 -6 -14.8326
    endloop
  endfacet
  facet normal -0.19771 0 -0.980261
    outer loop
      vertex 35.1843 6 -14.8326
      vertex 34.7941 -6 -14.7539
      vertex 34.7941 6 -14.7539
    endloop
  endfacet
  facet normal 0.45399 0 -0.891007
    outer loop
      vertex -31.597 -6 -7.54509
      vertex -31.1865 6 -7.33593
      vertex -31.1865 -6 -7.33593
    endloop
  endfacet
  facet normal 0.45399 0 -0.891007
    outer loop
      vertex -31.1865 6 -7.33593
      vertex -31.597 -6 -7.54509
      vertex -31.597 6 -7.54509
    endloop
  endfacet
  facet normal -0.0523731 0 -0.998628
    outer loop
      vertex -24.9393 -6 -6.00804
      vertex -24.4792 6 -6.03217
      vertex -24.4792 -6 -6.03217
    endloop
  endfacet
  facet normal -0.0523731 0 -0.998628
    outer loop
      vertex -24.4792 6 -6.03217
      vertex -24.9393 -6 -6.00804
      vertex -24.9393 6 -6.00804
    endloop
  endfacet
  facet normal 0.965946 -0 0.258743
    outer loop
      vertex -38.2079 -6 -22.3934
      vertex -38.0887 6 -22.8384
      vertex -38.2079 6 -22.3934
    endloop
  endfacet
  facet normal 0.965946 0 0.258743
    outer loop
      vertex -38.0887 6 -22.8384
      vertex -38.2079 -6 -22.3934
      vertex -38.0887 -6 -22.8384
    endloop
  endfacet
  facet normal 0.544668 0 -0.838652
    outer loop
      vertex -32.7813 -6 -8.25672
      vertex -32.3949 6 -8.00577
      vertex -32.3949 -6 -8.00577
    endloop
  endfacet
  facet normal 0.544668 0 -0.838652
    outer loop
      vertex -32.3949 6 -8.00577
      vertex -32.7813 -6 -8.25672
      vertex -32.7813 6 -8.25672
    endloop
  endfacet
  facet normal 0.857148 0 -0.51507
    outer loop
      vertex -36.5942 -6 -12.2051
      vertex -36.8315 6 -12.6
      vertex -36.5942 6 -12.2051
    endloop
  endfacet
  facet normal 0.857148 0 -0.51507
    outer loop
      vertex -36.8315 6 -12.6
      vertex -36.5942 -6 -12.2051
      vertex -36.8315 -6 -12.6
    endloop
  endfacet
  facet normal 0.92052 0 -0.390695
    outer loop
      vertex -37.4588 -6 -13.8311
      vertex -37.6388 6 -14.2552
      vertex -37.4588 6 -13.8311
    endloop
  endfacet
  facet normal 0.92052 0 -0.390695
    outer loop
      vertex -37.6388 6 -14.2552
      vertex -37.4588 -6 -13.8311
      vertex -37.6388 -6 -14.2552
    endloop
  endfacet
  facet normal 0.998631 0 -0.0523082
    outer loop
      vertex -38.5678 -6 -18.2792
      vertex -38.5919 6 -18.7393
      vertex -38.5678 6 -18.2792
    endloop
  endfacet
  facet normal 0.998631 0 -0.0523082
    outer loop
      vertex -38.5919 6 -18.7393
      vertex -38.5678 -6 -18.2792
      vertex -38.5919 -6 -18.7393
    endloop
  endfacet
  facet normal 0.996205 -0 0.0870323
    outer loop
      vertex -38.5678 -6 -20.1208
      vertex -38.5277 6 -20.5798
      vertex -38.5678 6 -20.1208
    endloop
  endfacet
  facet normal 0.996205 0 0.0870323
    outer loop
      vertex -38.5277 6 -20.5798
      vertex -38.5678 -6 -20.1208
      vertex -38.5277 -6 -20.5798
    endloop
  endfacet
  facet normal 0.956247 -0 0.29256
    outer loop
      vertex -38.0887 -6 -22.8384
      vertex -37.9539 6 -23.279
      vertex -38.0887 6 -22.8384
    endloop
  endfacet
  facet normal 0.956247 0 0.29256
    outer loop
      vertex -37.9539 6 -23.279
      vertex -38.0887 -6 -22.8384
      vertex -37.9539 -6 -23.279
    endloop
  endfacet
  facet normal 0.965946 0 -0.258743
    outer loop
      vertex -38.0887 -6 -15.5616
      vertex -38.2079 6 -16.0066
      vertex -38.0887 6 -15.5616
    endloop
  endfacet
  facet normal 0.965946 0 -0.258743
    outer loop
      vertex -38.2079 6 -16.0066
      vertex -38.0887 -6 -15.5616
      vertex -38.2079 -6 -16.0066
    endloop
  endfacet
  facet normal 0.945534 -0 0.325522
    outer loop
      vertex -37.9539 -6 -23.279
      vertex -37.8039 6 -23.7147
      vertex -37.9539 6 -23.279
    endloop
  endfacet
  facet normal 0.945534 0 0.325522
    outer loop
      vertex -37.8039 6 -23.7147
      vertex -37.9539 -6 -23.279
      vertex -37.8039 -6 -23.7147
    endloop
  endfacet
  facet normal -0.666964 0 -0.74509
    outer loop
      vertex 36.95 -6 -15.7175
      vertex 37.2466 6 -15.983
      vertex 37.2466 -6 -15.983
    endloop
  endfacet
  facet normal -0.666964 0 -0.74509
    outer loop
      vertex 37.2466 6 -15.983
      vertex 36.95 -6 -15.7175
      vertex 36.95 6 -15.7175
    endloop
  endfacet
  facet normal -0.598311 0 -0.801264
    outer loop
      vertex 36.631 -6 -15.4793
      vertex 36.95 6 -15.7175
      vertex 36.95 -6 -15.7175
    endloop
  endfacet
  facet normal -0.598311 0 -0.801264
    outer loop
      vertex 36.95 6 -15.7175
      vertex 36.631 -6 -15.4793
      vertex 36.631 6 -15.4793
    endloop
  endfacet
  facet normal 0.601895 0 -0.798576
    outer loop
      vertex -33.5267 -6 -8.79827
      vertex -33.1588 6 -8.52098
      vertex -33.1588 -6 -8.52098
    endloop
  endfacet
  facet normal 0.601895 0 -0.798576
    outer loop
      vertex -33.1588 6 -8.52098
      vertex -33.5267 -6 -8.79827
      vertex -33.5267 6 -8.79827
    endloop
  endfacet
  facet normal 0.999845 -0 0.0175792
    outer loop
      vertex -38.6 -6 -19.2
      vertex -38.5919 6 -19.6607
      vertex -38.6 6 -19.2
    endloop
  endfacet
  facet normal 0.999845 0 0.0175792
    outer loop
      vertex -38.5919 6 -19.6607
      vertex -38.6 -6 -19.2
      vertex -38.5919 -6 -19.6607
    endloop
  endfacet
  facet normal 0.956247 0 -0.29256
    outer loop
      vertex -37.9539 -6 -15.121
      vertex -38.0887 6 -15.5616
      vertex -37.9539 6 -15.121
    endloop
  endfacet
  facet normal 0.956247 0 -0.29256
    outer loop
      vertex -38.0887 6 -15.5616
      vertex -37.9539 -6 -15.121
      vertex -38.0887 -6 -15.5616
    endloop
  endfacet
  facet normal 0.981594 0 -0.19098
    outer loop
      vertex -38.3115 -6 -16.4556
      vertex -38.3995 6 -16.9079
      vertex -38.3115 6 -16.4556
    endloop
  endfacet
  facet normal 0.981594 0 -0.19098
    outer loop
      vertex -38.3995 6 -16.9079
      vertex -38.3115 -6 -16.4556
      vertex -38.3995 -6 -16.9079
    endloop
  endfacet
  facet normal 0.974399 0 -0.224828
    outer loop
      vertex -38.2079 -6 -16.0066
      vertex -38.3115 6 -16.4556
      vertex -38.2079 6 -16.0066
    endloop
  endfacet
  facet normal 0.974399 0 -0.224828
    outer loop
      vertex -38.3115 6 -16.4556
      vertex -38.2079 -6 -16.0066
      vertex -38.3115 -6 -16.4556
    endloop
  endfacet
  facet normal 0.258845 0 -0.965919
    outer loop
      vertex -29.0384 -6 -6.51136
      vertex -28.5934 6 -6.39211
      vertex -28.5934 -6 -6.39211
    endloop
  endfacet
  facet normal 0.258845 0 -0.965919
    outer loop
      vertex -28.5934 6 -6.39211
      vertex -29.0384 -6 -6.51136
      vertex -29.0384 6 -6.51136
    endloop
  endfacet
  facet normal -1 0 0
    outer loop
      vertex 39.6 -6 -24.2
      vertex 39.6 6 -17.2
      vertex 39.6 6 -24.2
    endloop
  endfacet
  facet normal -1 -0 0
    outer loop
      vertex 39.6 6 -17.2
      vertex 39.6 -6 -24.2
      vertex 39.6 -6 -17.2
    endloop
  endfacet
  facet normal 0.107042 0 -0.994255
    outer loop
      vertex 38.1993 -6 -17.3508
      vertex 39.6 6 -17.2
      vertex 39.6 -6 -17.2
    endloop
  endfacet
  facet normal 0.107042 0 -0.994255
    outer loop
      vertex 39.6 6 -17.2
      vertex 38.1993 -6 -17.3508
      vertex 38.1993 6 -17.3508
    endloop
  endfacet
  facet normal 1 -0 0
    outer loop
      vertex 42.475 4.13755 0
      vertex 42.475 6 -6
      vertex 42.475 6 0
    endloop
  endfacet
  facet normal 1 0 0
    outer loop
      vertex 42.475 6 -6
      vertex 42.475 4.13755 0
      vertex 42.475 4.13755 -6
    endloop
  endfacet
  facet normal 1 -0 0
    outer loop
      vertex 42.475 -6 0
      vertex 42.475 -4.13755 -6
      vertex 42.475 -4.13755 0
    endloop
  endfacet
  facet normal 1 0 0
    outer loop
      vertex 42.475 -4.13755 -6
      vertex 42.475 -6 0
      vertex 42.475 -6 -6
    endloop
  endfacet
  facet normal -1 0 0
    outer loop
      vertex -42.475 4.13755 -6
      vertex -42.475 6 0
      vertex -42.475 6 -6
    endloop
  endfacet
  facet normal -1 -0 0
    outer loop
      vertex -42.475 6 0
      vertex -42.475 4.13755 -6
      vertex -42.475 4.13755 0
    endloop
  endfacet
  facet normal -1 0 0
    outer loop
      vertex -42.475 -6 -6
      vertex -42.475 -4.13755 0
      vertex -42.475 -4.13755 -6
    endloop
  endfacet
  facet normal -1 -0 0
    outer loop
      vertex -42.475 -4.13755 0
      vertex -42.475 -6 -6
      vertex -42.475 -6 0
    endloop
  endfacet
  facet normal 0 1 -0
    outer loop
      vertex -25.8607 6 -6.00804
      vertex -42.475 6 0
      vertex -25.4 6 -6
    endloop
  endfacet
  facet normal 0 1 0
    outer loop
      vertex 42.475 6 0
      vertex -24.9393 6 -6.00804
      vertex -25.4 6 -6
    endloop
  endfacet
  facet normal 0 1 0
    outer loop
      vertex 42.475 6 0
      vertex -24.4792 6 -6.03217
      vertex -24.9393 6 -6.00804
    endloop
  endfacet
  facet normal 0 1 0
    outer loop
      vertex 42.475 6 0
      vertex -24.0202 6 -6.07231
      vertex -24.4792 6 -6.03217
    endloop
  endfacet
  facet normal 0 1 0
    outer loop
      vertex 42.475 6 0
      vertex -23.5629 6 -6.12847
      vertex -24.0202 6 -6.07231
    endloop
  endfacet
  facet normal 0 1 0
    outer loop
      vertex 42.475 6 0
      vertex 34.7941 6 -14.7539
      vertex -23.5629 6 -6.12847
    endloop
  endfacet
  facet normal 0 1 0
    outer loop
      vertex 41.975 6 -6
      vertex 35.1843 6 -14.8326
      vertex 34.7941 6 -14.7539
    endloop
  endfacet
  facet normal 0 1 0
    outer loop
      vertex 41.975 6 -6
      vertex 35.5661 6 -14.9455
      vertex 35.1843 6 -14.8326
    endloop
  endfacet
  facet normal 0 1 0
    outer loop
      vertex 41.975 6 -6
      vertex 35.9364 6 -15.0918
      vertex 35.5661 6 -14.9455
    endloop
  endfacet
  facet normal 0 1 0
    outer loop
      vertex 41.975 6 -6
      vertex 36.2923 6 -15.2701
      vertex 35.9364 6 -15.0918
    endloop
  endfacet
  facet normal 0 1 0
    outer loop
      vertex 41.975 6 -6
      vertex 36.631 6 -15.4793
      vertex 36.2923 6 -15.2701
    endloop
  endfacet
  facet normal 0 1 0
    outer loop
      vertex 41.975 6 -6
      vertex 36.95 6 -15.7175
      vertex 36.631 6 -15.4793
    endloop
  endfacet
  facet normal 0 1 0
    outer loop
      vertex 41.975 6 -6
      vertex 37.2466 6 -15.983
      vertex 36.95 6 -15.7175
    endloop
  endfacet
  facet normal 0 1 -0
    outer loop
      vertex 39.6 6 -17.2
      vertex 37.2466 6 -15.983
      vertex 41.975 6 -6
    endloop
  endfacet
  facet normal 0 1 0
    outer loop
      vertex 37.2466 6 -15.983
      vertex 39.6 6 -17.2
      vertex 37.5186 6 -16.2737
    endloop
  endfacet
  facet normal 0 1 0
    outer loop
      vertex 37.5186 6 -16.2737
      vertex 39.6 6 -17.2
      vertex 37.7638 6 -16.5873
    endloop
  endfacet
  facet normal 0 1 0
    outer loop
      vertex 37.7638 6 -16.5873
      vertex 39.6 6 -17.2
      vertex 37.9804 6 -16.9213
    endloop
  endfacet
  facet normal 0 1 -0
    outer loop
      vertex 41.975 6 -24.2
      vertex 39.6 6 -17.2
      vertex 41.975 6 -6
    endloop
  endfacet
  facet normal 0 1 0
    outer loop
      vertex 39.6 6 -17.2
      vertex 41.975 6 -24.2
      vertex 39.6 6 -24.2
    endloop
  endfacet
  facet normal 0 1 0
    outer loop
      vertex 41.975 6 -6
      vertex 42.475 6 0
      vertex 42.475 6 -6
    endloop
  endfacet
  facet normal 0 1 0
    outer loop
      vertex 34.7941 6 -14.7539
      vertex 42.475 6 0
      vertex 41.975 6 -6
    endloop
  endfacet
  facet normal 0 1 0
    outer loop
      vertex 42.475 6 0
      vertex -25.4 6 -6
      vertex -42.475 6 0
    endloop
  endfacet
  facet normal 0 1 0
    outer loop
      vertex -42.475 6 0
      vertex -41.975 6 -6
      vertex -42.475 6 -6
    endloop
  endfacet
  facet normal 0 1 -0
    outer loop
      vertex -26.3208 6 -6.03217
      vertex -42.475 6 0
      vertex -25.8607 6 -6.00804
    endloop
  endfacet
  facet normal 0 1 -0
    outer loop
      vertex -26.7798 6 -6.07231
      vertex -42.475 6 0
      vertex -26.3208 6 -6.03217
    endloop
  endfacet
  facet normal 0 1 -0
    outer loop
      vertex -27.2371 6 -6.12847
      vertex -42.475 6 0
      vertex -26.7798 6 -6.07231
    endloop
  endfacet
  facet normal 0 1 -0
    outer loop
      vertex -27.6922 6 -6.20055
      vertex -42.475 6 0
      vertex -27.2371 6 -6.12847
    endloop
  endfacet
  facet normal 0 1 -0
    outer loop
      vertex -28.1444 6 -6.28846
      vertex -42.475 6 0
      vertex -27.6922 6 -6.20055
    endloop
  endfacet
  facet normal 0 1 -0
    outer loop
      vertex -28.5934 6 -6.39211
      vertex -42.475 6 0
      vertex -28.1444 6 -6.28846
    endloop
  endfacet
  facet normal 0 1 -0
    outer loop
      vertex -29.0384 6 -6.51136
      vertex -42.475 6 0
      vertex -28.5934 6 -6.39211
    endloop
  endfacet
  facet normal 0 1 -0
    outer loop
      vertex -29.479 6 -6.64606
      vertex -42.475 6 0
      vertex -29.0384 6 -6.51136
    endloop
  endfacet
  facet normal 0 1 -0
    outer loop
      vertex -29.9147 6 -6.79607
      vertex -42.475 6 0
      vertex -29.479 6 -6.64606
    endloop
  endfacet
  facet normal 0 1 -0
    outer loop
      vertex -30.3448 6 -6.96118
      vertex -42.475 6 0
      vertex -29.9147 6 -6.79607
    endloop
  endfacet
  facet normal 0 1 -0
    outer loop
      vertex -30.7689 6 -7.14121
      vertex -42.475 6 0
      vertex -30.3448 6 -6.96118
    endloop
  endfacet
  facet normal 0 1 -0
    outer loop
      vertex -31.1865 6 -7.33593
      vertex -42.475 6 0
      vertex -30.7689 6 -7.14121
    endloop
  endfacet
  facet normal 0 1 -0
    outer loop
      vertex -31.597 6 -7.54509
      vertex -42.475 6 0
      vertex -31.1865 6 -7.33593
    endloop
  endfacet
  facet normal 0 1 -0
    outer loop
      vertex -32 6 -7.76847
      vertex -42.475 6 0
      vertex -31.597 6 -7.54509
    endloop
  endfacet
  facet normal 0 1 -0
    outer loop
      vertex -32.3949 6 -8.00577
      vertex -42.475 6 0
      vertex -32 6 -7.76847
    endloop
  endfacet
  facet normal 0 1 0
    outer loop
      vertex -42.475 6 0
      vertex -32.3949 6 -8.00577
      vertex -41.975 6 -6
    endloop
  endfacet
  facet normal 0 1 -0
    outer loop
      vertex -32.7813 6 -8.25672
      vertex -41.975 6 -6
      vertex -32.3949 6 -8.00577
    endloop
  endfacet
  facet normal 0 1 -0
    outer loop
      vertex -33.1588 6 -8.52098
      vertex -41.975 6 -6
      vertex -32.7813 6 -8.25672
    endloop
  endfacet
  facet normal 0 1 -0
    outer loop
      vertex -33.5267 6 -8.79827
      vertex -41.975 6 -6
      vertex -33.1588 6 -8.52098
    endloop
  endfacet
  facet normal 0 1 -0
    outer loop
      vertex -33.8848 6 -9.08821
      vertex -41.975 6 -6
      vertex -33.5267 6 -8.79827
    endloop
  endfacet
  facet normal 0 1 -0
    outer loop
      vertex -34.2325 6 -9.39049
      vertex -41.975 6 -6
      vertex -33.8848 6 -9.08821
    endloop
  endfacet
  facet normal 0 1 -0
    outer loop
      vertex -34.5695 6 -9.70471
      vertex -41.975 6 -6
      vertex -34.2325 6 -9.39049
    endloop
  endfacet
  facet normal 0 1 -0
    outer loop
      vertex -34.8953 6 -10.0305
      vertex -41.975 6 -6
      vertex -34.5695 6 -9.70471
    endloop
  endfacet
  facet normal 0 1 -0
    outer loop
      vertex -35.2095 6 -10.3675
      vertex -41.975 6 -6
      vertex -34.8953 6 -10.0305
    endloop
  endfacet
  facet normal 0 1 -0
    outer loop
      vertex -35.5118 6 -10.7152
      vertex -41.975 6 -6
      vertex -35.2095 6 -10.3675
    endloop
  endfacet
  facet normal 0 1 -0
    outer loop
      vertex -35.8017 6 -11.0733
      vertex -41.975 6 -6
      vertex -35.5118 6 -10.7152
    endloop
  endfacet
  facet normal 0 1 -0
    outer loop
      vertex -36.079 6 -11.4412
      vertex -41.975 6 -6
      vertex -35.8017 6 -11.0733
    endloop
  endfacet
  facet normal 0 1 -0
    outer loop
      vertex -36.3433 6 -11.8187
      vertex -41.975 6 -6
      vertex -36.079 6 -11.4412
    endloop
  endfacet
  facet normal 0 1 -0
    outer loop
      vertex -36.5942 6 -12.2051
      vertex -41.975 6 -6
      vertex -36.3433 6 -11.8187
    endloop
  endfacet
  facet normal 0 1 -0
    outer loop
      vertex -36.8315 6 -12.6
      vertex -41.975 6 -6
      vertex -36.5942 6 -12.2051
    endloop
  endfacet
  facet normal 0 1 -0
    outer loop
      vertex -37.0549 6 -13.003
      vertex -41.975 6 -6
      vertex -36.8315 6 -12.6
    endloop
  endfacet
  facet normal 0 1 -0
    outer loop
      vertex -37.2641 6 -13.4135
      vertex -41.975 6 -6
      vertex -37.0549 6 -13.003
    endloop
  endfacet
  facet normal 0 1 -0
    outer loop
      vertex -37.4588 6 -13.8311
      vertex -41.975 6 -6
      vertex -37.2641 6 -13.4135
    endloop
  endfacet
  facet normal 0 1 -0
    outer loop
      vertex -37.6388 6 -14.2552
      vertex -41.975 6 -6
      vertex -37.4588 6 -13.8311
    endloop
  endfacet
  facet normal 0 1 -0
    outer loop
      vertex -37.8039 6 -14.6853
      vertex -41.975 6 -6
      vertex -37.6388 6 -14.2552
    endloop
  endfacet
  facet normal 0 1 -0
    outer loop
      vertex -37.9539 6 -15.121
      vertex -41.975 6 -6
      vertex -37.8039 6 -14.6853
    endloop
  endfacet
  facet normal 0 1 -0
    outer loop
      vertex -38.0887 6 -15.5616
      vertex -41.975 6 -6
      vertex -37.9539 6 -15.121
    endloop
  endfacet
  facet normal 0 1 -0
    outer loop
      vertex -38.2079 6 -16.0066
      vertex -41.975 6 -6
      vertex -38.0887 6 -15.5616
    endloop
  endfacet
  facet normal 0 1 -0
    outer loop
      vertex -38.3115 6 -16.4556
      vertex -41.975 6 -6
      vertex -38.2079 6 -16.0066
    endloop
  endfacet
  facet normal 0 1 -0
    outer loop
      vertex -38.3995 6 -16.9079
      vertex -41.975 6 -6
      vertex -38.3115 6 -16.4556
    endloop
  endfacet
  facet normal 0 1 -0
    outer loop
      vertex -38.4715 6 -17.3629
      vertex -41.975 6 -6
      vertex -38.3995 6 -16.9079
    endloop
  endfacet
  facet normal 0 1 0
    outer loop
      vertex -41.975 6 -24.2
      vertex -38.4715 6 -17.3629
      vertex -38.5277 6 -17.8202
    endloop
  endfacet
  facet normal 0 1 0
    outer loop
      vertex -41.975 6 -24.2
      vertex -38.5277 6 -17.8202
      vertex -38.5678 6 -18.2792
    endloop
  endfacet
  facet normal 0 1 0
    outer loop
      vertex -41.975 6 -24.2
      vertex -38.5678 6 -18.2792
      vertex -38.5919 6 -18.7393
    endloop
  endfacet
  facet normal 0 1 0
    outer loop
      vertex -41.975 6 -24.2
      vertex -38.5919 6 -18.7393
      vertex -38.6 6 -19.2
    endloop
  endfacet
  facet normal 0 1 0
    outer loop
      vertex -41.975 6 -24.2
      vertex -38.6 6 -19.2
      vertex -38.5919 6 -19.6607
    endloop
  endfacet
  facet normal 0 1 0
    outer loop
      vertex -41.975 6 -24.2
      vertex -38.5919 6 -19.6607
      vertex -38.5678 6 -20.1208
    endloop
  endfacet
  facet normal 0 1 0
    outer loop
      vertex -41.975 6 -24.2
      vertex -38.5678 6 -20.1208
      vertex -38.5277 6 -20.5798
    endloop
  endfacet
  facet normal 0 1 0
    outer loop
      vertex -41.975 6 -24.2
      vertex -38.5277 6 -20.5798
      vertex -38.4715 6 -21.0371
    endloop
  endfacet
  facet normal 0 1 0
    outer loop
      vertex -41.975 6 -24.2
      vertex -38.4715 6 -21.0371
      vertex -38.3995 6 -21.4921
    endloop
  endfacet
  facet normal 0 1 0
    outer loop
      vertex -41.975 6 -24.2
      vertex -38.3995 6 -21.4921
      vertex -38.3115 6 -21.9444
    endloop
  endfacet
  facet normal 0 1 0
    outer loop
      vertex -38.4715 6 -17.3629
      vertex -41.975 6 -24.2
      vertex -41.975 6 -6
    endloop
  endfacet
  facet normal 0 1 0
    outer loop
      vertex -38.2079 6 -22.3934
      vertex -41.975 6 -24.2
      vertex -38.3115 6 -21.9444
    endloop
  endfacet
  facet normal 0 1 0
    outer loop
      vertex -38.0887 6 -22.8384
      vertex -41.975 6 -24.2
      vertex -38.2079 6 -22.3934
    endloop
  endfacet
  facet normal 0 1 0
    outer loop
      vertex -37.9539 6 -23.279
      vertex -41.975 6 -24.2
      vertex -38.0887 6 -22.8384
    endloop
  endfacet
  facet normal 0 1 0
    outer loop
      vertex -37.8039 6 -23.7147
      vertex -41.975 6 -24.2
      vertex -37.9539 6 -23.279
    endloop
  endfacet
  facet normal 0 1 0
    outer loop
      vertex -37.6388 6 -24.1448
      vertex -41.975 6 -24.2
      vertex -37.8039 6 -23.7147
    endloop
  endfacet
  facet normal 0 1 0
    outer loop
      vertex -41.975 6 -24.2
      vertex -37.6388 6 -24.1448
      vertex -37.6154 6 -24.2
    endloop
  endfacet
  facet normal 0 1 0
    outer loop
      vertex 39.6 6 -17.2
      vertex 38.1666 6 -17.2732
      vertex 37.9804 6 -16.9213
    endloop
  endfacet
  facet normal -0 1 0
    outer loop
      vertex 38.1666 6 -17.2732
      vertex 39.6 6 -17.2
      vertex 38.1993 6 -17.3508
    endloop
  endfacet
  facet normal 0 -1 0
    outer loop
      vertex 38.1666 -6 -17.2732
      vertex 39.6 -6 -17.2
      vertex 37.9804 -6 -16.9213
    endloop
  endfacet
  facet normal 0 -1 0
    outer loop
      vertex 39.6 -6 -17.2
      vertex 38.1666 -6 -17.2732
      vertex 38.1993 -6 -17.3508
    endloop
  endfacet
  facet normal 0 -1 0
    outer loop
      vertex -24.4792 -6 -6.03217
      vertex -42.475 -6 0
      vertex -24.9393 -6 -6.00804
    endloop
  endfacet
  facet normal 0 -1 0
    outer loop
      vertex -42.475 -6 0
      vertex -25.8607 -6 -6.00804
      vertex -25.4 -6 -6
    endloop
  endfacet
  facet normal 0 -1 0
    outer loop
      vertex -42.475 -6 0
      vertex -26.3208 -6 -6.03217
      vertex -25.8607 -6 -6.00804
    endloop
  endfacet
  facet normal 0 -1 0
    outer loop
      vertex -42.475 -6 0
      vertex -26.7798 -6 -6.07231
      vertex -26.3208 -6 -6.03217
    endloop
  endfacet
  facet normal 0 -1 0
    outer loop
      vertex -42.475 -6 0
      vertex -27.2371 -6 -6.12847
      vertex -26.7798 -6 -6.07231
    endloop
  endfacet
  facet normal 0 -1 0
    outer loop
      vertex -42.475 -6 0
      vertex -27.6922 -6 -6.20055
      vertex -27.2371 -6 -6.12847
    endloop
  endfacet
  facet normal 0 -1 0
    outer loop
      vertex -42.475 -6 0
      vertex -28.1444 -6 -6.28846
      vertex -27.6922 -6 -6.20055
    endloop
  endfacet
  facet normal 0 -1 0
    outer loop
      vertex -42.475 -6 0
      vertex -28.5934 -6 -6.39211
      vertex -28.1444 -6 -6.28846
    endloop
  endfacet
  facet normal 0 -1 0
    outer loop
      vertex -42.475 -6 0
      vertex -29.0384 -6 -6.51136
      vertex -28.5934 -6 -6.39211
    endloop
  endfacet
  facet normal 0 -1 0
    outer loop
      vertex -42.475 -6 0
      vertex -29.479 -6 -6.64606
      vertex -29.0384 -6 -6.51136
    endloop
  endfacet
  facet normal 0 -1 0
    outer loop
      vertex -42.475 -6 0
      vertex -29.9147 -6 -6.79607
      vertex -29.479 -6 -6.64606
    endloop
  endfacet
  facet normal 0 -1 0
    outer loop
      vertex -42.475 -6 0
      vertex -30.3448 -6 -6.96118
      vertex -29.9147 -6 -6.79607
    endloop
  endfacet
  facet normal 0 -1 0
    outer loop
      vertex -42.475 -6 0
      vertex -30.7689 -6 -7.14121
      vertex -30.3448 -6 -6.96118
    endloop
  endfacet
  facet normal 0 -1 0
    outer loop
      vertex -42.475 -6 0
      vertex -31.1865 -6 -7.33593
      vertex -30.7689 -6 -7.14121
    endloop
  endfacet
  facet normal 0 -1 0
    outer loop
      vertex -42.475 -6 0
      vertex -31.597 -6 -7.54509
      vertex -31.1865 -6 -7.33593
    endloop
  endfacet
  facet normal 0 -1 0
    outer loop
      vertex -42.475 -6 0
      vertex -32 -6 -7.76847
      vertex -31.597 -6 -7.54509
    endloop
  endfacet
  facet normal 0 -1 0
    outer loop
      vertex -42.475 -6 0
      vertex -32.3949 -6 -8.00577
      vertex -32 -6 -7.76847
    endloop
  endfacet
  facet normal 0 -1 0
    outer loop
      vertex -41.975 -6 -6
      vertex -32.7813 -6 -8.25672
      vertex -32.3949 -6 -8.00577
    endloop
  endfacet
  facet normal 0 -1 0
    outer loop
      vertex -41.975 -6 -6
      vertex -33.1588 -6 -8.52098
      vertex -32.7813 -6 -8.25672
    endloop
  endfacet
  facet normal 0 -1 0
    outer loop
      vertex -41.975 -6 -6
      vertex -33.5267 -6 -8.79827
      vertex -33.1588 -6 -8.52098
    endloop
  endfacet
  facet normal 0 -1 0
    outer loop
      vertex -41.975 -6 -6
      vertex -33.8848 -6 -9.08821
      vertex -33.5267 -6 -8.79827
    endloop
  endfacet
  facet normal 0 -1 0
    outer loop
      vertex -41.975 -6 -6
      vertex -34.2325 -6 -9.39049
      vertex -33.8848 -6 -9.08821
    endloop
  endfacet
  facet normal 0 -1 0
    outer loop
      vertex -41.975 -6 -6
      vertex -34.5695 -6 -9.70471
      vertex -34.2325 -6 -9.39049
    endloop
  endfacet
  facet normal 0 -1 0
    outer loop
      vertex -41.975 -6 -6
      vertex -34.8953 -6 -10.0305
      vertex -34.5695 -6 -9.70471
    endloop
  endfacet
  facet normal 0 -1 0
    outer loop
      vertex -41.975 -6 -6
      vertex -35.2095 -6 -10.3675
      vertex -34.8953 -6 -10.0305
    endloop
  endfacet
  facet normal 0 -1 0
    outer loop
      vertex -41.975 -6 -6
      vertex -35.5118 -6 -10.7152
      vertex -35.2095 -6 -10.3675
    endloop
  endfacet
  facet normal 0 -1 0
    outer loop
      vertex -41.975 -6 -6
      vertex -35.8017 -6 -11.0733
      vertex -35.5118 -6 -10.7152
    endloop
  endfacet
  facet normal 0 -1 0
    outer loop
      vertex -41.975 -6 -6
      vertex -36.079 -6 -11.4412
      vertex -35.8017 -6 -11.0733
    endloop
  endfacet
  facet normal 0 -1 0
    outer loop
      vertex -41.975 -6 -6
      vertex -36.3433 -6 -11.8187
      vertex -36.079 -6 -11.4412
    endloop
  endfacet
  facet normal 0 -1 0
    outer loop
      vertex -41.975 -6 -6
      vertex -36.5942 -6 -12.2051
      vertex -36.3433 -6 -11.8187
    endloop
  endfacet
  facet normal 0 -1 0
    outer loop
      vertex -41.975 -6 -6
      vertex -36.8315 -6 -12.6
      vertex -36.5942 -6 -12.2051
    endloop
  endfacet
  facet normal 0 -1 0
    outer loop
      vertex -41.975 -6 -6
      vertex -37.0549 -6 -13.003
      vertex -36.8315 -6 -12.6
    endloop
  endfacet
  facet normal 0 -1 0
    outer loop
      vertex -41.975 -6 -6
      vertex -37.2641 -6 -13.4135
      vertex -37.0549 -6 -13.003
    endloop
  endfacet
  facet normal 0 -1 0
    outer loop
      vertex -41.975 -6 -6
      vertex -37.4588 -6 -13.8311
      vertex -37.2641 -6 -13.4135
    endloop
  endfacet
  facet normal 0 -1 0
    outer loop
      vertex -41.975 -6 -6
      vertex -37.6388 -6 -14.2552
      vertex -37.4588 -6 -13.8311
    endloop
  endfacet
  facet normal 0 -1 0
    outer loop
      vertex -41.975 -6 -6
      vertex -37.8039 -6 -14.6853
      vertex -37.6388 -6 -14.2552
    endloop
  endfacet
  facet normal 0 -1 0
    outer loop
      vertex -41.975 -6 -6
      vertex -37.9539 -6 -15.121
      vertex -37.8039 -6 -14.6853
    endloop
  endfacet
  facet normal 0 -1 0
    outer loop
      vertex -41.975 -6 -6
      vertex -38.0887 -6 -15.5616
      vertex -37.9539 -6 -15.121
    endloop
  endfacet
  facet normal 0 -1 0
    outer loop
      vertex -41.975 -6 -6
      vertex -38.2079 -6 -16.0066
      vertex -38.0887 -6 -15.5616
    endloop
  endfacet
  facet normal 0 -1 0
    outer loop
      vertex -41.975 -6 -6
      vertex -38.3115 -6 -16.4556
      vertex -38.2079 -6 -16.0066
    endloop
  endfacet
  facet normal 0 -1 0
    outer loop
      vertex -41.975 -6 -6
      vertex -38.3995 -6 -16.9079
      vertex -38.3115 -6 -16.4556
    endloop
  endfacet
  facet normal 0 -1 0
    outer loop
      vertex -41.975 -6 -6
      vertex -38.4715 -6 -17.3629
      vertex -38.3995 -6 -16.9079
    endloop
  endfacet
  facet normal 0 -1 0
    outer loop
      vertex -41.975 -6 -24.2
      vertex -38.4715 -6 -17.3629
      vertex -41.975 -6 -6
    endloop
  endfacet
  facet normal 0 -1 0
    outer loop
      vertex -38.4715 -6 -17.3629
      vertex -41.975 -6 -24.2
      vertex -38.5277 -6 -17.8202
    endloop
  endfacet
  facet normal 0 -1 0
    outer loop
      vertex -38.5277 -6 -17.8202
      vertex -41.975 -6 -24.2
      vertex -38.5678 -6 -18.2792
    endloop
  endfacet
  facet normal 0 -1 0
    outer loop
      vertex -38.5678 -6 -18.2792
      vertex -41.975 -6 -24.2
      vertex -38.5919 -6 -18.7393
    endloop
  endfacet
  facet normal 0 -1 0
    outer loop
      vertex -38.5919 -6 -18.7393
      vertex -41.975 -6 -24.2
      vertex -38.6 -6 -19.2
    endloop
  endfacet
  facet normal 0 -1 -0
    outer loop
      vertex -38.6 -6 -19.2
      vertex -41.975 -6 -24.2
      vertex -38.5919 -6 -19.6607
    endloop
  endfacet
  facet normal 0 -1 -0
    outer loop
      vertex -38.5919 -6 -19.6607
      vertex -41.975 -6 -24.2
      vertex -38.5678 -6 -20.1208
    endloop
  endfacet
  facet normal 0 -1 -0
    outer loop
      vertex -38.5678 -6 -20.1208
      vertex -41.975 -6 -24.2
      vertex -38.5277 -6 -20.5798
    endloop
  endfacet
  facet normal 0 -1 -0
    outer loop
      vertex -38.5277 -6 -20.5798
      vertex -41.975 -6 -24.2
      vertex -38.4715 -6 -21.0371
    endloop
  endfacet
  facet normal 0 -1 -0
    outer loop
      vertex -38.4715 -6 -21.0371
      vertex -41.975 -6 -24.2
      vertex -38.3995 -6 -21.4921
    endloop
  endfacet
  facet normal 0 -1 -0
    outer loop
      vertex -38.3995 -6 -21.4921
      vertex -41.975 -6 -24.2
      vertex -38.3115 -6 -21.9444
    endloop
  endfacet
  facet normal 0 -1 0
    outer loop
      vertex -41.975 -6 -24.2
      vertex -38.2079 -6 -22.3934
      vertex -38.3115 -6 -21.9444
    endloop
  endfacet
  facet normal 0 -1 0
    outer loop
      vertex -41.975 -6 -24.2
      vertex -38.0887 -6 -22.8384
      vertex -38.2079 -6 -22.3934
    endloop
  endfacet
  facet normal 0 -1 0
    outer loop
      vertex -41.975 -6 -24.2
      vertex -37.9539 -6 -23.279
      vertex -38.0887 -6 -22.8384
    endloop
  endfacet
  facet normal 0 -1 0
    outer loop
      vertex -41.975 -6 -24.2
      vertex -37.8039 -6 -23.7147
      vertex -37.9539 -6 -23.279
    endloop
  endfacet
  facet normal 0 -1 0
    outer loop
      vertex -41.975 -6 -24.2
      vertex -37.6388 -6 -24.1448
      vertex -37.8039 -6 -23.7147
    endloop
  endfacet
  facet normal 0 -1 -0
    outer loop
      vertex -37.6388 -6 -24.1448
      vertex -41.975 -6 -24.2
      vertex -37.6154 -6 -24.2
    endloop
  endfacet
  facet normal 0 -1 0
    outer loop
      vertex -41.975 -6 -6
      vertex -42.475 -6 0
      vertex -42.475 -6 -6
    endloop
  endfacet
  facet normal 0 -1 0
    outer loop
      vertex -32.3949 -6 -8.00577
      vertex -42.475 -6 0
      vertex -41.975 -6 -6
    endloop
  endfacet
  facet normal 0 -1 0
    outer loop
      vertex -24.9393 -6 -6.00804
      vertex -42.475 -6 0
      vertex -25.4 -6 -6
    endloop
  endfacet
  facet normal 0 -1 -0
    outer loop
      vertex 42.475 -6 0
      vertex 41.975 -6 -6
      vertex 42.475 -6 -6
    endloop
  endfacet
  facet normal 0 -1 0
    outer loop
      vertex -24.0202 -6 -6.07231
      vertex -42.475 -6 0
      vertex -24.4792 -6 -6.03217
    endloop
  endfacet
  facet normal 0 -1 0
    outer loop
      vertex -23.5629 -6 -6.12847
      vertex -42.475 -6 0
      vertex -24.0202 -6 -6.07231
    endloop
  endfacet
  facet normal 0 -1 0
    outer loop
      vertex -42.475 -6 0
      vertex -23.5629 -6 -6.12847
      vertex 42.475 -6 0
    endloop
  endfacet
  facet normal 0 -1 0
    outer loop
      vertex 34.7941 -6 -14.7539
      vertex 42.475 -6 0
      vertex -23.5629 -6 -6.12847
    endloop
  endfacet
  facet normal 0 -1 0
    outer loop
      vertex 42.475 -6 0
      vertex 34.7941 -6 -14.7539
      vertex 41.975 -6 -6
    endloop
  endfacet
  facet normal 0 -1 0
    outer loop
      vertex 35.1843 -6 -14.8326
      vertex 41.975 -6 -6
      vertex 34.7941 -6 -14.7539
    endloop
  endfacet
  facet normal 0 -1 0
    outer loop
      vertex 35.5661 -6 -14.9455
      vertex 41.975 -6 -6
      vertex 35.1843 -6 -14.8326
    endloop
  endfacet
  facet normal 0 -1 0
    outer loop
      vertex 35.9364 -6 -15.0918
      vertex 41.975 -6 -6
      vertex 35.5661 -6 -14.9455
    endloop
  endfacet
  facet normal 0 -1 0
    outer loop
      vertex 36.2923 -6 -15.2701
      vertex 41.975 -6 -6
      vertex 35.9364 -6 -15.0918
    endloop
  endfacet
  facet normal 0 -1 0
    outer loop
      vertex 36.631 -6 -15.4793
      vertex 41.975 -6 -6
      vertex 36.2923 -6 -15.2701
    endloop
  endfacet
  facet normal 0 -1 0
    outer loop
      vertex 36.95 -6 -15.7175
      vertex 41.975 -6 -6
      vertex 36.631 -6 -15.4793
    endloop
  endfacet
  facet normal 0 -1 0
    outer loop
      vertex 37.2466 -6 -15.983
      vertex 41.975 -6 -6
      vertex 36.95 -6 -15.7175
    endloop
  endfacet
  facet normal 0 -1 0
    outer loop
      vertex 39.6 -6 -17.2
      vertex 37.2466 -6 -15.983
      vertex 37.5186 -6 -16.2737
    endloop
  endfacet
  facet normal 0 -1 0
    outer loop
      vertex 39.6 -6 -17.2
      vertex 37.5186 -6 -16.2737
      vertex 37.7638 -6 -16.5873
    endloop
  endfacet
  facet normal 0 -1 0
    outer loop
      vertex 39.6 -6 -17.2
      vertex 37.7638 -6 -16.5873
      vertex 37.9804 -6 -16.9213
    endloop
  endfacet
  facet normal 0 -1 0
    outer loop
      vertex 37.2466 -6 -15.983
      vertex 39.6 -6 -17.2
      vertex 41.975 -6 -6
    endloop
  endfacet
  facet normal 0 -1 0
    outer loop
      vertex 41.975 -6 -24.2
      vertex 39.6 -6 -17.2
      vertex 39.6 -6 -24.2
    endloop
  endfacet
  facet normal 0 -1 0
    outer loop
      vertex 39.6 -6 -17.2
      vertex 41.975 -6 -24.2
      vertex 41.975 -6 -6
    endloop
  endfacet
endsolid OpenSCAD_Model
